<?xml version="1.0" standalone="no"?>
<!DOCTYPE svg PUBLIC "-//W3C//DTD SVG 1.1//EN" "http://www.w3.org/Graphics/SVG/1.1/DTD/svg11.dtd" >
<svg xmlns="http://www.w3.org/2000/svg">
<metadata>
Created by FontPrep 20130207 at Thu Oct 17 11:56:36 2013
 By Rodrigo Saiani
Copyright (c) 2012 by Rodrigo Saiani. All rights reserved.
</metadata>
<defs>
<font id="e176f0073fa3afe7441034b0b77152f3" horiz-adv-x='1024' >
  <font-face 
    font-family="MotivaSans-ExtraBold"
    font-weight="800"
    font-stretch="normal"
    units-per-em="2048"
    panose-1="0 0 9 0 0 0 0 0 0 0"
    ascent="1540"
    descent="-508"
    x-height="1073"
    cap-height="1434"
    bbox="-213.1 -1503 2414 2230"
    underline-thickness="102"
    underline-position="-51"
    unicode-range="U+0020-1F633"
  />
<missing-glyph horiz-adv-x="1292" 
d="M369 166h557v1104h-557v-1104zM1096 0h-897v1434h897v-1434z" />
    <glyph glyph-name="f_f" unicode="ff" horiz-adv-x="1474" 
d="M1212 1196v-123h230v-289h-230v-784h-340v784h-354v-784h-340v784h-137v289h137v137q0 164 104 264t302 101q139 0 213 -39l-49 -238q-53 14 -113 15q-117 0 -117 -117v-123h354v137q0 164 104 264t302 101q139 0 213 -39l-49 -238q-53 14 -111 15q-119 0 -119 -117z" />
    <glyph glyph-name="f_f_i" unicode="ffi" horiz-adv-x="1951" 
d="M1862 1073v-1073h-338v784h-324v-784h-340v784h-342v-784h-340v784h-137v289h137v137q0 164 104 264t302 101q139 0 213 -39l-49 -238q-53 14 -113 15q-117 0 -117 -117v-123h342v119q0 188 111 278t292 90t288 -48q40 -17 89 -46l-120 -229q-86 61 -181 61
q-139 0 -139 -120v-105h662z" />
    <glyph glyph-name="f_f_l" unicode="ffl" horiz-adv-x="2045" 
d="M866 1073v107q0 170 132 282t372 113q539 0 539 -459v-1116h-344v1114q-1 195 -181 195t-180 -166v-70h221v-282h-221v-791h-338v784h-348v-784h-340v784h-137v289h137v137q0 164 104 264t302 101q139 0 213 -39l-49 -238q-53 14 -113 15q-117 0 -117 -117v-123h348z" />
    <glyph glyph-name=".notdef" horiz-adv-x="1292" 
d="M369 166h557v1104h-557v-1104zM1096 0h-897v1434h897v-1434z" />
    <glyph glyph-name=".null" horiz-adv-x="0" 
 />
    <glyph glyph-name="nonmarkingreturn" horiz-adv-x="681" 
 />
    <glyph glyph-name="space" unicode=" " horiz-adv-x="532" 
 />
    <glyph glyph-name="exclam" unicode="!" horiz-adv-x="690" 
d="M346 377q84 0 143 -51q59 -50 59 -154t-58 -158q-60 -54 -144 -53q-84 0 -144 53q-60 54 -60 156t60 154t144 53zM492 496h-291l-41 942h375z" />
    <glyph glyph-name="quotedbl" unicode="&#x22;" horiz-adv-x="970" 
d="M772 979h-178l-43 455h268zM373 979h-176l-45 455h266z" />
    <glyph glyph-name="numbersign" unicode="#" horiz-adv-x="1374" 
d="M817 877h-258l-39 -310h260zM1296 567v-196h-338l-45 -371h-200l45 371h-262l-47 -371h-203l47 371h-256v196h280l39 310h-278v200h305l45 357h201l-43 -357h256l43 357h200l-43 -357h297v-200h-319l-39 -310h315z" />
    <glyph glyph-name="dollar" unicode="$" horiz-adv-x="1245" 
d="M651 1157q-84 0 -132 -32t-48 -94t92 -102q46 -20 126 -43q291 -85 400 -190q89 -86 89 -247q0 -203 -130 -324t-350 -143l9 -228h-250l8 230q-223 27 -385 125l106 292q195 -96 394 -96q106 0 162 33t56 83t-29 75q-30 24 -89 43q-58 20 -109 36q-308 97 -403 222
q-66 87 -68 221q0 182 114 294t306 138l-6 215h248l-6 -213q118 -12 220 -50t161 -87l-150 -264q-68 49 -160 77t-176 29z" />
    <glyph glyph-name="percent" unicode="%" horiz-adv-x="1658" 
d="M1260 160q124 0 122 168q0 74 -6 110q-14 79 -58 101q-23 12 -58 12q-123 0 -123 -196t123 -195zM905 354q0 176 98 276t256 101q159 0 261 -100q102 -99 102 -277t-100 -276t-262 -98t-258 99q-97 99 -97 275zM401 1278q-123 0 -123 -196t123 -195q68 0 96 47
q27 47 27 130t-11 125q-23 89 -112 89zM428 0h-192l976 1434h191zM47 1081q0 177 98 277t256 100q159 0 261 -100t102 -278t-100 -275q-100 -98 -262 -98t-258 99q-97 99 -97 275z" />
    <glyph glyph-name="ampersand" unicode="&#x26;" horiz-adv-x="1556" 
d="M500 387q0 -49 38 -79t122 -30t186 72l-228 197l-16 -12q-102 -76 -102 -148zM662 1190q-51 0 -82 -30t-31 -79q-1 -49 25 -88t81 -90l7 4q111 78 110 183q0 100 -110 100zM664 -25q-244 1 -377 99t-133 274q0 119 62 209t190 178q-86 84 -132 165q-45 81 -45 187
q0 173 114 277t314 104q123 0 219 -44q202 -93 201 -317q0 -224 -219 -382l-2 -2l176 -158l139 271l259 -117l-95 -199q-39 -84 -80 -153l218 -195l-185 -205l-203 176q-177 -168 -421 -168z" />
    <glyph glyph-name="quotesingle" unicode="'" horiz-adv-x="438" 
d="M307 979h-178l-45 455h270z" />
    <glyph glyph-name="parenleft" unicode="(" horiz-adv-x="835" 
d="M401 692q0 -344 179 -577q55 -74 93 -113t89 -84l-158 -141q-145 92 -273 242t-185 389q-32 132 -32 284q2 597 488 914l160 -144q-51 -45 -89 -83q-38 -37 -93 -111q-107 -143 -152 -338q-27 -113 -27 -238z" />
    <glyph glyph-name="parenright" unicode=")" horiz-adv-x="835" 
d="M434 691q0 460 -360 771l159 144q489 -324 490 -914q0 -591 -490 -915l-159 141q360 313 360 773z" />
    <glyph glyph-name="asterisk" unicode="*" horiz-adv-x="921" 
d="M535 1309l159 116l94 -172l-170 -71l173 -78l-97 -168l-159 113l24 -195h-199l23 195l-156 -113l-96 172l170 74l-168 84l88 151l162 -108l-23 200h199z" />
    <glyph glyph-name="plus" unicode="+" horiz-adv-x="1409" 
d="M803 803h414v-189h-414v-438h-191v438h-411v189h411v436h191v-436z" />
    <glyph glyph-name="comma" unicode="," horiz-adv-x="571" 
d="M125 180q0 76 49 116q48 40 102 40q112 0 163 -83q30 -48 30 -122q-1 -127 -65 -249t-175 -204l-96 78q111 106 148 244q-66 8 -111 56t-45 124z" />
    <glyph glyph-name="hyphen" unicode="-" horiz-adv-x="933" 
d="M815 483h-696v277h696v-277z" />
    <glyph glyph-name="period" unicode="." horiz-adv-x="636" 
d="M317 313q72 0 123 -44q52 -44 52 -131t-52 -132t-108 -45q-58 0 -96 17q-38 18 -64 60q-27 42 -27 94q0 129 112 171q29 10 60 10z" />
    <glyph glyph-name="slash" unicode="/" horiz-adv-x="759" 
d="M274 -98h-264l490 1638h256z" />
    <glyph glyph-name="zero" unicode="0" horiz-adv-x="1454" 
d="M727 1151q-143 0 -214 -113q-71 -114 -71 -322t71 -325t213 -117t215 117t73 330q0 313 -160 400q-55 30 -127 30zM726 1458q134 0 252 -46q255 -99 352 -368q52 -143 52 -326q0 -184 -52 -330q-96 -270 -352 -374q-118 -47 -238 -47q-236 0 -397 119q-274 201 -271 635
q0 180 52 323q52 142 143 232t208 136t251 46z" />
    <glyph glyph-name="one" unicode="1" horiz-adv-x="1271" 
d="M1163 324v-324h-981v324h314v714l-285 -108l-129 256l500 252h274v-1114h307z" />
    <glyph glyph-name="two" unicode="2" horiz-adv-x="1337" 
d="M595 1458q267 0 426 -108t159 -322q0 -141 -77 -257t-241 -251l-252 -205h613v-315h-1078v291l400 336q181 152 214 208q33 57 34 119q0 98 -70 144t-182 45q-167 0 -308 -86l-116 266q211 135 478 135z" />
    <glyph glyph-name="three" unicode="3" horiz-adv-x="1273" 
d="M541 866q231 0 231 156q0 53 -58 91t-165 38q-172 0 -309 -96l-148 229q204 174 486 174t423 -99t142 -247q0 -240 -240 -338v-6q135 -31 217 -115q82 -85 82 -221t-81 -246q-162 -220 -513 -221q-162 0 -305 43t-240 123l146 264q150 -117 362 -116q119 0 187 49t67 129
q0 147 -266 147h-217v262h199z" />
    <glyph glyph-name="four" unicode="4" horiz-adv-x="1378" 
d="M764 580v405l-324 -405h324zM1311 580v-277h-199v-303h-362v303h-654v236l715 895h301v-854h199z" />
    <glyph glyph-name="five" unicode="5" horiz-adv-x="1327" 
d="M1155 1114h-631v-258q104 64 280 64t298 -115q121 -115 121 -338t-163 -363q-164 -140 -456 -139q-292 0 -454 135l116 277q158 -98 336 -98q116 0 184 53t68 146t-55 139q-55 47 -170 47t-223 -99l-222 117v756h971v-324z" />
    <glyph glyph-name="six" unicode="6" horiz-adv-x="1404" 
d="M725 645q-147 0 -254 -110q17 -162 119 -228q51 -33 131 -33t139 52t60 139q0 86 -54 133t-141 47zM803 1157q-155 0 -247 -86t-107 -268q157 129 361 129t343 -117t139 -335t-156 -361t-405 -144q-293 1 -467 183t-174 547q0 188 53 334q53 147 149 237q193 182 487 182
t478 -127l-161 -258q-138 84 -293 84z" />
    <glyph glyph-name="seven" unicode="7" horiz-adv-x="1150" 
d="M23 1114v324h1056v-279l-512 -1159h-379l500 1114h-665z" />
    <glyph glyph-name="eight" unicode="8" horiz-adv-x="1306" 
d="M649 618q-94 0 -154 -49q-61 -49 -61 -124t58 -123t157 -50q97 0 155 50t58 124q0 76 -59 124q-60 48 -154 48zM648 1151q-81 0 -130 -38q-49 -37 -49 -101t50 -102t128 -38t129 38t51 102t-49 101q-49 38 -130 38zM646 1458q240 0 396 -108t156 -293q0 -109 -55 -192
t-148 -115q109 -41 175 -127t67 -201q0 -207 -162 -332t-425 -125t-421 120t-157 316q0 115 66 210q67 95 173 143q-90 34 -153 116t-64 187q0 185 156 293t396 108z" />
    <glyph glyph-name="nine" unicode="9" horiz-adv-x="1286" 
d="M607 1151q-99 0 -157 -51t-58 -139q0 -89 51 -139t143 -50t170 40t106 110q-10 109 -83 169t-172 60zM520 477q-265 0 -407 192q-78 105 -78 281q0 231 154 370q155 138 397 138q307 0 480 -176t173 -539q0 -468 -302 -660q-169 -108 -414 -108q-244 1 -406 95l78 274
q139 -70 311 -70t271 86t110 281q-135 -164 -367 -164z" />
    <glyph glyph-name="colon" unicode=":" horiz-adv-x="632" 
d="M117 168q0 102 58 152t142 51q85 0 143 -49q58 -48 58 -152t-59 -156t-141 -53q-82 0 -142 53q-59 52 -59 154zM317 1098q81 0 141 -51t60 -153t-58 -152t-127 -50q-219 0 -217 218q0 84 60 136q59 52 141 52z" />
    <glyph glyph-name="semicolon" unicode=";" horiz-adv-x="632" 
d="M137 180q0 76 48 116q49 40 103 40t93 -18t70 -65q31 -48 30 -122q0 -127 -64 -249t-175 -204l-99 78q113 106 150 244q-66 8 -111 56t-45 124zM141 921q-1 85 51 131t120 46t118 -45q51 -45 51 -131t-51 -131t-120 -45t-119 44q-50 46 -50 131z" />
    <glyph glyph-name="less" unicode="&#x3c;" horiz-adv-x="1028" 
d="M913 967l-608 -371l627 -399l-123 -170l-764 475v190l760 467z" />
    <glyph glyph-name="equal" unicode="=" horiz-adv-x="1349" 
d="M1161 268h-948v185h948v-185zM1161 662h-948v186h948v-186z" />
    <glyph glyph-name="greater" unicode="&#x3e;" horiz-adv-x="1026" 
d="M981 692v-190l-762 -475l-125 170l627 399l-608 371l108 194z" />
    <glyph glyph-name="question" unicode="?" horiz-adv-x="1064" 
d="M293 158q-1 208 205 209q70 -1 124 -53t54 -141t-53 -143t-139 -54t-138 54q-53 54 -53 128zM520 1458q223 0 350 -95t127 -247q0 -111 -71 -193q-46 -53 -119 -117q-74 -65 -108 -104q-75 -86 -83 -204h-249q0 188 87 304q36 48 72 87t61 78q26 39 25 80q0 116 -182 114
q-145 0 -268 -76l-125 238q84 61 214 98t269 37z" />
    <glyph glyph-name="at" unicode="@" horiz-adv-x="1927" 
d="M823 498q-1 -164 123 -164q62 0 111 59v17l39 282q-35 14 -108 14t-119 -60q-46 -62 -46 -148zM80 471q0 266 123 468q123 203 344 311t510 108q186 0 336 -52q289 -100 401 -368q53 -129 53 -285q0 -253 -127 -411t-362 -158q-164 0 -246 100q-92 -68 -228 -68t-228 92
q-91 92 -91 288t128 308t343 111q154 0 322 -61l-49 -401q-7 -74 15 -109t60 -35q90 0 146 89q55 89 55 231q0 246 -135 377t-406 131q-316 1 -508 -179t-192 -474t161 -446q161 -153 427 -153q159 1 313 58l78 -224q-199 -70 -410 -69q-271 0 -471 112q-108 60 -188 152
t-127 236t-47 321z" />
    <glyph glyph-name="A" unicode="A" horiz-adv-x="1554" 
d="M936 524l-170 494l-164 -494h334zM1032 246h-522l-82 -246h-371l539 1434h344l559 -1434h-383z" />
    <glyph glyph-name="B" unicode="B" horiz-adv-x="1382" 
d="M487 297h228q122 0 165 75q19 34 19 79q0 141 -176 141h-236v-295zM487 854h189q84 0 128 38t44 109q0 133 -178 134h-183v-281zM127 1434h567q504 0 504 -365q0 -207 -182 -303q264 -88 264 -348q0 -194 -143 -306t-385 -112h-625v1434z" />
    <glyph glyph-name="C" unicode="C" horiz-adv-x="1380" 
d="M827.5 -35q-153.5 0 -280.5 50.5t-227.5 142.5t-159 238.5t-58.5 307t36 280.5q68 227 254 350.5t444 123.5q141 0 271 -37t210 -100l-164 -281q-125 90 -291 90t-273.5 -103.5t-107.5 -308t105.5 -315t271.5 -109.5t313 118l172 -256q-84 -84 -223 -137.5t-292.5 -53.5z
" />
    <glyph glyph-name="D" unicode="D" horiz-adv-x="1478" 
d="M487 1112v-793h140q371 0 370 406q0 205 -95 296t-275 91h-140zM127 1434h477q225 0 398.5 -82t273.5 -244t100 -383q0 -336 -215 -530.5t-557 -194.5h-477v1434z" />
    <glyph glyph-name="E" unicode="E" horiz-adv-x="1239" 
d="M1120 1130h-639v-258h543v-301h-543v-268h639v-303h-993v1434h993v-304z" />
    <glyph glyph-name="F" unicode="F" horiz-adv-x="1177" 
d="M1069 1130h-588v-339h512v-304h-512v-487h-354v1434h942v-304z" />
    <glyph glyph-name="G" unicode="G" horiz-adv-x="1519" 
d="M1401 860v-686q-100 -96 -250 -151.5t-293 -55.5t-244.5 26.5t-195.5 85t-164 142.5t-111 209t-41 290q0 164 60 310q62 146 164 238q212 190 520.5 190t523.5 -158l-168 -264q-150 94 -329 94t-285.5 -106t-106.5 -306t99.5 -310.5t247 -110.5t235.5 59v222h-318v282
h656z" />
    <glyph glyph-name="H" unicode="H" horiz-adv-x="1556" 
d="M1430 0h-353v561h-596v-561h-354v1434h354v-570h596v570h353v-1434z" />
    <glyph glyph-name="I" unicode="I" horiz-adv-x="655" 
d="M506 0h-356v1434h356v-1434z" />
    <glyph glyph-name="J" unicode="J" horiz-adv-x="995" 
d="M868 1434v-922q0 -551 -520 -551q-170 0 -289 37l29 291q63 -14 168 -15q252 0 252 238v922h360z" />
    <glyph glyph-name="K" unicode="K" horiz-adv-x="1474" 
d="M494 0h-367v1434h367v-547l446 547h475l-581 -633l620 -801h-459l-413 528l-88 -96v-432z" />
    <glyph glyph-name="L" unicode="L" horiz-adv-x="1167" 
d="M481 319h649v-319h-1003v1434h354v-1115z" />
    <glyph glyph-name="M" unicode="M" horiz-adv-x="1812" 
d="M1686 1434v-1434h-338v791l-347 -736h-200l-336 723v-778h-338v1434h334l452 -967l435 967h338z" />
    <glyph glyph-name="N" unicode="N" horiz-adv-x="1521" 
d="M1397 0h-299l-617 817v-817h-354v1434h299l608 -828v828h363v-1434z" />
    <glyph glyph-name="O" unicode="O" horiz-adv-x="1667" 
d="M834 1130q-160 0 -256.5 -103t-96.5 -307t97.5 -315.5t254 -111.5t254 111.5t97.5 316.5q0 135 -46 229q-88 180 -304 180zM833.5 1458q143.5 0 271.5 -44t232.5 -130t166 -230.5t61.5 -329.5t-61.5 -334.5t-166 -240t-232.5 -137.5t-271.5 -47t-271.5 47t-232.5 137.5
t-166 240t-61.5 334.5t61.5 329.5t166 230.5t232.5 130t271.5 44z" />
    <glyph glyph-name="P" unicode="P" horiz-adv-x="1275" 
d="M481 1130v-378h170q98 0 151 53q52 53 52 129q0 196 -207 196h-166zM127 1434h530q279 0 427 -136t148 -353q0 -218 -150 -357q-151 -139 -427 -139h-174v-449h-354v1434z" />
    <glyph glyph-name="Q" unicode="Q" horiz-adv-x="1667" 
d="M834 1130q-160 0 -256 -103t-97 -307t97 -316t253 -112t254 112q99 111 99 317q0 135 -46 229q-88 180 -304 180zM834 1458q293 0 503 -174q103 -86 165 -230t63 -329q0 -266 -118 -444t-312 -258l354 -129l-164 -259l-604 338q-258 32 -431 216q-188 195 -188 544
q0 177 62 321t166 230q211 174 504 174z" />
    <glyph glyph-name="R" unicode="R" horiz-adv-x="1400" 
d="M481 758h193q109 0 171 49t62 142t-57 137t-182 44h-187v-372zM481 455v-455h-354v1434h557q307 0 454.5 -120t147.5 -341q0 -322 -268 -449l330 -524h-394l-272 455h-201z" />
    <glyph glyph-name="S" unicode="S" horiz-adv-x="1245" 
d="M651 1157q-180 0 -180 -121q0 -46 24.5 -65t43 -30t51.5 -23q59 -20 135 -44q263 -81 358 -172.5t95 -252.5q0 -225 -161 -349.5t-423 -124.5q-129 0 -266 33t-248 101l106 292q193 -96 392 -96q109 0 165 33q56 34 56 94q-1 60 -87 96q-40 16 -116 40t-134 44t-111 46
q-122 57 -186.5 143t-64.5 219q0 209 149.5 323.5t393.5 114.5q154 0 286 -41t208 -102l-150 -264q-68 49 -160 77.5t-176 28.5z" />
    <glyph glyph-name="T" unicode="T" horiz-adv-x="1359" 
d="M1276 1130h-416v-1130h-356v1130h-418v304h1190v-304z" />
    <glyph glyph-name="U" unicode="U" horiz-adv-x="1449" 
d="M1323 1434v-914q-1 -415 -367 -524q-104 -31 -231 -31q-256 0 -427 129.5t-171 425.5v914h354v-902q0 -117 62.5 -179t180.5 -62t181.5 62.5t63.5 178.5v902h354z" />
    <glyph glyph-name="V" unicode="V" horiz-adv-x="1503" 
d="M930 0h-359l-542 1434h391l336 -1016l329 1016h392z" />
    <glyph glyph-name="W" unicode="W" horiz-adv-x="2054" 
d="M1585 0h-252l-303 858l-305 -858h-254l-469 1434h379l250 -859l276 859h260l287 -869l238 869h360z" />
    <glyph glyph-name="X" unicode="X" horiz-adv-x="1456" 
d="M885 752l561 -752h-424l-315 481l-297 -481h-414l516 739l-494 695h422l267 -418l254 418h434z" />
    <glyph glyph-name="Y" unicode="Y" horiz-adv-x="1355" 
d="M848 0h-354v571l-498 863h410l278 -519l281 519h383l-500 -865v-569z" />
    <glyph glyph-name="Z" unicode="Z" horiz-adv-x="1306" 
d="M1233 303v-303h-1163v219l657 911h-625v304h1088v-211l-682 -920h725z" />
    <glyph glyph-name="bracketleft" unicode="[" horiz-adv-x="671" 
d="M614 1366h-235v-1411h235v-236h-499v1880h499v-233z" />
    <glyph glyph-name="backslash" unicode="\" horiz-adv-x="856" 
d="M662 -98h-263l-477 1638h260z" />
    <glyph glyph-name="bracketright" unicode="]" horiz-adv-x="671" 
d="M557 -281h-500v236h234v1411h-234v233h500v-1880z" />
    <glyph glyph-name="asciicircum" unicode="^" horiz-adv-x="1347" 
d="M985 825l-268 387l-264 -387h-357l508 727h227l508 -727h-354z" />
    <glyph glyph-name="underscore" unicode="_" horiz-adv-x="1411" 
d="M1290 -283h-1181v279h1181v-279z" />
    <glyph glyph-name="grave" unicode="`" horiz-adv-x="780" 
d="M639 1210h-188l-310 310h375z" />
    <glyph glyph-name="a" unicode="a" horiz-adv-x="1206" 
d="M545 438q-150 0 -150 -112q0 -61 38 -88t93 -27q134 0 189 100v107q-68 20 -170 20zM571 1108q475 0 476 -406v-391q0 -76 53 -75l57 2l-22 -222q-53 -41 -170 -41q-150 0 -201 109q-127 -119 -298 -119t-277.5 89t-106.5 254t115.5 245t306.5 80q119 0 205 -17v54
q0 94 -45.5 131t-133.5 37q-174 0 -278 -88l-125 206q86 74 207 113t237 39z" />
    <glyph glyph-name="b" unicode="b" horiz-adv-x="1267" 
d="M625 262q134 0 193 134q28 64 28 138q0 195 -125 248q-39 16 -86 17q-104 0 -178 -80v-387q61 -70 168 -70zM457 987h4q102 121 278 121q275 0 391 -252q59 -127 60 -303q0 -268 -138 -428t-356 -160q-182 0 -297 141h-10l-53 -106h-217v1540h338v-553z" />
    <glyph glyph-name="c" unicode="c" horiz-adv-x="1093" 
d="M642.5 -35q-245.5 0 -404 155.5t-158.5 420t157.5 416t392 151.5t386.5 -129l-125 -236q-96 76 -214 76t-188.5 -72.5t-70.5 -203.5t70.5 -209t191.5 -78t221 86l139 -219q-152 -158 -397.5 -158z" />
    <glyph glyph-name="d" unicode="d" horiz-adv-x="1267" 
d="M627 801q-87 0 -145 -64t-58 -192q0 -127 60 -198t147 -71q57 0 105 31t77 82v326q-68 86 -186 86zM1151 0h-242l-41 123h-4q-119 -158 -307 -158q-147 0 -272 91t-176 270q-29 98 -29 227t41 242q74 204 260 279q82 34 172 34q152 0 260 -88v520h338v-1540z" />
    <glyph glyph-name="e" unicode="e" horiz-adv-x="1173" 
d="M793 643q0 102 -48.5 154.5t-132.5 52.5q-169 0 -198 -207h379zM80 532q0 254 145.5 415t378.5 161q173 0 284 -72q220 -143 220 -424q0 -96 -16 -178h-674q41 -199 246 -198q149 0 270 94l125 -219q-174 -145 -445 -146q-324 0 -462 251q-72 130 -72 316z" />
    <glyph glyph-name="f" unicode="f" horiz-adv-x="780" 
d="M178 1073v137q0 164 104 264t302 101q139 0 213 -39l-49 -238q-53 14 -113 15q-117 0 -117 -117v-123h230v-289h-230v-784h-340v784h-137v289h137z" />
    <glyph glyph-name="g" unicode="g" horiz-adv-x="1267" 
d="M637 799q-98 0 -155.5 -59.5t-57.5 -168.5t56.5 -169t148.5 -60q125 0 186 100v277q-80 80 -178 80zM825 27v108q-109 -96 -266 -96q-211 0 -345 143.5t-134 388.5q0 125 39 229t105 170q138 138 328 138t296 -135h12l53 104h236v-987q0 -279 -154.5 -411t-427.5 -132
q-119 0 -232.5 35t-187.5 90l113 252q125 -88 309 -88q119 0 187.5 47.5t68.5 143.5z" />
    <glyph glyph-name="h" unicode="h" horiz-adv-x="1265" 
d="M455 1540v-590q131 152 327 152q365 0 365 -393v-709h-340v657q0 72 -37 108t-92 36q-123 0 -221 -150v-651h-338v1540h336z" />
    <glyph glyph-name="i" unicode="i" horiz-adv-x="649" 
d="M492 0h-336v1073h336v-1073zM338 1202q-210 0 -209 188q0 72 56 116q57 44 139 44t139 -44t57 -130t-57 -130t-125 -44z" />
    <glyph glyph-name="j" unicode="j" horiz-adv-x="651" 
d="M496 1073v-1149q0 -104 -52 -190t-143 -136q-93 -50 -235 -50t-244 57l65 254q63 -21 134 -21t104 28t33 101v1106h338zM327 1550q81 0 139 -44t58 -130t-58 -130t-154 -44t-151 76q-28 39 -28 111q0 73 56 117q57 44 138 44z" />
    <glyph glyph-name="k" unicode="k" horiz-adv-x="1212" 
d="M457 0h-338v1540h338v-848l293 381h405l-391 -434l448 -639h-395l-268 399l-92 -104v-295z" />
    <glyph glyph-name="l" unicode="l" horiz-adv-x="614" 
d="M475 0h-338v1540h338v-1540z" />
    <glyph glyph-name="m" unicode="m" horiz-adv-x="1875" 
d="M746 1102q220 0 305 -191q119 190 348 191q166 0 262 -97t96 -266v-739h-346v688q0 115 -118 115t-181 -141v-662h-348v690q0 113 -115 113t-184 -141v-662h-346v1073h264l29 -145h6q108 174 328 174z" />
    <glyph glyph-name="n" unicode="n" horiz-adv-x="1263" 
d="M778 1108q62 0 120 -16q117 -33 182 -123.5t65 -233.5v-735h-338v623q0 88 -32 124.5t-93 36.5q-119 0 -227 -145v-639h-336v1073h227l53 -155h11q112 144 256 178q50 12 112 12z" />
    <glyph glyph-name="o" unicode="o" horiz-adv-x="1288" 
d="M424 560q0 -298 220 -298q71 0 120 32q100 65 100 243q0 133 -56 203.5t-163.5 70.5t-164 -70.5t-56.5 -180.5zM644.5 1108q109.5 0 208.5 -35t180 -101.5t128 -179t47 -241.5t-30 -225q-55 -175 -204.5 -268t-328.5 -93q-224 1 -390 137q-81 66 -128 178.5t-47 256
t47 256t128 179t180.5 101.5t209 35z" />
    <glyph glyph-name="p" unicode="p" horiz-adv-x="1249" 
d="M604 238q96 0 159 79q62 81 62 215t-52 202t-146 66q-94 0 -170 -100v-415q51 -47 147 -47zM723 1098q182 0 314 -142t132 -406t-144 -424t-372 -161q-123 0 -196 45v-432h-338v1499h237l58 -131h4q66 80 138 116t167 36z" />
    <glyph glyph-name="q" unicode="q" horiz-adv-x="1277" 
d="M648 803q-95 0 -156 -70q-62 -69 -62 -199t65 -200t157 -70t163 60v385q-72 94 -167 94zM815 -422v447q-102 -59 -244 -60q-211 0 -351 158t-140 414q0 141 46 255q81 202 275 281q84 35 168 35q180 0 289 -131h4l56 100h241v-1499h-344z" />
    <glyph glyph-name="r" unicode="r" horiz-adv-x="874" 
d="M688 1108q82 0 152 -37l-60 -311q-68 35 -110 35q-143 0 -209 -220v-575h-342v1073h260l51 -160h6q87 195 252 195z" />
    <glyph glyph-name="s" unicode="s" horiz-adv-x="1007" 
d="M422 772q0 -40 37.5 -57t61.5 -23t38 -10t41 -11q191 -50 270.5 -124t79.5 -205q0 -182 -130 -279.5t-337 -97.5q-121 0 -227 33t-172 82l76 254q129 -82 297 -82q74 0 114.5 21.5t40.5 51t-12 44t-38 24.5q-33 13 -125 36q-194 49 -267.5 133.5t-73.5 203.5
q0 158 118 250t338.5 92t371.5 -111l-95 -227q-134 78 -270.5 78t-136.5 -76z" />
    <glyph glyph-name="t" unicode="t" horiz-adv-x="917" 
d="M549 1073h260v-289h-260v-432q0 -84 80 -84q63 0 135 25l82 -238q-140 -90 -310 -90t-249.5 75t-79.5 241v503h-154v289h154v111l143 170h199v-281z" />
    <glyph glyph-name="u" unicode="u" horiz-adv-x="1247" 
d="M453 432q0 -153 133 -153t209 147v647h335v-1073h-227l-59 139q-123 -164 -338 -164q-184 0 -285.5 100.5t-101.5 278.5v719h334v-641z" />
    <glyph glyph-name="v" unicode="v" horiz-adv-x="1193" 
d="M1186 1073l-447 -1073h-299l-434 1077h367l219 -710l217 706h377z" />
    <glyph glyph-name="w" unicode="w" horiz-adv-x="1622" 
d="M1616 1073l-393 -1073h-209l-211 600l-228 -600h-208l-361 1073h330l168 -627l207 627h213l198 -629l166 629h328z" />
    <glyph glyph-name="x" unicode="x" horiz-adv-x="1083" 
d="M1090 0h-377l-176 307l-160 -307h-393v14l376 535l-376 508v16h401l154 -297l161 297h373v-14l-340 -510l357 -535v-14z" />
    <glyph glyph-name="y" unicode="y" horiz-adv-x="1261" 
d="M373.5 -442q-158.5 0 -301.5 45l59 252q90 -29 172 -29q104 0 150 108l12 31l-434 1112h354l246 -741l221 741h365l-404 -1147q-68 -195 -174.5 -283.5t-265 -88.5z" />
    <glyph glyph-name="z" unicode="z" horiz-adv-x="1030" 
d="M967 285v-285h-889v221l438 570h-426v282h848v-229l-455 -559h484z" />
    <glyph glyph-name="braceleft" unicode="{" horiz-adv-x="825" 
d="M565 1272v-352q0 -74 -48 -129t-109 -74v-2q59 -17 108 -75t49 -128v-354q0 -182 205 -195v-194q-140 0 -244 44q-208 89 -211 320v285q0 184 -190 194v205q190 14 190 195v282q0 170 120 268q120 97 335 97v-193q-205 -13 -205 -194z" />
    <glyph glyph-name="bar" unicode="|" horiz-adv-x="475" 
d="M338 -219h-201v1905h201v-1905z" />
    <glyph glyph-name="braceright" unicode="}" horiz-adv-x="817" 
d="M47 1659q211 0 333 -97t122 -268v-282q0 -180 188 -195v-205q-188 -10 -188 -194v-285q0 -170 -121 -267t-334 -97v194q130 8 178 92q25 43 25 103v354q0 47 25 91q50 85 133 112v2q-58 17 -108 73t-50 130v352q0 90 -53 139q-54 49 -150 55v193z" />
    <glyph glyph-name="asciitilde" unicode="~" horiz-adv-x="1232" 
d="M453 516q-68 0 -107 -76h-248q29 180 117 266t213 87q63 0 173 -35t155 -35q45 1 81 25t46 53h274q-45 -267 -250 -337q-55 -20 -113 -20t-176 36t-165 36z" />
    <glyph glyph-name="exclamdown" unicode="&#xa1;" horiz-adv-x="690" 
d="M543 -367h-377l43 945h293zM346 1112q86 0 144 -52t58 -154t-58 -156q-60 -54 -144 -54t-144 54t-60 155q0 103 58 155q60 52 146 52z" />
    <glyph glyph-name="cent" unicode="&#xa2;" horiz-adv-x="1118" 
d="M80 729q0 160 61 282q118 237 400 279l-15 209h197l-12 -207q182 -20 305 -125l-125 -235q-96 76 -214 76t-189 -73q-70 -73 -70 -204t70 -209t192 -78q121 0 221 86l139 -219q-121 -127 -315 -151l14 -189h-196l10 189q-287 38 -411 284q-62 124 -62 285z" />
    <glyph glyph-name="sterling" unicode="&#xa3;" horiz-adv-x="1222" 
d="M522 623v-203q0 -92 -42 -130q-17 -15 -36 -28q50 12 104 12t122 -9t134 -9t163 20l55 -270q-106 -41 -277 -41q-77 1 -187 15t-211 14t-208 -27l-78 215q49 39 71 63q52 57 52 150v228h-118v170h118v221q0 221 130 336q130 114 363 114t406 -100l-157 -266
q-98 63 -207 63t-153 -45t-44 -153v-170h348v-170h-348z" />
    <glyph glyph-name="currency" unicode="&#xa4;" horiz-adv-x="1456" 
d="M726 483q106 1 164 63t58 175t-58 175t-164 62t-164 -62q-60 -62 -60 -175t60 -175t164 -63zM1280 725q0 -180 -82 -309l178 -178l-139 -138l-178 176q-141 -92 -331 -92t-333 92l-176 -176l-139 138l176 176q-84 129 -84 313t94 317l-182 183l137 137l189 -188
q137 82 317 82t320 -87l190 191l139 -139l-188 -187q92 -131 92 -311z" />
    <glyph glyph-name="yen" unicode="&#xa5;" horiz-adv-x="1267" 
d="M1180 801v-172h-367l-2 -4v-127h369v-170h-369v-328h-354v328h-373v170h373v131h-373v172h266l-391 633h403l283 -557l283 557h381l-389 -633h260z" />
    <glyph glyph-name="brokenbar" unicode="&#xa6;" horiz-adv-x="452" 
d="M326 1477v-1493h-199v1493h199z" />
    <glyph glyph-name="section" unicode="&#xa7;" horiz-adv-x="1110" 
d="M591 844q-69 0 -110 -34t-41 -94t40 -92t110 -32q150 0 149 127q1 57 -39 91t-109 34zM609 1208q-136 0 -136 -80q0 -44 50 -66q76 -33 202 -56q213 -50 266 -169q20 -46 21 -104q0 -154 -156 -231q166 -68 166 -226q0 -135 -119 -221t-315 -86q-260 1 -438 99l86 233
q49 -31 136 -53t160 -21q170 0 170 84q0 47 -57 69q-31 11 -116 31q-84 19 -123 31q-232 75 -232 253t141 247q-138 77 -141 236q0 135 112 213q112 77 314 77t354 -69l-84 -234q-125 43 -261 43z" />
    <glyph glyph-name="dieresis" unicode="&#xa8;" horiz-adv-x="780" 
d="M599 1520q62 0 102 -37t40 -112t-39.5 -112.5t-102 -37.5t-104.5 37.5t-42 112.5t42 112t104 37zM196 1520q51 0 92.5 -37t41.5 -113t-41 -112.5t-104 -36.5t-104.5 36.5t-41.5 100t21.5 99.5t53 49.5t82.5 13.5z" />
    <glyph glyph-name="copyright" unicode="&#xa9;" horiz-adv-x="1654" 
d="M830 330q-162 0 -272 105t-110 289t111 284t268 100t269 -78l-68 -141q-86 57 -186 57q-149 0 -197 -123q-16 -41 -16 -90q0 -107 60 -167q59 -60 159 -60t174 57l82 -145q-112 -88 -274 -88zM829 1288q-251 0 -411 -159t-160 -417t159 -416q159 -157 411 -157t410 157
q159 157 159 419q0 174 -74 305q-74 132 -202 200t-292 68zM802 1462q336 0 552 -198q102 -94 162 -236t61 -312q0 -170 -60 -312q-116 -275 -402 -385q-135 -52 -313 -52t-346 89t-273 262q-103 174 -103 398t103 396t272 261t347 89z" />
    <glyph glyph-name="ordfeminine" unicode="&#xaa;" horiz-adv-x="794" 
d="M348 1014q-90 0 -90 -64q0 -29 23 -47t57 -18q73 0 108 53v66q-47 10 -98 10zM639 725q-125 0 -162 80q-77 -80 -187 -80t-174 60q-64 61 -65 157q0 96 67 154t164 59q97 0 167 -14v37q3 78 -107 78t-182 -46l-78 152q115 88 289 88q307 0 307 -227v-240q0 -53 51 -53h31
l-12 -189q-57 -16 -109 -16z" />
    <glyph glyph-name="guillemotleft" unicode="&#xab;" horiz-adv-x="1136" 
d="M1044 788l-235 -268l235 -272l-163 -154l-355 424l348 426zM561 788l-235 -268l235 -272l-162 -154l-354 424l344 426z" />
    <glyph glyph-name="logicalnot" unicode="&#xac;" horiz-adv-x="1316" 
d="M1188 258h-174v408h-871v188h1045v-596z" />
    <glyph glyph-name="registered" unicode="&#xae;" horiz-adv-x="1654" 
d="M729 946v-180h111q50 0 74 26t24 68q0 86 -104 86h-105zM567 1100h283q127 0 197 -64t69 -164q0 -70 -35 -122t-94 -78l172 -314h-184l-135 269h-115v-269h-158v742zM829 1288q-251 0 -411 -159t-160 -417t159 -416q159 -157 411 -157t410 157q159 157 159 419
q0 174 -74 305q-74 132 -202 200t-292 68zM802 1462q336 0 552 -198q102 -94 162 -236t61 -312q0 -170 -60 -312q-116 -275 -402 -385q-135 -52 -313 -52t-346 89t-273 262q-103 174 -103 398t103 396t272 261t347 89z" />
    <glyph glyph-name="macron" unicode="&#xaf;" horiz-adv-x="780" 
d="M678 1274h-576v160h576v-160z" />
    <glyph glyph-name="degree" unicode="&#xb0;" horiz-adv-x="854" 
d="M426 1229q-59 0 -93 -36q-34 -35 -34 -101t34 -102t93 -36t95 37t36 102t-36 101t-95 35zM426 1436q205 0 306 -151q54 -81 54 -193q0 -166 -108 -256t-253 -90t-251 90t-106 256t105 255q106 89 253 89z" />
    <glyph glyph-name="plusminus" unicode="&#xb1;" horiz-adv-x="1189" 
d="M1112 8h-1016v189h1016v-189zM700 995h412v-186h-412v-438h-190v438h-414v186h414v439h190v-439z" />
    <glyph glyph-name="acute" unicode="&#xb4;" horiz-adv-x="780" 
d="M332 1210h-189l121 310h373z" />
    <glyph glyph-name="paragraph" unicode="&#xb6;" horiz-adv-x="1067" 
d="M940 0h-188v1235h-123v-1235h-191v715q-156 31 -244 123t-90 239q0 356 414 357h422v-1434z" />
    <glyph glyph-name="periodcentered" unicode="&#xb7;" horiz-adv-x="516" 
d="M258 809q82 0 140 -53q58 -54 58 -150t-56 -148q-58 -52 -139 -52t-141 50q-59 50 -60 148q0 98 58 152t140 53z" />
    <glyph glyph-name="cedilla" unicode="&#xb8;" horiz-adv-x="780" 
d="M236 -362q147 28 147 88q0 24 -11.5 36.5t-28.5 12.5t-38 -15l-106 95l71 149h156l-53 -106q100 14 154.5 -31t54.5 -135t-81 -153.5t-206 -76.5z" />
    <glyph glyph-name="ordmasculine" unicode="&#xba;" horiz-adv-x="825" 
d="M412 1235q-125 1 -125 -163q0 -62 35 -100q35 -36 90 -36t90 38t35 99t-18 96q-32 66 -107 66zM414 1450q204 0 310 -161q56 -85 56 -204t-56 -203q-106 -160 -310 -161q-156 0 -261 93t-106 271q-1 177 105 271t262 94z" />
    <glyph glyph-name="guillemotright" unicode="&#xbb;" horiz-adv-x="1138" 
d="M1094 518l-355 -424l-161 154l233 272l-233 268l170 156zM610 518l-354 -424l-162 154l234 272l-234 268l168 156z" />
    <glyph glyph-name="onequarter" unicode="&#xbc;" horiz-adv-x="2265" 
d="M1835 330v223l-160 -223h160zM2064 330h131v-185h-131v-159h-225v159h-381v174l393 506h213v-495zM573 799h181v-195h-598v195h180v407l-148 -45l-61 170l279 115h167v-647zM1516 1589l-621 -1880h-184l622 1880h183z" />
    <glyph glyph-name="onehalf" unicode="&#xbd;" horiz-adv-x="2265" 
d="M2148 588q0 -156 -192 -289l-150 -104h359v-211h-647v196l235 176q125 98 125 172q0 94 -115 95q-92 -1 -188 -60l-90 180q152 101 321 101q170 0 256 -70t86 -186zM573 799h181v-195h-598v195h180v407l-148 -45l-61 170l279 115h167v-647zM1516 1589l-621 -1880h-184
l622 1880h183z" />
    <glyph glyph-name="threequarters" unicode="&#xbe;" horiz-adv-x="2265" 
d="M1835 330v223l-160 -223h160zM2195 330v-185h-131v-159h-225v159h-381v174l393 506h213v-495h131zM383 1464q174 0 262 -58t88 -159q0 -133 -133 -194q160 -47 160 -199q0 -121 -104 -196q-104 -74 -280 -74t-296 82l53 176q137 -49 232 -49q145 0 145 84q0 76 -127 75
h-141v166h125q109 0 108 80q-1 74 -105 74t-208 -60l-88 156q135 96 309 96zM1516 1589l-621 -1880h-184l622 1880h183z" />
    <glyph glyph-name="questiondown" unicode="&#xbf;" horiz-adv-x="1093" 
d="M559 -381q-223 0 -350 95t-127 242t128 260q54 48 109 97q133 118 144 269h250q0 -98 -26 -178q-25 -80 -61 -126q-36 -48 -72 -88q-87 -95 -87 -154q0 -120 180 -120q148 0 271 76l122 -238q-110 -81 -298 -118q-91 -17 -183 -17zM595 711q-85 0 -138 52t-54 142
q-1 89 53 143t139 54t138 -53t53 -143t-53 -143q-53 -52 -138 -52z" />
    <glyph glyph-name="Agrave" unicode="&#xc0;" horiz-adv-x="1554" 
d="M936 524l-170 494l-164 -494h334zM1032 246h-522l-82 -246h-371l539 1434h344l559 -1434h-383zM672 1571l-307 309h372l123 -309h-188z" />
    <glyph glyph-name="Aacute" unicode="&#xc1;" horiz-adv-x="1554" 
d="M936 524l-170 494l-164 -494h334zM1032 246h-522l-82 -246h-371l539 1434h344l559 -1434h-383zM858 1571h-188l123 309h372z" />
    <glyph glyph-name="Acircumflex" unicode="&#xc2;" horiz-adv-x="1554" 
d="M936 524l-170 494l-164 -494h334zM1032 246h-522l-82 -246h-371l539 1434h344l559 -1434h-383zM676 1585h-254l246 297h194l236 -297h-244l-90 113z" />
    <glyph glyph-name="Atilde" unicode="&#xc3;" horiz-adv-x="1554" 
d="M936 524l-170 494l-164 -494h334zM1030 246h-520l-82 -246h-371l539 1434h344l559 -1434h-383zM664 1675q-70 0 -103 -96l-164 88q25 109 88 160t137 51t178 -61q36 -20 60 -21q57 0 98 102l179 -73q-29 -105 -87 -167t-128 -62t-147 39q-77 40 -111 40z" />
    <glyph glyph-name="Adieresis" unicode="&#xc4;" horiz-adv-x="1554" 
d="M936 524l-170 494l-164 -494h334zM1032 246h-522l-82 -246h-371l539 1434h344l559 -1434h-383zM974 1581q-62 0 -105 38q-42 38 -42 113q0 76 42 112q43 36 105 36t102 -37t40 -111t-40 -113q-40 -38 -102 -38zM414 1731q0 77 42 113t105 36t103 -37t41 -113t-41 -112
q-42 -37 -104 -37t-104 37t-42 113z" />
    <glyph glyph-name="Aring" unicode="&#xc5;" horiz-adv-x="1554" 
d="M936 524l-170 494l-164 -494h334zM1032 246h-522l-82 -246h-371l539 1434h344l559 -1434h-383zM781 1655q35 1 53 39q8 16 8 41t-18 45t-55 20q-36 0 -54 -20t-19 -51q0 -74 85 -74zM956 1728q0 -76 -51 -126q-51 -52 -121 -52t-114 25q-43 25 -66 65q-22 40 -22 102
t51 112t136 50t136 -50t51 -126z" />
    <glyph glyph-name="AE" unicode="&#xc6;" horiz-adv-x="2015" 
d="M971 522v527l-256 -527h256zM1325 299h571v-299h-925v223h-402l-108 -223h-404l750 1434h1089v-318h-571v-242h485v-315h-485v-260z" />
    <glyph glyph-name="Ccedilla" unicode="&#xc7;" horiz-adv-x="1380" 
d="M664 -362q147 28 147 89q0 26 -13 37q-12 11 -28 11t-37 -15l-106 95l59 120q-244 40 -414 233t-170 515q0 418 296 615q182 120 438 120q141 0 271 -37t210 -100l-164 -281q-125 90 -291 90t-273 -103q-108 -103 -108 -308q-1 -205 105 -316t272 -109t313 118l172 -256
q-116 -112 -301 -161q-100 -28 -206 -30l-35 -67q100 14 154 -31q55 -45 55 -135t-81 -154t-206 -76z" />
    <glyph glyph-name="Egrave" unicode="&#xc8;" horiz-adv-x="1239" 
d="M1120 1130h-639v-258h543v-301h-543v-268h639v-303h-993v1434h993v-304zM698 1571h-188l-307 309h372z" />
    <glyph glyph-name="Eacute" unicode="&#xc9;" horiz-adv-x="1239" 
d="M1120 1130h-639v-258h543v-301h-543v-268h639v-303h-993v1434h993v-304zM696 1571h-188l123 309h373z" />
    <glyph glyph-name="Ecircumflex" unicode="&#xca;" horiz-adv-x="1239" 
d="M481 1130v-258h543v-301h-543v-268h639v-303h-993v1434h993v-304h-639zM514 1585h-256l248 297h194l236 -297h-244l-90 113z" />
    <glyph glyph-name="Edieresis" unicode="&#xcb;" horiz-adv-x="1239" 
d="M1120 1130h-639v-258h543v-301h-543v-268h639v-303h-993v1434h993v-304zM666 1732q0 76 42 112t104 36t102 -37t40 -111t-40 -113q-40 -38 -102 -38t-104 38t-42 113zM252 1731q0 77 42 113t104 36t104 -37t41 -113q0 -76 -41 -112q-41 -37 -104 -37q-62 0 -104 37
t-42 113z" />
    <glyph glyph-name="Igrave" unicode="&#xcc;" horiz-adv-x="655" 
d="M506 0h-356v1434h356v-1434zM420 1571h-189l-309 309h375z" />
    <glyph glyph-name="Iacute" unicode="&#xcd;" horiz-adv-x="655" 
d="M506 0h-356v1434h356v-1434zM416 1571h-189l123 309h373z" />
    <glyph glyph-name="Icircumflex" unicode="&#xce;" horiz-adv-x="655" 
d="M150 1434h356v-1434h-356v1434zM236 1585h-256l245 297h195l235 -297h-243l-90 113z" />
    <glyph glyph-name="Idieresis" unicode="&#xcf;" horiz-adv-x="655" 
d="M506 0h-356v1434h356v-1434zM385 1732q0 76 42 112q41 36 105 36t103 -37t39 -111t-40 -113q-40 -38 -101 -38t-105 38q-43 38 -43 113zM131 1880q51 0 91 -37t40 -113t-41 -112q-41 -37 -102 -37t-105 37q-43 36 -43 100t22 100q23 36 55 49t83 13z" />
    <glyph glyph-name="Eth" unicode="&#xd0;" horiz-adv-x="1654" 
d="M664 319h137q371 0 370 406q0 205 -95 296t-275 91h-137v-274h225v-236h-225v-283zM301 1434h477q224 0 398 -82t275 -244t101 -383q0 -337 -216 -531t-558 -194h-477v602h-174v236h174v596z" />
    <glyph glyph-name="Ntilde" unicode="&#xd1;" horiz-adv-x="1521" 
d="M1395 0h-297l-617 817v-817h-354v1434h299l608 -828v828h361v-1434zM914 1618q-70 0 -147 39t-112 39q-70 0 -102 -97l-164 91q25 106 88 158q104 86 231 32q48 -20 84 -40t60 -21q57 0 98 102l178 -74q-29 -105 -87 -167q-57 -62 -127 -62z" />
    <glyph glyph-name="Ograve" unicode="&#xd2;" horiz-adv-x="1667" 
d="M834 1130q-160 0 -256 -103t-96 -307t96 -316q98 -112 254 -112t254 112q97 112 98 317q0 135 -46 229q-88 180 -304 180zM834 1458q143 0 271 -44q285 -98 398 -360q61 -144 61 -330t-60 -335q-110 -269 -399 -377q-128 -47 -271 -47q-293 0 -504 185q-104 90 -166 240
t-62 334q0 186 62 330q111 262 398 360q129 44 272 44zM922 1571h-189l-309 309h375z" />
    <glyph glyph-name="Oacute" unicode="&#xd3;" horiz-adv-x="1667" 
d="M834 1130q-160 0 -256 -103t-96 -307t96 -316q98 -112 254 -112t254 112q97 112 98 317q0 135 -46 229q-88 180 -304 180zM834 1458q143 0 271 -44q285 -98 398 -360q61 -144 61 -330t-60 -335q-110 -269 -399 -377q-128 -47 -271 -47q-293 0 -504 185q-104 90 -166 240
t-62 334q0 186 62 330q111 262 398 360q129 44 272 44zM918 1571h-189l123 309h373z" />
    <glyph glyph-name="Ocircumflex" unicode="&#xd4;" horiz-adv-x="1667" 
d="M834 1130q-160 0 -256 -103t-96 -306t97 -316q98 -112 254 -112q156 -1 253 111t98 317q0 135 -46 229q-88 180 -304 180zM834 1458q143 0 271 -44q285 -98 398 -360q61 -144 61 -330t-60 -335q-110 -269 -399 -377q-128 -47 -271 -47q-293 0 -504 185q-104 90 -166 240
t-62 334q0 186 62 330q111 262 398 360q129 44 272 44zM737 1585h-256l246 297h197l233 -297h-244l-90 113z" />
    <glyph glyph-name="Otilde" unicode="&#xd5;" horiz-adv-x="1667" 
d="M834 1130q-160 0 -256 -103t-96 -307t96 -316q98 -112 254 -112t254 112q97 112 98 317q0 135 -46 229q-88 180 -304 180zM834 1458q143 0 271 -44q285 -98 398 -360q61 -144 61 -330t-60 -335q-110 -269 -399 -377q-128 -47 -271 -47q-293 0 -504 185q-104 90 -166 240
t-62 334q0 186 62 330q111 262 398 360q129 44 272 44zM723 1675q-70 0 -102 -96l-164 88q25 109 89 160q65 51 136 51t178 -61q37 -20 60 -21q57 0 98 102l178 -73q-27 -105 -85 -167q-57 -62 -127 -62t-148 39q-78 40 -113 40z" />
    <glyph glyph-name="Odieresis" unicode="&#xd6;" horiz-adv-x="1667" 
d="M834 1130q-160 0 -256 -103t-97 -306q0 -135 46 -233q91 -194 304 -195q158 -1 255 111q98 112 98 316t-95 307t-255 103zM848 1458q129 0 257 -44q285 -98 398 -360q61 -144 61 -330t-60 -335q-110 -269 -399 -377q-128 -47 -271 -47q-293 0 -504 185q-104 90 -166 240
t-62 317q-1 316 150 497q212 254 596 254zM889 1732q1 76 41 112t104 36t104 -37t40 -111t-41 -113q-41 -38 -103 -38t-103 38q-42 38 -42 113zM473 1731q0 77 42 113q41 36 105 36t104 -37t40 -113t-41 -112q-41 -37 -102 -37t-105 37q-43 37 -43 113z" />
    <glyph glyph-name="multiply" unicode="&#xd7;" horiz-adv-x="1224" 
d="M1151 164l-158 -156l-381 377l-381 -375l-157 154l381 377l-381 377l157 157l383 -379l381 379l156 -157l-379 -377z" />
    <glyph glyph-name="Oslash" unicode="&#xd8;" horiz-adv-x="1667" 
d="M831 293q158 0 255.5 111.5t97.5 307.5t-84 302l-393 -701q57 -20 124 -20zM834 1130q-160 0 -256.5 -103t-96.5 -287.5t68 -293.5l381 674q-45 10 -96 10zM1565 725q0 -186 -61.5 -335.5t-165.5 -239.5q-213 -184 -504 -185q-156 0 -293 53l-148 -262l-174 109l146 256
q-263 207 -263 619t314 606q179 112 418 112q139 0 264 -41l135 240l178 -92l-133 -236q287 -197 287 -604z" />
    <glyph glyph-name="Ugrave" unicode="&#xd9;" horiz-adv-x="1449" 
d="M1323 1434v-914q0 -416 -367 -524q-104 -31 -231 -31q-253 1 -426 129q-172 128 -172 426v914h354v-902q1 -117 63 -179t180 -62t181 62t64 179v902h354zM807 1571h-189l-307 309h373z" />
    <glyph glyph-name="Uacute" unicode="&#xda;" horiz-adv-x="1449" 
d="M1323 1434v-914q0 -416 -367 -524q-104 -31 -231 -31q-253 1 -426 129q-172 128 -172 426v914h354v-902q1 -117 63 -179t180 -62t181 62t64 179v902h354zM805 1571h-189l121 309h373z" />
    <glyph glyph-name="Ucircumflex" unicode="&#xdb;" horiz-adv-x="1449" 
d="M1323 1434v-914q0 -416 -367 -524q-104 -31 -231 -31q-253 1 -426 129q-172 128 -172 426v914h354v-902q1 -117 63 -179t180 -62t181 62t64 179v902h354zM623 1585h-256l245 297h197l235 -297h-245l-88 113z" />
    <glyph glyph-name="Udieresis" unicode="&#xdc;" horiz-adv-x="1449" 
d="M1323 1434v-914q0 -416 -367 -524q-104 -31 -231 -31q-253 1 -426 129q-172 128 -172 426v914h354v-902q1 -117 63 -179t180 -62t181 62t64 179v902h354zM774 1732q0 76 42 112t105 36q62 0 102 -37t40 -111t-40 -113q-40 -38 -102 -38t-105 38q-42 38 -42 113zM508 1880
q86 0 122 -62q22 -36 22 -100t-42 -100q-41 -37 -103 -37t-105 37q-42 36 -42 100q0 162 148 162z" />
    <glyph glyph-name="Yacute" unicode="&#xdd;" horiz-adv-x="1355" 
d="M848 0h-354v571l-498 863h410l278 -519l281 519h383l-500 -865v-569zM788 1571h-188l123 309h373z" />
    <glyph glyph-name="Thorn" unicode="&#xde;" horiz-adv-x="1224" 
d="M487 905v-330h148q66 1 118 45t52 122t-46 121q-46 42 -124 42h-148zM487 1223h191q256 0 381 -143t125 -343q0 -201 -132 -333t-376 -132h-189v-272h-360v1434h360v-211z" />
    <glyph glyph-name="germandbls" unicode="&#xdf;" horiz-adv-x="1353" 
d="M119 0v1139q0 201 119 315q118 114 368 113q250 1 385 -103t135 -297q0 -83 -28 -149t-64 -98q-92 -85 -92 -114q0 -28 35 -52t83 -53t96 -65t83 -104t35 -153q0 -199 -124 -301t-343 -103q-156 0 -254 37l49 244q102 -20 170 -20t113 42t45 95q0 97 -82 148
q-35 21 -76 47t-76 50t-57 65q-23 42 -23 96q0 55 26 99t58 70q86 73 84 160q0 160 -161 160q-156 0 -156 -170v-1098h-348z" />
    <glyph glyph-name="agrave" unicode="&#xe0;" horiz-adv-x="1206" 
d="M545 438q-150 0 -150 -112q0 -61 38 -88t93 -27q134 0 189 100v107q-68 20 -170 20zM571 1108q475 0 476 -408v-389q0 -76 53 -75l57 2l-22 -222q-53 -41 -170 -41q-150 0 -201 109q-127 -119 -298 -119t-278 89q-106 89 -106 254t116 245t306 80q119 0 205 -17v54
q0 94 -45 131t-134 37q-174 0 -278 -88l-125 206q86 74 207 113t237 39zM557 1534l123 -309h-188l-308 309h373z" />
    <glyph glyph-name="aacute" unicode="&#xe1;" horiz-adv-x="1206" 
d="M545 438q-150 0 -150 -112q0 -61 38 -88t93 -27q134 0 189 100v107q-68 20 -170 20zM571 1108q475 0 476 -408v-389q0 -76 53 -75l57 2l-22 -222q-53 -41 -170 -41q-150 0 -201 109q-127 -119 -298 -119t-278 89q-106 89 -106 254t116 245t306 80q119 0 205 -17v54
q0 94 -45 131t-134 37q-174 0 -278 -88l-125 206q86 74 207 113t237 39zM985 1534l-307 -309h-189l123 309h373z" />
    <glyph glyph-name="acircumflex" unicode="&#xe2;" horiz-adv-x="1206" 
d="M545 438q-150 0 -150 -112q0 -61 38 -88t93 -27q134 0 189 100v107q-68 20 -170 20zM1047 700v-389q0 -76 53 -75l57 2l-22 -222q-53 -41 -170 -41q-150 0 -201 109q-127 -119 -298 -119t-278 89q-106 89 -106 254t116 245t306 80q119 0 205 -17v54q0 94 -45 131t-134 37
q-174 0 -278 -88l-125 206q86 74 207 113t237 39q476 0 476 -408zM584 1352l-86 -113h-256l245 299h195l236 -299h-244z" />
    <glyph glyph-name="atilde" unicode="&#xe3;" horiz-adv-x="1206" 
d="M545 438q-150 0 -150 -112q0 -61 38 -88t93 -27q134 0 189 100v107q-68 20 -170 20zM571 1108q475 0 476 -408v-389q0 -76 53 -75l57 2l-22 -222q-53 -41 -170 -41q-150 0 -201 109q-127 -119 -298 -119t-278 89q-106 89 -106 254t116 245t306 80q119 0 205 -17v54
q0 94 -45 131t-134 37q-174 0 -278 -88l-125 206q86 74 207 113t237 39zM483 1329q-70 0 -102 -96l-164 90q25 105 88 157t136 52t179 -62q36 -20 60 -20q57 0 98 104l178 -75q-27 -103 -86 -165q-60 -62 -128 -62t-146 38q-78 39 -113 39z" />
    <glyph glyph-name="adieresis" unicode="&#xe4;" horiz-adv-x="1206" 
d="M545 438q-150 0 -150 -112q0 -61 38 -88t93 -27q134 0 189 100v107q-68 20 -170 20zM571 1108q475 0 476 -406v-391q0 -76 53 -75l57 2l-22 -222q-53 -41 -170 -41q-150 0 -201 109q-127 -119 -298 -119t-278 89q-106 89 -106 254t116 245t306 80q119 0 205 -17v54
q0 94 -45 131t-134 37q-174 0 -278 -88l-125 206q86 74 207 113t237 39zM794 1536q64 0 103 -37t39 -113t-40 -114t-102 -37q-62 0 -105 38q-42 37 -42 113t42 113q41 37 105 37zM233 1374q0 62 22 98q21 36 53 50t84 14t92 -37t40 -114t-42 -113q-42 -37 -104 -37
q-61 0 -103 38t-42 101z" />
    <glyph glyph-name="aring" unicode="&#xe5;" horiz-adv-x="1206" 
d="M545 438q-150 0 -150 -112q0 -61 38 -88t93 -27q134 0 189 100v107q-68 20 -170 20zM571 1108q475 0 476 -408v-389q0 -76 53 -75l57 2l-22 -222q-53 -41 -170 -41q-150 0 -201 109q-127 -119 -298 -119t-278 89q-106 89 -106 254t116 245t306 80q119 0 205 -17v54
q0 94 -45 131t-134 37q-174 0 -278 -88l-125 206q86 74 207 113t237 39zM516 1374q0 -22 18 -44t55 -22q36 0 54 24q19 22 19 52t-18 50q-18 22 -44 22t-39 -4q-45 -15 -45 -78zM589 1559q85 -1 136 -51t51 -126t-51 -126t-121 -50q-130 0 -180 87q-23 41 -23 103
q-1 62 51 112t137 51z" />
    <glyph glyph-name="ae" unicode="&#xe6;" horiz-adv-x="1824" 
d="M561 440q-162 0 -162 -108q0 -53 38 -79t96.5 -26t115 30t76.5 73v96q-88 14 -164 14zM1264 840q-166 0 -195 -199h379q-10 109 -55 154t-129 45zM1309 1098q205 0 328.5 -134.5t123.5 -336.5q0 -109 -16 -193h-672q37 -190 252 -190q158 0 270 73l115 -188
q-61 -78 -178 -116t-236 -38q-260 0 -399 187q-166 -186 -438 -187q-221 0 -324 153q-53 79 -53 175q0 176 122.5 257t313.5 81q115 0 203 -16v57q0 145 -175 145.5t-290 -77.5l-125 208q184 139 438 140q127 0 214 -39t141 -133q131 172 385 172z" />
    <glyph glyph-name="ccedilla" unicode="&#xe7;" horiz-adv-x="1093" 
d="M635 -274q0 47 -39 49q-18 0 -39 -15l-106 95l59 122q-194 39 -312 187t-118 395q0 245 158 397t392 152t386 -129l-125 -236q-96 76 -214 76t-189 -73q-70 -74 -70 -204t70 -208t192 -78q121 0 221 86l139 -219q-145 -150 -381 -158l-34 -67q100 14 154 -31
q55 -45 55 -135t-81 -154t-206 -76l-58 136q146 28 146 88z" />
    <glyph glyph-name="egrave" unicode="&#xe8;" horiz-adv-x="1173" 
d="M793 643q-1 103 -49 155t-132 52q-169 0 -198 -207h379zM604 1108q176 0 284 -72q220 -143 220 -424q0 -96 -16 -178h-674q41 -199 246 -198q149 0 270 94l125 -219q-173 -145 -427 -145t-404 144q-150 146 -148 411q0 265 145 426t379 161zM696 1208h-188l-309 310h374z
" />
    <glyph glyph-name="eacute" unicode="&#xe9;" horiz-adv-x="1173" 
d="M793 643q-1 103 -49 155t-132 52q-169 0 -198 -207h379zM80 532q0 254 145 415t379 161q176 0 284 -72q220 -143 220 -424q0 -96 -16 -178h-674q41 -199 246 -198q149 0 270 94l125 -219q-174 -145 -445 -146q-325 0 -462 251q-72 130 -72 316zM999 1518l-307 -310h-188
l123 310h372z" />
    <glyph glyph-name="ecircumflex" unicode="&#xea;" horiz-adv-x="1173" 
d="M793 643q-1 103 -49 155t-132 52q-169 0 -198 -207h379zM80 532q0 254 145 415t379 161q176 0 284 -72q220 -143 220 -424q0 -96 -16 -178h-674q41 -199 246 -198q149 0 270 94l125 -219q-174 -145 -445 -146q-325 0 -462 251q-72 130 -72 316zM598 1335l-86 -112h-256
l246 299h194l236 -299h-244z" />
    <glyph glyph-name="edieresis" unicode="&#xeb;" horiz-adv-x="1173" 
d="M793 643q-1 103 -49 155t-132 52q-169 0 -198 -207h379zM604 1108q176 0 284 -72q220 -143 220 -424q0 -96 -16 -178h-674q41 -199 246 -198q151 0 270 94l125 -219q-173 -145 -427 -145t-404 144q-150 146 -148 411q0 265 145 426t379 161zM950 1370q0 -76 -40 -114
t-101 -37q-61 -1 -104 37t-43 114t41 113t105 37t103 -37t39 -113zM380 1219q-46 -1 -89 37t-43 100q0 160 149 164q85 0 121 -65q20 -36 20 -81t-10 -75q-12 -30 -32 -46t-45 -25t-71 -9z" />
    <glyph glyph-name="igrave" unicode="&#xec;" horiz-adv-x="595" 
d="M467 0h-338v1073h338v-1073zM385 1210h-188l-308 310h373z" />
    <glyph glyph-name="iacute" unicode="&#xed;" horiz-adv-x="595" 
d="M467 0h-338v1073h338v-1073zM383 1210h-188l120 310h375z" />
    <glyph glyph-name="icircumflex" unicode="&#xee;" horiz-adv-x="595" 
d="M129 1073h338v-1073h-338v1073zM201 1225h-256l245 297h197l236 -297h-246l-88 112z" />
    <glyph glyph-name="idieresis" unicode="&#xef;" horiz-adv-x="595" 
d="M467 0h-338v1073h338v-1073zM499 1520q62 0 102 -37t40 -108q-1 -71 -21 -95q-38 -45 -67 -52q-30 -7 -53 -7q-63 0 -106 37q-42 38 -42 113t42 112q43 37 105 37zM-61 1370q-1 76 41 113t94 37t84 -14q31 -14 51 -49t20 -99t-41 -101q-42 -37 -104 -37t-104 38
q-42 36 -41 112z" />
    <glyph glyph-name="eth" unicode="&#xf0;" horiz-adv-x="1265" 
d="M631 268q100 0 156 70q57 70 57 194t-58 193q-58 70 -157 70q-101 0 -153 -69t-52 -195q0 -127 54 -195t153 -68zM1186 643q0 -324 -146 -501t-411 -177q-232 0 -387 141q-76 70 -119 185t-43 256q0 282 142 422q142 139 341 139q156 0 264 -111q-47 131 -155 234
l-185 -84l-63 113l133 59q-53 35 -115 63l195 177q102 -53 186 -117l181 84l59 -115l-133 -61q256 -262 256 -707z" />
    <glyph glyph-name="ntilde" unicode="&#xf1;" horiz-adv-x="1263" 
d="M807 623q0 163 -125 161q-119 0 -227 -145v-639h-336v1073h227l53 -155h11q113 147 256 179q50 11 112 11q197 0 301 -139q64 -87 66 -234v-735h-338v623zM520 1329q-70 0 -102 -96l-164 90q25 105 88 157t135 52t179 -62q36 -20 61 -20q57 0 98 104l178 -75
q-27 -103 -86 -165t-127 -62t-147 38q-78 39 -113 39z" />
    <glyph glyph-name="ograve" unicode="&#xf2;" horiz-adv-x="1288" 
d="M645 811q-171 0 -212 -178q-9 -43 -9 -96q0 -133 56 -204t164 -71t164 71t56 204t-56 203t-163 71zM644 1108q236 0 390 -137q177 -157 174 -434q0 -143 -47 -256q-85 -204 -308 -281q-99 -35 -209 -35q-222 0 -389 136q-81 67 -128 180t-47 233q0 219 83 347
q119 184 340 232q68 15 141 15zM731 1210h-188l-307 310h372z" />
    <glyph glyph-name="oacute" unicode="&#xf3;" horiz-adv-x="1288" 
d="M424 559q0 -297 221 -297t219 297q0 111 -56 181t-164 71q-108 0 -164 -71t-56 -181zM644 1108q222 0 389 -136q81 -68 128 -180t47 -255t-47 -256q-85 -204 -308 -281q-99 -35 -209 -35q-222 0 -389 136q-81 67 -128 180t-47 256t47 256q85 203 308 280q99 35 209 35z
M729 1210h-188l123 310h372z" />
    <glyph glyph-name="ocircumflex" unicode="&#xf4;" horiz-adv-x="1288" 
d="M644 262q108 0 164 71t56 204t-56 203t-164 71q-108 0 -164 -71q-56 -72 -56 -204t56 -203t164 -71zM644 1108q222 0 389 -136q81 -68 128 -180t47 -255t-47 -256q-85 -204 -308 -281q-99 -35 -209 -35q-222 0 -389 136q-81 67 -128 180t-47 256t47 256q85 203 308 280
q99 35 209 35zM547 1225h-254l246 297h194l236 -297h-244l-90 112z" />
    <glyph glyph-name="otilde" unicode="&#xf5;" horiz-adv-x="1288" 
d="M644 811q-108 0 -164 -71q-56 -72 -56 -204t56 -203t164 -71t164 71t56 204t-56 203t-164 71zM662 1108q92 0 191 -35q224 -79 308 -280q47 -113 47 -242q0 -246 -112 -383q-166 -203 -464 -203q-211 0 -377 136q-81 67 -128 180t-47 233q0 219 83 347q159 247 499 247z
M793 1235q-70 0 -147 40t-111 40q-70 0 -103 -96l-164 88q25 109 88 159q105 84 231 31q48 -21 84 -41t60 -20q57 0 98 102l179 -74q-27 -106 -86 -168t-129 -61z" />
    <glyph glyph-name="odieresis" unicode="&#xf6;" horiz-adv-x="1288" 
d="M645 811q-171 0 -212 -178q-9 -43 -9 -96q0 -133 56 -204t164 -71t164 71t56 204t-56 203t-163 71zM662 1108q92 0 191 -35q224 -79 308 -280q47 -113 47 -256t-47 -256q-85 -204 -308 -281q-99 -35 -209 -35q-222 0 -389 136q-81 67 -128 180t-47 233q0 219 83 347
q159 247 499 247zM845 1520q62 0 102 -37t40 -108q-1 -71 -21 -95q-39 -45 -67 -52t-53 -7q-63 0 -106 37q-42 38 -42 113t42 112q43 37 105 37zM285 1370q-1 76 41 113t94 37t84 -14q31 -14 51 -49t20 -99q-1 -64 -41 -101t-103 -37t-105 38q-42 36 -41 112z" />
    <glyph glyph-name="divide" unicode="&#xf7;" horiz-adv-x="841" 
d="M295 164q0 72 43 108t105 37q63 0 105 -37q42 -36 42 -108t-42 -111t-104 -39t-106 39q-43 39 -43 111zM926 446h-942v187h942v-187zM454 1077q52 0 94 -37q42 -36 42 -108t-42 -111t-104 -39t-106 39q-43 39 -43 99q0 158 159 157z" />
    <glyph glyph-name="oslash" unicode="&#xf8;" horiz-adv-x="1288" 
d="M645 262q106 0 162.5 70.5t56.5 193.5t-41 191l-243 -447q31 -8 65 -8zM645 811q-109 0 -165 -70.5t-56 -191.5t39 -189l242 443q-29 8 -60 8zM1208 537q0 -143 -47 -256t-128 -179.5t-180 -101.5t-208.5 -35t-210.5 35l-112 -215l-150 92l121 195q-213 156 -213 465
q0 143 47 255q47 114 128 180q166 136 390 136q104 0 201 -31l104 205l156 -78l-117 -198q219 -154 219 -469z" />
    <glyph glyph-name="ugrave" unicode="&#xf9;" horiz-adv-x="1247" 
d="M453 432q0 -155 135 -153q131 0 207 147v647h335v-1073h-227l-59 139q-123 -164 -338 -164q-184 1 -286 101t-101 278v719h334v-641zM532 1210l-307 310h373l123 -310h-189z" />
    <glyph glyph-name="uacute" unicode="&#xfa;" horiz-adv-x="1247" 
d="M453 432q0 -155 135 -153q131 0 207 147v647h335v-1073h-227l-59 139q-123 -164 -338 -164q-123 1 -211 47q-176 93 -176 332v719h334v-641zM719 1210h-189l123 310h373z" />
    <glyph glyph-name="ucircumflex" unicode="&#xfb;" horiz-adv-x="1247" 
d="M453 432q0 -155 135 -153q131 0 207 147v647h335v-1073h-227l-59 139q-123 -164 -338 -164q-184 1 -286 101t-101 278v719h334v-641zM539 1225h-256l245 297h195l235 -297h-243l-90 112z" />
    <glyph glyph-name="udieresis" unicode="&#xfc;" horiz-adv-x="1247" 
d="M453 432q0 -155 135 -153q131 0 207 147v647h335v-1073h-227l-59 139q-123 -164 -338 -164q-184 1 -286 101t-101 278v719h334v-641zM977 1371q0 -75 -40 -113q-41 -38 -103 -37q-62 -1 -104 37t-42 113t42 112t106 37t102 -37q39 -37 39 -112zM565 1370q0 -76 -41 -112
q-42 -36 -104 -37q-62 1 -104 37t-42 112t42 113t106 37t103 -37q40 -37 40 -113z" />
    <glyph glyph-name="yacute" unicode="&#xfd;" horiz-adv-x="1261" 
d="M374 -442q-159 0 -302 45l59 252q90 -29 172 -29q104 0 150 108l12 31l-434 1112h354l246 -741l221 741h365l-404 -1147q-68 -196 -174 -284t-265 -88zM702 1225h-188l123 309h373z" />
    <glyph glyph-name="thorn" unicode="&#xfe;" horiz-adv-x="1249" 
d="M601 248q93 0 159 74t66 231t-93 220q-41 28 -90 28q-98 -1 -186 -107v-411q51 -35 144 -35zM453 987h4q115 111 285 111t299 -142q128 -142 128 -403q0 -260 -143 -419t-358 -159q-127 0 -211 35v-450h-338v1874h334v-447z" />
    <glyph glyph-name="ydieresis" unicode="&#xff;" horiz-adv-x="1261" 
d="M374 -442q-159 0 -302 45l59 252q90 -29 172 -29q104 0 150 108l12 31l-434 1112h354l246 -741l221 741h365l-404 -1147q-68 -196 -174 -284t-265 -88zM821 1235q-65 0 -107 38q-42 37 -42 113t42 113t104 37t102 -37t41 -115q0 -115 -97 -143q-20 -6 -43 -6zM549 1386
q0 -76 -41 -114q-42 -38 -104 -37q-62 0 -104 38q-42 37 -42 113t42 113t106 37t103 -37q40 -37 40 -113z" />
    <glyph glyph-name="Amacron" unicode="&#x100;" horiz-adv-x="1554" 
d="M936 524l-170 494l-164 -494h334zM1032 246h-522l-82 -246h-371l539 1434h344l559 -1434h-383zM1057 1634h-576v160h576v-160z" />
    <glyph glyph-name="amacron" unicode="&#x101;" horiz-adv-x="1206" 
d="M545 438q-150 0 -150 -112q0 -61 38 -88t93 -27q134 0 189 100v107q-68 20 -170 20zM571 1108q475 0 476 -408v-389q0 -76 53 -75l57 2l-22 -222q-53 -41 -170 -41q-150 0 -201 109q-127 -119 -298 -119t-278 89q-106 89 -106 254t116 245t306 80q119 0 205 -17v54
q0 94 -45 131t-134 37q-174 0 -278 -88l-125 206q86 74 207 113t237 39zM879 1448v-160h-578v160h578z" />
    <glyph glyph-name="Abreve" unicode="&#x102;" horiz-adv-x="1554" 
d="M936 524l-170 494l-164 -494h334zM1032 246h-522l-82 -246h-371l539 1434h344l559 -1434h-383zM767 1530q-130 0 -221 72t-102 223h152q23 -121 169 -121t173 121h149q-10 -151 -100 -223t-220 -72z" />
    <glyph glyph-name="abreve" unicode="&#x103;" horiz-adv-x="1206" 
d="M545 438q-150 0 -150 -112q0 -61 38 -88t93 -27q134 0 189 100v107q-68 20 -170 20zM571 1108q475 0 476 -406v-391q0 -76 53 -75l57 2l-22 -222q-53 -41 -170 -41q-150 0 -201 109q-127 -119 -298 -119t-278 89q-106 89 -106 254t116 245t306 80q119 0 205 -17v54
q0 94 -45 131t-134 37q-174 0 -278 -88l-125 206q86 74 207 113t237 39zM587 1360q146 0 171 119h149q-8 -150 -99 -223q-91 -72 -220 -72t-221 72t-103 223h152q25 -119 171 -119z" />
    <glyph glyph-name="Aogonek" unicode="&#x104;" horiz-adv-x="1554" 
d="M936 524l-170 494l-164 -494h334zM1280 -193q0 -94 127 -106l-47 -182q-127 8 -212 71q-85 62 -85 154t38 144t122 112h-107l-84 246h-522l-82 -246h-371l539 1434h344l559 -1434h-115q-104 -115 -104 -193z" />
    <glyph glyph-name="aogonek" unicode="&#x105;" horiz-adv-x="1206" 
d="M545 438q-150 0 -150 -112q0 -61 38 -88t93 -27q134 0 189 100v107q-68 20 -170 20zM815 -229q0 69 27 115t84 91q-119 12 -162 107q-127 -119 -298 -119t-278 89q-106 89 -106 254t116 246t306 81q119 0 205 -19v54q0 94 -45 131t-134 37q-174 0 -278 -88l-125 206
q86 74 207 113t237 39q475 0 476 -408v-389q0 -76 53 -75l57 2l-22 -218h6q-106 -119 -107 -196q0 -94 127 -107l-47 -184q-177 13 -258 117q-41 53 -41 121z" />
    <glyph glyph-name="Cacute" unicode="&#x106;" horiz-adv-x="1380" 
d="M828 -35q-299 0 -509 193q-100 92 -158 238q-59 146 -59 307q-1 437 296 635q182 120 438 120q141 0 271 -37t210 -100l-164 -281q-125 90 -294 90t-273 -106t-104 -308t104 -313q106 -111 272 -109t313 118l172 -256q-84 -84 -223 -138q-138 -54 -292 -53zM909 1591
h-188l121 312h372z" />
    <glyph glyph-name="cacute" unicode="&#x107;" horiz-adv-x="1093" 
d="M639 -35q-158 0 -284 68q-127 67 -201 199t-74 311q0 261 158 413t392 152t386 -129l-125 -236q-96 76 -214 76t-189 -73q-70 -74 -70 -204t70 -208t192 -78q121 0 221 86l139 -219q-152 -158 -401 -158zM725 1210h-188l122 310h373z" />
    <glyph glyph-name="Cdotaccent" unicode="&#x10a;" horiz-adv-x="1380" 
d="M828 -35q-299 0 -509 193q-100 92 -158 238q-59 146 -59 307q-1 437 296 635q182 120 438 120q141 0 271 -37t210 -100l-164 -281q-125 90 -291 90t-273 -103q-108 -103 -108 -308q-1 -205 105 -316t272 -109t313 118l172 -256q-84 -84 -223 -138q-138 -54 -292 -53z
M834 1907q58 0 105 -41q48 -41 48 -120t-48 -119t-118 -40q-71 0 -117 40q-46 41 -46 107t23 103t59 53t94 17z" />
    <glyph glyph-name="cdotaccent" unicode="&#x10b;" horiz-adv-x="1093" 
d="M642 -35q-246 0 -404 156t-158 420q0 263 158 415t392 152t386 -129l-125 -236q-96 76 -214 76t-189 -73q-70 -74 -70 -204t70 -208t192 -78q121 0 221 86l139 -219q-152 -158 -398 -158zM473 1358q-1 166 183 166q52 0 101 -40q48 -40 48 -120t-48 -120
q-47 -40 -105 -40q-110 0 -154 69q-25 38 -25 85z" />
    <glyph glyph-name="Ccaron" unicode="&#x10c;" horiz-adv-x="1380" 
d="M828 -35q-299 0 -509 193q-100 92 -158 238q-59 146 -59 307q-1 437 296 635q182 120 438 120q141 0 271 -37t210 -100l-164 -281q-125 90 -291 90t-273 -103q-108 -103 -108 -308q-1 -205 105 -316t272 -109t313 118l172 -256q-84 -84 -223 -138q-138 -54 -292 -53z
M715 1606l-244 297h254l88 -117l92 117h242l-232 -297h-200z" />
    <glyph glyph-name="ccaron" unicode="&#x10d;" horiz-adv-x="1093" 
d="M642 -35q-246 0 -404 156t-158 420q0 263 158 415t392 152t386 -129l-125 -236q-96 76 -214 76t-189 -73q-70 -74 -70 -204t70 -208t192 -78q121 0 221 86l139 -219q-152 -158 -398 -158zM532 1223l-243 297h254l88 -115l90 115h244l-234 -297h-199z" />
    <glyph glyph-name="Dcaron" unicode="&#x10e;" horiz-adv-x="1478" 
d="M487 319h140q371 0 370 406q0 205 -95 296t-275 91h-140v-793zM127 1434h477q225 0 398 -82q174 -82 274 -244t100 -383q0 -337 -215 -531t-557 -194h-477v1434zM563 1583l-244 297h254l89 -115l92 115h243l-233 -297h-201z" />
    <glyph glyph-name="dcaron" unicode="&#x10f;" horiz-adv-x="1503" 
d="M641 801q-105 0 -161 -66q-56 -65 -56 -191t60 -197t147 -71q57 0 105 31t77 82v326q-68 86 -172 86zM1266 1184v356h252l-111 -356h-141zM1151 0h-242l-41 123h-4q-119 -158 -307 -158q-147 0 -272 91t-176 270q-29 98 -29 227t41 242q74 204 260 279q82 34 172 34
q152 0 260 -88v520h338v-1540z" />
    <glyph glyph-name="Dcroat" unicode="&#x110;" horiz-adv-x="1478" 
d="M487 1112v-793h140q371 0 370 406q0 205 -95 296t-275 91h-140zM127 1434h477q225 0 398 -82q174 -82 274 -244t100 -383q0 -337 -215 -531t-557 -194h-477v1434zM956 1634h-577v160h577v-160z" />
    <glyph glyph-name="dcroat" unicode="&#x111;" horiz-adv-x="1267" 
d="M641 801q-105 0 -161 -66q-56 -65 -56 -191t60 -197t147 -71q57 0 105 31t77 82v326q-68 86 -172 86zM1257 1196h-106v-1196h-242l-41 123h-4q-119 -158 -302 -158t-328 134q-71 67 -112 182q-42 115 -42 258t41 256q74 204 260 279q82 34 172 34q152 0 260 -88v176h-133
v160h133v184h338v-184h106v-160z" />
    <glyph glyph-name="Emacron" unicode="&#x112;" horiz-adv-x="1239" 
d="M1120 1130h-639v-258h543v-301h-543v-268h639v-303h-993v1434h993v-304zM895 1634h-576v160h576v-160z" />
    <glyph glyph-name="emacron" unicode="&#x113;" horiz-adv-x="1173" 
d="M793 643q-1 103 -49 155t-132 52q-169 0 -198 -207h379zM80 532q0 254 145 415t379 161q176 0 284 -72q220 -143 220 -424q0 -96 -16 -178h-674q41 -199 246 -198q149 0 270 94l125 -219q-174 -145 -445 -146q-325 0 -462 251q-72 130 -72 316zM893 1432v-160h-578v160
h578z" />
    <glyph glyph-name="Ebreve" unicode="&#x114;" horiz-adv-x="1239" 
d="M1120 1130h-639v-258h543v-301h-543v-268h639v-303h-993v1434h993v-304zM605 1530q-130 0 -221 72t-103 223h153q23 -121 169 -121t173 121h150q-10 -151 -100 -223t-221 -72z" />
    <glyph glyph-name="ebreve" unicode="&#x115;" horiz-adv-x="1173" 
d="M793 643q-1 103 -49 155t-132 52q-169 0 -198 -207h379zM604 1108q176 0 284 -72q220 -143 220 -424q0 -96 -16 -178h-674q41 -199 246 -198q151 0 270 94l125 -219q-173 -145 -427 -145t-404 144q-150 146 -148 411q0 265 145 426t379 161zM602 1167q-129 0 -221 72
t-102 223h151q25 -121 171 -121t173 121h148q-8 -150 -100 -222t-220 -73z" />
    <glyph glyph-name="Edotaccent" unicode="&#x116;" horiz-adv-x="1239" 
d="M1120 1130h-639v-258h543v-301h-543v-268h639v-303h-993v1434h993v-304zM776 1724q0 -80 -49 -120t-107 -39q-58 0 -92 15q-36 15 -60 53t-24 85q0 91 50 128q50 38 117 38t116 -40t49 -120z" />
    <glyph glyph-name="edotaccent" unicode="&#x117;" horiz-adv-x="1173" 
d="M793 643q-1 103 -49 155t-132 52q-169 0 -198 -207h379zM80 532q0 254 145 415t379 161q176 0 284 -72q220 -143 220 -424q0 -96 -16 -178h-674q41 -199 246 -198q149 0 270 94l125 -219q-174 -145 -445 -146q-325 0 -462 251q-72 130 -72 316zM618 1202q-108 0 -153 70
q-25 38 -25 104t48 106t118 40t118 -40t48 -120t-48 -120t-106 -40z" />
    <glyph glyph-name="Eogonek" unicode="&#x118;" horiz-adv-x="1239" 
d="M481 1130v-258h543v-301h-543v-268h639v-303h-352q-102 -115 -102 -193q0 -94 127 -106l-48 -182q-129 8 -214 71q-85 62 -85 154t38 144t124 112h-481v1434h993v-304h-639z" />
    <glyph glyph-name="eogonek" unicode="&#x119;" horiz-adv-x="1173" 
d="M793 643q-1 103 -49 155t-132 52q-169 0 -198 -207h379zM567 -221q0 107 92 188l-45 -2q-325 0 -462 251q-72 130 -72 316q0 254 145 415t379 161q176 0 284 -72q220 -143 220 -424q0 -96 -16 -178h-674q41 -199 246 -198q150 0 270 94l125 -219q-80 -66 -178 -103
q-96 -106 -97 -182q0 -95 127 -107l-47 -182q-129 7 -213 71t-84 171z" />
    <glyph glyph-name="Ecaron" unicode="&#x11a;" horiz-adv-x="1239" 
d="M481 1130v-258h543v-301h-543v-268h639v-303h-993v1434h993v-304h-639zM502 1583l-244 297h254l90 -115l90 115h244l-234 -297h-200z" />
    <glyph glyph-name="ecaron" unicode="&#x11b;" horiz-adv-x="1173" 
d="M793 643q-1 103 -49 155t-132 52q-169 0 -198 -207h379zM80 532q0 254 145 415t379 161q176 0 284 -72q220 -143 220 -424q0 -96 -16 -178h-674q41 -199 246 -198q149 0 270 94l125 -219q-174 -145 -445 -146q-325 0 -462 251q-72 130 -72 316zM698 1223h-198l-244 295
h254l88 -115l92 115h242z" />
    <glyph glyph-name="Gbreve" unicode="&#x11e;" horiz-adv-x="1519" 
d="M1401 860v-686q-100 -96 -250 -151t-293 -55q-142 0 -244 26q-102 27 -196 85t-164 142t-111 209t-41 290t61 310q113 274 398 379q133 49 283 49q311 0 526 -158l-168 -264q-150 94 -329 94t-285 -106t-106 -306t98 -310q100 -110 248 -111q148 0 235 59v222h-318v282
h656zM833 1552q-130 0 -222 72q-91 72 -103 221h154q23 -119 169 -119t173 119h149q-10 -149 -100 -221t-220 -72z" />
    <glyph glyph-name="gbreve" unicode="&#x11f;" horiz-adv-x="1267" 
d="M637 799q-97 1 -155 -59t-58 -169t56 -169t149 -60q125 0 186 100v277q-80 80 -178 80zM825 27v108q-109 -96 -266 -96q-211 0 -345 143t-134 389q0 125 39 229q73 196 253 272q83 36 175 36q195 0 301 -135h14l51 104h236v-987q0 -279 -155 -411t-427 -132
q-119 0 -233 35t-187 90l113 252q125 -88 309 -88q119 0 188 47q68 48 68 144zM632 1169q-130 0 -221 72t-104 223h154q23 -121 169 -121t173 121h149q-10 -152 -100 -224t-220 -71z" />
    <glyph glyph-name="Gdotaccent" unicode="&#x120;" horiz-adv-x="1519" 
d="M1401 860v-686q-100 -96 -250 -151t-293 -55q-142 0 -244 26q-102 27 -196 85t-164 142t-111 209t-41 290t61 310q113 274 398 379q133 49 283 49q311 0 526 -158l-168 -264q-150 94 -329 94t-285 -106t-106 -306t98 -310q100 -110 248 -111q148 0 235 59v222h-318v282
h656zM834 1907q72 0 120 -41t50 -120q0 -79 -50 -119t-118 -40q-70 0 -117 40t-47 118q0 115 102 151q29 11 60 11z" />
    <glyph glyph-name="gdotaccent" unicode="&#x121;" horiz-adv-x="1267" 
d="M637 799q-97 1 -155 -59t-58 -169t56 -169t149 -60q125 0 186 100v277q-80 80 -178 80zM825 27v108q-109 -96 -266 -96q-211 0 -345 143t-134 389q0 125 39 229q73 196 253 272q83 36 175 36q195 0 301 -135h12l53 104h236v-987q0 -279 -155 -411t-427 -132
q-119 0 -233 35t-187 90l113 252q125 -88 309 -88q119 0 188 47q68 48 68 144zM635 1524q70 0 119 -40t49 -120t-49 -120t-118 -40t-117 40t-48 120t47 120t117 40z" />
    <glyph glyph-name="Gcommaaccent" unicode="&#x122;" horiz-adv-x="1519" 
d="M678 -465v356h252l-111 -356h-141zM1401 860v-686q-100 -96 -250 -151t-293 -55q-142 0 -244 26q-102 27 -196 85t-164 142t-111 209t-41 290t61 310q113 274 398 379q133 49 283 49q311 0 526 -158l-168 -264q-150 94 -329 94t-285 -106t-106 -306t98 -310
q100 -110 248 -111q148 0 235 59v222h-318v282h656z" />
    <glyph glyph-name="gcommaaccent" unicode="&#x123;" horiz-adv-x="1267" 
d="M489 -887v357h252l-108 -357h-144zM637 799q-97 1 -155 -59t-58 -169t56 -169t149 -60q125 0 186 100v277q-80 80 -178 80zM825 27v108q-109 -96 -266 -96q-211 0 -345 143t-134 389q0 125 39 229q73 196 253 272q83 36 175 36q195 0 301 -135h12l53 104h236v-987
q0 -279 -155 -411t-427 -132q-119 0 -233 35t-187 90l113 252q125 -88 309 -88q119 0 188 47q68 48 68 144z" />
    <glyph glyph-name="Hbar" unicode="&#x126;" horiz-adv-x="1738" 
d="M1169 1028h-596v-164h596v164zM1614 1028h-92v-1028h-353v561h-596v-561h-354v1028h-92v203h92v203h354v-203h596v203h353v-203h92v-203z" />
    <glyph glyph-name="hbar" unicode="&#x127;" horiz-adv-x="1265" 
d="M455 1171v-221q131 152 327 152q365 0 365 -393v-709h-340v657q0 72 -37 108t-92 36q-123 0 -221 -150v-651h-338v1171h-164v160h164v209h336v-209h192v-160h-192z" />
    <glyph glyph-name="Imacron" unicode="&#x12a;" horiz-adv-x="655" 
d="M506 0h-356v1434h356v-1434zM616 1634h-577v160h577v-160z" />
    <glyph glyph-name="imacron" unicode="&#x12b;" horiz-adv-x="595" 
d="M467 0h-338v1073h338v-1073zM582 1274h-576v160h576v-160z" />
    <glyph glyph-name="Iogonek" unicode="&#x12e;" horiz-adv-x="655" 
d="M506 0h-33q-104 -115 -104 -193q0 -94 127 -106l-47 -182q-129 8 -215 71q-84 62 -84 154t38 144q39 52 123 112h-161v1434h356v-1434z" />
    <glyph glyph-name="iogonek" unicode="&#x12f;" horiz-adv-x="649" 
d="M492 0h-21q-104 -115 -104 -193q0 -94 127 -106l-48 -182q-129 8 -213 71t-83 166q-2 80 36 132q39 52 123 112h-153v1073h336v-1073zM338 1202q-210 0 -209 188q0 72 56 116q57 44 139 44t139 -44t57 -130t-57 -130t-125 -44z" />
    <glyph glyph-name="Idotaccent" unicode="&#x130;" horiz-adv-x="655" 
d="M506 0h-356v1434h356v-1434zM330 1884q70 0 118 -40t48 -120t-48 -120t-118 -39q-70 0 -118 40q-48 39 -48 119t48 120t118 40z" />
    <glyph glyph-name="dotlessi" unicode="&#x131;" horiz-adv-x="595" 
d="M467 0h-338v1073h338v-1073z" />
    <glyph glyph-name="IJ" unicode="&#x132;" horiz-adv-x="1650" 
d="M1524 1434v-922q0 -551 -520 -551q-170 0 -289 37l28 291q63 -14 166 -15q254 0 254 238v922h361zM506 0h-356v1434h356v-1434z" />
    <glyph glyph-name="ij" unicode="&#x133;" horiz-adv-x="1300" 
d="M1145 1073v-1149q0 -160 -115 -268t-287 -109q-172 0 -274 58l68 254q63 -21 134 -21t103 28t33 101v1106h338zM492 0h-336v1073h336v-1073zM975 1550q82 0 139 -44t57 -130t-57 -130t-139 -44t-138 44t-57 130q0 86 56 130t139 44zM338 1202q-210 0 -209 188
q0 72 56 116q57 44 139 44t139 -44t57 -130t-57 -130t-125 -44z" />
    <glyph glyph-name="Kcommaaccent" unicode="&#x136;" horiz-adv-x="1474" 
d="M594 -109h254l-109 -356h-145v356zM494 0h-367v1434h367v-547l446 547h475l-581 -633l620 -801h-459l-413 528l-88 -96v-432z" />
    <glyph glyph-name="kcommaaccent" unicode="&#x137;" horiz-adv-x="1212" 
d="M467 -109h254l-111 -356h-143v356zM457 0h-338v1540h338v-848l293 381h405l-391 -434l448 -639h-395l-268 399l-92 -104v-295z" />
    <glyph glyph-name="Lacute" unicode="&#x139;" horiz-adv-x="1167" 
d="M481 319h649v-319h-1003v1434h354v-1115zM428 1591h-188l120 312h375z" />
    <glyph glyph-name="lacute" unicode="&#x13a;" horiz-adv-x="614" 
d="M475 0h-338v1540h338v-1540zM397 1677h-188l121 310h372z" />
    <glyph glyph-name="Lcommaaccent" unicode="&#x13b;" horiz-adv-x="1167" 
d="M440 -465v356h252l-110 -356h-142zM481 319h649v-319h-1003v1434h354v-1115z" />
    <glyph glyph-name="lcommaaccent" unicode="&#x13c;" horiz-adv-x="614" 
d="M182 -1503v356h250l-108 -356h-142zM475 0h-338v1540h338v-1540z" />
    <glyph glyph-name="Lcaron" unicode="&#x13d;" horiz-adv-x="1167" 
d="M758 1073v357h252l-111 -357h-141zM481 319h649v-319h-1003v1434h354v-1115z" />
    <glyph glyph-name="lcaron" unicode="&#x13e;" horiz-adv-x="835" 
d="M475 0h-338v1540h338v-1540zM604 1186v356h252l-108 -356h-144z" />
    <glyph glyph-name="Ldot" unicode="&#x13f;" horiz-adv-x="1167" 
d="M829 1040q83 0 141 -53t58 -149t-57 -148t-141 -53q-84 0 -141 53q-58 52 -58 148t58 149t140 53zM481 319h649v-319h-1003v1434h354v-1115z" />
    <glyph glyph-name="ldot" unicode="&#x140;" horiz-adv-x="962" 
d="M770 993q82 0 140 -53t58 -149q0 -97 -58 -149t-141 -52t-141 53t-58 149t58 148q60 53 142 53zM475 0h-338v1540h338v-1540z" />
    <glyph glyph-name="Lslash" unicode="&#x141;" horiz-adv-x="1132" 
d="M475 317h596v-317h-950v549l-164 -72v264l164 72v621h354v-465l248 102v-266l-248 -103v-385z" />
    <glyph glyph-name="lslash" unicode="&#x142;" horiz-adv-x="765" 
d="M547 0h-338v541l-164 -70v320l164 69v680h338v-536l174 73v-321l-174 -72v-684z" />
    <glyph glyph-name="Nacute" unicode="&#x143;" horiz-adv-x="1521" 
d="M1397 0h-299l-617 817v-817h-354v1434h299l608 -828v828h363v-1434zM850 1591h-188l122 312h373z" />
    <glyph glyph-name="nacute" unicode="&#x144;" horiz-adv-x="1263" 
d="M807 623q0 163 -125 161q-119 0 -227 -145v-639h-336v1073h227l53 -155h11q76 100 162 145t200 45q172 0 272 -98t101 -275v-735h-338v623zM715 1225h-189l123 309h373z" />
    <glyph glyph-name="Ncommaaccent" unicode="&#x145;" horiz-adv-x="1521" 
d="M616 -465v356h252l-108 -356h-144zM1397 0h-299l-617 817v-817h-354v1434h299l608 -828v828h363v-1434z" />
    <glyph glyph-name="ncommaaccent" unicode="&#x146;" horiz-adv-x="1263" 
d="M520 -465v356h252l-110 -356h-142zM807 623q0 163 -125 161q-119 0 -227 -145v-639h-336v1073h227l53 -155h11q113 147 256 179q50 11 112 11q197 0 301 -139q64 -87 66 -234v-735h-338v623z" />
    <glyph glyph-name="Ncaron" unicode="&#x147;" horiz-adv-x="1521" 
d="M1397 1434v-1434h-299l-617 817v-817h-354v1434h299l608 -828v828h363zM655 1606l-243 297h254l90 -117l90 117h244l-234 -297h-201z" />
    <glyph glyph-name="ncaron" unicode="&#x148;" horiz-adv-x="1263" 
d="M807 623q0 163 -125 161q-119 0 -227 -145v-639h-336v1073h227l53 -155h11q113 147 256 179q50 11 112 11q197 0 301 -139q64 -87 66 -234v-735h-338v623zM522 1239l-243 295h253l89 -115l90 115h243l-233 -295h-199z" />
    <glyph glyph-name="Eng" unicode="&#x14a;" horiz-adv-x="1521" 
d="M874 -485q-170 0 -288 36l28 293q63 -14 168 -14q252 0 252 236v16l-553 735v-817h-354v1434h299l608 -828v828h363v-1371l-2 -63q-31 -485 -521 -485z" />
    <glyph glyph-name="eng" unicode="&#x14b;" horiz-adv-x="1263" 
d="M770 1108q174 0 274 -98t101 -275v-839q0 -162 -114 -268t-306 -107q-92 0 -182 37l61 262q59 -10 98 -10t73 34t34 66l-2 90v623q0 88 -32 125t-95 36q-117 0 -225 -145v-639h-336v1073h227l53 -155h11q76 100 162 145t198 45z" />
    <glyph glyph-name="Omacron" unicode="&#x14c;" horiz-adv-x="1667" 
d="M834 1130q-160 0 -256 -103t-96 -306t97 -316q98 -112 252 -112q217 0 307 192q46 98 46 236q0 203 -95 306t-255 103zM834 1458q143 0 271 -44q285 -98 398 -360q61 -144 61 -330t-60 -335q-110 -269 -399 -377q-128 -47 -271 -47q-293 0 -504 185q-104 90 -166 240
t-62 334q0 186 62 330q111 262 398 360q129 44 272 44zM1118 1634h-577v160h577v-160z" />
    <glyph glyph-name="omacron" unicode="&#x14d;" horiz-adv-x="1288" 
d="M645 262q221 0 219 297q0 111 -56 181t-164 71q-108 0 -164 -71q-56 -72 -56 -204t56 -203t165 -71zM644 1108q222 0 389 -136q81 -68 128 -180t47 -255t-47 -256q-85 -204 -308 -281q-99 -35 -209 -35q-222 0 -389 136q-81 67 -128 180t-47 256t47 256q85 203 308 280
q99 35 209 35zM928 1274h-576v160h576v-160z" />
    <glyph glyph-name="Ohungarumlaut" unicode="&#x150;" horiz-adv-x="1667" 
d="M834 1130q-160 0 -256 -103t-96 -307t96 -316q98 -112 254 -112t254 112q97 112 98 317q0 135 -46 229q-88 180 -304 180zM834 1458q143 0 271 -44q285 -98 398 -360q61 -144 61 -330t-60 -335q-110 -269 -399 -377q-128 -47 -271 -47q-293 0 -504 185q-104 90 -166 240
t-62 334q0 186 62 330q111 262 398 360q129 44 272 44zM1036 1593h-162l146 301h262zM741 1593h-159l47 301h254z" />
    <glyph glyph-name="ohungarumlaut" unicode="&#x151;" horiz-adv-x="1288" 
d="M424 559q0 -297 221 -297t219 297q0 111 -56 181t-164 71q-108 0 -164 -71t-56 -181zM644 1108q222 0 389 -136q81 -68 128 -180t47 -241q0 -246 -112 -383q-166 -203 -464 -203q-211 0 -377 136q-81 67 -128 180t-47 256t47 256q85 203 308 280q99 35 209 35zM846 1233
h-162l147 301h261zM551 1233h-158l47 301h252z" />
    <glyph glyph-name="OE" unicode="&#x152;" horiz-adv-x="1888" 
d="M848 1135h-4q-172 0 -270.5 -105.5t-98.5 -304.5t98.5 -304.5t270.5 -105.5h4v820zM1769 1112h-557v-246h496v-284h-496v-260h557v-322h-882q-333 0 -553 175q-110 87 -171 228.5t-61 321.5q0 179 62 319t170 223q218 167 549 167h886v-322z" />
    <glyph glyph-name="oe" unicode="&#x153;" horiz-adv-x="1953" 
d="M631 272q211 0 211 286q0 104 -55.5 173.5t-156 69.5t-154.5 -69.5t-54 -194.5t54.5 -195t154.5 -70zM1200 655h375q-10 90 -58.5 137.5t-125.5 47.5q-158 -1 -191 -185zM1425 -25q-281 0 -419 193q-135 -193 -414 -193q-162 1 -290 89q-222 154 -222 473q0 137 44 247
q44 108 118 176q150 138 362 138q270 0 404 -193q127 193 387 193q161 0 275 -68q218 -131 218 -407q0 -109 -16 -195h-666q43 -184 252 -184q149 -1 260 73l121 -188q-91 -113 -304 -145q-56 -8 -110 -9z" />
    <glyph glyph-name="Racute" unicode="&#x154;" horiz-adv-x="1400" 
d="M481 758h193q109 0 171 49t62 142t-57 137t-182 44h-187v-372zM481 455v-455h-354v1434h557q306 0 454 -120t148 -341q0 -322 -268 -449l330 -524h-394l-272 455h-201zM735 1571h-188l123 309h372z" />
    <glyph glyph-name="racute" unicode="&#x155;" horiz-adv-x="874" 
d="M688 1108q82 0 152 -37l-60 -311q-68 35 -110 35q-143 0 -209 -220v-575h-342v1073h260l51 -160h6q87 195 252 195zM555 1225h-188l122 309h373z" />
    <glyph glyph-name="Rcommaaccent" unicode="&#x156;" horiz-adv-x="1400" 
d="M559 -109h254l-111 -356h-143v356zM481 758h193q109 0 171 49t62 142t-57 137t-182 44h-187v-372zM481 455v-455h-354v1434h557q306 0 454 -120t148 -341q0 -322 -268 -449l330 -524h-394l-272 455h-201z" />
    <glyph glyph-name="rcommaaccent" unicode="&#x157;" horiz-adv-x="874" 
d="M166 -465v356h252l-111 -356h-141zM688 1108q82 0 152 -37l-60 -311q-68 35 -110 35q-143 0 -209 -220v-575h-342v1073h260l51 -160h6q87 195 252 195z" />
    <glyph glyph-name="Rcaron" unicode="&#x158;" horiz-adv-x="1400" 
d="M481 758h193q109 0 171 49t62 142t-57 137t-182 44h-187v-372zM481 455v-455h-354v1434h557q306 0 454 -120t148 -341q0 -322 -268 -449l330 -524h-394l-272 455h-201zM543 1583l-244 297h254l88 -115l90 115h244l-234 -297h-198z" />
    <glyph glyph-name="rcaron" unicode="&#x159;" horiz-adv-x="874" 
d="M688 1108q82 0 152 -37l-60 -311q-68 35 -110 35q-143 0 -209 -220v-575h-342v1073h260l51 -160h6q87 195 252 195zM362 1239l-243 295h254l88 -115l92 115h242l-234 -295h-199z" />
    <glyph glyph-name="Sacute" unicode="&#x15a;" horiz-adv-x="1245" 
d="M578 305q108 0 164 33t56 83t-33 78q-34 27 -140 60q-105 32 -146 47q-190 68 -284 159t-95 255q0 210 150 324t393 114q154 0 286 -41t208 -102l-150 -264q-68 49 -160 77t-177 29q-85 0 -132 -31t-47 -84q1 -53 25 -71q24 -17 42 -29t52 -23q32 -11 60 -21t75 -24
q263 -81 358 -172q95 -92 95 -253q0 -225 -161 -349t-423 -125q-129 0 -266 33t-248 101l106 292q193 -96 392 -96zM715 1593h-189l123 310h373z" />
    <glyph glyph-name="sacute" unicode="&#x15b;" horiz-adv-x="1007" 
d="M422 772q0 -28 15 -40q15 -11 23 -16t20 -10q12 -6 24 -10q23 -9 67 -18t74 -21q230 -62 285 -196q20 -51 20 -119q0 -182 -130 -280t-337 -97q-121 0 -227 33t-172 82l76 254q128 -82 290 -82t162 82q0 40 -43 56t-109 33q-217 54 -299 149q-65 76 -65 174
q0 267 256 338q82 24 183 24q238 0 389 -111l-95 -227q-61 37 -140 57t-144 21q-123 0 -123 -76zM604 1210h-188l123 310h372z" />
    <glyph glyph-name="Scedilla" unicode="&#x15e;" horiz-adv-x="1245" 
d="M504 -362q145 28 145 88q0 47 -37 49q-20 0 -39 -15l-108 95l61 122q-258 16 -446 132l106 292q193 -96 392 -96q108 0 164 33t56 83t-33 78q-34 27 -140 60q-105 32 -146 47q-190 68 -284 159t-95 255q0 210 150 324t393 114q154 0 286 -41t208 -102l-150 -264
q-68 49 -160 77t-177 29q-85 0 -132 -31t-47 -79t21 -73q21 -24 54 -38q53 -22 129 -45q76 -22 132 -43q193 -66 282 -152t89 -247q0 -207 -136 -328t-360 -141l-43 -82q101 14 155 -31t54 -135t-81 -154t-206 -76z" />
    <glyph glyph-name="scedilla" unicode="&#x15f;" horiz-adv-x="1007" 
d="M450 252q162 0 162 82q0 40 -43 56t-156 45q-114 28 -185 79q-72 52 -102 112t-30 139t31 143q62 130 225 176q82 24 183 24q237 0 389 -111l-95 -227q-75 46 -158 62t-133 16t-83 -20t-33 -58q0 -53 98 -78q24 -6 38 -10t42 -11q191 -50 270 -124q80 -74 80 -194
q0 -121 -50 -201q-97 -156 -333 -183l-37 -71q68 10 116 -10q95 -39 94 -142q-1 -104 -82 -168t-205 -76l-60 136q148 28 148 96q1 16 -11 28q-26 27 -67 -2l-107 95l56 114q-203 18 -328 111l76 254q128 -82 290 -82z" />
    <glyph glyph-name="Scaron" unicode="&#x160;" horiz-adv-x="1245" 
d="M884 1108q-114 49 -232 49t-159 -54q-22 -28 -22 -66t21 -63q21 -24 54 -38q53 -22 129 -45q76 -22 132 -43q193 -66 282 -152t89 -247q0 -225 -161 -349t-423 -125q-129 0 -266 33t-248 101l106 292q193 -96 392 -96q108 0 164 33t56 91t-61 88q-38 19 -86 34
q-47 15 -91 29t-81 26q-190 68 -284 159t-95 255q0 210 150 324t393 114q154 0 286 -41t208 -102l-150 -264q-45 33 -103 57zM520 1608l-244 295h254l91 -115l90 115h243l-233 -295h-201z" />
    <glyph glyph-name="scaron" unicode="&#x161;" horiz-adv-x="1007" 
d="M450 252q162 0 162 82q0 40 -43 56t-109 33q-217 54 -299 149q-65 76 -65 174q0 267 256 338q82 24 183 24q237 0 389 -111l-95 -227q-75 46 -158 62t-133 16t-83 -20t-33 -58q0 -53 98 -78q24 -6 38 -10t42 -11q191 -50 270 -124q80 -74 80 -205q0 -182 -130 -280
t-337 -97q-121 0 -227 33t-172 82l76 254q128 -82 290 -82zM412 1223l-244 297h254l88 -115l92 115h242l-234 -297h-198z" />
    <glyph glyph-name="Tcedilla" unicode="&#x162;" horiz-adv-x="1359" 
d="M690 -266q0 41 -42 41q-14 0 -34 -15l-108 95l72 145h-74v1130h-418v304h1190v-304h-416v-1130h-127l-53 -102q100 14 154 -31t55 -118q0 -73 -39 -126q-77 -105 -248 -121l-57 136q85 16 115 40t30 56z" />
    <glyph glyph-name="tcedilla" unicode="&#x163;" horiz-adv-x="917" 
d="M563 -278q1 52 -41 53q-16 0 -35 -15l-106 95l57 116q-231 39 -231 310v503h-154v289h154v111l143 170h199v-281h260v-289h-260v-432q0 -84 80 -84q63 0 135 25l82 -238q-113 -74 -256 -86l-35 -71q99 14 153 -31t54 -135t-81 -154t-206 -76l-57 136q84 16 114 40
q30 22 31 44z" />
    <glyph glyph-name="Tcaron" unicode="&#x164;" horiz-adv-x="1359" 
d="M1276 1434v-304h-416v-1130h-356v1130h-418v304h1190zM588 1583l-244 297h254l88 -115l92 115h244l-234 -297h-200z" />
    <glyph glyph-name="tcaron" unicode="&#x165;" horiz-adv-x="917" 
d="M549 1073h260v-289h-260v-432q0 -84 80 -84q63 0 135 25l82 -238q-140 -90 -310 -90t-250 75t-79 241v503h-154v289h154v111l143 170h199v-281zM578 1454v356h251l-110 -356h-141z" />
    <glyph glyph-name="Tbar" unicode="&#x166;" horiz-adv-x="1359" 
d="M1276 1130h-416v-1130h-356v1130h-418v304h1190v-304zM981 1634h-575v160h575v-160z" />
    <glyph glyph-name="tbar" unicode="&#x167;" horiz-adv-x="917" 
d="M536 -35q-170 0 -250 75t-79 241v206h-107v160h107v137h-154v289h154v111l143 170h199v-281h260v-289h-260v-137h129v-160h-129v-135q0 -84 80 -84q63 0 135 25l82 -238q-140 -90 -310 -90z" />
    <glyph glyph-name="Umacron" unicode="&#x16a;" horiz-adv-x="1449" 
d="M1323 1434v-914q0 -416 -367 -524q-104 -31 -231 -31q-253 1 -426 129q-172 128 -172 426v914h354v-902q1 -117 63 -179t180 -62t181 62t64 179v902h354zM1004 1634h-578v160h578v-160z" />
    <glyph glyph-name="umacron" unicode="&#x16b;" horiz-adv-x="1247" 
d="M453 432q0 -155 135 -153q131 0 207 147v647h335v-1073h-227l-59 139q-123 -164 -338 -164q-184 1 -286 101t-101 278v719h334v-641zM918 1274h-576v160h576v-160z" />
    <glyph glyph-name="Uring" unicode="&#x16e;" horiz-adv-x="1449" 
d="M1323 1434v-914q0 -416 -367 -524q-104 -31 -231 -31q-253 1 -426 129q-172 128 -172 426v914h354v-902q1 -117 63 -179t180 -62t181 62t64 179v902h354zM715 1800q-35 0 -55 -20t-19 -51q0 -31 19 -53q18 -22 54 -22t55 22t19 53t-19 51t-54 20zM715 1905
q130 0 175 -108q13 -32 13 -68q0 -76 -51 -127q-50 -52 -122 -52q-131 -1 -180 89q-22 40 -22 103t50 113t137 50z" />
    <glyph glyph-name="uring" unicode="&#x16f;" horiz-adv-x="1247" 
d="M453 432q0 -155 135 -153q131 0 207 147v647h335v-1073h-227l-59 139q-123 -164 -338 -164q-123 1 -211 47q-176 93 -176 332v719h334v-641zM636 1440q-42 0 -60 -20t-19 -52q0 -30 18 -52q19 -22 55 -22t54 22t18 46q0 78 -66 78zM644 1190q-131 0 -179 89
q-23 41 -23 103t52 112t136 50q85 0 136 -50t51 -126t-51 -127q-52 -51 -122 -51z" />
    <glyph glyph-name="Uhungarumlaut" unicode="&#x170;" horiz-adv-x="1449" 
d="M1323 1434v-914q0 -416 -367 -524q-104 -31 -231 -31q-253 1 -426 129q-172 128 -172 426v914h354v-902q1 -117 63 -179t180 -62t181 62t64 179v902h354zM922 1593h-162l147 301h260zM627 1593h-158l45 301h254z" />
    <glyph glyph-name="uhungarumlaut" unicode="&#x171;" horiz-adv-x="1247" 
d="M453 432q0 -155 135 -153q131 0 207 147v647h335v-1073h-227l-59 139q-123 -164 -338 -164q-184 1 -286 101t-101 278v719h334v-641zM676 1233l145 301h260l-243 -301h-162zM541 1233h-158l47 301h254z" />
    <glyph glyph-name="Uogonek" unicode="&#x172;" horiz-adv-x="1449" 
d="M1323 1434v-914q0 -371 -289 -497h2q-109 -119 -108 -197q0 -94 127 -107l-47 -182q-129 7 -213 71t-85 172t95 189q-39 -4 -123 -4t-189 31q-366 108 -366 524v914h354v-902q1 -117 63 -179t180 -62t181 62t64 179v902h354z" />
    <glyph glyph-name="uogonek" unicode="&#x173;" horiz-adv-x="1247" 
d="M453 432q0 -155 135 -153q131 0 207 147v647h335v-1073h-61q-104 -115 -104 -193q0 -94 127 -106l-48 -182q-205 13 -275 142q-24 43 -24 109t39 118t123 112h-4l-59 139q-123 -164 -338 -164q-184 1 -286 101t-101 278v719h334v-641z" />
    <glyph glyph-name="Wcircumflex" unicode="&#x174;" horiz-adv-x="2054" 
d="M2052 1434l-467 -1434h-252l-303 858l-305 -858h-254l-469 1434h379l250 -859l276 859h260l287 -869l238 869h360zM954 1585h-256l246 297h195l235 -297h-244l-90 113z" />
    <glyph glyph-name="wcircumflex" unicode="&#x175;" horiz-adv-x="1622" 
d="M1616 1073l-393 -1073h-209l-211 600l-228 -600h-208l-361 1073h330l168 -627l207 627h213l198 -629l166 629h328zM723 1225h-256l248 297h194l236 -297h-244l-90 112z" />
    <glyph glyph-name="Ycircumflex" unicode="&#x176;" horiz-adv-x="1355" 
d="M848 0h-354v571l-498 863h410l278 -519l281 519h383l-500 -865v-569zM606 1585h-254l246 297h195l235 -297h-244l-90 113z" />
    <glyph glyph-name="ycircumflex" unicode="&#x177;" horiz-adv-x="1261" 
d="M374 -442q-159 0 -302 45l59 252q90 -29 172 -29q104 0 150 108l14 31l-436 1112h354l246 -741l221 741h365l-404 -1147q-68 -196 -174 -284t-265 -88zM520 1239h-254l246 299h195l235 -299h-244l-90 113z" />
    <glyph glyph-name="Ydieresis" unicode="&#x178;" horiz-adv-x="1355" 
d="M848 0h-354v571l-498 863h410l278 -519l281 519h383l-500 -865v-569zM1047 1731q-1 -150 -159 -150q-48 0 -88 38q-42 38 -42 113q0 76 42 112t104 36t102 -37t41 -112zM344 1731q0 77 42 113t106 36t103 -37q40 -37 40 -113t-41 -112q-42 -37 -104 -37t-104 37t-42 113z
" />
    <glyph glyph-name="Zacute" unicode="&#x179;" horiz-adv-x="1306" 
d="M1233 303v-303h-1163v219l657 911h-625v304h1088v-211l-682 -920h725zM754 1591h-189l121 312h373z" />
    <glyph glyph-name="zacute" unicode="&#x17a;" horiz-adv-x="1030" 
d="M967 285v-285h-889v221l438 570h-426v282h848v-229l-455 -559h484zM598 1210h-188l122 310h373z" />
    <glyph glyph-name="Zdotaccent" unicode="&#x17b;" horiz-adv-x="1306" 
d="M1233 303v-303h-1163v219l657 911h-625v304h1088v-211l-682 -920h725zM664 1907q72 0 120 -41t47 -120q0 -79 -48 -119q-47 -40 -117 -40t-117 40t-47 118q0 115 102 151q29 11 60 11z" />
    <glyph glyph-name="zdotaccent" unicode="&#x17c;" horiz-adv-x="1030" 
d="M967 285v-285h-889v221l438 570h-426v282h848v-229l-455 -559h484zM511 1524q69 0 118 -40t49 -120t-49 -120t-118 -40t-117 40t-48 120t48 120t117 40z" />
    <glyph glyph-name="Zcaron" unicode="&#x17d;" horiz-adv-x="1306" 
d="M1233 303v-303h-1163v219l657 911h-625v304h1088v-211l-682 -920h725zM559 1606l-244 297h254l88 -117l93 117h243l-233 -297h-201z" />
    <glyph glyph-name="zcaron" unicode="&#x17e;" horiz-adv-x="1030" 
d="M967 285v-285h-889v221l438 570h-426v282h848v-229l-455 -559h484zM403 1223l-243 297h254l90 -115l90 115h244l-234 -297h-201z" />
    <glyph glyph-name="florin" unicode="&#x192;" horiz-adv-x="1046" 
d="M346 1077v119q0 210 138 302q90 59 228 60t249 -38l-64 -258q-59 16 -107 16t-76 -26t-28 -70v-105h227v-286h-227v-650q0 -162 -96 -261t-268 -99q-98 0 -148 11t-98 38l59 246q72 -18 110 -18q37 0 69 27q32 28 32 89v617h-131v286h131z" />
    <glyph glyph-name="Scommaaccent" unicode="&#x218;" horiz-adv-x="1245" 
d="M471 -465v356h250l-109 -356h-141zM578 305q108 0 164 33t56 83t-33 78q-34 27 -176 71t-217 79q-143 67 -206 151q-64 84 -66 220q0 210 150 324t393 114q154 0 286 -41t208 -102l-150 -264q-68 49 -160 77t-177 29q-85 0 -132 -31t-47 -84q1 -53 25 -71q24 -17 42 -29
t52 -23q32 -11 60 -21t75 -24q263 -81 358 -172q95 -92 95 -253q0 -225 -161 -349t-423 -125q-129 0 -266 33t-248 101l106 292q193 -96 392 -96z" />
    <glyph glyph-name="scommaaccent" unicode="&#x219;" horiz-adv-x="1007" 
d="M360 -465v356h252l-110 -356h-142zM422 772q0 -56 98 -80q24 -6 38 -10t42 -11q191 -50 270 -124q80 -74 80 -205q0 -182 -130 -280t-337 -97q-121 0 -227 33t-172 82l76 254q129 -82 297 -82q75 0 115 22t40 50q0 30 -15 48q-18 22 -186 63q-168 42 -242 127
q-73 85 -73 204q0 158 118 250t338 92t372 -111l-95 -227q-134 78 -271 78q-136 0 -136 -76z" />
    <glyph glyph-name="uni021A" unicode="&#x21a;" horiz-adv-x="1359" 
d="M512 -465v356h250l-109 -356h-141zM1276 1130h-416v-1130h-356v1130h-418v304h1190v-304z" />
    <glyph glyph-name="uni021B" unicode="&#x21b;" horiz-adv-x="917" 
d="M385 -465v356h252l-111 -356h-141zM549 1073h260v-289h-260v-432q0 -84 80 -84q63 0 135 25l82 -238q-140 -90 -310 -90t-250 75t-79 241v503h-154v289h154v111l143 170h199v-281z" />
    <glyph glyph-name="circumflex" unicode="&#x2c6;" horiz-adv-x="780" 
d="M485 1225l-90 112l-88 -112h-254l246 297h195l235 -297h-244z" />
    <glyph glyph-name="caron" unicode="&#x2c7;" horiz-adv-x="780" 
d="M729 1520l-233 -297h-199l-244 297h254l88 -115l90 115h244z" />
    <glyph glyph-name="breve" unicode="&#x2d8;" horiz-adv-x="671" 
d="M338 1227q-129 0 -221 71.5t-103 221.5h152q25 -119 171 -119t173 119h147q-8 -150 -99 -221.5t-220 -71.5z" />
    <glyph glyph-name="dotaccent" unicode="&#x2d9;" horiz-adv-x="598" 
d="M312 1204q-178 0 -179 174q0 66 48 106t118 40t118 -40t48 -120t-47.5 -120t-105.5 -40z" />
    <glyph glyph-name="ring" unicode="&#x2da;" horiz-adv-x="780" 
d="M463 1362q0 78 -79 78q-30 0 -48 -20q-18 -22 -19 -44q0 -36 19 -59t54.5 -23t54 22t18.5 46zM391 1544q127 0 173 -108q14 -32 14 -68q0 -76 -51.5 -127t-136.5 -51t-136 51t-51 127t51 126t137 50z" />
    <glyph glyph-name="ogonek" unicode="&#x2db;" horiz-adv-x="538" 
d="M94 -228q0 70 48 125.5t161 131.5l117 -29q-106 -117 -107 -197q0 -94 127 -106l-47 -182q-127 8 -213 70t-86 187z" />
    <glyph glyph-name="tilde" unicode="&#x2dc;" horiz-adv-x="780" 
d="M554.5 1235q-68.5 0 -146.5 40t-113 40q-70 0 -102 -96l-164 88q25 109 88 160t122.5 51t107.5 -20.5t84 -41t61 -20.5q57 0 98 102l178 -74q-27 -106 -86 -167.5t-127.5 -61.5z" />
    <glyph glyph-name="hungarumlaut" unicode="&#x2dd;" horiz-adv-x="780" 
d="M496 1233h-162l145 301h260zM199 1233h-158l47 301h254z" />
    <glyph glyph-name="commaaccentcomb" unicode="&#x326;" horiz-adv-x="0" 
d="M125 -465v356h252l-111 -356h-141z" />
    <glyph glyph-name="mu" unicode="&#x3bc;" horiz-adv-x="1331" 
d="M922 137q-121 -162 -295 -162q-72 0 -142 45v-397h-329v1450h336v-612q0 -96 48 -139t126 -43q133 0 204 147v647h336v-1073h-227z" />
    <glyph glyph-name="Wgrave" unicode="&#x1e80;" horiz-adv-x="2054" 
d="M1585 0h-252l-303 858l-305 -858h-254l-469 1434h379l250 -859l276 859h260l287 -869l238 869h360zM1137 1571h-189l-307 309h373z" />
    <glyph glyph-name="wgrave" unicode="&#x1e81;" horiz-adv-x="1622" 
d="M1616 1073l-393 -1073h-209l-211 600l-228 -600h-208l-361 1073h330l168 -627l207 627h213l198 -629l166 629h328zM719 1210l-307 310h372l123 -310h-188z" />
    <glyph glyph-name="Wacute" unicode="&#x1e82;" horiz-adv-x="2054" 
d="M1585 0h-252l-303 858l-305 -858h-254l-469 1434h379l250 -859l276 859h260l287 -869l238 869h360zM1135 1571h-189l123 309h373z" />
    <glyph glyph-name="wacute" unicode="&#x1e83;" horiz-adv-x="1622" 
d="M1616 1073l-393 -1073h-209l-211 600l-228 -600h-208l-361 1073h330l168 -627l207 627h213l198 -629l166 629h328zM905 1210h-188l123 310h372z" />
    <glyph glyph-name="Wdieresis" unicode="&#x1e84;" horiz-adv-x="2054" 
d="M1585 0h-252l-303 858l-305 -858h-254l-469 1434h379l250 -859l276 859h260l287 -869l238 869h360zM1250 1880q64 0 104 -37t39 -111q0 -74 -40 -113q-41 -38 -91 -38q-160 1 -158 163q0 64 42 100q40 36 104 36zM690 1731q0 77 42 113t106 36t103 -37q40 -37 40 -113
t-41 -112q-41 -37 -102 -37t-105 37q-43 37 -43 113z" />
    <glyph glyph-name="wdieresis" unicode="&#x1e85;" horiz-adv-x="1622" 
d="M1616 1073l-393 -1073h-209l-211 600l-228 -600h-208l-361 1073h330l168 -627l207 627h213l198 -629l166 629h328zM1163 1371q0 -75 -40 -113t-102 -37q-62 0 -105 37q-42 38 -42 113t42 112t104 37t103 -37q40 -37 40 -112zM606 1221q-62 1 -104 37t-41 112q0 76 42 113
t104 37q61 0 103 -37t42 -113t-41 -113q-43 -36 -105 -36z" />
    <glyph glyph-name="uni1E9E" unicode="&#x1e9e;" horiz-adv-x="1468" 
d="M901 975q0 160 -178 160q-88 1 -141 -61t-54 -173v-901h-356v942q0 132 47 234t128 162q163 120 411 120t379 -137t131 -395l-189 -193q289 -74 289 -354q0 -186 -121 -298t-313 -112t-272 37l45 299q81 -33 151 -33t110 45t40 109q0 166 -279 186v176z" />
    <glyph glyph-name="Ygrave" unicode="&#x1ef2;" horiz-adv-x="1355" 
d="M848 0h-354v571l-498 863h410l278 -519l281 519h383l-500 -865v-569zM791 1571h-189l-307 309h373z" />
    <glyph glyph-name="ygrave" unicode="&#x1ef3;" horiz-adv-x="1261" 
d="M374 -442q-159 0 -302 45l59 252q90 -29 172 -29q104 0 150 108l12 31l-434 1112h354l246 -741l221 741h365l-404 -1147q-68 -196 -174 -284t-265 -88zM516 1225l-307 309h373l123 -309h-189z" />
    <glyph glyph-name="uni2009" unicode="&#x2009;" horiz-adv-x="53" 
 />
    <glyph glyph-name="endash" unicode="&#x2013;" horiz-adv-x="1175" 
d="M1063 389h-952v297h952v-297z" />
    <glyph glyph-name="emdash" unicode="&#x2014;" horiz-adv-x="1812" 
d="M1669 389h-1515v297h1515v-297z" />
    <glyph glyph-name="quoteleft" unicode="&#x2018;" horiz-adv-x="550" 
d="M459 1054q1 -88 -57 -142t-146 -54t-150 62t-61 174q0 215 221 387l154 -58q-82 -82 -96 -115q-15 -34 -21 -55q156 -25 156 -199z" />
    <glyph glyph-name="quoteright" unicode="&#x2019;" horiz-adv-x="575" 
d="M111 1284q0 86 57 141t145 55q89 0 149 -62t60 -175q0 -217 -217 -385l-155 57q56 57 80 93t36 79q-155 24 -155 197z" />
    <glyph glyph-name="quotesinglbase" unicode="&#x201a;" horiz-adv-x="550" 
d="M94 160q0 94 56 149t145 55q88 0 150 -62t63 -175q0 -256 -240 -418l-141 41q106 104 137 221q-68 0 -119 47q-51 48 -51 142z" />
    <glyph glyph-name="quotedblleft" unicode="&#x201c;" horiz-adv-x="1036" 
d="M492 998q0 -78 -58 -134t-145 -55q-88 0 -150 62q-61 62 -61 176q-1 255 237 415l142 -39q-106 -106 -135 -221q94 -4 142 -80q28 -46 28 -124zM790 809q-138 0 -197 106q-30 55 -30 132q0 255 238 415l141 -39q-106 -106 -137 -221q65 0 117 -45t52 -141q1 -96 -55 -152
t-129 -55z" />
    <glyph glyph-name="quotedblright" unicode="&#x201d;" horiz-adv-x="1036" 
d="M747 1462q87 0 149 -61t62 -174q1 -256 -237 -418l-141 41q106 104 135 221q-66 0 -118 45t-52 141q0 97 57 151t145 54zM262 1462q88 0 150 -61t61 -174q1 -256 -237 -418l-142 41q106 104 137 221q-69 0 -119 47q-50 48 -50 142t56 148t144 54z" />
    <glyph glyph-name="quotedblbase" unicode="&#x201e;" horiz-adv-x="1036" 
d="M545 160q0 125 98 180q44 23 101 24q58 1 106 -25t78 -81q31 -55 30 -131q1 -256 -237 -418l-141 41q106 104 135 221q-68 2 -119 48t-51 141zM236 -291l-142 41q106 104 137 221q-69 0 -119 47q-50 48 -50 142t56 149t128 55q140 1 197 -106q30 -55 30 -131
q1 -256 -237 -418z" />
    <glyph glyph-name="dagger" unicode="&#x2020;" horiz-adv-x="901" 
d="M838 809h-234v-809h-303v809h-238v268h238v357h303v-357h234v-268z" />
    <glyph glyph-name="daggerdbl" unicode="&#x2021;" horiz-adv-x="894" 
d="M602 874v-188h217v-268h-217v-418h-307v418h-219v268h219v188h-219v269h219v291h307v-291h217v-269h-217z" />
    <glyph glyph-name="bullet" unicode="&#x2022;" horiz-adv-x="616" 
d="M305 864q85 0 145 -51t60 -154q0 -67 -31 -113q-61 -92 -176 -89q-80 0 -138 53q-59 53 -59 152q0 98 58 150t141 52z" />
    <glyph glyph-name="ellipsis" unicode="&#x2026;" horiz-adv-x="1832" 
d="M1481 377q84 0 145 -52q62 -53 62 -155t-62 -156t-144 -53q-83 0 -145 53q-61 53 -61 156q0 150 131 195q35 12 74 12zM711 170q0 102 61 154t144 53q82 0 142 -51q60 -50 60 -154t-59 -158t-143 -53q-84 0 -144 53q-61 54 -61 156zM351 377q85 0 145 -51q60 -50 59 -154
q0 -104 -59 -158q-58 -54 -144 -53q-86 0 -146 53q-60 54 -60 156t60 154t145 53z" />
    <glyph glyph-name="perthousand" unicode="&#x2030;" horiz-adv-x="2451" 
d="M2052 551q-123 0 -123 -196t123 -195q68 0 94 47t27 147t-19 137q-20 36 -44 48t-58 12zM1255 160q125 0 123 168q-1 120 -25 172q-25 51 -98 51q-123 0 -123 -196t123 -195zM1698 354q0 176 98 276t256 101q158 0 260 -100q102 -99 102 -277t-100 -276t-261 -98t-258 99
t-97 275zM901 354q0 176 98 276t257 101q158 0 260 -100t102 -279q0 -116 -46 -202q-91 -169 -317 -170q-160 0 -257 99t-97 275zM397 1278q-123 0 -123 -196t123 -195q68 0 96 47q27 47 27 130t-11 125q-23 89 -112 89zM424 0h-193l979 1434h189zM43 1081q0 177 98 277
t257 100t260 -100q102 -100 102 -278t-100 -275q-100 -98 -261 -98q-162 0 -259 99t-97 275z" />
    <glyph glyph-name="guilsinglleft" unicode="&#x2039;" horiz-adv-x="684" 
d="M584 788l-236 -268l236 -272l-164 -154l-352 424l344 426z" />
    <glyph glyph-name="guilsinglright" unicode="&#x203a;" horiz-adv-x="688" 
d="M618 518l-354 -424l-162 154l234 272l-234 268l170 156z" />
    <glyph glyph-name="fraction" unicode="&#x2044;" horiz-adv-x="526" 
d="M647 1589l-620 -1880h-185l623 1880h182z" />
    <glyph glyph-name="Euro" unicode="&#x20ac;" horiz-adv-x="1492" 
d="M928 -23q-240 -1 -424 131t-248 379h-154v170h129q-2 33 -2 66l2 57h-129v172h154q92 371 455 474q113 32 249 32t266 -41t208 -112l-183 -240q-133 88 -287 88q-239 0 -327 -201h559l-35 -172h-563v-39q0 -43 4 -84h533l-35 -170h-449q45 -94 127 -145t183 -51
q182 0 323 119l168 -228q-113 -122 -307 -176q-104 -29 -217 -29z" />
    <glyph glyph-name="trademark" unicode="&#x2122;" horiz-adv-x="1925" 
d="M1876 508h-264v461l-174 -240h-92l-172 236v-457h-256v926h233l250 -363l301 363h174v-926zM858 1182h-250v-674h-266v674h-244v252h760v-252z" />
    <glyph glyph-name="oneeighth" unicode="&#x215b;" horiz-adv-x="2254" 
d="M1827 152q59 0 92 28t33 67t-16 61q-33 49 -111 48q-79 0 -111 -48q-16 -24 -16 -60t35 -66t94 -30zM1828 672q-50 0 -81 -23t-31 -61t31 -62t81 -24t80 24t30 63t-30 61t-80 22zM2187 233q0 -86 -49 -148q-96 -122 -311 -122q-160 0 -262 71q-103 72 -103 202t125 194
q-102 60 -102 172t97 180q98 68 244 68t246 -68t99 -182q0 -114 -117 -172q133 -66 133 -195zM336 799v407l-148 -45l-61 170l279 115h167v-647h181v-195h-598v195h180zM1516 1589l-621 -1880h-184l622 1880h183z" />
    <glyph glyph-name="threeeighths" unicode="&#x215c;" horiz-adv-x="2254" 
d="M1827 152q59 0 92 28t33 67q0 37 -16 61q-31 47 -98 48q-68 0 -104 -28t-36 -73q0 -43 35 -73t94 -30zM1828 672q-50 0 -81 -23t-31 -55t15 -50q31 -42 89 -42t88 24t30 63t-30 61t-80 22zM2187 234q0 -128 -102 -200t-260 -71q-158 0 -259 71q-102 72 -102 202t123 194
q-102 60 -102 172t97 180q98 68 244 68t246 -68t99 -182q0 -114 -117 -172q133 -66 133 -194zM383 1464q174 0 262 -58t88 -159q0 -133 -133 -194q160 -47 160 -199q0 -121 -104 -196q-104 -74 -280 -74t-296 82l53 176q137 -49 232 -49q145 0 145 84q0 76 -127 75h-141v166
h125q109 0 108 80q-1 74 -105 74t-208 -60l-88 156q135 96 309 96zM1516 1589l-621 -1880h-184l622 1880h183z" />
    <glyph glyph-name="fiveeighths" unicode="&#x215d;" horiz-adv-x="2254" 
d="M1827 152q59 0 92 28t33 67t-16 61q-33 49 -99 48q-67 0 -103 -28t-36 -73q0 -43 35 -73t94 -30zM1828 672q-50 0 -81 -23t-31 -61t31 -62t81 -24t80 24t30 63t-30 61t-80 22zM2187 233q0 -86 -49 -148q-96 -122 -314 -122q-217 0 -313 122q-49 62 -49 148q0 133 125 197
q-102 60 -102 172t97 180q98 68 244 68t246 -68t99 -182q0 -114 -117 -172q133 -66 133 -195zM539 887q-1 88 -117 88q-60 0 -117 -51l-155 59v461h583v-211h-352v-131q61 31 145 31t144 -32q122 -65 121 -211q1 -146 -99 -226t-272 -80t-301 69l51 174q131 -45 214 -45
q155 0 155 105zM1516 1589l-621 -1880h-184l622 1880h183z" />
    <glyph glyph-name="seveneighths" unicode="&#x215e;" horiz-adv-x="2254" 
d="M1827 152q59 0 92 28t33 74q0 45 -34 74q-34 28 -81 28q-139 -1 -139 -102q0 -42 35 -72t94 -30zM1819 672q-41 0 -72 -23t-31 -61t31 -62t81 -24t80 24t30 70t-52 66q-26 10 -67 10zM2187 233q0 -86 -49 -148q-96 -122 -311 -122q-160 0 -262 71q-103 72 -103 202
t125 194q-102 59 -102 178q0 70 44 125t123 86t175 31t174 -31t124 -86t46 -125q0 -121 -117 -180q133 -66 133 -195zM102 1229v215h664v-201l-274 -639h-254l266 625h-402zM1516 1589l-621 -1880h-184l622 1880h183z" />
    <glyph glyph-name="minus" unicode="&#x2212;" horiz-adv-x="1421" 
d="M1212 612h-1001v189h1001v-189z" />
    <glyph glyph-name="notequal" unicode="&#x2260;" horiz-adv-x="1351" 
d="M1161 541v-187h-489l-94 -258h-189l94 258h-270v187h340l76 207h-416v186h485l95 254h188l-94 -254h274v-186h-342l-78 -207h420z" />
    <glyph glyph-name="uni2322" unicode="&#x2322;" 
d="M1024 608q180 0 317 -103t170 -259h-96q-64 136 -224 197q-79 30 -189 30t-216 -63q-106 -64 -153 -164h-96q33 156 170 259t317 103z" />
    <glyph glyph-name="uni2323" unicode="&#x2323;" 
d="M1024 199q-180 0 -317 103t-170 259h96q47 -104 153 -171q106 -66 238 -66t238 66q106 67 153 171h96q-33 -156 -170 -259t-317 -103z" />
    <glyph glyph-name="uni2639" unicode="&#x2639;" 
d="M733 219q0 106 85 181t206 75t206 -75t85 -181h110q1 159 -117 269t-284 110t-284 -111t-117 -268h110zM1205 1077q-93 1 -93 -197t93 -198t93 198t-93 197zM843 1077q-93 1 -93 -197t93 -198t93 198t-93 197zM1024 1458q328 0 560 -232t232 -561t-232 -563t-560 -233
q-328 0 -560 233q-232 232 -232 562t232 562t560 232z" />
    <glyph glyph-name="whiteSmilingFace" unicode="&#x263a;" 
d="M1024 199q180 0 317 103t170 259h-96q-47 -104 -153 -171q-106 -66 -238 -66t-238 66q-106 67 -153 171h-96q33 -156 170 -259t317 -103zM1205 1036q-93 0 -93 -198t93 -197q93 -1 93 197t-93 198zM843 1036q-93 0 -93 -198t93 -197q93 -1 93 197t-93 198zM1024 1458
q328 0 560 -232t232 -561t-232 -563t-560 -233q-328 0 -560 233q-232 232 -232 562t232 562t560 232z" />
    <glyph glyph-name="onefitted" unicode="&#xf6dc;" horiz-adv-x="1271" 
d="M1163 324v-324h-981v324h314v714l-285 -108l-129 256l500 252h274v-1114h307z" />
    <glyph glyph-name="threequartersemdash" unicode="&#xf6de;" horiz-adv-x="1335" 
d="M1217 483h-1098v297h1098v-297z" />
    <glyph glyph-name="u1F600" unicode="&#x1f600;" 
d="M825 434q80 -16 166 -18v-115q-88 4 -166 27v106zM1225 328q-78 -23 -166 -27v115q86 4 166 20v-108zM1290 453q92 27 176 73q-43 -115 -176 -174v101zM760 352q-133 59 -176 174q86 -47 176 -73v-101zM1027 510q-349 0 -552 172q3 -250 151 -406t399 -156t399 158
q148 156 149 406q-197 -174 -546 -174zM1205 1036q-93 0 -93 -198t93 -197q93 -1 93 197t-93 198zM843 1036q-93 0 -93 -198t93 -197q93 -1 93 197t-93 198zM1024 1458q328 0 560 -232t232 -561t-232 -563t-560 -233q-328 0 -560 233q-232 232 -232 562t232 562t560 232z
" />
    <glyph glyph-name="u1F601" unicode="&#x1f601;" 
d="M825 434q80 -16 166 -18v-115q-88 4 -166 27v106zM1225 328q-78 -23 -166 -27v115q86 4 166 20v-108zM1290 453q92 27 176 73q-43 -115 -176 -174v101zM760 352q-133 59 -176 174q86 -47 176 -73v-101zM1027 510q-349 0 -552 172q3 -250 151 -406t399 -156t399 158
q148 156 149 406q-197 -174 -546 -174zM1248 973q56 0 69 -203h94q-4 143 -48 221t-114 78q-71 0 -115 -78t-49 -221h95q12 203 68 203zM800 973q56 0 68 -203h95q-5 143 -49 221t-114 78t-114 -78q-45 -78 -49 -221h94q13 203 69 203zM1024 1458q328 0 560 -232t232 -561
t-232 -563t-560 -233q-328 0 -560 233q-232 232 -232 562t232 562t560 232z" />
    <glyph glyph-name="u1F602" unicode="&#x1f602;" 
d="M1964 281q20 20 21 46q0 48 -53 64q-19 6 -49 11t-54 16q13 -32 19 -76t25 -61q19 -18 45 -19t46 19zM148 398q-82 -16 -84 -71q0 -26 20 -46t54 -18q52 2 65 86q6 36 16 69q-23 -10 -71 -20zM823 354v109q80 -16 168 -19v-116q-90 3 -168 26zM1059 328v116q88 2 168 19
v-109q-78 -22 -168 -26zM1294 379v100q94 29 181 76q-46 -115 -181 -176zM756 479v-100q-135 61 -181 176q87 -47 181 -76zM385 584q-20 20 -19 46t17 42q17 16 35 21t49 10t55 16q-10 -25 -15 -55t-10 -48q-12 -48 -64 -52q-25 0 -48 20zM1526 719q24 -7 72 -17t66 -28
t18 -44q1 -26 -19 -46t-47 -20t-44 18t-27 66q-9 48 -19 71zM297 629q0 -55 36 -92t82 -42t81 15q30 -102 107 -195q117 -133 293 -162q60 -11 128 -12q199 -1 337 99t191 270q35 -20 81 -15t82 42t36 92t-34 88t-132 48t-145 50l-10 -8q38 -52 53 -162q-187 -109 -457 -107
t-461 107q0 11 3 23t5 24t9 38t15 39q7 13 11 21t10 17l-8 8q-49 -35 -147 -50t-132 -48t-34 -88zM1215 1051q-67 0 -105 -74t-45 -211h86q9 188 65 188t68 -188h84q-4 137 -45 211t-108 74zM832 1051q-66 0 -107 -74t-45 -211h84q12 188 68 188t65 -188h86q-6 137 -45 211
q-40 74 -106 74zM1024 -131q-258 -1 -463 149t-287 388q-4 -16 -9 -50t-13 -70q-8 -37 -35 -59q-33 -35 -88 -35t-94 40q-39 38 -40 94t36 88q29 31 113 46t108 23q-20 88 -21 181q-1 217 105 399q106 183 290 289t398 106q215 0 397 -106q183 -106 289 -290t107 -398
q0 -92 -21 -181q31 -10 79 -17q47 -7 83 -17t66 -39t29 -84q-1 -54 -40 -94t-94 -40q-98 1 -122 98q-7 26 -13 64t-10 52q-53 -156 -164 -277q-112 -121 -264 -191t-322 -69z" />
    <glyph glyph-name="u1F603" unicode="&#x1f603;" 
d="M1025 416q227 0 409 102q-39 -135 -151 -207q-112 -71 -258 -71t-258 72t-151 206q182 -102 409 -102zM1026 502q-324 0 -510 160q0 -232 138 -376t370 -144t371 145q137 146 137 377q-182 -162 -506 -162zM1205 1098q-93 0 -93 -198t93 -198t93 198t-93 198zM843 1098
q-93 0 -93 -198t93 -198t93 198t-93 198zM1024 1458q328 0 560 -232t232 -561t-232 -563t-560 -233q-328 0 -560 233q-232 232 -232 562t232 562t560 232z" />
    <glyph glyph-name="u1F604" unicode="&#x1f604;" 
d="M1025 416q227 0 409 102q-39 -135 -151 -207q-112 -71 -258 -71t-258 72t-151 206q182 -102 409 -102zM1026 502q-324 0 -510 160q0 -232 138 -376t370 -144t371 145q137 146 137 377q-182 -162 -506 -162zM1248 973q56 0 69 -203h94q-4 143 -48 221t-114 78
q-71 0 -115 -78t-49 -221h95q12 203 68 203zM800 973q56 0 68 -203h95q-5 143 -49 221t-114 78t-114 -78q-45 -78 -49 -221h94q13 203 69 203zM1024 1458q328 0 560 -232t232 -561t-232 -563t-560 -233q-328 0 -560 233q-232 232 -232 562t232 562t560 232z" />
    <glyph glyph-name="u1F605" unicode="&#x1f605;" 
d="M1025 416q227 0 409 102q-39 -135 -151 -207q-112 -71 -258 -71t-258 72t-151 206q182 -102 409 -102zM1026 502q-324 0 -510 160q0 -232 138 -376t370 -144t371 145q137 146 137 377q-182 -162 -506 -162zM1522 838q0 18 23 53q24 35 32 55q8 -20 32 -55q23 -35 23 -57
t-15 -37q-15 -17 -35 -17q-60 -2 -60 58zM1464 835q0 -33 14 -59q30 -54 88 -53q58 0 91 32q33 33 33 73t-51 110q-50 70 -56 119h-12q-7 -49 -57 -119t-50 -103zM1248 973q56 0 69 -203h94q-4 143 -48 221t-114 78q-71 0 -115 -78t-49 -221h95q12 203 68 203zM800 973
q56 0 68 -203h95q-5 143 -49 221t-114 78t-114 -78q-45 -78 -49 -221h94q13 203 69 203zM1024 1458q328 0 560 -232t232 -561t-232 -563t-560 -233q-328 0 -560 233q-232 232 -232 562t232 562t560 232z" />
    <glyph glyph-name="u1F606" unicode="&#x1f606;" 
d="M1025 274q-146 0 -258 72t-151 207q182 -102 409 -102t409 102q-39 -135 -151 -207t-258 -72zM1532 698q-182 -162 -506 -162t-510 160q0 -231 138 -375q138 -145 370 -145t370 146t138 376zM1380 975l-41 108l-249 -149v-53l249 -166l41 108l-166 80v8zM958 934
l-249 149l-41 -108l166 -64v-8l-166 -80l41 -108l249 166v53zM1024 1458q328 0 560 -232t232 -561t-232 -563t-560 -233q-328 0 -560 233q-232 232 -232 562t232 562t560 232z" />
    <glyph glyph-name="u1F607" unicode="&#x1f607;" 
d="M1024 199q180 0 317 103t170 259h-96q-47 -104 -153 -171q-106 -66 -238 -66t-238 66q-106 67 -153 171h-96q33 -156 170 -259t317 -103zM1205 641q93 0 93 198t-93 197q-93 0 -93 -198t93 -197zM843 641q93 0 93 198t-93 197q-93 0 -93 -198t93 -197zM457 1487
q0 -37 41 -75t116 -69q188 115 410 115t410 -115q157 64 157 142q0 57 -73 106q-168 111 -535 111q-199 0 -363 -64t-163 -151zM1542 1266q275 -241 275 -621q-1 -195 -107 -379t-288 -290t-398 -107q-215 0 -398 106q-182 105 -288 289t-106 381q-1 384 274 621
q-172 96 -172 219t201 218t489 95q188 0 349 -44t251 -117t90 -154q0 -57 -45 -115t-127 -102z" />
    <glyph glyph-name="u1F608" unicode="&#x1f608;" 
d="M1024 199q180 0 317 103t170 259h-96q-47 -104 -153 -171t-238 -66q-180 0 -303 114q-57 53 -88 123h-96q33 -156 170 -259t317 -103zM1108 817q0 -193 90 -192q90 0 90 192v117l203 65l-23 88l-360 -114v-156zM760 817q0 -193 90 -192q90 0 90 192v156l-360 114l-23 -88
l203 -65v-117zM1024 -131q-215 0 -398 106q-182 105 -288 289t-107 400q0 158 58 299q57 141 162 249v414l299 -217q133 49 274 49t274 -49l299 217v-414q218 -233 220 -548q-1 -214 -107 -398t-288 -290t-398 -107z" />
    <glyph glyph-name="u1F609" unicode="&#x1f609;" 
d="M1024 199q180 0 317 103t170 259h-96q-47 -104 -153 -171q-106 -66 -238 -66t-238 66q-106 67 -153 171h-96q23 -102 91 -185t173 -130q104 -47 223 -47zM1372 950l-41 99l-215 -134v-79l215 -154l41 98l-141 94zM844 1075q-92 1 -92 -195t92 -196t92 196t-92 195z
M1024 1458q328 0 560 -232t232 -561t-232 -563t-560 -233q-328 0 -560 233q-232 232 -232 562t232 562t560 232z" />
    <glyph glyph-name="u1F60A" unicode="&#x1f60a;" 
d="M1024 350q-132 0 -238 67t-153 171h-96q33 -156 170 -259t317 -104q119 0 223 47t173 130t91 186h-96q-47 -104 -153 -171t-238 -67zM1248 973q56 0 69 -203h94q-4 143 -48 221t-114 78q-71 0 -115 -78t-49 -221h95q12 203 68 203zM800 973q56 0 68 -203h95
q-5 143 -49 221t-114 78t-114 -78q-45 -78 -49 -221h94q13 203 69 203zM1024 1458q328 0 560 -232t232 -561t-232 -563t-560 -233q-328 0 -560 233q-232 232 -232 562t232 562t560 232z" />
    <glyph glyph-name="u1F60B" unicode="&#x1f60b;" 
d="M1321 264q-51 -37 -131 74q74 27 131 76q31 -74 30 -105t-30 -45zM1024 412q-113 0 -200 56t-113 142h-105q29 -129 146 -215t272 -86q43 0 86 8q136 -206 250 -122q59 33 66 95t-48 185q47 61 64 135h-105q-45 -137 -205 -183q-52 -15 -108 -15zM1248 973q56 0 69 -203
h94q-4 143 -48 221t-114 78q-71 0 -115 -78t-49 -221h95q12 203 68 203zM800 973q56 0 68 -203h95q-5 143 -49 221t-114 78t-114 -78q-45 -78 -49 -221h94q13 203 69 203zM1024 1458q328 0 560 -232t232 -561t-232 -563t-560 -233q-328 0 -560 233q-232 232 -232 562
t232 562t560 232z" />
    <glyph glyph-name="u1F60C" unicode="&#x1f60c;" 
d="M1024 199q180 0 317 103t170 259h-96q-47 -104 -153 -171q-106 -66 -238 -66t-238 66q-106 67 -153 171h-96q33 -156 170 -259t317 -103zM1248 784q-56 0 -68 203h-95q5 -143 49 -221t114 -78t114 78q45 78 49 221h-94q-13 -203 -69 -203zM800 784q-56 0 -69 203h-94
q4 -143 48 -221t114 -78q71 0 115 78t49 221h-95q-12 -203 -68 -203zM1024 1458q328 0 560 -232t232 -561t-232 -563t-560 -233q-328 0 -560 233q-232 232 -232 562t232 562t560 232z" />
    <glyph glyph-name="u1F60E" unicode="&#x1f60e;" 
d="M1024 199q180 0 317 103t170 259h-96q-47 -104 -153 -171t-238 -66q-204 0 -330 142q-39 44 -61 95h-96q23 -102 91 -185t173 -130q104 -47 223 -47zM694 659h105q61 0 89 24t46 77l59 162h64l57 -162q14 -35 26 -54q30 -45 109 -47h105q76 0 112 33t58 105l39 125h123
l-54 108h-1229l-53 -108h137l37 -125q20 -72 58 -105t112 -33zM1024 1458q328 0 560 -232t232 -561t-232 -563t-560 -233q-328 0 -560 233q-232 232 -232 562t232 562t560 232z" />
    <glyph glyph-name="u1F60F" unicode="&#x1f60f;" 
d="M1024 340v-121q124 0 234 55q110 54 183 152t95 217h-123q-33 -133 -141 -218t-248 -85zM1438 735v123h-324v-123h324zM932 735v123h-324v-123h324zM1024 1458q328 0 560 -232t232 -561t-232 -563t-560 -233q-328 0 -560 233q-232 232 -232 562t232 562t560 232z" />
    <glyph glyph-name="u1F610" unicode="&#x1f610;" 
d="M1432 358v123h-816v-123h816zM1205 1036q-93 0 -93 -198t93 -197q93 -1 93 197t-93 198zM843 1036q-93 0 -93 -198t93 -197q93 -1 93 197t-93 198zM1024 1458q328 0 560 -232t232 -561t-232 -563t-560 -233q-328 0 -560 233q-232 232 -232 562t232 562t560 232z" />
    <glyph glyph-name="u1F611" unicode="&#x1f611;" 
d="M1432 358v123h-816v-123h816zM1438 735v123h-324v-123h324zM932 735v123h-324v-123h324zM1024 1458q328 0 560 -232t232 -561t-232 -563t-560 -233q-328 0 -560 233q-232 232 -232 562t232 562t560 232z" />
    <glyph glyph-name="u1F612" unicode="&#x1f612;" 
d="M1432 358v123h-816v-123h816zM1475 985h-414v-94h227q0 -199 93 -199t94 199v94zM946 985h-414v-94h228q0 -199 93 -199t93 199v94zM1024 1458q328 0 560 -232t232 -561t-232 -563t-560 -233q-328 0 -560 233q-232 232 -232 562t232 562t560 232z" />
    <glyph glyph-name="u1F613" unicode="&#x1f613;" 
d="M1432 248v123h-816v-123h816zM1606 580q0 -28 -20 -46q-20 -20 -50 -20q-31 0 -50 20q-38 39 -8 88q12 20 30 46t28 51q12 -25 41 -68t29 -71zM1395 569q0 -49 41 -89t100 -40t100 40t41 83q0 71 -61 145t-72 150h-14q-6 -35 -22 -69t-82 -127q-31 -44 -31 -93zM1110 872
q0 -195 90 -194q90 0 90 194v58l183 -90l24 88l-387 190v-246zM938 872v246l-385 -190l22 -88l183 90v-58q0 -195 90 -194q90 0 90 194zM1024 1458q328 0 560 -232t232 -561t-232 -563t-560 -233q-328 0 -560 233q-232 232 -232 562t232 562t560 232z" />
    <glyph glyph-name="u1F614" unicode="&#x1f614;" 
d="M1432 317v123h-816v-123h816zM1249 1008q-71 0 -115 -78t-49 -221h95q12 203 69 202q55 0 68 -202h94q-4 143 -48 221t-114 78zM800 1008q-70 0 -114 -78q-45 -78 -49 -221h94q12 203 68 202q57 0 69 -202h95q-5 143 -49 221t-114 78zM1024 1458q328 0 560 -232t232 -561
t-232 -563t-560 -233q-328 0 -560 233q-232 232 -232 562t232 562t560 232z" />
    <glyph glyph-name="u1F615" unicode="&#x1f615;" 
d="M791 186q248 264 700 254l-47 129q-453 8 -701 -256zM1292 911h-196v-73q0 -125 98 -125t98 125v73zM837 1016q-81 0 -81 -174t81 -174t81 174t-81 174zM1024 1458q328 0 560 -232t232 -561t-232 -563t-560 -233q-328 0 -560 233q-232 232 -232 562t232 562t560 232z" />
    <glyph glyph-name="u1F616" unicode="&#x1f616;" 
d="M709 498q61 0 102 -56t68 -84q55 -57 134 -57q79 1 105 19q64 45 107 110q44 65 114 68q127 0 179 -150l96 29q-24 89 -68 148q-78 104 -190 108q-111 4 -167 -62q-24 -27 -44 -54q-47 -66 -119 -66t-106 45q-78 97 -124 116q-99 39 -182 4q-130 -51 -180 -239l96 -29
q51 150 179 150zM1430 799l47 127l-363 131l-47 -127zM940 1057l-362 -131l45 -127l362 131zM1024 1458q328 0 560 -232t232 -561t-232 -563t-560 -233q-328 0 -560 233q-232 232 -232 562t232 562t560 232z" />
    <glyph glyph-name="u1F61B" unicode="&#x1f61b;" 
d="M1024 193q-59 0 -90 58t-43 200h264q-12 -141 -42 -199t-89 -59zM1430 451v102h-812v-102h170q18 -358 236 -361q100 0 162 89q61 89 71 272h173zM1205 1036q-93 0 -93 -198t93 -197q93 -1 93 197t-93 198zM843 1036q-93 0 -93 -198t93 -197q93 -1 93 197t-93 198z
M1024 1458q328 0 560 -232t232 -561t-232 -563t-560 -233q-328 0 -560 233q-232 232 -232 562t232 562t560 232z" />
    <glyph glyph-name="u1F61C" unicode="&#x1f61c;" 
d="M1024 193q-59 0 -90 58t-41 200h262q-12 -141 -42 -199t-89 -59zM1430 451v102h-812v-102h173q16 -358 233 -361q100 0 162 89q61 89 71 272h173zM1372 950l-41 99l-215 -134v-79l215 -154l41 98l-141 94zM844 1075q-92 1 -92 -195t92 -196t92 196t-92 195zM1024 1458
q328 0 560 -232t232 -561t-232 -563t-560 -233q-328 0 -560 233q-232 232 -232 562t232 562t560 232z" />
    <glyph glyph-name="u1F61D" unicode="&#x1f61d;" 
d="M1024 193q-59 0 -90 58t-41 200h262q-12 -141 -42 -199t-89 -59zM1430 451v102h-812v-102h173q16 -358 233 -361q100 0 162 89q61 89 71 272h173zM1380 940l-41 109l-249 -150v-53l249 -166l41 108l-166 80v9zM958 899l-249 150l-41 -109l166 -63v-9l-166 -80l41 -108
l249 166v53zM1024 1458q328 0 560 -232t232 -561t-232 -563t-560 -233q-328 0 -560 233q-232 232 -232 562t232 562t560 232z" />
    <glyph glyph-name="u1F61E" unicode="&#x1f61e;" 
d="M1024 432q132 0 238 -63t153 -164h96q-33 156 -170 259t-317 103t-317 -103t-170 -259h96q47 99 153 163t238 64zM1143 846q0 -184 86 -184t88 182l78 -43v127l-297 157v-120l45 -25v-94zM819 662q86 0 86 184v94l45 25v120l-297 -157v-127l78 43q2 -182 88 -182z
M1024 1458q328 0 560 -232t232 -561t-232 -563t-560 -233q-328 0 -560 233q-232 232 -232 562t232 562t560 232z" />
    <glyph glyph-name="u1F61F" unicode="&#x1f61f;" 
d="M1178 225q-26 135 -154 135q-61 0 -101 -36t-53 -99h64q20 61 90 61t90 -61h64zM1004 453q262 0 339 -158h93q-35 115 -143 189q-107 74 -269 73q-162 0 -270 -74t-142 -188h93q35 70 115 114t184 44zM1143 887q0 -184 88 -185q84 0 86 183l78 -43v127l-297 157v-120
l45 -25v-94zM905 887v94l45 25v120l-297 -157v-127l78 43q2 -182 86 -183q88 0 88 185zM1024 1458q328 0 560 -232t232 -561t-232 -563t-560 -233q-328 0 -560 233q-232 232 -232 562t232 562t560 232z" />
    <glyph glyph-name="u1F620" unicode="&#x1f620;" 
d="M1024 473q132 0 238 -63t153 -164h96q-20 102 -90 185t-174 130t-223 47q-180 0 -317 -103t-170 -259h96q47 100 153 164t238 63zM1108 817q0 -193 90 -192q90 0 90 192v117l203 65l-23 88l-360 -114v-156zM760 817q0 -193 90 -192q90 0 90 192v156l-360 114l-23 -88
l203 -65v-117zM1024 1458q328 0 560 -232t232 -561t-232 -563t-560 -233q-328 0 -560 233q-232 232 -232 562t232 562t560 232z" />
    <glyph glyph-name="u1F621" unicode="&#x1f621;" 
d="M1178 225q-26 135 -154 135q-61 0 -101 -36t-53 -99h64q20 61 90 61t90 -61h64zM1024 453q125 0 205 -44t114 -114h93q-35 115 -143 189q-107 74 -269 73q-162 0 -270 -74t-142 -188h93q35 70 115 114t204 44zM1108 817q0 -193 90 -192q90 0 90 192v117l203 65l-23 88
l-360 -114v-156zM760 817q0 -193 90 -192q90 0 90 192v156l-360 114l-23 -88l203 -65v-117zM1024 1458q328 0 560 -232t232 -561t-232 -563t-560 -233q-328 0 -560 233q-232 232 -232 562t232 562t560 232z" />
    <glyph glyph-name="u1F622" unicode="&#x1f622;" 
d="M1004 309q98 0 168 -18q143 -37 182 -127h116q-31 121 -155 201q-125 79 -291 79t-291 -80t-155 -200h116q29 63 120 104q92 41 190 41zM1256 545q-80 -1 -80 77q0 20 30 66q31 45 41 72q12 -27 43 -72t31 -73q-1 -28 -21 -49t-44 -21zM1237 469q101 0 136 66t12 122
q-12 34 -42 74q-30 41 -40 57q94 53 104 250h-94q-14 -160 -75 -159q-60 0 -73 159h-94q8 -215 117 -258q-4 -6 -29 -40t-41 -64t-16 -76q0 -47 42 -89t93 -42zM811 772q74 0 118 69t48 197h-94q-12 -160 -73 -159q-60 0 -75 159h-94q6 -130 51 -198t119 -68zM1024 1458
q328 0 560 -232t232 -561t-232 -563t-560 -233q-328 0 -560 233q-232 232 -232 562t232 562t560 232z" />
    <glyph glyph-name="u1F623" unicode="&#x1f623;" 
d="M1024 473q132 0 238 -63t153 -164h96q-20 102 -90 185t-174 130t-223 47q-180 0 -317 -103t-170 -259h96q47 100 153 164t238 63zM1380 940l-41 109l-249 -150v-53l249 -166l41 108l-166 80v9zM958 899l-249 150l-41 -109l166 -63v-9l-166 -80l41 -108l249 166v53z
M1024 1458q328 0 560 -232t232 -561t-232 -563t-560 -233q-328 0 -560 233q-232 232 -232 562t232 562t560 232z" />
    <glyph glyph-name="u1F624" unicode="&#x1f624;" 
d="M1505 -213l-6 37q135 -8 150 -94q17 -76 -44 -115q-17 -10 -49 -15t-61 15q0 -47 -26 -76t-64 -35q-90 -14 -123 74q-16 -29 -61 -37t-79 16t-44 74q-14 82 108 142l6 -37q-66 -45 -56 -97t75 -45q25 2 35 29l30 -2q27 -71 99 -61q71 14 71 92l29 12q16 -18 44 -15t43 23
t9 49q-8 45 -75 64h-5zM834 -264l8 37q123 -55 108 -140q-10 -51 -44 -75t-78 -17q-44 6 -62 37q-33 -87 -123 -72q-39 6 -65 36t-25 77q-25 -25 -70 -17t-69 44q-24 35 -15 86q14 82 150 94l-6 -37q-25 -6 -37 -10q-12 -3 -28 -19t-22 -42q-5 -26 10 -45t41 -24t46 17
l29 -12q0 -39 20 -64t51 -28q70 -12 99 61l30 2q10 -25 37 -30q59 -11 74 51q4 36 -17 56q-22 21 -42 34zM1067 887l27 -94l323 96l-28 92zM631 889l325 -96l27 94l-324 94zM231 662q-1 218 105 401t290 289t398 106q215 0 397 -106q183 -106 289 -290t106 -398t-107 -398
q-108 -184 -288 -291l-96 379q55 -37 86 -88h92q-47 143 -211 215l-43 172l-41 -8l37 -145q-31 10 -63 18l-19 119l-39 -6l15 -107q-55 8 -113 8t-108 -6l14 105l-39 6l-19 -119q-33 -6 -61 -14l35 141l-41 8l-41 -168q-172 -72 -221 -219h92q33 55 96 94l-98 -389
q-184 105 -294 289t-110 402zM1376 -47l45 22l68 -264l-51 -8zM1376 -47q-47 -25 -98 -41l-78 496q39 -10 72 -25zM1026 -131q-104 0 -201 25l-32 -224l-52 11l37 227l47 -14l76 524q57 10 125 10t129 -12l76 -518l47 14l37 -231l-51 -11l-33 228q-101 -29 -205 -29z
M778 -92q-51 16 -100 41l-60 -246l-51 8l68 260l43 -22l106 438q33 12 72 23z" />
    <glyph glyph-name="u1F625" unicode="&#x1f625;" 
d="M1024 473q204 0 330 -136q39 -42 61 -91h96q-23 102 -91 185q-69 83 -173 130t-223 47q-180 0 -317 -103t-170 -259h96q47 100 153 164t238 63zM1626 622q0 -28 -19 -48t-51 -19q-32 0 -50 19q-19 19 -19 48q-1 29 29 71t40 67q12 -25 41 -68q29 -42 29 -70zM1556 481
q59 0 101 40q41 40 41 87t-29 92q-29 44 -63 96t-41 103h-15q-11 -77 -72 -149q-61 -73 -62 -131t40 -98t100 -40zM1436 864l-308 168l-53 -90l309 -168zM973 942l-53 90l-308 -168l52 -90zM1024 1458q328 0 560 -232t232 -561t-232 -563t-560 -233q-328 0 -560 233
q-232 232 -232 562t232 562t560 232z" />
    <glyph glyph-name="u1F626" unicode="&#x1f626;" 
d="M739 317q17 107 99 163t186 56t185 -56t100 -163h-570zM1024 645q-176 0 -286 -116t-128 -314h828q-18 199 -128 315t-286 115zM1205 1145q-93 0 -93 -198t93 -197q93 0 93 198t-93 197zM843 1145q-93 0 -93 -198t93 -197q93 0 93 198t-93 197zM1024 1458q328 0 560 -232
t232 -561t-232 -563t-560 -233q-328 0 -560 233q-232 232 -232 562t232 562t560 232z" />
    <glyph glyph-name="u1F627" unicode="&#x1f627;" 
d="M1002 510q191 0 291 -103q52 -54 75 -133q-141 41 -344 41t-344 -41q33 116 126 176q92 60 196 60zM1024 623q-209 -1 -333 -139t-126 -357q180 82 459 82q143 0 276 -22t183 -60q0 143 -56 255q-55 112 -159 176t-244 65zM1110 858q0 -195 90 -194q90 0 90 194v57
l183 -90l24 88l-387 191v-246zM938 858v246l-385 -191l22 -88l183 90v-57q0 -195 90 -194q90 0 90 194zM1024 1458q328 0 560 -232t232 -561t-232 -563t-560 -233q-328 0 -560 233q-232 232 -232 562t232 562t560 232z" />
    <glyph glyph-name="u1F628" unicode="&#x1f628;" 
d="M1024 559q104 0 185 -56t100 -163h-570q17 106 99 162t186 57zM1024 668q-176 0 -286 -116t-128 -314h828q-18 198 -128 314t-286 116zM1287 946q-22 0 -36 -15t-14 -35t14 -36t36 -16t37 15t15 35t-15 36t-37 16zM761 946q-22 0 -37 -15t-15 -33t11 -36t37 -18t40 15
t14 35t-14 36t-36 16zM1287 1026q54 0 93 -38t39 -93t-39 -93t-93 -38t-93 38t-39 93t39 93t93 38zM761 1026q54 0 93 -38t39 -93t-39 -93t-84 -38t-76 17q-65 36 -65 102q0 67 39 105t93 38zM1288 1102q-86 0 -146 -60t-60 -147q0 -86 60 -146q60 -61 146 -61t146 60
t61 147q-1 87 -61 147t-146 60zM760 1102q-86 0 -146 -60t-61 -147q0 -86 60 -146q61 -61 147 -61t146 60t61 147q-1 87 -61 147t-146 60zM1024 1458q328 0 560 -232t232 -561t-232 -563t-560 -233q-328 0 -560 233q-232 232 -232 562t232 562t560 232z" />
    <glyph glyph-name="u1F62E" unicode="&#x1f62e;" 
d="M1122 174q130 0 192 102q28 47 28 118t-60 131q-59 61 -145 61q-85 0 -145 -60t-60 -146q0 -85 59 -146q61 -60 131 -60zM1144 1036q-93 0 -93 -198t93 -197q93 -1 93 197t-93 198zM781 1036q-93 0 -93 -198t93 -197q93 -1 93 197t-93 198zM1024 1458q328 0 560 -232
t232 -561t-232 -563t-560 -233q-328 0 -560 233q-232 232 -232 562t232 562t560 232z" />
    <glyph glyph-name="u1F633" unicode="&#x1f633;" 
d="M756 424q0 -111 79 -190q79 -78 189 -78t188 78t78 190h-534zM1348 498q24 -41 60 -63t99 -29q118 16 160 92h-319zM381 498q25 -41 61 -63t99 -29q118 15 159 92h-319zM1321 594q0 -22 4 -43h365q6 20 6 43t-6 45h-363q-6 -23 -6 -45zM354 594q0 -22 4 -43h365
q6 20 6 43t-6 45h-363q-6 -23 -6 -45zM1508 778q-104 0 -160 -88h319q-55 88 -159 88zM542 778q-103 0 -159 -88h317q-55 88 -158 88zM1444 991l-307 113l-41 -115l307 -112zM909 1104l-307 -113l43 -114l307 112zM1024 1458q328 0 560 -232t232 -561t-232 -563t-560 -233
q-328 0 -560 233q-232 232 -232 562t232 562t560 232z" />
    <glyph glyph-name="b.sup" horiz-adv-x="937" 
d="M458 952q64 0 99 48t35 122t-33 112t-84 38q-78 0 -121 -78v-195q40 -47 104 -47zM354 1688v-291q86 80 203 80t200 -89t83 -262q0 -100 -30 -179t-78 -122q-91 -82 -200 -84q-139 0 -208 93h-5l-36 -80h-170v934h241z" />
    <glyph glyph-name="T_h" horiz-adv-x="2414" 
d="M1604 1434v-488q133 152 327 152q145 0 255 -98t110 -259v-741h-338v653q0 72 -37 108t-92 36q-125 0 -223 -150v-647h-338v1112h-414v-1112h-362v1112h-406v322h1518z" />
    <glyph glyph-name="f_f_j" horiz-adv-x="2013" 
d="M1884 1073v-1149q0 -104 -51 -190t-144 -136t-235 -50t-246 57l68 254q61 -21 133 -21q73 0 105 28t32 101v817h-346v-784h-340v784h-342v-784h-340v784h-137v289h137v137q0 164 104 264t302 101q139 0 213 -39l-49 -238q-53 14 -113 15q-117 0 -117 -117v-123h342v119
q0 188 112 278t292 90t287 -48q40 -17 89 -46l-120 -229q-84 61 -179 61q-141 0 -141 -120v-105h684z" />
    <glyph glyph-name="f_i" horiz-adv-x="1308" 
d="M1180 1073v-1073h-338v784h-324v-784h-340v784h-137v289h137v119q0 188 111 278t292 90t288 -48q40 -17 89 -46l-120 -229q-84 61 -181 61q-139 0 -139 -120v-105h662z" />
    <glyph glyph-name="f_j" horiz-adv-x="1347" 
d="M1219 1073v-1149q0 -160 -114 -268t-286 -109q-172 0 -274 58l65 254q63 -21 134 -21t104 28t33 101v817h-363v-784h-340v784h-137v289h137v119q0 188 111 278t292 90t288 -48q40 -17 89 -46l-120 -229q-84 61 -181 61q-139 0 -139 -120v-105h701z" />
    <glyph glyph-name="f_l" horiz-adv-x="1398" 
d="M174 1073v107q0 170 133 282t373 113q539 0 539 -459v-1116h-345v1114q0 195 -180 195t-180 -166v-70h221v-282h-221v-791h-340v791h-137v282h137z" />
    <glyph glyph-name="f_t" horiz-adv-x="1595" 
d="M1214 -35q-172 0 -252 75t-79 241v503h-365v-784h-340v784h-137v289h137v137q0 164 104 264t302 101q139 0 213 -39l-49 -238q-53 14 -113 15q-117 0 -117 -117v-123h365v111l143 170h199v-281h260v-289h-260v-432q0 -84 80 -84q63 0 137 25l80 -238q-136 -90 -308 -90z
" />
    <glyph glyph-name="a.sc" horiz-adv-x="1308" 
d="M791 420l-138 405l-137 -405h275zM870 182h-434l-59 -182h-320l428 1167h336l432 -1167h-321z" />
    <glyph glyph-name="aacute.sc" horiz-adv-x="1308" 
d="M791 420l-138 405l-137 -405h275zM870 182h-434l-59 -182h-320l428 1167h336l432 -1167h-321zM739 1298h-190l123 310h372z" />
    <glyph glyph-name="abreve.sc" horiz-adv-x="1308" 
d="M791 420l-138 405l-137 -405h275zM870 182h-434l-59 -182h-320l428 1167h336l432 -1167h-321zM648 1257q-130 0 -222 72t-102 223h151q25 -121 171 -121t173 121h150q-11 -152 -101 -224t-220 -71z" />
    <glyph glyph-name="acircumflex.sc" horiz-adv-x="1308" 
d="M791 420l-138 405l-137 -405h275zM870 182h-434l-59 -182h-320l428 1167h336l432 -1167h-321zM557 1313h-256l246 297h196l236 -297h-246l-88 112z" />
    <glyph glyph-name="adieresis.sc" horiz-adv-x="1308" 
d="M791 420l-138 405l-137 -405h275zM870 182h-434l-59 -182h-320l428 1167h336l432 -1167h-321zM997 1458q0 -76 -40 -112t-102 -37q-62 0 -104 37q-42 36 -42 112t41 113t104 37t103 -37t40 -113zM440 1608q64 0 104 -37t40 -113t-42 -112t-102 -37q-61 0 -103 37
q-42 36 -42 112t41 113t104 37z" />
    <glyph glyph-name="agrave.sc" horiz-adv-x="1308" 
d="M791 420l-138 405l-137 -405h275zM870 182h-434l-59 -182h-320l428 1167h336l432 -1167h-321zM553 1298l-307 310h372l123 -310h-188z" />
    <glyph glyph-name="amacron.sc" horiz-adv-x="1308" 
d="M791 420l-138 405l-137 -405h275zM870 182h-434l-59 -182h-320l428 1167h336l432 -1167h-321zM938 1362h-578v160h578v-160z" />
    <glyph glyph-name="aogonek.sc" horiz-adv-x="1308" 
d="M791 420l-138 405l-137 -405h275zM909 -232q0 66 40 119t128 113h-145l-62 182h-434l-59 -182h-320l428 1167h336l432 -1167h-18q-106 -117 -107 -197q0 -94 127 -106l-47 -182q-61 4 -115 21q-184 58 -184 232z" />
    <glyph glyph-name="aring.sc" horiz-adv-x="1308" 
d="M791 420l-138 405l-137 -405h275zM870 182h-434l-59 -182h-320l428 1167h336l432 -1167h-321zM704 1508q-20 20 -61 20t-63 -43q-21 -43 15 -81q19 -22 54 -22t54 22t19 52q2 32 -18 52zM664 1278q-129 0 -180 89q-22 41 -22 103t51 112q50 50 136 50t137 -50
q52 -50 52 -126t-52 -127q-50 -51 -122 -51z" />
    <glyph glyph-name="atilde.sc" horiz-adv-x="1308" 
d="M791 420l-138 405l-137 -405h275zM870 182h-434l-59 -182h-320l428 1167h336l432 -1167h-321zM804 1323q-70 0 -148 40t-111 40q-70 0 -105 -96l-161 88q23 109 87 159q107 84 229 31q48 -21 85 -41t59 -20q58 0 99 102l180 -74q-29 -106 -87 -168q-57 -62 -127 -61z" />
    <glyph glyph-name="ae.sc" horiz-adv-x="1732" 
d="M844 455v372l-189 -372h189zM1182 897v-168h401v-268h-401v-191h471v-270h-809v184h-326l-94 -184h-367l635 1167h961v-270h-471z" />
    <glyph glyph-name="b.sc" horiz-adv-x="1177" 
d="M748 377q0 114 -136 112h-151v-241h141q80 0 113 31t33 98zM461 686h143q117 4 117 110t-117 107h-143v-217zM637 1167q407 0 407 -295q0 -86 -42 -158t-125 -114q121 -26 175 -92t54 -180q0 -160 -116 -244t-308 -84h-543v1167h498z" />
    <glyph glyph-name="c.sc" horiz-adv-x="1132" 
d="M74 612q0 174 82 312q158 268 516 268q236 0 397 -127l-143 -225q-86 63 -189.5 63t-165 -31.5t-99.5 -104.5t-38 -181t38 -182q75 -146 253 -146q120 0 229 76l133 -225q-139 -133 -405 -133t-437 154q-171 155 -171 482z" />
    <glyph glyph-name="cacute.sc" horiz-adv-x="1132" 
d="M74 612q0 174 82 312q158 268 516 268q236 0 397 -127l-143 -225q-86 63 -190 63t-164 -32q-62 -33 -100 -105t-38 -178q0 -162 80 -246t206 -84t234 76l133 -225q-139 -133 -423 -134q-123 0 -229 39q-361 135 -361 598zM741 1298h-190l123 310h373z" />
    <glyph glyph-name="ccaron.sc" horiz-adv-x="1132" 
d="M74 612q0 174 82 312q158 268 516 268q236 0 397 -127l-143 -225q-86 63 -190 63t-164 -32q-62 -33 -100 -105t-38 -178q0 -162 80 -246t206 -84t234 76l133 -225q-139 -133 -423 -134q-123 0 -229 39q-361 135 -361 598zM547 1311l-244 297h254l88 -115l92 115h242
l-234 -297h-198z" />
    <glyph glyph-name="ccedilla.sc" horiz-adv-x="1132" 
d="M874 -273q0 -89 -80 -154t-206 -75l-58 135q89 16 117 41q29 25 29 49q0 44 -37 46q-20 0 -39 -13l-108 94l65 134q-215 30 -349 186t-134 418q0 197 82 336q158 268 516 268q236 0 397 -127l-143 -225q-86 63 -190 63t-164 -32q-62 -33 -100 -105t-38 -178
q0 -162 80 -246t206 -84t234 76l133 -225q-128 -124 -378 -134l-43 -81q100 12 154 -33t54 -134z" />
    <glyph glyph-name="cdotaccent.sc" horiz-adv-x="1132" 
d="M74 612q0 174 82 312q158 268 516 268q236 0 397 -127l-143 -225q-86 63 -190 63t-164 -32q-62 -33 -100 -105t-38 -180t38 -182q74 -146 253 -146q120 0 229 76l133 -225q-139 -133 -423 -134q-123 0 -229 39q-361 135 -361 598zM653 1612q70 0 118 -40t48 -120
t-48 -120t-118 -40q-69 0 -117 40t-49 120q0 80 48 120t118 40z" />
    <glyph glyph-name="d.sc" horiz-adv-x="1284" 
d="M477 895v-625h107q285 0 284 322q0 303 -284 303h-107zM139 1167h469q279 0 441.5 -142t162.5 -438t-161.5 -441.5t-442.5 -145.5h-469v1167z" />
    <glyph glyph-name="eth.sc" horiz-adv-x="1284" 
d="M477 270h107q285 0 284 322q0 303 -284 303h-107v-156h187v-276h-187v-193zM139 1167h469q279 0 442 -142q162 -142 162 -438t-161 -442q-162 -145 -443 -145h-469v463h-174v276h174v428z" />
    <glyph glyph-name="dcaron.sc" horiz-adv-x="1284" 
d="M477 270h107q285 0 284 322q0 303 -284 303h-107v-625zM139 1167h469q279 0 442 -142q162 -142 162 -438t-161 -442q-162 -145 -443 -145h-469v1167zM514 1313l-246 295h256l88 -115l90 115h244l-233 -295h-199z" />
    <glyph glyph-name="dcroat.sc" horiz-adv-x="1284" 
d="M477 895v-625h107q285 0 284 322q0 303 -284 303h-107zM139 1167h469q279 0 442 -142q162 -142 162 -438t-161 -442q-162 -145 -443 -145h-469v1167zM905 1362h-575v160h575v-160z" />
    <glyph glyph-name="e.sc" horiz-adv-x="1044" 
d="M965 897h-488v-174h418v-270h-418v-183h488v-270h-826v1167h826v-270z" />
    <glyph glyph-name="eacute.sc" horiz-adv-x="1044" 
d="M965 897h-488v-174h418v-270h-418v-183h488v-270h-826v1167h826v-270zM655 1298h-190l123 310h373z" />
    <glyph glyph-name="ebreve.sc" horiz-adv-x="1044" 
d="M965 897h-488v-174h418v-270h-418v-183h488v-270h-826v1167h826v-270zM564 1257q-130 0 -222 72t-102 223h151q25 -121 171 -121t173 121h150q-11 -152 -101 -224t-220 -71z" />
    <glyph glyph-name="ecaron.sc" horiz-adv-x="1044" 
d="M477 897v-174h418v-270h-418v-183h488v-270h-826v1167h826v-270h-488zM461 1311l-244 297h254l88 -115l92 115h242l-234 -297h-198z" />
    <glyph glyph-name="ecircumflex.sc" horiz-adv-x="1044" 
d="M477 897v-174h418v-270h-418v-183h488v-270h-826v1167h826v-270h-488zM473 1313h-256l246 297h196l236 -297h-246l-88 112z" />
    <glyph glyph-name="edieresis.sc" horiz-adv-x="1044" 
d="M965 897h-488v-174h418v-270h-418v-183h488v-270h-826v1167h826v-270zM625 1458q1 76 41 113t104 37t103 -37q40 -37 40 -101t-20 -97q-38 -64 -111 -64t-115 37q-42 36 -42 112zM211 1470q1 64 41 101t104 37t104 -37t40 -101t-20 -98q-37 -63 -122 -63q-41 0 -73 15
q-74 33 -74 146z" />
    <glyph glyph-name="edotaccent.sc" horiz-adv-x="1044" 
d="M965 897h-488v-174h418v-270h-418v-183h488v-270h-826v1167h826v-270zM567 1612q70 0 118 -40t48 -120t-48 -120t-118 -40q-71 0 -117 40t-47 120q0 80 47 120t117 40z" />
    <glyph glyph-name="egrave.sc" horiz-adv-x="1044" 
d="M965 897h-488v-174h418v-270h-418v-183h488v-270h-826v1167h826v-270zM657 1298h-188l-307 310h373z" />
    <glyph glyph-name="emacron.sc" horiz-adv-x="1044" 
d="M965 897h-488v-174h418v-270h-418v-183h488v-270h-826v1167h826v-270zM854 1362h-578v160h578v-160z" />
    <glyph glyph-name="eogonek.sc" horiz-adv-x="1044" 
d="M477 897v-174h418v-270h-418v-183h488v-270h-267q-90 -104 -90 -178q0 -94 127 -107l-47 -182q-176 13 -258 116q-41 52 -41 125t34 123t107 103h-391v1167h826v-270h-488z" />
    <glyph glyph-name="f.sc" horiz-adv-x="983" 
d="M948 897h-487v-260h426v-270h-426v-367h-322v1167h809v-270z" />
    <glyph glyph-name="g.sc" horiz-adv-x="1206" 
d="M674 899q-279 0 -279 -317.5t267 -317.5q78 0 147 42q18 11 29 24v133h-232v231h527v-497q-65 -122 -263 -188q-108 -36 -229 -36t-220 35t-180 106.5t-128 193.5t-47 279q0 313 170 459t406 146t445 -119l-141 -248q-119 74 -272 74z" />
    <glyph glyph-name="gbreve.sc" horiz-adv-x="1206" 
d="M1133 694v-497q-45 -88 -177 -156t-321 -68q-234 0 -394 142q-81 71 -128 193t-47 279t46 275q85 217 314 294q104 36 227 36q225 0 434 -119l-141 -248q-119 74 -272 74q-279 0 -279 -311q0 -160 68 -242t199 -82q75 0 136 35q26 14 40 31v133h-232v231h527zM642 1257
q-130 0 -221 72t-104 223h154q23 -121 169 -121t173 121h150q-11 -152 -101 -224t-220 -71z" />
    <glyph glyph-name="gcommaaccent.sc" horiz-adv-x="1206" 
d="M549 -471v356h252l-111 -356h-141zM1133 694v-497q-65 -122 -263 -188q-110 -36 -230 -36t-219 35q-222 78 -308 300q-47 122 -47 279t46 275q85 217 314 294q104 36 227 36q225 0 434 -119l-141 -248q-119 74 -272 74q-279 0 -279 -311q0 -160 68 -242t199 -82
q58 0 107 21t69 45v133h-232v231h527z" />
    <glyph glyph-name="gdotaccent.sc" horiz-adv-x="1206" 
d="M1133 694v-497q-45 -88 -177 -156t-319 -68q-186 0 -334 93q-239 150 -237 536q0 142 46 260q85 217 314 294q104 36 227 36q225 0 434 -119l-141 -248q-119 74 -272 74q-279 0 -279 -311q0 -160 68 -242t199 -82q55 0 104 20t72 46v133h-232v231h527zM645 1612
q70 0 118 -40t48 -120t-48 -120t-118 -40t-117 40t-47 120t47 120t117 40z" />
    <glyph glyph-name="h.sc" horiz-adv-x="1380" 
d="M1239 1167v-1167h-348v432h-414v-432h-338v1167h338v-450h414v450h348z" />
    <glyph glyph-name="hbar.sc" horiz-adv-x="1351" 
d="M893 834h-412v-117h412v117zM1313 834h-70v-834h-350v432h-412v-432h-338v834h-104v172h104v161h338v-161h412v161h350v-161h70v-172z" />
    <glyph glyph-name="dotlessi.sc" horiz-adv-x="679" 
d="M500 0h-320v1167h320v-1167z" />
    <glyph glyph-name="iacute.sc" horiz-adv-x="679" 
d="M500 0h-320v1167h320v-1167zM436 1300h-190l123 310h372z" />
    <glyph glyph-name="icircumflex.sc" horiz-adv-x="679" 
d="M180 1167h320v-1167h-320v1167zM254 1315h-256l246 297h196l234 -297h-244l-90 112z" />
    <glyph glyph-name="idieresis.sc" horiz-adv-x="679" 
d="M500 0h-320v1167h320v-1167zM550 1610q64 0 104 -37t40 -113t-41 -112t-102 -37q-61 0 -104 37q-41 36 -41 112t40 113t104 37zM-10 1460q0 76 42 113t104 37q64 0 104 -37t41 -113q0 -76 -41 -112q-40 -36 -102 -37q-62 0 -105 37q-43 36 -43 112z" />
    <glyph glyph-name="igrave.sc" horiz-adv-x="679" 
d="M500 0h-320v1167h320v-1167zM438 1300h-188l-309 310h374z" />
    <glyph glyph-name="ij.sc" horiz-adv-x="1509" 
d="M1370 1165v-798q0 -189 -101 -295t-294 -106t-287 40l60 279q68 -19 132 -19t99 16q68 30 70 138v745h321zM500 0h-320v1167h320v-1167z" />
    <glyph glyph-name="imacron.sc" horiz-adv-x="679" 
d="M500 0h-320v1167h320v-1167zM635 1364h-578v160h578v-160z" />
    <glyph glyph-name="iogonek.sc" horiz-adv-x="679" 
d="M500 0h-41q-92 -104 -92 -178q0 -94 127 -107l-48 -182q-129 7 -213 71t-83 169q0 74 33 124q34 50 106 103h-109v1167h320v-1167z" />
    <glyph glyph-name="j.sc" horiz-adv-x="829" 
d="M690 1165v-798q0 -189 -101 -295t-294 -106t-287 40l60 279q148 -39 224 -7q75 33 77 142v745h321z" />
    <glyph glyph-name="k.sc" horiz-adv-x="1263" 
d="M477 0h-338v1167h338v-430l344 430h404l-457 -514l483 -653h-401l-289 420l-84 -94v-326z" />
    <glyph glyph-name="kcommaaccent.sc" horiz-adv-x="1263" 
d="M524 -109h254l-110 -356h-144v356zM477 0h-338v1167h338v-430l344 430h404l-457 -514l483 -653h-401l-289 420l-84 -94v-326z" />
    <glyph glyph-name="l.sc" horiz-adv-x="1071" 
d="M463 289h547v-289h-871v1167h324v-878z" />
    <glyph glyph-name="lacute.sc" horiz-adv-x="1071" 
d="M463 289h547v-289h-871v1167h324v-878zM403 1298h-190l123 310h373z" />
    <glyph glyph-name="lcaron.sc" horiz-adv-x="1069" 
d="M680 811v356h252l-111 -356h-141zM463 289h547v-289h-871v1167h324v-878z" />
    <glyph glyph-name="lcommaaccent.sc" horiz-adv-x="1071" 
d="M426 -465v356h252l-111 -356h-141zM463 289h547v-289h-871v1167h324v-878z" />
    <glyph glyph-name="ldot.sc" horiz-adv-x="1071" 
d="M756 549q-70 0 -118 44q-48 43 -48 111t24 107q50 76 156 76q56 0 104 -44t50 -125q0 -81 -50 -125q-48 -44 -118 -44zM463 289h547v-289h-871v1167h324v-878z" />
    <glyph glyph-name="lslash.sc" horiz-adv-x="1130" 
d="M1071 289v-289h-870v510l-154 -45v201l154 47v454h323v-360l162 47v-201l-162 -47v-317h547z" />
    <glyph glyph-name="m.sc" horiz-adv-x="1601" 
d="M1462 1167v-1167h-321v532l-258 -466h-164l-258 481v-547h-322v1167h293l379 -716l360 716h291z" />
    <glyph glyph-name="n.sc" horiz-adv-x="1351" 
d="M1212 1167v-1167h-284l-467 612v-612h-322v1167h273l479 -655v655h321z" />
    <glyph glyph-name="nacute.sc" horiz-adv-x="1351" 
d="M1212 1167v-1167h-284l-467 612v-612h-322v1167h273l479 -655v655h321zM752 1298h-189l123 310h373z" />
    <glyph glyph-name="ncaron.sc" horiz-adv-x="1351" 
d="M1212 1167v-1167h-284l-467 612v-612h-322v1167h275l477 -655v655h321zM557 1311l-244 297h254l90 -115l91 115h243l-233 -297h-201z" />
    <glyph glyph-name="ncommaaccent.sc" horiz-adv-x="1351" 
d="M594 -109h254l-111 -356h-143v356zM1212 1167v-1167h-284l-467 612v-612h-322v1167h273l479 -655v655h321z" />
    <glyph glyph-name="eng.sc" horiz-adv-x="1349" 
d="M1212 1167v-1241q0 -184 -100 -295t-313 -108q-174 0 -269 41l62 278q66 -18 144 -18t116 36q39 36 39 115v76l-430 561v-612h-322v1167h273l479 -655v655h321z" />
    <glyph glyph-name="ntilde.sc" horiz-adv-x="1351" 
d="M1212 1167v-1167h-284l-467 612v-612h-322v1167h273l479 -655v655h321zM816 1323q-70 0 -147 40t-112 40q-70 0 -102 -96l-164 88q25 109 88 159q106 85 230 31q48 -21 84 -41t59 -20q59 0 100 102l178 -74q-29 -106 -87 -168q-57 -62 -127 -61z" />
    <glyph glyph-name="o.sc" horiz-adv-x="1372" 
d="M687 893q-120 0 -193.5 -79t-73.5 -222t74.5 -225t192.5 -82t193.5 82t75.5 225t-74.5 222t-194.5 79zM696.5 1202q104.5 0 211 -37t196.5 -108.5t144.5 -193.5t54.5 -274.5t-54.5 -273t-144.5 -193.5q-184 -149 -422.5 -149t-416.5 149q-87 73 -139 193.5t-52 259
t33.5 242t92 174t138.5 118.5t167 70.5t191.5 22.5z" />
    <glyph glyph-name="oacute.sc" horiz-adv-x="1372" 
d="M687 893q-119 0 -193 -79t-74 -222t75 -225t193 -82t193 82q76 82 75 225q0 143 -74 222q-75 79 -195 79zM1104 1057q90 -72 144 -194q54 -121 54 -249q1 -316 -197 -491q-167 -147 -415 -148q-248 -2 -425 147q-87 74 -139 194t-52 258t34 242q34 103 92 174t138 119
q155 93 368 93q212 0 398 -145zM778 1313h-188l123 311h372z" />
    <glyph glyph-name="ocircumflex.sc" horiz-adv-x="1372" 
d="M686 285q119 0 195 82t75 225q0 143 -74 222q-75 79 -196 79q-161 0 -231 -136q-35 -69 -35 -165t35 -166q71 -141 231 -141zM684 1202q234 0 420 -145q90 -72 144 -194q54 -121 54 -249q1 -316 -197 -491q-167 -147 -415 -148q-248 -2 -425 147q-87 74 -139 194t-52 274
t52 274q96 220 334 302q108 36 224 36zM598 1327h-256l246 299h194l236 -299h-244l-90 115z" />
    <glyph glyph-name="odieresis.sc" horiz-adv-x="1372" 
d="M420 592q0 -143 75 -225t193 -82t193 82q76 82 75 225q0 94 -35 164q-70 137 -233 137t-233 -136q-35 -69 -35 -165zM684 1202q234 0 420 -145q90 -72 144 -194t54 -259q1 -367 -272 -535q-154 -96 -347 -96q-194 0 -346 96q-263 166 -263 521q0 154 52 274
q96 220 334 302q108 36 224 36zM748 1475q0 77 42 113t104 36q64 0 103 -37t39 -113t-40 -112q-40 -37 -101 -37t-104 37t-43 113zM493 1624q51 0 91 -37t41 -113q0 -76 -41 -112q-40 -37 -102 -37t-105 37q-43 36 -43 100q0 162 159 162z" />
    <glyph glyph-name="ograve.sc" horiz-adv-x="1372" 
d="M687 893q-119 0 -193 -79t-74 -222t75 -225t193 -82t193 82q76 82 75 225q0 143 -74 222q-75 79 -195 79zM1104 1057q90 -72 144 -194q54 -123 54 -275t-54 -273q-98 -218 -341 -304q-106 -38 -223 -38q-116 0 -224 38q-238 84 -334 304q-52 121 -52 259t34 242
q34 103 92 174t138 119q155 93 368 93q212 0 398 -145zM782 1313h-190l-307 311h374z" />
    <glyph glyph-name="ohungarumlaut.sc" horiz-adv-x="1372" 
d="M686 893q-161 0 -231 -136q-35 -69 -35 -165t35 -166q70 -141 231 -141q119 0 195 82t75 225q0 143 -74 222q-75 79 -196 79zM684 1202q234 0 420 -145q90 -72 144 -194q54 -121 54 -249q1 -316 -197 -491q-167 -147 -415 -148q-248 -2 -425 147q-87 74 -139 194t-52 274
t52 274q96 220 334 302q108 36 224 36zM897 1337h-162l146 299h260zM600 1337h-158l47 299h254z" />
    <glyph glyph-name="omacron.sc" horiz-adv-x="1372" 
d="M687 893q-119 0 -193 -79t-74 -222t75 -225t193 -82t193 82q76 82 75 225q0 143 -74 222q-75 79 -195 79zM1104 1057q90 -72 144 -194q54 -121 54 -249q1 -316 -197 -491q-167 -147 -415 -148q-248 -2 -425 147q-87 74 -139 194t-52 258t34 242q34 103 92 174t138 119
q155 93 368 93q212 0 398 -145zM979 1378h-578v160h578v-160z" />
    <glyph glyph-name="oslash.sc" horiz-adv-x="1357" 
d="M686 285q119 0 194.5 82t76 223t-73.5 223l-232 -526q16 -2 35 -2zM420 597q0 -138 65 -220l234 514l-33 2q-119 0 -192.5 -79t-73.5 -217zM1303 590q0 -350 -273 -522q-151 -95 -344 -95q-84 0 -164 19l-94 -211l-178 74l94 208q-126 76 -198 208q-72 133 -72 303
q0 326 184 477t428 151q84 0 166 -18l92 205l168 -60l-94 -213q129 -74 207 -207t78 -319z" />
    <glyph glyph-name="otilde.sc" horiz-adv-x="1372" 
d="M687 893q-119 0 -193 -79t-74 -222t75 -225t193 -82t193 82q76 82 75 225q0 143 -74 222q-75 79 -195 79zM672 1202q204 0 363 -96q160 -96 231 -290q37 -104 37 -242q-1 -138 -55 -259q-98 -218 -341 -304q-106 -38 -223 -38q-116 0 -224 38q-238 84 -334 304
q-52 121 -52 275t52 274q96 220 334 302q108 36 212 36zM584 1417q-70 0 -103 -96l-164 90q25 107 89 159t135 52q72 0 180 -61q37 -20 59 -21q58 0 99 102l178 -73q-27 -105 -85 -167t-128 -62t-148 38q-78 39 -112 39z" />
    <glyph glyph-name="oe.sc" horiz-adv-x="1581" 
d="M739 897h-53q-173 5 -250 -145q-37 -72 -37 -168q0 -143 79 -229.5t208 -86.5h53v629zM1503 897h-442v-172h375v-270h-375v-185h442v-270h-766q-279 0 -465 134q-94 68 -146 184t-52 266.5t53 265.5q53 114 145 182q184 134 459 135h772v-270z" />
    <glyph glyph-name="p.sc" horiz-adv-x="1148" 
d="M461 897v-307h127q76 0 120 42t44 115t-43 111t-121 39h-127zM139 1167h467q244 1 358 -115t114 -308t-132 -309q-131 -116 -346 -116h-139v-319h-322v1167z" />
    <glyph glyph-name="thorn.sc" horiz-adv-x="1116" 
d="M461 743v-303h96q76 0 119 41t43 101q1 60 -19 94q-40 67 -143 67h-96zM461 1014h112q244 0 358 -116q113 -116 113 -306t-130 -306t-345 -116h-108v-170h-322v1167h322v-153z" />
    <glyph glyph-name="q.sc" horiz-adv-x="1370" 
d="M420 592q0 -96 35 -166q70 -141 231 -141q119 0 195 82t75 225q0 143 -74 222q-75 79 -196 79q-161 0 -231 -136q-35 -69 -35 -165zM684 1202q234 0 420 -145q90 -72 144 -194t54 -261q1 -378 -288 -543l258 -143l-207 -260l-424 319q-294 20 -453 230q-116 153 -114 385
q0 154 52 274q95 222 334 302q108 36 224 36z" />
    <glyph glyph-name="r.sc" horiz-adv-x="1228" 
d="M477 610h154q74 0 114.5 40t40.5 107.5t-40.5 103.5t-114.5 36h-154v-287zM477 340v-340h-338v1167h506q373 1 459 -245q24 -70 24 -174.5t-51 -198.5t-145 -148l250 -401h-381l-178 340h-146z" />
    <glyph glyph-name="racute.sc" horiz-adv-x="1228" 
d="M477 610h154q75 0 115 40t40 108t-41 104t-114 35h-154v-287zM477 340v-340h-338v1167h506q372 0 459 -245q24 -70 24 -174t-51 -199q-51 -94 -145 -148l250 -401h-381l-178 340h-146zM662 1298h-189l121 310h373z" />
    <glyph glyph-name="rcaron.sc" horiz-adv-x="1228" 
d="M631 610q155 0 155 164q0 52 -41 88t-114 35h-154v-287h154zM477 340v-340h-338v1167h506q372 0 459 -245q24 -70 24 -174t-51 -199q-51 -94 -145 -148l250 -401h-381l-178 340h-146zM467 1311l-244 297h254l88 -115l92 115h244l-233 -297h-201z" />
    <glyph glyph-name="rcommaaccent.sc" horiz-adv-x="1228" 
d="M498 -109h254l-111 -356h-143v356zM477 610h154q75 0 115 40t40 108t-41 104t-114 35h-154v-287zM477 340v-340h-338v1167h506q372 0 459 -245q24 -70 24 -174t-51 -199q-51 -94 -145 -148l250 -401h-381l-178 340h-146z" />
    <glyph glyph-name="s.sc" horiz-adv-x="1056" 
d="M647 352q0 26 -9 42q-10 14 -34 26q-40 20 -120 45q-226 72 -304 154.5t-78 214.5q0 178 123 274t305 96q269 0 412 -121l-129 -229q-53 39 -126 63.5t-136 24.5q-127 0 -127 -92q0 -47 41.5 -68t111.5 -43q185 -59 263 -106q134 -82 134.5 -267.5t-131.5 -289
t-356.5 -103.5t-400.5 111l90 256q154 -80 282 -80q130 0 170 44q20 22 19 48z" />
    <glyph glyph-name="sacute.sc" horiz-adv-x="1056" 
d="M647 352q0 26 -12 45q-12 18 -56 35q-45 16 -95 32q-229 75 -305 157q-77 82 -77 213q0 178 123 274t318 96q256 0 399 -121l-129 -229q-53 39 -126 64t-136 24q-127 0 -127 -92q0 -47 41 -67q41 -21 170 -62t198 -83q142 -87 142 -273q0 -185 -132 -288
q-133 -103 -357 -103t-400 110l90 256q154 -80 283 -80q188 0 188 92zM635 1298h-189l123 310h373z" />
    <glyph glyph-name="scaron.sc" horiz-adv-x="1056" 
d="M424 850q0 -47 41 -67q41 -21 112 -44q70 -22 105 -34q150 -51 222 -124t71 -208q0 -193 -132 -296q-133 -103 -357 -103t-400 110l90 256q154 -80 283 -80q188 0 188 92q0 26 -12 45q-12 18 -56 35q-45 16 -95 32q-229 75 -305 157q-77 82 -77 213q0 178 123 274t318 96
q123 0 231 -35t168 -86l-129 -229q-53 39 -126 64t-136 24q-127 0 -127 -92zM442 1311l-243 297h254l88 -115l90 115h243l-233 -297h-199z" />
    <glyph glyph-name="scedilla.sc" horiz-adv-x="1056" 
d="M424 850q0 -47 41 -67q41 -21 112 -44q70 -22 105 -34q150 -51 222 -124t71 -198q0 -125 -49 -209q-96 -165 -330 -194l-41 -82q68 10 116 -10q93 -38 93 -142t-81 -168t-206 -76l-59 136q149 28 147 96q0 19 -13 30q-12 11 -28 11t-37 -15l-106 95l59 120
q-205 14 -354 109l90 256q156 -80 284 -80t168 44q19 22 19 53t-23 50q-28 24 -153 63q-214 68 -291 150q-78 83 -78 214q0 178 123 274t318 96q256 0 399 -121l-129 -229q-53 39 -126 64t-136 24q-127 0 -127 -92z" />
    <glyph glyph-name="scommaaccent.sc" horiz-adv-x="1056" 
d="M385 -465v356h252l-111 -356h-141zM647 352q0 26 -12 45q-12 18 -56 35q-45 16 -95 32q-229 75 -305 157q-77 82 -77 213q0 178 123 274t318 96q256 0 399 -121l-129 -229q-53 39 -126 64t-136 24q-127 0 -127 -92q0 -47 41 -67q41 -21 170 -62t198 -83q142 -87 142 -273
q0 -185 -132 -288q-133 -103 -357 -103t-400 110l90 256q154 -80 283 -80q188 0 188 92z" />
    <glyph glyph-name="germandbls.sc" horiz-adv-x="1236" 
d="M1165 326q1 -162 -107 -256t-260 -94t-233 28l39 266q117 -44 174 -12q58 32 60 104q0 119 -213 127v150l127 147q0 49 -37 81t-90 32q-107 0 -146 -83q-18 -40 -18 -93v-723h-322v758q0 322 304 409q85 25 182 25q195 0 319 -104t123 -293l-162 -181q260 -55 260 -288z
" />
    <glyph glyph-name="t.sc" horiz-adv-x="1069" 
d="M1022 881h-328v-881h-323v881h-326v286h977v-286z" />
    <glyph glyph-name="tbar.sc" horiz-adv-x="1069" 
d="M1022 881h-328v-881h-323v881h-326v286h977v-286zM815 1362h-577v160h577v-160z" />
    <glyph glyph-name="tcaron.sc" horiz-adv-x="1069" 
d="M1022 881h-328v-881h-323v881h-326v286h977v-286zM422 1311l-244 297h254l88 -117l92 117h244l-233 -297h-201z" />
    <glyph glyph-name="tcedilla.sc" horiz-adv-x="1069" 
d="M598 -278q0 52 -42 53q-16 0 -34 -15l-106 95l69 145h-114v881h-326v286h977v-286h-328v-881h-53l-51 -102q98 14 152 -31t54 -135t-80 -154q-81 -64 -206 -76l-57 136q85 16 115 40q30 22 30 44z" />
    <glyph glyph-name="uni021B.sc" horiz-adv-x="1069" 
d="M416 -109h256l-111 -356h-145v356zM1022 881h-328v-881h-323v881h-326v286h977v-286z" />
    <glyph glyph-name="u.sc" horiz-adv-x="1290" 
d="M1151 1167v-698q0 -236 -142.5 -365t-363.5 -129t-363.5 129t-142.5 365v698h324v-714q0 -113 82 -157q41 -22 101 -22t100 22q82 45 81 157v714h324z" />
    <glyph glyph-name="uacute.sc" horiz-adv-x="1290" 
d="M1151 1167v-698q0 -236 -142 -365q-141 -129 -363 -129t-364 129t-143 365v698h324v-714q0 -116 82 -157q41 -22 100 -22q116 0 162 85q20 40 20 94v714h324zM745 1298h-188l123 310h373z" />
    <glyph glyph-name="ucircumflex.sc" horiz-adv-x="1290" 
d="M1151 1167v-698q0 -236 -142 -365q-141 -129 -363 -129t-364 129t-143 365v698h324v-714q0 -84 47 -131q47 -48 135 -48t135 48t47 131v714h324zM563 1313h-256l248 297h195l235 -297h-244l-90 112z" />
    <glyph glyph-name="udieresis.sc" horiz-adv-x="1290" 
d="M1151 1167v-698q0 -236 -142 -365q-141 -129 -363 -129t-364 129t-143 365v698h324v-714q0 -84 47 -131q46 -48 120 -48q131 -1 177 85q20 40 20 94v714h324zM861 1608q63 0 103 -37t40 -113t-40 -112t-102 -37q-62 0 -105 37q-42 36 -42 112t42 113t104 37zM448 1608
q62 0 103 -37t41 -113t-41 -112t-103 -37q-62 0 -105 37q-42 36 -42 112t42 113q43 37 105 37z" />
    <glyph glyph-name="ugrave.sc" horiz-adv-x="1290" 
d="M1151 1167v-698q0 -236 -142 -365q-141 -129 -363 -129t-364 129t-143 365v698h324v-714q0 -84 47 -131q47 -48 135 -48t135 48t47 131v714h324zM748 1298h-189l-307 310h373z" />
    <glyph glyph-name="uhungarumlaut.sc" horiz-adv-x="1290" 
d="M1151 1167v-698q0 -236 -142 -365q-141 -129 -363 -129t-364 129t-143 365v698h324v-714q0 -116 82 -157q41 -22 100 -22q116 0 162 85q20 40 20 94v714h324zM862 1321h-162l148 299h260zM567 1321h-157l47 299h252z" />
    <glyph glyph-name="umacron.sc" horiz-adv-x="1290" 
d="M1151 1167v-698q0 -236 -142 -365q-141 -129 -363 -129t-364 129t-143 365v698h324v-714q0 -116 82 -157q41 -22 100 -22q116 0 162 85q20 40 20 94v714h324zM944 1362h-575v160h575v-160z" />
    <glyph glyph-name="uogonek.sc" horiz-adv-x="1290" 
d="M1151 1167v-698q0 -170 -78 -287t-211 -168q-98 -113 -98 -188q0 -94 127 -107l-47 -182q-129 7 -214 71t-85 173t102 194h-2q-221 0 -363 129t-143 365v698h324v-714q0 -84 47 -131q47 -48 135 -48t135 48t47 131v714h324z" />
    <glyph glyph-name="uring.sc" horiz-adv-x="1290" 
d="M1151 1167v-698q0 -236 -142 -365q-141 -129 -363 -129t-364 129t-143 365v698h324v-714q0 -116 82 -157q41 -22 100 -22q116 0 162 85q20 40 20 94v714h324zM655 1528q-35 0 -53 -20t-18 -46q0 -24 7 -40q16 -37 64 -39q48 -1 67 38q7 16 7 41q1 26 -19 46t-55 20z
M655 1632q134 0 175 -107q13 -32 14 -69q0 -76 -51 -127t-122 -51q-131 0 -181 89q-22 41 -22 103t52 112q51 50 135 50z" />
    <glyph glyph-name="v.sc" horiz-adv-x="1236" 
d="M1241 1167l-453 -1167h-346l-448 1167h366l269 -815l268 815h344z" />
    <glyph glyph-name="w.sc" horiz-adv-x="1726" 
d="M1731 1167l-365 -1173h-258l-229 688l-232 -688h-254l-364 1173h348l178 -692l213 686h240l215 -674l182 680h326z" />
    <glyph glyph-name="wacute.sc" horiz-adv-x="1726" 
d="M1731 1167l-365 -1173h-258l-229 688l-232 -688h-254l-364 1173h348l178 -692l213 686h240l215 -674l182 680h326zM993 1292h-188l123 310h372z" />
    <glyph glyph-name="wcircumflex.sc" horiz-adv-x="1726" 
d="M1731 1167l-365 -1173h-258l-229 688l-232 -688h-254l-364 1173h348l178 -692l213 686h240l215 -674l182 680h326zM813 1305h-256l246 299h194l236 -299h-244l-90 114z" />
    <glyph glyph-name="wdieresis.sc" horiz-adv-x="1726" 
d="M1731 1167l-365 -1173h-258l-229 688l-232 -688h-254l-364 1173h348l178 -692l213 686h240l215 -674l182 680h326zM1251 1452q0 -76 -40 -112t-101 -37q-61 1 -104 37t-43 112t42 113t105 37t102 -37t39 -113zM696 1303q-61 1 -104 37t-43 112t42 113t105 37
q64 0 104 -37t40 -113t-41 -113q-42 -36 -103 -36z" />
    <glyph glyph-name="wgrave.sc" horiz-adv-x="1726" 
d="M1731 1167l-365 -1173h-258l-229 688l-232 -688h-254l-364 1173h348l178 -692l213 686h240l215 -674l182 680h326zM807 1292l-307 310h374l123 -310h-190z" />
    <glyph glyph-name="x.sc" horiz-adv-x="1269" 
d="M821 594l443 -594h-367l-242 362l-225 -362h-364l430 571l-443 596h365l233 -360l219 360h349z" />
    <glyph glyph-name="y.sc" horiz-adv-x="1118" 
d="M733 0h-321v457l-424 710h352l242 -438l219 438h332l-400 -710v-457z" />
    <glyph glyph-name="yacute.sc" horiz-adv-x="1118" 
d="M735 0h-323v457l-424 710h352l244 -438l217 438h332l-398 -710v-457zM676 1298h-189l123 310h373z" />
    <glyph glyph-name="ycircumflex.sc" horiz-adv-x="1118" 
d="M733 0h-321v457l-424 710h352l242 -438l219 438h332l-400 -710v-457zM496 1313h-256l245 297h195l235 -297h-243l-90 112z" />
    <glyph glyph-name="ydieresis.sc" horiz-adv-x="1118" 
d="M733 0h-321v457l-424 710h352l242 -438l219 438h332l-400 -710v-457zM934 1458q0 -76 -40 -112t-101 -37q-61 0 -105 37q-43 36 -43 112t42 113q41 37 105 37t103 -37t39 -113zM369 1309q-51 0 -95 37q-43 36 -43 112t42 113q43 37 95 37t83 -14t51 -49q20 -36 20 -87
t-20 -86t-51 -49t-82 -14z" />
    <glyph glyph-name="ygrave.sc" horiz-adv-x="1118" 
d="M733 0h-321v457l-424 710h352l242 -438l219 438h332l-400 -710v-457zM492 1298l-310 310h375l123 -310h-188z" />
    <glyph glyph-name="z.sc" horiz-adv-x="1038" 
d="M991 289v-289h-903v225l467 660h-463v282h881v-215l-504 -663h522z" />
    <glyph glyph-name="zacute.sc" horiz-adv-x="1038" 
d="M991 289v-289h-903v225l467 660h-463v282h881v-215l-504 -663h522zM657 1305h-190l123 309h373z" />
    <glyph glyph-name="zcaron.sc" horiz-adv-x="1038" 
d="M991 289v-289h-903v225l467 660h-463v282h881v-215l-504 -663h522zM463 1317l-244 297h254l88 -115l92 115h242l-233 -297h-199z" />
    <glyph glyph-name="zdotaccent.sc" horiz-adv-x="1038" 
d="M991 289v-289h-903v225l467 660h-463v282h881v-215l-504 -663h522zM569 1298q-69 0 -117 40t-48 119t47 120q48 41 118 41t118 -40t48 -120t-48 -120t-118 -40z" />
    <glyph glyph-name="i.sc" horiz-adv-x="679" 
d="M500 0h-320v1167h320v-1167z" />
    <glyph glyph-name="zero.sinf" horiz-adv-x="868" 
d="M434 -152q141 0 139 246q0 175 -60 219q-29 23 -89 23q-130 0 -131 -244q0 -244 141 -244zM432 526q178 0 289 -112t111 -319q0 -209 -110 -323t-288 -114t-286 114t-108 324t107 320t285 110z" />
    <glyph glyph-name="one.sinf" horiz-adv-x="868" 
d="M573 -137h181v-195h-598v195h180v405l-148 -43l-61 170l279 113h167v-645z" />
    <glyph glyph-name="two.sinf" horiz-adv-x="868" 
d="M410 526q170 0 257 -68t87 -188q0 -154 -193 -286l-149 -105h356v-211h-647v195l235 178q127 96 127 172q0 92 -116 92q-91 0 -189 -57l-90 180q152 98 322 98z" />
    <glyph glyph-name="three.sinf" horiz-adv-x="868" 
d="M752 311q0 -133 -134 -194q162 -49 162 -199q0 -123 -104 -198q-104 -74 -280 -74t-296 84l54 176q135 -49 231 -49q143 0 143 80t-127 79h-139v164h123q109 0 109 78t-104 78t-208 -62l-88 158q139 98 311 97q171 -1 259 -59t88 -159z" />
    <glyph glyph-name="four.sinf" horiz-adv-x="868" 
d="M444 12v224l-161 -224h161zM672 12h131v-184h-131v-160h-226v160h-380v174l393 508h213v-498z" />
    <glyph glyph-name="five.sinf" horiz-adv-x="868" 
d="M539 -51q-1 90 -117 90q-60 0 -117 -51l-155 59v459h583v-211h-352v-129q61 31 165 31t175 -70q70 -70 70 -182q0 -208 -213 -279q-63 -20 -138 -20q-193 0 -321 69l51 174q131 -43 214 -43q155 0 155 103z" />
    <glyph glyph-name="six.sinf" horiz-adv-x="868" 
d="M449 -168q49 0 79 29t29 69q1 40 -27 66q-28 27 -67 27q-83 0 -133 -70q6 -57 38 -89t81 -32zM515 332q-93 0 -138 -49t-51 -152q76 63 192 63t191 -67q75 -69 75 -191t-84 -206t-247 -84t-265 102t-102 329t117 339t305 112q139 0 237 -61l-65 -176q-72 41 -165 41z" />
    <glyph glyph-name="seven.sinf" horiz-adv-x="868" 
d="M102 293v213h664v-201l-274 -637h-254l266 625h-402z" />
    <glyph glyph-name="eight.sinf" horiz-adv-x="858" 
d="M303 -54q0 -110 138 -110q50 0 82 29t32 74t-34 73t-90 29q-56 0 -92 -29q-36 -30 -36 -66zM541 272q0 38 -30 60t-67 22q-122 0 -122 -80q0 -40 30 -64t80 -24q49 0 79 24t30 62zM68 -80q0 131 122 195q-102 59 -102 171t97 180q97 66 245 66t246 -67q98 -69 98 -181
t-115 -171q131 -66 132 -195q1 -86 -49 -148q-101 -126 -310 -124q-160 0 -262 72t-102 202z" />
    <glyph glyph-name="nine.sinf" horiz-adv-x="868" 
d="M315 223q0 -43 27 -69t72 -25q86 0 129 53q-13 135 -130 135q-40 1 -69 -25t-29 -69zM358 -156q184 0 193 174q-92 -57 -207 -57q-114 0 -188 77q-74 76 -74 202t91 205t239 79q200 0 290 -122q84 -109 84 -279q0 -477 -397 -477q-165 0 -280 57l55 180q84 -39 194 -39z
" />
    <glyph glyph-name="zero.sups" horiz-adv-x="868" 
d="M436 1561q-143 0 -143 -244t141 -244t139 246q-1 131 -33 187t-104 55zM432 1751q178 0 289 -112q111 -111 111 -319t-110 -323t-288 -115t-286 114t-108 324t108 320q106 110 284 111z" />
    <glyph glyph-name="one.sups" horiz-adv-x="868" 
d="M573 1087h181v-194h-598v194h180v406l-148 -45l-61 170l279 115h167v-646z" />
    <glyph glyph-name="two.sups" horiz-adv-x="868" 
d="M410 1751q170 0 257 -69t87 -187q0 -154 -193 -287l-149 -104h356v-211h-647v194l235 179q127 96 127 172q0 92 -116 92q-91 -1 -189 -60l-90 183q152 98 322 98z" />
    <glyph glyph-name="three.sups" horiz-adv-x="868" 
d="M387 1753q170 0 258 -59t88 -160q0 -133 -133 -193q160 -49 160 -198q0 -123 -104 -198t-280 -75t-296 82l53 178q137 -49 232 -49q145 0 145 80t-127 80h-141v164h125q109 0 108 80q-1 73 -105 73t-208 -59l-88 158q61 43 145 69t168 27z" />
    <glyph glyph-name="four.sups" horiz-adv-x="868" 
d="M440 1237v223l-161 -223h161zM668 1237h131v-184h-131v-160h-224v160h-381v174l392 506h213v-496z" />
    <glyph glyph-name="five.sups" horiz-adv-x="868" 
d="M733 1520h-352v-131q61 31 145 31q171 -1 234 -120q31 -57 31 -131q1 -139 -99 -219t-272 -80t-301 70l51 174q131 -43 214 -43q155 0 155 103q0 88 -105 88q-72 0 -129 -50l-155 60v459h583v-211z" />
    <glyph glyph-name="six.sups" horiz-adv-x="868" 
d="M557 1153q1 41 -27 67t-67 25q-85 0 -133 -67q6 -57 38 -89t81 -32q49 -1 79 27t29 69zM452 870q-164 0 -264 104q-102 104 -102 330q0 224 117 336t305 113q139 0 237 -61l-65 -176q-72 40 -165 40t-138 -50t-51 -150q76 61 211 61t211 -114q37 -57 36 -136
q0 -129 -84 -213t-248 -84z" />
    <glyph glyph-name="seven.sups" horiz-adv-x="868" 
d="M102 1518v213h664v-201l-274 -637h-254l266 625h-402z" />
    <glyph glyph-name="eight.sups" horiz-adv-x="858" 
d="M555 1164q0 44 -34 73t-90 29t-92 -29t-36 -66q0 -110 138 -110q50 0 82 29q32 30 32 74zM432 1579q-49 1 -80 -21q-30 -22 -30 -61t30 -63t80 -23q49 0 79 24q30 25 30 63t-30 60t-79 21zM432 870q-160 0 -262 72t-102 203t122 194q-102 59 -102 171t97 180t245 68
t246 -68t98 -182t-115 -171q131 -66 132 -194q1 -87 -49 -149q-98 -124 -310 -124z" />
    <glyph glyph-name="nine.sups" horiz-adv-x="868" 
d="M390 1542q-48 0 -78 -26t-30 -58q2 -104 101 -104q86 0 129 53q-6 63 -40 99t-82 36zM326 1069q186 0 192 174q-90 -57 -204 -57t-189 77q-74 77 -74 203t91 204q91 79 239 79q278 0 353 -250q22 -70 22 -151q0 -477 -398 -478q-167 1 -280 58l53 178q86 -37 195 -37z
" />
    <glyph glyph-name="zero.tosf" horiz-adv-x="1331" 
d="M422 540q0 -134 70 -206t176 -72t176 72t69 207q0 90 -33 153q-65 121 -212 121q-106 0 -176 -70q-70 -71 -70 -205zM674 1112q221 0 392 -136q83 -68 131 -180t48 -254t-49 -256q-90 -210 -312 -286q-99 -35 -209 -35q-225 0 -400 138q-85 69 -136 183t-51 256t51 255
q92 203 323 280q101 35 212 35z" />
    <glyph glyph-name="one.tosf" horiz-adv-x="1331" 
d="M1118 260v-272h-784v272h219v481l-215 -102l-125 235l426 203h254v-817h225z" />
    <glyph glyph-name="two.tosf" horiz-adv-x="1331" 
d="M1128 754q0 -104 -62 -190t-202 -169l-200 -116h493v-279h-948v262l377 213q112 70 158 119t46 115q0 67 -54 101t-156 34q-148 0 -275 -84l-141 219q80 49 138 77q149 72 327 70q227 0 363 -95t136 -277z" />
    <glyph glyph-name="three.tosf" horiz-adv-x="1331" 
d="M612 1098q280 0 423 -100q142 -100 143 -246q0 -240 -240 -338v-6q133 -31 216 -115q83 -85 83 -221t-81 -246t-215 -166q-134 -55 -270 -55q-373 0 -573 166l146 264q147 -117 362 -117q119 0 186 49t66 129q0 147 -264 148h-217v262h196q234 0 234 151q0 57 -58 95
t-165 39q-175 -1 -310 -97l-147 230q205 174 485 174z" />
    <glyph glyph-name="four.tosf" horiz-adv-x="1331" 
d="M727 219v406l-326 -406h326zM1274 219v-276h-201v-303h-360v303h-656v235l717 895h299v-854h201z" />
    <glyph glyph-name="five.tosf" horiz-adv-x="1331" 
d="M1141 750h-631v-258q104 66 260 65q198 0 318 -116q120 -115 120 -337t-164 -362t-456 -139q-292 0 -455 133l119 278q158 -98 324 -98t231 92q33 47 33 124t-56 122t-151 45q-133 0 -242 -98l-223 118v756h973v-325z" />
    <glyph glyph-name="six.tosf" horiz-adv-x="1331" 
d="M698 645q-147 0 -252 -110q10 -119 72 -190t177 -71q114 0 170 90q28 44 28 116t-54 118q-55 47 -141 47zM784 932q204 0 343 -117t139 -335t-156 -361t-405 -144q-293 1 -467 183t-175 547q0 188 54 334q100 274 368 373q125 46 273 46q291 0 473 -127l-162 -258
q-139 84 -293 84q-156 0 -248 -86t-106 -268q158 129 362 129z" />
    <glyph glyph-name="seven.tosf" horiz-adv-x="1331" 
d="M137 750v323h1059v-276l-512 -1159h-381l500 1112h-666z" />
    <glyph glyph-name="eight.tosf" horiz-adv-x="1331" 
d="M662 614q-94 0 -154 -48t-62 -124q0 -76 58 -125t158 -49q98 0 155 49t57 125t-59 124t-153 48zM660 1147q-81 0 -130 -38t-49 -100q0 -61 50 -101t128 -40t128 39q51 39 51 101t-48 101q-49 38 -130 38zM1208 1053q0 -109 -54 -192t-146 -116q110 -41 176 -127t65 -200
q0 -207 -162 -332t-425 -125q-262 0 -420 120t-158 316q0 158 117 271q53 51 123 82q-90 35 -154 117q-63 83 -64 186q0 189 156 295t394 106q239 0 396 -105q156 -104 156 -296z" />
    <glyph glyph-name="nine.tosf" horiz-adv-x="1331" 
d="M422 602q0 -194 218 -194q66 0 144 41t107 110q-10 109 -82 169t-154 60t-133 -24q-102 -48 -100 -162zM534 -90q172 0 272 87q99 87 112 279q-103 -115 -225 -145q-65 -16 -139 -16q-241 0 -381 152q-110 119 -110 335q0 215 155 354t396 140q310 0 482 -176t172 -541
q0 -459 -301 -659q-166 -107 -413 -107t-409 92l78 277q139 -72 311 -72z" />
    <glyph glyph-name="zero.osf" horiz-adv-x="1198" 
d="M600 815q-118 0 -176 -123q-29 -61 -29 -147q1 -137 59 -210t146 -73t146 73t58 205t-58 204t-146 71zM615 1112q194 0 347 -137q76 -67 120 -179t44 -239q0 -241 -104 -382q-154 -210 -417 -210q-161 0 -303 95t-200 273q-30 97 -30 211q1 230 113 368q160 200 430 200z
" />
    <glyph glyph-name="one.osf" horiz-adv-x="1095" 
d="M987 260v-272h-786v272h221v481l-217 -102l-123 235l424 203h254v-817h227z" />
    <glyph glyph-name="two.osf" horiz-adv-x="1157" 
d="M1008 772q0 -96 -47 -174t-158 -166l-189 -153h416v-279h-868v193l311 264q113 96 154 150t41 112q0 59 -54 93t-133 34q-130 0 -241 -86l-148 207q193 160 453 159q209 0 336 -92t127 -262z" />
    <glyph glyph-name="three.osf" horiz-adv-x="1273" 
d="M541 506q231 0 231 155q0 53 -58 91t-165 39q-172 -1 -309 -97l-148 230q204 174 486 174t423 -100t142 -246q0 -240 -240 -338v-6q135 -31 217 -115q82 -85 82 -221t-81 -246q-162 -220 -513 -221q-220 0 -394 76q-87 37 -151 90l146 264q150 -117 362 -117
q119 0 187 49t67 129q0 147 -266 148h-217v262h199z" />
    <glyph glyph-name="four.osf" horiz-adv-x="1378" 
d="M764 219v406l-324 -406h324zM1311 219v-276h-199v-303h-362v303h-654v235l715 895h301v-854h199z" />
    <glyph glyph-name="five.osf" horiz-adv-x="1327" 
d="M1155 750h-631v-258q104 66 262 65q195 0 316 -116q121 -115 121 -337t-163 -362q-164 -140 -456 -139q-292 0 -454 133l116 278q158 -98 336 -98q116 0 184 53t68 147q0 184 -207 183q-133 0 -241 -98l-222 118v756h971v-325z" />
    <glyph glyph-name="six.osf" horiz-adv-x="1404" 
d="M725 645q-147 0 -254 -110q17 -162 119 -228q51 -33 131 -33t139 52t60 139q0 86 -54 133t-141 47zM803 1157q-155 0 -247 -86t-107 -268q157 129 361 129t343 -117t139 -335t-156 -361t-405 -144q-293 1 -467 183t-174 547q0 188 53 334q53 147 149 237q193 182 487 182
t478 -127l-161 -258q-138 84 -293 84z" />
    <glyph glyph-name="seven.osf" horiz-adv-x="1150" 
d="M23 750v323h1056v-276l-512 -1159h-379l500 1112h-665z" />
    <glyph glyph-name="eight.osf" horiz-adv-x="1306" 
d="M632 614q-78 0 -137 -48q-61 -48 -61 -124t58 -125t157 -49q98 0 156 49q57 49 57 127q0 47 -26 87q-57 83 -204 83zM634 1147q-66 0 -116 -38q-49 -38 -49 -100q0 -61 50 -101t128 -40t129 39t51 91q1 148 -193 149zM646 1454q240 0 396 -106t156 -295q0 -109 -55 -192
t-148 -116q109 -41 175 -127t67 -200q0 -207 -162 -332t-425 -125t-421 120t-157 316q0 117 66 211q67 94 173 142q-90 36 -153 118t-64 185q0 189 156 295t396 106z" />
    <glyph glyph-name="nine.osf" horiz-adv-x="1286" 
d="M607 788q-99 0 -157 -51t-58 -140t51 -139t143 -50t170 41t106 110q-10 109 -83 169t-172 60zM506 -90q172 0 271 87t110 279q-98 -114 -222 -145q-65 -16 -139 -16q-240 0 -383 152q-108 115 -108 332q0 218 154 357q155 139 397 140q307 0 480 -176t173 -541
q0 -164 -40 -296q-73 -240 -251 -355q-179 -115 -424 -115t-407 92l78 277q139 -72 311 -72z" />
    <glyph glyph-name="zero.lf" horiz-adv-x="1454" 
d="M727 1151q-143 0 -214 -114q-71 -115 -71 -323t71 -325t213 -117t215 117t73 330q0 311 -160 401q-55 31 -127 31zM726 1456q134 0 252 -46q255 -99 352 -368q52 -143 52 -326q0 -184 -52 -330q-96 -270 -352 -374q-118 -47 -238 -47q-236 0 -397 119q-274 201 -271 635
q0 180 52 323q52 142 143 232t208 136t251 46z" />
    <glyph glyph-name="one.lf" horiz-adv-x="1271" 
d="M1163 324v-324h-981v324h314v714l-285 -108l-129 256l500 252h274v-1114h307z" />
    <glyph glyph-name="two.lf" horiz-adv-x="1337" 
d="M595 1458q267 0 426 -108t159 -322q0 -141 -77 -257t-241 -251l-252 -205h613v-315h-1078v291l400 336q181 152 214 208q33 57 34 119q0 98 -70 144t-182 45q-167 0 -308 -86l-116 266q211 135 478 135z" />
    <glyph glyph-name="three.lf" horiz-adv-x="1273" 
d="M541 866q231 0 231 156q0 53 -58 91t-165 38q-172 0 -309 -96l-148 229q204 174 486 174t423 -99t142 -247q0 -240 -240 -338v-6q135 -31 217 -115q82 -85 82 -221t-81 -246q-162 -220 -513 -221q-162 0 -305 43t-240 123l146 264q150 -117 362 -116q119 0 187 49t67 129
q0 147 -266 147h-217v262h199z" />
    <glyph glyph-name="four.lf" horiz-adv-x="1378" 
d="M764 580v405l-324 -405h324zM1311 580v-277h-199v-303h-362v303h-654v236l715 895h301v-854h199z" />
    <glyph glyph-name="five.lf" horiz-adv-x="1327" 
d="M1155 1114h-631v-258q104 64 280 64t298 -115q121 -115 121 -338t-163 -363q-164 -140 -456 -139q-292 0 -454 135l116 277q158 -98 336 -98q116 0 184 53t68 146t-55 139q-55 47 -170 47t-223 -99l-222 117v756h971v-324z" />
    <glyph glyph-name="six.lf" horiz-adv-x="1435" 
d="M725 645q-147 0 -254 -110q17 -162 119 -228q51 -33 131 -33t139 52t60 139q0 86 -54 133t-141 47zM803 1157q-155 0 -247 -86t-107 -268q157 129 361 129t343 -117t139 -335t-156 -361t-405 -144q-293 1 -467 183t-174 547q0 188 53 334q53 147 149 237q193 182 487 182
t478 -127l-161 -258q-138 84 -293 84z" />
    <glyph glyph-name="seven.lf" horiz-adv-x="1150" 
d="M23 1114v324h1056v-279l-512 -1159h-379l500 1114h-665z" />
    <glyph glyph-name="eight.lf" horiz-adv-x="1306" 
d="M649 618q-94 0 -154 -49q-61 -49 -61 -124t58 -123t157 -50q97 0 155 50t58 124q0 76 -59 124q-60 48 -154 48zM648 1151q-81 0 -130 -38q-49 -37 -49 -101t50 -102t128 -38t129 38t51 102t-49 101q-49 38 -130 38zM646 1458q240 0 396 -108t156 -293q0 -109 -55 -192
t-148 -115q109 -41 175 -127t67 -201q0 -207 -162 -332t-425 -125t-421 120t-157 316q0 115 66 210q67 95 173 143q-90 34 -153 116t-64 187q0 185 156 293t396 108z" />
    <glyph glyph-name="nine.lf" horiz-adv-x="1310" 
d="M607 1151q-99 0 -157 -51t-58 -139q0 -89 51 -139t143 -50t170 40t106 110q-10 109 -83 169t-172 60zM520 477q-265 0 -407 192q-78 105 -78 281q0 231 154 370q155 138 397 138q307 0 480 -176t173 -539q0 -468 -302 -660q-169 -108 -414 -108q-244 1 -406 95l78 274
q139 -70 311 -70t271 86t110 281q-135 -164 -367 -164z" />
    <glyph glyph-name="zero.tf" horiz-adv-x="1331" 
d="M668 1163q-238 1 -238 -445t238 -446t238 446t-238 445zM667 1468q125 0 233 -46t192 -136t133 -234t49 -330t-49 -332q-90 -271 -325 -376q-108 -47 -232 -47q-257 0 -426 185q-84 90 -133 237t-49 333t49 330q91 271 325 370q108 46 233 46z" />
    <glyph glyph-name="one.tf" horiz-adv-x="1331" 
d="M1235 324v-324h-981v324h315v714l-286 -108l-127 256l499 252h275v-1114h305z" />
    <glyph glyph-name="two.tf" horiz-adv-x="1331" 
d="M598 1458q268 0 426 -108t158 -322q0 -141 -77 -257t-241 -251l-252 -205h613v-315h-1078v291l400 336q181 152 215 210q34 59 35 117q0 98 -71 144t-183 45q-166 0 -307 -86l-115 266q209 135 477 135z" />
    <glyph glyph-name="three.tf" horiz-adv-x="1331" 
d="M530 866q234 0 234 156q0 53 -58 91t-165 38q-175 0 -310 -96l-147 229q206 174 486 174t422 -99t143 -247q0 -240 -240 -338v-6q133 -31 216 -115q83 -85 83 -221t-82 -246q-164 -221 -514 -221q-162 0 -304 43t-239 123l146 264q147 -117 360 -116q121 0 188 49t66 129
q0 147 -264 147h-217v262h196z" />
    <glyph glyph-name="four.tf" horiz-adv-x="1331" 
d="M739 580v405l-323 -405h323zM1286 580v-277h-199v-303h-360v303h-655v236l714 895h301v-854h199z" />
    <glyph glyph-name="five.tf" horiz-adv-x="1331" 
d="M1141 1114h-631v-258q104 64 280 64t298 -115q120 -115 120 -338t-162 -363q-163 -139 -456 -139t-455 135l117 277q158 -98 336 -98q116 0 184 53t68 146t-56 139t-151 47q-133 0 -242 -99l-221 117v756h971v-324z" />
    <glyph glyph-name="six.tf" horiz-adv-x="1331" 
d="M449 535q27 -261 249 -261q80 0 140 52t59 139q0 86 -54 133q-55 47 -141 47q-150 0 -253 -110zM788 932q204 0 342 -117q140 -117 140 -335t-156 -361t-405 -144q-292 0 -467 181q-176 181 -176 549q0 188 54 334q54 147 149 237q192 182 487 182t477 -127l-160 -258
q-53 33 -135 59t-170 25q-146 0 -238 -86t-106 -268q160 129 364 129z" />
    <glyph glyph-name="seven.tf" horiz-adv-x="1331" 
d="M119 1114v324h1102l8 -340l-539 -1098h-414l562 1114h-719z" />
    <glyph glyph-name="eight.tf" horiz-adv-x="1331" 
d="M662 618q-94 0 -154 -49t-62 -124q0 -75 58 -123t158 -50q98 0 155 50t57 124q0 76 -59 124t-153 48zM660 1151q-81 0 -130 -38q-49 -37 -49 -101t50 -102t128 -38t128 38q51 38 51 102t-48 101q-49 38 -130 38zM658 1458q241 0 396 -108t154 -293q0 -146 -94 -242
q-45 -45 -106 -65q110 -41 176 -127t65 -201q0 -207 -162 -332t-425 -125q-262 0 -420 120t-158 316q0 155 117 270q53 52 123 83q-90 35 -154 116q-63 82 -64 187q0 185 156 293t396 108z" />
    <glyph glyph-name="nine.tf" horiz-adv-x="1331" 
d="M626 1151q-100 0 -158 -51t-58 -135q0 -193 198 -193q86 0 164 40t107 110q-10 109 -82 169t-171 60zM516 274q273 0 353 196q30 71 36 171q-98 -113 -229 -147t-275 -2t-240 138q-48 52 -79 135t-31 185q0 232 155 370t396 138q309 0 482 -176t173 -539
q0 -465 -303 -660q-168 -108 -413 -107q-246 0 -408 94l80 274q137 -70 303 -70z" />
    <glyph glyph-name="zero.dnom" horiz-adv-x="868" 
d="M436 164q139 0 137 246q0 133 -32 188q-33 55 -105 55t-108 -56t-35 -187q0 -246 143 -246zM432 844q178 0 289 -113t111 -321t-110 -322q-110 -115 -288 -115t-286 115t-108 324q0 208 108 320q106 112 284 112z" />
    <glyph glyph-name="one.dnom" horiz-adv-x="868" 
d="M573 178h181v-194h-598v194h180v408l-148 -45l-61 170l279 114h167v-647z" />
    <glyph glyph-name="two.dnom" horiz-adv-x="868" 
d="M754 588q0 -156 -193 -289l-149 -104h356v-211h-647v196l235 176q127 98 127 172q0 92 -116 93q-91 -1 -189 -58l-90 180q152 101 322 101t257 -70t87 -186z" />
    <glyph glyph-name="three.dnom" horiz-adv-x="868" 
d="M733 627q0 -133 -133 -195q160 -47 160 -199q0 -80 -48 -142q-99 -128 -306 -128q-206 0 -326 82l53 176q137 -49 232 -49q145 0 145 84q0 76 -127 76h-141v166h125q109 0 108 77q-1 76 -105 76t-208 -59l-88 156q130 96 307 96q176 0 264 -58t88 -159z" />
    <glyph glyph-name="four.dnom" horiz-adv-x="868" 
d="M440 330v223l-161 -223h161zM668 330h131v-185h-131v-159h-224v159h-381v174l392 506h213v-495z" />
    <glyph glyph-name="five.dnom" horiz-adv-x="868" 
d="M539 266q-1 88 -117 88q-60 0 -117 -51l-155 59v461h583v-211h-352v-131q61 31 145 31t144 -32q122 -65 121 -211q1 -146 -99 -226t-272 -80t-301 68l51 176q131 -45 214 -45q155 0 155 104z" />
    <glyph glyph-name="six.dnom" horiz-adv-x="868" 
d="M557 246q1 40 -27 66t-67 26q-86 0 -133 -70q6 -57 38 -88q32 -30 81 -30t79 28t29 68zM515 647q-93 0 -138 -49t-51 -152q76 64 192 64t191 -68t75 -190t-84 -205q-84 -84 -245 -84t-265 100t-104 328q0 229 117 341t305 112q139 -1 237 -62l-65 -174q-72 39 -165 39z
" />
    <glyph glyph-name="seven.dnom" horiz-adv-x="868" 
d="M102 608v215h664v-200l-274 -639h-254l266 624h-402z" />
    <glyph glyph-name="eight.dnom" horiz-adv-x="858" 
d="M441 152q50 0 82 28t32 63q0 113 -123 113q-57 0 -93 -28t-36 -66q0 -110 138 -110zM432 672q-49 0 -80 -23q-30 -23 -30 -61t30 -62t80 -24q49 0 79 24t30 63t-30 61t-79 22zM68 236q0 130 122 194q-102 60 -102 172t97 180t245 68t246 -68t98 -182t-115 -172
q131 -66 132 -195q1 -86 -49 -148q-97 -122 -310 -122q-160 0 -262 71q-102 72 -102 202z" />
    <glyph glyph-name="nine.dnom" horiz-adv-x="868" 
d="M390 635q-48 0 -78 -26q-30 -25 -30 -69t28 -69t73 -25q86 0 129 52q-6 66 -40 102t-82 35zM326 162q186 0 192 174q-90 -60 -204 -60t-189 77q-74 77 -74 203t91 206t239 80q278 0 353 -250q22 -70 22 -152q0 -477 -398 -477q-167 0 -280 55l53 181q86 -37 195 -37z" />
    <glyph glyph-name="zero.numr" horiz-adv-x="868" 
d="M295 1030q0 -246 141 -246t139 246q0 133 -32 189q-33 55 -105 55t-108 -56t-35 -188zM43 1032q-1 208 107 320t286 112t289 -112t111 -322q0 -209 -111 -322q-111 -114 -288 -114t-285 115t-109 323z" />
    <glyph glyph-name="one.numr" horiz-adv-x="868" 
d="M573 799h181v-195h-598v195h180v407l-148 -45l-61 170l279 115h167v-647z" />
    <glyph glyph-name="two.numr" horiz-adv-x="868" 
d="M754 1208q0 -156 -193 -288l-149 -105h356v-211h-647v197l235 176q127 98 127 172q0 94 -116 94q-91 0 -189 -59l-90 180q152 100 349 100t278 -121q39 -57 39 -135z" />
    <glyph glyph-name="three.numr" horiz-adv-x="868" 
d="M733 1247q0 -133 -133 -194q160 -47 160 -199q0 -121 -104 -196q-104 -74 -280 -74t-296 82l53 176q137 -49 232 -49q145 0 145 84q0 76 -127 75h-141v166h125q109 0 108 80q-1 74 -105 74t-208 -60l-88 156q61 45 145 71t168 25q170 0 258 -58t88 -159z" />
    <glyph glyph-name="four.numr" horiz-adv-x="868" 
d="M440 948v226l-161 -226h161zM668 948h131v-182h-131v-162h-224v162h-381v172l392 508h213v-498z" />
    <glyph glyph-name="five.numr" horiz-adv-x="868" 
d="M539 887q-1 88 -117 88q-60 0 -117 -51l-155 59v461h583v-211h-352v-131q61 31 165 31t175 -69q70 -68 70 -194q1 -126 -99 -206t-272 -80t-301 69l51 174q131 -45 214 -45q155 0 155 105z" />
    <glyph glyph-name="six.numr" horiz-adv-x="868" 
d="M449 770q49 0 79 28t29 68q1 40 -27 66t-67 26q-87 0 -133 -69q6 -57 38 -88t81 -31zM515 1268q-93 0 -138 -49t-51 -152q76 63 211 63t211 -115q37 -58 36 -134q0 -129 -84 -213t-248 -84t-265 104t-101 328t117 336q117 113 305 112q139 0 237 -61l-65 -174
q-72 39 -165 39z" />
    <glyph glyph-name="seven.numr" horiz-adv-x="868" 
d="M102 1229v215h664v-201l-274 -639h-254l266 625h-402z" />
    <glyph glyph-name="eight.numr" horiz-adv-x="858" 
d="M422 772q133 0 133 104q0 30 -14 54q-28 48 -97 47q-69 0 -105 -29q-36 -28 -36 -72t35 -74t84 -30zM432 1292q-49 0 -80 -22q-30 -22 -30 -61t30 -63t72 -24t66 12q50 23 50 68q1 46 -29 68t-79 22zM68 856q0 131 122 197q-102 57 -102 169t97 181q97 68 247 67
q94 0 173 -30t124 -86q45 -55 45 -125q0 -121 -115 -180q131 -66 131 -194t-100 -200q-102 -71 -260 -71t-260 70t-102 202z" />
    <glyph glyph-name="nine.numr" horiz-adv-x="868" 
d="M397 1255q-114 0 -114 -94q0 -47 28 -71q28 -23 72 -23q86 0 129 51q-6 66 -40 102t-75 35zM326 782q186 0 192 174q-90 -59 -204 -59t-189 77q-74 76 -74 202t91 206t239 80q278 0 353 -250q22 -70 22 -151q0 -477 -398 -477q-167 0 -280 55l53 180q86 -37 195 -37z" />
    <glyph glyph-name="zero.sc" horiz-adv-x="1280" 
d="M641 913q-233 -1 -233 -335t233 -334q117 0 175 89t58 248q0 332 -233 332zM641 1182q115 0 214 -38q216 -83 300 -297q45 -117 45 -265t-45 -268t-123 -194q-161 -151 -391 -151q-198 0 -347 112q-212 159 -212 505q0 147 45 262q45 114 122 186t177 110t215 38z" />
    <glyph glyph-name="one.sc" horiz-adv-x="1056" 
d="M950 270v-270h-786v270h252v564l-228 -91l-102 222l395 204h221v-899h248z" />
    <glyph glyph-name="two.sc" horiz-adv-x="1110" 
d="M480 1194q220 0 346 -95q124 -95 124 -265q0 -109 -56 -199t-189 -207l-189 -156h469v-272h-842v233l316 277q102 88 142 140t40 122t-58 106t-149 35q-129 1 -223 -65l-119 215q168 131 388 131z" />
    <glyph glyph-name="three.sc" horiz-adv-x="1042" 
d="M482 1190q240 0 341 -82q102 -82 103 -205q0 -82 -47 -159t-138 -113v-8q109 -25 169 -99t61 -168q0 -174 -130 -275t-341 -101q-133 0 -250 36t-189 101l119 213q111 -86 281 -86q100 0 154 35q55 35 55 96t-48 88t-147 26h-190v211h157q184 0 185 123q0 47 -42 77
t-120 30q-145 0 -260 -78l-121 211q158 127 398 127z" />
    <glyph glyph-name="four.sc" horiz-adv-x="1134" 
d="M629 473v315l-254 -315h254zM1065 473v-233h-158v-240h-289v240h-522v198l574 727h237v-692h158z" />
    <glyph glyph-name="five.sc" horiz-adv-x="1112" 
d="M958 893h-514v-201q80 58 226 58t246 -94t100 -274q0 -179 -130 -291q-130 -111 -362 -111t-383 100l97 235q127 -72 270 -71q94 0 151 40t57 108t-45 106q-46 37 -139 37t-184 -80l-178 98v616h788v-276z" />
    <glyph glyph-name="six.sc" horiz-adv-x="1193" 
d="M618 518q-119 0 -200 -84q10 -88 59 -141t125 -53t123 38t47 102t-43 102q-43 36 -111 36zM680 930q-124 0 -197 -67q-74 -67 -86 -204q129 101 291 101t273 -96t111 -272t-126 -294q-125 -119 -323 -118q-233 0 -373 148q-139 148 -139 446t150 453q151 155 390 155
t391 -103l-127 -215q-111 66 -235 66z" />
    <glyph glyph-name="seven.sc" horiz-adv-x="937" 
d="M29 893v274h843v-233l-405 -934h-307l399 893h-530z" />
    <glyph glyph-name="eight.sc" horiz-adv-x="1073" 
d="M532 227q78 0 123 39q45 38 45 88t-21 79q-45 63 -159 63q-62 0 -110 -37t-48 -95t46 -98t124 -39zM532 926q-63 0 -103 -31t-40 -78t41 -78t102 -31t102 31q40 31 40 78t-39 78q-40 31 -103 31zM532 1182q266 0 381 -148q59 -76 59 -170t-44 -163q-45 -69 -119 -95
q86 -41 139 -116t53 -164q0 -160 -129 -258t-338 -98t-336 98q-128 99 -126 258q0 92 53 169t137 117q-99 35 -147 138q-25 51 -25 106q0 154 124 240t318 86z" />
    <glyph glyph-name="nine.sc" horiz-adv-x="1060" 
d="M488 932q-78 0 -122 -41t-44 -111q0 -143 174 -143q86 0 151 49q33 25 49 57q-10 90 -70 140q-61 49 -138 49zM37 771q0 126 57 222q58 95 156 147t225 52q250 0 388 -152t138 -467q0 -159 -48 -277t-129 -184q-163 -134 -374 -134q-211 1 -350 79l64 219
q137 -45 264 -45t204 70t87 215q-109 -131 -281 -131q-84 0 -164 28q-237 82 -237 358z" />
    <glyph glyph-name="parenleft.sup" horiz-adv-x="598" 
d="M356 1314q0 -290 179 -466l-175 -115q-244 193 -244 559t244 582l168 -125q-172 -145 -172 -435z" />
    <glyph glyph-name="parenright.sup" horiz-adv-x="598" 
d="M543 1293q0 -368 -244 -560l-172 115q176 178 176 464t-174 437l170 125q244 -213 244 -581z" />
    <glyph glyph-name="hyphen.sup" horiz-adv-x="1544" 
d="M1044 1198h-585v260h585v-260z" />
    <glyph glyph-name="exclam.sc" horiz-adv-x="518" 
d="M98 150q0 80 47 122t115 41q68 0 115 -42q47 -41 47 -121t-47 -124t-115 -44t-115 44t-47 124zM377 436h-234l-57 729h348z" />
    <glyph glyph-name="exclamdown.sc" horiz-adv-x="518" 
d="M141 719h234l57 -731h-348zM258 840q-68 0 -115 42t-47 122t47 124t115 43q68 0 115 -44q47 -45 47 -123t-47 -121t-115 -43z" />
    <glyph glyph-name="parenleft.sc" horiz-adv-x="772" 
d="M401 565q0 -225 81 -407t192 -283l-121 -143q-61 49 -106 88q-44 39 -107 118q-63 78 -103 160t-71 205t-31 261t31 261t71 205t103 160t107 118q45 40 104 89l123 -146q-152 -137 -230 -390q-43 -142 -43 -296z" />
    <glyph glyph-name="parenright.sc" horiz-adv-x="722" 
d="M352 565q0 354 -194 602q-37 47 -76 84l121 144q61 -47 104 -87t108 -118t105 -160t69 -205q63 -257 0 -522q-30 -123 -70 -205q-41 -82 -105 -160t-107 -118q-43 -39 -104 -88l-121 143q110 101 190 283t80 407z" />
    <glyph glyph-name="question.sc" horiz-adv-x="974" 
d="M466 311q69 0 116 -43t47 -125t-47 -125t-116 -43t-118 43t-49 125t49 125t118 43zM897 888q0 -152 -102 -237q-43 -35 -87 -65q-104 -70 -104 -135v-56h-268v60q0 99 78 168q34 29 66 55q79 65 77 127q0 96 -143 96q-113 1 -205 -65l-121 231q156 117 406 117t353 -140
q50 -70 50 -156z" />
    <glyph glyph-name="questiondown.sc" horiz-adv-x="954" 
d="M635 707v-72q0 -49 -34 -100t-75 -86q-108 -92 -108 -148q0 -37 26 -53t86 -17q111 0 185 88l157 -219q-102 -92 -184 -122t-199 -29q-201 0 -306 80t-105 208t91 222q38 39 76 73q91 80 91 138v37h299zM472 793q-60 0 -108 44t-48 129t48 129q49 44 121 44t122 -44
q50 -43 50 -115t-25 -113q-49 -74 -160 -74z" />
    <glyph glyph-name="cent.osf" horiz-adv-x="999" 
d="M125 441q0 173 91 286t247 147l-12 226h219l-15 -217q121 -16 201 -70l-90 -235q-59 43 -136 43q-77 1 -124 -49t-47 -140t47 -141t128 -51t140 49l107 -207q-96 -84 -232 -105l17 -210h-220l11 221q-145 39 -239 159q-93 121 -93 294z" />
    <glyph glyph-name="dollar.osf" horiz-adv-x="1062" 
d="M424 850q0 -56 70 -82q27 -10 80 -26t108 -37q150 -51 222 -124t71 -221q0 -148 -94 -248q-94 -99 -254 -128l10 -207h-262l10 205q-174 23 -299 102l90 256q154 -80 307 -80q78 0 121 25t43 69t-36 62t-165 61t-200 90q-144 95 -144 254q0 158 85 251t231 122l-6 197
h247l-6 -195q187 -27 289 -113l-129 -229q-53 39 -126 64t-136 24q-127 0 -127 -92z" />
    <glyph glyph-name="ampersand.sc" horiz-adv-x="1288" 
d="M702 268l-186 164q-109 -88 -108 -149q0 -41 32 -63t90 -21q94 -1 172 69zM653 872q0 84 -101 84q-36 0 -65 -24t-29 -71q0 -46 87 -132q90 74 103 113q5 14 5 30zM125 267q0 93 54 162t169 153q-51 47 -81 85q-74 94 -72 207q0 142 101 230t258 88t255 -75t98 -210
q0 -96 -50 -171t-152 -156l137 -121l131 229l215 -90l-164 -299l184 -162l-172 -162l-153 136q-154 -147 -379 -148q-117 0 -203 38q-86 37 -131 105t-45 161z" />
    <glyph glyph-name="cent.sc" horiz-adv-x="999" 
d="M125 441q0 173 91 286t247 147l-12 226h219l-15 -217q121 -16 201 -70l-90 -235q-59 43 -136 43q-77 1 -124 -49t-47 -140t47 -141t128 -51t140 49l107 -207q-96 -84 -232 -105l17 -210h-220l11 221q-145 39 -239 159q-93 121 -93 294z" />
    <glyph glyph-name="percent.sc" horiz-adv-x="1400" 
d="M985 305q0 -156 90 -155q70 0 85 68q7 32 7 111q0 132 -91 132t-91 -156zM1076 625q138 0 228 -85t89 -237q0 -151 -87 -235q-86 -84 -228 -84t-225 85t-83 235t84 236q84 85 222 85zM342 1026q-92 0 -92 -156t92 -155q51 0 71 37q19 38 19 118t-19 118q-20 38 -71 38z
M375 0h-176l819 1171h174zM338 1192q141 0 230 -86t89 -238t-87 -236t-230 -83q-191 0 -268 146q-39 73 -39 173t40 175q79 149 265 149z" />
    <glyph glyph-name="perthousand.sc" horiz-adv-x="2070" 
d="M1073 461q-90 0 -90 -156q0 -155 83 -155q73 1 90 68q7 32 7 112t-35 111q-20 20 -55 20zM1757 461q-90 0 -90 -158q1 -78 21 -116q20 -37 71 -37t71 36q19 37 19 118t-19 119q-20 38 -73 38zM1069 625q143 0 233 -85t89 -237q0 -151 -87 -235q-86 -84 -228 -84t-226 85
t-84 234q0 100 40 174q80 148 263 148zM1755 625q194 0 276 -147q42 -75 42 -177q0 -149 -87 -233q-88 -84 -228 -84t-224 85t-84 235t85 236q85 85 220 85zM338 1026q-92 0 -92 -156t92 -155q53 0 72 37q18 38 18 118t-18 118q-19 38 -72 38zM373 0h-176l819 1171h172z
M337 1192q138 0 227 -86t89 -238t-87 -236t-228 -83q-141 0 -224 85q-83 86 -83 236t84 236t222 86z" />
    <glyph glyph-name="u1F620.ss01" 
d="M1024 496q128 0 212 -30q144 -53 225 -123q135 -116 165 -263h-127q-57 104 -186 172t-289 67q-245 0 -399 -144q-47 -44 -76 -95h-127q41 178 210 297t392 119zM1372 934q0 -252 -119 -252t-118 252v125l475 151l30 -116l-268 -86v-74zM911 934q1 -252 -117 -252
t-118 252v74l-268 86l30 116l473 -151v-125z" />
    <glyph glyph-name="u1F627.ss01" 
d="M1025 528q-165 0 -288 -78t-168 -231q187 53 455 53t455 -53q-43 153 -166 231t-288 78zM1025 678q275 0 439 -182t166 -471q-66 49 -242 79t-364 29q-369 0 -606 -108q2 289 167 471t440 182zM1376 989q0 -256 -120 -256t-119 256v264l510 -254l-29 -114l-242 119v-15z
M911 989q1 -256 -119 -256t-120 256v15l-240 -119l-31 114l510 254v-264z" />
    <glyph glyph-name="u1F616.ss01" 
d="M1389 434q-73 0 -110 -53q-38 -53 -96 -113q-57 -61 -165 -61t-172 81q-28 34 -52 66q-61 81 -132 80q-147 0 -207 -172l-111 33q26 98 99 197q73 98 212 98q112 -4 179 -78q28 -32 52 -62q57 -72 138 -71q81 0 139 77q25 32 51 62q65 75 179 72q153 0 243 -139
q44 -67 70 -156l-113 -33q-59 172 -204 172zM1565 909l-480 174l54 150l479 -174zM918 1233l53 -150l-479 -174l-54 150z" />
    <glyph glyph-name="u1F615.ss01" 
d="M592 102l-62 170q328 348 926 336l62 -170q-598 12 -926 -336zM1255 1059v-96q0 -164 -130 -164t-130 164v96h260zM653 1198q109 0 109 -229t-109 -230t-109 229t109 230z" />
    <glyph glyph-name="u1F622.ss01" 
d="M1023 444q218 0 384 -105t207 -265h-156q-37 84 -158 138q-122 54 -278 54t-276 -54t-158 -138h-154q39 160 205 265t384 105zM1225 670q1 -37 27 -66t61 -29q35 -1 57 13q46 29 45 74q0 45 -40 104t-56 92q-14 -33 -54 -92t-40 -96zM1457 530q-55 -55 -123 -55
q-123 0 -184 95q-26 42 -26 92t48 127q48 76 69 98q-143 55 -156 340h123q10 -109 33 -160t66 -51t65 51t31 160h125q-10 -260 -137 -330q14 -20 55 -78q67 -94 67 -164t-56 -125zM744 877q-98 0 -158 90t-68 260h125q15 -211 98 -211q43 0 66 51t31 160h125
q-9 -170 -65 -260t-154 -90z" />
    <glyph glyph-name="u1F625.ss01" 
d="M1024 598q223 0 392 -119t210 -297h-127q-78 143 -272 208q-95 32 -189 32q-255 0 -413 -144q-47 -45 -76 -96h-127q41 178 210 297t392 119zM1632 679q0 -36 26 -64q26 -27 60 -27q67 1 86 47q10 20 10 50t-37 86q-39 56 -53 89q-16 -35 -54 -90t-38 -91zM1911 660
q0 -62 -54 -115q-53 -53 -133 -53t-134 53t-54 115t39 120t84 126t55 138h19q10 -70 55 -138t84 -126t39 -120zM1565 997l-68 -116l-410 219l72 119zM952 1100l-409 -219l-68 116l406 222z" />
    <glyph glyph-name="u1F61E.ss01" 
d="M1024 598q223 0 392 -119t210 -297h-127q-57 104 -186 172t-289 68t-289 -68t-186 -172h-127q27 117 112 212q85 96 214 150t276 54zM1295 729q-114 0 -113 244v123l-60 34v158l391 -207v-170l-104 60q0 -242 -114 -242zM866 973q0 -244 -114 -244t-113 242l-104 -60v170
l391 207v-158l-60 -34v-123z" />
    <glyph glyph-name="u1F611.ss01" 
d="M1561 340h-1074v147h1074v-147zM1565 907h-430v150h430v-150zM915 907h-430v150h430v-150z" />
    <glyph glyph-name="u1F60B.ss01" 
d="M1415 203q37 20 39 61t-39 139q-76 -63 -172 -100q59 -81 99 -103t73 3zM1024 264q-206 0 -360 114t-191 284h139q32 -110 146 -186q114 -75 263 -76q150 -1 266 74t151 188h137q-20 -96 -84 -179q75 -161 65 -243t-88 -127q-51 -27 -101 -26q-106 2 -230 187
q-55 -10 -113 -10zM1321 1141q-41 0 -63 -65t-29 -204h-123q6 188 65 292t151 104t149 -104q58 -104 65 -292h-125q-12 187 -45 239q-18 30 -45 30zM803 1024q-21 117 -74 117t-76 -117q-10 -58 -16 -152h-123q4 188 64 292t153 104q126 0 179 -178q28 -90 32 -218h-123
q-6 94 -16 152z" />
    <glyph glyph-name="u1F613.ss01" 
d="M1440 264h-1073v150h1073v-150zM1489 623q-1 -37 25 -63t66 -26t66 28q26 26 26 62t-39 92q-38 56 -52 91q-14 -33 -53 -90t-39 -94zM1580 438q-79 0 -133 52t-54 114t39 122t84 128t55 135h18q14 -97 97 -197t82 -175t-55 -127t-133 -52zM1255 1008q1 -256 -119 -256
t-120 256v325l510 -254l-29 -114l-242 118v-75zM791 1008q0 -256 -120 -256t-120 256v75l-240 -118l-30 114l510 254v-325z" />
    <glyph glyph-name="u1F624.ss01" 
d="M1628 -283q174 -16 193 -120q25 -140 -116 -166q-44 -8 -81 20q-2 -59 -33 -95t-82 -45t-94 15t-65 80q-18 -37 -76 -48t-102 19q-44 31 -55 95t28 104q39 41 110 76l9 -47q-25 -17 -38 -27q-12 -10 -26 -36t-9 -52q15 -79 93 -65q33 2 47 36l39 -2q23 -60 83 -76t106 34
q27 30 28 79l35 19q20 -25 62 -21t56 42q14 37 3 61q-22 51 -75 65q-29 8 -32 8zM804 -645q-78 0 -110 51q-20 -55 -63 -79q-43 -25 -93 -15t-82 46t-34 97q-33 -31 -88 -21t-87 55q-32 44 -20 112q16 98 191 118l-8 -47q-31 -8 -46 -13t-37 -25t-27 -52q-5 -34 14 -58
q18 -24 52 -30t58 23l35 -17q1 -51 27 -81q26 -29 65 -35q90 -13 125 77l39 4q12 -35 46 -41q33 -6 61 11q28 18 33 51q5 34 -8 58t-25 33t-40 28l9 47q158 -72 138 -172t-95 -121q-14 -4 -30 -4zM1026 485q-86 0 -160 -12l-139 -952l-63 14l147 928q-51 -12 -92 -29
l-211 -872l-66 10l211 829q-82 -49 -123 -120h-118q30 87 102 161t180 119l54 211l51 -8l-45 -182q39 12 77 20l25 150l51 -9l-20 -131q153 19 282 -2l-20 133l51 9l25 -152q41 -8 78 -22l-46 184l52 10l55 -217q209 -92 270 -274h-118q-39 66 -111 112l209 -821l-64 -10
l-211 866q-43 18 -92 33l146 -926l-64 -14l-139 950q-78 14 -164 14zM1079 1163l426 123l25 -94l-426 -125zM516 1192l25 94l428 -123l-25 -96z" />
    <glyph glyph-name="u1F62E.ss01" 
d="M1184 88q-113 0 -193 79t-80 191q0 74 37 136q38 62 100 100q62 37 136 37q114 0 192 -80t78 -193q0 -114 -78 -192t-192 -78zM1192 1225q123 0 123 -261t-123 -262q-123 0 -123 262t123 261zM715 1225q123 0 123 -261t-123 -262q-123 0 -123 262t123 261z" />
    <glyph glyph-name="u1F61B.ss01" 
d="M1198 453h-348q14 -187 55 -265t119 -78t118 78q40 77 56 265zM1559 453h-226q-14 -242 -95 -360t-215 -118t-215 118t-93 360h-226v135h1070v-135zM1264 1225q122 0 122 -261t-122 -262q-123 0 -123 262t123 261zM785 1225q122 0 122 -261t-122 -262q-122 0 -122 262
t122 261z" />
    <glyph glyph-name="u1F61D.ss01" 
d="M1198 453h-348q14 -187 55 -265t119 -78t118 78q40 77 56 265zM1559 453h-226q-8 -164 -50 -272q-79 -204 -259 -206q-135 0 -216 118t-93 360h-226v135h1070v-135zM1493 1098l-217 -84v-10l217 -107l-51 -143l-330 219v69l330 199zM938 1042v-69l-332 -219l-51 143
l217 107v10l-217 84l51 143z" />
    <glyph glyph-name="u1F602.ss01" 
d="M1991 428q10 -29 21 -86q19 -101 86 -101q32 -1 56 23t24 57q0 32 -20 51t-42 25q-22 7 -60 13q-36 6 -65 18zM59 428q-31 -10 -88 -21q-99 -19 -101 -86q-1 -32 24 -57q24 -26 56 -24t53 23t33 79t23 86zM985 461q-106 2 -203 22v-131q94 -27 203 -30v139zM1270 483
q-96 -20 -203 -22v-139q109 4 203 30v131zM164 545l10 -13q-35 -46 -49 -114q-15 -68 -27 -127t-48 -97t-102 -37t-112 48q-47 47 -49 113t36 102q38 37 97 49q59 13 128 27t116 49zM2259 318q0 -62 -47 -110t-114 -50q-68 -2 -104 36t-47 97t-25 127t-48 114l12 13
q47 -35 114 -49t125 -26t96 -51t38 -101zM1350 383q162 74 217 213q-104 -59 -217 -92v-121zM700 504q-111 33 -215 92q53 -139 215 -213v121zM232 683q-1 -31 25 -56q27 -25 57 -24q66 2 84 102q11 57 24 86q-29 -9 -87 -21t-80 -34t-23 -53zM1790 627q25 25 24 57
q0 32 -20 50q-20 20 -43 26t-59 13t-64 18q10 -27 22 -85q20 -101 85 -103q30 -1 55 24zM1896 681q0 -63 -43 -107t-98 -51t-96 18q-63 -205 -229 -325t-406 -120q-160 0 -290 56q-256 109 -345 389q-41 -25 -95 -18t-98 50t-45 108q-2 123 132 150q59 13 128 27t115 49
l13 -12q-20 -20 -28 -43l-12 -32t-6 -20q-3 -14 -5 -20t-5 -20q-2 -14 -3 -20t-4 -20q-3 -15 -3 -20q229 -127 553 -127t549 127q0 19 -3 31q-6 22 -10 50q-5 28 -9 37q-5 8 -9 20t-9 20t-11 18t-13 19l13 12q48 -35 114 -49t124 -26t96 -51q38 -38 38 -100zM1256 1075
q-67 0 -78 -227h-103q6 164 52 252t127 88t129 -88t55 -252h-103q-12 227 -79 227zM792 1075q-66 0 -79 -227h-103q6 164 54 252t131 88q109 0 153 -155q23 -77 27 -185h-103q-14 227 -80 227z" />
    <glyph glyph-name="u1F628.ss01" 
d="M1026 594q-138 0 -246 -73t-131 -216h752q-25 141 -131 215t-244 74zM1571 170h-1092q33 357 273 498q120 70 274 70t272 -70q240 -142 273 -498zM1373 1106q28 0 47 -20q20 -20 20 -49q0 -28 -20 -47t-47 -19q-28 0 -48 19t-20 47q0 29 20 49t48 20zM677 1106
q28 0 47 -20t19 -49q0 -28 -19 -47t-47 -19t-48 19t-21 47q0 29 20 49t49 20zM1372 1212q-72 0 -123 -51t-51 -123t51 -123t123 -51t123 51t51 123t-51 123t-123 51zM677 1212q-73 0 -124 -51t-51 -123t51 -123t124 -51t123 51t50 123t-50 123t-123 51zM1372 1311
q113 0 194 -80t81 -193q0 -112 -81 -192t-194 -80q-112 0 -192 80t-80 192t80 193q80 80 192 80zM677 1311q113 0 193 -80t80 -193q0 -112 -80 -192t-194 -80t-193 80q-80 80 -80 192t80 193q80 80 194 80z" />
    <glyph glyph-name="u1F633.ss01" 
d="M662 449h718q0 -150 -104 -256q-104 -107 -253 -107t-255 106t-106 257zM1493 569h418q-39 -67 -112 -95q-40 -15 -97 -23q-112 16 -163 61q-26 22 -46 57zM137 569h418q-31 -51 -78 -80t-131 -38q-112 16 -163 61q-26 22 -46 57zM1458 696q0 30 6 58h475q18 -64 0 -115
h-475q-6 27 -6 57zM590 695q0 -30 -6 -56h-475q-8 27 -8 57t8 58h475q6 -29 6 -59zM1702 936q64 0 118 -31q56 -31 91 -84h-416q33 53 88 84t119 31zM346 936q62 0 118 -31t89 -84h-416q76 115 209 115zM1124 1251l78 123l377 -172l-27 -127zM469 1202l375 172l80 -123
l-428 -176z" />
    <glyph glyph-name="u1F626.ss01" 
d="M1024 565q-191 0 -302 -128q-59 -67 -75 -161h752q-25 139 -131 214t-244 75zM1024 709q232 0 376 -153t169 -415h-1092q16 172 86 300t188 198t273 70zM1262 1368q122 0 122 -261t-122 -261t-123 261q0 261 123 261zM784 1368q123 0 123 -261t-123 -261t-123 261
t123 261z" />
    <glyph glyph-name="u1F600.ss01" 
d="M762 430v-141q102 -29 219 -33v150q-115 4 -219 24zM1286 291v141q-102 -23 -217 -26v-150q117 4 217 35zM1374 453v-131q174 80 234 229q-113 -61 -234 -98zM674 322v131q-119 35 -232 98q58 -149 232 -229zM1022 14q-330 0 -526 207t-197 535q263 -224 723 -226
q333 0 580 128q82 45 145 102q-2 -330 -198 -538q-197 -208 -527 -208zM1262 1225q122 0 122 -261t-122 -262q-123 0 -123 262t123 261zM784 1225q123 0 123 -261t-123 -262q-123 0 -123 262t123 261z" />
    <glyph glyph-name="u1F601.ss01" 
d="M762 430v-141q102 -29 219 -33v150q-115 4 -219 24zM1286 291v141q-102 -23 -217 -26v-150q117 4 217 35zM1374 453v-131q174 80 234 229q-113 -61 -234 -98zM674 322v131q-119 35 -232 98q58 -149 232 -229zM1022 14q-330 0 -526 207t-197 535q263 -224 723 -226
q295 0 523 102q116 52 202 128q-2 -330 -198 -538q-197 -208 -527 -208zM1409 872q-10 264 -88 269q-43 0 -63 -65t-29 -204h-125q6 188 65 292t151 104t150 -104q57 -104 64 -292h-125zM725 1141q-77 0 -88 -269h-125q6 188 66 292t153 104q123 0 178 -178q29 -90 33 -218
h-125q-12 187 -45 239q-18 30 -47 30z" />
    <glyph glyph-name="u1F610.ss01" 
d="M1561 340h-1074v147h1074v-147zM1264 1225q122 0 122 -261t-122 -262q-123 0 -123 262t123 261zM786 1225q123 0 123 -261t-123 -262q-123 0 -123 262t123 261z" />
    <glyph glyph-name="u1F614.ss01" 
d="M1561 340h-1074v147h1074v-147zM1229 793h-123q6 188 65 290q59 103 151 103t149 -102q58 -102 65 -291h-125q-12 208 -54 250q-15 15 -36 16q-41 1 -61 -63t-31 -203zM637 793h-123q6 188 66 290t153 103q57 0 103 -44q99 -94 108 -349h-125q-8 139 -29 202
q-22 63 -63 64q-51 0 -74 -117q-10 -57 -16 -149z" />
    <glyph glyph-name="u1F623.ss01" 
d="M1024 598q223 0 392 -119t210 -297h-127q-57 104 -186 172t-289 68q-242 0 -399 -144q-47 -45 -76 -96h-127q27 117 112 212q85 96 214 150t276 54zM1493 1098l-215 -84v-10l215 -107l-51 -143l-330 219v69l330 199zM938 1042v-69l-332 -219l-51 143l217 107v10l-217 84
l51 143z" />
    <glyph glyph-name="u1F621.ss01" 
d="M1022 303q92 0 150 -54t75 -147h-92q-29 92 -132 92t-132 -92h-92q16 92 74 146q57 54 149 55zM1024 594q240 0 398 -110t206 -279h-135q-70 145 -248 202q-98 31 -222 31q-357 -1 -470 -233h-135q49 169 207 279q159 110 399 110zM1372 975q0 -252 -119 -252t-118 252
v125l475 151l30 -116l-268 -86v-74zM911 975q1 -252 -117 -252t-118 252v74l-268 86l30 116l473 -151v-125z" />
    <glyph glyph-name="u1F60C.ss01" 
d="M1024 119q-238 0 -419 136t-224 343h127q62 -139 202 -227t314 -88t314 88t202 227h127q-43 -207 -224 -343t-419 -136zM1318 766q-91 0 -149 102q-57 102 -63 291h123q11 -139 31 -203t61 -63q41 -1 61 63t29 203h125q-6 -189 -66 -291t-152 -102zM725 766
q-124 0 -179 178q-28 90 -32 215h123q15 -266 90 -266q41 -1 63 63t29 203h125q-6 -189 -66 -291t-153 -102z" />
    <glyph glyph-name="u1F607.ss01" 
d="M1024 119q-238 0 -419 136t-224 343h127q62 -139 202 -227t314 -88t314 88t202 227h127q-43 -207 -224 -343t-419 -136zM1262 1225q122 0 122 -261t-122 -262q-123 0 -123 262t123 261zM784 1225q123 0 123 -261t-123 -262q-123 0 -123 262t123 261zM1023 2103
q-216 0 -395 -47q-180 -47 -280 -125t-100 -168q0 -55 54 -112q123 -130 395 -184q151 -30 325 -29q344 0 561 101t217 222q0 90 -101 168t-281 126t-395 48zM991 2230q415 0 681 -142q120 -65 192 -151q126 -150 31 -316q-79 -140 -311 -247q-232 -106 -562 -104
q-205 0 -381 44q-322 81 -465 273q-63 86 -63 172q0 123 118 231q119 108 330 174t430 66z" />
    <glyph glyph-name="u1F608.ss01" 
d="M1024 119q-238 0 -419 136t-224 343h127q62 -139 202 -227t314 -88t314 88t202 227h127q-43 -207 -224 -343t-419 -136zM1372 934q0 -252 -118 -252t-117 252v207l473 151l30 -116l-268 -86v-156zM913 934q-1 -252 -119 -252t-118 252v156l-268 86l30 116l475 -151v-207z
M1780 2003v-561q-180 166 -486 209zM268 2003l486 -352q-303 -43 -486 -209v561z" />
    <glyph glyph-name="u1F603.ss01" 
d="M1025 172q193 0 341 96t199 273q-240 -135 -541 -138q-299 2 -539 138q51 -177 199 -273t341 -96zM1024 43q-307 0 -488 190t-184 496q244 -207 672 -211q431 0 672 215q-2 -307 -184 -499t-488 -191zM1262 1307q122 0 122 -261t-122 -262q-123 0 -123 262t123 261z
M784 1307q123 0 123 -261t-123 -262q-123 0 -123 262t123 261z" />
    <glyph glyph-name="u1F605.ss01" 
d="M923 172q194 0 341 96t198 273q-240 -135 -540 -138q-299 2 -539 138q51 -177 199 -273t341 -96zM922 43q-307 0 -489 190q-181 190 -183 496q244 -207 672 -211q312 0 536 121q76 41 135 94q-2 -307 -183 -499t-488 -191zM1577 956q0 -26 20 -48q19 -22 53 -22t54 22
t20 51t-30 73t-43 72q-11 -26 -31 -54t-32 -48t-11 -46zM1800 945q0 -50 -43 -93t-105 -43t-106 43q-43 43 -43 93t31 97q31 46 67 100t44 109h14q8 -55 44 -108q37 -53 67 -101t30 -97zM1126 872h-125q7 188 67 292t152 104t148 -104q57 -104 64 -292h-123q-16 226 -62 258
q-12 10 -28 11q-41 0 -63 -65t-30 -204zM630 1141q-38 0 -52 -32q-30 -66 -43 -237h-125q6 188 66 292t152 104t148 -104q57 -104 64 -292h-123q-18 269 -87 269z" />
    <glyph glyph-name="u1F604.ss01" 
d="M1025 172q193 0 341 96t199 273q-240 -135 -541 -138q-299 2 -539 138q51 -177 199 -273t341 -96zM1024 43q-307 0 -488 190t-184 496q244 -207 672 -211q431 0 672 215q-2 -307 -184 -499t-488 -191zM1321 1141q-41 0 -63 -65t-29 -204h-125q6 188 66 292t152 104
t148 -104q57 -104 64 -292h-123q-12 187 -45 239q-18 30 -45 30zM727 1141q-41 0 -61 -65t-29 -204h-125q6 188 66 292t152 104q90 0 148 -104t64 -292h-123q-12 188 -46 239q-19 30 -46 30z" />
    <glyph glyph-name="u1F606.ss01" 
d="M1025 451q-300 0 -540 135q51 -178 199 -272t341 -95q193 1 341 95t199 272q-240 -135 -540 -135zM1024 88q-307 0 -488 192t-184 496q250 -211 677 -211q428 0 667 213q-2 -306 -184 -498t-488 -192zM1493 1145l-217 -84v-12l217 -105l-51 -143l-332 219v70l332 196z
M936 1090v-70l-330 -219l-51 143l215 105v12l-215 84l51 141z" />
    <glyph glyph-name="u1F60A.ss01" 
d="M1024 154q-238 0 -419 136t-224 343h127q62 -139 202 -227t314 -88t314 88t202 227h127q-43 -207 -224 -343t-419 -136zM1229 872h-123q6 188 65 292t151 104t149 -104q58 -104 65 -292h-125q-13 174 -38 227q-16 40 -52 42q-41 0 -61 -65t-31 -204zM727 1141
q-75 0 -90 -269h-123q6 188 66 292t153 104q57 0 103 -44q99 -94 108 -352h-125q-12 187 -45 239q-18 30 -47 30z" />
    <glyph glyph-name="u1F60E.ss01" 
d="M1032 119q-238 0 -419 136t-224 343h127q62 -139 202 -227t314 -88t314 88q139 88 202 227h127q-29 -135 -120 -245t-229 -172t-294 -62zM1468 727h-137q-82 0 -118 32t-62 99l-78 215h-82l-80 -215q-16 -45 -33 -71q-39 -60 -145 -60h-137q-100 0 -149 43
q-48 43 -74 139l-51 164h-179l70 144h1622l70 -144h-162l-51 -164q-29 -96 -77 -139t-147 -43z" />
    <glyph glyph-name="u1F60F.ss01" 
d="M934 145v160q184 0 328 113q143 113 186 287h162q-48 -283 -311 -453q-166 -107 -365 -107zM1427 936h-430v147h430v-147zM868 936h-430v147h430v-147z" />
    <glyph glyph-name="u1F612.ss01" 
d="M1587 412h-1073v147h1073v-147zM1645 1157v-125q0 -262 -122 -262t-122 262h-301v125h545zM948 1157v-125q0 -262 -122 -262t-121 262h-302v125h545z" />
    <glyph glyph-name="uni2639.ss01" 
d="M639 172h-145q0 186 155 317q156 131 375 131t374 -130q155 -132 154 -318h-145q0 117 -111 202t-272 85q-160 0 -272 -84t-113 -203zM1262 1278q122 0 122 -260t-122 -260t-123 260q0 260 123 260zM784 1278q123 0 123 -260t-123 -260t-123 260t123 260z" />
    <glyph glyph-name="u1F609.ss01" 
d="M1024 119q-238 0 -419 136t-224 343h127q62 -139 202 -227t314 -88t314 88t202 227h127q-43 -207 -224 -343t-419 -136zM1483 1112l-187 -100l187 -125l-53 -129l-285 203v104l285 176zM785 1276q122 0 122 -258t-122 -258t-122 258t122 258z" />
    <glyph glyph-name="u1F61F.ss01" 
d="M1022 303q92 0 150 -54t75 -147h-92q-29 92 -132 92t-132 -92h-92q16 92 74 146q57 54 149 55zM1042 594q142 0 271 -53q252 -103 315 -336h-135q-51 104 -169 169q-118 64 -301 64t-301 -64t-169 -169h-135q25 82 75 151q169 238 549 238zM1294 784q-113 0 -112 244v123
l-60 33v159l391 -208v-168l-104 57q-2 -240 -115 -240zM864 1028q0 -244 -112 -244t-115 240l-105 -57v168l394 208v-159l-62 -33v-123z" />
    <glyph glyph-name="faceWithStuckOutTongueAndWinkin" 
d="M1198 451h-348q19 -240 87 -308q34 -33 87 -32q78 0 117 77t57 263zM1559 451h-226q-14 -240 -95 -358t-216 -118t-215 118t-92 358h-226v135h1070v-135zM1483 1112l-187 -102l187 -121l-53 -131l-285 203v104l285 176zM785 1276q122 0 122 -258t-122 -258t-122 258
t122 258z" />
    <glyph glyph-name="whiteSmilingFace.ss01" 
d="M1024 119q-238 0 -419 136t-224 343h127q62 -139 202 -227t314 -88t314 88t202 227h127q-29 -135 -120 -245t-228 -172t-295 -62zM1264 1225q122 0 122 -261t-122 -262q-123 0 -123 262t123 261zM786 1225q123 0 123 -261t-123 -262q-123 0 -123 262t123 261z" />
    </font>
</defs>
</svg>
