<?xml version="1.0" standalone="no"?>
<!DOCTYPE svg PUBLIC "-//W3C//DTD SVG 1.1//EN" "http://www.w3.org/Graphics/SVG/1.1/DTD/svg11.dtd" >
<svg xmlns="http://www.w3.org/2000/svg">
<metadata>
Created by FontPrep 20130207 at Thu Oct 17 11:56:30 2013
 By Rodrigo Saiani
Copyright (c) 2012 by Rodrigo Saiani. All rights reserved.
</metadata>
<defs>
<font id="235574058e6e9e7c1150edd3754917ef" horiz-adv-x='1024' >
  <font-face 
    font-family="MotivaSans-Regular"
    font-weight="400"
    font-stretch="normal"
    units-per-em="2048"
    panose-1="0 0 5 0 0 0 0 0 0 0"
    ascent="1540"
    descent="-508"
    x-height="1073"
    cap-height="1434"
    bbox="-212.026 -844 2260.02 2230"
    underline-thickness="102"
    underline-position="-51"
    unicode-range="U+0020-1F633"
  />
<missing-glyph horiz-adv-x="1234" 
d="M332 123h571v1190h-571v-1190zM1028 0h-821v1434h821v-1434z" />
    <glyph glyph-name="f_f" unicode="ff" horiz-adv-x="1286" 
d="M1149 1413q-164 0 -164 -149v-191h266v-155h-266v-918h-184v918h-389v-918h-185v918h-157v155h157v189q0 152 86 228t238 77q100 0 168 -23l-33 -145q-49 14 -108 14q-166 0 -166 -149v-191h389v189q0 152 85 228t236 77q102 0 168 -23l-30 -145q-51 14 -111 14z" />
    <glyph glyph-name="f_f_i" unicode="ffi" horiz-adv-x="1671" 
d="M1536 1073v-1073h-182v915h-377v-915h-184v915h-381v-915h-185v915h-157v158h157v189q0 152 86 228t238 77q100 0 168 -23l-33 -145q-49 14 -108 14q-166 0 -166 -149v-191h381v166q0 326 352 326q135 0 225 -41q35 -16 76 -45l-82 -129q-70 61 -195 61q-193 0 -192 -172
v-166h559z" />
    <glyph glyph-name="f_f_l" unicode="ffl" horiz-adv-x="1802" 
d="M1632 0h-186v1184q0 123 -51 176t-163 53t-160 -45t-48 -156v-139h262v-155h-262v-918h-186v918h-426v-918h-185v918h-157v155h157v189q0 152 86 228t238 77q100 0 168 -23l-33 -145q-49 14 -108 14q-166 0 -166 -149v-191h426v141q0 352 391 353q207 1 305 -97t98 -278
v-1192z" />
    <glyph glyph-name=".notdef" horiz-adv-x="1234" 
d="M332 123h571v1190h-571v-1190zM1028 0h-821v1434h821v-1434z" />
    <glyph glyph-name=".null" horiz-adv-x="0" 
 />
    <glyph glyph-name="nonmarkingreturn" horiz-adv-x="681" 
 />
    <glyph glyph-name="space" unicode=" " horiz-adv-x="589" 
 />
    <glyph glyph-name="exclam" unicode="!" horiz-adv-x="618" 
d="M172 113q0 69 39 105t83 36q152 0 154 -146q0 -40 -18 -73q-37 -62 -109 -63q-71 -1 -110 36t-39 105zM395 426h-162l-30 1010h229z" />
    <glyph glyph-name="quotedbl" unicode="&#x22;" horiz-adv-x="903" 
d="M668 979h-121l-29 455h178zM356 979h-118l-31 455h178z" />
    <glyph glyph-name="numbersign" unicode="#" horiz-adv-x="1400" 
d="M881 915h-326l-49 -380h325zM1286 535v-125h-340l-49 -410h-131l51 410h-328l-53 -410h-133l53 410h-286v125h303l49 380h-309v125h325l51 394h132l-52 -394h326l49 394h129l-47 -394h305v-125h-321l-47 -380h323z" />
    <glyph glyph-name="dollar" unicode="$" horiz-adv-x="1181" 
d="M1100 393q0 -176 -123 -289t-334 -127l10 -208h-155l10 211q-231 18 -406 126l68 158q192 -110 418 -110t294 136q19 40 19 85q0 79 -50 130t-161 95q-35 14 -83 32q-277 107 -360 182t-102 138q-18 64 -18 121q0 162 112 265t310 118l-8 193h153l-8 -195
q211 -18 375 -129l-84 -145q-174 115 -369 114q-131 0 -208 -57q-76 -57 -76 -151t69 -148q72 -53 174 -92q221 -84 317 -136q146 -77 191 -181q25 -58 25 -136z" />
    <glyph glyph-name="percent" unicode="%" horiz-adv-x="1552" 
d="M1175 520q-79 0 -123 -56t-44 -156t44 -156q44 -55 122 -56q162 0 161 211q-1 101 -41 157t-119 56zM1175 639q136 0 223 -88t87 -243q0 -156 -87 -244t-223 -88t-226 87q-89 88 -89 245t89 244q90 87 226 87zM383 1339q-163 0 -165 -229q0 -84 43 -139q44 -55 122 -56
q164 0 164 212t-164 212zM367 0h-140l969 1434h139zM383 1458q135 0 223 -88t88 -243t-87 -243t-223 -87q-136 0 -225 87t-89 244q0 102 43 180q84 150 270 150z" />
    <glyph glyph-name="ampersand" unicode="&#x26;" horiz-adv-x="1501" 
d="M590 141q188 0 319 162l-338 315l-75 -55q-144 -106 -144 -226t106 -170q54 -26 132 -26zM410 1109q0 -91 87 -178q39 -39 101 -95l74 55q158 117 157 250q0 57 -29 95q-51 65 -165 66q-113 2 -169 -50t-56 -143zM618 1460q182 0 285 -85q104 -85 105 -220
q0 -203 -209 -362l-86 -66l291 -272q27 49 49 108l86 211l153 -63l-82 -207q-39 -96 -77 -170l260 -244l-119 -125l-236 219q-86 -112 -191 -160t-245 -49q-213 -1 -327 93t-113 247q0 203 237 375l54 39q-121 113 -173 193t-53 190q1 156 105 252t286 96z" />
    <glyph glyph-name="quotesingle" unicode="'" horiz-adv-x="497" 
d="M309 979h-119l-30 455h178z" />
    <glyph glyph-name="parenleft" unicode="(" horiz-adv-x="774" 
d="M586 1624l80 -86q-4 -4 -51 -47t-110 -131q-62 -88 -96 -168t-61 -208q-57 -270 1 -551q28 -130 63 -212t90 -161q55 -80 84 -110t53 -52t27 -27l-78 -84q-45 31 -87 65t-111 116t-118 175q-49 94 -86 245t-36 323q0 171 36 321t84 244q49 94 117 173t111 113t88 62z" />
    <glyph glyph-name="parenright" unicode=")" horiz-adv-x="776" 
d="M627 712q0 -170 -41 -326q-42 -155 -96 -252t-140 -198t-164 -149l-77 84q25 23 51 49t84 106q57 79 99 167t76 227t34 291q0 153 -34 291t-75 224t-100 164q-58 79 -82 102t-51 46l77 86q33 -20 70 -50t109 -113q71 -83 123 -177t94 -248t43 -324z" />
    <glyph glyph-name="asterisk" unicode="*" horiz-adv-x="880" 
d="M485 1323l183 117l59 -101l-192 -100l190 -96l-57 -99l-183 115l17 -211h-123l12 211l-176 -115l-59 99l192 96l-192 102l57 97l178 -113l-12 211h123z" />
    <glyph glyph-name="plus" unicode="+" horiz-adv-x="1476" 
d="M807 786h436v-137h-436v-461h-139v461h-437v137h437v461h139v-461z" />
    <glyph glyph-name="comma" unicode="," horiz-adv-x="630" 
d="M436 81q0 -79 -46 -169t-142 -162l-64 49q96 94 115 201q-41 6 -74 39t-33 76t18 69q32 49 94 51q62 1 97 -37t35 -117z" />
    <glyph glyph-name="hyphen" unicode="-" horiz-adv-x="929" 
d="M766 524h-600v158h600v-158z" />
    <glyph glyph-name="period" unicode="." horiz-adv-x="649" 
d="M316 236q46 0 74 -14q63 -32 64 -107q1 -74 -36 -109t-93 -35t-93 35q-36 35 -35 97q0 62 36 98q38 35 83 35z" />
    <glyph glyph-name="slash" unicode="/" horiz-adv-x="731" 
d="M197 -86h-164l538 1626h162z" />
    <glyph glyph-name="zero" unicode="0" horiz-adv-x="1341" 
d="M670 1282q-115 0 -198 -64q-171 -133 -171 -505q0 -269 98 -417q97 -148 271 -148t272 149q98 150 98 416q0 372 -172 505q-83 64 -198 64zM671 1458q116 0 216 -45t181 -133t127 -234t46 -313q0 -313 -115 -500q-160 -260 -456 -260q-235 0 -398 179q-80 88 -126 232
t-46 330t46 332q84 269 308 367q101 45 217 45z" />
    <glyph glyph-name="one" unicode="1" horiz-adv-x="1159" 
d="M1008 172v-172h-809v172h309v1047l-330 -152l-76 141l457 232h146v-1268h303z" />
    <glyph glyph-name="two" unicode="2" horiz-adv-x="1308" 
d="M602 1458q252 0 389 -115t137 -307q0 -123 -67 -238q-67 -114 -320 -325l-342 -297h772v-176h-1019v170q403 354 532 465t177 181q47 70 55 112q7 41 8 82q0 134 -90 202t-246 68q-209 0 -371 -121l-86 152q219 147 471 147z" />
    <glyph glyph-name="three" unicode="3" horiz-adv-x="1261" 
d="M598 1458q240 0 369 -97t129 -231t-70 -222q-70 -89 -190 -130v-8q141 -18 233 -112t92 -228q0 -203 -163 -330t-416 -127q-150 0 -283 42t-227 118l94 150q176 -133 380 -133t308 80q104 81 104 203t-98 181t-303 60h-160v164h148q156 0 254 59t98 163t-88 162
q-88 60 -238 60q-194 0 -362 -127l-94 133q201 170 483 170z" />
    <glyph glyph-name="four" unicode="4" horiz-adv-x="1355" 
d="M844 532v637l-518 -637h518zM1255 532v-157h-221v-375h-194v375h-723v139l751 920h166v-902h221z" />
    <glyph glyph-name="five" unicode="5" horiz-adv-x="1310" 
d="M1087 1260h-688v-445q125 86 310 86q275 0 406 -190q69 -100 69 -244q0 -225 -152 -359t-424 -134t-432 130l82 150q146 -102 334 -102t291 85q102 85 102 224t-90 210q-89 71 -245 71t-304 -111l-135 80v729h876v-180z" />
    <glyph glyph-name="six" unicode="6" horiz-adv-x="1288" 
d="M1016 454q0 132 -90 204t-219 71q-248 0 -398 -188q8 -185 110 -289t258 -103q157 1 248 87t91 218zM412 812q136 87 321 87t330 -104q70 -51 112 -137t42 -195q-1 -209 -149 -348t-374 -140q-286 1 -440 179t-154 523t149 549q172 232 486 232q262 0 434 -117l-98 -147
q-152 88 -334 88t-310 -123t-136 -442q61 57 121 95z" />
    <glyph glyph-name="seven" unicode="7" horiz-adv-x="1181" 
d="M55 1260v174h1026v-162l-626 -1272h-211l630 1260h-819z" />
    <glyph glyph-name="eight" unicode="8" horiz-adv-x="1273" 
d="M637 690q-150 0 -245 -76t-95 -194q0 -167 154 -238q78 -35 186 -35q164 0 250 74t86 196q0 121 -93 197t-243 76zM928 1068q0 102 -78 162q-78 58 -212 58t-213 -58t-79 -159q0 -165 200 -210q44 -9 91 -9q127 0 209 57t82 159zM637 1458q221 0 355 -101t134 -265
q0 -115 -60 -198t-167 -122q115 -31 195 -132t80 -234q0 -195 -142 -314t-397 -119q-254 0 -394 117t-141 307q0 135 80 239t199 136q-146 56 -203 180q-29 63 -29 140q1 164 135 265t355 101z" />
    <glyph glyph-name="nine" unicode="9" horiz-adv-x="1253" 
d="M586 1282q-148 0 -237 -78t-89 -207t77 -203t205 -75q128 0 248 52t168 134q-8 186 -115 282q-109 95 -257 95zM520 147q192 -1 320 139q127 140 129 437q-101 -94 -203 -136t-234 -42t-233 48q-102 48 -169 152t-67 252q-1 207 147 334t359 127q287 0 439 -171t151 -511
q-1 -434 -185 -618q-184 -183 -460 -183q-225 1 -405 105l69 153q150 -86 342 -86z" />
    <glyph glyph-name="colon" unicode=":" horiz-adv-x="649" 
d="M461 122q0 -147 -137 -151q-37 0 -68 16q-68 33 -68 137q0 56 38 92t99 36q60 0 98 -37t38 -93zM461 968q0 -145 -137 -149q-134 0 -136 149q0 56 39 93q40 37 99 37t97 -37t38 -93z" />
    <glyph glyph-name="semicolon" unicode=";" horiz-adv-x="649" 
d="M316 236q52 0 88 -38t36 -117t-46 -169t-142 -162l-64 49q96 94 115 201q-43 6 -75 39t-32 85t34 82t86 30zM324 1096q55 0 91 -35t36 -97t-36 -98t-91 -35q-55 0 -93 35q-37 36 -37 98t37 97q38 35 93 35z" />
    <glyph glyph-name="less" unicode="&#x3c;" horiz-adv-x="1024" 
d="M891 1001l-662 -407l662 -416l-80 -119l-754 471v129l756 474z" />
    <glyph glyph-name="equal" unicode="=" horiz-adv-x="1400" 
d="M1171 340h-944v129h944v-129zM1171 748h-944v131h944v-131z" />
    <glyph glyph-name="greater" unicode="&#x3e;" horiz-adv-x="1021" 
d="M965 657v-127l-754 -471l-80 119l664 416l-660 407l74 132z" />
    <glyph glyph-name="question" unicode="?" horiz-adv-x="1079" 
d="M454 252q93 0 127 -64q17 -32 17 -74t-17 -73q-34 -62 -105 -63q-72 -1 -109 36q-37 36 -37 100t37 101t87 37zM500 1458q200 0 316 -95t116 -245t-137 -278q-57 -52 -115 -106q-139 -127 -143 -279h-156q0 96 36 176t88 133t103 101q125 118 125 220q0 103 -68 155
q-69 52 -188 52q-195 0 -332 -100l-79 131q72 59 188 97t246 38z" />
    <glyph glyph-name="at" unicode="@" horiz-adv-x="1824" 
d="M698 486q0 -118 45 -171t119 -53q111 0 182 96q1 27 5 56l45 329q-68 20 -133 21q-123 0 -193 -80t-70 -198zM920 -293q-162 0 -276 24q-249 52 -395 230q-147 178 -147 512q0 188 69 347q69 160 189 268t287 168q168 60 371 60q202 0 362 -78q160 -80 251 -232t91 -372
t-113 -369q-114 -148 -309 -148q-156 0 -221 106q-103 -98 -241 -98t-222 87q-84 86 -84 272t126 300t329 115q141 0 275 -53l-60 -416q-12 -88 20 -131t89 -43q113 0 181 102t67 283q0 260 -154 396t-422 137q-312 0 -510 -184q-96 -89 -150 -226q-55 -137 -55 -301
q-1 -325 170 -468t454 -143q146 0 331 54l45 -133q-186 -66 -348 -66z" />
    <glyph glyph-name="A" unicode="A" horiz-adv-x="1441" 
d="M979 502l-262 733l-262 -733h524zM1036 342h-639l-121 -342h-202l534 1434h219l541 -1434h-211z" />
    <glyph glyph-name="B" unicode="B" horiz-adv-x="1312" 
d="M360 164h297q162 0 243 64t81 175q0 246 -315 246h-306v-485zM360 805h242q137 -1 217 65t80 179q0 221 -303 221h-236v-465zM168 1434h457q229 0 348 -92t119 -257q0 -106 -56 -193t-153 -132q131 -33 215 -126t84 -237q0 -197 -138 -297t-364 -100h-512v1434z" />
    <glyph glyph-name="C" unicode="C" horiz-adv-x="1355" 
d="M835.5 1458q260.5 0 434.5 -129l-94 -147q-156 102 -362 102q-208 0 -340 -135q-144 -148 -144 -436q0 -145 39 -257t107 -178q132 -130 347 -129t379 136l101 -140q-197 -172 -489 -172q-292 -1 -480 175q-94 88 -147.5 233t-54.5 315q-1 168 34 292q66 232 237.5 351
t432 119z" />
    <glyph glyph-name="D" unicode="D" horiz-adv-x="1423" 
d="M360 1262v-1086h244q236 0 363 138.5t127 412.5q0 535 -490 535h-244zM168 1434h418q306 0 498 -166q98 -84 153 -221.5t55 -318.5t-55 -322.5t-153 -228.5q-198 -177 -498 -177h-418v1434z" />
    <glyph glyph-name="E" unicode="E" horiz-adv-x="1187" 
d="M1081 1268h-723v-453h637v-168h-637v-475h723v-172h-913v1434h913v-166z" />
    <glyph glyph-name="F" unicode="F" horiz-adv-x="1077" 
d="M1008 1268h-650v-500h568v-166h-568v-602h-190v1434h840v-166z" />
    <glyph glyph-name="G" unicode="G" horiz-adv-x="1519" 
d="M1346 799v-592q-197 -231 -558 -232q-268 -1 -455 175q-93 88 -147.5 235t-54.5 338q0 299 142 485q193 250 534 250q297 0 506 -172l-103 -137q-176 135 -397 135t-351 -144.5t-130 -417t129 -419.5t346 -147q153 0 274 74q47 28 78 65v344h-424v160h611z" />
    <glyph glyph-name="H" unicode="H" horiz-adv-x="1478" 
d="M1313 0h-191v641h-764v-641h-190v1434h190v-627h764v627h191v-1434z" />
    <glyph glyph-name="I" unicode="I" horiz-adv-x="569" 
d="M379 0h-191v1434h191v-1434z" />
    <glyph glyph-name="J" unicode="J" horiz-adv-x="948" 
d="M780 1434v-969q0 -293 -148 -399q-134 -96 -352 -95q-110 0 -188 19l19 168q37 -8 119 -8q170 0 265 63.5t95 271.5v949h190z" />
    <glyph glyph-name="K" unicode="K" horiz-adv-x="1320" 
d="M362 0h-194v1434h194v-686l617 686h246l-623 -664l670 -770h-252l-551 627l-107 -113v-514z" />
    <glyph glyph-name="L" unicode="L" horiz-adv-x="1134" 
d="M358 170h691v-170h-881v1434h190v-1264z" />
    <glyph glyph-name="M" unicode="M" horiz-adv-x="1783" 
d="M1618 1434v-1434h-186v1059l-488 -1043h-106l-486 1043v-1059h-184v1434h190l541 -1174l526 1174h193z" />
    <glyph glyph-name="N" unicode="N" horiz-adv-x="1499" 
d="M1331 0h-162l-811 1100v-1100h-190v1434h166l805 -1102v1102h192v-1434z" />
    <glyph glyph-name="O" unicode="O" horiz-adv-x="1638" 
d="M819 1284q-211 0 -349 -144.5t-138 -416.5t137 -424t346 -152q163 0 287 93q206 155 207 483q0 272 -139.5 416.5t-350.5 144.5zM821.5 1458q104.5 0 201.5 -26q207 -56 345.5 -233t138.5 -476q0 -437 -298 -635q-173 -115 -388 -115q-271 1 -471 179
q-100 88 -159.5 235.5t-59.5 316.5t39 292.5t105.5 207.5t155.5 142.5t187.5 85t203 26.5z" />
    <glyph glyph-name="P" unicode="P" horiz-adv-x="1169" 
d="M358 1268v-561h240q152 -1 232 77t81 220q0 264 -313 264h-240zM168 1434h442q164 0 279 -56q223 -108 223 -379q0 -199 -130 -329t-370 -129h-254v-541h-190v1434z" />
    <glyph glyph-name="Q" unicode="Q" horiz-adv-x="1638" 
d="M332 723q0 -272 137 -424t346 -152q254 0 396 207q98 145 98 369q1 273 -139 417t-351 144t-349 -144t-138 -417zM131 692q0 391 217 592q118 109 303 155q82 19 178 19q95 0 193 -26q209 -57 347 -234q138 -176 138 -467t-126 -471t-326 -250l401 -178l-90 -151
l-549 292q-269 0 -470 181q-99 88 -158 235q-58 147 -58 303z" />
    <glyph glyph-name="R" unicode="R" horiz-adv-x="1327" 
d="M358 711h324q137 0 214 79.5t77 204.5q0 219 -205 261q-55 12 -129 12h-281v-557zM358 545v-545h-190v1434h491q270 0 392.5 -115t122.5 -289t-75 -288.5t-216 -163.5l356 -578h-213l-330 545h-338z" />
    <glyph glyph-name="S" unicode="S" horiz-adv-x="1181" 
d="M127 1077q0 170 130 275.5t366.5 105.5t437.5 -133l-84 -145q-174 115 -369 114q-131 0 -207.5 -57t-76.5 -145.5t54.5 -139.5t134 -83.5t138 -56t114.5 -45.5q142 -56 238.5 -138.5t96.5 -231.5q0 -193 -138.5 -307.5t-375.5 -114.5q-123 0 -253.5 35t-230.5 96l68 158
q190 -111 403 -110q166 0 247 62.5t81 170t-137 179.5q-77 40 -215 89q-166 67 -236.5 111.5t-104.5 84.5q-81 95 -81 226z" />
    <glyph glyph-name="T" unicode="T" horiz-adv-x="1325" 
d="M1229 1268h-471v-1268h-191v1268h-469v166h1131v-166z" />
    <glyph glyph-name="U" unicode="U" horiz-adv-x="1433" 
d="M1266 1434v-916q0 -329 -230 -468q-131 -79 -338 -79q-208 1 -364 125q-78 62 -122 170.5t-44 251.5v916h190v-924q0 -170 94.5 -264t265.5 -94t264 94t93 264v924h191z" />
    <glyph glyph-name="V" unicode="V" horiz-adv-x="1443" 
d="M836 0h-226l-544 1434h208l455 -1241l438 1241h211z" />
    <glyph glyph-name="W" unicode="W" horiz-adv-x="2060" 
d="M1573 0h-180l-365 1139l-360 -1139h-181l-444 1434h205l340 -1160l358 1160h180l355 -1162l340 1162h196z" />
    <glyph glyph-name="X" unicode="X" horiz-adv-x="1406" 
d="M764 754l545 -754h-242l-414 600l-377 -600h-227l500 743l-479 691h243l349 -545l346 545h243z" />
    <glyph glyph-name="Y" unicode="Y" horiz-adv-x="1339" 
d="M741 0h-190v573l-502 861h223l379 -680l375 680h215l-500 -863v-571z" />
    <glyph glyph-name="Z" unicode="Z" horiz-adv-x="1339" 
d="M1210 166v-166h-1093v143l817 1125h-772v166h1005v-134l-823 -1134h866z" />
    <glyph glyph-name="bracketleft" unicode="[" horiz-adv-x="600" 
d="M498 1483h-187v-1585h187v-142h-348v1868h348v-141z" />
    <glyph glyph-name="backslash" unicode="\" horiz-adv-x="753" 
d="M639 -86h-162l-485 1626h162z" />
    <glyph glyph-name="bracketright" unicode="]" horiz-adv-x="600" 
d="M451 -244h-347v142h185v1585h-185v141h347v-1868z" />
    <glyph glyph-name="asciicircum" unicode="^" horiz-adv-x="1398" 
d="M1032 852l-352 528l-350 -528h-201l463 692h178l463 -692h-201z" />
    <glyph glyph-name="underscore" unicode="_" horiz-adv-x="1462" 
d="M1323 -160h-1182v146h1182v-146z" />
    <glyph glyph-name="grave" unicode="`" horiz-adv-x="663" 
d="M526 1208h-133l-254 250h240z" />
    <glyph glyph-name="a" unicode="a" horiz-adv-x="1148" 
d="M547 467q-262 0 -262 -170q0 -94 62.5 -135t160.5 -41q203 0 289 145v174q-121 27 -250 27zM981 717v-502q0 -86 63 -86l39 2l-18 -123q-29 -20 -92 -20t-99 27.5t-55 95.5q-119 -137 -334 -138q-174 0 -277.5 79t-103.5 239t118 234.5t291 74.5t282 -22v137
q0 127 -61.5 178t-180.5 51q-184 0 -317 -104l-78 118q172 141 398 141.5t325.5 -90.5t99.5 -292z" />
    <glyph glyph-name="b" unicode="b" horiz-adv-x="1241" 
d="M629 137q141 0 230 113t89 305q0 119 -39 206q-78 173 -253 173t-306 -168v-492q88 -137 279 -137zM350 950h4q125 150 330 150t329 -144t124 -408q1 -265 -135 -420t-348 -155t-326 144h-6l-33 -117h-123v1540h184v-590z" />
    <glyph glyph-name="c" unicode="c" horiz-adv-x="1095" 
d="M633 -27q-231 0 -381 150.5t-150 415t152 413t376 148.5t378 -129l-86 -131q-66 51 -129.5 75.5t-153.5 24.5q-156 0 -252 -104.5t-96 -292.5q0 -127 47 -220.5t127 -140.5t178 -47q162 0 299 111l88 -123q-66 -66 -168 -108t-229 -42z" />
    <glyph glyph-name="d" unicode="d" horiz-adv-x="1232" 
d="M604 934q-122 0 -218 -98t-96 -297q1 -200 97 -300t217 -100q172 0 281 152v516q-117 127 -281 127zM1069 0h-131l-29 125h-6q-57 -66 -143 -109t-178 -43t-173 32t-152 95t-113 176t-42 233q0 217 70 344q133 243 397 247q199 0 316 -113v553h184v-1540z" />
    <glyph glyph-name="e" unicode="e" horiz-adv-x="1196" 
d="M607.5 948q-140.5 0 -225.5 -90t-95 -258h616q4 166 -75.5 257t-220 91zM608 -27q-210 -1 -353 135q-71 68 -112 176.5t-41 245.5q0 266 137.5 418t368 152t351 -138.5t120.5 -353.5q0 -82 -10 -145h-778q41 -334 346 -334q191 0 330 117l86 -119q-178 -154 -445 -154z
" />
    <glyph glyph-name="f" unicode="f" horiz-adv-x="712" 
d="M227 1073v189q0 152 86 228t238 77q100 0 168 -23l-33 -145q-49 14 -108 14q-166 0 -166 -149v-191h266v-158h-266v-915h-185v915h-157v158h157z" />
    <glyph glyph-name="g" unicode="g" horiz-adv-x="1251" 
d="M629 934q-137 0 -235.5 -96.5t-98.5 -272.5t91 -272t251 -96t266 143v477q-102 117 -274 117zM907 0v158q-74 -72 -148.5 -99.5t-174.5 -27.5q-201 0 -341.5 141t-140.5 391q0 299 222 452q123 85 270 85q199 0 324 -117h8l45 90h116v-1024q0 -163 -63 -273
q-118 -206 -430 -206q-242 0 -408 127l76 141q135 -104 326 -104q141 0 230 65.5t89 200.5z" />
    <glyph glyph-name="h" unicode="h" horiz-adv-x="1226" 
d="M348 1540v-614q76 90 159 131t189 41q160 0 262.5 -92.5t102.5 -268.5v-737h-184v698q0 127 -66 181.5t-168 54.5q-168 0 -293 -197v-737h-184v1540h182z" />
    <glyph glyph-name="i" unicode="i" horiz-adv-x="536" 
d="M358 0h-182v1073h182v-1073zM145 1354q0 56 36 86t86 30t86 -30t36 -87q0 -58 -36 -88t-86 -30t-86 31t-36 88z" />
    <glyph glyph-name="j" unicode="j" horiz-adv-x="550" 
d="M375 1073v-1196q0 -151 -96 -229t-248 -78q-106 0 -176 29l34 147q49 -14 129 -14t126 42t46 148v1151h185zM281 1470q51 0 87 -30t36 -86q0 -57 -36 -88t-87 -31t-86 30t-35 88q0 57 35 87t86 30z" />
    <glyph glyph-name="k" unicode="k" horiz-adv-x="1105" 
d="M350 0h-184v1540h184v-975l420 508h238l-402 -450l477 -623h-233l-365 489l-135 -153v-336z" />
    <glyph glyph-name="l" unicode="l" horiz-adv-x="526" 
d="M354 0h-184v1540h184v-1540z" />
    <glyph glyph-name="m" unicode="m" horiz-adv-x="1830" 
d="M664 1098q221 0 305 -197q139 197 354 197q162 0 252 -94t90 -275v-729h-186v715q0 219 -187 219q-166 0 -282 -195v-739h-189v721q0 113 -53 163t-138 50t-158 -53t-120 -142v-739h-186v1073h143l25 -153h8q63 92 138 135t184 43z" />
    <glyph glyph-name="n" unicode="n" horiz-adv-x="1226" 
d="M1061 743v-743h-184v690q0 131 -52.5 185.5t-150.5 54.5q-197 0 -328 -199v-731h-180v1073h127l29 -164h6q83 96 143 131q102 60 252 60t244 -91t94 -266z" />
    <glyph glyph-name="o" unicode="o" horiz-adv-x="1257" 
d="M293 536.5q0 -188.5 90 -294t245.5 -105.5t247 106.5t91.5 293.5q0 225 -129 331q-84 69 -224.5 68.5t-230.5 -106t-90 -294zM628.5 1100q104.5 0 197 -33t167 -99.5t118.5 -177t44 -254t-44 -254t-118.5 -177t-167 -99.5t-197 -33t-196.5 33t-167 99.5t-119 177t-44 254
t44 254t119 177t167 99.5t196.5 33z" />
    <glyph glyph-name="p" unicode="p" horiz-adv-x="1216" 
d="M588 129q135 0 236 114q102 113 102 307t-82 289t-205 95q-170 0 -289 -201v-526q54 -43 106 -61t132 -17zM676 1098q188 0 313 -137t125 -399t-145 -426q-145 -163 -348 -163q-160 0 -271 70v-465h-184v1495h129l37 -155h4q68 90 148 135t192 45z" />
    <glyph glyph-name="q" unicode="q" horiz-adv-x="1241" 
d="M632 934q-144 0 -242 -102t-97 -297q0 -105 33 -185q57 -139 187 -189q54 -22 108 -22q145 1 268 99v577q-113 119 -257 119zM889 -422v481q-125 -86 -306 -86t-326 141q-71 68 -113 178t-42 247t45 249q82 203 280 278q87 34 179 34q176 0 301 -115h6l52 88h110v-1495
h-186z" />
    <glyph glyph-name="r" unicode="r" horiz-adv-x="761" 
d="M348 0h-182v1073h139l33 -158h6q74 184 262 185q76 0 117 -27l-31 -168q-61 20 -108 21q-162 0 -236 -230v-696z" />
    <glyph glyph-name="s" unicode="s" horiz-adv-x="974" 
d="M457 133q117 0 180 46t63 107.5t-34.5 95t-128 62.5t-119.5 39q-156 53 -227.5 119t-71.5 200t109.5 216t281.5 82q106 0 201.5 -30t160.5 -81l-71 -131q-145 90 -289 90q-96 0 -154.5 -42t-58.5 -109t57.5 -104t102.5 -51q45 -12 99 -28t92 -30q120 -45 179.5 -107
t59.5 -167t-50.5 -180t-146.5 -116t-210.5 -41t-215 32t-166.5 85l58 148q76 -64 196 -92q54 -12 103 -13z" />
    <glyph glyph-name="t" unicode="t" horiz-adv-x="784" 
d="M422 1073h264v-158h-264v-675q0 -102 88 -103q63 0 141 35l49 -139q-104 -59 -221 -60q-242 0 -241 234v708h-179v158h179v158l88 119h96v-277z" />
    <glyph glyph-name="u" unicode="u" horiz-adv-x="1214" 
d="M1049 1073v-1073h-134l-38 158q-70 -88 -156 -136q-85 -48 -225 -47.5t-235 95t-95 286.5v717h182v-674q0 -258 199 -258q98 0 173 50.5t146 138.5v743h183z" />
    <glyph glyph-name="v" unicode="v" horiz-adv-x="1087" 
d="M1061 1073l-436 -1073h-179l-417 1073h194l318 -880l321 880h199z" />
    <glyph glyph-name="w" unicode="w" horiz-adv-x="1587" 
d="M1559 1073l-377 -1073h-131l-271 793l-280 -793h-131l-340 1073h186l236 -825l274 825h127l268 -835l260 835h179z" />
    <glyph glyph-name="x" unicode="x" horiz-adv-x="1005" 
d="M993 0h-215l-274 422l-279 -422h-215v6l391 551l-370 508v8h221l250 -389l252 389h213v-6l-359 -512l385 -549v-6z" />
    <glyph glyph-name="y" unicode="y" horiz-adv-x="1161" 
d="M291 -428q-104 0 -187 27l33 143q63 -20 129 -20.5t125.5 50t93.5 140.5l21 55l-453 1106h195l348 -917l315 917h193l-418 -1141q-131 -360 -395 -360z" />
    <glyph glyph-name="z" unicode="z" horiz-adv-x="976" 
d="M901 160v-160h-819v135l571 776h-553v162h781v-143l-588 -770h608z" />
    <glyph glyph-name="braceleft" unicode="{" horiz-adv-x="804" 
d="M702 1612v-113q-94 -9 -148 -71t-54 -164v-312q0 -84 -56 -147t-114 -76v-6q57 -12 113 -78t57 -145v-314q0 -100 55 -163t147 -74v-111q-172 0 -271 94t-99 252v262q0 100 -50 154t-137 64v122q83 12 135 68t52 150v262q0 156 100 251t270 95z" />
    <glyph glyph-name="bar" unicode="|" horiz-adv-x="466" 
d="M297 -166h-127v1868h127v-1868z" />
    <glyph glyph-name="braceright" unicode="}" horiz-adv-x="802" 
d="M98 1612q172 0 272 -95t99 -251v-262q0 -94 53 -150t135 -68v-122q-86 -8 -137 -62t-51 -156v-262q0 -158 -98 -252t-273 -94v111q94 9 150 73t55 164v314q0 80 56 146t114 77v6q-59 11 -115 75t-55 148v312q-1 102 -55 164t-150 71v113z" />
    <glyph glyph-name="asciitilde" unicode="~" horiz-adv-x="1286" 
d="M395 608q-76 0 -121 -90h-143q29 125 99 192q71 66 154 66t231 -41q147 -41 201 -41q103 0 145 90h165q-32 -133 -110 -195q-78 -63 -164 -63t-234 41t-223 41z" />
    <glyph glyph-name="exclamdown" unicode="&#xa1;" horiz-adv-x="618" 
d="M428 -383h-240l39 1012h162zM172 955q0 80 67 113q31 15 81 15t90 -36q39 -37 39 -105t-40 -104q-39 -36 -99 -37q-60 0 -99 37t-39 117z" />
    <glyph glyph-name="cent" unicode="&#xa2;" horiz-adv-x="1103" 
d="M102 726q0 242 127 386q127 145 322 172l-6 215h141l-4 -213q193 -14 326 -127l-86 -131q-66 51 -129 76t-154 24q-156 0 -252 -104t-96 -292t100 -299q100 -110 257 -110t294 111l88 -123q-129 -127 -330 -147l7 -193h-142l4 193q-207 20 -337 170t-130 392z" />
    <glyph glyph-name="sterling" unicode="&#xa3;" horiz-adv-x="1318" 
d="M524 664v-265q0 -96 -26 -151t-82 -96q70 18 133 18t151 -13q183 -27 338 5l35 -164q-96 -25 -209 -25q-113 1 -211 13q-97 12 -205 12t-204 -25l-58 148q143 76 144 244v299h-131v131h131v282q0 188 107 286q108 97 276 97q233 0 395 -117l-96 -149q-135 92 -278 92
t-186 -100q-24 -53 -24 -137v-254h426v-131h-426z" />
    <glyph glyph-name="currency" unicode="&#xa4;" horiz-adv-x="1310" 
d="M653 401q123 0 203 79t80 217t-79 216t-203 78t-204 -78t-79 -216q-1 -138 79 -217t203 -79zM656 231q-169 0 -291 80l-160 -159l-103 100l160 156q-90 118 -90 290t90 289l-156 160l99 100l164 -164q121 78 287 78t288 -80l164 164l100 -98l-161 -162q88 -119 88 -289
t-84 -286l157 -156l-98 -102l-162 159q-123 -80 -292 -80z" />
    <glyph glyph-name="yen" unicode="&#xa5;" horiz-adv-x="1320" 
d="M1157 750v-134h-397l-2 -4v-133h399v-135h-399v-344h-191v344h-403v135h403l-2 137h-401v134h319l-417 684h229l373 -654l376 654h213l-415 -684h315z" />
    <glyph glyph-name="brokenbar" unicode="&#xa6;" horiz-adv-x="460" 
d="M293 1438v-1323h-125v1323h125z" />
    <glyph glyph-name="section" unicode="&#xa7;" horiz-adv-x="1034" 
d="M525 883q-93 0 -149 -45t-56 -124t54 -122q56 -43 151 -43t151 43q55 43 55 122t-56 124q-57 45 -150 45zM489 115q221 0 222 149q0 76 -67 104t-149 47q-83 19 -135 35t-96 47q-45 30 -75 84q-29 54 -29 135q0 80 49 146t141 92q-84 32 -134 94t-50 142q0 129 97 200
q97 70 272 70t303 -59l-47 -129q-109 43 -231 43t-174 -38q-54 -38 -54 -96q0 -57 40 -93t84 -50t94 -26t78 -20q142 -35 204 -99q61 -64 61 -164q0 -170 -201 -248q199 -63 199 -227q1 -127 -103 -206t-294 -79t-342 76l51 133q113 -63 286 -63z" />
    <glyph glyph-name="dieresis" unicode="&#xa8;" horiz-adv-x="663" 
d="M612 1367q0 -120 -103 -120q-46 0 -76 26.5t-30 71t14.5 70t38 36.5t61.5 11t66.5 -27.5t28.5 -67.5zM164 1247q-113 0 -113 98q0 62 29 89.5t76 27.5t75.5 -27.5t28.5 -81t-28.5 -80t-67.5 -26.5z" />
    <glyph glyph-name="copyright" unicode="&#xa9;" horiz-adv-x="1687" 
d="M850 342q-164 0 -269 98t-105 286t106 286t262 98t260 -88l-53 -98q-53 37 -97 53t-108 16q-110 1 -178 -69t-68 -195q0 -82 34 -143q69 -123 222 -123q119 0 207 74l57 -103q-106 -92 -270 -92zM846 1341q-262 0 -440 -172q-178 -173 -178 -453t178 -452t440 -172
q170 0 309 75t222 219t83 332t-83 332t-222 218t-309 73zM845 1462q148 0 282 -52q285 -110 399 -383q59 -142 59 -309t-60 -309q-115 -273 -398 -384q-134 -53 -282 -53q-149 0 -283 52q-284 113 -399 385q-60 142 -61 309q0 167 61 309q115 273 399 383q135 52 283 52z
" />
    <glyph glyph-name="ordfeminine" unicode="&#xaa;" horiz-adv-x="811" 
d="M367 1071q-129 0 -127 -90q0 -45 30 -70t76 -24q95 0 158 59v115q-49 10 -137 10zM387 1452q250 0 250 -221v-289q0 -51 47 -51h21l-9 -96q-33 -10 -67 -11q-88 0 -111 62q-78 -64 -181 -64t-163 54t-59 144q0 89 63 140q64 51 158 51t172 -12v49q0 129 -135 129
q-90 0 -176 -43l-47 90q94 68 237 68z" />
    <glyph glyph-name="guillemotleft" unicode="&#xab;" horiz-adv-x="980" 
d="M852 811l-242 -289l242 -286l-104 -95l-318 379l313 383zM479 811l-243 -289l241 -286l-104 -95l-316 379l310 383z" />
    <glyph glyph-name="logicalnot" unicode="&#xac;" horiz-adv-x="1366" 
d="M1196 309h-141v373h-881v135h1022v-508z" />
    <glyph glyph-name="registered" unicode="&#xae;" horiz-adv-x="1687" 
d="M717 987v-231h131q61 0 98 34t37 87q0 111 -135 110h-131zM1112 887q0 -138 -133 -203l172 -322h-139l-146 287h-149v-287h-117v736h256q196 0 243 -131q13 -37 13 -80zM846 1341q-262 0 -440 -172q-178 -173 -178 -453t178 -452t439 -172t438 172t177 454t-176 452
t-438 171zM845 1462q148 0 282 -52q285 -110 399 -383q59 -142 59 -309t-60 -309q-115 -273 -398 -384q-134 -53 -282 -53q-149 0 -283 52q-284 113 -399 385q-60 142 -61 309q0 167 61 309q115 273 399 383q135 52 283 52z" />
    <glyph glyph-name="macron" unicode="&#xaf;" horiz-adv-x="663" 
d="M569 1323h-475v111h475v-111z" />
    <glyph glyph-name="degree" unicode="&#xb0;" horiz-adv-x="778" 
d="M528 1176q0 68 -38 104t-90 35q-52 1 -82 -15q-66 -34 -66 -113t38 -115t100 -36t100 36t38 104zM389 1452q119 0 205 -72t86 -204t-86 -203q-86 -70 -206 -70t-204 70t-84 203q0 132 85 204t204 72z" />
    <glyph glyph-name="plusminus" unicode="&#xb1;" horiz-adv-x="1243" 
d="M1130 33h-1013v135h1013v-135zM692 971h438v-135h-438v-461h-135v461h-440v135h440v461h135v-461z" />
    <glyph glyph-name="acute" unicode="&#xb4;" horiz-adv-x="663" 
d="M274 1208h-135l148 250h237z" />
    <glyph glyph-name="paragraph" unicode="&#xb6;" horiz-adv-x="1050" 
d="M139 1102q0 154 91 243t290 89h363v-1434h-142v1300h-120v-1300h-142v756q-340 40 -340 346z" />
    <glyph glyph-name="periodcentered" unicode="&#xb7;" horiz-adv-x="575" 
d="M288 766q58 0 99 -37t41 -107t-40 -106q-40 -37 -99 -37t-100 37q-39 37 -39 107q0 71 40 107t98 36z" />
    <glyph glyph-name="cedilla" unicode="&#xb8;" horiz-adv-x="663" 
d="M203 -334q147 24 147 92q0 31 -15.5 47.5t-40 16.5t-40.5 -10l-72 61l80 141h105l-62 -98q78 8 127 -36t49 -107q-1 -63 -33 -105q-62 -81 -210 -94z" />
    <glyph glyph-name="ordmasculine" unicode="&#xba;" horiz-adv-x="823" 
d="M598 1116q0 100 -51 158t-134 57q-83 0 -134 -57q-51 -56 -51 -158t50 -160q52 -58 135 -57q83 0 134 58q51 59 51 159zM414 1452q181 0 271 -146q48 -79 48 -190q0 -164 -95 -251t-226 -87t-225 86q-93 86 -93 251t93 251q94 86 227 86z" />
    <glyph glyph-name="guillemotright" unicode="&#xbb;" horiz-adv-x="980" 
d="M924 520l-316 -379l-104 95l241 286l-241 289l110 92zM551 520l-318 -379l-104 95l242 286l-242 289l111 92z" />
    <glyph glyph-name="onequarter" unicode="&#xbc;" horiz-adv-x="2121" 
d="M1759 322v282l-225 -282h225zM1907 322h127v-125h-127v-201h-148v201h-385v120l406 498h127v-493zM514 739h174v-131h-502v131h174v514l-159 -67l-54 114l261 125h106v-686zM1409 1542l-586 -1800h-123l590 1800h119z" />
    <glyph glyph-name="onehalf" unicode="&#xbd;" horiz-adv-x="2121" 
d="M1678 827q148 1 230 -67q81 -68 81 -176q0 -172 -228 -346l-143 -109h391v-137h-592v125l236 188q166 133 166 256q0 59 -41 92t-107 33q-107 0 -203 -74l-71 115q133 100 281 100zM514 739h174v-131h-502v131h174v514l-159 -67l-54 114l261 125h106v-686zM1409 1542
l-586 -1800h-123l590 1800h119z" />
    <glyph glyph-name="threequarters" unicode="&#xbe;" horiz-adv-x="2121" 
d="M1759 322v282l-225 -282h225zM2034 322v-125h-127v-201h-148v201h-385v120l406 498h127v-493h127zM390 1442q154 0 232 -58t78 -149q0 -63 -41 -115t-112 -73q186 -35 186 -201q0 -115 -95 -190q-95 -74 -257 -74t-289 96l66 117q115 -74 216 -74t147 36t46 96
q0 120 -182 120h-90v123h74q77 0 121 28t45 82q0 102 -146 103q-105 0 -205 -80l-71 102q123 111 277 111zM1409 1542l-586 -1800h-123l590 1800h119z" />
    <glyph glyph-name="questiondown" unicode="&#xbf;" horiz-adv-x="1140" 
d="M547 -365q-199 -1 -316 95t-117 238t102 246q44 44 95 93t95 92t74 107t30 133h156q0 -96 -36 -176t-88 -133q-52 -54 -104 -102q-124 -116 -123 -219q0 -103 69 -156t187 -54q193 1 330 101l82 -129q-73 -59 -189 -97t-247 -39zM585 842q-60 0 -98 37q-37 37 -36 100
q0 63 36 100q37 37 87 37t80 -16q63 -33 64 -109q1 -75 -36 -112t-97 -37z" />
    <glyph glyph-name="Agrave" unicode="&#xc0;" horiz-adv-x="1441" 
d="M979 502l-262 733l-262 -733h524zM1036 342h-639l-121 -342h-202l534 1434h219l541 -1434h-211zM674 1569l-254 250h239l148 -250h-133z" />
    <glyph glyph-name="Aacute" unicode="&#xc1;" horiz-adv-x="1441" 
d="M979 502l-262 733l-262 -733h524zM1036 342h-639l-121 -342h-202l534 1434h219l541 -1434h-211zM772 1569h-135l147 250h238z" />
    <glyph glyph-name="Acircumflex" unicode="&#xc2;" horiz-adv-x="1441" 
d="M979 504l-262 731l-262 -731h524zM1036 342h-639l-121 -342h-202l534 1434h219l541 -1434h-211zM604 1589h-174l234 242h106l223 -242h-168l-112 109z" />
    <glyph glyph-name="Atilde" unicode="&#xc3;" horiz-adv-x="1441" 
d="M979 502l-262 733l-262 -733h524zM1036 342h-639l-121 -342h-202l534 1434h219l541 -1434h-211zM843 1604q-56 0 -124 38t-105 37q-72 0 -110 -84l-94 50q26 85 78 125t108 40t125 -38q70 -38 98 -37q60 0 101 92l100 -51q-25 -80 -73 -126t-104 -46z" />
    <glyph glyph-name="Adieresis" unicode="&#xc4;" horiz-adv-x="1441" 
d="M979 502l-262 733l-262 -733h524zM1036 342h-639l-121 -342h-202l534 1434h219l541 -1434h-211zM905 1608q-114 0 -114 106t108 109q45 0 73 -28t27 -81t-27 -80q-28 -26 -67 -26zM647 1714q0 -106 -112 -106q-39 0 -68 28t-29 79q0 52 29 80t76 28t75 -28t29 -81z" />
    <glyph glyph-name="Aring" unicode="&#xc5;" horiz-adv-x="1441" 
d="M979 502l-262 733l-262 -733h524zM1036 342h-639l-121 -342h-202l534 1434h219l541 -1434h-211zM651 1731q0 -82 72 -82q33 0 59 27t8 76q-18 46 -67 46q-15 0 -29 -6q-42 -19 -43 -61zM883 1723q0 -71 -46 -111t-115 -39q-69 0 -114 40q-45 41 -45 111t46 110t114 40
t114 -40t46 -111z" />
    <glyph glyph-name="AE" unicode="&#xc6;" horiz-adv-x="1843" 
d="M893 451v784l-379 -784h379zM1085 1264v-453h574v-170h-574v-471h650v-170h-842v285h-459l-137 -285h-223l721 1434h940v-170h-650z" />
    <glyph glyph-name="Ccedilla" unicode="&#xc7;" horiz-adv-x="1355" 
d="M940 -220q0 -139 -147 -188q-43 -14 -97 -18l-34 92q103 16 131 52q14 20 14 46q0 56 -57 58q-20 0 -39 -10l-72 61l61 107q-242 28 -403 208t-166 527q0 185 52 331q51 146 147 234q193 178 480 178q286 0 460 -129l-94 -147q-156 102 -362 102t-344 -141
q-140 -141 -140 -431q0 -291 139 -428t354 -136t379 137l101 -140q-197 -172 -500 -172h-4l-35 -57q78 8 127 -36t49 -100z" />
    <glyph glyph-name="Egrave" unicode="&#xc8;" horiz-adv-x="1187" 
d="M1081 1268h-723v-453h637v-168h-637v-475h723v-172h-913v1434h913v-166zM682 1569h-135l-252 250h240z" />
    <glyph glyph-name="Eacute" unicode="&#xc9;" horiz-adv-x="1187" 
d="M1081 1268h-723v-453h637v-168h-637v-475h723v-172h-913v1434h913v-166zM647 1569h-135l145 250h240z" />
    <glyph glyph-name="Ecircumflex" unicode="&#xca;" horiz-adv-x="1187" 
d="M358 1268v-453h637v-168h-637v-475h723v-172h-913v1434h913v-166h-723zM479 1589h-174l234 242h106l223 -242h-168l-112 109z" />
    <glyph glyph-name="Edieresis" unicode="&#xcb;" horiz-adv-x="1187" 
d="M1081 1268h-723v-453h637v-168h-637v-475h723v-172h-913v1434h913v-166zM666 1714q0 109 114 109q39 0 67 -28q27 -28 27 -72q-1 -115 -102 -115q-66 0 -92 47q-14 25 -14 59zM418 1823q47 0 76 -28q28 -28 28 -81t-28 -80t-76 -26q-102 0 -105 106q0 53 29 81t76 28z
" />
    <glyph glyph-name="Igrave" unicode="&#xcc;" horiz-adv-x="569" 
d="M379 0h-191v1434h191v-1434zM367 1569h-134l-253 250h239z" />
    <glyph glyph-name="Iacute" unicode="&#xcd;" horiz-adv-x="569" 
d="M379 0h-191v1434h191v-1434zM334 1569h-135l145 250h238z" />
    <glyph glyph-name="Icircumflex" unicode="&#xce;" horiz-adv-x="569" 
d="M188 1434h191v-1434h-191v1434zM555 1589h-168l-113 109l-108 -109h-174l233 242h107z" />
    <glyph glyph-name="Idieresis" unicode="&#xcf;" horiz-adv-x="569" 
d="M379 0h-191v1434h191v-1434zM352 1714q0 53 29 81t76 28t75 -28t29 -80q0 -52 -29 -80t-73 -27q-107 0 -107 106zM0 1726q0 97 112 97q39 0 68 -28t29 -81t-29 -80t-76 -26q-104 0 -104 118z" />
    <glyph glyph-name="Eth" unicode="&#xd0;" horiz-adv-x="1613" 
d="M551 176h244q237 0 363 138t126 413q0 535 -489 535h-244v-455h235v-145h-235v-486zM358 1434h418q307 0 506 -172t201 -535q1 -180 -55 -321q-56 -140 -153 -228q-197 -177 -499 -178h-418v662h-190v145h190v627z" />
    <glyph glyph-name="Ntilde" unicode="&#xd1;" horiz-adv-x="1499" 
d="M1331 0h-162l-811 1100v-1100h-190v1434h166l805 -1102v1102h192v-1434zM850 1610q-47 0 -115 38t-104 38q-72 0 -111 -84l-94 51q25 84 78 125t108 41t125 -39t99 -39q59 0 100 94l100 -53q-54 -172 -186 -172z" />
    <glyph glyph-name="Ograve" unicode="&#xd2;" horiz-adv-x="1638" 
d="M1309 723q1 273 -139 417t-351 144t-349 -144t-138 -416t137 -425q137 -152 346 -152q254 0 396 207q98 145 98 369zM821 1458q346 0 543 -254q143 -182 143 -481q0 -437 -298 -635q-173 -115 -388 -115q-273 0 -472 179q-99 88 -159 235q-59 147 -59 317q0 317 140 494
t347 234q99 26 203 26zM889 1569h-135l-252 250h239z" />
    <glyph glyph-name="Oacute" unicode="&#xd3;" horiz-adv-x="1638" 
d="M1309 723q1 273 -139 417t-351 144t-349 -144t-138 -416t137 -425q137 -152 346 -152q254 0 396 207q98 145 98 369zM821 1458q346 0 543 -254q143 -182 143 -481q0 -437 -298 -635q-173 -115 -388 -115q-273 0 -472 179q-99 88 -159 235q-59 147 -59 317q0 317 140 494
t347 234q99 26 203 26zM854 1569h-135l145 250h240z" />
    <glyph glyph-name="Ocircumflex" unicode="&#xd4;" horiz-adv-x="1638" 
d="M1309 723q1 273 -139 417t-348 144t-349 -140t-141 -416t137 -429q137 -152 347 -152t345 143q68 70 108 182t40 251zM821 1458q346 0 543 -254q143 -182 143 -481q0 -437 -298 -635q-173 -115 -388 -115q-273 0 -472 179q-99 88 -159 235q-59 147 -59 317q0 317 140 494
t347 234q99 26 203 26zM686 1589h-174l233 242h107l223 -242h-168l-112 109z" />
    <glyph glyph-name="Otilde" unicode="&#xd5;" horiz-adv-x="1638" 
d="M1309 723q1 273 -139 417t-351 144t-349 -144t-138 -416t137 -425q137 -152 346 -152q254 0 396 207q98 145 98 369zM806 1458q344 0 539 -230q162 -194 162 -505q0 -187 -58 -335q-104 -265 -377 -370q-120 -45 -252 -45q-272 0 -471 179q-99 88 -159 235
q-59 147 -59 317q0 317 144 500q67 84 156 143q170 111 375 111zM924 1604q-56 0 -124 38t-104 37q-72 0 -110 -84l-97 50q27 85 80 125t107 40t126 -38q71 -38 99 -37q59 0 100 92l99 -51q-25 -80 -72 -126q-48 -46 -104 -46z" />
    <glyph glyph-name="Odieresis" unicode="&#xd6;" horiz-adv-x="1638" 
d="M1309 723q1 273 -139 417t-351 144t-349 -144t-138 -416t137 -425q137 -152 346 -152q254 0 396 207q98 145 98 369zM806 1458q344 0 539 -230q162 -194 162 -505q0 -187 -58 -335q-104 -265 -377 -370q-120 -45 -252 -45q-272 0 -471 179q-99 88 -159 235
q-59 147 -59 317q0 317 144 500q67 84 156 143q170 111 375 111zM887 1775q26 48 100 48q39 0 67 -28t28 -72q-1 -115 -103 -115q-66 0 -92 47q-15 25 -15 59t15 61zM729 1727q0 -119 -103 -119t-106 106q0 54 30 81q30 28 76 28t74 -28t29 -68z" />
    <glyph glyph-name="multiply" unicode="&#xd7;" horiz-adv-x="1351" 
d="M1192 111l-102 -107l-412 428l-414 -426l-104 105l411 428l-413 430l106 102l412 -426l411 426l105 -106l-412 -426z" />
    <glyph glyph-name="Oslash" unicode="&#xd8;" horiz-adv-x="1638" 
d="M1309 723q0 294 -168 444l-549 -966q100 -53 202 -53t174 22q150 48 245.5 188t95.5 365zM821 1284q-213 0 -351 -144.5t-138.5 -420.5t151.5 -434l543 956q-94 43 -205 43zM1507 723q0 -187 -58 -335q-57 -148 -157 -236q-201 -178 -471 -179q-172 0 -317 72l-139 -248
l-117 72l141 250q-258 205 -258 604q-1 357 217 561q117 110 303 154q82 20 170 20q158 0 295 -59l129 229l119 -63l-131 -234q274 -197 274 -608z" />
    <glyph glyph-name="Ugrave" unicode="&#xd9;" horiz-adv-x="1433" 
d="M1266 1434v-916q0 -327 -230 -468q-128 -77 -337 -78t-365 123q-78 62 -122 171t-44 252v916h190v-924q0 -170 94 -264t266 -94q171 0 264 94t93 264v924h191zM788 1569h-133l-254 250h240z" />
    <glyph glyph-name="Uacute" unicode="&#xda;" horiz-adv-x="1433" 
d="M1266 1434v-916q0 -327 -230 -468q-128 -77 -337 -78t-365 123q-78 62 -122 171t-44 252v916h190v-924q0 -170 94 -264t266 -94q171 0 264 94t93 264v924h191zM754 1569h-136l148 250h238z" />
    <glyph glyph-name="Ucircumflex" unicode="&#xdb;" horiz-adv-x="1433" 
d="M1266 1434v-916q0 -143 -44 -252t-122 -171t-173 -93t-209 -31t-210 31t-174 93t-122 171t-44 252v916h190v-924q0 -170 94 -264t266 -94q171 0 264 94t93 264v924h191zM586 1589h-174l233 242h107l223 -242h-168l-113 109z" />
    <glyph glyph-name="Udieresis" unicode="&#xdc;" horiz-adv-x="1433" 
d="M1266 1434v-916q0 -143 -44 -252t-122 -171t-173 -93t-209 -31t-210 31t-174 93t-122 171t-44 252v916h190v-924q0 -229 165 -315q81 -43 194 -43q172 0 265 94t93 264v924h191zM879 1823q47 0 75 -28t27 -80q0 -52 -28 -80q-29 -27 -75 -27t-76 26t-30 80q0 53 30 81
t77 28zM420 1726q0 97 112 97q39 0 68 -28t29 -81t-29 -80t-76 -26q-104 0 -104 118z" />
    <glyph glyph-name="Yacute" unicode="&#xdd;" horiz-adv-x="1339" 
d="M741 0h-190v573l-502 861h223l379 -680l375 680h215l-500 -863v-571zM711 1569h-136l146 250h237z" />
    <glyph glyph-name="Thorn" unicode="&#xde;" horiz-adv-x="1148" 
d="M362 1018v-545h226q141 0 222 75t81 212q0 258 -303 258h-226zM362 1190h248q236 0 359 -119t123 -315t-125 -323q-125 -128 -355 -128h-250v-305h-194v1434h194v-244z" />
    <glyph glyph-name="germandbls" unicode="&#xdf;" horiz-adv-x="1159" 
d="M166 0v1221q0 159 97 251t279 92t283 -89q101 -90 101 -233t-71 -230q-29 -37 -59 -69q-30 -31 -52 -63t-22 -66q1 -56 120 -141q49 -36 97 -80t83 -114t35 -153q1 -168 -99 -258t-252 -90t-257 38l38 144q101 -31 189 -31t140 55t52 127q0 126 -115 219q-48 39 -97 77
q-117 92 -115 200q0 79 59 144q59 66 84 99q53 69 53 160q0 92 -50 142t-142 49q-193 0 -193 -191v-1210h-186z" />
    <glyph glyph-name="agrave" unicode="&#xe0;" horiz-adv-x="1148" 
d="M285 297q0 -176 213 -176t299 145v174q-121 27 -250 27q-262 0 -262 -170zM981 717v-502q0 -86 63 -86l39 2l-18 -123q-29 -20 -92 -20t-100 27q-36 28 -54 96q-119 -137 -334 -138q-174 0 -277 79q-104 79 -104 239q0 161 118 235t291 74t282 -22v137q1 127 -61 178
t-181 51q-184 0 -317 -104l-78 118q172 142 398 142t326 -92t99 -291zM506 1462l147 -250h-133l-254 250h240z" />
    <glyph glyph-name="aacute" unicode="&#xe1;" horiz-adv-x="1148" 
d="M285 297q0 -176 213 -176t299 145v174q-121 27 -250 27q-262 0 -262 -170zM981 717v-502q0 -86 63 -86l39 2l-18 -123q-29 -20 -92 -20t-100 27q-36 28 -54 96q-119 -137 -334 -138q-174 0 -277 79q-104 79 -104 239q0 161 118 235t291 74t282 -22v137q1 127 -61 178
t-181 51q-184 0 -317 -104l-78 118q172 142 398 142t326 -92t99 -291zM868 1462l-250 -250h-135l146 250h239z" />
    <glyph glyph-name="acircumflex" unicode="&#xe2;" horiz-adv-x="1148" 
d="M285 297q0 -176 213 -176t299 145v174q-121 27 -250 27q-262 0 -262 -170zM973 -12q-63 0 -100 27q-36 28 -54 96q-119 -137 -334 -138q-174 0 -277 79q-104 79 -104 239q0 161 118 235t291 74t282 -22v137q1 127 -61 178t-181 51q-184 0 -317 -104l-78 118
q172 142 398 142t324 -92t99 -291l2 -502q0 -86 63 -86l39 2l-18 -123q-29 -20 -92 -20zM559 1343l-108 -110h-175l234 242h106l224 -242h-168z" />
    <glyph glyph-name="atilde" unicode="&#xe3;" horiz-adv-x="1148" 
d="M285 297q0 -176 213 -176t299 145v174q-121 27 -250 27q-262 0 -262 -170zM981 717v-502q0 -86 63 -86l39 2l-18 -123q-29 -20 -92 -20t-100 27q-36 28 -54 96q-119 -137 -334 -138q-174 0 -277 79q-104 79 -104 239q0 161 118 235t291 74t282 -22v137q1 127 -61 178
t-181 51q-184 0 -317 -104l-78 118q172 142 398 142t326 -91t99 -292zM680 1247q-47 0 -115 38t-104 38q-72 0 -111 -84l-96 51q27 84 80 125t107 41t125 -39t100 -39q59 1 100 95l98 -54q-54 -172 -184 -172z" />
    <glyph glyph-name="adieresis" unicode="&#xe4;" horiz-adv-x="1148" 
d="M285 297q0 -176 213 -176t299 145v174q-121 27 -250 27q-262 0 -262 -170zM981 717v-502q0 -86 63 -86l39 2l-18 -123q-29 -20 -92 -20t-100 27q-36 28 -54 96q-119 -137 -334 -138q-174 0 -277 79q-104 79 -104 239q0 161 118 235t291 74t282 -22v137q1 127 -61 178
t-181 51q-184 0 -317 -104l-78 118q172 142 398 142t326 -91t99 -292zM743 1466q47 0 75 -28t28 -80q0 -53 -28 -80t-75 -27t-77 28t-29 80q-1 51 29 79t77 28zM494 1358q0 -104 -105 -107q-47 0 -76 28t-28 80q0 52 28 80q29 27 76 27t76 -28t29 -80z" />
    <glyph glyph-name="aring" unicode="&#xe5;" horiz-adv-x="1148" 
d="M285 297q0 -176 213 -176t299 145v174q-121 27 -250 27q-262 0 -262 -170zM981 717v-502q0 -86 63 -86l39 2l-18 -123q-29 -20 -92 -20t-100 27q-36 28 -54 96q-119 -137 -334 -138q-174 0 -277 79q-104 79 -104 239q0 161 118 235t291 74t282 -22v137q1 127 -61 178
t-181 51q-184 0 -317 -104l-78 118q172 142 398 142t326 -91t99 -292zM569 1292q70 0 70 83q0 43 -40 61q-15 6 -39 6t-43 -22t-19 -54t19 -52q19 -22 52 -22zM568 1518q69 0 115 -40t46 -111t-46 -111t-114 -39q-97 0 -139 67q-22 34 -20 94q0 60 44 100t114 40z" />
    <glyph glyph-name="ae" unicode="&#xe6;" horiz-adv-x="1875" 
d="M556 496q-271 0 -271 -182q0 -100 62.5 -143.5t144.5 -43.5t153.5 29.5t117.5 81t48 108.5v127q-135 23 -255 23zM1303 946q-133 0 -213.5 -87t-90.5 -247h582q-16 334 -278 334zM578 1098q137 0 221 -48.5t131 -154.5q129 203 391 203q195 0 315.5 -130t120.5 -368
q0 -94 -4 -125h-756q17 -223 167 -305q72 -39 169 -39q188 0 324 115l67 -113q-87 -95 -240 -137q-79 -22 -165 -21q-281 0 -412 218q-70 -102 -181.5 -160t-234 -58t-205.5 36t-132.5 111t-49.5 172q0 186 136 261.5t298 75.5t271 -23v90q1 182 -147 230q-46 14 -105 14
q-164 0 -309 -102l-80 121q184 137 410 137z" />
    <glyph glyph-name="ccedilla" unicode="&#xe7;" horiz-adv-x="1095" 
d="M645 -233q0 35 -35 51q-10 4 -28 4t-33 -10l-72 61l62 107q-195 31 -316 178t-121 396t152 397q152 149 376 149t378 -129l-86 -131q-66 52 -129 76t-154 24q-156 0 -252 -104t-96 -293q0 -127 47 -220t127 -141t178 -47q162 0 299 111l88 -123q-91 -91 -230 -128
q-79 -22 -163 -22l-35 -57q76 8 125 -36t49 -107t-33 -107q-60 -80 -208 -92l-37 92q147 23 147 101z" />
    <glyph glyph-name="egrave" unicode="&#xe8;" horiz-adv-x="1196" 
d="M607 948q-140 0 -225 -90t-95 -258h616q4 166 -76 257t-220 91zM608 -27q-211 0 -353 136q-71 69 -112 177t-41 244q0 266 138 418t368 152t350 -138t121 -354q0 -82 -10 -145h-778q41 -334 346 -334q191 0 330 117l86 -119q-178 -154 -445 -154zM674 1208h-133l-254 250
h239z" />
    <glyph glyph-name="eacute" unicode="&#xe9;" horiz-adv-x="1196" 
d="M607 948q-140 0 -225 -90t-95 -258h616q4 166 -76 257t-220 91zM608 -27q-211 0 -353 136q-71 69 -112 177t-41 244q0 266 138 418t368 152t350 -138t121 -354q0 -82 -10 -145h-778q41 -334 346 -334q191 0 330 117l86 -119q-178 -154 -445 -154zM889 1458l-248 -250
h-135l145 250h238z" />
    <glyph glyph-name="ecircumflex" unicode="&#xea;" horiz-adv-x="1196" 
d="M607 948q-140 0 -225 -90t-95 -258h616q4 166 -76 257t-220 91zM608 -27q-211 0 -353 136q-71 69 -112 177t-41 244q0 266 138 418t368 152t350 -138t121 -354q0 -82 -10 -145h-778q41 -334 346 -334q191 0 330 117l86 -119q-178 -154 -445 -154zM582 1337l-109 -108
h-176l235 239h107l221 -239h-166z" />
    <glyph glyph-name="edieresis" unicode="&#xeb;" horiz-adv-x="1196" 
d="M607 948q-140 0 -225 -90t-95 -258h616q4 166 -76 257t-220 91zM608 -27q-211 0 -353 136q-71 69 -112 177t-41 244q0 266 138 418t368 152t350 -138t121 -354q0 -82 -10 -145h-778q41 -334 346 -334q191 0 330 117l86 -119q-178 -154 -445 -154zM764 1247q-47 0 -76 27
t-29 80t29 81q29 27 76 27t76 -28q28 -28 28 -80q0 -53 -28 -80t-76 -27zM410 1462q106 0 106 -117q0 -98 -113 -98q-38 0 -68 27t-30 67q0 90 64 114q18 7 41 7z" />
    <glyph glyph-name="igrave" unicode="&#xec;" horiz-adv-x="477" 
d="M330 0h-185v1073h185v-1073zM305 1208h-133l-254 250h240z" />
    <glyph glyph-name="iacute" unicode="&#xed;" horiz-adv-x="477" 
d="M330 0h-185v1073h185v-1073zM270 1208h-133l146 250h237z" />
    <glyph glyph-name="icircumflex" unicode="&#xee;" horiz-adv-x="477" 
d="M145 1073h185v-1073h-185v1073zM211 1337l-107 -108h-176l236 241h106l222 -241h-166z" />
    <glyph glyph-name="idieresis" unicode="&#xef;" horiz-adv-x="477" 
d="M330 0h-185v1073h185v-1073zM387 1462q111 0 113 -116q0 -42 -29 -71q-29 -28 -76 -28t-76 27t-28 80q0 53 28 81q29 27 68 27zM49 1462q39 0 69 -28t30 -80q0 -53 -30 -80t-77 -27t-76 28t-29 71q2 116 113 116z" />
    <glyph glyph-name="eth" unicode="&#xf0;" horiz-adv-x="1236" 
d="M618 137q146 1 236 107t90 290t-93 291t-240 107t-233 -105q-87 -105 -85 -292q0 -250 153 -351q74 -47 172 -47zM1135 592q1 -297 -137 -458t-364 -161t-373 135q-73 66 -116 178t-43 241q0 340 208 488q117 83 282 85q203 0 321 -150q-72 186 -217 322l-247 -117
l-50 90l209 98q-68 49 -151 97l92 106q115 -59 207 -131l200 96l50 -92l-166 -78q295 -285 295 -749z" />
    <glyph glyph-name="ntilde" unicode="&#xf1;" horiz-adv-x="1226" 
d="M705 1100q168 0 262 -91t94 -266v-743h-184v690q-1 132 -53 186t-150 54q-197 0 -328 -199v-731h-180v1073h127l29 -164h6q80 95 166 143t211 48zM726 1247q-56 0 -124 38t-104 38q-72 0 -111 -84l-96 51q27 84 80 125t107 41t125 -39t99 -39q60 1 101 95l98 -54
q-25 -80 -72 -126t-103 -46z" />
    <glyph glyph-name="ograve" unicode="&#xf2;" horiz-adv-x="1257" 
d="M629 936q-213 0 -295 -183q-41 -91 -41 -216q0 -187 90 -293t246 -106t247 106t91 292t-91 294q-91 106 -247 106zM629 1100q213 0 363 -132q75 -68 119 -178t44 -239q0 -346 -224 -493q-126 -83 -321 -84t-345 131q-75 67 -119 178t-44 254t44 254q81 205 286 276
q93 33 197 33zM696 1208h-133l-254 250h240z" />
    <glyph glyph-name="oacute" unicode="&#xf3;" horiz-adv-x="1257" 
d="M629 936q-213 0 -295 -183q-41 -91 -41 -216q0 -187 90 -293t246 -106t247 106t91 292t-91 294q-91 106 -247 106zM629 1100q213 0 363 -132q75 -68 119 -178t44 -239q0 -346 -224 -493q-126 -83 -321 -84t-345 131q-75 67 -119 178t-44 254t44 254q81 205 286 276
q93 33 197 33zM662 1208h-134l146 250h237z" />
    <glyph glyph-name="ocircumflex" unicode="&#xf4;" horiz-adv-x="1257" 
d="M629 137q156 1 247 107t91 292t-91 293t-247 107t-246 -106t-90 -293q0 -256 158 -354q76 -46 178 -46zM629 1100q213 0 363 -132q75 -68 119 -178t44 -253t-44 -254q-82 -206 -286 -277q-92 -33 -196 -33q-214 0 -364 132q-75 67 -119 178t-44 254t44 254
q81 205 286 276q93 33 197 33zM496 1229h-177l236 241h107l221 -241h-166l-115 108z" />
    <glyph glyph-name="otilde" unicode="&#xf5;" horiz-adv-x="1257" 
d="M629 936q-156 0 -246 -106t-90 -293t90 -293t246 -106t247 106t91 292t-91 294q-91 106 -247 106zM629 1100q213 0 363 -132q75 -68 119 -178t44 -239q0 -346 -224 -493q-126 -83 -321 -84t-345 131q-75 67 -119 178t-44 254t44 254q81 205 286 276q93 33 197 33z
M732 1243q-56 0 -124 38t-104 38q-70 0 -109 -84l-96 49q25 86 78 126t108 40t125 -38t99 -38q59 0 100 92l100 -51q-25 -80 -73 -126t-104 -46z" />
    <glyph glyph-name="odieresis" unicode="&#xf6;" horiz-adv-x="1257" 
d="M293 537q0 -187 90 -293t246 -106t247 106t91 310t-129 313q-83 69 -224 69t-231 -106t-90 -293zM992 968q75 -68 119 -178t44 -253t-44 -254q-82 -206 -286 -277q-92 -33 -196 -33q-214 0 -364 132q-75 67 -119 178t-44 240t29 223t79 160q50 65 118 109q131 85 323 85
q191 0 341 -132zM682 1354q0 108 106 108q45 0 74 -28t29 -67q-1 -120 -105 -120q-104 -1 -104 107zM440 1247q-112 0 -112 98q0 117 104 117q47 0 77 -28t30 -80q0 -53 -30 -80t-69 -27z" />
    <glyph glyph-name="divide" unicode="&#xf7;" horiz-adv-x="1150" 
d="M584 244q53 0 90 -33t37 -95t-37 -96t-80 -32q-43 0 -71 12t-47 43t-19 83t37 85t90 33zM1083 469h-993v137h993v-137zM594 1092q43 0 80 -33t37 -96t-37 -95t-90 -32t-90 32t-37 84q0 54 19 83q36 57 118 57z" />
    <glyph glyph-name="oslash" unicode="&#xf8;" horiz-adv-x="1257" 
d="M629 137q156 0 247 106.5t91 303.5t-111 303l-358 -690q59 -23 131 -23zM629 936q-156 0 -247 -105.5t-91.5 -304.5t112.5 -305l361 690q-61 25 -135 25zM102 537q0 143 44 253q44 112 119 178q149 132 364 132q115 0 213 -37l96 192l106 -55l-104 -190
q215 -150 215 -476q-1 -326 -225 -476q-128 -85 -301 -85q-113 0 -209 37l-107 -203l-104 58l108 198q-215 150 -215 474z" />
    <glyph glyph-name="ugrave" unicode="&#xf9;" horiz-adv-x="1214" 
d="M1049 1073v-1073h-134l-38 158q-70 -88 -156 -135q-85 -47 -225 -47t-235 94t-95 286v717h182v-674q0 -258 199 -258q98 0 173 50t146 139v743h183zM565 1208l-254 250h240l147 -250h-133z" />
    <glyph glyph-name="uacute" unicode="&#xfa;" horiz-adv-x="1214" 
d="M1049 1073v-1073h-134l-38 158q-70 -88 -156 -135q-85 -47 -225 -47t-235 94t-95 286v717h182v-674q0 -258 199 -258q98 0 173 50t146 139v743h183zM666 1208h-136l146 250h237z" />
    <glyph glyph-name="ucircumflex" unicode="&#xfb;" horiz-adv-x="1214" 
d="M1049 1073v-1073h-134l-38 158q-70 -88 -156 -135q-85 -47 -225 -47t-235 94t-95 286v717h182v-674q0 -258 199 -258q98 0 173 50t146 139v743h183zM498 1229h-174l233 241h107l223 -241h-168l-113 108z" />
    <glyph glyph-name="udieresis" unicode="&#xfc;" horiz-adv-x="1214" 
d="M1049 1073v-1073h-134l-38 158q-70 -88 -156 -135q-85 -47 -225 -47t-235 94t-95 286v717h182v-674q0 -258 199 -258q98 0 173 50t146 139v743h183zM885 1307q-24 -60 -92 -60t-95 47q-14 25 -14 60q0 34 14 60q26 48 82 48q113 0 113 -108q0 -27 -8 -47zM436 1247
q-47 0 -76 28t-28 80q0 52 28 80q29 27 76 27t76 -28t29 -80q0 -53 -29 -80t-76 -27z" />
    <glyph glyph-name="yacute" unicode="&#xfd;" horiz-adv-x="1161" 
d="M291 -428q-104 0 -187 27l33 143q63 -20 129 -20t125 50t94 140l21 55l-453 1106h195l348 -917l315 917h193l-418 -1141q-131 -360 -395 -360zM625 1212h-136l146 250h237z" />
    <glyph glyph-name="thorn" unicode="&#xfe;" horiz-adv-x="1216" 
d="M588 131q133 0 235 113q103 112 103 306t-82 289t-203 95q-170 0 -291 -201v-526q54 -41 106 -59t132 -17zM342 930h6q130 168 324 168t318 -137t124 -399t-145 -424q-145 -163 -342 -163q-164 0 -277 68v-471h-184v1862h176v-504z" />
    <glyph glyph-name="ydieresis" unicode="&#xff;" horiz-adv-x="1161" 
d="M291 -428q-104 0 -187 27l33 143q254 -81 348 170l21 55l-453 1106h195l348 -917l315 917h193l-418 -1141q-131 -360 -395 -360zM739 1466q113 0 113 -107q0 -52 -28 -80t-76 -28q-47 0 -76 28t-29 72q0 45 14 69q26 46 82 46zM395 1251q-104 0 -104 107q0 53 28 81
q29 27 64 27q117 -2 117 -108q0 -72 -51 -95q-23 -12 -54 -12z" />
    <glyph glyph-name="Amacron" unicode="&#x100;" horiz-adv-x="1441" 
d="M979 502l-262 733l-262 -733h524zM1036 342h-639l-121 -342h-202l534 1434h219l541 -1434h-211zM961 1683h-476v111h476v-111z" />
    <glyph glyph-name="amacron" unicode="&#x101;" horiz-adv-x="1148" 
d="M285 297q0 -176 213 -176t299 145v174q-121 27 -250 27q-262 0 -262 -170zM981 717v-502q0 -86 63 -86l39 2l-18 -123q-29 -20 -92 -20t-100 27q-36 28 -54 96q-119 -137 -334 -138q-174 0 -277 79q-104 79 -104 239q0 161 118 235t291 74t282 -22v137q1 127 -61 178
t-181 51q-184 0 -317 -104l-78 118q172 142 398 142t326 -91t99 -292zM807 1438v-111h-475v111h475z" />
    <glyph glyph-name="Abreve" unicode="&#x102;" horiz-adv-x="1441" 
d="M979 504l-262 731l-262 -731h524zM1036 342h-639l-121 -342h-202l534 1434h219l541 -1434h-211zM723 1563q-102 0 -179 62t-91 177h110q12 -59 54 -93q41 -34 105 -34t104 33t53 94h116q-16 -115 -93 -177t-179 -62z" />
    <glyph glyph-name="abreve" unicode="&#x103;" horiz-adv-x="1148" 
d="M285 297q0 -176 213 -176t299 145v174q-121 27 -250 27q-262 0 -262 -170zM981 717v-502q0 -86 63 -86l39 2l-18 -123q-29 -20 -92 -20t-100 27q-36 28 -54 96q-119 -137 -334 -138q-174 0 -277 79q-104 79 -104 239q0 161 118 235t291 74t282 -22v137q1 127 -61 178
t-181 51q-184 0 -317 -104l-78 118q172 142 398 142t326 -91t99 -292zM558 1319q141 0 167 127h115q-12 -117 -91 -178q-78 -60 -181 -61t-179 61t-90 178h111q12 -59 54 -93t94 -34z" />
    <glyph glyph-name="Aogonek" unicode="&#x104;" horiz-adv-x="1441" 
d="M979 502l-262 733l-262 -733h524zM1198 -184q0 -102 109 -119l-35 -113q-100 12 -158 66t-59 139q0 117 121 211h-19l-121 342h-639l-121 -342h-202l534 1434h219l541 -1434h-86q-48 -61 -66 -101t-18 -83z" />
    <glyph glyph-name="aogonek" unicode="&#x105;" horiz-adv-x="1148" 
d="M285 297q0 -176 213 -176t299 145v174q-121 27 -250 27q-262 0 -262 -170zM513 600q173 0 282 -22v137q1 127 -61 178t-181 51q-184 0 -317 -104l-78 118q172 142 398 142t324 -92t99 -291v-502q0 -86 65 -86l39 2l-14 -100l21 -8q-58 -70 -78 -112t-21 -89
q0 -100 109 -117l-35 -115q-99 12 -157 68t-59 150q-1 95 97 182q-49 4 -79 32t-48 89q-119 -137 -334 -138q-174 0 -277 79q-104 79 -104 239q0 161 118 235t291 74z" />
    <glyph glyph-name="Cacute" unicode="&#x106;" horiz-adv-x="1355" 
d="M810 1458q286 0 460 -129l-94 -147q-156 102 -362 102t-344 -141q-140 -141 -140 -431q0 -291 139 -428t354 -135q215 1 379 136l101 -140q-197 -172 -488 -172t-481 175q-94 86 -148 232t-54 334q-1 188 51 332q51 146 147 234q194 178 480 178zM840 1575h-135l145 250
h240z" />
    <glyph glyph-name="cacute" unicode="&#x107;" horiz-adv-x="1095" 
d="M633 -27q-231 0 -381 151t-150 415t152 412q152 149 376 149t378 -129l-86 -131q-83 64 -152 82t-131 18q-156 0 -252 -104t-96 -293q0 -127 47 -220t127 -141t178 -47q162 0 299 111l88 -123q-66 -66 -168 -108t-229 -42zM684 1208h-135l147 250h238z" />
    <glyph glyph-name="Cdotaccent" unicode="&#x10a;" horiz-adv-x="1355" 
d="M810 1458q286 0 460 -129l-94 -147q-156 102 -362 102t-344 -141q-140 -141 -140 -431q0 -291 139 -428t354 -135q215 1 379 136l101 -140q-197 -172 -488 -172t-481 175q-94 86 -148 232t-54 334q-1 188 51 332q51 146 147 234q194 178 480 178zM792 1829q30 0 54 -11
t42 -38q17 -27 17 -73t-34 -75q-35 -28 -81 -28t-78 28t-32 75q0 46 16 73t41 38t55 11z" />
    <glyph glyph-name="cdotaccent" unicode="&#x10b;" horiz-adv-x="1095" 
d="M633 -27q-231 0 -381 151t-150 415t152 412q152 149 376 149t378 -129l-86 -131q-66 52 -129 76t-154 24q-156 0 -252 -104t-96 -293q0 -127 47 -220t127 -141t178 -47q162 0 299 111l88 -123q-66 -66 -168 -108t-229 -42zM628 1462q119 0 122 -112q0 -113 -115 -113
q-45 0 -78 29t-33 84q0 56 33 84t71 28z" />
    <glyph glyph-name="Ccaron" unicode="&#x10c;" horiz-adv-x="1355" 
d="M810 1458q286 0 460 -129l-94 -147q-156 102 -362 102t-344 -141q-140 -141 -140 -431q0 -291 139 -428t354 -135q215 1 379 136l101 -140q-197 -172 -488 -172t-481 175q-94 86 -148 232t-54 334q-1 188 51 332q51 146 147 234q194 178 480 178zM723 1593l-227 232h168
l114 -119l119 119h162l-215 -232h-121z" />
    <glyph glyph-name="ccaron" unicode="&#x10d;" horiz-adv-x="1095" 
d="M633 -27q-231 0 -381 151t-150 415t152 412q152 149 376 149t378 -129l-86 -131q-66 52 -129 76t-154 24q-156 0 -252 -104t-96 -293q0 -127 47 -220t127 -141t178 -47q162 0 299 111l88 -123q-66 -66 -168 -108t-229 -42zM567 1227l-227 231h170l113 -119l120 119h160
l-213 -231h-123z" />
    <glyph glyph-name="Dcaron" unicode="&#x10e;" horiz-adv-x="1423" 
d="M360 176h244q236 0 363 138t127 413q0 535 -490 535h-244v-1086zM168 1434h418q306 0 498 -166q96 -84 152 -221t56 -319t-55 -322t-153 -228q-198 -177 -498 -178h-418v1434zM565 1587l-227 232h168l115 -119l120 119h160l-215 -232h-121z" />
    <glyph glyph-name="dcaron" unicode="&#x10f;" horiz-adv-x="1302" 
d="M604 934q-122 0 -217 -97t-94 -300q0 -282 197 -373q54 -25 114 -25q172 0 281 152v516q-117 127 -281 127zM1069 0h-131l-29 125h-6q-57 -66 -143 -109t-178 -43t-173 32t-152 95t-113 176t-42 233q0 217 70 344q133 243 397 247q199 0 316 -113v553h184v-1540z
M1276 1227h-94l12 313h164z" />
    <glyph glyph-name="Dcroat" unicode="&#x110;" horiz-adv-x="1423" 
d="M360 1262v-1086h244q236 0 363 138t127 413q0 535 -490 535h-244zM168 1434h418q306 0 498 -166q96 -84 152 -221t56 -319t-55 -322t-153 -228q-198 -177 -498 -178h-418v1434zM870 1683h-475v111h475v-111z" />
    <glyph glyph-name="dcroat" unicode="&#x111;" horiz-adv-x="1232" 
d="M604 934q-122 0 -218 -98t-96 -297q1 -200 97 -300t217 -100q172 0 281 152v516q-117 127 -281 127zM102 532q0 142 40 252q74 205 255 281q82 35 172 35q199 0 316 -113v256h-154v111h154v186h184v-186h137v-111h-137v-1243h-131l-29 125h-6q-128 -149 -317 -151
q-189 -1 -329 125q-71 65 -113 177q-42 114 -42 256z" />
    <glyph glyph-name="Emacron" unicode="&#x112;" horiz-adv-x="1187" 
d="M1081 1268h-723v-453h637v-168h-637v-475h723v-172h-913v1434h913v-166zM836 1683h-476v111h476v-111z" />
    <glyph glyph-name="emacron" unicode="&#x113;" horiz-adv-x="1196" 
d="M607 948q-140 0 -225 -90t-95 -258h616q4 166 -76 257t-220 91zM608 -27q-211 0 -353 136q-71 69 -112 177t-41 244q0 266 138 418t368 152t350 -138t121 -354q0 -82 -10 -145h-778q41 -334 346 -334q191 0 330 117l86 -119q-178 -154 -445 -154zM829 1434v-111h-477v111
h477z" />
    <glyph glyph-name="Ebreve" unicode="&#x114;" horiz-adv-x="1187" 
d="M1081 1268h-723v-453h637v-168h-637v-475h723v-172h-913v1434h913v-166zM597 1563q-103 0 -180 62t-89 177h110q12 -59 54 -93t105 -34q61 0 103 33t54 94h114q-14 -115 -91 -177t-180 -62z" />
    <glyph glyph-name="ebreve" unicode="&#x115;" horiz-adv-x="1196" 
d="M607 948q-140 0 -225 -90t-95 -258h616q4 166 -76 257t-220 91zM608 -27q-211 0 -353 136q-71 69 -112 177t-41 244q0 266 138 418t368 152t350 -138t121 -354q0 -82 -10 -145h-778q41 -334 346 -334q191 0 330 117l86 -119q-178 -154 -445 -154zM580 1315q147 0 165 127
h117q-23 -171 -177 -227q-44 -15 -93 -15q-104 0 -181 64t-92 178h113q10 -61 52 -94t96 -33z" />
    <glyph glyph-name="Edotaccent" unicode="&#x116;" horiz-adv-x="1187" 
d="M1081 1268h-723v-453h637v-168h-637v-475h723v-172h-913v1434h913v-166zM590 1823q120 0 122 -122q0 -46 -33 -75q-34 -29 -81 -29t-80 29t-33 84t33 84t72 29z" />
    <glyph glyph-name="edotaccent" unicode="&#x117;" horiz-adv-x="1196" 
d="M607 948q-140 0 -225 -90t-95 -258h616q4 166 -76 257t-220 91zM608 -27q-211 0 -353 136q-71 69 -112 177t-41 244q0 266 138 418t368 152t350 -138t121 -354q0 -82 -10 -145h-778q41 -334 346 -334q191 0 330 117l86 -119q-178 -154 -445 -154zM584 1235q-39 0 -72 29
t-33 85t33 85q33 28 72 28q118 -2 121 -113q0 -38 -17 -65q-29 -49 -104 -49z" />
    <glyph glyph-name="Eogonek" unicode="&#x118;" horiz-adv-x="1187" 
d="M358 1268v-453h637v-168h-637v-475h723v-172h-295q-51 -61 -68 -101t-18 -83q0 -102 109 -119l-35 -113q-138 17 -189 106q-26 44 -26 99q-2 117 119 211h-510v1434h913v-166h-723z" />
    <glyph glyph-name="eogonek" unicode="&#x119;" horiz-adv-x="1196" 
d="M607 948q-140 0 -225 -90t-95 -258h616q4 166 -76 257t-220 91zM608 -27q-211 0 -353 136q-71 69 -112 177t-41 244q0 266 138 418t368 152t350 -138t121 -354q0 -82 -10 -145h-778q41 -334 346 -334q190 0 330 117l86 -119q-111 -96 -250 -133q-45 -55 -61 -93t-17 -81
q0 -101 109 -117l-35 -115q-99 12 -157 68t-59 146q-1 91 83 171h-58z" />
    <glyph glyph-name="Ecaron" unicode="&#x11a;" horiz-adv-x="1187" 
d="M358 1268v-453h637v-168h-637v-475h723v-172h-913v1434h913v-166h-723zM530 1587l-227 232h168l115 -119l119 119h161l-215 -232h-121z" />
    <glyph glyph-name="ecaron" unicode="&#x11b;" horiz-adv-x="1196" 
d="M607 948q-140 0 -225 -90t-95 -258h616q4 166 -76 257t-220 91zM608 -27q-211 0 -353 136q-71 69 -112 177t-41 244q0 266 138 418t368 152t350 -138t121 -354q0 -82 -10 -145h-778q41 -334 346 -334q191 0 330 117l86 -119q-178 -154 -445 -154zM645 1225h-123l-225 233
h168l115 -119l118 119h162z" />
    <glyph glyph-name="Gbreve" unicode="&#x11e;" horiz-adv-x="1519" 
d="M1346 799v-592q-197 -231 -558 -232q-269 0 -455 176q-93 87 -148 234q-54 147 -54 338q0 397 253 598q177 137 423 137q297 0 506 -172l-103 -137q-176 135 -397 135t-351 -144t-130 -417t129 -420t346 -147q154 0 274 73q47 29 78 66v344h-424v160h611zM786 1681
q131 0 156 127h117q-10 -78 -51 -133q-81 -108 -222 -107t-220 107q-40 55 -50 133h113q13 -82 84 -112q33 -14 73 -15z" />
    <glyph glyph-name="gbreve" unicode="&#x11f;" horiz-adv-x="1251" 
d="M629 934q-137 0 -235 -96t-99 -272q0 -176 91 -273q91 -96 251 -96t266 143v477q-102 117 -274 117zM907 0v158q-75 -72 -149 -100t-174 -27q-201 0 -341 141t-141 391q0 296 222 452q119 83 270 85q199 0 324 -117h8l45 90h116v-1024q0 -163 -63 -273
q-118 -206 -430 -206q-242 0 -408 127l76 141q135 -104 326 -104q141 0 230 66t89 200zM459 1442q25 -127 157 -127q133 0 158 127h117q-16 -115 -93 -177q-76 -63 -180 -63t-180 62t-90 178h111z" />
    <glyph glyph-name="Gdotaccent" unicode="&#x120;" horiz-adv-x="1519" 
d="M1346 799v-592q-197 -231 -558 -232q-269 0 -455 176q-93 87 -148 234q-54 147 -54 331q0 363 194 553q194 189 486 189q293 0 502 -172l-103 -137q-176 135 -397 135t-351 -144t-130 -417t129 -420t346 -147q119 0 210 41t142 98v344h-424v160h611zM676 1716q0 55 32 84
t80 29q47 0 80 -29t33 -84t-33 -84q-33 -28 -80 -28q-48 0 -80 28t-32 84z" />
    <glyph glyph-name="gdotaccent" unicode="&#x121;" horiz-adv-x="1251" 
d="M629 934q-137 0 -235 -96t-99 -272q0 -176 91 -273q91 -96 251 -96t266 143v477q-102 117 -274 117zM907 0v158q-75 -72 -149 -100t-174 -27q-201 0 -341 141t-141 391q0 296 222 452q119 83 270 85q199 0 324 -117h8l45 90h116v-1024q0 -163 -63 -273
q-118 -206 -430 -206q-242 0 -408 127l76 141q135 -104 326 -104q141 0 230 66t89 200zM508 1350q0 56 32 84t80 28q47 0 80 -28t33 -76q0 -47 -16 -73q-30 -48 -87 -48q-58 0 -90 29t-32 84z" />
    <glyph glyph-name="Gcommaaccent" unicode="&#x122;" horiz-adv-x="1519" 
d="M811 -422h-94l12 313h164zM1346 799v-592q-197 -231 -558 -232q-269 0 -455 176q-93 87 -148 234q-54 147 -54 338q0 397 253 598q177 137 423 137q297 0 506 -172l-103 -137q-176 135 -397 135t-351 -144t-130 -417t129 -420t346 -147q154 0 274 73q47 29 78 66v344
h-424v160h611z" />
    <glyph glyph-name="gcommaaccent" unicode="&#x123;" horiz-adv-x="1251" 
d="M610 -844h-92l10 314h166zM629 934q-137 0 -235 -96t-99 -272q0 -176 91 -273q91 -96 251 -96t266 143v477q-102 117 -274 117zM907 0v158q-75 -72 -149 -100t-174 -27q-201 0 -341 141t-141 391q0 296 222 452q119 83 270 85q199 0 324 -117h8l45 90h116v-1024
q0 -163 -63 -273q-118 -206 -430 -206q-242 0 -408 127l76 141q135 -104 326 -104q141 0 230 66t89 200z" />
    <glyph glyph-name="Hbar" unicode="&#x126;" horiz-adv-x="1716" 
d="M1241 1065h-764v-258h764v258zM1548 1065h-118v-1065h-189v641h-764v-641h-190v1065h-119v133h119v236h190v-236h764v236h189v-236h118v-133z" />
    <glyph glyph-name="hbar" unicode="&#x127;" horiz-adv-x="1226" 
d="M348 1198v-272q76 90 159 131t189 41q160 0 262 -92t103 -269v-737h-184v698q0 128 -66 182t-168 54q-168 0 -293 -197v-737h-184v1198h-178v111h178v231h182v-231h211v-111h-211z" />
    <glyph glyph-name="Imacron" unicode="&#x12a;" horiz-adv-x="569" 
d="M379 0h-191v1434h191v-1434zM522 1683h-475v111h475v-111z" />
    <glyph glyph-name="imacron" unicode="&#x12b;" horiz-adv-x="477" 
d="M330 0h-185v1073h185v-1073zM461 1323h-477v111h477v-111z" />
    <glyph glyph-name="Iogonek" unicode="&#x12e;" horiz-adv-x="569" 
d="M188 0v1434h191v-1411l20 -7q-59 -70 -78 -112t-20 -88q0 -102 109 -119l-35 -113q-99 12 -157 66t-60 139q0 117 121 211h-91z" />
    <glyph glyph-name="iogonek" unicode="&#x12f;" horiz-adv-x="536" 
d="M295 -184q0 -102 106 -119l-32 -113q-99 12 -157 66t-60 139q-2 117 120 211h-96v1073h182v-1046l35 -11q-59 -70 -79 -112t-19 -88zM389 1363q0 -128 -131 -128q-41 0 -77 31t-36 88t36 87q36 29 86 29t86 -30t36 -77z" />
    <glyph glyph-name="Idotaccent" unicode="&#x130;" horiz-adv-x="569" 
d="M379 0h-191v1434h191v-1434zM285 1823q47 0 81 -29t34 -84t-34 -84t-81 -29t-80 29t-33 84t33 84t80 29z" />
    <glyph glyph-name="dotlessi" unicode="&#x131;" horiz-adv-x="477" 
d="M330 0h-185v1073h185v-1073z" />
    <glyph glyph-name="IJ" unicode="&#x132;" horiz-adv-x="1515" 
d="M1348 1434v-969q0 -291 -140 -393q-140 -101 -358 -101q-111 0 -188 19l16 168q39 -8 99 -8q179 0 251 40q129 71 129 295v949h191zM379 0h-191v1434h191v-1434z" />
    <glyph glyph-name="ij" unicode="&#x133;" horiz-adv-x="1085" 
d="M911 1073v-1196q0 -151 -97 -229t-249 -78q-104 0 -174 29l33 147q49 -14 129 -14q174 0 174 190v1151h184zM358 0h-182v1073h182v-1073zM817 1470q51 0 87 -30t36 -86q0 -57 -36 -88t-87 -31t-86 30t-35 88q0 57 35 87t86 30zM145 1354q0 56 36 86t86 30t86 -30t36 -87
q0 -58 -36 -88t-86 -30t-86 31t-36 88z" />
    <glyph glyph-name="Kcommaaccent" unicode="&#x136;" horiz-adv-x="1320" 
d="M588 -109h164l-82 -313h-92zM362 0h-194v1434h194v-686l617 686h246l-623 -664l670 -770h-252l-551 627l-107 -113v-514z" />
    <glyph glyph-name="kcommaaccent" unicode="&#x137;" horiz-adv-x="1105" 
d="M461 -109h166l-84 -313h-92zM350 0h-184v1540h184v-975l420 508h238l-402 -450l477 -623h-233l-365 489l-135 -153v-336z" />
    <glyph glyph-name="Lacute" unicode="&#x139;" horiz-adv-x="1134" 
d="M358 170h691v-170h-881v1434h190v-1264zM315 1575h-133l146 250h237z" />
    <glyph glyph-name="lacute" unicode="&#x13a;" horiz-adv-x="526" 
d="M354 0h-184v1540h184v-1540zM303 1675h-135l145 250h240z" />
    <glyph glyph-name="Lcommaaccent" unicode="&#x13b;" horiz-adv-x="1134" 
d="M535 -422h-93l11 313h165zM358 170h691v-170h-881v1434h190v-1264z" />
    <glyph glyph-name="lcommaaccent" unicode="&#x13c;" horiz-adv-x="526" 
d="M266 -725h-92l10 313h166zM354 0h-184v1540h184v-1540z" />
    <glyph glyph-name="Lcaron" unicode="&#x13d;" horiz-adv-x="1134" 
d="M688 1118h-94l12 314h164zM358 170h691v-170h-881v1434h190v-1264z" />
    <glyph glyph-name="lcaron" unicode="&#x13e;" horiz-adv-x="557" 
d="M354 0h-184v1540h184v-1540zM553 1227h-92l10 313h164z" />
    <glyph glyph-name="Ldot" unicode="&#x13f;" horiz-adv-x="1134" 
d="M671 954q58 0 98 -36t40 -107t-40 -107t-99 -36q-102 0 -131 90q-8 25 -9 53q0 70 41 107q42 36 100 36zM358 170h691v-170h-881v1434h190v-1264z" />
    <glyph glyph-name="ldot" unicode="&#x140;" horiz-adv-x="677" 
d="M444 807q0 71 40 107t99 36q58 0 99 -37t41 -95q-1 -58 -21 -92q-37 -62 -107 -62t-111 36q-40 37 -40 107zM354 0h-184v1540h184v-1540z" />
    <glyph glyph-name="Lslash" unicode="&#x141;" horiz-adv-x="1193" 
d="M389 170h668v-170h-858v635l-185 -80v154l185 77v648h190v-557l279 118v-151l-279 -121v-553z" />
    <glyph glyph-name="lslash" unicode="&#x142;" horiz-adv-x="651" 
d="M408 0h-185v707l-166 -84v174l166 84v659h185v-567l188 94v-174l-188 -94v-799z" />
    <glyph glyph-name="Nacute" unicode="&#x143;" horiz-adv-x="1499" 
d="M1331 0h-162l-811 1100v-1100h-190v1434h166l805 -1102v1102h192v-1434zM788 1575h-135l148 250h237z" />
    <glyph glyph-name="nacute" unicode="&#x144;" horiz-adv-x="1226" 
d="M705 1100q168 0 262 -91t94 -266v-743h-184v690q-1 132 -53 186t-150 54q-197 0 -328 -199v-731h-180v1073h127l29 -164h6q80 95 166 143t211 48zM655 1212h-135l146 250h239z" />
    <glyph glyph-name="Ncommaaccent" unicode="&#x145;" horiz-adv-x="1499" 
d="M731 -422h-92l10 313h166zM1331 0h-162l-811 1100v-1100h-190v1434h166l805 -1102v1102h192v-1434z" />
    <glyph glyph-name="ncommaaccent" unicode="&#x146;" horiz-adv-x="1226" 
d="M610 -422h-94l12 313h164zM1061 743v-743h-184v690q-1 132 -53 186t-150 54q-197 0 -328 -199v-731h-180v1073h127l29 -164h6q83 95 142 131q96 58 250 59q153 1 247 -90t94 -266z" />
    <glyph glyph-name="Ncaron" unicode="&#x147;" horiz-adv-x="1499" 
d="M1331 0h-162l-811 1100v-1100h-190v1434h166l805 -1102v1102h192v-1434zM672 1593l-228 232h170l113 -119l121 119h160l-213 -232h-123z" />
    <glyph glyph-name="ncaron" unicode="&#x148;" horiz-adv-x="1226" 
d="M705 1100q168 0 262 -91t94 -266v-743h-184v690q-1 132 -53 186t-150 54q-197 0 -328 -199v-731h-180v1073h127l29 -164h6q80 95 166 143t211 48zM539 1231l-228 231h168l115 -119l121 119h159l-215 -231h-120z" />
    <glyph glyph-name="Eng" unicode="&#x14a;" horiz-adv-x="1499" 
d="M828 -434q-108 0 -185 18l19 168q38 -8 116 -8q164 0 258 56q95 56 103 239l-781 1061v-1100h-190v1434h166l805 -1102v1102h192v-1377l-2 -57q-16 -255 -161 -349q-132 -85 -340 -85z" />
    <glyph glyph-name="eng" unicode="&#x14b;" horiz-adv-x="1226" 
d="M698 1100q174 0 268 -91t95 -266v-874q0 -100 -46 -171q-89 -138 -304 -136q-68 0 -158 24l41 150q70 -12 96 -12q186 0 187 182v784q-1 132 -53 186t-152 54q-195 0 -326 -199v-731h-180v1073h127l29 -164h6q78 95 166 143t204 48z" />
    <glyph glyph-name="Omacron" unicode="&#x14c;" horiz-adv-x="1638" 
d="M1309 723q1 273 -139 417t-351 144t-349 -144t-138 -416t137 -425q137 -152 346 -152q254 0 396 207q98 145 98 369zM821 1458q346 0 543 -254q143 -182 143 -481q0 -437 -298 -635q-173 -115 -388 -115q-273 0 -472 179q-99 88 -159 235q-59 147 -59 317q0 317 140 494
t347 234q99 26 203 26zM1042 1683h-475v111h475v-111z" />
    <glyph glyph-name="omacron" unicode="&#x14d;" horiz-adv-x="1257" 
d="M629 936q-156 0 -246 -106t-90 -293t90 -293t246 -106t247 106t91 292t-91 294q-91 106 -247 106zM629 1100q213 0 363 -132q75 -68 119 -178t44 -253t-44 -254q-82 -206 -286 -277q-92 -33 -196 -33q-214 0 -364 132q-75 67 -119 178t-44 254t44 254q81 205 286 276
q93 33 197 33zM852 1323h-477v111h477v-111z" />
    <glyph glyph-name="Ohungarumlaut" unicode="&#x150;" horiz-adv-x="1638" 
d="M1309 723q1 273 -139 417t-351 144t-349 -144t-138 -416t137 -425q137 -152 346 -152q254 0 396 207q98 145 98 369zM821 1458q346 0 543 -254q143 -182 143 -481q0 -437 -298 -635q-173 -115 -388 -115q-273 0 -472 179q-99 88 -159 235q-59 147 -59 317q0 317 140 494
t347 234q99 26 203 26zM954 1577h-112l127 246h192zM713 1577h-109l37 246h190z" />
    <glyph glyph-name="ohungarumlaut" unicode="&#x151;" horiz-adv-x="1257" 
d="M629 936q-156 0 -246 -106t-90 -293t90 -293t246 -106t247 106t91 292t-91 294q-91 106 -247 106zM629 1100q213 0 363 -132q75 -68 119 -178t44 -253t-44 -254q-82 -206 -286 -277q-92 -33 -196 -33q-214 0 -364 132q-75 67 -119 178t-44 254t44 254q81 205 286 276
q93 33 197 33zM764 1217h-113l125 245h195zM522 1217h-110l39 245h190z" />
    <glyph glyph-name="OE" unicode="&#x152;" horiz-adv-x="1787" 
d="M883 1274h-39q-240 0 -376 -150.5t-136 -404.5t135 -404.5t377 -150.5h39v1110zM1681 1268h-606v-463h529v-158h-529v-481h606v-166h-821q-328 0 -528.5 187.5t-200.5 531.5t200.5 529.5t532.5 185.5h817v-166z" />
    <glyph glyph-name="oe" unicode="&#x153;" horiz-adv-x="2037" 
d="M615 139q151 0 237 105.5t86 292t-85 292t-236.5 105.5t-239.5 -105.5t-88 -292t87.5 -292t238.5 -105.5zM1443 946q-132 0 -211 -87t-89 -243h596q-6 152 -85 241t-211 89zM1469 -25q-135 0 -253 61.5t-182 190.5q-59 -127 -179 -189.5t-237.5 -62.5t-206.5 37
t-158 105.5t-110 177t-41 242.5q0 264 145.5 412.5t356.5 148.5q135 0 252 -63.5t178 -192.5q53 131 164 193.5t238 62.5t220 -43t150.5 -114t86 -157t28.5 -178t-8 -131h-768q5 -118 73 -222q36 -54 104.5 -88t162.5 -34q180 0 315 115l86 -113q-70 -70 -176 -114t-241 -44
z" />
    <glyph glyph-name="Racute" unicode="&#x154;" horiz-adv-x="1327" 
d="M358 711h324q92 0 159 38q132 75 132 246q0 137 -78 205t-256 68h-281v-557zM358 545v-545h-190v1434h491q271 0 393 -115t122 -289t-75 -289t-216 -163l356 -578h-213l-330 545h-338zM676 1569h-135l145 250h240z" />
    <glyph glyph-name="racute" unicode="&#x155;" horiz-adv-x="761" 
d="M348 0h-182v1073h139l33 -158h6q74 184 262 185q76 0 117 -27l-31 -168q-61 20 -108 21q-162 0 -236 -230v-696zM473 1212h-135l145 250h238z" />
    <glyph glyph-name="Rcommaaccent" unicode="&#x156;" horiz-adv-x="1327" 
d="M553 -109h166l-84 -313h-92zM358 711h324q92 0 159 38q132 75 132 246q0 137 -78 205t-256 68h-281v-557zM358 545v-545h-190v1434h491q271 0 393 -115t122 -289t-75 -289t-216 -163l356 -578h-213l-330 545h-338z" />
    <glyph glyph-name="rcommaaccent" unicode="&#x157;" horiz-adv-x="761" 
d="M369 -422h-93l11 313h166zM348 0h-182v1073h139l33 -158h6q74 184 262 185q76 0 117 -27l-31 -168q-61 20 -108 21q-162 0 -236 -230v-696z" />
    <glyph glyph-name="Rcaron" unicode="&#x158;" horiz-adv-x="1327" 
d="M358 711h324q137 0 214 80q77 81 77 211t-78 198t-256 68h-281v-557zM358 545v-545h-190v1434h491q271 0 393 -115t122 -289t-75 -289t-216 -163l356 -578h-213l-330 545h-338zM559 1587l-227 232h168l114 -119l121 119h160l-215 -232h-121z" />
    <glyph glyph-name="rcaron" unicode="&#x159;" horiz-adv-x="761" 
d="M348 0h-182v1073h139l33 -158h6q74 184 262 185q76 0 117 -27l-31 -168q-61 20 -108 21q-162 0 -236 -230v-696zM354 1231l-225 231h168l115 -119l118 119h162l-215 -231h-123z" />
    <glyph glyph-name="Sacute" unicode="&#x15a;" horiz-adv-x="1181" 
d="M127 1077q0 169 130 275q131 106 367 106t437 -133l-84 -145q-174 115 -369 114q-131 0 -208 -57q-76 -57 -76 -165t140 -178q59 -31 152 -68t113 -46q188 -74 280 -156q91 -83 91 -227q0 -193 -138 -307t-376 -115q-124 0 -254 35t-230 96l68 158q190 -111 403 -110
q166 0 247 62t81 171t-137 178q-64 34 -213 91q-267 102 -345 197q-79 95 -79 224zM629 1577h-135l147 250h238z" />
    <glyph glyph-name="sacute" unicode="&#x15b;" horiz-adv-x="974" 
d="M457 133q117 0 180 46t63 116t-59 104q-37 23 -117 48q-80 26 -106 36q-156 53 -228 119t-72 200t110 216t282 82q106 0 202 -30t160 -81l-71 -131q-145 90 -289 90q-96 0 -154 -42t-59 -108q0 -66 55 -104q62 -38 106 -51q43 -13 97 -29q55 -16 93 -30q115 -42 176 -105
t62 -169q2 -213 -196 -296q-96 -41 -210 -41t-216 32q-100 32 -166 85l58 148q78 -66 196 -93q53 -12 103 -12zM547 1208h-135l145 250h238z" />
    <glyph glyph-name="Scedilla" unicode="&#x15e;" horiz-adv-x="1181" 
d="M1100 397q0 -184 -127 -298t-348 -124l-37 -59q76 8 125 -36t49 -120t-67 -126t-175 -60l-37 92q103 16 132 52q15 20 15 46t-16 42t-40 16t-39 -10l-72 61l59 104q-240 18 -420 129l68 158q190 -111 403 -110q166 0 247 62t81 171t-137 178q-64 34 -213 91
q-267 102 -345 197q-79 95 -79 224q0 169 130 275q131 106 367 106t437 -133l-84 -145q-175 114 -361 114t-258 -98q-34 -50 -34 -104t18 -88t43 -59q25 -23 79 -51t91 -43t95 -39t79 -32q188 -74 280 -157q91 -84 91 -226z" />
    <glyph glyph-name="scedilla" unicode="&#x15f;" horiz-adv-x="974" 
d="M401 -334q148 22 148 91q0 36 -18 50q-18 15 -39 15q-20 0 -39 -10l-72 61l57 100q-94 4 -185 36t-153 81l58 148q75 -60 160 -83q84 -22 139 -22q117 0 180 46t63 116t-59 104q-37 23 -117 48q-80 26 -106 36q-156 53 -228 119t-72 199t110 216t305 83t339 -111
l-71 -131q-145 90 -284 90t-192 -72q-26 -34 -26 -86t41 -88q41 -35 156 -70q116 -34 154 -48q115 -42 176 -105t62 -164q2 -195 -159 -283q-78 -44 -186 -57l-37 -59q78 8 127 -36t49 -120t-68 -126t-176 -60z" />
    <glyph glyph-name="Scaron" unicode="&#x160;" horiz-adv-x="1181" 
d="M1100 397q0 -193 -138 -307t-376 -115q-123 0 -253 35t-231 96l68 158q190 -111 403 -110q166 0 247 62t81 171t-137 178q-64 34 -213 91q-267 102 -345 197q-79 95 -79 224q0 169 130 275q131 106 367 106t437 -133l-84 -145q-174 115 -369 114q-131 0 -208 -57
q-76 -57 -76 -165t140 -178q54 -28 91 -43t82 -33l55 -22q10 -3 37 -16q188 -74 280 -156q91 -83 91 -227zM512 1593l-227 234h170l112 -121l121 121h160l-213 -234h-123z" />
    <glyph glyph-name="scaron" unicode="&#x161;" horiz-adv-x="974" 
d="M325 876q-26 -34 -26 -86t41 -88q41 -35 181 -78q139 -43 200 -71q62 -28 102 -74q40 -45 53 -85t13 -89q0 -152 -113 -242t-309 -90q-101 0 -201 32t-166 85l58 148q78 -66 196 -93q53 -12 103 -12q117 0 180 46t63 116t-59 104q-37 23 -117 48q-80 26 -106 36
q-156 53 -228 119t-72 199t110 216t282 83q218 0 362 -111l-71 -131q-145 90 -284 90t-192 -72zM428 1227l-225 231h168l114 -119l119 119h162l-215 -231h-123z" />
    <glyph glyph-name="Tcedilla" unicode="&#x162;" horiz-adv-x="1325" 
d="M690 -233q0 35 -35 51q-9 4 -27 4t-34 -10l-72 61l72 127h-27v1268h-469v166h1131v-166h-471v-1268h-60l-51 -84q78 8 126 -36t48 -120t-66 -127q-67 -49 -175 -59l-37 92q147 23 147 101z" />
    <glyph glyph-name="tcedilla" unicode="&#x163;" horiz-adv-x="784" 
d="M319 -334q148 23 148 92q0 62 -57 64q-23 0 -39 -10l-72 61l66 117q-127 47 -127 217v711h-179v155h179v158l88 119h96v-277h264v-155h-264v-678q0 -102 88 -103q63 0 141 35l49 -139q-104 -59 -221 -60h-20l-35 -57q76 8 125 -36t49 -120t-68 -126t-176 -60z" />
    <glyph glyph-name="Tcaron" unicode="&#x164;" horiz-adv-x="1325" 
d="M1229 1434v-166h-471v-1268h-191v1268h-469v166h1131zM602 1587l-225 232h168l112 -119l121 119h162l-215 -232h-123z" />
    <glyph glyph-name="tcaron" unicode="&#x165;" horiz-adv-x="784" 
d="M422 1073h264v-158h-264v-675q0 -102 88 -103q63 0 141 35l49 -139q-104 -59 -221 -60q-242 0 -241 234v708h-179v158h179v158l88 119h96v-277zM578 1333h-93l11 312h166z" />
    <glyph glyph-name="Tbar" unicode="&#x166;" horiz-adv-x="1325" 
d="M1229 1268h-471v-1268h-191v1268h-469v166h1131v-166zM909 1683h-477v111h477v-111z" />
    <glyph glyph-name="tbar" unicode="&#x167;" horiz-adv-x="784" 
d="M238 573h-140v111h140v234h-179v155h179v158l88 119h96v-277h264v-155h-264v-234h151v-111h-151v-333q0 -102 88 -103q63 0 141 35l49 -139q-104 -59 -221 -60q-242 0 -241 234v366z" />
    <glyph glyph-name="Umacron" unicode="&#x16a;" horiz-adv-x="1433" 
d="M1266 1434v-916q0 -327 -230 -468q-128 -77 -337 -78t-365 123q-78 62 -122 171t-44 252v916h190v-924q0 -170 94 -264t266 -94q171 0 264 94t93 264v924h191zM942 1683h-475v111h475v-111z" />
    <glyph glyph-name="umacron" unicode="&#x16b;" horiz-adv-x="1214" 
d="M1049 1073v-1073h-134l-38 158q-70 -88 -156 -135q-85 -47 -225 -47t-235 94t-95 286v717h182v-674q0 -258 199 -258q98 0 173 50t146 139v743h183zM854 1323h-475v111h475v-111z" />
    <glyph glyph-name="Uring" unicode="&#x16e;" horiz-adv-x="1433" 
d="M1266 1434v-916q0 -327 -230 -468q-128 -77 -337 -78t-365 123q-78 62 -122 171t-44 252v916h190v-924q0 -170 94 -264t266 -94q171 0 264 94t93 264v924h191zM633 1720q0 -72 78 -71q27 0 46 20q19 21 19 45q0 60 -42 78q-13 6 -29 6q-51 0 -67 -46q-5 -14 -5 -32z
M716 1573q-174 -1 -172 161q0 60 46 100q45 40 114 40q68 0 114 -40t46 -111t-46 -111t-102 -39z" />
    <glyph glyph-name="uring" unicode="&#x16f;" horiz-adv-x="1214" 
d="M1049 1073v-1073h-134l-38 158q-70 -88 -156 -135q-85 -47 -225 -47t-235 94t-95 286v717h182v-674q0 -258 199 -258q98 0 173 50t146 139v743h183zM545 1369q0 -81 71 -81q34 0 52 20t18 46q0 24 -5 38q-17 47 -58 46q-40 0 -59 -21t-19 -48zM615 1212q-69 0 -115 40
t-45 111q0 71 46 111q47 40 115 40t114 -40t46 -111t-46 -111t-115 -40z" />
    <glyph glyph-name="Uhungarumlaut" unicode="&#x170;" horiz-adv-x="1433" 
d="M1266 1434v-916q0 -327 -230 -468q-128 -77 -337 -78t-365 123q-78 62 -122 171t-44 252v916h190v-924q0 -170 94 -264t266 -94q171 0 264 94t93 264v924h191zM854 1577h-111l125 246h193zM614 1577h-110l39 246h188z" />
    <glyph glyph-name="uhungarumlaut" unicode="&#x171;" horiz-adv-x="1214" 
d="M1049 1073v-1073h-134l-38 158q-70 -88 -156 -135q-85 -47 -225 -47t-235 94t-95 286v717h182v-674q0 -258 199 -258q98 0 173 50t146 139v743h183zM766 1217h-113l127 245h193zM524 1217h-108l37 245h190z" />
    <glyph glyph-name="Uogonek" unicode="&#x172;" horiz-adv-x="1433" 
d="M1266 1434v-916q0 -202 -82 -326t-226 -180q-53 -66 -71 -106t-19 -86q0 -100 109 -117l-35 -115q-100 12 -158 68t-58 147q-1 92 87 174q-47 -6 -128 -6t-177 31t-174 93t-122 171t-44 252v916h190v-924q0 -170 94 -264t266 -94q171 0 264 94t93 264v924h191z" />
    <glyph glyph-name="uogonek" unicode="&#x173;" horiz-adv-x="1214" 
d="M1049 0h-7q-49 -61 -67 -101t-19 -83q0 -102 109 -119l-33 -113q-100 12 -158 66t-59 139q-2 117 121 211h-21l-38 158q-70 -88 -156 -135q-85 -47 -225 -47t-235 94t-95 286v717h182v-674q0 -258 199 -258q98 0 173 50t146 139v743h183v-1055l6 -2l-6 -8v-8z" />
    <glyph glyph-name="Wcircumflex" unicode="&#x174;" horiz-adv-x="2060" 
d="M2017 1434l-444 -1434h-180l-365 1139l-360 -1139h-181l-444 1434h205l340 -1160l358 1160h180l355 -1162l340 1162h196zM901 1589h-174l234 242h106l223 -242h-168l-112 109z" />
    <glyph glyph-name="wcircumflex" unicode="&#x175;" horiz-adv-x="1587" 
d="M1559 1073l-377 -1073h-131l-271 793l-280 -793h-131l-340 1073h186l236 -825l274 825h127l268 -835l260 835h179zM664 1229h-175l234 241h106l224 -241h-168l-113 108z" />
    <glyph glyph-name="Ycircumflex" unicode="&#x176;" horiz-adv-x="1339" 
d="M741 0h-190v573l-502 861h223l379 -680l375 680h215l-500 -863v-571zM543 1589h-174l233 242h107l223 -242h-168l-113 109z" />
    <glyph glyph-name="ycircumflex" unicode="&#x177;" horiz-adv-x="1161" 
d="M291 -428q-104 0 -187 27l33 143q63 -20 129 -20t125 50t94 140l21 55l-453 1106h195l348 -917l315 917h193l-418 -1141q-131 -360 -395 -360zM457 1233h-174l233 242h107l223 -242h-168l-113 110z" />
    <glyph glyph-name="Ydieresis" unicode="&#x178;" horiz-adv-x="1339" 
d="M741 0h-190v573l-502 861h223l379 -680l375 680h215l-500 -863v-571zM938 1723q0 -115 -102 -115q-107 0 -107 108t114 107q39 0 67 -28t28 -72zM481 1823q47 0 76 -28t29 -81t-29 -80q-29 -26 -68 -26q-112 1 -112 97q1 62 29 90t75 28z" />
    <glyph glyph-name="Zacute" unicode="&#x179;" horiz-adv-x="1339" 
d="M1210 166v-166h-1093v143l817 1125h-772v166h1005v-134l-823 -1134h866zM709 1575h-136l146 250h239z" />
    <glyph glyph-name="zacute" unicode="&#x17a;" horiz-adv-x="976" 
d="M901 160v-160h-819v135l571 776h-553v162h781v-143l-588 -770h608zM512 1208h-135l147 250h238z" />
    <glyph glyph-name="Zdotaccent" unicode="&#x17b;" horiz-adv-x="1339" 
d="M1210 166v-166h-1093v143l817 1125h-772v166h1005v-134l-823 -1134h866zM774 1724q0 -46 -17 -72q-32 -48 -88 -48q-120 0 -120 112q0 113 122 113q35 0 69 -29t34 -76z" />
    <glyph glyph-name="zdotaccent" unicode="&#x17c;" horiz-adv-x="976" 
d="M901 160v-160h-819v135l571 776h-553v162h781v-143l-588 -770h608zM352 1350q0 56 33 84t80 28t80 -28t33 -84q0 -55 -33 -84t-80 -29t-80 29t-33 84z" />
    <glyph glyph-name="Zcaron" unicode="&#x17d;" horiz-adv-x="1339" 
d="M1210 166v-166h-1093v143l817 1125h-772v166h1005v-134l-823 -1134h866zM592 1593l-227 232h167l115 -119l119 119h162l-215 -232h-121z" />
    <glyph glyph-name="zcaron" unicode="&#x17e;" horiz-adv-x="976" 
d="M901 160v-160h-819v135l571 776h-553v162h781v-143l-588 -770h608zM395 1227l-227 231h170l113 -119l120 119h160l-213 -231h-123z" />
    <glyph glyph-name="florin" unicode="&#x192;" horiz-adv-x="958" 
d="M362 1073v184q0 156 88 231t244 75q98 0 166 -25l-35 -149q-53 16 -109 16q-106 0 -147 -66q-20 -33 -20 -79v-187h272v-149h-272v-846q0 -152 -87 -229t-237 -76q-96 0 -172 28l35 146q53 -17 119 -17q67 0 111 38t44 114v842h-163v149h163z" />
    <glyph glyph-name="Scommaaccent" unicode="&#x218;" horiz-adv-x="1181" 
d="M586 -422h-92l10 313h166zM127 1077q0 169 130 275q131 106 367 106t437 -133l-84 -145q-174 115 -369 114q-131 0 -208 -57q-76 -57 -76 -165t140 -178q70 -36 213 -93q145 -55 207 -89q148 -79 191 -183q25 -58 25 -132q0 -193 -138 -307t-376 -115q-124 0 -254 35
t-230 96l68 158q190 -111 403 -110q166 0 247 62t81 171t-137 178q-64 34 -214 91q-261 100 -342 195t-81 226z" />
    <glyph glyph-name="scommaaccent" unicode="&#x219;" horiz-adv-x="974" 
d="M506 -422h-94l10 313h166zM457 133q117 0 180 46t63 107t-32 93t-127 63q-96 31 -123 41q-156 53 -228 119t-72 200t110 216t282 82q106 0 202 -30t160 -81l-71 -131q-145 90 -289 90q-96 0 -154 -42t-59 -108q0 -66 55 -104q62 -38 106 -51q43 -13 97 -29q55 -16 93 -30
q115 -42 176 -105t62 -169q2 -213 -196 -296q-96 -41 -210 -41t-216 32q-100 32 -166 85l58 148q78 -66 196 -93q53 -12 103 -12z" />
    <glyph glyph-name="uni021A" unicode="&#x21a;" horiz-adv-x="1325" 
d="M645 -422h-92l10 313h166zM1229 1268h-471v-1268h-191v1268h-469v166h1131v-166z" />
    <glyph glyph-name="uni021B" unicode="&#x21b;" horiz-adv-x="784" 
d="M422 -422h-92l10 313h166zM422 1073h264v-158h-264v-675q0 -102 88 -103q63 0 141 35l49 -139q-104 -59 -221 -60q-242 0 -241 234v708h-179v158h179v158l88 119h96v-277z" />
    <glyph glyph-name="circumflex" unicode="&#x2c6;" horiz-adv-x="663" 
d="M446 1229l-112 108l-109 -108h-176l236 241h106l221 -241h-166z" />
    <glyph glyph-name="caron" unicode="&#x2c7;" horiz-adv-x="663" 
d="M612 1458l-213 -231h-123l-227 231h170l113 -119l121 119h159z" />
    <glyph glyph-name="breve" unicode="&#x2d8;" horiz-adv-x="630" 
d="M316 1331q131 0 155 127h115q-14 -115 -91 -177t-180.5 -62t-179.5 62t-90 177h111q12 -59 54 -93t106 -34z" />
    <glyph glyph-name="dotaccent" unicode="&#x2d9;" horiz-adv-x="522" 
d="M260 1462q47 0 80 -28.5t33 -84t-33 -84t-80 -28.5t-80 28.5t-33 84t33 84t80 28.5z" />
    <glyph glyph-name="ring" unicode="&#x2da;" horiz-adv-x="663" 
d="M332 1438q-33 0 -52.5 -21.5t-19.5 -48t10 -44.5q20 -36 57.5 -36t56.5 20.5t19 53.5t-19 54.5t-52 21.5zM333 1513q44 0 80 -16t57.5 -52t21.5 -94.5t-45.5 -98.5t-101.5 -40t-92 16.5t-58.5 51.5t-22.5 82t22.5 83t58.5 52t80 16z" />
    <glyph glyph-name="ogonek" unicode="&#x2db;" horiz-adv-x="407" 
d="M213 -201q0 -100 109 -118l-35 -113q-100 12 -157.5 66.5t-58.5 135.5t43 138.5t132 114.5l65 -23q-57 -70 -77.5 -112t-20.5 -89z" />
    <glyph glyph-name="tilde" unicode="&#x2dc;" horiz-adv-x="663" 
d="M462 1243q-56 0 -124 38t-105 38q-70 0 -108 -84l-96 49q25 86 78 126t108 40t125 -38t98 -38q60 0 101 92l100 -51q-25 -80 -73 -126t-104 -46z" />
    <glyph glyph-name="hungarumlaut" unicode="&#x2dd;" horiz-adv-x="663" 
d="M408 1217h-113l125 245h194zM166 1217h-111l39 245h191z" />
    <glyph glyph-name="commaaccentcomb" unicode="&#x326;" horiz-adv-x="0" 
d="M274 -422h-92l11 313h165z" />
    <glyph glyph-name="mu" unicode="&#x3bc;" horiz-adv-x="1259" 
d="M1094 1073v-1073h-133l-39 156q-66 -88 -139 -134t-171 -47q-180 0 -254 86v-450h-182v1462h184v-684q0 -123 74 -185t184 -63q172 0 291 197v735h185z" />
    <glyph glyph-name="Wgrave" unicode="&#x1e80;" horiz-adv-x="2060" 
d="M1573 0h-180l-365 1139l-360 -1139h-181l-444 1434h205l340 -1160l358 1160h180l355 -1162l340 1162h196zM1104 1569h-133l-254 250h239z" />
    <glyph glyph-name="wgrave" unicode="&#x1e81;" horiz-adv-x="1587" 
d="M1559 1073l-377 -1073h-131l-271 793l-280 -793h-131l-340 1073h186l236 -825l274 825h127l268 -835l260 835h179zM731 1208l-252 250h238l149 -250h-135z" />
    <glyph glyph-name="Wacute" unicode="&#x1e82;" horiz-adv-x="2060" 
d="M1573 0h-180l-365 1139l-360 -1139h-181l-444 1434h205l340 -1160l358 1160h180l355 -1162l340 1162h196zM1069 1569h-135l147 250h238z" />
    <glyph glyph-name="wacute" unicode="&#x1e83;" horiz-adv-x="1587" 
d="M1559 1073l-377 -1073h-131l-271 793l-280 -793h-131l-340 1073h186l236 -825l274 825h127l268 -835l260 835h179zM831 1208h-135l146 250h239z" />
    <glyph glyph-name="Wdieresis" unicode="&#x1e84;" horiz-adv-x="2060" 
d="M1573 0h-180l-365 1139l-360 -1139h-181l-444 1434h205l340 -1160l358 1160h180l355 -1162l340 1162h196zM1186 1823q110 0 110 -109q0 -51 -28 -79q-28 -27 -74 -27q-47 0 -77 26t-30 80q0 53 30 81t69 28zM848 1823q40 0 68 -28t28 -81t-29 -80q-29 -26 -75 -26t-76 28
q-29 28 -29 70q0 117 113 117z" />
    <glyph glyph-name="wdieresis" unicode="&#x1e85;" horiz-adv-x="1587" 
d="M1559 1073l-377 -1073h-131l-271 793l-280 -793h-131l-340 1073h186l236 -825l274 825h127l268 -835l260 835h179zM946 1462q113 0 113 -107q0 -52 -28 -80t-75 -28q-46 0 -76 27t-30 71q0 43 14 69q27 48 82 48zM602 1247q-47 0 -76 28t-28 80t28 80q28 27 76 27
q47 0 76 -28t29 -80q0 -53 -29 -80t-76 -27z" />
    <glyph glyph-name="uni1E9E" unicode="&#x1e9e;" horiz-adv-x="1384" 
d="M836 -33q-174 0 -281 53l35 164q96 -47 210 -47t184 68q70 69 71 175t-99 180t-327 75v129l303 276q0 151 -129 214q-61 30 -141 30q-127 0 -208 -74t-81 -219v-991h-193v1020q0 206 139 322t355 116t336 -120t120 -332l-290 -261q178 -18 296 -112t118 -267t-122 -286
t-296 -113z" />
    <glyph glyph-name="Ygrave" unicode="&#x1ef2;" horiz-adv-x="1339" 
d="M741 0h-190v573l-502 861h223l379 -680l375 680h215l-500 -863v-571zM743 1569h-133l-254 250h240z" />
    <glyph glyph-name="ygrave" unicode="&#x1ef3;" horiz-adv-x="1161" 
d="M291 -428q-104 0 -187 27l33 143q63 -20 129 -20t125 50t94 140l21 55l-453 1106h195l348 -917l315 917h193l-418 -1141q-131 -360 -395 -360zM524 1212l-254 250h240l147 -250h-133z" />
    <glyph glyph-name="uni2009" unicode="&#x2009;" horiz-adv-x="88" 
 />
    <glyph glyph-name="endash" unicode="&#x2013;" horiz-adv-x="1226" 
d="M1071 453h-919v161h919v-161z" />
    <glyph glyph-name="emdash" unicode="&#x2014;" horiz-adv-x="1859" 
d="M1735 453h-1573v161h1573v-161z" />
    <glyph glyph-name="quoteleft" unicode="&#x2018;" horiz-adv-x="462" 
d="M242 1464l65 -37q-76 -76 -90 -145q75 -9 102 -70q15 -29 15 -80t-39 -88q-39 -36 -89 -36t-82 20q-65 41 -67 143q1 170 185 293z" />
    <glyph glyph-name="quoteright" unicode="&#x2019;" horiz-adv-x="522" 
d="M131 1327q0 63 40 100t100 37q59 0 99 -44t40 -117q-1 -170 -185 -295l-67 39q76 76 92 145q-80 12 -110 83q-9 24 -9 52z" />
    <glyph glyph-name="quotesinglbase" unicode="&#x201a;" horiz-adv-x="462" 
d="M129 120q0 64 39 101t99 37q59 0 99 -45t40 -119q-1 -180 -189 -303l-63 33q80 78 96 156q-51 4 -86 40t-35 100z" />
    <glyph glyph-name="quotedblleft" unicode="&#x201c;" horiz-adv-x="802" 
d="M684 1140q0 -144 -148 -144q-50 0 -91 43q-40 44 -39 118q0 180 190 303l63 -33q-80 -80 -96 -157q49 -4 85 -41t36 -89zM344 1130q0 -62 -39 -99q-39 -36 -101 -36t-100 44q-39 44 -38 118q0 180 190 303l63 -33q-82 -80 -96 -159q49 -4 85 -40t36 -98z" />
    <glyph glyph-name="quotedblright" unicode="&#x201d;" horiz-adv-x="802" 
d="M459 1319q0 98 84 132q25 9 55 9q95 0 129 -96q10 -31 10 -66q0 -182 -190 -303l-64 31q82 80 99 160q-74 9 -105 64q-18 32 -18 69zM119 1334q0 52 39 89q38 37 100 37t100 -44t39 -118q0 -182 -190 -303l-64 31q82 80 97 158q-68 4 -103 66q-18 32 -18 84z" />
    <glyph glyph-name="quotedblbase" unicode="&#x201e;" horiz-adv-x="802" 
d="M459 122q0 62 39 99q38 37 100 37t100 -45t39 -119q0 -180 -190 -303l-64 33q82 80 99 160q-51 6 -87 41t-36 97zM119 122q0 62 39 99q38 37 100 37t100 -45t39 -119q0 -180 -190 -303l-64 33q82 80 97 158q-49 4 -85 41t-36 99z" />
    <glyph glyph-name="dagger" unicode="&#x2020;" horiz-adv-x="860" 
d="M786 922h-268v-922h-176v922h-270v151h270v361h176v-361h268v-151z" />
    <glyph glyph-name="daggerdbl" unicode="&#x2021;" horiz-adv-x="923" 
d="M547 940v-231h254v-156h-254v-553h-174v553h-252v156h252v231h-252v154h252v342h174v-342h254v-154h-254z" />
    <glyph glyph-name="bullet" unicode="&#x2022;" horiz-adv-x="649" 
d="M323 801q73 0 125 -46t52 -134q0 -89 -54 -135t-124 -46q-72 0 -123 46t-51 134t50 135q52 46 125 46z" />
    <glyph glyph-name="ellipsis" unicode="&#x2026;" horiz-adv-x="1802" 
d="M1606 112q0 -68 -39 -104q-39 -37 -99 -37t-99 37q-40 38 -40 94t20 88q37 64 129 64q48 0 88 -37t40 -105zM901 254q59 0 98 -37t39 -93t-18 -89q-34 -62 -106 -63t-111 36t-39 105q0 69 39 105t98 36zM334 254q92 0 128 -80q11 -26 11 -66t-19 -73q-36 -62 -107 -63
q-72 -1 -111 36q-39 38 -39 88q0 88 40 123t97 35z" />
    <glyph glyph-name="perthousand" unicode="&#x2030;" horiz-adv-x="2277" 
d="M1174 520q-80 0 -123 -56t-43 -156t43 -156q43 -55 123 -56q162 0 162 212t-162 212zM1733 324q-1 -228 163 -228t164 212t-162 212q-78 0 -122 -56t-43 -140zM1174 639q135 0 223 -88t88 -243q0 -156 -87 -244t-223 -88t-226 87q-89 88 -89 245t89 244q90 87 225 87z
M1898 639q136 0 224 -88t88 -243q0 -156 -87 -244t-223 -88t-226 87q-89 88 -89 245t89 244t224 87zM381 1339q-78 0 -122 -56q-44 -57 -44 -157t44 -155t122 -56q164 0 164 212t-164 212zM367 0h-140l967 1434h139zM383 1458q187 0 268 -151q41 -76 41 -181
q0 -154 -86 -242t-222 -87q-136 0 -225 87q-89 86 -89 242t89 244t224 88z" />
    <glyph glyph-name="guilsinglleft" unicode="&#x2039;" horiz-adv-x="716" 
d="M565 811l-241 -289l241 -286l-104 -95l-318 379l312 383z" />
    <glyph glyph-name="guilsinglright" unicode="&#x203a;" horiz-adv-x="737" 
d="M586 520l-318 -379l-104 95l242 286l-242 289l110 92z" />
    <glyph glyph-name="fraction" unicode="&#x2044;" horiz-adv-x="454" 
d="M575 1542l-585 -1800h-123l590 1800h118z" />
    <glyph glyph-name="Euro" unicode="&#x20ac;" horiz-adv-x="1468" 
d="M131 492v131h170q-4 47 -4 94t4 92h-170v131h186q49 258 214 388t397 130q276 0 458 -155l-104 -136q-164 117 -334 117q-340 0 -428 -344h719l-31 -131h-708q-4 -41 -4 -89t6 -97h676l-31 -131h-621q63 -221 225 -302q77 -39 167 -38q202 0 376 131l101 -129
q-203 -178 -488 -179q-219 0 -378 130t-210 387h-188z" />
    <glyph glyph-name="trademark" unicode="&#x2122;" horiz-adv-x="1779" 
d="M1663 653h-152v467l-237 -401h-51l-230 399v-465h-147v781h123l284 -502l303 502h107v-781zM745 1294h-233v-641h-152v641h-229v140h614v-140z" />
    <glyph glyph-name="oneeighth" unicode="&#x215b;" horiz-adv-x="2117" 
d="M1705 100q81 0 123 36t42 95t-45 97t-120 37q-75 0 -122 -37q-47 -36 -47 -96t44 -96t125 -36zM1561 594q0 -106 145 -109q66 0 106 27t39 78q0 50 -42 80t-88 30t-85 -10t-57 -42q-18 -31 -18 -54zM2032 217q0 -104 -92 -177t-237 -73q-144 0 -237 73q-92 73 -92 177
q0 152 154 211q-121 53 -121 178q0 98 83 160t214 63q131 0 215 -62t84 -161q0 -127 -125 -180q154 -57 154 -209zM514 739h174v-131h-502v131h174v514l-159 -67l-54 114l261 125h106v-686zM1409 1542l-586 -1800h-123l590 1800h119z" />
    <glyph glyph-name="threeeighths" unicode="&#x215c;" horiz-adv-x="2117" 
d="M1705 100q81 0 123 36t42 95t-45 97t-120 37q-75 0 -122 -37q-47 -36 -47 -96t44 -96t125 -36zM1716 700q-155 0 -155 -118q0 -42 40 -70q39 -27 105 -27t106 27t39 78q0 50 -42 80t-93 30zM2032 217q0 -68 -41 -125t-117 -91t-168 -34q-147 0 -240 73q-92 73 -92 177
q0 152 154 211q-121 53 -121 178q0 98 83 160q82 62 192 63q204 0 283 -108q38 -51 38 -115q0 -127 -125 -180q154 -57 154 -209zM390 1442q154 0 232 -58t78 -149q0 -63 -41 -115t-112 -73q186 -35 186 -201q0 -115 -95 -190q-95 -74 -257 -74t-289 96l66 117
q115 -74 216 -74t147 36t46 96q0 120 -182 120h-90v123h74q77 0 121 28t45 82q0 102 -146 103q-105 0 -205 -80l-71 102q123 111 277 111zM1409 1542l-586 -1800h-123l590 1800h119z" />
    <glyph glyph-name="fiveeighths" unicode="&#x215d;" horiz-adv-x="2117" 
d="M1705 100q81 0 123 36t42 85t-20 80q-39 62 -129 63q-91 1 -138 -36q-47 -36 -47 -96t44 -96t125 -36zM1561 594q0 -106 145 -109q66 0 106 27t39 78q0 50 -42 80t-88 30t-85 -10t-57 -42q-18 -31 -18 -54zM2032 217q0 -104 -92 -177t-237 -73q-144 0 -237 73
q-92 73 -92 177q0 152 154 211q-121 53 -121 178q0 98 83 160t214 63q131 0 215 -62t84 -161q0 -127 -125 -180q154 -57 154 -209zM305 1280v-184q55 37 159 37t182 -72t79 -195q0 -124 -94 -204t-246 -80t-262 80l55 112q98 -57 208 -57t155 76q20 35 20 89t-44 92t-125 38
t-138 -56l-100 43v418h514v-137h-363zM1409 1542l-586 -1800h-123l590 1800h119z" />
    <glyph glyph-name="seveneighths" unicode="&#x215e;" horiz-adv-x="2117" 
d="M1705 100q81 0 123 36t42 95t-45 97t-120 37q-75 0 -122 -37q-47 -36 -47 -96t44 -96t125 -36zM1705 700q-62 0 -103 -30t-41 -80q0 -51 40 -78q39 -27 105 -27t106 27t39 78q0 50 -42 80t-104 30zM2032 217q0 -104 -92 -177t-237 -73q-144 0 -237 73q-92 73 -92 177
q0 152 154 211q-121 53 -121 178q0 62 38 114q82 111 261 109q129 0 213 -62t84 -161q0 -127 -125 -180q154 -57 154 -209zM115 1276v139h604v-119l-342 -688h-166l328 668h-424zM1409 1542l-586 -1800h-123l590 1800h119z" />
    <glyph glyph-name="minus" unicode="&#x2212;" horiz-adv-x="1386" 
d="M1174 651h-961v133h961v-133z" />
    <glyph glyph-name="notequal" unicode="&#x2260;" horiz-adv-x="1400" 
d="M1171 494v-127h-499l-107 -297h-143l106 297h-301v127h348l99 278h-447v131h494l96 268h141l-94 -268h307v-131h-354l-100 -278h454z" />
    <glyph glyph-name="uni2322" unicode="&#x2322;" 
d="M1024 608q180 0 317 -103t170 -259h-96q-64 136 -224 197q-79 30 -189 30t-216 -63q-106 -64 -153 -164h-96q33 156 170 259t317 103z" />
    <glyph glyph-name="uni2323" unicode="&#x2323;" 
d="M1024 199q-180 0 -317 103t-170 259h96q47 -104 153 -171q106 -66 238 -66t238 66q106 67 153 171h96q-33 -156 -170 -259t-317 -103z" />
    <glyph glyph-name="uni2639" unicode="&#x2639;" 
d="M733 219q0 106 85 181t206 75t206 -75t85 -181h110q1 159 -117 269t-284 110t-284 -111t-117 -268h110zM1205 1077q-93 1 -93 -197t93 -198t93 198t-93 197zM843 1077q-93 1 -93 -197t93 -198t93 198t-93 197zM1024 1458q328 0 560 -232t232 -561t-232 -563t-560 -233
q-328 0 -560 233q-232 232 -232 562t232 562t560 232z" />
    <glyph glyph-name="whiteSmilingFace" unicode="&#x263a;" 
d="M1024 199q180 0 317 103t170 259h-96q-47 -104 -153 -171q-106 -66 -238 -66t-238 66q-106 67 -153 171h-96q33 -156 170 -259t317 -103zM1205 1036q-93 0 -93 -198t93 -197q93 -1 93 197t-93 198zM843 1036q-93 0 -93 -198t93 -197q93 -1 93 197t-93 198zM1024 1458
q328 0 560 -232t232 -561t-232 -563t-560 -233q-328 0 -560 233q-232 232 -232 562t232 562t560 232z" />
    <glyph glyph-name="onefitted" unicode="&#xf6dc;" horiz-adv-x="1159" 
d="M1008 172v-172h-809v172h309v1047l-330 -152l-76 141l457 232h146v-1268h303z" />
    <glyph glyph-name="threequartersemdash" unicode="&#xf6de;" horiz-adv-x="1353" 
d="M1190 524h-1024v164h1024v-164z" />
    <glyph glyph-name="u1F600" unicode="&#x1f600;" 
d="M825 434q80 -16 166 -18v-115q-88 4 -166 27v106zM1225 328q-78 -23 -166 -27v115q86 4 166 20v-108zM1290 453q92 27 176 73q-43 -115 -176 -174v101zM760 352q-133 59 -176 174q86 -47 176 -73v-101zM1027 510q-349 0 -552 172q3 -250 151 -406t399 -156t399 158
q148 156 149 406q-197 -174 -546 -174zM1205 1036q-93 0 -93 -198t93 -197q93 -1 93 197t-93 198zM843 1036q-93 0 -93 -198t93 -197q93 -1 93 197t-93 198zM1024 1458q328 0 560 -232t232 -561t-232 -563t-560 -233q-328 0 -560 233q-232 232 -232 562t232 562t560 232z
" />
    <glyph glyph-name="u1F601" unicode="&#x1f601;" 
d="M825 434q80 -16 166 -18v-115q-88 4 -166 27v106zM1225 328q-78 -23 -166 -27v115q86 4 166 20v-108zM1290 453q92 27 176 73q-43 -115 -176 -174v101zM760 352q-133 59 -176 174q86 -47 176 -73v-101zM1027 510q-349 0 -552 172q3 -250 151 -406t399 -156t399 158
q148 156 149 406q-197 -174 -546 -174zM1248 973q56 0 69 -203h94q-4 143 -48 221t-114 78q-71 0 -115 -78t-49 -221h95q12 203 68 203zM800 973q56 0 68 -203h95q-5 143 -49 221t-114 78t-114 -78q-45 -78 -49 -221h94q13 203 69 203zM1024 1458q328 0 560 -232t232 -561
t-232 -563t-560 -233q-328 0 -560 233q-232 232 -232 562t232 562t560 232z" />
    <glyph glyph-name="u1F602" unicode="&#x1f602;" 
d="M1964 281q20 20 21 46q0 48 -53 64q-19 6 -49 11t-54 16q13 -32 19 -76t25 -61q19 -18 45 -19t46 19zM148 398q-82 -16 -84 -71q0 -26 20 -46t54 -18q52 2 65 86q6 36 16 69q-23 -10 -71 -20zM823 354v109q80 -16 168 -19v-116q-90 3 -168 26zM1059 328v116q88 2 168 19
v-109q-78 -22 -168 -26zM1294 379v100q94 29 181 76q-46 -115 -181 -176zM756 479v-100q-135 61 -181 176q87 -47 181 -76zM385 584q-20 20 -19 46t17 42q17 16 35 21t49 10t55 16q-10 -25 -15 -55t-10 -48q-12 -48 -64 -52q-25 0 -48 20zM1526 719q24 -7 72 -17t66 -28
t18 -44q1 -26 -19 -46t-47 -20t-44 18t-27 66q-9 48 -19 71zM297 629q0 -55 36 -92t82 -42t81 15q30 -102 107 -195q117 -133 293 -162q60 -11 128 -12q199 -1 337 99t191 270q35 -20 81 -15t82 42t36 92t-34 88t-132 48t-145 50l-10 -8q38 -52 53 -162q-187 -109 -457 -107
t-461 107q0 11 3 23t5 24t9 38t15 39q7 13 11 21t10 17l-8 8q-49 -35 -147 -50t-132 -48t-34 -88zM1215 1051q-67 0 -105 -74t-45 -211h86q9 188 65 188t68 -188h84q-4 137 -45 211t-108 74zM832 1051q-66 0 -107 -74t-45 -211h84q12 188 68 188t65 -188h86q-6 137 -45 211
q-40 74 -106 74zM1024 -131q-258 -1 -463 149t-287 388q-4 -16 -9 -50t-13 -70q-8 -37 -35 -59q-33 -35 -88 -35t-94 40q-39 38 -40 94t36 88q29 31 113 46t108 23q-20 88 -21 181q-1 217 105 399q106 183 290 289t398 106q215 0 397 -106q183 -106 289 -290t107 -398
q0 -92 -21 -181q31 -10 79 -17q47 -7 83 -17t66 -39t29 -84q-1 -54 -40 -94t-94 -40q-98 1 -122 98q-7 26 -13 64t-10 52q-53 -156 -164 -277q-112 -121 -264 -191t-322 -69z" />
    <glyph glyph-name="u1F603" unicode="&#x1f603;" 
d="M1025 416q227 0 409 102q-39 -135 -151 -207q-112 -71 -258 -71t-258 72t-151 206q182 -102 409 -102zM1026 502q-324 0 -510 160q0 -232 138 -376t370 -144t371 145q137 146 137 377q-182 -162 -506 -162zM1205 1098q-93 0 -93 -198t93 -198t93 198t-93 198zM843 1098
q-93 0 -93 -198t93 -198t93 198t-93 198zM1024 1458q328 0 560 -232t232 -561t-232 -563t-560 -233q-328 0 -560 233q-232 232 -232 562t232 562t560 232z" />
    <glyph glyph-name="u1F604" unicode="&#x1f604;" 
d="M1025 416q227 0 409 102q-39 -135 -151 -207q-112 -71 -258 -71t-258 72t-151 206q182 -102 409 -102zM1026 502q-324 0 -510 160q0 -232 138 -376t370 -144t371 145q137 146 137 377q-182 -162 -506 -162zM1248 973q56 0 69 -203h94q-4 143 -48 221t-114 78
q-71 0 -115 -78t-49 -221h95q12 203 68 203zM800 973q56 0 68 -203h95q-5 143 -49 221t-114 78t-114 -78q-45 -78 -49 -221h94q13 203 69 203zM1024 1458q328 0 560 -232t232 -561t-232 -563t-560 -233q-328 0 -560 233q-232 232 -232 562t232 562t560 232z" />
    <glyph glyph-name="u1F605" unicode="&#x1f605;" 
d="M1025 416q227 0 409 102q-39 -135 -151 -207q-112 -71 -258 -71t-258 72t-151 206q182 -102 409 -102zM1026 502q-324 0 -510 160q0 -232 138 -376t370 -144t371 145q137 146 137 377q-182 -162 -506 -162zM1522 838q0 18 23 53q24 35 32 55q8 -20 32 -55q23 -35 23 -57
t-15 -37q-15 -17 -35 -17q-60 -2 -60 58zM1464 835q0 -33 14 -59q30 -54 88 -53q58 0 91 32q33 33 33 73t-51 110q-50 70 -56 119h-12q-7 -49 -57 -119t-50 -103zM1248 973q56 0 69 -203h94q-4 143 -48 221t-114 78q-71 0 -115 -78t-49 -221h95q12 203 68 203zM800 973
q56 0 68 -203h95q-5 143 -49 221t-114 78t-114 -78q-45 -78 -49 -221h94q13 203 69 203zM1024 1458q328 0 560 -232t232 -561t-232 -563t-560 -233q-328 0 -560 233q-232 232 -232 562t232 562t560 232z" />
    <glyph glyph-name="u1F606" unicode="&#x1f606;" 
d="M1025 274q-146 0 -258 72t-151 207q182 -102 409 -102t409 102q-39 -135 -151 -207t-258 -72zM1532 698q-182 -162 -506 -162t-510 160q0 -231 138 -375q138 -145 370 -145t370 146t138 376zM1380 975l-41 108l-249 -149v-53l249 -166l41 108l-166 80v8zM958 934
l-249 149l-41 -108l166 -64v-8l-166 -80l41 -108l249 166v53zM1024 1458q328 0 560 -232t232 -561t-232 -563t-560 -233q-328 0 -560 233q-232 232 -232 562t232 562t560 232z" />
    <glyph glyph-name="u1F607" unicode="&#x1f607;" 
d="M1024 199q180 0 317 103t170 259h-96q-47 -104 -153 -171q-106 -66 -238 -66t-238 66q-106 67 -153 171h-96q33 -156 170 -259t317 -103zM1205 641q93 0 93 198t-93 197q-93 0 -93 -198t93 -197zM843 641q93 0 93 198t-93 197q-93 0 -93 -198t93 -197zM457 1487
q0 -37 41 -75t116 -69q188 115 410 115t410 -115q157 64 157 142q0 57 -73 106q-168 111 -535 111q-199 0 -363 -64t-163 -151zM1542 1266q275 -241 275 -621q-1 -195 -107 -379t-288 -290t-398 -107q-215 0 -398 106q-182 105 -288 289t-106 381q-1 384 274 621
q-172 96 -172 219t201 218t489 95q188 0 349 -44t251 -117t90 -154q0 -57 -45 -115t-127 -102z" />
    <glyph glyph-name="u1F608" unicode="&#x1f608;" 
d="M1024 199q180 0 317 103t170 259h-96q-47 -104 -153 -171t-238 -66q-180 0 -303 114q-57 53 -88 123h-96q33 -156 170 -259t317 -103zM1108 817q0 -193 90 -192q90 0 90 192v117l203 65l-23 88l-360 -114v-156zM760 817q0 -193 90 -192q90 0 90 192v156l-360 114l-23 -88
l203 -65v-117zM1024 -131q-215 0 -398 106q-182 105 -288 289t-107 400q0 158 58 299q57 141 162 249v414l299 -217q133 49 274 49t274 -49l299 217v-414q218 -233 220 -548q-1 -214 -107 -398t-288 -290t-398 -107z" />
    <glyph glyph-name="u1F609" unicode="&#x1f609;" 
d="M1024 199q180 0 317 103t170 259h-96q-47 -104 -153 -171q-106 -66 -238 -66t-238 66q-106 67 -153 171h-96q23 -102 91 -185t173 -130q104 -47 223 -47zM1372 950l-41 99l-215 -134v-79l215 -154l41 98l-141 94zM844 1075q-92 1 -92 -195t92 -196t92 196t-92 195z
M1024 1458q328 0 560 -232t232 -561t-232 -563t-560 -233q-328 0 -560 233q-232 232 -232 562t232 562t560 232z" />
    <glyph glyph-name="u1F60A" unicode="&#x1f60a;" 
d="M1024 350q-132 0 -238 67t-153 171h-96q33 -156 170 -259t317 -104q119 0 223 47t173 130t91 186h-96q-47 -104 -153 -171t-238 -67zM1248 973q56 0 69 -203h94q-4 143 -48 221t-114 78q-71 0 -115 -78t-49 -221h95q12 203 68 203zM800 973q56 0 68 -203h95
q-5 143 -49 221t-114 78t-114 -78q-45 -78 -49 -221h94q13 203 69 203zM1024 1458q328 0 560 -232t232 -561t-232 -563t-560 -233q-328 0 -560 233q-232 232 -232 562t232 562t560 232z" />
    <glyph glyph-name="u1F60B" unicode="&#x1f60b;" 
d="M1321 264q-51 -37 -131 74q74 27 131 76q31 -74 30 -105t-30 -45zM1024 412q-113 0 -200 56t-113 142h-105q29 -129 146 -215t272 -86q43 0 86 8q136 -206 250 -122q59 33 66 95t-48 185q47 61 64 135h-105q-45 -137 -205 -183q-52 -15 -108 -15zM1248 973q56 0 69 -203
h94q-4 143 -48 221t-114 78q-71 0 -115 -78t-49 -221h95q12 203 68 203zM800 973q56 0 68 -203h95q-5 143 -49 221t-114 78t-114 -78q-45 -78 -49 -221h94q13 203 69 203zM1024 1458q328 0 560 -232t232 -561t-232 -563t-560 -233q-328 0 -560 233q-232 232 -232 562
t232 562t560 232z" />
    <glyph glyph-name="u1F60C" unicode="&#x1f60c;" 
d="M1024 199q180 0 317 103t170 259h-96q-47 -104 -153 -171q-106 -66 -238 -66t-238 66q-106 67 -153 171h-96q33 -156 170 -259t317 -103zM1248 784q-56 0 -68 203h-95q5 -143 49 -221t114 -78t114 78q45 78 49 221h-94q-13 -203 -69 -203zM800 784q-56 0 -69 203h-94
q4 -143 48 -221t114 -78q71 0 115 78t49 221h-95q-12 -203 -68 -203zM1024 1458q328 0 560 -232t232 -561t-232 -563t-560 -233q-328 0 -560 233q-232 232 -232 562t232 562t560 232z" />
    <glyph glyph-name="u1F60E" unicode="&#x1f60e;" 
d="M1024 199q180 0 317 103t170 259h-96q-47 -104 -153 -171t-238 -66q-204 0 -330 142q-39 44 -61 95h-96q23 -102 91 -185t173 -130q104 -47 223 -47zM694 659h105q61 0 89 24t46 77l59 162h64l57 -162q14 -35 26 -54q30 -45 109 -47h105q76 0 112 33t58 105l39 125h123
l-54 108h-1229l-53 -108h137l37 -125q20 -72 58 -105t112 -33zM1024 1458q328 0 560 -232t232 -561t-232 -563t-560 -233q-328 0 -560 233q-232 232 -232 562t232 562t560 232z" />
    <glyph glyph-name="u1F60F" unicode="&#x1f60f;" 
d="M1024 340v-121q124 0 234 55q110 54 183 152t95 217h-123q-33 -133 -141 -218t-248 -85zM1438 735v123h-324v-123h324zM932 735v123h-324v-123h324zM1024 1458q328 0 560 -232t232 -561t-232 -563t-560 -233q-328 0 -560 233q-232 232 -232 562t232 562t560 232z" />
    <glyph glyph-name="u1F610" unicode="&#x1f610;" 
d="M1432 358v123h-816v-123h816zM1205 1036q-93 0 -93 -198t93 -197q93 -1 93 197t-93 198zM843 1036q-93 0 -93 -198t93 -197q93 -1 93 197t-93 198zM1024 1458q328 0 560 -232t232 -561t-232 -563t-560 -233q-328 0 -560 233q-232 232 -232 562t232 562t560 232z" />
    <glyph glyph-name="u1F611" unicode="&#x1f611;" 
d="M1432 358v123h-816v-123h816zM1438 735v123h-324v-123h324zM932 735v123h-324v-123h324zM1024 1458q328 0 560 -232t232 -561t-232 -563t-560 -233q-328 0 -560 233q-232 232 -232 562t232 562t560 232z" />
    <glyph glyph-name="u1F612" unicode="&#x1f612;" 
d="M1432 358v123h-816v-123h816zM1475 985h-414v-94h227q0 -199 93 -199t94 199v94zM946 985h-414v-94h228q0 -199 93 -199t93 199v94zM1024 1458q328 0 560 -232t232 -561t-232 -563t-560 -233q-328 0 -560 233q-232 232 -232 562t232 562t560 232z" />
    <glyph glyph-name="u1F613" unicode="&#x1f613;" 
d="M1432 248v123h-816v-123h816zM1606 580q0 -28 -20 -46q-20 -20 -50 -20q-31 0 -50 20q-38 39 -8 88q12 20 30 46t28 51q12 -25 41 -68t29 -71zM1395 569q0 -49 41 -89t100 -40t100 40t41 83q0 71 -61 145t-72 150h-14q-6 -35 -22 -69t-82 -127q-31 -44 -31 -93zM1110 872
q0 -195 90 -194q90 0 90 194v58l183 -90l24 88l-387 190v-246zM938 872v246l-385 -190l22 -88l183 90v-58q0 -195 90 -194q90 0 90 194zM1024 1458q328 0 560 -232t232 -561t-232 -563t-560 -233q-328 0 -560 233q-232 232 -232 562t232 562t560 232z" />
    <glyph glyph-name="u1F614" unicode="&#x1f614;" 
d="M1432 317v123h-816v-123h816zM1249 1008q-71 0 -115 -78t-49 -221h95q12 203 69 202q55 0 68 -202h94q-4 143 -48 221t-114 78zM800 1008q-70 0 -114 -78q-45 -78 -49 -221h94q12 203 68 202q57 0 69 -202h95q-5 143 -49 221t-114 78zM1024 1458q328 0 560 -232t232 -561
t-232 -563t-560 -233q-328 0 -560 233q-232 232 -232 562t232 562t560 232z" />
    <glyph glyph-name="u1F615" unicode="&#x1f615;" 
d="M791 186q248 264 700 254l-47 129q-453 8 -701 -256zM1292 911h-196v-73q0 -125 98 -125t98 125v73zM837 1016q-81 0 -81 -174t81 -174t81 174t-81 174zM1024 1458q328 0 560 -232t232 -561t-232 -563t-560 -233q-328 0 -560 233q-232 232 -232 562t232 562t560 232z" />
    <glyph glyph-name="u1F616" unicode="&#x1f616;" 
d="M1024 457q-39 0 -68 17t-49 43q-20 25 -43 51q-53 59 -149 65q-115 0 -176 -79q-60 -79 -84 -169l92 -27q49 143 172 144q64 0 112 -67q20 -27 43 -55q54 -65 151 -66q96 -1 151 66q23 28 42 56q45 65 111 66q123 0 172 -144l92 27q-20 84 -64 143q-77 101 -185 105
q-107 4 -160 -59q-23 -26 -43 -52t-49 -46q-29 -19 -68 -19zM1430 799l47 127l-363 131l-47 -127zM940 1057l-362 -131l45 -127l362 131zM1024 1458q215 0 397 -106q183 -106 289 -290t106 -372q1 -353 -232 -588q-104 -106 -252 -170t-308 -63q-215 0 -398 106
q-182 105 -288 289t-106 400t104 399q106 183 290 289t398 106z" />
    <glyph glyph-name="u1F61B" unicode="&#x1f61b;" 
d="M1024 193q-59 0 -90 58t-43 200h264q-12 -141 -42 -199t-89 -59zM1430 451v102h-812v-102h170q18 -358 236 -361q100 0 162 89q61 89 71 272h173zM1205 1036q-93 0 -93 -198t93 -197q93 -1 93 197t-93 198zM843 1036q-93 0 -93 -198t93 -197q93 -1 93 197t-93 198z
M1024 1458q328 0 560 -232t232 -561t-232 -563t-560 -233q-328 0 -560 233q-232 232 -232 562t232 562t560 232z" />
    <glyph glyph-name="u1F61C" unicode="&#x1f61c;" 
d="M1024 193q-59 0 -90 58t-41 200h262q-12 -141 -42 -199t-89 -59zM1430 451v102h-812v-102h173q16 -358 233 -361q100 0 162 89q61 89 71 272h173zM1372 950l-41 99l-215 -134v-79l215 -154l41 98l-141 94zM844 1075q-92 1 -92 -195t92 -196t92 196t-92 195zM1024 1458
q328 0 560 -232t232 -561t-232 -563t-560 -233q-328 0 -560 233q-232 232 -232 562t232 562t560 232z" />
    <glyph glyph-name="u1F61D" unicode="&#x1f61d;" 
d="M1034 193q-49 1 -76 25q-54 49 -65 233h262q-12 -141 -42 -199t-79 -59zM1430 451v102h-812v-102h173q16 -358 233 -361q100 0 162 89q61 89 71 272h173zM1380 940l-41 109l-249 -150v-53l249 -166l41 108l-166 80v9zM958 899l-249 150l-41 -109l166 -63v-9l-166 -80
l41 -108l249 166v53zM1024 1458q328 0 560 -232t232 -561t-232 -563t-560 -233q-328 0 -560 233q-232 232 -232 562t232 562t560 232z" />
    <glyph glyph-name="u1F61E" unicode="&#x1f61e;" 
d="M1024 432q132 0 238 -63t153 -164h96q-33 156 -170 259t-317 103t-317 -103t-170 -259h96q47 99 153 163t238 64zM1143 846q0 -184 86 -184t88 182l78 -43v127l-297 157v-120l45 -25v-94zM819 662q86 0 86 184v94l45 25v120l-297 -157v-127l78 43q2 -182 88 -182z
M1024 1458q328 0 560 -232t232 -561t-232 -563t-560 -233q-328 0 -560 233q-232 232 -232 562t232 562t560 232z" />
    <glyph glyph-name="u1F61F" unicode="&#x1f61f;" 
d="M1040 346q-121 0 -160 -85q-13 -28 -20 -60h68q20 67 96 67t96 -67h68q-12 69 -55 107t-93 38zM1024 557q-174 0 -289 -79t-151 -204h100q74 172 340 172q133 0 219 -47t121 -125h100q-37 125 -151 204q-115 79 -289 79zM1143 887q0 -184 88 -185q84 0 86 183l78 -43v127
l-297 157v-120l45 -25v-94zM905 887v94l45 25v120l-297 -157v-127l78 43q2 -182 86 -183q88 0 88 185zM1024 1458q328 0 560 -232t232 -561t-232 -563t-560 -233q-328 0 -560 233q-232 232 -232 562t232 562t560 232z" />
    <glyph glyph-name="u1F620" unicode="&#x1f620;" 
d="M1024 473q132 0 238 -63t153 -164h96q-20 102 -90 185t-174 130t-223 47q-180 0 -317 -103t-170 -259h96q47 100 153 164t238 63zM1108 817q0 -193 90 -192q90 0 90 192v117l203 65l-23 88l-360 -114v-156zM760 817q0 -193 90 -192q90 0 90 192v156l-360 114l-23 -88
l203 -65v-117zM1024 1458q328 0 560 -232t232 -561t-232 -563t-560 -233q-328 0 -560 233q-232 232 -232 562t232 562t560 232z" />
    <glyph glyph-name="u1F621" unicode="&#x1f621;" 
d="M1024 346q-66 0 -109 -39t-55 -106h68q20 67 96 67t96 -67h68q-12 69 -55 107t-109 38zM1024 446q133 0 219 -47t121 -125h100q-37 125 -151 204q-115 79 -289 79t-289 -79t-151 -204h100q35 78 121 125t219 47zM1108 817q0 -193 90 -192q90 0 90 192v117l203 65l-23 88
l-360 -114v-156zM760 817q0 -193 90 -192q90 0 90 192v156l-360 114l-23 -88l203 -65v-117zM1024 1458q328 0 560 -232t232 -561t-232 -563t-560 -233q-328 0 -560 233q-232 232 -232 562t232 562t560 232z" />
    <glyph glyph-name="u1F622" unicode="&#x1f622;" 
d="M1004 309q98 0 168 -18q143 -37 182 -127h116q-31 121 -155 201q-125 79 -291 79t-291 -80t-155 -200h116q29 63 120 104q92 41 190 41zM1256 545q-80 -1 -80 77q0 20 30 66q31 45 41 72q12 -27 43 -72t31 -73q-1 -28 -21 -49t-44 -21zM1237 469q101 0 136 66t12 122
q-12 34 -42 74q-30 41 -40 57q94 53 104 250h-94q-14 -160 -75 -159q-60 0 -73 159h-94q8 -215 117 -258q-4 -6 -29 -40t-41 -64t-16 -76q0 -47 42 -89t93 -42zM811 772q74 0 118 69t48 197h-94q-12 -160 -73 -159q-60 0 -75 159h-94q6 -130 51 -198t119 -68zM1024 1458
q328 0 560 -232t232 -561t-232 -563t-560 -233q-328 0 -560 233q-232 232 -232 562t232 562t560 232z" />
    <glyph glyph-name="u1F623" unicode="&#x1f623;" 
d="M1024 473q132 0 238 -63t153 -164h96q-20 102 -90 185t-174 130t-223 47q-180 0 -317 -103t-170 -259h96q47 100 153 164t238 63zM1380 940l-41 109l-249 -150v-53l249 -166l41 108l-166 80v9zM958 899l-249 150l-41 -109l166 -63v-9l-166 -80l41 -108l249 166v53z
M1024 1458q328 0 560 -232t232 -561t-232 -563t-560 -233q-328 0 -560 233q-232 232 -232 562t232 562t560 232z" />
    <glyph glyph-name="u1F624" unicode="&#x1f624;" 
d="M1505 -213l-6 37q135 -8 150 -94q17 -76 -44 -115q-17 -10 -49 -15t-61 15q0 -47 -26 -76t-64 -35q-90 -14 -123 74q-16 -29 -61 -37t-79 16t-44 74q-14 82 108 142l6 -37q-66 -45 -56 -97t75 -45q25 2 35 29l30 -2q27 -71 99 -61q71 14 71 92l29 12q16 -18 44 -15t43 23
t9 49q-8 45 -75 64h-5zM834 -264l8 37q123 -55 108 -140q-10 -51 -44 -75t-78 -17q-44 6 -62 37q-33 -87 -123 -72q-39 6 -65 36t-25 77q-25 -25 -70 -17t-69 44q-24 35 -15 86q14 82 150 94l-6 -37q-25 -6 -37 -10q-12 -3 -28 -19t-22 -42q-5 -26 10 -45t41 -24t46 17
l29 -12q0 -39 20 -64t51 -28q70 -12 99 61l30 2q10 -25 37 -30q59 -11 74 51q4 36 -17 56q-22 21 -42 34zM1067 887l27 -94l323 96l-28 92zM631 889l325 -96l27 94l-324 94zM231 662q-1 218 105 401t290 289t398 106q215 0 397 -106q183 -106 289 -290t106 -398t-107 -398
q-108 -184 -288 -291l-96 379q55 -37 86 -88h92q-47 143 -211 215l-43 172l-41 -8l37 -145q-31 10 -63 18l-19 119l-39 -6l15 -107q-55 8 -113 8t-108 -6l14 105l-39 6l-19 -119q-33 -6 -61 -14l35 141l-41 8l-41 -168q-172 -72 -221 -219h92q33 55 96 94l-98 -389
q-184 105 -294 289t-110 402zM1376 -47l45 22l68 -264l-51 -8zM1376 -47q-47 -25 -98 -41l-78 496q39 -10 72 -25zM1026 -131q-104 0 -201 25l-32 -224l-52 11l37 227l47 -14l76 524q57 10 125 10t129 -12l76 -518l47 14l37 -231l-51 -11l-33 228q-101 -29 -205 -29z
M778 -92q-51 16 -100 41l-60 -246l-51 8l68 260l43 -22l106 438q33 12 72 23z" />
    <glyph glyph-name="u1F625" unicode="&#x1f625;" 
d="M1024 473q204 0 330 -136q39 -42 61 -91h96q-23 102 -91 185q-69 83 -173 130t-223 47q-180 0 -317 -103t-170 -259h96q47 100 153 164t238 63zM1626 622q0 -28 -19 -48t-51 -19q-32 0 -50 19q-19 19 -19 48q-1 29 29 71t40 67q12 -25 41 -68q29 -42 29 -70zM1556 481
q59 0 101 40q41 40 41 87t-29 92q-29 44 -63 96t-41 103h-15q-11 -77 -72 -149q-61 -73 -62 -131t40 -98t100 -40zM1436 864l-308 168l-53 -90l309 -168zM973 942l-53 90l-308 -168l52 -90zM1024 1458q328 0 560 -232t232 -561t-232 -563t-560 -233q-328 0 -560 233
q-232 232 -232 562t232 562t560 232z" />
    <glyph glyph-name="u1F626" unicode="&#x1f626;" 
d="M739 317q17 107 99 163t186 56t185 -56t100 -163h-570zM1024 645q-176 0 -286 -116t-128 -314h828q-18 199 -128 315t-286 115zM1205 1145q-93 0 -93 -198t93 -197q93 0 93 198t-93 197zM843 1145q-93 0 -93 -198t93 -197q93 0 93 198t-93 197zM1024 1458q328 0 560 -232
t232 -561t-232 -563t-560 -233q-328 0 -560 233q-232 232 -232 562t232 562t560 232z" />
    <glyph glyph-name="u1F627" unicode="&#x1f627;" 
d="M1002 510q191 0 291 -103q52 -54 75 -133q-141 41 -344 41t-344 -41q33 116 126 176q92 60 196 60zM1024 623q-209 -1 -333 -139t-126 -357q180 82 459 82q143 0 276 -22t183 -60q0 143 -56 255q-55 112 -159 176t-244 65zM1110 858q0 -195 90 -194q90 0 90 194v57
l183 -90l24 88l-387 191v-246zM938 858v246l-385 -191l22 -88l183 90v-57q0 -195 90 -194q90 0 90 194zM1024 1458q328 0 560 -232t232 -561t-232 -563t-560 -233q-328 0 -560 233q-232 232 -232 562t232 562t560 232z" />
    <glyph glyph-name="u1F628" unicode="&#x1f628;" 
d="M1024 559q104 0 185 -56t100 -163h-570q17 106 99 162t186 57zM1024 668q-176 0 -286 -116t-128 -314h828q-18 198 -128 314t-286 116zM1287 946q-22 0 -36 -15t-14 -35t14 -36t36 -16t37 15t15 35t-15 36t-37 16zM761 946q-22 0 -37 -15t-15 -33t11 -36t37 -18t40 15
t14 35t-14 36t-36 16zM1287 1026q54 0 93 -38t39 -93t-39 -93t-93 -38t-93 38t-39 93t39 93t93 38zM761 1026q54 0 93 -38t39 -93t-39 -93t-84 -38t-76 17q-65 36 -65 102q0 67 39 105t93 38zM1288 1102q-86 0 -146 -60t-60 -147q0 -86 60 -146q60 -61 146 -61t146 60
t61 147q-1 87 -61 147t-146 60zM760 1102q-86 0 -146 -60t-61 -147q0 -86 60 -146q61 -61 147 -61t146 60t61 147q-1 87 -61 147t-146 60zM1024 1458q328 0 560 -232t232 -561t-232 -563t-560 -233q-328 0 -560 233q-232 232 -232 562t232 562t560 232z" />
    <glyph glyph-name="u1F62E" unicode="&#x1f62e;" 
d="M1122 174q130 0 192 102q28 47 28 118t-60 131q-59 61 -145 61q-85 0 -145 -60t-60 -146q0 -85 59 -146q61 -60 131 -60zM1144 1036q-93 0 -93 -198t93 -197q93 -1 93 197t-93 198zM781 1036q-93 0 -93 -198t93 -197q93 -1 93 197t-93 198zM1024 1458q328 0 560 -232
t232 -561t-232 -563t-560 -233q-328 0 -560 233q-232 232 -232 562t232 562t560 232z" />
    <glyph glyph-name="u1F633" unicode="&#x1f633;" 
d="M756 424q0 -111 79 -190q79 -78 189 -78t188 78t78 190h-534zM1348 498q24 -41 60 -63t99 -29q118 16 160 92h-319zM381 498q25 -41 61 -63t99 -29q118 15 159 92h-319zM1321 594q0 -22 4 -43h365q6 20 6 43t-6 45h-363q-6 -23 -6 -45zM354 594q0 -22 4 -43h365
q6 20 6 43t-6 45h-363q-6 -23 -6 -45zM1508 778q-104 0 -160 -88h319q-55 88 -159 88zM542 778q-103 0 -159 -88h317q-55 88 -158 88zM1444 991l-307 113l-41 -115l307 -112zM909 1104l-307 -113l43 -114l307 112zM1024 1458q328 0 560 -232t232 -561t-232 -563t-560 -233
q-328 0 -560 233q-232 232 -232 562t232 562t560 232z" />
    <glyph glyph-name="b.sup" horiz-adv-x="911" 
d="M455 860q67 0 115 64t48 166q0 104 -46 157t-117 53q-106 1 -172 -108v-246q53 -86 172 -86zM283 1677v-344q83 88 199 88t198 -86q82 -85 82 -245t-88 -256t-197 -97q-139 0 -205 90h-6l-20 -75h-101v925h138z" />
    <glyph glyph-name="T_h" horiz-adv-x="2316" 
d="M1438 1434v-508q103 119 218 153q60 18 130 19q150 0 258 -94t106 -259v-745h-184v698q0 125 -65 181q-66 55 -168 55q-168 0 -293 -199v-735h-185v1262h-497v-1262h-195v1262h-465v172h1340z" />
    <glyph glyph-name="f_f_j" horiz-adv-x="1685" 
d="M1540 1073v-1196q0 -151 -97 -229t-249 -78q-106 0 -176 29l35 147q49 -14 127 -14t128 43q48 43 48 147v993h-377v-915h-184v915h-383v-915h-185v915h-157v158h157v189q0 152 86 228t238 77q100 0 168 -23l-33 -145q-49 14 -108 14q-166 0 -166 -149v-191h383v166
q0 326 354 326q135 0 225 -41q35 -16 76 -45l-82 -129q-70 61 -194 61q-195 0 -195 -172v-166h561z" />
    <glyph glyph-name="f_i" horiz-adv-x="1118" 
d="M971 1073v-1073h-180v915h-379v-915h-185v915h-157v158h157v166q0 326 355 326q137 0 224 -41q34 -16 75 -45l-80 -129q-70 61 -195 61q-195 0 -194 -172v-166h559z" />
    <glyph glyph-name="f_j" horiz-adv-x="1171" 
d="M1024 1073v-1196q0 -151 -96 -229t-250 -78q-104 0 -174 29l35 147q47 -14 127 -14q174 0 174 190v993h-428v-915h-185v915h-157v158h157v166q0 326 355 326q137 0 224 -41q34 -16 75 -45l-80 -129q-70 61 -195 61q-195 0 -194 -172v-166h612z" />
    <glyph glyph-name="f_l" horiz-adv-x="1212" 
d="M1020 0h-186v1184q0 123 -52 176t-162 53t-159 -45t-49 -156v-139h262v-155h-262v-918h-185v918h-157v155h157v141q0 352 391 353q206 1 304 -97t98 -278v-1192z" />
    <glyph glyph-name="f_t" horiz-adv-x="1394" 
d="M848 207v711h-436v-918h-185v918h-157v155h157v189q0 152 86 228t238 77q100 0 168 -23l-33 -145q-49 14 -108 14q-166 0 -166 -149v-191h436v158l88 119h98v-277h262v-155h-262v-678q0 -102 86 -103q64 0 142 35l49 -137q-104 -61 -221 -62q-242 0 -242 234z" />
    <glyph glyph-name="a.sc" horiz-adv-x="1208" 
d="M807 403l-207 590l-205 -590h412zM858 254h-514l-88 -254h-182l426 1165h205l428 -1165h-185z" />
    <glyph glyph-name="aacute.sc" horiz-adv-x="1208" 
d="M807 403l-207 590l-205 -590h412zM858 254h-514l-88 -254h-182l426 1165h205l428 -1165h-185zM651 1278h-135l146 250h237z" />
    <glyph glyph-name="abreve.sc" horiz-adv-x="1208" 
d="M807 403l-207 590l-205 -590h412zM858 254h-514l-88 -254h-182l426 1165h205l428 -1165h-185zM601 1270q-103 0 -180 63t-89 178h110q10 -61 54 -94t95 -33q95 0 137 58q22 28 30 69h114q-14 -115 -91 -178t-180 -63z" />
    <glyph glyph-name="acircumflex.sc" horiz-adv-x="1208" 
d="M807 403l-207 590l-205 -590h412zM858 254h-514l-88 -254h-182l426 1165h205l428 -1165h-185zM483 1298h-174l234 240h106l223 -240h-167l-113 109z" />
    <glyph glyph-name="adieresis.sc" horiz-adv-x="1208" 
d="M807 403l-207 590l-205 -590h412zM858 254h-514l-88 -254h-182l426 1165h205l428 -1165h-185zM776 1317q-32 0 -56 11q-50 23 -50 85q0 119 106 119q64 0 89 -49q13 -25 13 -60q1 -71 -49 -95q-22 -11 -53 -11zM420 1317q-45 1 -74 27t-29 79t29 81t76 28t76 -28t28 -81
q0 -106 -106 -106z" />
    <glyph glyph-name="agrave.sc" horiz-adv-x="1208" 
d="M807 403l-207 590l-205 -590h412zM858 254h-514l-88 -254h-182l426 1165h205l428 -1165h-185zM551 1278l-254 250h240l147 -250h-133z" />
    <glyph glyph-name="amacron.sc" horiz-adv-x="1208" 
d="M807 403l-207 590l-205 -590h412zM858 254h-514l-88 -254h-182l426 1165h205l428 -1165h-185zM840 1393h-475v110h475v-110z" />
    <glyph glyph-name="aogonek.sc" horiz-adv-x="1208" 
d="M807 403l-207 590l-205 -590h412zM1133 0h-5q-59 -70 -78 -112t-20 -89q0 -100 109 -118l-35 -113q-100 12 -158 66q-57 54 -57 141q-2 123 139 225h-80l-90 254h-514l-88 -254h-182l426 1165h205z" />
    <glyph glyph-name="aring.sc" horiz-adv-x="1208" 
d="M807 403l-207 590l-205 -590h412zM858 254h-514l-88 -254h-182l426 1165h205l428 -1165h-185zM600 1505q-33 0 -52 -20t-20 -58t25 -53q26 -16 53 -16t46 20q20 20 20 54t-20 53q-20 20 -52 20zM614 1282q-109 0 -151 68q-23 34 -23 94t46 100t115 39q69 0 114 -40
q45 -39 45 -111t-45 -111t-101 -39z" />
    <glyph glyph-name="atilde.sc" horiz-adv-x="1208" 
d="M807 403l-207 590l-205 -590h412zM858 254h-514l-88 -254h-182l426 1165h205l428 -1165h-185zM720 1313q-56 0 -124 38t-104 38q-70 0 -109 -86l-96 51q25 86 78 126t108 40t125 -38t100 -38q58 0 99 92l100 -51q-25 -82 -73 -127t-104 -45z" />
    <glyph glyph-name="ae.sc" horiz-adv-x="1521" 
d="M727 414v573l-264 -573h264zM915 1010v-332h428v-160h-428v-360h496v-158h-684v256h-338l-119 -256h-196l563 1165h774v-155h-496z" />
    <glyph glyph-name="b.sc" horiz-adv-x="1101" 
d="M805 344q0 182 -215 182h-250v-374h240q225 0 225 192zM340 666h199q100 0 149 49t49 133q0 164 -196 164h-201v-346zM158 1165h391q375 0 375 -288q0 -172 -158 -261q233 -45 233 -288q0 -152 -103 -240t-278 -88h-460v1165z" />
    <glyph glyph-name="c.sc" horiz-adv-x="1155" 
d="M102 586.5q0 152.5 46 271.5q46 120 126 190q161 142 384 142t378 -125l-84 -133q-125 96 -283.5 96t-265 -110.5t-106.5 -329.5t107.5 -335t266.5 -116t304 109l80 -133q-162 -137 -391 -137q-230 0 -390 146q-80 73 -126 192.5t-46 272z" />
    <glyph glyph-name="cacute.sc" horiz-adv-x="1155" 
d="M102 587q0 153 46 271q84 218 305 296q98 36 209 36q219 0 374 -125l-84 -133q-126 96 -284 96t-265 -110q-106 -111 -106 -330q-1 -219 107 -335t267 -116t304 109l80 -133q-162 -137 -390 -137t-391 146q-80 72 -126 192t-46 273zM688 1278h-133l145 250h238z" />
    <glyph glyph-name="ccaron.sc" horiz-adv-x="1155" 
d="M102 587q0 153 46 271q84 218 305 296q98 36 209 36q219 0 374 -125l-84 -133q-126 96 -284 96t-265 -110q-106 -111 -106 -330q-1 -219 107 -335t267 -116t304 109l80 -133q-162 -137 -390 -137t-391 146q-80 72 -126 192t-46 273zM571 1294l-227 234h170l113 -119
l121 119h159l-213 -234h-123z" />
    <glyph glyph-name="ccedilla.sc" horiz-adv-x="1155" 
d="M674 -254q0 37 -35 51q-11 4 -27 4t-34 -10l-72 62l74 127q-201 29 -339 177q-139 148 -139 429q0 154 46 272q84 218 305 296q98 36 209 36q219 0 374 -125l-84 -133q-125 96 -282 96t-265 -106t-108 -329q-1 -224 107 -340t266 -116t305 109l80 -133
q-154 -132 -375 -138l-49 -79q58 4 96 -15t59 -56q21 -38 21 -77q0 -86 -68 -135t-176 -59l-37 92q148 23 148 100z" />
    <glyph glyph-name="cdotaccent.sc" horiz-adv-x="1155" 
d="M102 587q0 153 46 271q84 218 305 296q98 36 209 36q219 0 374 -125l-84 -133q-126 96 -284 96t-265 -110q-106 -111 -106 -330q-1 -219 107 -335t267 -116t304 109l80 -133q-162 -137 -390 -137t-391 146q-80 72 -126 192t-46 273zM641 1532q47 0 80 -29t33 -85t-33 -85
t-80 -29t-80 30q-33 28 -33 84t33 85t80 29z" />
    <glyph glyph-name="d.sc" horiz-adv-x="1202" 
d="M342 1010v-852h156q207 0 309 102t102 328t-101 324t-310 98h-156zM158 1165h364q268 0 423 -138t155 -436t-156 -444.5t-422 -146.5h-364v1165z" />
    <glyph glyph-name="eth.sc" horiz-adv-x="1202" 
d="M342 158h156q207 0 309 102t102 328t-101 324q-101 97 -310 98h-156v-338h231v-158h-231v-356zM158 1165h364q268 0 423 -138t155 -436q0 -299 -156 -445t-422 -146h-364v514h-185v158h185v493z" />
    <glyph glyph-name="dcaron.sc" horiz-adv-x="1202" 
d="M342 158h156q207 0 309 102t102 328t-101 324q-101 97 -310 98h-156v-852zM158 1165h364q268 0 423 -138t155 -436q0 -299 -156 -445t-422 -146h-364v1165zM492 1296l-226 234h168l115 -121l119 121h161l-215 -234h-122z" />
    <glyph glyph-name="dcroat.sc" horiz-adv-x="1202" 
d="M342 1010v-852h156q137 0 226 43q185 89 185 391q0 223 -101 320t-310 98h-156zM158 1165h364q268 0 423 -138t155 -436q0 -299 -156 -445t-422 -146h-364v1165zM799 1395h-477v110h477v-110z" />
    <glyph glyph-name="e.sc" horiz-adv-x="1017" 
d="M907 1010h-565v-334h502v-158h-502v-360h565v-158h-749v1165h749v-155z" />
    <glyph glyph-name="eacute.sc" horiz-adv-x="1017" 
d="M907 1010h-565v-334h502v-158h-502v-360h565v-158h-749v1165h749v-155zM598 1278h-135l145 250h238z" />
    <glyph glyph-name="ebreve.sc" horiz-adv-x="1017" 
d="M907 1010h-565v-334h502v-158h-502v-360h565v-158h-749v1165h749v-155zM548 1270q-103 0 -180 63t-92 178h113q10 -61 52 -94t108 -33q128 0 153 127h117q-14 -115 -91 -178t-180 -63z" />
    <glyph glyph-name="ecaron.sc" horiz-adv-x="1017" 
d="M342 1010v-334h502v-158h-502v-360h565v-158h-749v1165h749v-155h-565zM479 1294l-225 234h168l115 -119l118 119h162l-215 -234h-123z" />
    <glyph glyph-name="ecircumflex.sc" horiz-adv-x="1017" 
d="M342 1010v-334h502v-158h-502v-360h565v-158h-749v1165h749v-155h-565zM430 1298h-176l235 240h107l221 -240h-166l-112 109z" />
    <glyph glyph-name="edieresis.sc" horiz-adv-x="1017" 
d="M907 1010h-565v-334h502v-158h-502v-360h565v-158h-749v1165h749v-155zM616 1423q0 109 113 109q39 0 68 -28t29 -81t-30 -80q-28 -27 -73 -26q-104 0 -107 106zM292 1504q30 28 76 28t76 -29t29 -81q0 -52 -30 -79q-29 -27 -75 -27t-76 28q-30 26 -30 79t30 81z" />
    <glyph glyph-name="edotaccent.sc" horiz-adv-x="1017" 
d="M907 1010h-565v-334h502v-158h-502v-360h565v-158h-749v1165h749v-155zM549 1532q47 0 80 -29t33 -85t-33 -85t-80 -29t-80 30q-33 28 -33 84t33 85t80 29z" />
    <glyph glyph-name="egrave.sc" horiz-adv-x="1017" 
d="M907 1010h-565v-334h502v-158h-502v-360h565v-158h-749v1165h749v-155zM631 1278h-133l-254 250h239z" />
    <glyph glyph-name="emacron.sc" horiz-adv-x="1017" 
d="M907 1010h-565v-334h502v-158h-502v-360h565v-158h-749v1165h749v-155zM786 1393h-477v110h477v-110z" />
    <glyph glyph-name="eogonek.sc" horiz-adv-x="1017" 
d="M342 1010v-334h502v-158h-502v-360h565v-158h-254q-55 -68 -74 -109t-20 -86q0 -102 109 -118l-35 -113q-99 12 -157 66t-58 139q-2 121 133 221h-393v1165h749v-155h-565z" />
    <glyph glyph-name="f.sc" horiz-adv-x="966" 
d="M891 1010h-553v-398h487v-159h-487v-453h-180v1165h733v-155z" />
    <glyph glyph-name="g.sc" horiz-adv-x="1189" 
d="M1094 651v-504q-21 -36 -102 -82q-162 -90 -364 -90q-202 1 -360 143q-78 70 -123 191t-45 276t46 273q46 120 126 190q161 142 387 142t406 -129l-92 -139q-135 104 -313.5 104t-276.5 -114.5t-98 -327.5q0 -290 177 -396q87 -52 208 -53q66 0 139 27t111 61v281h-308
v147h482z" />
    <glyph glyph-name="gbreve.sc" horiz-adv-x="1189" 
d="M1094 651v-504q-21 -36 -101 -82q-161 -90 -364 -90q-204 0 -361 143q-78 72 -123 192t-45 275t46 273q85 218 306 296q99 36 214 36q219 0 399 -129l-92 -139q-135 104 -313 104t-277 -115q-98 -115 -98 -327q0 -289 177 -397q87 -52 208 -52q66 0 142 28t108 60v281
h-308v147h482zM639 1384q63 0 103 33t53 94h114q-10 -78 -50 -133q-80 -110 -220 -108q-104 0 -181 63t-89 178h110q13 -61 55 -94t105 -33z" />
    <glyph glyph-name="gcommaaccent.sc" horiz-adv-x="1189" 
d="M655 -424h-92l10 313h166zM1094 651v-504q-21 -36 -101 -82q-161 -90 -364 -90q-204 0 -361 143q-78 72 -123 192t-45 275t46 273q85 218 306 296q99 36 214 36q219 0 399 -129l-92 -139q-135 104 -313 104t-277 -115q-98 -115 -98 -327q0 -289 177 -397q87 -52 208 -52
q66 0 142 28t108 60v281h-308v147h482z" />
    <glyph glyph-name="gdotaccent.sc" horiz-adv-x="1189" 
d="M1094 651v-504q-21 -36 -101 -82q-161 -90 -364 -90q-204 0 -361 143q-78 72 -123 192t-45 275t46 273q85 218 306 296q99 36 214 36q219 0 399 -129l-92 -139q-135 104 -320 104q-230 0 -322 -200q-46 -99 -46 -241q0 -290 177 -398q87 -52 208 -52q66 0 142 28t108 60
v281h-308v147h482zM648 1305q-120 0 -120 113q0 56 32 85t79 29t81 -29t34 -76t-18 -73q-32 -48 -88 -49z" />
    <glyph glyph-name="h.sc" horiz-adv-x="1259" 
d="M1102 1165v-1165h-189v487h-571v-487h-184v1165h184v-516h571v516h189z" />
    <glyph glyph-name="hbar.sc" horiz-adv-x="1271" 
d="M926 793h-572v-144h572v144zM1200 793h-86v-793h-188v487h-572v-487h-184v793h-98v122h98v250h184v-250h572v250h188v-250h86v-122z" />
    <glyph glyph-name="dotlessi.sc" horiz-adv-x="577" 
d="M379 0h-182v1165h182v-1165z" />
    <glyph glyph-name="iacute.sc" horiz-adv-x="577" 
d="M379 0h-182v1165h182v-1165zM340 1278h-135l147 250h238z" />
    <glyph glyph-name="icircumflex.sc" horiz-adv-x="577" 
d="M197 1165h182v-1165h-182v1165zM561 1298h-168l-112 111l-109 -111h-174l233 242h107z" />
    <glyph glyph-name="idieresis.sc" horiz-adv-x="577" 
d="M379 0h-182v1165h182v-1165zM457 1532q110 0 110 -97q0 -118 -100 -118q-107 -1 -109 115q0 44 30 72t69 28zM111 1532q47 0 75 -28t29 -81q0 -53 -29 -80q-30 -27 -76 -27t-75 29q-29 27 -29 79t29 80t76 28z" />
    <glyph glyph-name="igrave.sc" horiz-adv-x="577" 
d="M379 0h-182v1165h182v-1165zM375 1278h-133l-254 250h239z" />
    <glyph glyph-name="ij.sc" horiz-adv-x="1337" 
d="M1180 1165v-825q0 -182 -100 -274t-314 -93q-115 0 -172 21l22 156q59 -12 129 -13q131 0 193 54q61 54 61 171v803h181zM379 0h-182v1165h182v-1165z" />
    <glyph glyph-name="imacron.sc" horiz-adv-x="577" 
d="M379 0h-182v1165h182v-1165zM528 1393h-475v110h475v-110z" />
    <glyph glyph-name="iogonek.sc" horiz-adv-x="577" 
d="M379 0h-23q-55 -66 -73 -106t-19 -89q0 -100 109 -116l-35 -115q-152 19 -200 130q-15 36 -17 77q0 121 133 219h-57v1165h182v-1165z" />
    <glyph glyph-name="j.sc" horiz-adv-x="759" 
d="M602 1165v-825q0 -182 -100 -274t-314 -93q-115 0 -172 21l23 156q59 -12 129 -13q133 0 193 54t61 171v803h180z" />
    <glyph glyph-name="k.sc" horiz-adv-x="1122" 
d="M342 0h-184v1165h184v-561l473 561h232l-478 -540l516 -625h-237l-393 494l-113 -127v-367z" />
    <glyph glyph-name="kcommaaccent.sc" horiz-adv-x="1122" 
d="M485 -109h164l-82 -313h-94zM342 0h-184v1165h184v-561l473 561h232l-478 -540l516 -625h-237l-393 494l-113 -127v-367z" />
    <glyph glyph-name="l.sc" horiz-adv-x="976" 
d="M338 162h577v-162h-757v1165h180v-1003z" />
    <glyph glyph-name="lacute.sc" horiz-adv-x="976" 
d="M338 162h577v-162h-757v1165h180v-1003zM365 1278h-136l146 250h237z" />
    <glyph glyph-name="lcaron.sc" horiz-adv-x="970" 
d="M676 852h-92l10 313h166zM338 162h577v-162h-757v1165h180v-1003z" />
    <glyph glyph-name="lcommaaccent.sc" horiz-adv-x="976" 
d="M520 -422h-92l10 313h166zM338 162h577v-162h-757v1165h180v-1003z" />
    <glyph glyph-name="ldot.sc" horiz-adv-x="976" 
d="M477 648q0 66 38 102q38 34 94 34t94 -34t38 -86q0 -88 -40 -120t-94 -32t-92 35t-38 101zM338 162h577v-162h-757v1165h180v-1003z" />
    <glyph glyph-name="lslash.sc" horiz-adv-x="1021" 
d="M967 162v-162h-758v518l-152 -51v133l152 53v512h180v-450l176 61v-135l-176 -59v-420h578z" />
    <glyph glyph-name="m.sc" horiz-adv-x="1523" 
d="M1188 0v799l-363 -781h-114l-373 787v-805h-180v1165h176l436 -917l424 917h172v-1165h-178z" />
    <glyph glyph-name="n.sc" horiz-adv-x="1294" 
d="M1135 1165v-1165h-166l-631 860v-860h-180v1165h166l632 -872v872h179z" />
    <glyph glyph-name="nacute.sc" horiz-adv-x="1294" 
d="M1135 1165v-1165h-166l-631 860v-860h-180v1165h166l632 -872v872h179zM702 1278h-135l146 250h239z" />
    <glyph glyph-name="ncaron.sc" horiz-adv-x="1294" 
d="M1135 1165v-1165h-166l-631 860v-860h-180v1165h166l632 -872v872h179zM586 1294l-228 234h168l115 -119l119 119h162l-215 -234h-121z" />
    <glyph glyph-name="ncommaaccent.sc" horiz-adv-x="1294" 
d="M559 -109h166l-84 -313h-92zM1135 1165v-1165h-166l-631 860v-860h-180v1165h166l632 -872v872h179z" />
    <glyph glyph-name="eng.sc" horiz-adv-x="1284" 
d="M1135 -80q0 -356 -410 -356q-115 0 -172 22l22 156q59 -14 130 -14q131 0 191 52t60 161v75l-618 844v-860h-180v1165h166l632 -872v872h179v-1245z" />
    <glyph glyph-name="ntilde.sc" horiz-adv-x="1294" 
d="M1135 1165v-1165h-166l-631 860v-860h-180v1165h166l632 -872v872h179zM545 1389q-72 0 -111 -86l-96 51q27 86 80 126t107 40t125 -38t100 -38q59 0 98 92l100 -51q-52 -172 -184 -172q-47 0 -115 38t-104 38z" />
    <glyph glyph-name="o.sc" horiz-adv-x="1363" 
d="M684 1026q-166 0 -278.5 -112.5t-112.5 -321.5t113.5 -329t277.5 -120t274.5 119t110.5 329t-109.5 322.5t-275.5 112.5zM685 1194q105 0 205.5 -37t184.5 -107.5t135.5 -190.5t51.5 -272.5t-51.5 -273t-135.5 -192.5q-170 -146 -389 -146t-393 146q-86 72 -138.5 192.5
t-52.5 273t52.5 272.5t138.5 190.5t186.5 107.5t205.5 37z" />
    <glyph glyph-name="oacute.sc" horiz-adv-x="1363" 
d="M684 1026q-166 0 -278 -113t-113 -321q0 -208 114 -329q113 -120 277 -120t274 119t111 329q1 211 -109 323t-276 112zM685 1194q217 0 390 -144q84 -71 135 -191q52 -121 52 -273t-52 -273t-135 -193q-171 -146 -389 -145q-218 0 -393 146q-86 73 -138 193t-53 273
q0 153 53 272q93 215 325 299q100 36 205 36zM731 1305h-133l145 249h238z" />
    <glyph glyph-name="ocircumflex.sc" horiz-adv-x="1363" 
d="M684 143q164 0 274 119t111 329q0 211 -110 323q-109 112 -275 112t-278 -113t-113 -321t113 -329q114 -120 278 -120zM685 1194q217 0 390 -144q84 -71 135 -191q52 -121 52 -273t-52 -273t-135 -193q-171 -146 -389 -145q-218 0 -393 146q-86 73 -138 193t-53 273
q0 153 53 272q93 215 325 299q100 36 205 36zM565 1325h-176l236 240h106l221 -240h-166l-114 109z" />
    <glyph glyph-name="odieresis.sc" horiz-adv-x="1363" 
d="M684 1026q-166 0 -278 -113t-113 -321q0 -208 114 -329q113 -120 277 -120t274 119t111 329q1 211 -109 323t-276 112zM674 1194q186 0 332 -92q256 -165 256 -516q0 -152 -52 -273t-135 -193q-171 -146 -389 -145q-218 0 -393 146q-86 73 -138 193t-53 273q0 153 53 272
q93 215 325 299q100 36 194 36zM858 1556q45 0 74 -28t29 -79q0 -52 -29 -80t-76 -28t-76 28t-28 81q0 106 106 106zM502 1556q47 0 77 -28q29 -28 29 -79q0 -52 -30 -80t-68 -28q-40 1 -62 13q-49 27 -50 87q-1 59 28 87t76 28z" />
    <glyph glyph-name="ograve.sc" horiz-adv-x="1363" 
d="M684 1026q-166 0 -278 -113t-113 -321q0 -208 114 -329q113 -120 277 -120t274 119t111 329q1 211 -109 323t-276 112zM685 1194q217 0 390 -144q84 -71 135 -191q52 -121 52 -273t-52 -273t-135 -193q-171 -146 -389 -145q-218 0 -393 146q-86 73 -138 193t-53 273
q0 153 53 272q93 215 325 299q100 36 205 36zM766 1305h-133l-254 249h239z" />
    <glyph glyph-name="ohungarumlaut.sc" horiz-adv-x="1363" 
d="M684 1026q-166 0 -278 -113t-113 -321q0 -208 114 -329q113 -120 277 -120t274 119t111 329q1 211 -109 323t-276 112zM685 1194q217 0 390 -144q84 -71 135 -191q52 -121 52 -273t-52 -273t-135 -193q-171 -146 -389 -145q-218 0 -393 146q-86 73 -138 193t-53 273
q0 153 53 272q93 215 325 299q100 36 205 36zM834 1313h-113l125 246h194zM592 1313h-111l39 246h191z" />
    <glyph glyph-name="omacron.sc" horiz-adv-x="1363" 
d="M684 1026q-166 0 -278 -113t-113 -321q0 -208 114 -329q113 -120 277 -120t274 119t111 329q1 211 -109 323t-276 112zM685 1194q217 0 390 -144q84 -71 135 -191q52 -121 52 -273t-52 -273t-135 -193q-171 -146 -389 -145q-218 0 -393 146q-86 73 -138 193t-53 273
q0 153 53 272q93 215 325 299q100 36 205 36zM922 1419h-478v111h478v-111z" />
    <glyph glyph-name="oslash.sc" horiz-adv-x="1359" 
d="M1069 603q0 222 -139 339l-371 -778q59 -20 125 -21q164 0 274.5 119t110.5 341zM293 574.5q0 -226.5 156 -351.5l374 781q-66 23 -139 22q-166 0 -278.5 -112.5t-112.5 -339zM1262 601q0 -167 -51.5 -287.5t-135.5 -192.5q-170 -146 -391 -146q-102 0 -199 33l-94 -196
l-115 53l97 198q-123 74 -197 206t-74 301.5t52 289.5t139 190q176 144 391 144q111 0 213 -37l90 191l111 -52l-92 -194q117 -74 186.5 -204t69.5 -297z" />
    <glyph glyph-name="otilde.sc" horiz-adv-x="1363" 
d="M684 1026q-166 0 -278 -113t-113 -321q0 -208 114 -329q113 -120 277 -120t274 119t111 329q1 211 -109 323t-276 112zM674 1194q186 0 332 -92q256 -165 256 -516q0 -152 -52 -273t-135 -193q-171 -146 -389 -145q-218 0 -393 146q-86 73 -138 193t-53 273q0 153 53 272
q93 215 325 299q100 36 194 36zM802 1339q-56 0 -124 38t-105 38q-70 0 -108 -86l-96 51q25 86 77 126t108 40t126 -38t98 -38q60 1 101 93l100 -52q-25 -82 -73 -127t-104 -45z" />
    <glyph glyph-name="oe.sc" horiz-adv-x="1499" 
d="M717 1010h-55q-170 2 -272.5 -104.5t-102.5 -316.5t105.5 -324.5t269.5 -114.5h55v860zM1386 1010h-491v-334h428v-160h-428v-358h491v-158h-727q-217 0 -379 132q-82 66 -130 183t-48 255.5t33 237.5q62 185 207 273t324 84h720v-155z" />
    <glyph glyph-name="p.sc" horiz-adv-x="1081" 
d="M338 1010v-451h194q125 1 194 61t69 168t-69 165q-69 56 -194 57h-194zM158 1165h403q207 0 312 -101q105 -102 105 -276t-111 -280q-112 -106 -308 -107h-221v-401h-180v1165z" />
    <glyph glyph-name="thorn.sc" horiz-adv-x="1021" 
d="M336 811v-432h145q164 0 226 102q29 49 28 117q0 102 -65 158q-66 55 -189 55h-145zM338 969h166q200 -1 308 -101t108 -269t-111 -272t-291 -104h-182v-223h-178v1165h180v-196z" />
    <glyph glyph-name="q.sc" horiz-adv-x="1353" 
d="M684 143q164 0 274 119t111 329q0 211 -110 323q-109 112 -275 112t-278 -112t-113 -322q0 -209 114 -329q113 -120 277 -120zM684 1194q218 0 391 -144q84 -71 135 -191t52 -273q0 -218 -98 -362t-257 -208l283 -133l-109 -149l-422 241q-210 8 -376 154
q-82 73 -131 191q-50 118 -50 269t53 270q93 215 324 299q99 36 205 36z" />
    <glyph glyph-name="r.sc" horiz-adv-x="1087" 
d="M342 578h217q113 0 170 58t57 163q0 211 -227 211h-217v-432zM342 422v-422h-184v1165h413q403 0 404 -356q0 -127 -55.5 -222t-161.5 -138l266 -449h-215l-234 422h-233z" />
    <glyph glyph-name="racute.sc" horiz-adv-x="1087" 
d="M342 578h217q113 0 170 58t57 163q0 211 -227 211h-217v-432zM342 422v-422h-184v1165h413q403 0 404 -356q0 -127 -55 -222t-162 -138l266 -449h-215l-234 422h-233zM580 1278h-136l148 250h237z" />
    <glyph glyph-name="rcaron.sc" horiz-adv-x="1087" 
d="M342 578h217q113 0 170 58t57 163q0 211 -227 211h-217v-432zM342 422v-422h-184v1165h413q403 0 404 -356q0 -127 -55 -222t-162 -138l266 -449h-215l-234 422h-233zM463 1294l-227 234h170l112 -119l121 119h160l-213 -234h-123z" />
    <glyph glyph-name="rcommaaccent.sc" horiz-adv-x="1087" 
d="M463 -109h164l-82 -313h-94zM342 578h217q113 0 170 58t57 163q0 211 -227 211h-217v-432zM342 422v-422h-184v1165h413q403 0 404 -356q0 -127 -55 -222t-162 -138l266 -449h-215l-234 422h-233z" />
    <glyph glyph-name="s.sc" horiz-adv-x="989" 
d="M475 139q115 0 172.5 47t57.5 132q0 86 -100 140q-68 36 -153.5 69.5t-134.5 60t-96 67.5q-90 79 -90 219q0 94 45 167t130 113t196 40q203 0 354 -111l-76 -133q-129 94 -274 94q-92 0 -145.5 -44t-53.5 -123q0 -43 15.5 -64.5t23.5 -33t29.5 -25t34 -21.5t43 -21.5
t56.5 -26.5t132 -55t175 -113t69 -191q0 -160 -108.5 -255.5t-305.5 -95.5t-358 109l55 141q143 -86 307 -86z" />
    <glyph glyph-name="sacute.sc" horiz-adv-x="989" 
d="M475 139q115 0 172 47t57 133t-99 139q-59 33 -181 80q-122 48 -207 122q-86 74 -86 214q0 94 45 167t130 113t196 40q203 0 354 -111l-76 -133q-129 94 -274 94q-92 0 -146 -44t-53 -123q-1 -42 15 -64q16 -21 24 -33t30 -25t34 -21t43 -22q31 -12 45 -20t52 -23
q192 -76 263 -149q72 -74 72 -194q0 -160 -109 -255t-306 -95t-357 108l55 141q143 -86 307 -86zM551 1278h-135l145 250h240z" />
    <glyph glyph-name="scaron.sc" horiz-adv-x="989" 
d="M506 1044q-92 0 -146 -44t-53 -109q0 -65 31 -101q31 -35 65 -54q35 -19 62 -31q50 -22 90 -38q187 -74 258 -147q72 -74 72 -194q0 -160 -109 -255t-306 -95t-357 108l55 141q143 -86 307 -86q115 0 172 47t57 133t-99 139q-59 33 -170 77q-180 71 -242 148t-62 206
t101 217q100 88 286 88t338 -111l-76 -133q-129 94 -274 94zM434 1294l-227 234h168l114 -119l119 119h162l-215 -234h-121z" />
    <glyph glyph-name="scedilla.sc" horiz-adv-x="989" 
d="M506 1044q-92 0 -146 -44t-53 -123q-1 -42 15 -64q16 -21 24 -33t30 -25t34 -21t43 -22q31 -12 45 -20t52 -23q192 -76 263 -149q72 -74 72 -209t-95 -228t-258 -106l-38 -61q78 8 127 -36t49 -120t-68 -126t-176 -60l-35 92q78 12 112 36t34 56q1 32 -7 39q-8 9 -19 17
q-11 9 -31 8q-21 0 -40 -10l-71 61l59 104q-182 16 -315 107l55 141q143 -86 307 -86q115 0 172 47t57 133t-99 139q-59 33 -181 80q-122 48 -207 122q-86 74 -86 215q0 143 101 231q100 88 286 88t338 -111l-76 -133q-129 94 -274 94z" />
    <glyph glyph-name="scommaaccent.sc" horiz-adv-x="989" 
d="M494 -422h-95l13 313h163zM475 139q115 0 172 47t57 133t-99 139q-59 33 -181 80q-122 48 -207 122q-86 74 -86 214q0 94 45 167t130 113t196 40q203 0 354 -111l-76 -133q-129 94 -274 94q-92 0 -146 -44t-53 -123q-1 -42 15 -64q16 -21 24 -33t30 -25t34 -21t43 -22
q31 -12 45 -20t52 -23q192 -76 263 -149q72 -74 72 -194q0 -160 -109 -255t-306 -95t-357 108l55 141q143 -86 307 -86z" />
    <glyph glyph-name="germandbls.sc" horiz-adv-x="1105" 
d="M1004 308q0 -140 -100 -236t-234 -96t-217 40l28 152q74 -35 155 -35t133 51t52 133q0 195 -299 195v111l207 217q0 84 -52 136t-138 52q-85 0 -143 -56t-58 -163v-809h-180v834q0 168 110 262q111 94 277 94t266 -96t98 -271l-209 -213q136 -14 220 -88t84 -214z" />
    <glyph glyph-name="t.sc" horiz-adv-x="1060" 
d="M993 1006h-372v-1006h-181v1006h-372v159h925v-159z" />
    <glyph glyph-name="tbar.sc" horiz-adv-x="1060" 
d="M993 1006h-372v-1006h-181v1006h-372v159h925v-159zM754 1391h-475v110h475v-110z" />
    <glyph glyph-name="tcaron.sc" horiz-adv-x="1060" 
d="M993 1006h-372v-1006h-181v1006h-372v159h925v-159zM449 1294l-228 232h170l113 -119l121 119h159l-215 -232h-120z" />
    <glyph glyph-name="tcedilla.sc" horiz-adv-x="1060" 
d="M567 -233q0 35 -35 51q-10 4 -26 4t-35 -10l-72 61l72 127h-31v1006h-372v159h925v-159h-372v-1006h-46l-51 -84q78 8 127 -36t49 -120t-67 -127q-68 -49 -176 -59l-37 92q147 23 147 101z" />
    <glyph glyph-name="uni021B.sc" horiz-adv-x="1060" 
d="M442 -109h164l-82 -313h-94zM993 1006h-372v-1006h-181v1006h-372v159h925v-159z" />
    <glyph glyph-name="u.sc" horiz-adv-x="1230" 
d="M1073 1165v-743q-1 -331 -283 -423q-80 -26 -174 -26q-190 0 -324 106t-134 343v743h180v-770q0 -113 71.5 -184.5t205.5 -71.5t206 72t72 184v770h180z" />
    <glyph glyph-name="uacute.sc" horiz-adv-x="1230" 
d="M1073 1165v-743q0 -330 -282 -423q-79 -26 -175 -26q-190 0 -320 103q-65 51 -101 140q-37 89 -37 206v743h180v-770q0 -113 72 -185t206 -71q134 0 205 72q72 72 72 184v770h180zM672 1278h-135l145 250h240z" />
    <glyph glyph-name="ucircumflex.sc" horiz-adv-x="1230" 
d="M1073 1165v-743q0 -268 -191 -383q-106 -64 -281 -65t-305 102q-65 51 -101 140q-37 89 -37 206v743h180v-770q0 -153 123 -221q63 -35 153 -35q135 0 207 72t72 184v770h180zM504 1298h-174l233 240h107l223 -240h-168l-113 109z" />
    <glyph glyph-name="udieresis.sc" horiz-adv-x="1230" 
d="M1073 1165v-743q0 -330 -282 -423q-79 -26 -175 -26q-190 0 -320 103q-65 51 -101 140q-37 89 -37 206v743h180v-770q0 -113 72 -185t206 -71q134 0 205 72q72 72 72 184v770h180zM804 1532q38 0 66 -28t29 -81q0 -53 -28 -80q-29 -27 -67 -27q-111 1 -114 107
q0 35 15 60q27 49 99 49zM338 1423q0 53 28 81t68 28q39 0 63 -12q50 -26 50 -88t-29 -89t-76 -27q-48 0 -76 28q-28 26 -28 79z" />
    <glyph glyph-name="ugrave.sc" horiz-adv-x="1230" 
d="M1073 1165v-743q0 -268 -191 -383q-106 -64 -281 -65t-305 102q-65 51 -101 140q-37 89 -37 206v743h180v-770q0 -113 72 -185t206 -71q134 0 205 72q72 72 72 184v770h180zM707 1278h-136l-252 250h238z" />
    <glyph glyph-name="uhungarumlaut.sc" horiz-adv-x="1230" 
d="M1073 1165v-743q0 -268 -191 -383q-106 -64 -281 -65t-305 102q-65 51 -101 140q-37 89 -37 206v743h180v-770q0 -153 123 -221q63 -35 153 -35q135 0 207 72t72 184v770h180zM772 1286h-113l127 246h193zM530 1286h-108l37 246h190z" />
    <glyph glyph-name="umacron.sc" horiz-adv-x="1230" 
d="M1073 1165v-743q0 -268 -191 -383q-106 -64 -281 -65t-305 102q-65 51 -101 140q-37 89 -37 206v743h180v-770q0 -113 72 -185t206 -71q134 0 205 72q72 72 72 184v770h180zM860 1393h-475v110h475v-110z" />
    <glyph glyph-name="uogonek.sc" horiz-adv-x="1230" 
d="M1073 1165v-743q0 -111 -34 -197q-62 -157 -224 -217q-64 -84 -74 -120t-10 -66q0 -100 107 -119l-33 -113q-99 12 -157 66t-59 147q-1 92 83 172q-28 -2 -90 -2t-142 26q-282 92 -282 423v743h180v-770q0 -113 72 -185t206 -71q134 0 205 72q72 72 72 184v770h180z" />
    <glyph glyph-name="uring.sc" horiz-adv-x="1230" 
d="M1073 1165v-743q0 -330 -282 -423q-79 -26 -175 -26q-190 0 -320 103q-65 51 -101 140q-37 89 -37 206v743h180v-770q0 -153 123 -221q63 -35 153 -35q135 0 207 72t72 184v770h180zM622 1505q-32 0 -52 -20t-19 -53q0 -34 19 -54q18 -20 52 -20t52 20t18 54t-19 53
q-19 20 -51 20zM623 1282q-96 0 -140 68q-23 36 -23 94q0 60 47 100t103 39q106 0 150 -70q22 -35 22 -81q-1 -95 -81 -134q-36 -16 -78 -16z" />
    <glyph glyph-name="v.sc" horiz-adv-x="1134" 
d="M1108 1165l-446 -1165h-187l-448 1165h202l344 -956l336 956h199z" />
    <glyph glyph-name="w.sc" horiz-adv-x="1710" 
d="M1669 1165l-360 -1179h-156l-291 915l-293 -915h-157l-361 1179h197l254 -907l282 907h162l283 -905l258 905h182z" />
    <glyph glyph-name="wacute.sc" horiz-adv-x="1710" 
d="M1669 1165l-360 -1179h-156l-291 915l-293 -915h-157l-361 1179h197l254 -907l282 907h162l283 -905l258 905h182zM922 1276h-134l146 250h237z" />
    <glyph glyph-name="wcircumflex.sc" horiz-adv-x="1710" 
d="M1669 1165l-360 -1179h-156l-291 915l-293 -915h-157l-361 1179h197l254 -907l282 907h162l283 -905l258 905h182zM756 1296h-176l235 240h107l221 -240h-166l-115 109z" />
    <glyph glyph-name="wdieresis.sc" horiz-adv-x="1710" 
d="M1669 1165l-360 -1179h-156l-291 915l-293 -915h-157l-361 1179h197l254 -907l282 907h162l283 -905l258 905h182zM1038 1530q113 0 113 -109q-1 -53 -29 -79t-75 -27q-47 1 -77 27t-30 70t14 69q28 49 84 49zM688 1315q-60 0 -86 47q-14 24 -14 68t28 72q29 28 76 28
t77 -28t30 -68q0 -119 -111 -119z" />
    <glyph glyph-name="wgrave.sc" horiz-adv-x="1710" 
d="M1669 1165l-360 -1179h-156l-291 915l-293 -915h-157l-361 1179h197l254 -907l282 907h162l283 -905l258 905h182zM823 1276l-254 250h240l147 -250h-133z" />
    <glyph glyph-name="x.sc" horiz-adv-x="1210" 
d="M707 596l417 -596h-209l-307 459l-297 -459h-207l408 592l-401 573h211l288 -438l277 438h205z" />
    <glyph glyph-name="y.sc" horiz-adv-x="1085" 
d="M645 0h-180v453l-416 712h199l311 -549l289 549h188l-391 -712v-453z" />
    <glyph glyph-name="yacute.sc" horiz-adv-x="1085" 
d="M645 0h-180v453l-416 712h199l311 -549l289 549h188l-391 -712v-453zM600 1278h-135l145 250h238z" />
    <glyph glyph-name="ycircumflex.sc" horiz-adv-x="1085" 
d="M645 0h-180v453l-416 712h199l311 -549l289 549h188l-391 -712v-453zM432 1298h-176l236 240h106l221 -240h-166l-112 109z" />
    <glyph glyph-name="ydieresis.sc" horiz-adv-x="1085" 
d="M645 0h-180v453l-416 712h199l311 -549l289 549h188l-391 -712v-453zM715 1532q112 0 112 -109q0 -71 -51 -95q-22 -11 -51 -11q-104 0 -107 106q0 53 29 81t68 28zM475 1423q1 -53 -29 -79t-76 -27q-46 1 -76 27t-30 79t30 81t77 28t75 -28t29 -81z" />
    <glyph glyph-name="ygrave.sc" horiz-adv-x="1085" 
d="M645 0h-180v453l-416 712h199l311 -549l289 549h188l-391 -712v-453zM500 1278l-254 250h239l148 -250h-133z" />
    <glyph glyph-name="z.sc" horiz-adv-x="1054" 
d="M965 162v-162h-844v143l592 863h-563v159h782v-141l-600 -862h633z" />
    <glyph glyph-name="zacute.sc" horiz-adv-x="1054" 
d="M965 162v-162h-844v143l592 863h-563v159h782v-141l-600 -862h633zM604 1300h-133l145 252h238z" />
    <glyph glyph-name="zcaron.sc" horiz-adv-x="1054" 
d="M965 162v-162h-844v143l592 863h-563v159h782v-141l-600 -862h633zM487 1319l-227 233h170l113 -120l121 120h159l-213 -233h-123z" />
    <glyph glyph-name="zdotaccent.sc" horiz-adv-x="1054" 
d="M965 162v-162h-844v143l592 863h-563v159h782v-141l-600 -862h633zM444 1442q0 54 33 84t80 30t80 -30t33 -84q0 -55 -33 -84t-80 -29t-80 29t-33 84z" />
    <glyph glyph-name="i.sc" horiz-adv-x="577" 
d="M379 0h-182v1165h182v-1165z" />
    <glyph glyph-name="zero.sinf" horiz-adv-x="833" 
d="M418 393q-182 0 -182 -294t182 -294t182 294t-182 294zM766 104q0 -214 -97 -324t-253 -110t-252 110t-96 322t96 318q96 108 250 108t252 -105q100 -104 100 -319z" />
    <glyph glyph-name="one.sinf" horiz-adv-x="833" 
d="M514 -174h174v-133h-502v133h174v514l-159 -68l-54 115l261 125h106v-686z" />
    <glyph glyph-name="two.sinf" horiz-adv-x="833" 
d="M392 528q150 0 229 -68q80 -68 79 -175q0 -174 -225 -346l-145 -109h391v-137h-592v123l236 188q166 135 165 258q0 82 -70 111q-34 14 -77 14q-107 0 -203 -74l-71 113q133 102 283 102z" />
    <glyph glyph-name="three.sinf" horiz-adv-x="833" 
d="M705 319q0 -61 -40 -112t-112 -74q186 -37 186 -203q0 -114 -95 -188t-257 -74t-289 94l66 119q115 -74 216 -74t147 36q46 37 46 97t-43 89t-139 28h-92v125h76q76 0 121 29t45 82q0 100 -146 100q-107 0 -205 -80l-71 105q121 110 277 110t232 -59q77 -59 77 -150z" />
    <glyph glyph-name="four.sinf" horiz-adv-x="833" 
d="M471 18v283l-225 -283h225zM621 18h124v-124h-124v-201h-148v201h-385v120l406 498h127v-494z" />
    <glyph glyph-name="five.sinf" horiz-adv-x="833" 
d="M668 367h-363v-185q55 37 159 37t182 -72q78 -71 79 -195q0 -124 -94 -204t-246 -80t-262 80l55 113q98 -57 194 -57t142 41q47 42 47 112q0 98 -95 130q-30 9 -65 9q-90 0 -147 -55l-100 43v420h514v-137z" />
    <glyph glyph-name="six.sinf" horiz-adv-x="833" 
d="M450 74q-58 0 -110 -28q-53 -28 -80 -64q8 -116 87 -161q39 -22 99 -22t101 40q41 39 41 99t-40 98t-98 38zM467 393q-209 0 -213 -274q88 84 210 84t200 -67q80 -66 80 -188t-86 -201q-84 -79 -234 -79t-241 102t-91 308q0 341 239 427q67 24 148 23q131 1 240 -73
l-62 -117q-78 55 -190 55z" />
    <glyph glyph-name="seven.sinf" horiz-adv-x="833" 
d="M115 360v142h604v-119l-342 -690h-166l328 667h-424z" />
    <glyph glyph-name="eight.sinf" horiz-adv-x="831" 
d="M417 -201q81 0 124 37t43 96q0 58 -46 96t-121 38t-122 -37t-47 -97t44 -96q44 -37 125 -37zM418 184q66 0 106 27t39 79q0 52 -42 82t-93 29q-51 0 -84 -13q-70 -28 -71 -89t39 -88t106 -27zM121 305q0 101 82 163t214 62t215 -63t83 -162q0 -127 -123 -178
q152 -57 151 -209q0 -106 -92 -178q-93 -72 -211 -72t-195 34q-159 70 -159 219t154 206q-119 53 -119 178z" />
    <glyph glyph-name="nine.sinf" horiz-adv-x="833" 
d="M407 389q-71 0 -114 -37q-43 -36 -43 -102t36 -102t95 -36t117 24q58 22 82 57q-4 94 -53 145t-120 51zM364 -14q-118 0 -196 70t-78 195q0 124 88 201t217 76q174 0 262 -106t88 -301q0 -343 -237 -429q-66 -24 -143 -24q-152 0 -250 72l57 115q82 -51 181 -51t165 62
t66 206q-102 -86 -220 -86z" />
    <glyph glyph-name="zero.sups" horiz-adv-x="833" 
d="M600 1298q0 294 -182 295q-182 0 -182 -295t180 -294q184 0 184 294zM416 1726q156 0 253 -108t97 -318t-97 -320t-253 -110t-252 109t-96 321t96 318q96 108 252 108z" />
    <glyph glyph-name="one.sups" horiz-adv-x="833" 
d="M514 1024h174v-133h-502v133h174v514l-159 -68l-54 115l261 125h106v-686z" />
    <glyph glyph-name="two.sups" horiz-adv-x="833" 
d="M392 1726q150 0 229 -68q80 -68 79 -175q0 -172 -225 -346l-145 -109h391v-137h-592v125l236 188q166 133 165 256q0 82 -70 111q-34 14 -77 14q-107 0 -203 -74l-71 113q133 102 283 102z" />
    <glyph glyph-name="three.sups" horiz-adv-x="833" 
d="M733 1130q0 -116 -95 -190t-257 -74t-289 95l66 118q115 -73 216 -73q193 2 193 132q0 121 -182 119h-90v123h74q77 0 121 29t45 82q0 100 -146 100q-105 0 -205 -80l-71 105q123 111 286 110q98 0 167 -28q136 -56 134 -180q0 -60 -41 -112t-112 -75q186 -37 186 -201z
" />
    <glyph glyph-name="four.sups" horiz-adv-x="833" 
d="M471 1217v282l-225 -282h225zM621 1217h124v-125h-124v-201h-150v201h-385v122l406 498h129v-495z" />
    <glyph glyph-name="five.sups" horiz-adv-x="833" 
d="M668 1565h-363v-185q55 37 159 37q104 1 182 -71t79 -174q0 -102 -43 -168t-119 -102t-170 -36q-160 0 -270 80l55 113q98 -57 194 -57t142 42q47 44 47 110t-44 103t-125 37t-138 -55l-100 45v418h514v-137z" />
    <glyph glyph-name="six.sups" horiz-adv-x="833" 
d="M450 1274q-58 0 -110 -28q-53 -28 -80 -66q8 -116 87 -161q39 -22 99 -22t101 40q41 41 41 101t-40 98t-98 38zM467 1593q-209 0 -213 -276q88 84 231 84t220 -113q39 -59 38 -139q0 -125 -85 -204t-218 -79q-192 0 -280 132q-68 101 -68 280q0 339 239 425q67 24 148 23
q131 1 240 -73l-62 -117q-78 57 -190 57z" />
    <glyph glyph-name="seven.sups" horiz-adv-x="833" 
d="M115 1559v141h604v-119l-342 -690h-166l328 668h-424z" />
    <glyph glyph-name="eight.sups" horiz-adv-x="831" 
d="M438 999q60 0 103 36t43 85t-20 80q-41 62 -132 63q-90 1 -137 -36t-47 -97q0 -29 11 -53q35 -78 179 -78zM418 1382q66 0 106 28t39 79q0 51 -42 81t-93 29q-51 0 -84 -13q-70 -28 -71 -88t39 -88t106 -28zM418 866q-96 0 -173 34q-159 70 -159 219t154 206
q-119 53 -119 180q0 99 82 161t214 62t215 -62t83 -161q0 -129 -123 -180q152 -57 151 -209q0 -104 -92 -177t-233 -73z" />
    <glyph glyph-name="nine.sups" horiz-adv-x="833" 
d="M396 1587q-70 0 -112 -37t-42 -98t24 -93t54 -39t71 -7q41 -1 97 21t81 57q-4 94 -53 145t-120 51zM355 1184q-117 0 -195 70t-78 196q0 125 88 201t217 75q174 0 261 -106t87 -301q0 -251 -112 -352t-266 -101q-153 0 -253 74l60 115q80 -53 179 -53t165 62
q66 64 67 206q-104 -86 -220 -86z" />
    <glyph glyph-name="zero.tosf" horiz-adv-x="1331" 
d="M1034 549q0 183 -105 291t-262 108t-261 -106t-104 -292t104 -301q106 -114 261 -114t261 115t106 299zM668 1118q154 0 278 -64t204 -196q79 -131 79 -308t-78 -312t-204 -203q-127 -68 -279 -68t-279 68t-206 202t-79 312t79 309q79 132 205 196t280 64z" />
    <glyph glyph-name="one.tosf" horiz-adv-x="1331" 
d="M1055 154v-158h-680v158h250v706l-267 -149l-79 137l395 225h137v-919h244z" />
    <glyph glyph-name="two.tosf" horiz-adv-x="1331" 
d="M645 1114q203 0 322 -96t118 -236q-1 -108 -73 -202t-269 -238l-243 -178h610v-164h-868v156l346 247q8 5 58 45t88 70q113 87 138 154q45 119 -35 204q-72 72 -212 72q-183 1 -314 -110l-90 129q150 112 287 136q61 11 137 11z" />
    <glyph glyph-name="three.tosf" horiz-adv-x="1331" 
d="M649 1098q238 0 368 -98t130 -230q0 -133 -71 -222t-191 -130v-8q195 -25 283 -177q44 -74 44 -163q0 -203 -162 -330t-417 -127q-310 0 -512 160l94 149q177 -133 381 -133t309 81q104 81 105 196q0 191 -227 233q-75 14 -177 14h-157v164h147q211 0 304 103
q48 54 48 122q0 135 -152 192q-75 28 -175 28q-193 0 -361 -127l-96 133q203 170 485 170z" />
    <glyph glyph-name="four.tosf" horiz-adv-x="1331" 
d="M823 172v637l-520 -637h520zM1235 172v-158h-221v-374h-195v374h-723v140l752 919h166v-901h221z" />
    <glyph glyph-name="five.tosf" horiz-adv-x="1331" 
d="M1092 893h-691v-442q125 84 312 84q275 0 405 -191q68 -100 68 -242q0 -225 -152 -360t-424 -135t-430 133l82 147q144 -102 332 -102t291 85q102 85 102 224t-89 211q-90 72 -246 72t-302 -113l-135 80v729h877v-180z" />
    <glyph glyph-name="six.tosf" horiz-adv-x="1331" 
d="M1024 454q0 132 -92 204t-218 71q-249 0 -399 -188q9 -183 109 -287t258 -104t250 86t92 218zM418 812q136 87 323 87t330 -104q70 -51 112 -137t42 -195q0 -209 -150 -348q-151 -139 -357 -139t-336 75q-130 76 -203 239t-73 406q0 455 273 651q160 113 364 111
q261 0 433 -117l-99 -147q-150 88 -333 88t-312 -126t-133 -439q59 57 119 95z" />
    <glyph glyph-name="seven.tosf" horiz-adv-x="1331" 
d="M154 893v176h1026v-162l-627 -1274h-211l631 1260h-819z" />
    <glyph glyph-name="eight.tosf" horiz-adv-x="1331" 
d="M668 696q-98 0 -176 -34t-121 -98q-43 -62 -43 -141q0 -165 153 -237q78 -34 187 -34q218 1 297 130q37 60 36 142q1 120 -91 196t-242 76zM668 1292q-135 0 -214 -58t-79 -160t83 -160t210 -58t209 58q81 58 81 160t-77 160q-78 58 -213 58zM668 1462q145 0 257 -46
t172 -129t60 -193t-60 -195q-60 -84 -169 -123q118 -31 196 -132t78 -234q0 -195 -141 -314t-395 -119t-395 117q-140 117 -140 309q0 135 80 239t199 136q-109 37 -171 121t-63 197q0 164 135 265q136 101 357 101z" />
    <glyph glyph-name="nine.tosf" horiz-adv-x="1331" 
d="M640 918q-148 0 -236 -78q-89 -78 -89 -208t77 -204t205 -74t248 52t167 133q-6 187 -115 283t-257 96zM612 1092q395 0 533 -300q69 -153 69 -374q-1 -439 -185 -624q-185 -185 -462 -185q-223 0 -403 104l67 156q152 -86 339 -86t319 134q131 134 135 441
q-133 -125 -274 -159q-76 -19 -186 -19t-210 47q-102 47 -169 153t-66 251q0 209 146 335t347 126z" />
    <glyph glyph-name="zero.osf" horiz-adv-x="1224" 
d="M611 954q-138 0 -231 -110t-93 -296q0 -187 94 -302t231 -115t232 116q94 116 94 302t-94 296q-95 109 -233 109zM614 1118q132 0 252 -66q185 -104 239 -333q19 -80 19 -168q0 -266 -150 -425t-362 -159t-362 159t-150 423q0 265 150 417t364 152z" />
    <glyph glyph-name="one.osf" horiz-adv-x="1028" 
d="M879 154v-158h-680v158h250v706l-267 -149l-80 137l396 225h137v-919h244z" />
    <glyph glyph-name="two.osf" horiz-adv-x="1095" 
d="M519 1114q128 0 223 -46q190 -92 190 -280q0 -106 -65 -197t-240 -241l-228 -192h555v-158h-802v131l309 264q77 69 105 93q109 93 142 153t33 129q-1 70 -67 127t-174 57q-166 1 -289 -112l-86 121q84 71 175 111t219 40z" />
    <glyph glyph-name="three.osf" horiz-adv-x="1261" 
d="M598 1098q240 0 369 -98t129 -230q0 -133 -70 -222t-190 -130v-8q141 -18 233 -112t92 -228q0 -203 -163 -330t-416 -127q-150 0 -283 42t-227 118l94 149q176 -133 380 -133t308 81t104 196q0 191 -224 233q-75 14 -177 14h-160v164h148q156 -1 254 59t98 180t-153 178
q-75 28 -173 28q-194 0 -362 -127l-94 133q201 170 483 170z" />
    <glyph glyph-name="four.osf" horiz-adv-x="1355" 
d="M844 172v637l-518 -637h518zM1255 172v-158h-221v-374h-194v374h-723v140l751 919h166v-901h221z" />
    <glyph glyph-name="five.osf" horiz-adv-x="1310" 
d="M1087 893h-688v-442q125 84 310 84q274 0 406 -191q69 -100 69 -242q0 -225 -152 -360t-424 -135t-432 133l82 147q146 -102 334 -102t291 85q102 85 102 224t-90 211q-89 72 -245 72t-304 -113l-135 80v729h876v-180z" />
    <glyph glyph-name="six.osf" horiz-adv-x="1288" 
d="M1016 454q0 132 -90 204t-219 71q-248 0 -398 -188q8 -185 110 -289t258 -103q157 1 248 87t91 218zM412 812q136 87 321 87t330 -104q70 -51 112 -137t42 -195q-1 -209 -149 -348t-374 -140q-286 1 -440 179t-154 523t149 549q172 232 486 232q262 0 434 -117l-98 -147
q-152 88 -334 88t-310 -123t-136 -442q61 57 121 95z" />
    <glyph glyph-name="seven.osf" horiz-adv-x="1181" 
d="M55 893v176h1026v-162l-626 -1274h-211l630 1260h-819z" />
    <glyph glyph-name="eight.osf" horiz-adv-x="1273" 
d="M637 696q-150 0 -245 -76t-95 -198q0 -121 89 -196t251 -74q220 0 299 130q37 60 37 142q0 120 -93 196t-243 76zM928 1074q0 102 -78 160t-212 58t-213 -58t-79 -160t83 -160t209 -58t208 58t82 160zM637 1462q145 0 257 -46t172 -129t60 -193t-60 -195
q-60 -84 -167 -123q115 -31 195 -132t80 -234q0 -195 -142 -314t-397 -119q-254 0 -394 117t-141 309q0 135 80 239t199 136q-106 37 -169 121q-62 84 -63 197q1 164 135 265t355 101z" />
    <glyph glyph-name="nine.osf" horiz-adv-x="1253" 
d="M586 918q-148 0 -237 -78t-89 -208t77 -204t205 -74t248 52t168 133q-8 187 -116 283t-256 96zM520 -217q192 0 320 139q127 139 129 436q-101 -96 -203 -137t-218 -41q-211 0 -343 110q-66 54 -104 142t-38 199q-1 209 147 335t359 126q287 0 439 -170t151 -510
q0 -407 -190 -624q-100 -114 -285 -160q-80 -19 -170 -19q-225 0 -405 104l69 156q150 -86 342 -86z" />
    <glyph glyph-name="zero.lf" horiz-adv-x="1341" 
d="M670 1282q-174 0 -272 -148t-97 -418q0 -270 98 -420q98 -148 271 -149q114 0 198 67q172 138 172 497q0 275 -98 423t-272 148zM671 1458q116 0 216 -45t181 -133t127 -234t46 -314q0 -316 -115 -500q-161 -259 -456 -259q-235 0 -398 179q-80 88 -126 232t-46 330
t46 332q84 269 308 367q101 45 217 45z" />
    <glyph glyph-name="one.lf" horiz-adv-x="1159" 
d="M1008 172v-172h-809v172h309v1047l-330 -152l-76 141l457 232h146v-1268h303z" />
    <glyph glyph-name="two.lf" horiz-adv-x="1308" 
d="M602 1458q252 0 389 -115t137 -307q0 -123 -67 -238q-67 -114 -320 -325l-342 -297h772v-176h-1019v170q403 354 532 465t177 181q47 70 55 112q7 41 8 82q0 134 -90 202t-246 68q-209 0 -371 -121l-86 152q219 147 471 147z" />
    <glyph glyph-name="three.lf" horiz-adv-x="1261" 
d="M598 1458q240 0 369 -97t129 -231t-70 -222q-70 -89 -190 -130v-8q141 -18 233 -112t92 -228q0 -203 -163 -330t-416 -127q-150 0 -283 42t-227 118l94 150q176 -133 380 -133t308 80q104 81 104 203t-98 181t-303 60h-160v164h148q156 0 254 59t98 163t-88 162
q-88 60 -238 60q-194 0 -362 -127l-94 133q201 170 483 170z" />
    <glyph glyph-name="four.lf" horiz-adv-x="1355" 
d="M844 532v637l-518 -637h518zM1255 532v-157h-221v-375h-194v375h-723v139l751 920h166v-902h221z" />
    <glyph glyph-name="five.lf" horiz-adv-x="1310" 
d="M1087 1260h-688v-445q125 86 310 86q275 0 406 -190q69 -100 69 -244q0 -225 -152 -359t-424 -134t-432 130l82 150q146 -102 334 -102t291 85q102 85 102 224t-90 210q-89 71 -245 71t-304 -111l-135 80v729h876v-180z" />
    <glyph glyph-name="six.lf" horiz-adv-x="1413" 
d="M1016 454q0 132 -90 204t-219 71q-248 0 -398 -188q8 -185 110 -289t258 -103q157 1 248 87t91 218zM412 812q136 87 321 87t330 -104q70 -51 112 -137t42 -195q-1 -209 -149 -348t-374 -140q-286 1 -440 179t-154 523t149 549q172 232 486 232q262 0 434 -117l-98 -147
q-152 88 -334 88t-310 -123t-136 -442q61 57 121 95z" />
    <glyph glyph-name="seven.lf" horiz-adv-x="1181" 
d="M55 1260v174h1026v-162l-626 -1272h-211l630 1260h-819z" />
    <glyph glyph-name="eight.lf" horiz-adv-x="1273" 
d="M637 690q-150 0 -245 -76t-95 -194q0 -167 154 -238q78 -35 186 -35q164 0 250 74t86 196q0 121 -93 197t-243 76zM928 1068q0 102 -78 162q-78 58 -212 58t-213 -58t-79 -159q0 -165 200 -210q44 -9 91 -9q127 0 209 57t82 159zM637 1458q221 0 355 -101t134 -265
q0 -115 -60 -198t-167 -122q115 -31 195 -132t80 -234q0 -195 -142 -314t-397 -119q-254 0 -394 117t-141 307q0 135 80 239t199 136q-146 56 -203 180q-29 63 -29 140q1 164 135 265t355 101z" />
    <glyph glyph-name="nine.lf" horiz-adv-x="1259" 
d="M586 1282q-148 0 -237 -78t-89 -207t77 -203t205 -75q128 0 248 52t168 134q-8 186 -115 282q-109 95 -257 95zM520 147q192 -1 320 139q127 140 129 437q-101 -94 -203 -136t-234 -42t-233 48q-102 48 -169 152t-67 252q-1 207 147 334t359 127q287 0 439 -171t151 -511
q-1 -434 -185 -618q-184 -183 -460 -183q-225 1 -405 105l69 153q150 -86 342 -86z" />
    <glyph glyph-name="zero.tf" horiz-adv-x="1331" 
d="M309 718q0 -272 94 -423q95 -150 263 -150t262 150t94 421q0 270 -94 420t-262 150t-262 -148t-95 -420zM666 1460q113 0 211 -44t176 -133t123 -235t45 -332t-45 -332q-83 -267 -299 -368q-98 -45 -211 -45q-231 0 -387 180q-78 89 -123 233t-45 330t45 334
q45 146 123 235t176 133t211 44z" />
    <glyph glyph-name="one.tf" horiz-adv-x="1331" 
d="M1153 172v-172h-809v172h309v1047l-331 -152l-74 141l454 232h146v-1268h305z" />
    <glyph glyph-name="two.tf" horiz-adv-x="1331" 
d="M618 1458q252 0 390 -115q137 -115 137 -307q0 -122 -67 -235q-67 -114 -320 -328l-340 -297h770v-176h-1020v170q403 354 532 465t176 181q47 69 57 111q9 42 9 83q0 88 -43 149q-85 121 -295 121q-209 0 -371 -121l-86 152q219 147 471 147z" />
    <glyph glyph-name="three.tf" horiz-adv-x="1331" 
d="M635 1458q357 0 468 -209q32 -59 32 -125q0 -127 -71 -216t-192 -130v-8q140 -18 234 -112t94 -228q0 -203 -164 -330t-415 -127q-310 0 -512 160l94 150q177 -133 381 -133t309 80q104 81 104 203t-99 181t-304 60h-160v164h150q154 0 252 59t98 163t-88 162
q-88 60 -238 60q-194 0 -360 -127l-96 133q203 170 483 170z" />
    <glyph glyph-name="four.tf" horiz-adv-x="1331" 
d="M825 532v637l-518 -637h518zM1239 532v-157h-221v-375h-195v375h-723v139l752 920h166v-902h221z" />
    <glyph glyph-name="five.tf" horiz-adv-x="1331" 
d="M1087 1260h-690v-445q125 86 312 86q276 0 405 -190q68 -100 68 -244q0 -225 -152 -359t-424 -134t-430 130l82 150q145 -102 364 -102t314 147q47 72 47 168q0 133 -89 204q-90 71 -246 71t-304 -111l-133 80v729h876v-180z" />
    <glyph glyph-name="six.tf" horiz-adv-x="1331" 
d="M694 729q-102 0 -202 -50t-170 -138q12 -249 181 -345q81 -46 189 -46q154 0 245 86t91 221q0 86 -43 148t-115 93q-74 31 -176 31zM303 717q190 182 409 182t363 -104q70 -51 112 -137t42 -195q0 -209 -150 -348t-374 -140q-283 1 -438 179t-155 524t149 548
q172 232 487 232q262 0 434 -117l-99 -147q-152 88 -333 88t-312 -125t-135 -440z" />
    <glyph glyph-name="seven.tf" horiz-adv-x="1331" 
d="M147 1260v174h1041v-181l-633 -1253h-221l649 1260h-836z" />
    <glyph glyph-name="eight.tf" horiz-adv-x="1331" 
d="M668 690q-150 0 -245 -76t-95 -194q0 -166 153 -238q78 -35 187 -35q162 0 248 74t85 196q1 121 -91 197t-242 76zM668 1288q-135 0 -214 -58t-79 -151t53 -144q85 -83 226 -83t223 57q81 57 81 159t-77 162q-78 58 -213 58zM667 1458q220 0 355 -101t135 -265
q0 -115 -60 -198t-169 -122q118 -31 196 -132t78 -234q0 -195 -141 -314t-395 -119t-395 117q-140 117 -140 307q0 135 80 239t199 136q-109 39 -171 123t-63 197q0 164 135 265q136 101 356 101z" />
    <glyph glyph-name="nine.tf" horiz-adv-x="1331" 
d="M638 1282q-148 0 -238 -78q-89 -78 -89 -207t77 -203t205 -75q128 0 248 52t169 134q-8 185 -116 281t-256 96zM584 545q-132 0 -234 48t-169 152t-66 252q0 207 147 334t359 127q287 0 439 -171t150 -511q0 -434 -184 -618q-184 -183 -461 -183q-225 1 -403 105l67 153
q150 -86 339 -86t320 137q130 137 134 439q-104 -94 -204 -136q-102 -42 -234 -42z" />
    <glyph glyph-name="zero.dnom" horiz-adv-x="833" 
d="M600 399q0 295 -182 295t-182 -295t182 -295t182 295zM766 404q0 -214 -97 -324t-253 -109q-156 0 -252 109q-96 108 -96 320t96 320t250 107q154 0 252 -105q100 -104 100 -318z" />
    <glyph glyph-name="one.dnom" horiz-adv-x="833" 
d="M514 125h174v-133h-502v133h174v514l-159 -68l-54 115l261 125h106v-686z" />
    <glyph glyph-name="two.dnom" horiz-adv-x="833" 
d="M406 827q90 1 158 -31q139 -65 136 -212q0 -172 -225 -346l-145 -109h391v-137h-592v125l236 188q166 133 165 256q0 82 -70 111q-34 14 -77 14q-107 0 -203 -74l-71 115q133 100 297 100z" />
    <glyph glyph-name="three.dnom" horiz-adv-x="833" 
d="M369 481q163 0 166 111q0 100 -146 100q-105 0 -205 -78l-71 103q123 111 277 111t232 -60q78 -59 78 -150q0 -61 -41 -112t-112 -74q186 -37 186 -201q0 -117 -95 -191t-257 -73q-162 0 -289 94l66 119q115 -74 216 -74t147 36t46 96q0 121 -182 120h-90v123h74z" />
    <glyph glyph-name="four.dnom" horiz-adv-x="833" 
d="M471 322v282l-225 -282h225zM621 322h124v-125h-124v-201h-150v201h-385v120l406 498h129v-493z" />
    <glyph glyph-name="five.dnom" horiz-adv-x="833" 
d="M668 666h-363v-185q55 37 159 37t182 -72t79 -173q0 -195 -162 -270q-76 -36 -170 -36q-160 0 -270 80l55 113q98 -58 194 -58t142 43q47 43 47 109t-44 104q-44 37 -125 37t-138 -55l-100 45v418h514v-137z" />
    <glyph glyph-name="six.dnom" horiz-adv-x="833" 
d="M450 375q-58 0 -110 -28q-53 -28 -80 -66q8 -116 87 -161q39 -22 99 -22t101 40t41 100t-40 99q-40 38 -98 38zM467 694q-209 0 -213 -276q88 84 210 84t200 -67q80 -67 80 -189t-86 -200q-84 -79 -234 -79q-150 1 -241 103t-91 309q0 339 239 425q67 24 148 23
q131 1 240 -73l-62 -117q-78 57 -190 57z" />
    <glyph glyph-name="seven.dnom" horiz-adv-x="833" 
d="M115 662v139h604v-119l-342 -690h-166l328 670h-424z" />
    <glyph glyph-name="eight.dnom" horiz-adv-x="831" 
d="M417 100q81 0 124 36t43 95t-46 97t-121 37q-75 0 -122 -37q-47 -36 -47 -96t44 -96t125 -36zM407 700q-52 0 -94 -29q-41 -30 -41 -81t40 -78t106 -27t106 27t39 70q0 118 -156 118zM418 -33q-96 0 -173 34t-118 91t-41 125q0 152 154 211q-119 53 -119 178q0 62 37 114
q79 111 260 109q131 0 214 -62t83 -161q0 -127 -123 -180q152 -57 151 -209q0 -104 -92 -177t-233 -73z" />
    <glyph glyph-name="nine.dnom" horiz-adv-x="833" 
d="M408 688q-58 0 -93 -16t-54 -48t-19 -75t16 -74q31 -61 117 -61q57 0 113 22t81 56q-4 94 -53 145q-50 51 -108 51zM355 285q-117 1 -195 71t-78 195t88 201t211 76q354 -1 354 -408q0 -251 -112 -352t-266 -101q-153 0 -253 74l60 115q80 -52 179 -52t165 62t67 205
q-104 -86 -220 -86z" />
    <glyph glyph-name="zero.numr" horiz-adv-x="833" 
d="M416 1309q-180 0 -180 -295t180 -295q186 0 186 295t-186 295zM416 1442q156 0 254 -108t98 -318t-97 -321q-97 -109 -253 -109t-252 110t-96 320t95 318t251 108z" />
    <glyph glyph-name="one.numr" horiz-adv-x="833" 
d="M514 739h174v-131h-502v131h174v514l-159 -67l-54 114l261 125h106v-686z" />
    <glyph glyph-name="two.numr" horiz-adv-x="833" 
d="M721 743v-135h-592v123l236 189q166 133 165 258q0 79 -70 108q-34 14 -77 14q-107 1 -203 -73l-71 114q133 101 283 101t229 -68q80 -68 79 -174q0 -174 -225 -348l-145 -109h391z" />
    <glyph glyph-name="three.numr" horiz-adv-x="833" 
d="M390 1442q154 0 232 -58t78 -149q0 -63 -41 -115t-112 -73q186 -35 186 -201q0 -115 -95 -190q-95 -74 -257 -74t-289 96l66 117q115 -74 216 -74t147 36t46 96q0 120 -182 120h-90v123h74q77 0 121 28t45 82q0 102 -146 103q-105 0 -205 -80l-71 102q123 111 277 111z
" />
    <glyph glyph-name="four.numr" horiz-adv-x="833" 
d="M471 932v282l-225 -282h225zM621 932h124v-125h-124v-199h-150v199h-385v123l406 497h129v-495z" />
    <glyph glyph-name="five.numr" horiz-adv-x="833" 
d="M668 1280h-363v-184q55 37 159 37t182 -72t79 -195q0 -124 -94 -204t-246 -80t-262 80l55 112q98 -57 194 -57t142 43q47 43 47 109q0 67 -44 105t-125 38t-138 -56l-100 43v418h514v-137z" />
    <glyph glyph-name="six.numr" horiz-adv-x="833" 
d="M450 989q-58 1 -110 -27q-53 -28 -80 -65q6 -88 52 -136t120 -48t115 40t41 100t-40 98t-98 38zM92 993q0 343 239 425q67 24 148 24q131 0 240 -74l-62 -117q-78 57 -190 58q-209 0 -213 -277q88 86 209 86t202 -66q80 -66 79 -190q-1 -123 -86 -202q-85 -78 -207 -78
q-123 0 -199 44q-160 92 -160 367z" />
    <glyph glyph-name="seven.numr" horiz-adv-x="833" 
d="M115 1276v139h604v-119l-342 -688h-166l328 668h-424z" />
    <glyph glyph-name="eight.numr" horiz-adv-x="831" 
d="M584 837q0 90 -79 127q-39 17 -101 17t-109 -38t-47 -82t11 -67q37 -79 179 -79q60 0 103 36t43 86zM428 1315q-153 0 -156 -107q0 -108 146 -108t145 108q0 49 -42 78t-93 29zM86 831q0 152 154 211q-119 53 -119 179q0 98 82 160q82 63 214 63t215 -62t83 -161
q0 -128 -123 -179q152 -59 151 -211q0 -104 -92 -177t-233 -72q-96 0 -173 34t-118 90q-41 58 -41 125z" />
    <glyph glyph-name="nine.numr" horiz-adv-x="833" 
d="M396 1303q-70 0 -112 -37q-42 -38 -42 -102t36 -100t95 -36t115 22t81 56q-4 96 -53 146t-120 51zM343 719q99 0 165 62t67 204q-104 -84 -220 -84q-117 0 -195 70q-78 71 -78 195t88 200t211 76q239 0 316 -189q38 -90 38 -216q0 -344 -236 -432q-65 -24 -145 -23
q-150 -1 -250 73l60 115q80 -51 179 -51z" />
    <glyph glyph-name="zero.sc" horiz-adv-x="1247" 
d="M625 1010q-152 0 -238 -113t-86 -319t85 -318q85 -113 238 -113q154 0 238 114t84 320q0 205 -84 317t-237 112zM634 1180q95 0 187 -36q201 -79 280 -296q42 -118 42 -268t-42 -269t-115 -191q-148 -146 -363 -147q-215 0 -367 154t-152 455q0 348 218 507
q125 91 312 91z" />
    <glyph glyph-name="one.sc" horiz-adv-x="999" 
d="M856 164v-164h-666v164h242v792l-248 -116l-71 133l364 194h139v-1003h240z" />
    <glyph glyph-name="two.sc" horiz-adv-x="1099" 
d="M500 1184q200 0 312 -95t112 -251q0 -122 -72 -219t-215 -226l-248 -223h567v-170h-800v156l315 282q14 16 45 43q183 159 203 246q12 48 12 80q0 96 -69 147q-70 52 -202 52t-253 -86l-82 135q174 129 375 129z" />
    <glyph glyph-name="three.sc" horiz-adv-x="1034" 
d="M474 1182q212 0 312 -79q98 -79 98 -185t-52 -181q-54 -76 -144 -110v-6q106 -17 176 -93t70 -180q0 -166 -127 -269t-328 -104q-123 0 -231 37t-178 103l82 133q132 -100 286 -100t229 58q75 60 75 150t-69 133t-214 43h-142v146h125q154 0 221 80q33 40 33 104t-61 108
t-168 44q-152 -1 -281 -99l-86 132q162 135 374 135z" />
    <glyph glyph-name="four.sc" horiz-adv-x="1126" 
d="M676 438v477l-371 -477h371zM1024 438v-147h-170v-291h-178l-6 291h-551v129l583 739h152v-721h170z" />
    <glyph glyph-name="five.sc" horiz-adv-x="1107" 
d="M911 989h-534v-325q96 68 246 68t255 -91q105 -90 105 -266t-121 -288q-120 -112 -334 -112t-352 107l70 147q121 -82 260 -82q139 1 214 63t75 166t-65 156q-64 54 -178 54t-226 -88l-123 71v598h708v-178z" />
    <glyph glyph-name="six.sc" horiz-adv-x="1189" 
d="M623 575q-168 0 -277 -141q12 -181 132 -255q58 -36 150 -36t158 65t66 163t-64 151t-165 53zM662 1014q-142 0 -234 -98t-96 -322q147 139 347 139t307 -156q56 -83 56 -198q0 -170 -118 -287t-299 -117q-223 -1 -349 147t-124 443q0 450 307 579q86 36 188 36
q209 -1 361 -101l-88 -139q-116 74 -258 74z" />
    <glyph glyph-name="seven.sc" horiz-adv-x="966" 
d="M57 989v170h809v-149l-471 -1010h-194l467 989h-611z" />
    <glyph glyph-name="eight.sc" horiz-adv-x="1060" 
d="M530 547q-106 1 -176 -57t-70 -147t66 -146t180 -57t176 56q62 58 62 148t-66 146t-172 57zM546 1014q-80 0 -126 -18q-100 -39 -98 -140q0 -76 59 -120t149 -44t149 45q58 45 58 119t-55 116q-56 42 -136 42zM133 879q-1 135 109 218t286 83t287 -84t111 -217
q0 -92 -47 -161t-127 -95q90 -31 149 -113t60 -186q0 -156 -116 -253t-316 -97q-199 0 -313 96q-114 98 -114 254q0 104 60 186t149 111q-78 31 -128 99t-50 159z" />
    <glyph glyph-name="nine.sc" horiz-adv-x="1044" 
d="M483 1014q-139 0 -205 -101q-32 -49 -32 -105q0 -107 58 -160q58 -52 170 -52q111 0 209 63q48 31 71 72q-6 139 -86 211q-81 72 -185 72zM766 569q-139 -139 -307 -139t-282 92t-114 271q0 180 118 285q118 106 279 106q317 1 428 -253q56 -130 56 -293q0 -164 -26 -272
q-49 -200 -189 -299q-121 -88 -291 -89t-336 83l58 144q129 -66 272 -66q142 -1 236 105t98 325z" />
    <glyph glyph-name="parenleft.sup" horiz-adv-x="610" 
d="M299 1304q0 -260 188 -456l-96 -82q-242 207 -241 537q0 165 58 293t183 237l101 -76q-193 -193 -193 -453z" />
    <glyph glyph-name="parenright.sup" horiz-adv-x="610" 
d="M477 1297q0 -324 -239 -531l-99 82q191 198 191 456t-193 453l101 76q239 -212 239 -536z" />
    <glyph glyph-name="hyphen.sup" horiz-adv-x="886" 
d="M678 1284h-506v137h506v-137z" />
    <glyph glyph-name="exclam.sc" horiz-adv-x="620" 
d="M310 238q48 0 84 -32t36 -91t-36 -92t-84 -33t-83 32t-34 92q0 60 34 92q35 32 83 32zM383 383h-145l-33 780h211z" />
    <glyph glyph-name="exclamdown.sc" horiz-adv-x="614" 
d="M233 731h146l33 -780h-211zM306 877q-48 -1 -83 31t-35 91t35 93t83 32q48 0 83 -32t35 -92t-35 -92t-83 -31z" />
    <glyph glyph-name="parenleft.sc" horiz-adv-x="761" 
d="M543 1331l67 -88q-289 -252 -288 -686q0 -211 61 -360q61 -150 121 -224t108 -114l-67 -86q-4 5 -31 25q-28 20 -60 46t-95 100q-62 74 -101 150t-71 200q-58 224 -18 437t113 329q42 66 70 102t77 79q47 43 63 54t51 36z" />
    <glyph glyph-name="parenright.sc" horiz-adv-x="747" 
d="M596 541q0 -123 -32 -247t-72 -201t-100 -149q-62 -72 -95 -100q-33 -27 -59 -47t-31 -24l-68 86q200 176 267 470q25 110 24 228q0 434 -289 686l68 88q132 -94 190 -169q29 -36 71 -102q126 -201 126 -519z" />
    <glyph glyph-name="question.sc" horiz-adv-x="894" 
d="M408 236q49 0 84 -32q34 -32 34 -92t-34 -93q-35 -31 -84 -31t-84 32t-35 92t35 92t84 32zM420 1192q176 0 266 -73t90 -194t-100 -228q-41 -42 -83 -81q-103 -95 -101 -170v-51h-162v39q0 114 90 209q37 39 74 76q90 90 90 174q0 135 -178 135q-124 0 -226 -72l-80 127
q144 109 320 109z" />
    <glyph glyph-name="questiondown.sc" horiz-adv-x="925" 
d="M553 741v-43q0 -100 -88 -193q-37 -38 -74 -74t-63 -81t-27 -92q0 -47 41 -79t117 -32q133 0 227 76l92 -125q-143 -113 -340 -112q-158 0 -242 70t-85 185q0 114 95 214q40 41 80 80q95 93 95 161v45h172zM459 1130q41 0 67 -12q61 -28 63 -97q1 -70 -35 -102t-77 -32
q-127 0 -129 132q0 51 35 81t76 30z" />
    <glyph glyph-name="cent.osf" horiz-adv-x="1050" 
d="M133 465q0 190 96 304t263 136l-9 185h148l-10 -181q141 -12 237 -94l-63 -131q-101 76 -219 76t-190 -77t-73 -220q0 -98 36 -170q72 -143 231 -141q127 0 229 86l70 -123q-109 -102 -271 -115l8 -180h-141l8 186q-207 38 -302 235q-48 99 -48 224z" />
    <glyph glyph-name="dollar.osf" horiz-adv-x="1030" 
d="M506 1044q-92 0 -146 -44t-53 -109q0 -65 31 -101q31 -35 65 -54q35 -19 62 -31q50 -22 90 -38q187 -74 258 -147q72 -74 72 -204t-83 -220q-83 -92 -229 -114l7 -160h-152l6 155q-186 14 -321 107l55 141q143 -86 307 -86q115 0 172 47t57 133t-99 139q-59 33 -181 80
q-122 48 -207 122q-86 74 -86 210q0 138 88 224t236 98l-2 96h147l-4 -100q147 -23 260 -105l-76 -133q-129 94 -274 94z" />
    <glyph glyph-name="ampersand.sc" horiz-adv-x="1259" 
d="M336 242q0 -53 43 -89t119 -36q76 1 128 31t97 94l-227 213l-41 -31q-63 -49 -91 -89t-28 -93zM686 866q0 49 -41 81t-109 32t-109 -37q-40 -37 -40 -82q0 -76 60 -141q26 -29 69 -70l19 13q83 59 117 107t34 97zM485 -29q-151 0 -239 76t-88 199q0 80 46 148t154 145
l27 18q-90 86 -129 146t-39 164t88 182q89 77 231 77t230 -72t88 -166q0 -95 -43 -160t-125 -128l-65 -49l186 -168l123 252l147 -55l-100 -207q-27 -55 -51 -99l186 -168l-121 -114l-155 145q-135 -166 -351 -166z" />
    <glyph glyph-name="cent.sc" horiz-adv-x="1050" 
d="M133 465q0 190 96 304t263 136l-9 185h148l-10 -181q141 -12 237 -94l-63 -131q-101 76 -219 76t-190 -77t-73 -220q0 -98 36 -170q72 -143 231 -141q127 0 229 86l70 -123q-109 -102 -271 -115l8 -180h-141l8 186q-207 38 -302 235q-48 99 -48 224z" />
    <glyph glyph-name="percent.sc" horiz-adv-x="1298" 
d="M987 410q-61 0 -94 -42t-33 -118t33 -117t94 -41q123 0 123 159t-123 159zM719 250q-1 124 75 196t193 72t193 -72t75 -196q0 -170 -131 -238q-59 -31 -137 -30q-117 0 -193 72t-75 196zM318 696q126 0 126 159t-126 159t-125 -159q-1 -159 125 -159zM315 0h-125
l799 1104h125zM53 855q-1 127 75 197t192 70t192 -72t76 -196q0 -125 -75 -196q-75 -70 -193 -70t-192 70t-75 197z" />
    <glyph glyph-name="perthousand.sc" horiz-adv-x="1908" 
d="M1599 410q-61 0 -94 -42t-33 -118t34 -117q32 -41 93 -41q123 0 123 159t-123 159zM858 250q0 -155 127 -158q125 0 125 159t-125 159q-61 0 -94 -42t-33 -118zM1868 248q0 -126 -75 -196t-193 -70t-194 72t-75 196q0 84 36 145q73 123 230 123q119 0 195 -72t76 -198z
M719 250q-1 124 75 196t192 72t192 -72t75 -196q0 -172 -130 -238q-60 -31 -138 -30q-117 0 -191 72t-75 196zM319 696q125 0 125 159t-125 159t-129 -158q0 -78 34 -119t95 -41zM315 0h-127l799 1104h127zM51 855q-1 127 75 197t193 70t192 -72t75 -196q0 -125 -75 -196
q-75 -70 -192 -70t-193 70t-75 197z" />
    <glyph glyph-name="u1F620.ss01" 
d="M1024 496q128 0 212 -30q144 -53 225 -123q135 -116 165 -263h-127q-57 104 -186 172t-289 67q-245 0 -399 -144q-47 -44 -76 -95h-127q41 178 210 297t392 119zM1372 934q0 -252 -119 -252t-118 252v125l475 151l30 -116l-268 -86v-74zM911 934q1 -252 -117 -252
t-118 252v74l-268 86l30 116l473 -151v-125z" />
    <glyph glyph-name="u1F627.ss01" 
d="M1025 528q-165 0 -288 -78t-168 -231q187 53 455 53t455 -53q-43 153 -166 231t-288 78zM1025 678q275 0 439 -182t166 -471q-66 49 -242 79t-364 29q-369 0 -606 -108q2 289 167 471t440 182zM1376 989q0 -256 -120 -256t-119 256v264l510 -254l-29 -114l-242 119v-15z
M911 989q1 -256 -119 -256t-120 256v15l-240 -119l-31 114l510 254v-264z" />
    <glyph glyph-name="u1F616.ss01" 
d="M1389 434q-73 0 -110 -53q-38 -53 -96 -113q-57 -61 -165 -61t-172 81q-28 34 -52 66q-61 81 -132 80q-147 0 -207 -172l-111 33q26 98 99 197q73 98 212 98q112 -4 179 -78q28 -32 52 -62q57 -72 138 -71q81 0 139 77q25 32 51 62q65 75 179 72q153 0 243 -139
q44 -67 70 -156l-113 -33q-59 172 -204 172zM1565 909l-480 174l54 150l479 -174zM918 1233l53 -150l-479 -174l-54 150z" />
    <glyph glyph-name="u1F615.ss01" 
d="M592 102l-62 170q328 348 926 336l62 -170q-598 12 -926 -336zM1255 1059v-96q0 -164 -130 -164t-130 164v96h260zM653 1198q109 0 109 -229t-109 -230t-109 229t109 230z" />
    <glyph glyph-name="u1F622.ss01" 
d="M1023 444q218 0 384 -105t207 -265h-156q-37 84 -158 138q-120 54 -250 54t-222 -24q-187 -50 -240 -168h-154q39 160 205 265t384 105zM1320 575q42 0 69 29t27 66t-41 96q-40 59 -56 92q-14 -33 -54 -92t-40 -96q1 -37 27 -66t68 -29zM1457 530q-55 -55 -123 -55
q-123 0 -184 95q-26 42 -26 92t48 127q48 76 69 98q-143 55 -156 340h123q10 -109 33 -160t66 -51t65 51t31 160h125q-10 -260 -137 -330q14 -20 55 -78q67 -94 67 -164t-56 -125zM744 877q-98 0 -158 90t-68 260h125q15 -211 98 -211q43 0 66 51t31 160h125
q-9 -170 -65 -260t-154 -90z" />
    <glyph glyph-name="u1F625.ss01" 
d="M1024 598q223 0 392 -119t210 -297h-127q-78 143 -272 208q-95 32 -189 32q-255 0 -413 -144q-47 -45 -76 -96h-127q41 178 210 297t392 119zM1632 679q0 -36 26 -64q26 -27 60 -27q67 1 86 47q10 20 10 50t-37 86q-39 56 -53 89q-16 -35 -54 -90t-38 -91zM1911 660
q0 -62 -54 -115q-53 -53 -133 -53t-134 53t-54 115t39 120t84 126t55 138h19q10 -70 55 -138t84 -126t39 -120zM1565 997l-68 -116l-410 219l72 119zM952 1100l-409 -219l-68 116l406 222z" />
    <glyph glyph-name="u1F61E.ss01" 
d="M1024 598q223 0 392 -119t210 -297h-127q-57 104 -186 172t-289 68t-289 -68t-186 -172h-127q27 117 112 212q85 96 214 150t276 54zM1295 729q-114 0 -113 244v123l-60 34v158l391 -207v-170l-104 60q0 -242 -114 -242zM866 973q0 -244 -114 -244t-113 242l-104 -60v170
l391 207v-158l-60 -34v-123z" />
    <glyph glyph-name="u1F611.ss01" 
d="M1561 340h-1074v147h1074v-147zM1565 907h-430v150h430v-150zM915 907h-430v150h430v-150z" />
    <glyph glyph-name="u1F60B.ss01" 
d="M1415 203q37 20 39 61t-39 139q-76 -63 -172 -100q59 -81 99 -103t73 3zM1024 264q-206 0 -360 114t-191 284h139q32 -110 146 -186q114 -75 263 -76q150 -1 266 74t151 188h137q-20 -96 -84 -179q75 -161 65 -243t-88 -127q-51 -27 -101 -26q-106 2 -230 187
q-55 -10 -113 -10zM1321 1141q-41 0 -63 -65t-29 -204h-123q6 188 65 292t151 104t149 -104q58 -104 65 -292h-125q-12 187 -45 239q-18 30 -45 30zM803 1024q-21 117 -74 117t-76 -117q-10 -58 -16 -152h-123q4 188 64 292t153 104q126 0 179 -178q28 -90 32 -218h-123
q-6 94 -16 152z" />
    <glyph glyph-name="u1F613.ss01" 
d="M1440 264h-1073v150h1073v-150zM1528 717q-39 -57 -39 -100t43 -70q20 -12 54 -12q34 1 60 27t26 62t-39 92q-38 56 -52 91q-14 -33 -53 -90zM1580 438q-79 0 -133 52t-54 114t39 122t84 128t55 135h18q14 -97 97 -197t82 -175t-55 -127t-133 -52zM1255 1008
q1 -256 -119 -256t-120 256v325l510 -254l-29 -114l-242 118v-75zM791 1008q0 -256 -120 -256t-120 256v75l-240 -118l-30 114l510 254v-325z" />
    <glyph glyph-name="u1F624.ss01" 
d="M1628 -283q174 -16 193 -120q25 -140 -116 -166q-44 -8 -81 20q-2 -59 -33 -95t-82 -45t-94 15t-65 80q-18 -37 -76 -48t-102 19q-44 31 -55 95t28 104q39 41 110 76l9 -47q-25 -17 -38 -27q-12 -10 -26 -36t-8 -58t33 -50q27 -17 59 -9q33 2 47 36l39 -2q35 -91 124 -77
q38 6 65 36t28 78l35 19q20 -25 57 -23q35 6 57 37t2 81q-5 12 -23 28t-47 24t-32 8zM410 -328q-31 -8 -46 -13t-37 -25t-27 -52q-5 -34 14 -58q18 -24 52 -30t58 23l35 -17q1 -51 27 -81q26 -29 65 -35q90 -13 125 77l39 4q12 -35 46 -41q33 -6 61 11q28 18 33 51
q5 34 -8 58t-25 33t-40 28l9 47q158 -72 139 -176q-16 -89 -88 -114q-33 -11 -77 -5t-71 49q-24 -73 -93 -92q-29 -8 -71 0t-74 44t-34 97q-33 -31 -88 -21t-87 55q-32 44 -20 112q16 98 191 118zM1026 485q-86 0 -160 -12l-139 -952l-63 14l147 928q-51 -12 -92 -29
l-211 -872l-66 10l211 829q-82 -49 -123 -120h-118q30 87 102 161t180 119l54 211l51 -8l-45 -182q39 12 77 20l25 150l51 -9l-20 -131q153 19 282 -2l-20 133l51 9l25 -152q41 -8 78 -22l-46 184l52 10l55 -217q209 -92 270 -274h-118q-39 66 -111 112l209 -821l-64 -10
l-211 866q-43 18 -92 33l146 -926l-64 -14l-139 950q-78 14 -164 14zM1079 1163l426 123l25 -94l-426 -125zM516 1192l25 94l428 -123l-25 -96z" />
    <glyph glyph-name="u1F62E.ss01" 
d="M1184 88q-113 0 -193 79t-80 191t80 193q80 80 193 80q114 0 192 -80t78 -193q0 -114 -78 -192t-192 -78zM1192 1225q123 0 123 -261t-123 -262q-123 0 -123 262t123 261zM715 1225q123 0 123 -261t-123 -262q-123 0 -123 262t123 261z" />
    <glyph glyph-name="u1F61B.ss01" 
d="M1198 453h-348q14 -187 55 -265t119 -78t118 78q40 77 56 265zM1559 453h-226q-14 -242 -95 -360t-215 -118t-215 118t-93 360h-226v135h1070v-135zM1264 1225q122 0 122 -261t-122 -262q-123 0 -123 262t123 261zM785 1225q122 0 122 -261t-122 -262q-122 0 -122 262
t122 261z" />
    <glyph glyph-name="u1F61D.ss01" 
d="M1198 453h-348q14 -187 55 -265t119 -78t118 78q40 77 56 265zM1559 453h-226q-8 -164 -50 -272q-79 -204 -259 -206q-135 0 -216 118t-93 360h-226v135h1070v-135zM1493 1098l-217 -84v-10l217 -107l-51 -143l-330 219v69l330 199zM938 1042v-69l-332 -219l-51 143
l217 107v10l-217 84l51 143z" />
    <glyph glyph-name="u1F602.ss01" 
d="M1991 428q10 -27 22 -85q21 -102 86 -102q31 -1 58 23q25 25 23 57q-1 32 -22 53q-22 22 -80 32t-87 22zM57 428q-29 -10 -86 -21q-99 -19 -101 -86q-1 -30 25 -56q27 -27 57 -25t51 23t33 79t21 86zM985 461q-106 2 -203 22v-131q94 -27 203 -30v139zM1270 483
q-98 -20 -203 -22v-139q109 4 203 30v131zM1874 532l12 13q47 -35 115 -49t126 -26t95 -51t38 -101t-46 -110t-115 -50t-106 41q-33 33 -45 92t-26 127t-48 114zM164 545l10 -13q-44 -60 -53 -120q-16 -118 -30 -154q-40 -102 -141 -101q-65 1 -113 48t-49 113t37 102
q38 37 96 49q58 13 127 27t116 49zM1350 383q162 74 215 213q-102 -59 -215 -92v-121zM700 504q-111 33 -215 92q53 -139 215 -213v121zM258 627q26 -25 56 -24q68 2 85 102q10 57 23 86q-29 -9 -86 -21t-79 -34t-23 -53t24 -56zM1792 627q25 25 24 57q0 32 -22 52t-80 32
t-86 23q10 -27 22 -85q22 -101 86 -103q29 -1 56 24zM1026 573q324 0 549 127l-3 21q-3 20 -3 23q0 4 -4 22t-7 33t-9 28q-7 13 -14 30t-24 38l11 12q70 -52 179 -63t152 -56t44 -107t-46 -112q-41 -39 -96 -46t-96 18q-89 -281 -345 -389q-130 -55 -290 -56
q-240 0 -404 120t-231 325q-41 -25 -95 -18t-97 50t-45 108t36 101t96 49t127 27t115 49l11 -12q-21 -28 -28 -47q-7 -20 -10 -28t-6 -20q-3 -13 -9 -27t-5 -34l-6 -39q229 -127 553 -127zM1256 1075q-67 0 -80 -227h-101q6 164 52 252t127 88t129 -88t55 -252h-103
q-12 227 -79 227zM792 1075q-66 0 -79 -227h-103q6 164 54 252t130 88q81 0 128 -88t53 -252h-103q-14 227 -80 227z" />
    <glyph glyph-name="u1F628.ss01" 
d="M1026 594q-138 0 -246 -73t-131 -216h752q-25 141 -131 215t-244 74zM1571 170h-1092q33 357 273 498q120 70 274 70t272 -70q240 -142 273 -498zM1373 1106q28 0 47 -20q20 -20 20 -49q0 -28 -20 -47t-47 -19q-28 0 -48 19t-20 47q0 29 20 49t48 20zM677 1106
q28 0 47 -20t19 -49q0 -28 -19 -47t-47 -19t-48 19t-21 47q0 29 20 49t49 20zM1372 1212q-72 0 -123 -51t-51 -123t51 -123t123 -51t123 51t51 123t-51 123t-123 51zM677 1212q-73 0 -124 -51t-51 -123t51 -123t124 -51t123 51t50 123t-50 123t-123 51zM1372 1311
q113 0 194 -80t81 -193q0 -112 -81 -192t-194 -80q-112 0 -192 80t-80 192t80 193q80 80 192 80zM677 1311q113 0 193 -80t80 -193q0 -112 -80 -192t-194 -80t-193 80q-80 80 -80 192t80 193q80 80 194 80z" />
    <glyph glyph-name="u1F633.ss01" 
d="M662 449h718q0 -150 -104 -256q-104 -107 -253 -107t-255 106t-106 257zM1493 569h418q-39 -67 -112 -95q-40 -15 -97 -23q-112 16 -163 61q-26 22 -46 57zM137 569h418q-31 -51 -78 -80t-131 -38q-112 16 -163 61q-26 22 -46 57zM1458 696q0 30 6 58h475q18 -64 0 -115
h-475q-6 27 -6 57zM590 695q0 -30 -6 -56h-475q-8 27 -8 57t8 58h475q6 -29 6 -59zM1702 936q64 0 118 -31q56 -31 91 -84h-416q33 53 88 84t119 31zM346 936q62 0 118 -31t89 -84h-416q76 115 209 115zM1124 1251l78 123l377 -172l-27 -127zM469 1202l375 172l80 -123
l-428 -176z" />
    <glyph glyph-name="u1F626.ss01" 
d="M1024 565q-191 0 -302 -128q-59 -67 -75 -161h752q-25 139 -131 214t-244 75zM1024 709q232 0 376 -153t169 -415h-1092q16 172 86 300t188 198t273 70zM1262 1368q122 0 122 -261t-122 -261t-123 261q0 261 123 261zM784 1368q123 0 123 -261t-123 -261t-123 261
t123 261z" />
    <glyph glyph-name="u1F600.ss01" 
d="M762 430v-141q100 -29 219 -33v150q-115 4 -219 24zM1286 291v141q-102 -23 -217 -26v-150q117 4 217 35zM1374 453v-131q174 80 234 229q-113 -61 -234 -98zM674 322v131q-119 35 -232 98q58 -149 232 -229zM1022 14q-330 0 -526 207t-197 535q263 -224 723 -226
q333 0 580 128q82 45 145 102q-2 -330 -198 -538q-197 -208 -527 -208zM1262 1225q122 0 122 -261t-122 -262q-123 0 -123 262t123 261zM784 1225q123 0 123 -261t-123 -262q-123 0 -123 262t123 261z" />
    <glyph glyph-name="u1F601.ss01" 
d="M762 430v-141q100 -29 219 -33v150q-115 4 -219 24zM1286 291v141q-102 -23 -217 -26v-150q117 4 217 35zM1374 453v-131q174 80 234 229q-113 -61 -234 -98zM674 322v131q-119 35 -232 98q58 -149 232 -229zM1022 14q-330 0 -526 207t-197 535q263 -224 723 -226
q295 0 523 102q116 52 202 128q-2 -330 -198 -538q-197 -208 -527 -208zM1409 872q-10 264 -88 269q-43 0 -63 -65t-29 -204h-125q6 188 65 292t151 104t150 -104q57 -104 64 -292h-125zM725 1141q-77 0 -88 -269h-125q6 188 66 292t153 104q123 0 178 -178q29 -90 33 -218
h-125q-12 187 -45 239q-18 30 -47 30z" />
    <glyph glyph-name="u1F610.ss01" 
d="M1561 340h-1074v147h1074v-147zM1264 1225q122 0 122 -261t-122 -262q-123 0 -123 262t123 261zM786 1225q123 0 123 -261t-123 -262q-123 0 -123 262t123 261z" />
    <glyph glyph-name="u1F614.ss01" 
d="M1561 340h-1074v147h1074v-147zM1229 793h-123q6 188 65 290q59 103 151 103t149 -102q58 -102 65 -291h-125q-12 208 -54 250q-15 15 -36 16q-41 1 -61 -63t-31 -203zM637 793h-123q6 188 66 290t153 103q57 0 103 -44q99 -94 108 -349h-125q-8 139 -29 202
q-22 63 -63 64q-51 0 -74 -117q-10 -57 -16 -149z" />
    <glyph glyph-name="u1F623.ss01" 
d="M1024 598q223 0 392 -119t210 -297h-127q-57 104 -186 172t-289 68q-242 0 -399 -144q-47 -45 -76 -96h-127q27 117 112 212q85 96 214 150t276 54zM1493 1098l-215 -84v-10l215 -107l-51 -143l-330 219v69l330 199zM938 1042v-69l-332 -219l-51 143l217 107v10l-217 84
l51 143z" />
    <glyph glyph-name="u1F621.ss01" 
d="M1022 303q92 0 150 -54t75 -147h-92q-29 92 -132 92t-132 -92h-92q16 92 74 146q57 54 149 55zM1024 594q240 0 398 -110t206 -279h-135q-70 145 -248 202q-98 31 -222 31q-357 -1 -470 -233h-135q49 169 207 279q159 110 399 110zM1372 975q0 -252 -119 -252t-118 252
v125l475 151l30 -116l-268 -86v-74zM911 975q1 -252 -117 -252t-118 252v74l-268 86l30 116l473 -151v-125z" />
    <glyph glyph-name="u1F60C.ss01" 
d="M1024 119q-238 0 -419 136t-224 343h127q62 -139 202 -227t314 -88t314 88t202 227h127q-29 -135 -120 -245t-228 -172t-295 -62zM1318 766q-91 0 -149 102q-57 102 -63 291h123q11 -139 31 -203t61 -63q41 -1 61 63t29 203h125q-6 -189 -66 -291t-152 -102zM725 766
q-124 0 -179 178q-28 90 -32 215h123q15 -266 90 -266q41 -1 63 63t29 203h125q-6 -189 -66 -291t-153 -102z" />
    <glyph glyph-name="u1F607.ss01" 
d="M1024 119q-238 0 -419 136t-224 343h127q62 -139 202 -227t314 -88t314 88t202 227h127q-43 -207 -224 -343t-419 -136zM1262 1225q122 0 122 -261t-122 -262q-123 0 -123 262t123 261zM784 1225q123 0 123 -261t-123 -262q-123 0 -123 262t123 261zM1023 2103
q-216 0 -395 -47q-180 -47 -280 -125t-100 -168q0 -55 54 -112q123 -130 395 -184q151 -30 325 -29q344 0 561 101t217 222q0 90 -101 168t-281 126t-395 48zM991 2230q415 0 681 -142q120 -65 192 -151q126 -150 31 -316q-79 -140 -311 -247q-232 -106 -562 -104
q-205 0 -381 44q-322 81 -465 273q-63 86 -63 172q0 123 118 231q119 108 330 174t430 66z" />
    <glyph glyph-name="u1F608.ss01" 
d="M1024 119q-238 0 -419 136t-224 343h127q62 -139 202 -227t314 -88t314 88t202 227h127q-43 -207 -224 -343t-419 -136zM1372 934q0 -252 -118 -252t-117 252v207l473 151l30 -116l-268 -86v-156zM913 934q-1 -252 -119 -252t-118 252v156l-268 86l30 116l475 -151v-207z
M1780 2003v-561q-180 166 -486 209zM268 2003l486 -352q-303 -43 -486 -209v561z" />
    <glyph glyph-name="u1F603.ss01" 
d="M1025 172q193 0 341 96t199 273q-240 -135 -541 -138q-299 2 -539 138q51 -177 199 -273t341 -96zM1024 43q-307 0 -488 190t-184 496q244 -207 672 -211q431 0 672 215q-2 -201 -82 -357t-233 -244q-153 -89 -357 -89zM1262 1307q122 0 122 -261t-122 -262
q-123 0 -123 262t123 261zM784 1307q123 0 123 -261t-123 -262q-123 0 -123 262t123 261z" />
    <glyph glyph-name="u1F605.ss01" 
d="M923 172q194 0 341 96t198 273q-240 -135 -540 -138q-299 2 -539 138q51 -177 199 -273t341 -96zM922 43q-307 0 -489 190q-181 190 -183 496q244 -207 672 -211q430 0 671 215q-2 -307 -183 -499t-488 -191zM1577 958q0 -28 20 -50q19 -22 53 -22t54 22t20 51t-30 73
t-43 72q-12 -27 -43 -72q-31 -46 -31 -74zM1800 945q0 -50 -43 -93t-105 -43t-106 43q-43 43 -43 93t31 97q31 46 67 100t44 109h14q8 -55 44 -108q37 -53 67 -101t30 -97zM1126 872h-125q7 188 67 292t152 104t148 -104q57 -104 64 -292h-123q-16 226 -62 258
q-12 10 -28 11q-41 0 -63 -65t-30 -204zM630 1141q-38 0 -52 -32q-30 -66 -43 -237h-125q6 188 66 292t152 104t148 -104q57 -104 64 -292h-123q-18 269 -87 269z" />
    <glyph glyph-name="u1F604.ss01" 
d="M1025 172q193 0 341 96t199 273q-240 -135 -541 -138q-299 2 -539 138q51 -177 199 -273t341 -96zM1024 43q-307 0 -488 190t-184 496q244 -207 672 -211q431 0 672 215q-2 -201 -82 -357t-233 -244q-153 -89 -357 -89zM1321 1141q-41 0 -63 -65t-29 -204h-125
q6 188 66 292t152 104t148 -104q57 -104 64 -292h-123q-12 187 -45 239q-18 30 -45 30zM727 1141q-41 0 -61 -65t-29 -204h-125q6 188 66 292t152 104q90 0 148 -104t64 -292h-123q-12 188 -46 239q-19 30 -46 30z" />
    <glyph glyph-name="u1F606.ss01" 
d="M1025 451q-300 0 -540 135q51 -178 199 -272t341 -95q193 1 341 95t199 272q-240 -135 -540 -135zM1024 88q-307 0 -488 192t-184 496q250 -211 677 -211q428 0 667 213q-2 -306 -184 -498t-488 -192zM1493 1145l-217 -84v-12l217 -105l-51 -143l-332 219v70l332 196z
M936 1090v-70l-330 -219l-51 143l215 105v12l-215 84l51 141z" />
    <glyph glyph-name="u1F60A.ss01" 
d="M1024 154q-238 0 -419 136t-224 343h127q62 -139 202 -227t314 -88t314 88t202 227h127q-43 -207 -224 -343t-419 -136zM1229 872h-123q6 188 65 292t151 104t149 -104q58 -104 65 -292h-125q-13 174 -38 227q-16 40 -52 42q-41 0 -61 -65t-31 -204zM727 1141
q-75 0 -90 -269h-123q6 188 66 292t153 104q57 0 103 -44q99 -94 108 -352h-125q-12 187 -45 239q-18 30 -47 30z" />
    <glyph glyph-name="u1F60E.ss01" 
d="M1032 119q-238 0 -419 136t-224 343h127q62 -139 202 -227t314 -88t314 88q139 88 202 227h127q-29 -135 -120 -245t-229 -172t-294 -62zM1468 727h-137q-113 0 -155 77q-12 22 -25 54l-78 215h-82l-80 -215q-25 -68 -61 -100t-117 -31h-137q-100 0 -149 43
q-48 43 -74 139l-51 164h-179l70 144h1622l70 -144h-162l-51 -164q-29 -96 -77 -139t-147 -43z" />
    <glyph glyph-name="u1F60F.ss01" 
d="M934 145v160q184 0 328 113q143 113 186 287h162q-48 -283 -311 -453q-166 -107 -365 -107zM1427 936h-430v147h430v-147zM868 936h-430v147h430v-147z" />
    <glyph glyph-name="u1F612.ss01" 
d="M1587 412h-1073v147h1073v-147zM1645 1157v-125q0 -262 -122 -262t-122 262h-301v125h545zM948 1157v-125q0 -262 -122 -262t-121 262h-302v125h545z" />
    <glyph glyph-name="uni2639.ss01" 
d="M639 172h-145q0 186 155 317q156 131 375 131t374 -130q155 -132 154 -318h-145q0 117 -111 202t-272 85q-160 0 -272 -84t-113 -203zM1262 1278q122 0 122 -260t-122 -260t-123 260q0 260 123 260zM784 1278q123 0 123 -260t-123 -260t-123 260t123 260z" />
    <glyph glyph-name="u1F609.ss01" 
d="M1024 119q-238 0 -419 136t-224 343h127q62 -139 202 -227t314 -88t314 88t202 227h127q-29 -135 -120 -245t-228 -172t-295 -62zM1483 1112l-187 -100l187 -125l-53 -129l-285 203v104l285 176zM785 1276q122 0 122 -258t-122 -258t-122 258t122 258z" />
    <glyph glyph-name="u1F61F.ss01" 
d="M1022 303q92 0 150 -54t75 -147h-92q-29 92 -132 92t-132 -92h-92q16 92 74 146q57 54 149 55zM1042 594q142 0 271 -53q252 -103 315 -336h-135q-51 104 -169 169q-118 64 -301 64t-301 -64t-169 -169h-135q25 82 75 151q169 238 549 238zM1294 784q-113 0 -112 244v123
l-60 33v159l391 -208v-168l-104 57q-2 -240 -115 -240zM864 1028q0 -244 -112 -244t-115 240l-105 -57v168l394 208v-159l-62 -33v-123z" />
    <glyph glyph-name="faceWithStuckOutTongueAndWinkin" 
d="M1198 453h-348q14 -187 55 -265t119 -78t118 78q40 77 56 265zM1559 453h-226q-14 -242 -95 -360t-215 -118t-215 118t-93 360h-226v135h1070v-135zM1483 1112l-187 -100l187 -123l-53 -131l-285 203v104l285 176zM785 1276q122 0 122 -258t-122 -258t-122 258t122 258z
" />
    <glyph glyph-name="whiteSmilingFace.ss01" 
d="M1024 119q-238 0 -419 136t-224 343h127q62 -139 202 -227t314 -88t314 88t202 227h127q-43 -207 -224 -343t-419 -136zM1264 1225q122 0 122 -261t-122 -262q-123 0 -123 262t123 261zM786 1225q123 0 123 -261t-123 -262q-123 0 -123 262t123 261z" />
    </font>
</defs>
</svg>
