<?xml version="1.0" standalone="no"?>
<!DOCTYPE svg PUBLIC "-//W3C//DTD SVG 1.1//EN" "http://www.w3.org/Graphics/SVG/1.1/DTD/svg11.dtd" >
<svg xmlns="http://www.w3.org/2000/svg">
<metadata>
Created by FontPrep 20130207 at Thu Oct 17 11:56:22 2013
 By Rodrigo Saiani
Copyright (c) 2012 by Rodrigo Saiani. All rights reserved.
</metadata>
<defs>
<font id="b1ce8e6ece60ec6328ff362db499d03d" horiz-adv-x='1024' >
  <font-face 
    font-family="MotivaSans-Black"
    font-weight="900"
    font-stretch="normal"
    units-per-em="2048"
    panose-1="0 0 10 0 0 0 0 0 0 0"
    ascent="1540"
    descent="-508"
    x-height="1073"
    cap-height="1434"
    bbox="-213.1 -1763 2482 2230"
    underline-thickness="102"
    underline-position="-51"
    unicode-range="U+0020-1F633"
  />
<missing-glyph horiz-adv-x="1312" 
d="M381 180h553v1075h-553v-1075zM1118 0h-921v1434h921v-1434z" />
    <glyph glyph-name="f_f" unicode="ff" horiz-adv-x="1538" 
d="M1288 1073h217v-332h-217v-741h-391v741h-344v-741h-391v741h-131v332h131v119q0 168 110 276t322 109q154 0 229 -43l-55 -270q-55 14 -113 14q-102 0 -102 -104v-101h344v119q0 168 110 276t322 109q154 0 230 -43l-56 -270q-55 14 -112 14q-102 0 -103 -104v-101z" />
    <glyph glyph-name="f_f_i" unicode="ffi" horiz-adv-x="2045" 
d="M1970 1073v-1073h-389v741h-307v-741h-391v741h-330v-741h-391v741h-131v332h131v119q0 168 110 276t322 109q154 0 229 -43l-55 -270q-55 14 -113 14q-102 0 -102 -104v-101h330v103q1 192 115 288t323 96t383 -98l-133 -262q-90 61 -174 62q-123 0 -123 -105v-84h696z
" />
    <glyph glyph-name="f_f_l" unicode="ffl" horiz-adv-x="2127" 
d="M874 1073v94q0 166 144 288t399 122q584 0 584 -487v-1090h-397v1092q0 182 -170 182q-76 0 -122 -39t-46 -115v-47h207v-325h-207v-748h-392v741h-321v-741h-391v741h-131v332h131v119q0 168 110 276t322 109q154 0 229 -43l-55 -270q-55 14 -113 14q-102 0 -102 -104
v-101h321z" />
    <glyph glyph-name=".notdef" horiz-adv-x="1312" 
d="M381 180h553v1075h-553v-1075zM1118 0h-921v1434h921v-1434z" />
    <glyph glyph-name=".null" horiz-adv-x="0" 
 />
    <glyph glyph-name="nonmarkingreturn" horiz-adv-x="681" 
 />
    <glyph glyph-name="space" unicode=" " horiz-adv-x="512" 
 />
    <glyph glyph-name="exclam" unicode="!" horiz-adv-x="714" 
d="M358 -43q-92 0 -160 58t-67 174q1 117 67 173t159 56t160 -56t67 -173q0 -116 -67 -174t-159 -58zM524 518h-334l-45 920h424z" />
    <glyph glyph-name="quotedbl" unicode="&#x22;" horiz-adv-x="993" 
d="M807 979h-197l-49 455h299zM377 979h-195l-49 455h295z" />
    <glyph glyph-name="numbersign" unicode="#" horiz-adv-x="1366" 
d="M797 864h-236l-35 -284h238zM1300 580v-222h-337l-43 -358h-226l43 358h-239l-45 -358h-228l45 358h-243v222h272l37 284h-270v226h299l43 344h225l-43 -344h233l41 344h226l-41 -344h292v-226h-319l-33 -284h311z" />
    <glyph glyph-name="dollar" unicode="$" horiz-adv-x="1265" 
d="M666 1112q-145 0 -146 -90q0 -68 120 -97q357 -86 475 -203q89 -87 89 -255q0 -211 -133 -335t-354 -150l8 -232h-283l9 236q-219 27 -379 123l118 340q196 -95 386 -95t190 92q0 43 -54 66q-30 12 -62 20q-258 65 -392 149q-166 105 -166 305q0 202 114 316t306 146
l-6 221h278l-6 -217q122 -14 224 -52t161 -89l-172 -303q-86 66 -214 92q-58 12 -111 12z" />
    <glyph glyph-name="percent" unicode="%" horiz-adv-x="1693" 
d="M1288 561q-108 0 -108 -190t108 -191q63 0 86 44t23 144t-23 147q-23 46 -86 46zM920 370q0 184 101 288t267 104t272 -104t107 -289q0 -185 -104 -287q-103 -102 -273 -102t-270 103t-100 287zM408 1257q-109 0 -109 -190t109 -190q63 0 86 44t22 144q0 100 -22 146
q-23 46 -86 46zM449 0h-211l981 1434h206zM39 1066q0 184 101 288t267 104q167 0 273 -104t106 -288t-104 -288q-104 -102 -273 -102t-270 103q-100 103 -100 287z" />
    <glyph glyph-name="ampersand" unicode="&#x26;" horiz-adv-x="1574" 
d="M549 412q0 -91 117 -88q69 0 151 45l-182 155q-86 -66 -86 -112zM674 1153q-54 0 -72 -49q-6 -16 -6 -35q0 -66 80 -143q78 61 78 144t-80 83zM676 -25q-246 -1 -386 99t-140 286q0 117 60 205t181 172q-80 78 -121 158t-41 184q0 179 118 285q117 106 313 106t318 -100
t122 -250q0 -80 -16 -143q-35 -142 -181 -256l139 -121l142 256l291 -133l-97 -197q-41 -82 -82 -149l203 -178l-207 -232l-192 164q-178 -156 -424 -156z" />
    <glyph glyph-name="quotesingle" unicode="'" horiz-adv-x="417" 
d="M305 979h-196l-50 455h299z" />
    <glyph glyph-name="parenleft" unicode="(" horiz-adv-x="856" 
d="M428 686q0 -141 34 -265q72 -264 333 -487l-187 -161q-104 69 -184 143t-158 184q-164 230 -164 586t164 587q78 110 158 183t184 143l187 -161q-131 -110 -249 -288t-118 -464z" />
    <glyph glyph-name="parenright" unicode=")" horiz-adv-x="856" 
d="M590 1273q164 -231 164 -587t-164 -587q-78 -109 -158 -183t-184 -143l-187 161q131 110 249 288t118 464t-129 481q-106 160 -238 271l187 161q104 -69 184 -143t158 -183z" />
    <glyph glyph-name="asterisk" unicode="*" horiz-adv-x="935" 
d="M551 1305l151 116l107 -196l-162 -62l166 -71l-111 -193l-151 113l27 -189h-224l27 189l-150 -113l-108 197l162 67l-158 78l98 170l156 -106l-27 196h224z" />
    <glyph glyph-name="plus" unicode="+" horiz-adv-x="1386" 
d="M803 807h403v-205h-403v-430h-209v430h-404v205h404v430h209v-430z" />
    <glyph glyph-name="comma" unicode="," horiz-adv-x="550" 
d="M282 371q73 -1 136 -55t63 -183q1 -129 -71 -261t-187 -218l-108 88q117 111 159 258q-74 10 -122 62t-50 136q0 84 54 129q54 44 126 44z" />
    <glyph glyph-name="hyphen" unicode="-" horiz-adv-x="933" 
d="M831 471h-729v315h729v-315z" />
    <glyph glyph-name="period" unicode="." horiz-adv-x="632" 
d="M316 340q75 0 131 -47q57 -47 57 -142t-56 -145t-132 -49q-75 0 -131 50q-56 51 -56 145t56 141t131 47z" />
    <glyph glyph-name="slash" unicode="/" horiz-adv-x="770" 
d="M301 -102h-297l471 1642h289z" />
    <glyph glyph-name="zero" unicode="0" horiz-adv-x="1490" 
d="M746 1108q-257 0 -257 -396t257 -397q257 0 258 408q-1 385 -258 385zM745 1458q293 0 489 -191t196 -551t-195 -556t-490 -195q-295 0 -489 196t-195 555q-1 358 195 550t489 192z" />
    <glyph glyph-name="one" unicode="1" horiz-adv-x="1308" 
d="M1214 373v-373h-1038v373h316v606l-271 -94l-145 295l514 258h317v-1065h307z" />
    <glyph glyph-name="two" unicode="2" horiz-adv-x="1345" 
d="M593 1458q273 0 438 -108t165 -324q0 -137 -72 -253t-223 -236l-221 -175h559v-362h-1096v330l398 332q121 100 165 153t44 121q0 162 -226 162q-151 0 -284 -76l-127 305q207 131 480 131z" />
    <glyph glyph-name="three" unicode="3" horiz-adv-x="1277" 
d="M580 1458q289 0 434 -99t145 -251q0 -236 -233 -334v-8q133 -35 212 -115t79 -198q-1 -231 -173 -361t-428 -129q-356 0 -555 168l162 301q141 -111 350 -110q98 0 153 37q54 38 54 108q0 115 -219 115h-237v295h215q193 0 192 122q0 47 -49 78t-139 31q-168 0 -293 -86
l-164 262q205 174 494 174z" />
    <glyph glyph-name="four" unicode="4" horiz-adv-x="1386" 
d="M737 594v330l-260 -330h260zM1329 594v-315h-192v-279h-416v279h-633v268l705 887h344v-840h192z" />
    <glyph glyph-name="five" unicode="5" horiz-adv-x="1333" 
d="M1178 1065h-611v-197q96 57 244 58q193 0 309 -116t115 -341q0 -225 -167 -365t-466 -141q-299 0 -463 135l129 320q162 -96 332 -96q94 0 153 43q58 43 58 124q0 147 -170 148q-121 0 -215 -94l-252 131v764h1004v-373z" />
    <glyph glyph-name="six" unicode="6" horiz-adv-x="1443" 
d="M735 616q-117 0 -209 -84q10 -98 60 -156t128 -58q77 0 125 39q48 40 48 111q0 72 -42 110t-110 38zM828 1114q-292 0 -328 -283q146 113 344 113t336 -119t137 -339q0 -220 -158 -364q-158 -146 -416 -147q-297 -1 -477 183t-180 550t197 558t507 192t496 -131
l-182 -293q-128 80 -276 80z" />
    <glyph glyph-name="seven" unicode="7" horiz-adv-x="1140" 
d="M12 1065v373h1067v-316l-473 -1122h-436l457 1065h-615z" />
    <glyph glyph-name="eight" unicode="8" horiz-adv-x="1318" 
d="M653 594q-76 0 -125 -39t-49 -99t49 -102t125 -41q76 0 124 41q48 42 48 102t-48 99t-124 39zM651 1106q-63 0 -102 -32t-39 -82t40 -82t101 -32t102 32q40 32 40 82t-39 82q-40 32 -103 32zM78 1044q0 198 162 306t410 108q247 0 409 -110t162 -304q-1 -106 -53 -189
t-140 -114q229 -98 229 -311q1 -213 -167 -340t-434 -127t-431 120q-164 120 -164 318q1 111 63 202t165 145q-84 33 -148 114q-63 82 -63 182z" />
    <glyph glyph-name="nine" unicode="9" horiz-adv-x="1298" 
d="M616 1108q-84 0 -132 -42t-48 -117t44 -118t122 -43t141 36t86 104q-10 82 -70 131t-143 49zM500 315q166 0 256 70t104 227q-125 -158 -342 -157q-177 0 -322 99q-77 52 -124 150t-47 230q0 240 156 382q157 142 409 142q317 0 496 -178t180 -549q0 -201 -62 -353
t-168 -236q-205 -167 -483 -166q-278 0 -434 90l82 315q133 -66 299 -66z" />
    <glyph glyph-name="colon" unicode=":" horiz-adv-x="628" 
d="M315 -43q-91 0 -157 58t-66 172q0 115 66 169t157 54q92 0 157 -54t65 -168q0 -115 -66 -173t-156 -58zM92 873q0 113 66 169t157 56q90 0 156 -56t66 -168q0 -114 -65 -168t-157 -54q-91 0 -157 54t-66 167z" />
    <glyph glyph-name="semicolon" unicode=";" horiz-adv-x="628" 
d="M117 198q0 84 53 129q53 44 126 44q73 -1 136 -55q64 -54 64 -183t-72 -261t-186 -218l-109 88q117 111 160 258q-74 10 -123 62t-49 136zM123 907q0 91 55 141t128 50t129 -48q57 -48 57 -142t-56 -143q-56 -48 -129 -48q-74 0 -129 49t-55 141z" />
    <glyph glyph-name="less" unicode="&#x3c;" horiz-adv-x="1028" 
d="M922 954l-590 -358l614 -393l-139 -187l-766 476v213l762 464z" />
    <glyph glyph-name="equal" unicode="=" horiz-adv-x="1333" 
d="M1157 244h-948v205h948v-205zM1157 633h-948v205h948v-205z" />
    <glyph glyph-name="greater" unicode="&#x3e;" horiz-adv-x="1028" 
d="M987 705v-213l-766 -476l-139 187l614 393l-590 358l119 215z" />
    <glyph glyph-name="question" unicode="?" horiz-adv-x="1060" 
d="M492 406q94 0 152 -58t58 -155t-58 -157t-152 -60t-152 58q-58 60 -59 158q1 98 59 156t152 58zM526 1458q230 0 362 -94t132 -237t-127 -259q-53 -47 -107 -94q-131 -113 -143 -262h-281q0 121 33 213t72 134q106 114 104 173q0 86 -144 86t-259 -67l-139 272
q86 63 220 99t277 36z" />
    <glyph glyph-name="at" unicode="@" horiz-adv-x="1961" 
d="M1004 686q-64 0 -101 -54t-37 -130t26 -111t62 -35q66 0 107 50v4l35 264q-28 12 -92 12zM72 469q0 272 125 477t351 316t523 110q389 0 604 -198t215 -519q0 -257 -132 -419t-382 -162q-166 0 -254 98q-90 -59 -225 -59t-228 93q-93 92 -93 292t128 312q130 112 349 112
q158 0 336 -66l-46 -395q-8 -133 66 -133q84 0 134 84t50 213q0 500 -528 499q-315 0 -505 -175t-191 -478q1 -266 159 -420t422 -153q153 0 303 57l88 -252q-203 -74 -445 -74t-449 117q-233 131 -325 397q-50 145 -50 326z" />
    <glyph glyph-name="A" unicode="A" horiz-adv-x="1593" 
d="M922 532l-140 412l-131 -412h271zM1028 215h-479l-70 -215h-428l541 1434h385l565 -1434h-440z" />
    <glyph glyph-name="B" unicode="B" horiz-adv-x="1404" 
d="M530 342h205q66 0 102 35t35 90q0 106 -131 106h-211v-231zM530 1090v-220h170q129 0 129 115q0 104 -135 105h-164zM113 1434h604q518 0 518 -371q0 -201 -174 -295q99 -35 157 -91q58 -55 76 -115t19 -138q-1 -190 -145 -307t-392 -117h-663v1434z" />
    <glyph glyph-name="C" unicode="C" horiz-adv-x="1388" 
d="M807.5 -37q-181.5 0 -344 87t-267 263t-104.5 412q0 346 210 539.5t542 193.5q141 0 275 -38t214 -101l-186 -326q-117 86 -271.5 86t-250 -94t-95.5 -268t96.5 -274.5t245 -100.5t289.5 113l197 -295q-82 -84 -225.5 -140.5t-325 -56.5z" />
    <glyph glyph-name="D" unicode="D" horiz-adv-x="1497" 
d="M530 1061v-694h103q332 0 332 356q0 182 -85 260t-247 78h-103zM113 1434h497q354 0 574.5 -192.5t220.5 -520.5t-221 -524.5t-574 -196.5h-497v1434z" />
    <glyph glyph-name="E" unicode="E" horiz-adv-x="1255" 
d="M1133 1085h-611v-192h512v-348h-512v-197h611v-348h-1020v1434h1020v-349z" />
    <glyph glyph-name="F" unicode="F" horiz-adv-x="1212" 
d="M1090 1085h-568v-288h494v-348h-494v-449h-409v1434h977v-349z" />
    <glyph glyph-name="G" unicode="G" horiz-adv-x="1519" 
d="M1419 881v-719q-227 -197 -585 -197q-284 0 -502 171q-108 85 -174 230.5t-66 331.5q0 240 109.5 417t279.5 260t375 83q317 0 533 -153l-191 -306q-139 80 -305 80t-263.5 -93t-97.5 -268t89.5 -274.5t214.5 -99.5t194 33v180h-280v324h669z" />
    <glyph glyph-name="H" unicode="H" horiz-adv-x="1581" 
d="M1468 0h-405v535h-541v-535h-409v1434h409v-551h541v551h405v-1434z" />
    <glyph glyph-name="I" unicode="I" horiz-adv-x="684" 
d="M547 0h-410v1434h410v-1434z" />
    <glyph glyph-name="J" unicode="J" horiz-adv-x="1011" 
d="M899 1434v-906q0 -571 -528 -571q-188 0 -322 43l31 334q74 -16 180 -16t163.5 52t57.5 150v914h418z" />
    <glyph glyph-name="K" unicode="K" horiz-adv-x="1525" 
d="M537 0h-424v1434h424v-498l391 498h551l-570 -623l607 -811h-529l-369 496l-81 -90v-406z" />
    <glyph glyph-name="L" unicode="L" horiz-adv-x="1177" 
d="M522 369h635v-369h-1044v1434h409v-1065z" />
    <glyph glyph-name="M" unicode="M" horiz-adv-x="1820" 
d="M1708 1434v-1434h-389v700l-297 -632h-234l-286 616v-684h-389v1434h383l422 -897l403 897h387z" />
    <glyph glyph-name="N" unicode="N" horiz-adv-x="1529" 
d="M1417 0h-344l-551 723v-723h-409v1434h344l542 -738v738h418v-1434z" />
    <glyph glyph-name="O" unicode="O" horiz-adv-x="1675" 
d="M837.5 1079q-141.5 0 -223.5 -90t-82 -270t83 -278.5t222.5 -98.5t222.5 98.5t83 278.5t-82 270t-223.5 90zM837.5 1458q147.5 0 278.5 -44t236.5 -130t168 -229.5t62.5 -329.5t-62.5 -335.5t-168 -241t-237.5 -138.5t-277.5 -47t-277.5 47t-237.5 138.5t-168 241
t-62.5 335.5t62.5 329.5t168 229.5t236.5 130t278.5 44z" />
    <glyph glyph-name="P" unicode="P" horiz-adv-x="1310" 
d="M522 1085v-319h146q82 0 125 45t43 120t-46 115t-126 39h-142zM113 1434h559q290 0 446 -140t156 -366t-158 -368t-446 -142h-148v-418h-409v1434z" />
    <glyph glyph-name="Q" unicode="Q" horiz-adv-x="1675" 
d="M838 1079q-142 0 -224 -90t-82 -270q0 -181 83 -279t223 -98t222 98q83 98 83 278t-82 271q-82 90 -223 90zM92 737q0 173 62 317t168 230q213 174 515 174q301 0 516 -174q105 -86 167 -229t63 -323q0 -180 -56 -324q-105 -269 -364 -379l336 -115l-188 -293l-629 356
q-249 47 -420 235q-170 189 -170 525z" />
    <glyph glyph-name="R" unicode="R" horiz-adv-x="1425" 
d="M522 772h150q213 0 213 168q0 98 -89 129q-46 16 -120 16h-154v-313zM522 424v-424h-409v1434h579q631 0 631 -476q0 -322 -260 -452l321 -506h-454l-252 424h-156z" />
    <glyph glyph-name="S" unicode="S" horiz-adv-x="1265" 
d="M766 446q0 44 -54 66q-30 12 -104 32q-306 81 -426 203q-90 91 -90 252q0 223 155.5 341t409.5 118q154 0 293.5 -42t212.5 -105l-172 -303q-141 104 -325 104q-145 0 -146 -90q0 -48 47.5 -69t133 -44.5t133.5 -38.5q193 -61 281.5 -148t88.5 -255q0 -238 -169 -365
t-454.5 -126.5t-508.5 133.5l118 340q195 -94 385.5 -94.5t190.5 91.5z" />
    <glyph glyph-name="T" unicode="T" horiz-adv-x="1372" 
d="M1292 1085h-399v-1085h-410v1085h-401v349h1210v-349z" />
    <glyph glyph-name="U" unicode="U" horiz-adv-x="1454" 
d="M1341 1434v-912q0 -289 -168.5 -424t-445 -135t-445.5 135t-169 424v912h409v-893q0 -203 205 -203q98 0 151.5 52t53.5 151v893h409z" />
    <glyph glyph-name="V" unicode="V" horiz-adv-x="1523" 
d="M961 0h-402l-543 1434h451l299 -940l293 940h450z" />
    <glyph glyph-name="W" unicode="W" horiz-adv-x="2052" 
d="M1589 0h-276l-283 764l-285 -764h-278l-479 1434h438l219 -758l250 758h287l262 -770l205 770h415z" />
    <glyph glyph-name="X" unicode="X" horiz-adv-x="1472" 
d="M926 752l567 -752h-485l-285 442l-268 -442h-475l520 739l-500 695h483l238 -377l223 377h498z" />
    <glyph glyph-name="Y" unicode="Y" horiz-adv-x="1361" 
d="M885 0h-410v571l-495 863h471l243 -465l250 465h438l-497 -867v-567z" />
    <glyph glyph-name="Z" unicode="Z" horiz-adv-x="1294" 
d="M1241 348v-348h-1188v244l604 841h-575v349h1116v-236l-635 -850h678z" />
    <glyph glyph-name="bracketleft" unicode="[" horiz-adv-x="694" 
d="M653 1327h-252v-1354h252v-266h-551v1884h551v-264z" />
    <glyph glyph-name="backslash" unicode="\" horiz-adv-x="888" 
d="M668 -102h-293l-475 1642h290z" />
    <glyph glyph-name="bracketright" unicode="]" horiz-adv-x="694" 
d="M592 -293h-551v266h250v1354h-250v264h551v-1884z" />
    <glyph glyph-name="asciicircum" unicode="^" horiz-adv-x="1331" 
d="M971 815l-240 342l-237 -342h-408l522 741h244l524 -741h-405z" />
    <glyph glyph-name="underscore" unicode="_" horiz-adv-x="1394" 
d="M1278 -324h-1180v324h1180v-324z" />
    <glyph glyph-name="grave" unicode="`" horiz-adv-x="819" 
d="M676 1210h-207l-326 330h418z" />
    <glyph glyph-name="a" unicode="a" horiz-adv-x="1224" 
d="M545 430q-113 0 -113 -94q0 -51 30 -73.5t70 -22.5q109 0 154 86v84q-53 20 -141 20zM573 1110q250 0 373 -108.5t123 -305.5v-352q0 -72 49 -72h64l-25 -254q-59 -47 -206.5 -47t-205.5 105q-137 -113 -296.5 -113t-266 92t-106.5 258.5t114.5 249t305.5 82.5
q106 0 184 -16v26q0 82 -39 114t-119 32q-170 0 -264 -82l-141 237q86 76 213 115t243 39z" />
    <glyph glyph-name="b" unicode="b" horiz-adv-x="1277" 
d="M627 305q84 0 134 65t50 171t-48 159t-131 53t-140 -51v-352q51 -45 135 -45zM492 999h6q92 111 276 111t308 -146t124 -412t-138 -428q-138 -161 -353 -161q-178 0 -291 139h-12l-60 -102h-250v1540h390v-541z" />
    <glyph glyph-name="c" unicode="c" horiz-adv-x="1091" 
d="M643.5 -37q-248.5 0 -410 156.5t-161.5 422t159.5 417t397 151.5t389.5 -129l-137 -270q-86 68 -191.5 67.5t-167 -62t-61.5 -173t60.5 -179t169 -67.5t198.5 78l155 -252q-152 -160 -400.5 -160z" />
    <glyph glyph-name="d" unicode="d" horiz-adv-x="1280" 
d="M648 756q-181 0 -181 -209q0 -104 50 -164.5t122 -60.5q102 0 149 100v262q-49 72 -140 72zM1178 0h-279l-43 121h-4q-117 -158 -304 -158t-331.5 148.5t-144.5 431.5q0 143 41 255t111 178q141 134 323 134q137 0 241 -80v510h390v-1540z" />
    <glyph glyph-name="e" unicode="e" horiz-adv-x="1165" 
d="M614 817q-66 0 -104.5 -37t-52.5 -123h303q-6 160 -146 160zM629.5 -37q-257.5 0 -407.5 146.5t-150 409.5t148.5 427t390 164t374.5 -145.5t133 -350.5q0 -102 -20 -190h-637q39 -154 211 -154q139 0 252 88l137 -254q-174 -141 -431.5 -141z" />
    <glyph glyph-name="f" unicode="f" horiz-adv-x="802" 
d="M162 1073v119q0 168 110 276t322 109q154 0 229 -43l-55 -270q-55 14 -113 14q-102 0 -102 -104v-101h217v-332h-217v-741h-391v741h-131v332h131z" />
    <glyph glyph-name="g" unicode="g" horiz-adv-x="1271" 
d="M633.5 754q-78.5 0 -122.5 -47.5t-44 -133.5t45 -135t119 -49q108 0 153 86v211q-72 68 -150.5 68zM799 37v92q-102 -88 -248 -88q-215 0 -347 145.5t-132 390t133 389t327.5 144.5t292.5 -141h15l55 108h274v-973q0 -291 -162.5 -427t-447.5 -136q-119 0 -234.5 34
t-189.5 89l125 289q119 -84 303 -84q236 0 236 168z" />
    <glyph glyph-name="h" unicode="h" horiz-adv-x="1277" 
d="M489 1540v-582q127 144 315 144t280 -92t92 -310v-700h-392v643q0 53 -26.5 83t-67.5 30q-111 0 -198 -133v-623h-390v1540h387z" />
    <glyph glyph-name="i" unicode="i" horiz-adv-x="686" 
d="M537 0h-390v1073h390v-1073zM342 1577q92 0 157 -48q65 -49 65 -145t-66 -144q-64 -48 -156 -48t-156 49q-63 49 -63 143t63 144q64 49 156 49z" />
    <glyph glyph-name="j" unicode="j" horiz-adv-x="686" 
d="M537 1073v-1132q0 -164 -120 -282t-307 -118t-300 66l77 289q68 -23 137 -23q68 0 96 24t27 85v1091h390zM342 1577q92 0 157 -48q65 -49 65 -145t-66 -144q-64 -48 -156 -48t-156 49q-63 49 -63 143t63 144q64 49 156 49z" />
    <glyph glyph-name="k" unicode="k" horiz-adv-x="1249" 
d="M492 0h-390v1540h390v-805l249 338h463l-387 -430l438 -643h-448l-238 369l-77 -86v-283z" />
    <glyph glyph-name="l" unicode="l" horiz-adv-x="643" 
d="M516 0h-389v1540h389v-1540z" />
    <glyph glyph-name="m" unicode="m" horiz-adv-x="1890" 
d="M770 1102q224 0 307 -187q111 186 346 187q169 0 267 -98t98 -261v-743h-399v680q0 80 -84 80q-111 0 -158 -125v-635h-402v680q0 80 -81 80q-102 0 -160 -125v-635h-402v1073h306l28 -141h8q102 170 326 170z" />
    <glyph glyph-name="n" unicode="n" horiz-adv-x="1275" 
d="M795 1110q174 0 276.5 -100.5t102.5 -278.5v-731h-390v600q0 135 -100 135q-90 0 -192 -127v-608h-390v1073h260l62 -151h12q143 188 359 188z" />
    <glyph glyph-name="o" unicode="o" horiz-adv-x="1298" 
d="M649 768q-182 0 -182 -231.5t182 -231.5t182 231.5t-182 231.5zM649.5 1110q112.5 0 214 -35t183 -102.5t131 -180t49.5 -256t-49.5 -256t-131 -180t-183 -102.5t-214 -35t-214 35t-183.5 102.5t-131 180t-49 256t49 256t131 180t183.5 102.5t214 35z" />
    <glyph glyph-name="p" unicode="p" horiz-adv-x="1259" 
d="M596 274q96 0 146 69t50 183t-42 171q-43 59 -120 59t-138 -66v-381q39 -35 104 -35zM1188 571q0 -289 -144 -449t-380 -159q-111 0 -172 35v-420h-390v1499h275l63 -121h4q119 142 297 142q179 0 313 -144t134 -383z" />
    <glyph glyph-name="q" unicode="q" horiz-adv-x="1290" 
d="M654 760q-80 0 -130 -58q-49 -58 -49 -168q0 -108 52 -167q51 -59 131 -59t133 44v322q-57 86 -137 86zM791 -422v434q-94 -49 -226 -49q-217 0 -355 161t-138 413q0 143 46 257q80 199 275 281q82 35 164 35q186 0 285 -135h4l55 102h287v-1499h-397z" />
    <glyph glyph-name="r" unicode="r" horiz-adv-x="911" 
d="M720 1110q81 0 159 -41l-70 -356q-68 39 -111 39q-137 0 -200 -217v-535h-396v1073h301l58 -160h6q51 113 111.5 155t141.5 42z" />
    <glyph glyph-name="s" unicode="s" horiz-adv-x="1017" 
d="M437.5 291q146.5 0 146.5 55q0 27 -29 40q-29 12 -99 26q-368 70 -368 344q0 164 122 259t349.5 95t382.5 -111l-104 -258q-129 74 -281 74q-94 0 -94 -51q0 -22 14.5 -30.5t24.5 -13.5t31.5 -11.5t39 -10.5t49 -12t56.5 -14q152 -41 222.5 -115t70.5 -203
q0 -193 -136.5 -292t-345.5 -99q-127 0 -236 33t-175 80l82 289q131 -74 277.5 -74z" />
    <glyph glyph-name="t" unicode="t" horiz-adv-x="962" 
d="M590 1073h260v-332h-260v-350q0 -80 78 -80q63 0 135 23l90 -271q-150 -100 -337 -100t-273 81t-86 261v436h-146v332h146v94l161 189h232v-283z" />
    <glyph glyph-name="u" unicode="u" horiz-adv-x="1259" 
d="M1157 1073v-1073h-258l-61 133q-117 -158 -323 -158t-309.5 102.5t-103.5 274.5v721h385v-629q0 -68 30 -94t85 -26q115 0 168 133v616h387z" />
    <glyph glyph-name="v" unicode="v" horiz-adv-x="1228" 
d="M1229 1073l-451 -1073h-340l-438 1077h422l188 -643l183 639h436z" />
    <glyph glyph-name="w" unicode="w" horiz-adv-x="1634" 
d="M1634 1073l-397 -1073h-236l-190 539l-211 -539h-235l-365 1073h375l147 -559l185 559h239l176 -555l135 555h377z" />
    <glyph glyph-name="x" unicode="x" horiz-adv-x="1107" 
d="M1120 0h-430l-141 270l-123 -270h-451v16l373 529l-381 510v18h461l123 -266l133 266h426v-16l-336 -510l346 -531v-16z" />
    <glyph glyph-name="y" unicode="y" horiz-adv-x="1296" 
d="M396 -446q-171 0 -335 49l68 288q98 -31 187 -30.5t126 80.5l11 22l-428 1114h405l211 -671l190 671h424l-399 -1149q-70 -199 -179.5 -286.5t-280.5 -87.5z" />
    <glyph glyph-name="z" unicode="z" horiz-adv-x="1046" 
d="M987 328v-328h-909v250l391 500h-383v323h872v-258l-411 -487h440z" />
    <glyph glyph-name="braceleft" unicode="{" horiz-adv-x="831" 
d="M793 1675v-221q-205 -10 -205 -180v-367q0 -70 -46 -122t-108 -72v-2q58 -19 106 -73t48 -122v-369q0 -170 205 -180v-221q-229 0 -357 97q-127 97 -127 274v293q0 178 -190 184v233q190 10 190 187v291q0 174 128 272q129 98 356 98z" />
    <glyph glyph-name="bar" unicode="|" horiz-adv-x="479" 
d="M352 -238h-225v1917h225v-1917z" />
    <glyph glyph-name="braceright" unicode="}" horiz-adv-x="821" 
d="M29 1675q227 0 355 -98t128 -272v-291q0 -176 190 -187v-233q-190 -6 -190 -184v-293q0 -175 -127 -273t-356 -98v221q205 10 204 180v369q-1 68 47 121t107 74v2q-61 20 -107 72t-47 122v367q1 170 -204 180v221z" />
    <glyph glyph-name="asciitilde" unicode="~" horiz-adv-x="1216" 
d="M776 418q-52 0 -158 34t-149 33q-63 0 -98 -71h-283q27 201 121 293t229 92q62 0 158 -33t138 -33q42 -1 80 23q36 24 44 51h309q-31 -203 -143 -296t-248 -93z" />
    <glyph glyph-name="exclamdown" unicode="&#xa1;" horiz-adv-x="714" 
d="M582 -360h-422l43 921h336zM358 1122q94 0 160 -57t66 -172t-67 -173t-159 -58t-160 58t-67 173t67 172t160 57z" />
    <glyph glyph-name="cent" unicode="&#xa2;" horiz-adv-x="1122" 
d="M72 730q0 238 129 384q129 147 336 178l-17 207h215l-14 -207q178 -20 297 -123l-137 -270q-85 68 -191 68q-106 1 -168 -61t-61 -174q0 -112 60 -180t169 -67q109 0 199 78l155 -252q-121 -127 -311 -153l17 -187h-215l14 187q-211 30 -344 182t-133 390z" />
    <glyph glyph-name="sterling" unicode="&#xa3;" horiz-adv-x="1189" 
d="M719 -37q-76 0 -192 14q-116 15 -215 15t-208 -27l-86 238q20 15 39 34l33 33q14 14 18 22t15 26q12 20 12 88v202h-115v185h115v200q0 233 137 353t383 120t420 -96l-178 -305q-85 53 -189 53t-145 -40t-41 -144v-141h322v-185h-322v-104l2 -79q0 -80 -71 -126
q47 10 114 10l203 -14q72 0 174 20l62 -307q-111 -45 -287 -45z" />
    <glyph glyph-name="currency" unicode="&#xa4;" horiz-adv-x="1503" 
d="M734 510q221 0 218 219q0 103 -52 161t-134 58t-128 -26q-93 -52 -91 -193q0 -104 52 -162q53 -57 135 -57zM1327 736q0 -184 -82 -316l187 -187l-152 -151l-184 184q-147 -98 -345 -98t-345 96l-183 -182l-151 151l182 183q-82 134 -82 322t96 325l-192 190l151 150
l197 -197q144 84 328 84t329 -88l199 199l152 -152l-195 -194q90 -135 90 -319z" />
    <glyph glyph-name="yen" unicode="&#xa5;" horiz-adv-x="1251" 
d="M1188 817v-184h-357l-2 -4v-125h359v-182h-359v-322h-409v322h-363v182h363v129h-363v184h248l-381 617h461l254 -525l250 525h438l-381 -617h242z" />
    <glyph glyph-name="brokenbar" unicode="&#xa6;" horiz-adv-x="450" 
d="M338 -240h-225v799h225v-799zM338 946h-225v731h225v-731z" />
    <glyph glyph-name="section" unicode="&#xa7;" horiz-adv-x="1134" 
d="M612 831q-59 -1 -95 -31t-36 -81q0 -113 131 -113t131 113q0 51 -35 82q-37 30 -96 30zM550 266q77 0 114 12t36 50q0 47 -110 71q-39 8 -174 41q-121 38 -179 102t-59 171q0 152 125 225q-125 78 -125 226t115 227t327 79t373 -71l-96 -269q-129 44 -253 44t-124 -62
q0 -33 47 -52t110 -33l72 -16q9 -1 15 -3q141 -33 214 -98t73 -177q0 -147 -140 -225q72 -31 114 -92t42 -131q0 -139 -124 -227t-327 -89q-283 1 -469 107l99 266q49 -32 138 -54t166 -22z" />
    <glyph glyph-name="dieresis" unicode="&#xa8;" horiz-adv-x="819" 
d="M630 1540q69 0 111.5 -40t42.5 -123t-44 -124t-111.5 -41t-113.5 41t-46 124t46 123t115 40zM196 1540q69 0 112.5 -40t43.5 -124t-45 -124t-111.5 -40t-113.5 40t-47 124t46 124t115 40z" />
    <glyph glyph-name="copyright" unicode="&#xa9;" horiz-adv-x="1644" 
d="M823 326q-163 0 -273 108t-110 289t112 283t268 102t274 -76l-72 -155q-82 53 -176 53t-150 -52t-57 -148q0 -96 55 -152q56 -58 152 -58t162 53l90 -161q-111 -86 -275 -86zM824 1270q-248 0 -402 -155t-154 -405t153 -403q153 -151 401 -151t402 152q152 152 152 406
q0 256 -152 406t-400 150zM72 715q0 339 218 543t532 204t532 -206t219 -542q0 -336 -218 -543q-219 -206 -533 -206t-532 206t-218 544z" />
    <glyph glyph-name="ordfeminine" unicode="&#xaa;" horiz-adv-x="788" 
d="M342 995q-78 0 -78 -55q0 -25 20 -40t52 -15q65 0 92 51v49q-47 10 -86 10zM365 1448q326 0 325 -229v-222q0 -55 53 -55h35l-12 -217q-68 -20 -123 -20q-141 0 -180 86q-77 -84 -189 -84t-178 62q-66 63 -66 161t68 159q68 60 167 60t163 -14v32q4 58 -105 59
q-108 1 -176 -44l-88 174q121 92 306 92z" />
    <glyph glyph-name="guillemotleft" unicode="&#xab;" horiz-adv-x="1189" 
d="M1108 782l-234 -264l234 -266l-182 -174l-367 438l361 442zM590 782l-234 -264l234 -266l-182 -174l-367 438l356 442z" />
    <glyph glyph-name="logicalnot" unicode="&#xac;" horiz-adv-x="1300" 
d="M1184 242h-185v420h-866v204h1051v-624z" />
    <glyph glyph-name="registered" unicode="&#xae;" horiz-adv-x="1644" 
d="M733 932v-162h105q86 0 86 84q0 78 -95 78h-96zM557 1100h291q125 0 198 -65t72 -167q0 -150 -129 -200l172 -312h-198l-132 262h-102v-262h-172v744zM824 1270q-248 0 -402 -155t-154 -405t153 -403q153 -151 401 -151t402 152q152 152 152 406q0 256 -152 406t-400 150
zM72 715q0 339 218 543t532 204t532 -206t219 -542q0 -336 -218 -543q-219 -206 -533 -206t-532 206t-218 544z" />
    <glyph glyph-name="macron" unicode="&#xaf;" horiz-adv-x="819" 
d="M715 1257h-611v177h611v-177z" />
    <glyph glyph-name="degree" unicode="&#xb0;" horiz-adv-x="878" 
d="M565 1066q0 64 -35 98q-35 36 -93 36t-91 -36t-33 -100t34 -100t91 -36t92 37t35 101zM438 1432q156 0 270 -96t114 -272q0 -177 -114 -273q-114 -97 -270 -97t-268 96t-113 274q1 176 113 272t268 96z" />
    <glyph glyph-name="plusminus" unicode="&#xb1;" horiz-adv-x="1173" 
d="M1106 0h-1016v205h1016v-205zM702 1004h404v-205h-404v-430h-208v430h-404v205h404v430h208v-430z" />
    <glyph glyph-name="acute" unicode="&#xb4;" horiz-adv-x="819" 
d="M350 1210h-207l115 330h418z" />
    <glyph glyph-name="paragraph" unicode="&#xb6;" horiz-adv-x="1073" 
d="M961 0h-205v1214h-125v-1214h-205v700q-152 37 -243 128t-91 241q0 365 426 365h443v-1434z" />
    <glyph glyph-name="periodcentered" unicode="&#xb7;" horiz-adv-x="495" 
d="M248 823q90 0 154 -58q64 -59 65 -163t-63 -162t-155 -59q-91 0 -156 58q-65 57 -65 161t65 164q65 59 155 59z" />
    <glyph glyph-name="cedilla" unicode="&#xb8;" horiz-adv-x="819" 
d="M614 -262q0 -109 -85 -178.5t-216 -79.5l-65 149q145 29 145 95q0 35 -31 34q-18 0 -38 -14l-119 104l69 152h172l-51 -109q106 16 162.5 -29.5t56.5 -123.5z" />
    <glyph glyph-name="ordmasculine" unicode="&#xba;" horiz-adv-x="825" 
d="M414 1202q-106 0 -106 -127t106 -127q42 0 72 31t30 95t-30 96t-72 32zM409 1448q159 0 273 -96t113 -276q0 -180 -114 -277q-115 -97 -273 -97t-268 96t-109 277q0 182 109 278q110 95 269 95z" />
    <glyph glyph-name="guillemotright" unicode="&#xbb;" horiz-adv-x="1191" 
d="M1151 516l-369 -438l-180 174l232 266l-232 264l191 176zM631 516l-369 -438l-180 174l231 266l-231 264l188 176z" />
    <glyph glyph-name="onequarter" unicode="&#xbc;" horiz-adv-x="2312" 
d="M1862 332v205l-140 -205h140zM2116 332h133v-203h-133v-147h-250v147h-379v190l387 510h242v-497zM594 819h182v-215h-631v215h183v371l-144 -37l-65 188l284 111h191v-633zM1550 1606l-630 -1909h-205l633 1909h202z" />
    <glyph glyph-name="onehalf" unicode="&#xbd;" horiz-adv-x="2312" 
d="M1848 848q176 0 265 -70t89 -190q0 -147 -181 -269l-151 -102h346v-235h-666v219l236 174q113 84 112 143q0 82 -96 82t-192 -53l-97 203q159 98 335 98zM594 819h182v-215h-631v215h183v371l-144 -37l-65 188l284 111h191v-633zM1550 1606l-630 -1909h-205l633 1909h202
z" />
    <glyph glyph-name="threequarters" unicode="&#xbe;" horiz-adv-x="2312" 
d="M1862 332v205l-140 -205h140zM2249 332v-203h-133v-147h-250v147h-379v190l387 510h242v-497h133zM770 858q0 -125 -108 -200q-108 -74 -288 -74q-182 0 -298 78l49 196q135 -41 218 -41t115 14t31 54q0 61 -108 61h-156v178h140q90 0 90 68q1 68 -97 68t-204 -54
l-93 174q136 90 322 93q238 0 322 -105q39 -49 38 -117q0 -131 -125 -196q152 -49 152 -197zM1550 1606l-630 -1909h-205l633 1909h202z" />
    <glyph glyph-name="questiondown" unicode="&#xbf;" horiz-adv-x="1077" 
d="M563 -385q-231 0 -362 94t-131 239t127 257q53 47 107 94q131 114 142 262h281q0 -121 -33 -213q-34 -92 -72 -134q-104 -114 -104 -173q0 -86 144 -86t260 68l139 -273q-86 -63 -220 -99t-278 -36zM598 668q-94 0 -153 57q-58 57 -58 155t58 158q59 60 153 60t152 -60
t59 -157q0 -98 -58 -156q-59 -57 -153 -57z" />
    <glyph glyph-name="Agrave" unicode="&#xc0;" horiz-adv-x="1593" 
d="M922 532l-140 412l-131 -412h271zM1028 215h-479l-70 -215h-428l541 1434h385l565 -1434h-440zM672 1571l-326 330h418l115 -330h-207z" />
    <glyph glyph-name="Aacute" unicode="&#xc1;" horiz-adv-x="1593" 
d="M922 532l-140 412l-131 -412h271zM1028 215h-479l-70 -215h-428l541 1434h385l565 -1434h-440zM887 1571h-207l115 330h417z" />
    <glyph glyph-name="Acircumflex" unicode="&#xc2;" horiz-adv-x="1593" 
d="M922 532l-140 412l-131 -412h271zM1028 215h-479l-70 -215h-428l541 1434h385l565 -1434h-440zM700 1583h-282l250 318h225l240 -318h-271l-82 115z" />
    <glyph glyph-name="Atilde" unicode="&#xc3;" horiz-adv-x="1593" 
d="M922 532l-140 412l-131 -412h271zM1028 215h-479l-70 -215h-428l541 1434h385l565 -1434h-440zM948 1593q-74 0 -154 40q-81 40 -114 40q-70 0 -100 -100l-187 102q25 115 92 170q125 102 288 14q79 -42 99 -42q58 0 99 106l205 -82q-30 -115 -92 -181t-136 -67z" />
    <glyph glyph-name="Adieresis" unicode="&#xc4;" horiz-adv-x="1593" 
d="M922 532l-140 412l-131 -412h271zM1028 215h-479l-70 -215h-428l541 1434h385l565 -1434h-440zM999 1573q-67 0 -113 41t-46 124t46 123t114 40t112 -40q43 -40 43 -123t-44 -124t-112 -41zM723 1737q1 -84 -45 -124t-112 -40t-114 40q-46 40 -46 124t46 124t114 40
t113 -40q44 -40 44 -124z" />
    <glyph glyph-name="Aring" unicode="&#xc5;" horiz-adv-x="1593" 
d="M922 532l-140 412l-131 -412h271zM1028 215h-479l-70 -215h-428l541 1434h385l565 -1434h-440zM784 1802q-37 0 -55 -22t-18 -50q0 -30 18 -52t54 -22t56 23q19 23 19 52t-18 50q-19 21 -56 21zM784 1544q-92 0 -144 54t-52 132t52 132q52 53 144 53t144 -53t53 -131
q0 -78 -52 -133q-53 -54 -145 -54z" />
    <glyph glyph-name="AE" unicode="&#xc6;" horiz-adv-x="2072" 
d="M995 545v442l-215 -442h215zM1405 1067v-172h457v-363h-457v-190h545v-342h-955v203h-381l-98 -203h-465l760 1434h1139v-367h-545z" />
    <glyph glyph-name="Ccedilla" unicode="&#xc7;" horiz-adv-x="1388" 
d="M811 -276q0 34 -31 34q-18 0 -39 -14l-118 104l59 127q-249 47 -415 237q-81 93 -128 225t-47 288q0 346 210 540t542 193q141 0 275 -38t214 -101l-186 -326q-117 86 -271 86t-250 -94t-96 -268q0 -175 96 -275t246 -100q148 0 289 113l197 -295q-80 -80 -214 -135
t-296 -62l-35 -72q106 16 163 -29q56 -46 56 -121t-41 -132q-81 -112 -260 -129l-65 149q145 27 145 95z" />
    <glyph glyph-name="Egrave" unicode="&#xc8;" horiz-adv-x="1255" 
d="M1133 1085h-611v-192h512v-348h-512v-197h611v-348h-1020v1434h1020v-349zM705 1571h-207l-326 330h418z" />
    <glyph glyph-name="Eacute" unicode="&#xc9;" horiz-adv-x="1255" 
d="M1133 1085h-611v-192h512v-348h-512v-197h611v-348h-1020v1434h1020v-349zM713 1571h-207l115 330h417z" />
    <glyph glyph-name="Ecircumflex" unicode="&#xca;" horiz-adv-x="1255" 
d="M522 1085v-192h512v-348h-512v-197h611v-348h-1020v1434h1020v-349h-611zM526 1583h-282l250 318h225l239 -318h-270l-82 115z" />
    <glyph glyph-name="Edieresis" unicode="&#xcb;" horiz-adv-x="1255" 
d="M1133 1085h-611v-192h512v-348h-512v-197h611v-348h-1020v1434h1020v-349zM825 1573q-67 0 -113 41t-46 124t46 123t114 40q69 0 112 -40t43 -123t-44 -124t-112 -41zM392 1573q-68 0 -114 40t-46 124t45 124q46 40 115 40t113 -40t44 -124t-45 -124t-112 -40z" />
    <glyph glyph-name="Igrave" unicode="&#xcc;" horiz-adv-x="684" 
d="M547 0h-410v1434h410v-1434zM436 1571h-207l-325 330h418z" />
    <glyph glyph-name="Iacute" unicode="&#xcd;" horiz-adv-x="684" 
d="M547 0h-410v1434h410v-1434zM444 1571h-206l114 330h418z" />
    <glyph glyph-name="Icircumflex" unicode="&#xce;" horiz-adv-x="684" 
d="M137 1434h410v-1434h-410v1434zM258 1583h-283l250 318h226l239 -318h-270l-82 115z" />
    <glyph glyph-name="Idieresis" unicode="&#xcf;" horiz-adv-x="684" 
d="M547 0h-410v1434h410v-1434zM558 1901q69 0 112 -40t43 -123t-44 -124t-112 -41t-114 41t-46 124t46 123t115 40zM124 1901q69 0 113 -40t44 -124t-45 -124t-112 -40t-114 40t-47 124t46 124t115 40z" />
    <glyph glyph-name="Eth" unicode="&#xd0;" horiz-adv-x="1667" 
d="M700 367h103q332 0 332 356q0 182 -85 260t-247 78h-103v-213h222v-266h-222v-215zM283 1434h497q354 0 574 -193t221 -521q0 -328 -221 -524t-574 -196h-497v582h-170v266h170v586z" />
    <glyph glyph-name="Ntilde" unicode="&#xd1;" horiz-adv-x="1529" 
d="M1417 0h-344l-551 723v-723h-409v1434h344l542 -738v738h418v-1434zM932 1620q-74 0 -154 40q-82 40 -114 40q-70 0 -101 -101l-186 103q25 115 92 170q69 55 139 55t149 -42t99 -42q57 1 98 107l205 -82q-29 -116 -91 -182t-136 -66z" />
    <glyph glyph-name="Ograve" unicode="&#xd2;" horiz-adv-x="1675" 
d="M838 1079q-142 0 -224 -90t-82 -270q0 -181 83 -279t223 -98t222 98q83 98 83 278t-82 271q-82 90 -223 90zM838 1458q301 0 515 -174q105 -86 167 -229t63 -329q0 -186 -62 -337q-114 -276 -406 -379q-132 -47 -277 -47q-146 0 -278 47q-289 103 -405 379
q-63 150 -63 336q0 185 62 329q114 262 405 360q132 44 279 44zM932 1571h-207l-326 330h418z" />
    <glyph glyph-name="Oacute" unicode="&#xd3;" horiz-adv-x="1675" 
d="M838 1079q-142 0 -224 -90t-82 -270q0 -181 83 -279t223 -98t222 98q83 98 83 278t-82 271q-82 90 -223 90zM838 1458q301 0 515 -174q105 -86 167 -229t63 -329q0 -186 -62 -337q-114 -276 -406 -379q-132 -47 -277 -47q-146 0 -278 47q-289 103 -405 379
q-63 150 -63 336q0 185 62 329q114 262 405 360q132 44 279 44zM940 1571h-207l115 330h418z" />
    <glyph glyph-name="Ocircumflex" unicode="&#xd4;" horiz-adv-x="1675" 
d="M838 342q139 0 222 98t83 278t-82 271q-82 90 -223 90q-142 0 -224 -90t-82 -270t83 -279q84 -98 223 -98zM838 1458q301 0 515 -174q105 -86 167 -229t63 -329q0 -186 -62 -337q-114 -276 -406 -379q-132 -47 -277 -47q-146 0 -278 47q-289 103 -405 379
q-63 150 -63 336q0 185 62 329q114 262 405 360q132 44 279 44zM754 1583h-283l250 318h225l240 -318h-271l-81 115z" />
    <glyph glyph-name="Otilde" unicode="&#xd5;" horiz-adv-x="1675" 
d="M838 1079q-142 0 -224 -90t-82 -270q0 -181 83 -279t223 -98t222 98q83 98 83 278t-82 271q-82 90 -223 90zM838 1458q301 0 515 -174q105 -86 167 -229t63 -329q0 -186 -62 -337q-114 -276 -406 -379q-132 -47 -277 -47q-146 0 -278 47q-289 103 -405 379
q-63 150 -63 336q0 185 62 329q114 262 405 360q132 44 279 44zM1002 1593q-74 0 -155 40t-114 40q-70 0 -100 -100l-187 102q25 115 93 170q125 101 287 14q79 -42 100 -42q57 0 98 106l205 -82q-29 -115 -91 -181t-136 -67z" />
    <glyph glyph-name="Odieresis" unicode="&#xd6;" horiz-adv-x="1675" 
d="M838 1079q-142 0 -224 -90t-82 -270q0 -181 83 -279t223 -98t222 98q83 98 83 278t-82 271q-82 90 -223 90zM838 1458q301 0 515 -174q105 -86 167 -229t63 -329q0 -186 -62 -337q-114 -276 -406 -379q-132 -47 -277 -47q-146 0 -278 47q-289 103 -405 379
q-63 150 -63 336q0 185 62 329q114 262 405 360q132 44 279 44zM1054 1901q70 0 112 -40t42 -123t-44 -124t-112 -41t-113 41q-46 41 -46 124t46 123t115 40zM620 1901q68 0 112 -40t44 -124t-45 -124t-111 -40t-114 40q-47 40 -47 124t46 124t115 40z" />
    <glyph glyph-name="multiply" unicode="&#xd7;" horiz-adv-x="1183" 
d="M1139 180l-176 -172l-371 363l-371 -361l-176 170l371 361l-371 360l176 174l371 -362l373 362l174 -172l-371 -360z" />
    <glyph glyph-name="Oslash" unicode="&#xd8;" horiz-adv-x="1675" 
d="M859.5 342q70.5 0 138 42t106.5 129t38.5 221t-57.5 224l-337 -604q41 -12 111.5 -12zM838 1079q-141 0 -223.5 -90t-82.5 -268q0 -125 41 -215l322 569q-27 4 -57 4zM1583 727q0 -188 -62.5 -337.5t-168.5 -241.5q-214 -185 -514 -185q-150 0 -283 49l-152 -270
l-192 123l145 256q-264 209 -264 606q0 183 62 327t168 230q213 174 516 174q133 0 254 -35l137 242l196 -100l-133 -236q291 -197 291 -602z" />
    <glyph glyph-name="Ugrave" unicode="&#xd9;" horiz-adv-x="1454" 
d="M1341 1434v-912q0 -289 -169 -424t-445 -135t-445 135t-169 424v912h409v-893q0 -203 205 -203q98 0 152 52q53 52 53 151v893h409zM813 1571h-207l-325 330h417z" />
    <glyph glyph-name="Uacute" unicode="&#xda;" horiz-adv-x="1454" 
d="M1341 1434v-912q0 -289 -169 -424t-445 -135t-445 135t-169 424v912h409v-893q0 -203 205 -203q98 0 152 52q53 52 53 151v893h409zM821 1571h-207l115 330h418z" />
    <glyph glyph-name="Ucircumflex" unicode="&#xdb;" horiz-adv-x="1454" 
d="M1341 1434v-912q0 -289 -169 -424t-445 -135t-445 135t-169 424v912h409v-893q0 -203 205 -203q98 0 152 52q53 52 53 151v893h409zM635 1583h-283l250 318h225l240 -318h-270l-82 115z" />
    <glyph glyph-name="Udieresis" unicode="&#xdc;" horiz-adv-x="1454" 
d="M1341 1434v-912q0 -289 -169 -424t-445 -135t-445 135t-169 424v912h409v-893q0 -203 205 -203q98 0 152 52q53 52 53 151v893h409zM935 1901q69 0 112 -40t43 -123t-44 -124t-112 -41t-114 41t-46 124t46 123t115 40zM501 1901q69 0 113 -40t43 -124q0 -84 -45 -124
q-46 -40 -112 -40t-113 40t-47 124t46 124t115 40z" />
    <glyph glyph-name="Yacute" unicode="&#xdd;" horiz-adv-x="1361" 
d="M885 0h-410v571l-495 863h471l243 -465l250 465h438l-497 -867v-567zM815 1571h-207l115 330h418z" />
    <glyph glyph-name="Thorn" unicode="&#xde;" horiz-adv-x="1251" 
d="M530 868v-258h121q41 0 83 33t42 94t-36 97t-89 34h-121zM530 1233h170q254 0 384 -143q130 -142 130 -352t-135 -343t-381 -133h-168v-262h-417v1434h417v-201z" />
    <glyph glyph-name="germandbls" unicode="&#xdf;" horiz-adv-x="1417" 
d="M102 0v1112q0 455 531 455q269 0 415 -108t146 -314q0 -82 -28 -148q-28 -67 -62 -97q-90 -82 -89 -102t35 -40t82 -46t97 -61t83 -101t34 -153q0 -209 -132 -315t-368 -107q-162 0 -258 35l53 277q100 -15 162 -15q63 0 105 37t42 90q0 94 -108 147q-45 22 -91 46
q-110 56 -110 178q0 53 25 96t54 67q79 63 79 140q0 150 -152 150q-141 0 -141 -162v-1061h-404z" />
    <glyph glyph-name="agrave" unicode="&#xe0;" horiz-adv-x="1224" 
d="M545 430q-113 0 -113 -94q0 -51 30 -74t70 -22q109 0 154 86v84q-53 20 -141 20zM573 1110q250 0 373 -109t123 -305v-352q0 -72 49 -72h64l-25 -254q-59 -47 -207 -47t-205 105q-137 -113 -297 -113t-266 92q-106 93 -106 259t114 248t306 83q106 0 184 -16v26
q0 82 -39 114t-119 32q-170 0 -264 -82l-141 237q86 76 213 115t243 39zM575 1559l115 -330h-207l-325 330h417z" />
    <glyph glyph-name="aacute" unicode="&#xe1;" horiz-adv-x="1224" 
d="M545 430q-113 0 -113 -94q0 -51 30 -74t70 -22q109 0 154 86v84q-53 20 -141 20zM573 1110q250 0 373 -109t123 -305v-352q0 -72 49 -72h64l-25 -254q-59 -47 -207 -47t-205 105q-137 -113 -297 -113t-266 92q-106 93 -106 259t114 248t306 83q106 0 184 -16v26
q0 82 -39 114t-119 32q-170 0 -264 -82l-141 237q86 76 213 115t243 39zM1024 1559l-326 -330h-206l114 330h418z" />
    <glyph glyph-name="acircumflex" unicode="&#xe2;" horiz-adv-x="1224" 
d="M545 430q-113 0 -113 -94q0 -51 30 -74t70 -22q109 0 154 86v84q-53 20 -141 20zM1069 696v-352q0 -72 49 -72h64l-25 -254q-59 -47 -207 -47t-205 105q-137 -113 -297 -113t-266 92q-106 93 -106 259t114 248t306 83q106 0 184 -16v26q0 82 -39 114t-119 32
q-170 0 -264 -82l-141 237q86 76 213 115t243 39q250 0 373 -108t123 -306zM592 1356l-80 -115h-283l250 318h226l239 -318h-270z" />
    <glyph glyph-name="atilde" unicode="&#xe3;" horiz-adv-x="1224" 
d="M545 430q-113 0 -113 -94q0 -51 30 -74t70 -22q109 0 154 86v84q-53 20 -141 20zM573 1110q250 0 373 -109t123 -305v-352q0 -72 49 -72h64l-25 -254q-59 -47 -207 -47t-205 105q-137 -113 -297 -113t-266 92q-106 93 -106 259t114 248t306 83q106 0 184 -16v26
q0 82 -39 114t-119 32q-170 0 -264 -82l-141 237q86 76 213 115t243 39zM760 1251q-74 0 -154 40q-82 40 -114 40q-70 0 -101 -100l-186 102q25 115 92 170q125 101 288 14q79 -42 99 -42q57 0 98 106l205 -82q-29 -115 -91 -181t-136 -67z" />
    <glyph glyph-name="adieresis" unicode="&#xe4;" horiz-adv-x="1224" 
d="M545 430q-113 0 -113 -94q0 -51 30 -74t70 -22q109 0 154 86v84q-53 20 -141 20zM573 1110q250 0 373 -109t123 -305v-352q0 -72 49 -72h64l-25 -254q-59 -47 -207 -47t-205 105q-137 -113 -297 -113t-266 92q-106 93 -106 259t114 248t306 83q106 0 184 -16v26
q0 82 -39 114t-119 32q-170 0 -264 -82l-141 237q86 76 213 115t243 39zM812 1559q69 0 112 -40t43 -123t-44 -124t-112 -41t-114 41t-46 124t46 123t115 40zM378 1559q68 0 112 -40t44 -124t-44 -124q-46 -40 -112 -40t-114 40q-47 40 -47 124t46 124t115 40z" />
    <glyph glyph-name="aring" unicode="&#xe5;" horiz-adv-x="1224" 
d="M545 430q-113 0 -113 -94q0 -51 30 -74t70 -22q109 0 154 86v84q-53 20 -141 20zM573 1110q250 0 373 -109t123 -305v-352q0 -72 49 -72h64l-25 -254q-59 -47 -207 -47t-205 105q-137 -113 -297 -113t-266 92q-106 93 -106 259t114 248t306 83q106 0 184 -16v26
q0 82 -39 114t-119 32q-170 0 -264 -82l-141 237q86 76 213 115t243 39zM596 1460q-37 0 -55 -22q-19 -22 -19 -50q0 -30 18 -52t55 -22q36 0 55 24q19 22 20 51q0 29 -18 50t-56 21zM596 1573q92 0 144 -53t52 -131q0 -79 -52 -133t-144 -54t-144 54t-52 132t52 132
q52 53 144 53z" />
    <glyph glyph-name="ae" unicode="&#xe6;" horiz-adv-x="1808" 
d="M557 422q-119 0 -119 -80t103.5 -79.5t154.5 63.5v84q-74 12 -139 12zM1251 805q-128 0 -159 -154h311q-12 88 -48 121t-104 33zM1305 1098q139 0 244.5 -65.5t158.5 -170t53 -223.5t-20 -219h-643q23 -76 77 -106.5t176 -30.5t224 59l131 -213q-61 -82 -181 -118
t-238 -36t-221 45.5t-173 131.5q-170 -176 -438 -177q-162 0 -270.5 90.5t-108.5 252.5t116.5 244.5t309.5 82.5q111 0 188 -16v49q0 111 -163 111t-267 -70l-141 237q184 141 448 142q123 0 211 -37t144 -127q133 164 383 164z" />
    <glyph glyph-name="ccedilla" unicode="&#xe7;" horiz-adv-x="1091" 
d="M631 -276q0 34 -31 34q-18 0 -39 -14l-119 104l60 129q-193 43 -312 191t-118 375q0 263 160 415t396 152q238 0 390 -129l-137 -270q-85 67 -191 67t-168 -61t-61 -173q0 -112 60 -180t169 -67q109 0 199 78l155 -252q-143 -150 -376 -160l-35 -72q106 16 163 -29
q56 -46 56 -124q0 -108 -85 -178t-216 -80l-66 149q146 27 146 95z" />
    <glyph glyph-name="egrave" unicode="&#xe8;" horiz-adv-x="1165" 
d="M614 817q-66 0 -104 -37t-53 -123h303q-6 160 -146 160zM630 -37q-258 1 -408 147t-150 409t148 427t390 164t375 -145t133 -351q0 -102 -20 -190h-637q39 -154 211 -154q139 0 252 88l137 -254q-173 -141 -431 -141zM702 1208h-206l-326 330h418z" />
    <glyph glyph-name="eacute" unicode="&#xe9;" horiz-adv-x="1165" 
d="M614 817q-66 0 -104 -37t-53 -123h303q-6 160 -146 160zM630 -37q-258 1 -408 147t-150 409t148 427t390 164t375 -145t133 -351q0 -102 -20 -190h-637q39 -154 211 -154q139 0 252 88l137 -254q-173 -141 -431 -141zM1036 1538l-325 -330h-207l114 330h418z" />
    <glyph glyph-name="ecircumflex" unicode="&#xea;" horiz-adv-x="1165" 
d="M614 817q-66 0 -104 -37t-53 -123h303q-6 160 -146 160zM630 -37q-256 1 -408 147t-150 409q0 263 148 427t386 164q126 0 226 -42q183 -77 254 -269q32 -87 32 -187t-20 -188h-637q39 -154 211 -154q139 0 252 88l137 -254q-175 -141 -431 -141zM604 1335l-80 -114h-282
l250 317h225l239 -317h-270z" />
    <glyph glyph-name="edieresis" unicode="&#xeb;" horiz-adv-x="1165" 
d="M614 817q-66 0 -104 -37t-53 -123h303q-6 160 -146 160zM630 -37q-258 1 -408 147t-150 409t148 427t390 164t375 -145t133 -351q0 -102 -20 -190h-637q39 -154 211 -154q139 0 252 88l137 -254q-173 -141 -431 -141zM823 1210q-67 0 -113 41t-46 124t46 123t114 40
t112 -40q43 -40 43 -123t-44 -124t-112 -41zM547 1374q1 -84 -45 -124t-112 -40t-114 40q-47 40 -47 124t46 124t115 40t113 -40t44 -124z" />
    <glyph glyph-name="igrave" unicode="&#xec;" horiz-adv-x="634" 
d="M512 0h-389v1073h389v-1073zM412 1210h-207l-326 330h418z" />
    <glyph glyph-name="iacute" unicode="&#xed;" horiz-adv-x="634" 
d="M512 0h-389v1073h389v-1073zM420 1210h-207l115 330h417z" />
    <glyph glyph-name="icircumflex" unicode="&#xee;" horiz-adv-x="634" 
d="M123 1073h389v-1073h-389v1073zM233 1223h-282l250 317h225l240 -317h-271l-82 114z" />
    <glyph glyph-name="idieresis" unicode="&#xef;" horiz-adv-x="634" 
d="M512 0h-389v1073h389v-1073zM534 1540q70 0 112 -40t42 -123t-44 -124t-112 -41t-113 41q-46 41 -46 124t46 123t115 40zM99 1212q-67 0 -113 40t-47 124t45 124t115 40t113 -40t44 -124t-45 -124t-112 -40z" />
    <glyph glyph-name="eth" unicode="&#xf0;" horiz-adv-x="1275" 
d="M635 311q84 -1 129 57t45 145q0 237 -174 237q-168 0 -168 -220t168 -219zM72 538q0 284 139 428t342 144q141 0 246 -94q-39 111 -135 203l-164 -74l-68 119l107 49q-47 27 -101 51l228 199q100 -49 180 -111l172 78l65 -123l-122 -55q244 -254 243 -690
q0 -334 -149 -517q-150 -182 -405 -182t-417 146q-161 146 -161 429z" />
    <glyph glyph-name="ntilde" unicode="&#xf1;" horiz-adv-x="1275" 
d="M795 1110q174 0 276 -100t103 -279v-731h-390v600q0 135 -100 135q-90 0 -192 -127v-608h-390v1073h260l62 -151h12q143 188 359 188zM797 1251q-74 0 -155 40t-114 40q-70 0 -100 -100l-186 102q25 115 92 170q125 101 288 14q79 -42 99 -42q57 0 98 106l205 -82
q-29 -115 -91 -181t-136 -67z" />
    <glyph glyph-name="ograve" unicode="&#xf2;" horiz-adv-x="1298" 
d="M649 768q-182 0 -182 -231t182 -232t182 231t-182 232zM649 1110q228 0 398 -137q82 -69 131 -181t49 -255t-49 -256q-90 -208 -315 -283q-101 -35 -214 -35q-229 0 -397 137q-82 68 -131 181t-49 256t49 256q90 206 314 282q101 35 214 35zM743 1210h-206l-326 330h418z
" />
    <glyph glyph-name="oacute" unicode="&#xf3;" horiz-adv-x="1298" 
d="M649 768q-182 0 -182 -231t182 -232t182 231t-182 232zM649 1110q228 0 398 -137q82 -69 131 -181t49 -255t-49 -256q-90 -208 -315 -283q-101 -35 -214 -35q-229 0 -397 137q-82 68 -131 181t-49 256t49 256q90 206 314 282q101 35 214 35zM752 1210h-207l114 330h418z
" />
    <glyph glyph-name="ocircumflex" unicode="&#xf4;" horiz-adv-x="1298" 
d="M649 305q182 -1 182 231t-182 232t-182 -232t182 -231zM649 1110q228 0 398 -137q82 -69 131 -181t49 -255t-49 -256q-90 -208 -315 -283q-101 -35 -214 -35q-229 0 -397 137q-82 68 -131 181t-49 256t49 256q90 206 314 282q101 35 214 35zM565 1223h-282l249 317h226
l239 -317h-270l-82 114z" />
    <glyph glyph-name="otilde" unicode="&#xf5;" horiz-adv-x="1298" 
d="M649 768q-182 0 -182 -231t182 -232t182 231t-182 232zM649 1110q228 0 398 -137q82 -69 131 -181t49 -255t-49 -256q-90 -208 -315 -283q-101 -35 -214 -35q-229 0 -397 137q-82 68 -131 181t-49 256t49 256q90 206 314 282q101 35 214 35zM545 1313q-70 0 -101 -101
l-186 103q25 115 92 170q68 55 138 55t150 -42q79 -42 99 -42q58 1 99 107l204 -82q-29 -115 -91 -182q-61 -67 -135 -67t-156 41q-82 40 -113 40z" />
    <glyph glyph-name="odieresis" unicode="&#xf6;" horiz-adv-x="1298" 
d="M649 768q-182 0 -182 -231t182 -232t182 231t-182 232zM649 1110q228 0 398 -137q82 -69 131 -181t49 -255t-49 -256q-90 -208 -315 -283q-101 -35 -214 -35q-229 0 -397 137q-82 68 -131 181t-49 256t49 256q90 206 314 282q101 35 214 35zM864 1212q-68 0 -114 41
t-45 124q-1 83 45 123t115 40t112 -40t43 -123t-44 -124t-112 -41zM431 1540q69 0 113 -40t44 -124t-45 -124t-112 -40t-114 40t-47 124t46 124t115 40z" />
    <glyph glyph-name="divide" unicode="&#xf7;" horiz-adv-x="739" 
d="M549 179q0 -75 -44 -115t-109 -39q-64 0 -110 40q-46 41 -46 115t44 113t112 39q67 0 110 -39t43 -114zM872 438h-925v205h925v-205zM396 766q-64 0 -110 40t-46 115t44 113t112 39q67 0 110 -39q43 -40 43 -114t-44 -114t-109 -40z" />
    <glyph glyph-name="oslash" unicode="&#xf8;" horiz-adv-x="1298" 
d="M649 305q182 0 182 232q1 80 -22 131l-201 -359q18 -4 41 -4zM649 768q-182 0 -182 -231q0 -74 18 -125l199 354q-16 2 -35 2zM1227 537q0 -143 -49.5 -256t-131.5 -181q-166 -137 -397 -137q-111 0 -209 33l-116 -219l-164 104l123 195q-211 156 -211 461q0 143 49 255
t131 180q167 138 397 138q104 0 199 -29l106 211l172 -86l-120 -200q221 -156 221 -469z" />
    <glyph glyph-name="ugrave" unicode="&#xf9;" horiz-adv-x="1259" 
d="M487 444q0 -122 115 -120q115 0 168 133v616h387v-1073h-258l-61 133q-117 -158 -323 -158q-206 1 -309 103t-104 274v721h385v-629zM522 1210l-325 330h417l115 -330h-207z" />
    <glyph glyph-name="uacute" unicode="&#xfa;" horiz-adv-x="1259" 
d="M487 444q0 -122 115 -120q115 0 168 133v616h387v-1073h-258l-61 133q-117 -158 -323 -158q-206 1 -309 103t-104 274v721h385v-629zM737 1210h-207l115 330h418z" />
    <glyph glyph-name="ucircumflex" unicode="&#xfb;" horiz-adv-x="1259" 
d="M487 444q0 -122 115 -120q115 0 168 133v616h387v-1073h-258l-61 133q-117 -158 -323 -158q-206 1 -309 103t-104 274v721h385v-629zM551 1223h-283l250 317h225l240 -317h-270l-82 114z" />
    <glyph glyph-name="udieresis" unicode="&#xfc;" horiz-adv-x="1259" 
d="M487 444q0 -122 115 -120q115 0 168 133v616h387v-1073h-258l-61 133q-117 -158 -323 -158q-206 1 -309 103t-104 274v721h385v-629zM850 1212q-68 0 -114 41t-46 124t46 123t115 40t112 -40t43 -123t-44 -124t-112 -41zM416 1212q-66 0 -113 40t-47 124t46 124t115 40
t113 -40t43 -124q0 -84 -45 -124q-46 -40 -112 -40z" />
    <glyph glyph-name="yacute" unicode="&#xfd;" horiz-adv-x="1296" 
d="M396 -446q-171 0 -335 49l68 288q98 -31 187 -31t126 81l11 22l-428 1114h405l211 -671l190 671h424l-399 -1149q-70 -198 -180 -286t-280 -88zM729 1229h-207l115 330h418z" />
    <glyph glyph-name="thorn" unicode="&#xfe;" horiz-adv-x="1259" 
d="M606 287q78 0 132 61t54 177t-42 173q-44 58 -110 58t-148 -74v-375q36 -20 114 -20zM489 1006h5q111 92 251 92q183 0 313 -144t130 -404q0 -261 -142 -418t-364 -157q-113 0 -190 23v-442h-390v1878h387v-428z" />
    <glyph glyph-name="ydieresis" unicode="&#xff;" horiz-adv-x="1296" 
d="M396 -446q-171 0 -335 49l68 288q98 -31 187 -31t126 81l11 22l-428 1114h405l211 -671l190 671h424l-399 -1149q-70 -198 -180 -286t-280 -88zM843 1559q69 0 111 -40t43 -123t-43 -124t-112 -41t-114 41t-46 124t46 123t115 40zM408 1231q-66 0 -113 40t-47 124t46 124
t115 40t113 -40t43 -124q0 -84 -45 -124q-46 -40 -112 -40z" />
    <glyph glyph-name="Amacron" unicode="&#x100;" horiz-adv-x="1593" 
d="M922 532l-140 412l-131 -412h271zM1028 215h-479l-70 -215h-428l541 1434h385l565 -1434h-440zM1090 1618h-611v176h611v-176z" />
    <glyph glyph-name="amacron" unicode="&#x101;" horiz-adv-x="1224" 
d="M545 430q-113 0 -113 -94q0 -51 30 -74t70 -22q109 0 154 86v84q-53 20 -141 20zM573 1110q250 0 373 -109t123 -305v-352q0 -72 49 -72h64l-25 -254q-59 -47 -207 -47t-205 105q-137 -113 -297 -113t-266 92q-106 93 -106 259t114 248t306 83q106 0 184 -16v26
q0 82 -39 114t-119 32q-170 0 -264 -82l-141 237q86 76 213 115t243 39zM901 1452v-176h-610v176h610z" />
    <glyph glyph-name="Abreve" unicode="&#x102;" horiz-adv-x="1593" 
d="M922 532l-140 412l-131 -412h271zM1028 215h-479l-70 -215h-428l541 1434h385l565 -1434h-440zM780 1714q151 0 178 117h160q-4 -111 -55 -183q-91 -130 -279 -128q-141 0 -237 74t-107 237h166q23 -117 174 -117z" />
    <glyph glyph-name="abreve" unicode="&#x103;" horiz-adv-x="1224" 
d="M545 430q-113 0 -113 -94q0 -51 30 -74t70 -22q109 0 154 86v84q-53 20 -141 20zM573 1110q250 0 373 -109t123 -305v-352q0 -72 49 -72h64l-25 -254q-59 -47 -207 -47t-205 105q-137 -113 -297 -113t-266 92q-106 93 -106 259t114 248t306 83q106 0 184 -16v26
q0 82 -39 114t-119 32q-170 0 -264 -82l-141 237q86 76 213 115t243 39zM592 1372q151 0 178 117h160q-4 -111 -56 -183q-92 -130 -278 -128q-141 0 -238 74q-96 75 -106 237h166q23 -117 174 -117z" />
    <glyph glyph-name="Aogonek" unicode="&#x104;" horiz-adv-x="1593" 
d="M922 532l-140 412l-131 -412h271zM1065 -267q0 97 41 150t135 117h-139l-74 215h-479l-70 -215h-428l541 1434h385l565 -1434h-123q-111 -119 -110 -195q0 -92 133 -102l-51 -207q-139 8 -233 74q-93 66 -93 163z" />
    <glyph glyph-name="aogonek" unicode="&#x105;" horiz-adv-x="1224" 
d="M545 430q-113 0 -113 -94q0 -51 30 -74t70 -22q109 0 154 86v84q-53 20 -141 20zM805 -236q0 70 28 117t85 92q-125 14 -173 103q-137 -113 -297 -113t-266 92q-106 93 -106 259t114 248t306 83q106 0 184 -16v26q0 82 -39 114t-119 32q-170 0 -264 -82l-141 237
q86 76 213 115t243 39q250 0 373 -109t123 -305v-352q0 -72 49 -72h64l-25 -254h2q-111 -119 -110 -194q0 -92 133 -103l-52 -206q-139 7 -232 73t-93 176z" />
    <glyph glyph-name="Cacute" unicode="&#x106;" horiz-adv-x="1388" 
d="M808 -37q-182 0 -344 87t-267 263q-104 176 -105 412q0 346 210 540t542 193q141 0 275 -38t214 -101l-186 -326q-117 86 -271 86t-250 -94t-96 -268q0 -175 96 -275t246 -100q148 0 289 113l197 -295q-82 -84 -225 -140t-325 -57zM932 1597h-207l115 330h417z" />
    <glyph glyph-name="cacute" unicode="&#x107;" horiz-adv-x="1091" 
d="M644 -37q-248 0 -411 157q-161 157 -161 422q0 264 160 416t396 152q238 0 390 -129l-137 -270q-85 67 -191 67t-168 -61t-61 -173q0 -112 60 -180t169 -67q109 0 199 78l155 -252q-152 -160 -400 -160zM739 1210h-207l115 330h418z" />
    <glyph glyph-name="Cdotaccent" unicode="&#x10a;" horiz-adv-x="1388" 
d="M808 -37q-182 0 -344 87t-267 263q-104 176 -105 412q0 346 210 540t542 193q141 0 275 -38t214 -101l-186 -326q-117 86 -271 86t-250 -94t-96 -268q0 -175 96 -275t246 -100q148 0 289 113l197 -295q-82 -84 -225 -140t-325 -57zM831 1931q77 0 131 -44t54 -131
t-53 -131t-131 -44t-130 44q-53 44 -53 131t52 131t130 44z" />
    <glyph glyph-name="cdotaccent" unicode="&#x10b;" horiz-adv-x="1091" 
d="M644 -37q-248 0 -411 157q-161 157 -161 422q0 264 160 416t396 152q238 0 390 -129l-137 -270q-85 67 -191 67t-168 -61t-61 -173q0 -112 60 -180t169 -67q109 0 199 78l155 -252q-152 -160 -400 -160zM639 1544q78 0 131 -44t53 -131t-53 -131t-131 -44t-130 44
t-52 131t52 131t130 44z" />
    <glyph glyph-name="Ccaron" unicode="&#x10c;" horiz-adv-x="1388" 
d="M808 -37q-182 0 -344 87t-267 263q-104 176 -105 412q0 346 210 540t542 193q141 0 275 -38t214 -101l-186 -326q-117 86 -271 86t-250 -94t-96 -268q0 -175 96 -275t246 -100q148 0 289 113l197 -295q-82 -84 -225 -140t-325 -57zM713 1610l-250 317h282l80 -115l82 115
h271l-240 -317h-225z" />
    <glyph glyph-name="ccaron" unicode="&#x10d;" horiz-adv-x="1091" 
d="M644 -37q-248 0 -411 157q-161 157 -161 422q0 264 160 416t396 152q238 0 390 -129l-137 -270q-85 67 -191 67t-168 -61t-61 -173q0 -112 60 -180t169 -67q109 0 199 78l155 -252q-152 -160 -400 -160zM520 1223l-250 317h283l80 -115l82 115h270l-240 -317h-225z" />
    <glyph glyph-name="Dcaron" unicode="&#x10e;" horiz-adv-x="1497" 
d="M530 367h103q332 0 332 356q0 182 -85 260t-247 78h-103v-694zM113 1434h497q354 0 574 -193t221 -521q0 -328 -221 -524t-574 -196h-497v1434zM563 1583l-250 318h283l80 -115l82 115h270l-240 -318h-225z" />
    <glyph glyph-name="dcaron" unicode="&#x10f;" horiz-adv-x="1570" 
d="M648 756q-181 0 -181 -209q0 -105 50 -165t122 -60q102 0 149 100v262q-49 72 -140 72zM1290 1169v371h281l-119 -371h-162zM1178 0h-279l-43 121h-4q-117 -158 -304 -158q-188 1 -332 149t-144 431q0 143 41 255q74 202 262 278q82 34 172 34q137 0 241 -80v510h390
v-1540z" />
    <glyph glyph-name="Dcroat" unicode="&#x110;" horiz-adv-x="1497" 
d="M530 1061v-694h103q332 0 332 356q0 182 -85 260t-247 78h-103zM113 1434h497q354 0 574 -193t221 -521q0 -328 -221 -524t-574 -196h-497v1434zM985 1618h-610v176h610v-176z" />
    <glyph glyph-name="dcroat" unicode="&#x111;" horiz-adv-x="1280" 
d="M648 756q-181 0 -181 -209q0 -105 50 -165t122 -60q102 0 149 100v262q-49 72 -140 72zM1274 1182h-96v-1182h-279l-43 121h-4q-117 -158 -304 -158q-188 1 -332 149t-144 431q0 143 41 255q74 202 262 278q82 34 172 34q137 0 241 -80v152h-124v176h124v182h390v-182h96
v-176z" />
    <glyph glyph-name="Emacron" unicode="&#x112;" horiz-adv-x="1255" 
d="M1133 1085h-611v-192h512v-348h-512v-197h611v-348h-1020v1434h1020v-349zM915 1618h-610v176h610v-176z" />
    <glyph glyph-name="emacron" unicode="&#x113;" horiz-adv-x="1165" 
d="M614 817q-66 0 -104 -37t-53 -123h303q-6 160 -146 160zM630 -37q-258 1 -408 147t-150 409t148 427t390 164t375 -145t133 -351q0 -102 -20 -190h-637q39 -154 211 -154q139 0 252 88l137 -254q-173 -141 -431 -141zM913 1432v-177h-610v177h610z" />
    <glyph glyph-name="Ebreve" unicode="&#x114;" horiz-adv-x="1255" 
d="M1133 1085h-611v-192h512v-348h-512v-197h611v-348h-1020v1434h1020v-349zM606 1714q151 0 178 117h160q-4 -111 -55 -183q-91 -130 -279 -128q-141 0 -237 74t-107 237h166q23 -117 174 -117z" />
    <glyph glyph-name="ebreve" unicode="&#x115;" horiz-adv-x="1165" 
d="M614 817q-66 0 -104 -37t-53 -123h303q-6 160 -146 160zM630 -37q-258 1 -408 147t-150 409t148 427t390 164t375 -145t133 -351q0 -102 -20 -190h-637q39 -154 211 -154q139 0 252 88l137 -254q-173 -141 -431 -141zM608 1157q-141 0 -237 75t-107 236h166
q23 -117 174 -117t178 117h160q-4 -112 -55 -184q-90 -128 -279 -127z" />
    <glyph glyph-name="Edotaccent" unicode="&#x116;" horiz-adv-x="1255" 
d="M1133 1085h-611v-192h512v-348h-512v-197h611v-348h-1020v1434h1020v-349zM612 1905q78 0 131 -44t53 -131q0 -88 -52 -132q-54 -44 -131 -44t-130 44t-53 132t52 131q52 44 130 44z" />
    <glyph glyph-name="edotaccent" unicode="&#x117;" horiz-adv-x="1165" 
d="M614 817q-66 0 -104 -37t-53 -123h303q-6 160 -146 160zM630 -37q-258 1 -408 147t-150 409t148 427t390 164t375 -145t133 -351q0 -102 -20 -190h-637q39 -154 211 -154q139 0 252 88l137 -254q-173 -141 -431 -141zM610 1192q-78 0 -130 44t-52 131t52 131t130 44
t131 -44t53 -131t-52 -131q-54 -44 -132 -44z" />
    <glyph glyph-name="Eogonek" unicode="&#x118;" horiz-adv-x="1255" 
d="M522 1085v-192h512v-348h-512v-197h611v-348h-369q-111 -119 -111 -195q0 -92 133 -102l-51 -207q-139 8 -232 74t-93 163t41 150t135 117h-473v1434h1020v-349h-611z" />
    <glyph glyph-name="eogonek" unicode="&#x119;" horiz-adv-x="1165" 
d="M614 817q-66 0 -104 -37t-53 -123h303q-6 160 -146 160zM561 -229q0 113 96 192h-41q-244 1 -394 147t-150 409t148 427t386 164q126 0 226 -42q183 -77 254 -269q32 -87 32 -187t-20 -188h-637q39 -154 211 -154q139 0 252 88l137 -254q-68 -55 -152 -88
q-104 -115 -104 -188q0 -92 133 -102l-51 -207q-139 8 -233 73q-93 66 -93 179z" />
    <glyph glyph-name="Ecaron" unicode="&#x11a;" horiz-adv-x="1255" 
d="M522 1085v-192h512v-348h-512v-197h611v-348h-1020v1434h1020v-349h-611zM494 1583l-250 318h282l80 -115l82 115h270l-239 -318h-225z" />
    <glyph glyph-name="ecaron" unicode="&#x11b;" horiz-adv-x="1165" 
d="M614 817q-66 0 -104 -37t-53 -123h303q-6 160 -146 160zM630 -37q-258 1 -408 147t-150 409t148 427t390 164t375 -145t133 -351q0 -102 -20 -190h-637q39 -154 211 -154q139 0 252 88l137 -254q-173 -141 -431 -141zM717 1221h-225l-250 317h282l80 -115l82 115h270z
" />
    <glyph glyph-name="Gbreve" unicode="&#x11e;" horiz-adv-x="1519" 
d="M1419 881v-719q-227 -197 -585 -197q-285 0 -502 171q-108 84 -174 230t-66 332q0 240 110 417t280 260t374 83q317 0 533 -153l-191 -306q-139 80 -305 80t-263 -93q-98 -93 -98 -268q0 -174 90 -274t214 -100q125 0 194 33v180h-280v324h669zM850 1546q-141 0 -238 75
q-96 75 -106 237h166q23 -117 174 -117t178 117h160q-4 -111 -56 -184q-90 -128 -278 -128z" />
    <glyph glyph-name="gbreve" unicode="&#x11f;" horiz-adv-x="1271" 
d="M634 754q-78 0 -123 -47q-44 -47 -44 -133t45 -136q45 -49 119 -49q108 0 153 86v211q-72 68 -150 68zM799 37v92q-102 -88 -248 -88q-215 0 -347 145t-132 390q0 246 133 390t327 144t293 -141h15l55 108h274v-973q-1 -291 -163 -427t-447 -136q-119 0 -235 34t-189 89
l125 289q119 -84 303 -84q236 0 236 168zM639 1159q-141 0 -238 75q-96 75 -106 236h166q23 -117 174 -117t178 117h160q-4 -112 -55 -184q-90 -128 -279 -127z" />
    <glyph glyph-name="Gdotaccent" unicode="&#x120;" horiz-adv-x="1519" 
d="M1419 881v-719q-227 -197 -585 -197q-285 0 -502 171q-108 84 -174 230t-66 332q0 240 110 417t280 260t374 83q317 0 533 -153l-191 -306q-139 80 -305 80t-263 -93q-98 -93 -98 -268q0 -174 90 -274t214 -100q125 0 194 33v180h-280v324h669zM852 1931q78 0 131 -44
t53 -131t-53 -131t-131 -44t-130 44t-52 131t52 131t130 44z" />
    <glyph glyph-name="gdotaccent" unicode="&#x121;" horiz-adv-x="1271" 
d="M634 754q-78 0 -123 -47q-44 -47 -44 -133t45 -136q45 -49 119 -49q108 0 153 86v211q-72 68 -150 68zM799 37v92q-102 -88 -248 -88q-215 0 -347 145t-132 390q0 246 133 390t327 144t293 -141h15l55 108h274v-973q-1 -291 -163 -427t-447 -136q-119 0 -235 34t-189 89
l125 289q119 -84 303 -84q236 0 236 168zM641 1544q78 0 131 -44t53 -131t-53 -131t-130 -44t-130 44t-53 131t52 131t130 44z" />
    <glyph glyph-name="Gcommaaccent" unicode="&#x122;" horiz-adv-x="1519" 
d="M662 -479v370h280l-119 -370h-161zM1419 881v-719q-227 -197 -585 -197q-285 0 -502 171q-108 84 -174 230t-66 332q0 240 110 417t280 260t374 83q317 0 533 -153l-191 -306q-139 80 -305 80t-263 -93q-98 -93 -98 -268q0 -174 90 -274t214 -100q125 0 194 33v180h-280
v324h669z" />
    <glyph glyph-name="gcommaaccent" unicode="&#x123;" horiz-adv-x="1271" 
d="M477 -901v371h281l-119 -371h-162zM634 754q-78 0 -123 -47q-44 -47 -44 -133t45 -136q45 -49 119 -49q108 0 153 86v211q-72 68 -150 68zM799 37v92q-102 -88 -248 -88q-215 0 -347 145t-132 390q0 246 133 390t327 144t293 -141h15l55 108h274v-973q-1 -291 -163 -427
t-447 -136q-119 0 -235 34t-189 89l125 289q119 -84 303 -84q236 0 236 168z" />
    <glyph glyph-name="Hbar" unicode="&#x126;" horiz-adv-x="1746" 
d="M1147 1016h-541v-133h541v133zM1634 1016h-82v-1016h-405v535h-541v-535h-409v1016h-84v225h84v193h409v-193h541v193h405v-193h82v-225z" />
    <glyph glyph-name="hbar" unicode="&#x127;" horiz-adv-x="1277" 
d="M489 1161v-203q127 144 315 144t279 -92q92 -92 93 -310v-700h-392v643q0 53 -26 83q-27 30 -68 30q-111 0 -198 -133v-623h-390v1161h-157v176h157v203h387v-203h189v-176h-189z" />
    <glyph glyph-name="Imacron" unicode="&#x12a;" horiz-adv-x="684" 
d="M547 0h-410v1434h410v-1434zM647 1618h-610v176h610v-176z" />
    <glyph glyph-name="imacron" unicode="&#x12b;" horiz-adv-x="634" 
d="M512 0h-389v1073h389v-1073zM623 1257h-611v177h611v-177z" />
    <glyph glyph-name="Iogonek" unicode="&#x12e;" horiz-adv-x="684" 
d="M547 0h-45q-111 -119 -111 -195q0 -92 133 -102l-51 -207q-139 8 -232 74t-93 163t40 150q41 53 136 117h-187v1434h410v-1434z" />
    <glyph glyph-name="iogonek" unicode="&#x12f;" horiz-adv-x="686" 
d="M147 1073h390v-1073h-35q-111 -119 -111 -195q0 -92 133 -102l-51 -207q-139 8 -232 74t-93 163t40 150q41 53 136 117h-177v1073zM342 1192q-92 0 -156 49q-63 49 -63 143t63 144q64 50 156 49q92 0 157 -48q65 -49 65 -145t-66 -144q-64 -48 -156 -48z" />
    <glyph glyph-name="Idotaccent" unicode="&#x130;" horiz-adv-x="684" 
d="M547 0h-410v1434h410v-1434zM344 1905q78 0 131 -44t53 -131q0 -88 -53 -132t-131 -44t-130 44t-52 132t52 131q52 44 130 44z" />
    <glyph glyph-name="dotlessi" unicode="&#x131;" horiz-adv-x="634" 
d="M512 0h-389v1073h389v-1073z" />
    <glyph glyph-name="IJ" unicode="&#x132;" horiz-adv-x="1695" 
d="M1583 1434v-906q0 -571 -528 -571q-188 0 -322 43l31 334q74 -16 180 -16t164 52t57 150v914h418zM547 0h-410v1434h410v-1434z" />
    <glyph glyph-name="ij" unicode="&#x133;" horiz-adv-x="1372" 
d="M1223 1073v-1132q0 -164 -120 -282t-307 -118t-300 66l77 289q68 -23 137 -23q68 0 96 24t28 85v1091h389zM537 0h-390v1073h390v-1073zM1028 1577q92 0 157 -48q65 -49 65 -145t-66 -144q-64 -48 -156 -48t-156 49q-63 49 -63 143t63 144q64 49 156 49zM342 1577
q92 0 157 -48q65 -49 65 -145t-66 -144q-64 -48 -156 -48t-156 49q-63 49 -63 143t63 144q64 49 156 49z" />
    <glyph glyph-name="Kcommaaccent" unicode="&#x136;" horiz-adv-x="1525" 
d="M600 -109h281l-119 -370h-162v370zM537 0h-424v1434h424v-498l391 498h551l-570 -623l607 -811h-529l-369 496l-81 -90v-406z" />
    <glyph glyph-name="kcommaaccent" unicode="&#x137;" horiz-adv-x="1249" 
d="M471 -109h281l-119 -370h-162v370zM492 0h-390v1540h390v-805l249 338h463l-387 -430l438 -643h-448l-238 369l-77 -86v-283z" />
    <glyph glyph-name="Lacute" unicode="&#x139;" horiz-adv-x="1177" 
d="M522 369h635v-369h-1044v1434h409v-1065zM465 1597h-207l115 330h418z" />
    <glyph glyph-name="lacute" unicode="&#x13a;" horiz-adv-x="643" 
d="M516 0h-389v1540h389v-1540zM428 1677h-207l115 330h418z" />
    <glyph glyph-name="Lcommaaccent" unicode="&#x13b;" horiz-adv-x="1177" 
d="M436 -479v370h281l-119 -370h-162zM522 369h635v-369h-1044v1434h409v-1065z" />
    <glyph glyph-name="lcommaaccent" unicode="&#x13c;" horiz-adv-x="643" 
d="M180 -1763v370h281l-119 -370h-162zM516 0h-389v1540h389v-1540z" />
    <glyph glyph-name="Lcaron" unicode="&#x13d;" horiz-adv-x="1177" 
d="M809 1059v371h281l-119 -371h-162zM522 369h635v-369h-1044v1434h409v-1065z" />
    <glyph glyph-name="lcaron" unicode="&#x13e;" horiz-adv-x="929" 
d="M516 0h-389v1540h389v-1540zM649 1171v371h281l-119 -371h-162z" />
    <glyph glyph-name="Ldot" unicode="&#x13f;" horiz-adv-x="1177" 
d="M883 1069q91 0 155 -58q64 -59 64 -163t-64 -162t-154 -59q-91 0 -156 58q-64 57 -64 161t64 164q65 59 155 59zM522 369h635v-369h-1044v1434h409v-1065z" />
    <glyph glyph-name="ldot" unicode="&#x140;" horiz-adv-x="1056" 
d="M831 1008q90 0 155 -58t65 -164q1 -104 -63 -162t-156 -58t-156 58t-64 161t64 163t155 60zM516 0h-389v1540h389v-1540z" />
    <glyph glyph-name="Lslash" unicode="&#x141;" horiz-adv-x="1112" 
d="M504 367h571v-367h-981v520l-157 -67v301l157 67v613h410v-435l237 97v-303l-237 -99v-327z" />
    <glyph glyph-name="lslash" unicode="&#x142;" horiz-adv-x="804" 
d="M594 0h-389v487l-164 -65v366l164 66v686h389v-528l170 69v-370l-170 -68v-643z" />
    <glyph glyph-name="Nacute" unicode="&#x143;" horiz-adv-x="1529" 
d="M1417 0h-344l-551 723v-723h-409v1434h344l542 -738v738h418v-1434zM870 1597h-206l114 330h418z" />
    <glyph glyph-name="nacute" unicode="&#x144;" horiz-adv-x="1275" 
d="M795 1110q174 0 276 -100t103 -279v-731h-390v600q0 135 -100 135q-90 0 -192 -127v-608h-390v1073h260l62 -151h12q143 188 359 188zM735 1229h-207l115 330h418z" />
    <glyph glyph-name="Ncommaaccent" unicode="&#x145;" horiz-adv-x="1529" 
d="M606 -479v370h281l-119 -370h-162zM1417 0h-344l-551 723v-723h-409v1434h344l542 -738v738h418v-1434z" />
    <glyph glyph-name="ncommaaccent" unicode="&#x146;" horiz-adv-x="1275" 
d="M518 -479v370h281l-119 -370h-162zM795 1110q174 0 276 -100t103 -279v-731h-390v600q0 135 -100 135q-90 0 -192 -127v-608h-390v1073h260l62 -151h12q143 188 359 188z" />
    <glyph glyph-name="Ncaron" unicode="&#x147;" horiz-adv-x="1529" 
d="M1417 1434v-1434h-344l-551 723v-723h-409v1434h344l542 -738v738h418zM651 1610l-250 317h283l80 -115l82 115h270l-239 -317h-226z" />
    <glyph glyph-name="ncaron" unicode="&#x148;" horiz-adv-x="1275" 
d="M795 1110q174 0 276 -100t103 -279v-731h-390v600q0 135 -100 135q-90 0 -192 -127v-608h-390v1073h260l62 -151h12q143 188 359 188zM516 1241l-250 318h283l80 -115l82 115h270l-240 -318h-225z" />
    <glyph glyph-name="Eng" unicode="&#x14a;" horiz-adv-x="1529" 
d="M1417 1434v-1434h-2q-33 -502 -526 -502q-188 0 -322 43l31 334q74 -16 180 -16t164 52q57 52 57 150v35l-477 627v-723h-409v1434h344l542 -738v738h418z" />
    <glyph glyph-name="eng" unicode="&#x14b;" horiz-adv-x="1275" 
d="M795 1110q174 0 276 -100t103 -279v-827q0 -166 -119 -282t-326 -116q-94 2 -190 43l69 299q53 -10 81 -10q27 0 51 16t35 34q11 17 11 24v88h-2v600q0 135 -100 135q-90 0 -192 -127v-608h-390v1073h260l62 -151h12q143 188 359 188z" />
    <glyph glyph-name="Omacron" unicode="&#x14c;" horiz-adv-x="1675" 
d="M838 1079q-142 0 -224 -90t-82 -270q0 -181 83 -279t223 -98t222 98q83 98 83 278t-82 271q-82 90 -223 90zM838 1458q301 0 515 -174q105 -86 167 -229t63 -329q0 -186 -62 -337q-114 -276 -406 -379q-132 -47 -277 -47q-146 0 -278 47q-289 103 -405 379
q-63 150 -63 336q0 185 62 329q114 262 405 360q132 44 279 44zM1143 1618h-611v176h611v-176z" />
    <glyph glyph-name="omacron" unicode="&#x14d;" horiz-adv-x="1298" 
d="M649 768q-182 0 -182 -231t182 -232t182 231t-182 232zM649 1110q228 0 398 -137q82 -69 131 -181t49 -255t-49 -256q-90 -208 -315 -283q-101 -35 -214 -35q-229 0 -397 137q-82 68 -131 181t-49 256t49 256q90 206 314 282q101 35 214 35zM954 1257h-610v177h610v-177z
" />
    <glyph glyph-name="Ohungarumlaut" unicode="&#x150;" horiz-adv-x="1675" 
d="M838 1079q-142 0 -224 -90t-82 -270q0 -181 83 -279t223 -98t222 98q83 98 83 278t-82 271q-82 90 -223 90zM838 1458q301 0 515 -174q105 -86 167 -229t63 -329q0 -186 -62 -337q-114 -276 -406 -379q-132 -47 -277 -47q-146 0 -278 47q-289 103 -405 379
q-63 150 -63 336q0 185 62 329q114 262 405 360q132 44 279 44zM1063 1599h-178l153 318h283zM750 1599h-175l50 318h274z" />
    <glyph glyph-name="ohungarumlaut" unicode="&#x151;" horiz-adv-x="1298" 
d="M649 768q-182 0 -182 -231t182 -232t182 231t-182 232zM649 1110q228 0 398 -137q82 -69 131 -181t49 -255t-49 -256q-90 -208 -315 -283q-101 -35 -214 -35q-229 0 -397 137q-82 68 -131 181t-49 256t49 256q90 206 314 282q101 35 214 35zM874 1239h-178l154 317h283z
M561 1239h-174l49 317h275z" />
    <glyph glyph-name="OE" unicode="&#x152;" horiz-adv-x="1921" 
d="M522 727q0 -176 84.5 -268t229.5 -94v722q-145 -2 -229.5 -93t-84.5 -267zM1257 1061v-174h486v-328h-486v-186h541v-373h-901q-335 0 -563 174q-112 86 -177 228.5t-65 324.5q0 181 64 321q66 140 178 222q225 164 555 164h909v-373h-541z" />
    <glyph glyph-name="oe" unicode="&#x153;" horiz-adv-x="1925" 
d="M809 520q0 236 -174 236q-168 0 -168 -219.5t168 -219.5q84 0 129 57.5t45 145.5zM1377 805q-123 0 -156 -137h299q-20 137 -143 137zM72 536.5q0 139.5 45 249.5t121 176q155 136 366 136q262 0 395 -176q129 176 374 176t375 -135.5t130 -333.5q0 -115 -20 -215h-631
q23 -72 76 -101.5t172 -29.5t217 59l131 -213q-41 -57 -121 -94q-130 -60 -295 -60q-270 0 -412 177q-137 -176 -405 -177q-200 -1 -354 135q-74 66 -119 176.5t-45 250z" />
    <glyph glyph-name="Racute" unicode="&#x154;" horiz-adv-x="1425" 
d="M522 772h150q213 0 213 168q0 145 -209 145h-154v-313zM522 424v-424h-409v1434h579q631 0 631 -476q0 -322 -260 -452l321 -506h-454l-252 424h-156zM756 1571h-207l115 330h417z" />
    <glyph glyph-name="racute" unicode="&#x155;" horiz-adv-x="911" 
d="M720 1110q81 0 159 -41l-70 -356q-68 39 -111 39q-137 0 -200 -217v-535h-396v1073h301l58 -160h6q51 113 111 155t142 42zM584 1229h-207l115 330h417z" />
    <glyph glyph-name="Rcommaaccent" unicode="&#x156;" horiz-adv-x="1425" 
d="M563 -109h281l-119 -370h-162v370zM522 772h150q213 0 213 168q0 145 -209 145h-154v-313zM522 424v-424h-409v1434h579q631 0 631 -476q0 -322 -260 -452l321 -506h-454l-252 424h-156z" />
    <glyph glyph-name="rcommaaccent" unicode="&#x157;" horiz-adv-x="911" 
d="M125 -479v370h281l-119 -370h-162zM720 1110q81 0 159 -41l-70 -356q-68 39 -111 39q-137 0 -200 -217v-535h-396v1073h301l58 -160h6q51 113 111 155t142 42z" />
    <glyph glyph-name="Rcaron" unicode="&#x158;" horiz-adv-x="1425" 
d="M522 772h150q213 0 213 168q0 145 -209 145h-154v-313zM522 424v-424h-409v1434h579q631 0 631 -476q0 -322 -260 -452l321 -506h-454l-252 424h-156zM537 1583l-250 318h282l80 -115l82 115h270l-239 -318h-225z" />
    <glyph glyph-name="rcaron" unicode="&#x159;" horiz-adv-x="911" 
d="M720 1110q81 0 159 -41l-70 -356q-68 39 -111 39q-137 0 -200 -217v-535h-396v1073h301l58 -160h6q51 113 111 155t142 42zM365 1241l-250 318h282l80 -115l82 115h270l-239 -318h-225z" />
    <glyph glyph-name="Sacute" unicode="&#x15a;" horiz-adv-x="1265" 
d="M766 446q0 43 -54 66q-30 12 -62 20q-340 85 -469 214q-89 91 -89 253q0 223 156 341t409 118q154 0 293 -42t213 -105l-172 -303q-141 104 -325 104q-145 0 -146 -90q0 -48 47 -69q47 -20 133 -44t134 -39q194 -61 282 -148t88 -255q0 -238 -169 -365
q-169 -126 -455 -126t-508 133l118 340q196 -95 386 -95t190 92zM743 1599h-206l114 330h418z" />
    <glyph glyph-name="sacute" unicode="&#x15b;" horiz-adv-x="1017" 
d="M438 291q146 0 146 55q0 27 -29 40q-29 12 -99 26q-368 70 -368 344q0 164 122 259t350 95t382 -111l-104 -258q-129 74 -281 74q-94 0 -94 -51q0 -22 14 -31q15 -8 25 -13t32 -11l38 -11q16 -4 50 -12l56 -14q152 -41 222 -115t71 -203q0 -193 -136 -292t-346 -99
q-127 0 -236 33t-175 80l82 289q132 -74 278 -74zM625 1210h-207l114 330h418z" />
    <glyph glyph-name="Scedilla" unicode="&#x15e;" horiz-adv-x="1265" 
d="M625 -242q-18 0 -39 -14l-119 104l59 129q-262 16 -454 132l118 340q196 -95 386 -95t190 92q0 43 -54 66q-30 12 -62 20q-340 85 -469 214q-89 91 -89 253q0 223 156 341t409 118q154 0 293 -42t213 -105l-172 -303q-92 70 -242 97q-44 7 -83 7q-145 0 -146 -90
q0 -48 47 -69q47 -20 188 -59q242 -67 347 -161q104 -93 102 -266q0 -215 -138 -339t-368 -148l-41 -89q106 16 163 -29q56 -46 56 -140t-84 -162q-85 -70 -217 -80l-65 149q147 27 145 95q0 34 -30 34z" />
    <glyph glyph-name="scedilla" unicode="&#x15f;" horiz-adv-x="1017" 
d="M557 815q-94 0 -94 -51q0 -24 15 -32q31 -18 131 -42q214 -51 288 -129t74 -207q0 -172 -110 -269t-286 -118l-36 -76q106 17 162 -29q57 -46 57 -140t-85 -162q-85 -70 -216 -80l-66 149q145 29 146 95q0 35 -31 34q-18 0 -39 -14l-119 104l55 119q-201 20 -325 109
l82 289q132 -74 278 -74t146 55q0 27 -29 40q-29 12 -99 26q-368 70 -368 344q0 164 122 259t349 95t383 -111l-104 -258q-60 33 -140 53t-141 21z" />
    <glyph glyph-name="Scaron" unicode="&#x160;" horiz-adv-x="1265" 
d="M666 1112q-145 0 -146 -90q0 -48 47 -69q47 -20 133 -44t134 -39q194 -61 282 -148t88 -255q0 -238 -169 -365t-455 -127t-508 134l118 340q196 -95 386 -95t190 92q0 43 -54 66q-30 12 -62 20q-340 85 -469 214q-89 91 -89 253q0 223 156 341t409 118q154 0 293 -42
t213 -105l-172 -303q-141 104 -325 104zM524 1612l-250 317h283l80 -114l82 114h270l-239 -317h-226z" />
    <glyph glyph-name="scaron" unicode="&#x161;" horiz-adv-x="1017" 
d="M557 815q-94 0 -94 -51q0 -22 14 -31q15 -8 25 -13t32 -11l38 -11q16 -4 50 -12l56 -14q152 -41 222 -115t71 -203q0 -193 -136 -292t-346 -99q-127 0 -237 33t-174 80l82 289q132 -74 278 -74t146 55q0 27 -29 40q-29 12 -99 26q-368 70 -368 344q0 164 122 259t349 95
t383 -111l-104 -258q-129 74 -281 74zM406 1223l-250 317h282l80 -115l82 115h270l-239 -317h-225z" />
    <glyph glyph-name="Tcedilla" unicode="&#x162;" horiz-adv-x="1372" 
d="M911 -262q0 -108 -85 -178t-216 -80l-65 149q145 29 145 95q0 35 -31 34q-18 0 -38 -14l-119 104l69 152h-88v1085h-401v349h1210v-349h-399v-1085h-150l-51 -109q106 16 163 -29q56 -46 56 -124z" />
    <glyph glyph-name="tcedilla" unicode="&#x163;" horiz-adv-x="962" 
d="M197 741h-146v332h146v94l161 189h232v-283h260v-332h-260v-350q0 -80 78 -80q63 0 135 23l90 -271q-113 -76 -258 -94l-37 -78q106 16 163 -29q56 -46 56 -124q0 -108 -85 -178t-216 -80l-65 149q145 27 145 95q0 34 -31 34q-18 0 -39 -14l-118 104l55 119
q-268 32 -266 338v436z" />
    <glyph glyph-name="Tcaron" unicode="&#x164;" horiz-adv-x="1372" 
d="M1292 1434v-349h-399v-1085h-410v1085h-401v349h1210zM584 1583l-250 318h282l80 -115l82 115h271l-240 -318h-225z" />
    <glyph glyph-name="tcaron" unicode="&#x165;" horiz-adv-x="962" 
d="M590 1073h260v-332h-260v-350q0 -80 78 -80q63 0 135 23l90 -271q-150 -100 -337 -100t-273 81t-86 261v436h-146v332h146v94l161 189h232v-283zM604 1495v371h281l-119 -371h-162z" />
    <glyph glyph-name="Tbar" unicode="&#x166;" horiz-adv-x="1372" 
d="M1292 1085h-399v-1085h-410v1085h-401v349h1210v-349zM1006 1618h-611v176h611v-176z" />
    <glyph glyph-name="tbar" unicode="&#x167;" horiz-adv-x="962" 
d="M556 -37q-187 0 -273 81t-86 261v154h-95v176h95v106h-146v332h146v94l161 189h232v-283h260v-332h-260v-106h123v-176h-123v-68q0 -80 78 -80q63 0 135 23l90 -271q-150 -100 -337 -100z" />
    <glyph glyph-name="Umacron" unicode="&#x16a;" horiz-adv-x="1454" 
d="M1341 1434v-912q0 -289 -169 -424t-445 -135t-445 135t-169 424v912h409v-893q0 -203 205 -203q98 0 152 52q53 52 53 151v893h409zM1024 1618h-610v176h610v-176z" />
    <glyph glyph-name="umacron" unicode="&#x16b;" horiz-adv-x="1259" 
d="M487 444q0 -122 115 -120q115 0 168 133v616h387v-1073h-258l-61 133q-117 -158 -323 -158q-206 1 -309 103t-104 274v721h385v-629zM940 1257h-610v177h610v-177z" />
    <glyph glyph-name="Uring" unicode="&#x16e;" horiz-adv-x="1454" 
d="M1341 1434v-912q0 -289 -169 -424t-445 -135t-445 135t-169 424v912h409v-893q0 -203 205 -203q98 0 152 52q53 52 53 151v893h409zM719 1802q-37 0 -55 -22t-18 -50q0 -30 18 -52t54 -22t55 24q19 22 20 51q-1 29 -19 50t-55 21zM719 1915q92 0 144 -53t52 -131
q0 -79 -52 -133t-144 -54t-145 54q-52 54 -52 132t52 132q53 53 145 53z" />
    <glyph glyph-name="uring" unicode="&#x16f;" horiz-adv-x="1259" 
d="M487 444q0 -122 115 -120q115 0 168 133v616h387v-1073h-258l-61 133q-117 -158 -323 -158q-206 1 -309 103t-104 274v721h385v-629zM635 1442q-37 0 -55 -22t-18 -52t18 -50q18 -22 54 -22t55 23t19 51t-18 50t-55 22zM635 1184q-92 0 -145 54q-52 54 -52 132t52 131
t144 53t145 -53q52 -53 52 -131t-52 -132t-144 -54z" />
    <glyph glyph-name="Uhungarumlaut" unicode="&#x170;" horiz-adv-x="1454" 
d="M1341 1434v-912q0 -289 -169 -424t-445 -135t-445 135t-169 424v912h409v-893q0 -203 205 -203q98 0 152 52q53 52 53 151v893h409zM944 1599h-178l154 318h282zM631 1599h-174l49 318h274z" />
    <glyph glyph-name="uhungarumlaut" unicode="&#x171;" horiz-adv-x="1259" 
d="M487 444q0 -122 115 -120q115 0 168 133v616h387v-1073h-258l-61 133q-117 -158 -323 -158q-206 1 -309 103t-104 274v721h385v-629zM682 1239l154 317h282l-258 -317h-178zM547 1239h-174l49 317h274z" />
    <glyph glyph-name="Uogonek" unicode="&#x172;" horiz-adv-x="1454" 
d="M1341 522q0 -373 -288 -497l6 -2q-111 -119 -111 -195q0 -92 133 -102l-51 -207q-139 7 -232 73t-93 179t98 194q-37 -2 -76 -2q-276 0 -445 135t-169 424v912h409v-893q0 -203 205 -203q98 0 152 52q53 52 53 151v893h409v-912z" />
    <glyph glyph-name="uogonek" unicode="&#x173;" horiz-adv-x="1259" 
d="M487 444q0 -122 115 -120q115 0 168 133v616h387v-1073h-80q-111 -119 -110 -195q0 -92 133 -102l-51 -207q-139 8 -233 74q-93 66 -93 163t41 150t135 117l-61 133q-117 -158 -323 -158q-206 1 -309 103t-104 274v721h385v-629z" />
    <glyph glyph-name="Wcircumflex" unicode="&#x174;" horiz-adv-x="2052" 
d="M2064 1434l-475 -1434h-276l-283 764l-285 -764h-278l-479 1434h438l219 -758l250 758h287l262 -770l205 770h415zM971 1583h-283l250 318h225l240 -318h-270l-82 115z" />
    <glyph glyph-name="wcircumflex" unicode="&#x175;" horiz-adv-x="1634" 
d="M1634 1073l-397 -1073h-236l-190 539l-211 -539h-235l-365 1073h375l147 -559l185 559h239l176 -555l135 555h377zM743 1223h-282l250 317h225l240 -317h-271l-82 114z" />
    <glyph glyph-name="Ycircumflex" unicode="&#x176;" horiz-adv-x="1361" 
d="M885 0h-410v571l-495 863h471l243 -465l250 465h438l-497 -867v-567zM629 1583h-283l250 318h225l240 -318h-270l-82 115z" />
    <glyph glyph-name="ycircumflex" unicode="&#x177;" horiz-adv-x="1296" 
d="M396 -446q-171 0 -335 49l68 288q98 -31 187 -31t126 81l11 22l-428 1114h405l211 -671l190 671h424l-399 -1149q-70 -198 -180 -286t-280 -88zM543 1241h-283l250 318h225l240 -318h-270l-82 115z" />
    <glyph glyph-name="Ydieresis" unicode="&#x178;" horiz-adv-x="1361" 
d="M885 0h-410v571l-495 863h471l243 -465l250 465h438l-497 -867v-567zM929 1901q69 0 111 -40t43 -123q0 -83 -44 -124q-43 -41 -111 -41t-114 41t-46 124t46 123t115 40zM495 1901q69 0 113 -40t43 -124q0 -84 -45 -124q-46 -40 -112 -40t-113 40t-47 124t46 124t115 40z
" />
    <glyph glyph-name="Zacute" unicode="&#x179;" horiz-adv-x="1294" 
d="M1241 348v-348h-1188v244l604 841h-575v349h1116v-236l-635 -850h678zM768 1597h-207l115 330h418z" />
    <glyph glyph-name="zacute" unicode="&#x17a;" horiz-adv-x="1046" 
d="M987 328v-328h-909v250l391 500h-383v323h872v-258l-411 -487h440zM627 1210h-207l115 330h417z" />
    <glyph glyph-name="Zdotaccent" unicode="&#x17b;" horiz-adv-x="1294" 
d="M1241 348v-348h-1188v244l604 841h-575v349h1116v-236l-635 -850h678zM668 1931q78 0 131 -44t53 -131t-53 -131t-131 -44t-130 44t-52 131t52 131t130 44z" />
    <glyph glyph-name="zdotaccent" unicode="&#x17c;" horiz-adv-x="1046" 
d="M987 328v-328h-909v250l391 500h-383v323h872v-258l-411 -487h440zM526 1544q78 0 131 -44t53 -131t-52 -131q-54 -44 -131 -44t-130 44t-53 131t52 131t130 44z" />
    <glyph glyph-name="Zcaron" unicode="&#x17d;" horiz-adv-x="1294" 
d="M1241 348v-348h-1188v244l604 841h-575v349h1116v-236l-635 -850h678zM549 1610l-250 317h283l80 -115l81 115h271l-240 -317h-225z" />
    <glyph glyph-name="zcaron" unicode="&#x17e;" horiz-adv-x="1046" 
d="M987 328v-328h-909v250l391 500h-383v323h872v-258l-411 -487h440zM408 1223l-250 317h282l80 -115l82 115h270l-239 -317h-225z" />
    <glyph glyph-name="florin" unicode="&#x192;" horiz-adv-x="1075" 
d="M340 1077v99q0 182 100 281t299 99q129 0 254 -43l-71 -294q-62 18 -104 18t-64 -23t-23 -59v-78h213v-332h-213v-581q0 -166 -99 -274t-278 -107q-115 0 -167 13t-103 44l68 279q107 -28 131 -18q57 25 57 104v540h-119v332h119z" />
    <glyph glyph-name="Scommaaccent" unicode="&#x218;" horiz-adv-x="1265" 
d="M459 -479v370h280l-118 -370h-162zM766 446q0 43 -54 66q-30 12 -62 20q-340 85 -469 214q-89 91 -89 253q0 223 156 341t409 118q154 0 293 -42t213 -105l-172 -303q-141 104 -325 104q-145 0 -146 -90q0 -48 47 -69q47 -20 133 -44t134 -39q194 -61 282 -148t88 -255
q0 -238 -169 -365q-169 -126 -455 -126t-508 133l118 340q196 -95 386 -95t190 92z" />
    <glyph glyph-name="scommaaccent" unicode="&#x219;" horiz-adv-x="1017" 
d="M340 -479v370h281l-119 -370h-162zM438 291q146 0 146 55q0 27 -29 40q-29 12 -99 26q-368 70 -368 344q0 164 122 259t350 95t382 -111l-104 -258q-129 74 -281 74q-94 0 -94 -51q0 -22 14 -31q15 -8 25 -13t32 -11l38 -11q16 -4 50 -12l56 -14q152 -41 222 -115
t71 -203q0 -193 -136 -292t-346 -99q-127 0 -236 33t-175 80l82 289q132 -74 278 -74z" />
    <glyph glyph-name="uni021A" unicode="&#x21a;" horiz-adv-x="1372" 
d="M494 -479v370h280l-119 -370h-161zM1292 1085h-399v-1085h-410v1085h-401v349h1210v-349z" />
    <glyph glyph-name="uni021B" unicode="&#x21b;" horiz-adv-x="962" 
d="M399 -479v370h281l-119 -370h-162zM590 1073h260v-332h-260v-350q0 -80 78 -80q63 0 135 23l90 -271q-150 -100 -337 -100t-273 81t-86 261v436h-146v332h146v94l161 189h232v-283z" />
    <glyph glyph-name="circumflex" unicode="&#x2c6;" horiz-adv-x="819" 
d="M498 1223l-82 114l-80 -114h-283l250 317h225l240 -317h-270z" />
    <glyph glyph-name="caron" unicode="&#x2c7;" horiz-adv-x="819" 
d="M768 1540l-240 -317h-225l-250 317h283l80 -115l82 115h270z" />
    <glyph glyph-name="breve" unicode="&#x2d8;" horiz-adv-x="686" 
d="M348 1229q-141 0 -237.5 74.5t-106.5 236.5h166q23 -117 174 -117t178 117h160q-4 -112 -56 -184q-90 -128 -278 -127z" />
    <glyph glyph-name="dotaccent" unicode="&#x2d9;" horiz-adv-x="624" 
d="M311 1544q78 0 131.5 -44t53.5 -131t-53.5 -131t-131.5 -44t-130 44t-52 131t52 131t130 44z" />
    <glyph glyph-name="ring" unicode="&#x2da;" horiz-adv-x="819" 
d="M409.5 1442q-36.5 0 -55 -21.5t-18.5 -51.5t18.5 -51.5t54.5 -21.5t55 22.5t19 51.5t-18.5 50.5t-55 21.5zM409.5 1554q92.5 0 144.5 -53t52 -131t-52 -132t-144.5 -54t-144.5 54t-52 132t52 131t144.5 53z" />
    <glyph glyph-name="ogonek" unicode="&#x2db;" horiz-adv-x="581" 
d="M346 -195q0 -92 133 -102l-51 -207q-139 8 -232.5 73.5t-93.5 168t48.5 157t173.5 136.5l133 -31q-111 -119 -111 -195z" />
    <glyph glyph-name="tilde" unicode="&#x2dc;" horiz-adv-x="819" 
d="M583.5 1233q-73.5 0 -154.5 40t-114 40q-70 0 -100 -101l-186 103q25 115 92 170t138 55t149.5 -42t99.5 -42q57 1 98 107l205 -82q-29 -115 -91.5 -181.5t-136 -66.5z" />
    <glyph glyph-name="hungarumlaut" unicode="&#x2dd;" horiz-adv-x="819" 
d="M524 1239h-178l154 317h282zM211 1239h-174l49 317h274z" />
    <glyph glyph-name="commaaccentcomb" unicode="&#x326;" horiz-adv-x="0" 
d="M102 -479v370h281l-119 -370h-162z" />
    <glyph glyph-name="mu" unicode="&#x3bc;" horiz-adv-x="1355" 
d="M924 133q-122 -158 -272 -158q-56 0 -126 31v-379h-376v1446h385v-588q0 -162 147 -161q117 0 176 133v616h387v-1073h-260z" />
    <glyph glyph-name="Wgrave" unicode="&#x1e80;" horiz-adv-x="2052" 
d="M1589 0h-276l-283 764l-285 -764h-278l-479 1434h438l219 -758l250 758h287l262 -770l205 770h415zM1149 1571h-207l-326 330h418z" />
    <glyph glyph-name="wgrave" unicode="&#x1e81;" horiz-adv-x="1634" 
d="M1634 1073l-397 -1073h-236l-190 539l-211 -539h-235l-365 1073h375l147 -559l185 559h239l176 -555l135 555h377zM715 1210l-326 330h418l115 -330h-207z" />
    <glyph glyph-name="Wacute" unicode="&#x1e82;" horiz-adv-x="2052" 
d="M1589 0h-276l-283 764l-285 -764h-278l-479 1434h438l219 -758l250 758h287l262 -770l205 770h415zM1157 1571h-207l115 330h418z" />
    <glyph glyph-name="wacute" unicode="&#x1e83;" horiz-adv-x="1634" 
d="M1634 1073l-397 -1073h-236l-190 539l-211 -539h-235l-365 1073h375l147 -559l185 559h239l176 -555l135 555h377zM930 1210h-207l115 330h417z" />
    <glyph glyph-name="Wdieresis" unicode="&#x1e84;" horiz-adv-x="2052" 
d="M1589 0h-276l-283 764l-285 -764h-278l-479 1434h438l219 -758l250 758h287l262 -770l205 770h415zM1271 1901q69 0 111 -40t43 -123q0 -83 -44 -124q-43 -41 -111 -41t-114 41t-46 124t46 123t115 40zM837 1901q69 0 113 -40t43 -124q0 -84 -45 -124q-46 -40 -112 -40
t-113 40t-47 124t46 124t115 40z" />
    <glyph glyph-name="wdieresis" unicode="&#x1e85;" horiz-adv-x="1634" 
d="M1634 1073l-397 -1073h-236l-190 539l-211 -539h-235l-365 1073h375l147 -559l185 559h239l176 -555l135 555h377zM1042 1212q-68 0 -114 41t-45 124q0 83 46 123q47 40 115 40t111 -40t43 -123t-44 -124t-112 -41zM766 1376q0 -84 -46 -124t-112 -40t-112 40t-47 124
q0 84 46 124q47 40 115 40t112 -40t44 -124z" />
    <glyph glyph-name="uni1E9E" unicode="&#x1e9e;" horiz-adv-x="1497" 
d="M1407 383q0 -193 -121 -303t-340 -111q-174 0 -248 33l47 344q74 -29 131 -29t87 37q29 36 29 98q-1 123 -230 154v191l129 155q0 131 -133 131q-178 0 -178 -213v-870h-410v915q0 406 378 513q105 30 228 30q266 0 403 -143q136 -144 136 -416l-156 -168
q125 -41 187 -124t61 -224z" />
    <glyph glyph-name="Ygrave" unicode="&#x1ef2;" horiz-adv-x="1361" 
d="M885 0h-410v571l-495 863h471l243 -465l250 465h438l-497 -867v-567zM807 1571h-207l-326 330h418z" />
    <glyph glyph-name="ygrave" unicode="&#x1ef3;" horiz-adv-x="1296" 
d="M396 -446q-171 0 -335 49l68 288q98 -31 187 -31t126 81l11 22l-428 1114h405l211 -671l190 671h424l-399 -1149q-70 -198 -180 -286t-280 -88zM514 1229l-326 330h418l115 -330h-207z" />
    <glyph glyph-name="uni2009" unicode="&#x2009;" horiz-adv-x="40" 
 />
    <glyph glyph-name="endash" unicode="&#x2013;" horiz-adv-x="1157" 
d="M1061 369h-963v340h963v-340z" />
    <glyph glyph-name="emdash" unicode="&#x2014;" horiz-adv-x="1798" 
d="M1649 369h-1497v340h1497v-340z" />
    <glyph glyph-name="quoteleft" unicode="&#x2018;" horiz-adv-x="581" 
d="M278 807q-98 0 -168 69t-69 193q0 228 233 416l183 -64q-63 -63 -89 -100t-36 -78q55 -8 94 -39q72 -57 73 -167q1 -109 -61 -169t-160 -61z" />
    <glyph glyph-name="quoteright" unicode="&#x2019;" horiz-adv-x="591" 
d="M102 1245q0 119 64 179t162 60t166 -68q68 -69 67 -193q0 -232 -229 -416l-185 65q66 66 90 102t35 79q-84 14 -127 66t-43 126z" />
    <glyph glyph-name="quotesinglbase" unicode="&#x201a;" horiz-adv-x="581" 
d="M82 172q0 106 62 166t160 61t168 -67q69 -68 69 -195q0 -280 -254 -454l-168 43q117 115 149 241q-74 0 -130 50q-56 49 -56 155z" />
    <glyph glyph-name="quotedblleft" unicode="&#x201c;" horiz-adv-x="1114" 
d="M1073 974q0 -106 -62 -166q-63 -60 -161 -60t-167 68t-69 194q0 280 254 454l168 -43q-117 -115 -149 -241q74 0 130 -50t56 -156zM318 748q-98 0 -168 68q-68 68 -68 194q0 280 254 454l168 -43q-117 -115 -150 -241q74 0 130 -50t56 -156t-62 -166t-160 -60z" />
    <glyph glyph-name="quotedblright" unicode="&#x201d;" horiz-adv-x="1114" 
d="M778 1464q80 0 132 -28t87 -87q35 -60 35 -147q0 -280 -254 -454l-168 43q117 115 150 241q-74 0 -130 50t-56 156t62 166t142 60zM41 1238q0 106 62 166q63 60 161 60t167 -68t69 -194q0 -280 -254 -454l-168 43q117 115 149 241q-74 0 -130 50t-56 156z" />
    <glyph glyph-name="quotedblbase" unicode="&#x201e;" horiz-adv-x="1114" 
d="M796 399q98 1 168 -67q69 -68 68 -195q0 -280 -254 -454l-168 43q117 115 150 241q-74 0 -130 50q-56 49 -56 155t62 166t160 61zM41 172q0 106 62 166q63 60 161 61t167 -67t69 -195q0 -280 -254 -454l-168 43q117 115 149 241q-74 0 -130 50q-56 49 -56 155z" />
    <glyph glyph-name="dagger" unicode="&#x2020;" horiz-adv-x="915" 
d="M854 770h-221v-770h-346v770h-226v307h226v357h346v-357h221v-307z" />
    <glyph glyph-name="daggerdbl" unicode="&#x2021;" horiz-adv-x="886" 
d="M621 852v-172h204v-307h-204v-373h-353v373h-207v307h207v172h-207v307h207v275h353v-275h204v-307h-204z" />
    <glyph glyph-name="bullet" unicode="&#x2022;" horiz-adv-x="606" 
d="M300 885q86 1 150 -53t64 -156t-64 -158q-65 -55 -150 -55t-146 55q-62 56 -62 158t60 156t148 53z" />
    <glyph glyph-name="ellipsis" unicode="&#x2026;" horiz-adv-x="1843" 
d="M1257 189q0 113 69 171t161 58t160 -56q67 -56 67 -172q0 -115 -68 -174t-160 -59q-91 0 -160 59t-69 173zM694 189q0 113 68 171t159 58t157 -56t67 -173q0 -116 -67 -174q-68 -58 -158 -58t-158 59t-68 173zM356 -43q-92 0 -160 58t-67 174q1 117 67 173t159 56
t160 -56t67 -173q0 -116 -67 -174t-159 -58z" />
    <glyph glyph-name="perthousand" unicode="&#x2030;" horiz-adv-x="2508" 
d="M2103 561q-109 0 -109 -190t109 -191q63 0 86 44t23 144t-23 147q-23 46 -86 46zM1284 561q-108 0 -108 -190t108 -191q63 0 86 44t23 144t-23 147q-23 46 -86 46zM1735 370q0 184 101 288t267 104q167 0 273 -104t106 -289t-104 -287t-274 -102t-269 103
q-100 103 -100 287zM1284 762q166 0 272 -104t106 -289t-103 -287t-273 -102t-270 103t-100 287t100 288q102 104 268 104zM403 1257q-109 0 -109 -190t109 -190q63 0 86 44t23 144t-23 146t-86 46zM444 0h-211l981 1434h207zM35 1066q0 184 101 288t267 104q167 0 273 -104
t106 -288t-104 -288q-104 -102 -274 -102t-269 103q-100 103 -100 287z" />
    <glyph glyph-name="guilsinglleft" unicode="&#x2039;" horiz-adv-x="671" 
d="M590 782l-234 -264l234 -266l-182 -174l-367 438l356 442z" />
    <glyph glyph-name="guilsinglright" unicode="&#x203a;" horiz-adv-x="671" 
d="M631 516l-369 -438l-180 174l231 266l-231 264l190 176z" />
    <glyph glyph-name="fraction" unicode="&#x2044;" horiz-adv-x="550" 
d="M670 1606l-631 -1909h-205l633 1909h203z" />
    <glyph glyph-name="Euro" unicode="&#x20ac;" horiz-adv-x="1501" 
d="M934 -20q-246 0 -438 130t-260 375h-144v185h117l-2 53q0 25 2 49h-117v184h144q63 246 257 374t465 128q198 0 358 -69q81 -35 132 -82l-207 -277q-121 80 -276 80q-195 0 -283 -154h500l-37 -184h-514v-27q0 -39 4 -75h485l-37 -185h-385q94 -147 274 -147t308 113
l190 -258q-80 -93 -221 -153t-315 -60z" />
    <glyph glyph-name="trademark" unicode="&#x2122;" horiz-adv-x="1974" 
d="M1948 459h-303v461l-152 -187h-107l-153 180v-454h-291v975h270l238 -316l301 316h197v-975zM895 1145h-256v-686h-303v686h-248v289h807v-289z" />
    <glyph glyph-name="oneeighth" unicode="&#x215b;" horiz-adv-x="2299" 
d="M1753 255q0 -49 53 -73q27 -12 70 -12t73 26q29 26 29 66t-30 67q-31 25 -81 25t-82 -26t-32 -73zM1769 590q0 -35 27 -59q27 -23 72 -23q46 0 72 22t26 52q0 81 -98 80q-98 0 -99 -72zM1866 -39q-162 0 -268 71q-105 71 -105 203t115 197q-98 59 -98 173t103 183
q104 68 255 68q152 0 255 -70t103 -184t-112 -172q124 -70 124 -198t-105 -199q-105 -72 -267 -72zM328 819v371l-144 -37l-65 188l284 111h191v-633h182v-215h-631v215h183zM1550 1606l-630 -1909h-205l633 1909h202z" />
    <glyph glyph-name="threeeighths" unicode="&#x215c;" horiz-adv-x="2299" 
d="M1753 255q0 -49 53 -73q27 -12 70 -12t73 26q29 26 29 66t-30 67q-31 25 -81 25t-82 -26t-32 -73zM1868 662q-45 0 -72 -20t-27 -53q0 -34 27 -58q27 -23 72 -23q46 0 72 22t26 58q0 34 -26 54t-72 20zM1866 -39q-162 0 -268 71q-105 71 -105 203t115 197q-98 59 -98 173
q0 115 102 183t255 68t256 -70t103 -184t-112 -172q124 -70 124 -198t-105 -199q-105 -72 -267 -72zM770 858q0 -125 -108 -200q-108 -74 -288 -74q-182 0 -298 78l49 196q135 -41 218 -41t115 14t31 54q0 61 -108 61h-156v178h140q90 0 90 68q1 68 -97 68t-204 -54l-93 174
q136 90 322 93q238 0 322 -105q39 -49 38 -117q0 -131 -125 -196q152 -49 152 -197zM1550 1606l-630 -1909h-205l633 1909h202z" />
    <glyph glyph-name="fiveeighths" unicode="&#x215d;" horiz-adv-x="2299" 
d="M1753 255q0 -49 53 -73q27 -12 70 -12t73 26q29 26 29 66t-30 67q-31 25 -81 25t-82 -26t-32 -73zM1769 590q0 -35 27 -59q27 -23 72 -23q46 0 72 22t26 52q0 81 -98 80q-98 0 -99 -72zM1866 -39q-162 0 -268 71q-105 71 -105 203t115 197q-98 59 -98 173t103 183
q104 68 255 68q152 0 255 -70t103 -184t-112 -172q124 -70 124 -198t-105 -199q-105 -72 -267 -72zM408 1217v-113q58 29 164 29t174 -69q68 -68 67 -194q0 -126 -101 -206q-102 -80 -280 -80t-313 65l49 195q141 -39 220 -39q146 0 144 86q0 72 -88 72q-63 0 -122 -50
l-175 66v473h609v-235h-348zM1550 1606l-630 -1909h-205l633 1909h202z" />
    <glyph glyph-name="seveneighths" unicode="&#x215e;" horiz-adv-x="2299" 
d="M1753 255q0 -49 53 -73q27 -12 70 -12t73 26q29 26 29 66t-30 67q-31 25 -81 25t-82 -26t-32 -73zM1769 590q0 -35 27 -59q27 -23 72 -23q46 0 72 22t26 52q0 81 -98 80q-98 0 -99 -72zM1866 -39q-162 0 -268 71q-105 71 -105 203t115 197q-98 59 -98 173t103 183
q104 68 255 68q152 0 255 -70t103 -184t-112 -172q124 -70 124 -198t-105 -199q-105 -72 -267 -72zM98 1214v238h684v-227l-252 -621h-284l246 610h-394zM1550 1606l-630 -1909h-205l633 1909h202z" />
    <glyph glyph-name="minus" unicode="&#x2212;" horiz-adv-x="1433" 
d="M1225 600h-1016v205h1016v-205z" />
    <glyph glyph-name="notequal" unicode="&#x2260;" horiz-adv-x="1335" 
d="M1157 555v-205h-483l-92 -244h-205l92 244h-260v205h336l69 184h-405v205h481l94 250h205l-94 -250h262v-205h-338l-69 -184h407z" />
    <glyph glyph-name="uni2322" unicode="&#x2322;" 
d="M1024 608q180 0 317 -103t170 -259h-96q-64 136 -224 197q-79 30 -189 30t-216 -63q-106 -64 -153 -164h-96q33 156 170 259t317 103z" />
    <glyph glyph-name="uni2323" unicode="&#x2323;" 
d="M1024 199q-180 0 -317 103t-170 259h96q47 -104 153 -171q106 -66 238 -66t238 66q106 67 153 171h96q-33 -156 -170 -259t-317 -103z" />
    <glyph glyph-name="uni2639" unicode="&#x2639;" 
d="M733 219q0 106 85 181t206 75t206 -75t85 -181h110q1 159 -117 269t-284 110t-284 -111t-117 -268h110zM1205 1077q-93 1 -93 -197t93 -198t93 198t-93 197zM843 1077q-93 1 -93 -197t93 -198t93 198t-93 197zM1024 1458q328 0 560 -232t232 -561t-232 -563t-560 -233
q-328 0 -560 233q-232 232 -232 562t232 562t560 232z" />
    <glyph glyph-name="whiteSmilingFace" unicode="&#x263a;" 
d="M1024 199q180 0 317 103t170 259h-96q-47 -104 -153 -171q-106 -66 -238 -66t-238 66q-106 67 -153 171h-96q33 -156 170 -259t317 -103zM1205 1036q-93 0 -93 -198t93 -197q93 -1 93 197t-93 198zM843 1036q-93 0 -93 -198t93 -197q93 -1 93 197t-93 198zM1024 1458
q328 0 560 -232t232 -561t-232 -563t-560 -233q-328 0 -560 233q-232 232 -232 562t232 562t560 232z" />
    <glyph glyph-name="onefitted" unicode="&#xf6dc;" horiz-adv-x="1308" 
d="M1214 373v-373h-1038v373h316v606l-271 -94l-145 295l514 258h317v-1065h307z" />
    <glyph glyph-name="threequartersemdash" unicode="&#xf6de;" horiz-adv-x="1329" 
d="M1227 471h-1125v340h1125v-340z" />
    <glyph glyph-name="u1F600" unicode="&#x1f600;" 
d="M825 434q80 -16 166 -18v-115q-88 4 -166 27v106zM1225 328q-78 -23 -166 -27v115q86 4 166 20v-108zM1290 453q92 27 176 73q-43 -115 -176 -174v101zM760 352q-133 59 -176 174q86 -47 176 -73v-101zM1027 510q-349 0 -552 172q3 -250 151 -406t399 -156t399 158
q148 156 149 406q-197 -174 -546 -174zM1205 1036q-93 0 -93 -198t93 -197q93 -1 93 197t-93 198zM843 1036q-93 0 -93 -198t93 -197q93 -1 93 197t-93 198zM1024 1458q328 0 560 -232t232 -561t-232 -563t-560 -233q-328 0 -560 233q-232 232 -232 562t232 562t560 232z
" />
    <glyph glyph-name="u1F601" unicode="&#x1f601;" 
d="M825 434q80 -16 166 -18v-115q-88 4 -166 27v106zM1225 328q-78 -23 -166 -27v115q86 4 166 20v-108zM1290 453q92 27 176 73q-43 -115 -176 -174v101zM760 352q-133 59 -176 174q86 -47 176 -73v-101zM1027 510q-349 0 -552 172q3 -250 151 -406t399 -156t399 158
q148 156 149 406q-197 -174 -546 -174zM1248 973q56 0 69 -203h94q-4 143 -48 221t-114 78q-71 0 -115 -78t-49 -221h95q12 203 68 203zM800 973q56 0 68 -203h95q-5 143 -49 221t-114 78t-114 -78q-45 -78 -49 -221h94q13 203 69 203zM1024 1458q328 0 560 -232t232 -561
t-232 -563t-560 -233q-328 0 -560 233q-232 232 -232 562t232 562t560 232z" />
    <glyph glyph-name="u1F602" unicode="&#x1f602;" 
d="M1964 281q20 20 21 46q0 48 -53 64q-19 6 -49 11t-54 16q13 -32 19 -76t25 -61q19 -18 45 -19t46 19zM148 398q-82 -16 -84 -71q0 -26 20 -46t54 -18q52 2 65 86q6 36 16 69q-23 -10 -71 -20zM823 354v109q80 -16 168 -19v-116q-90 3 -168 26zM1059 328v116q88 2 168 19
v-109q-78 -22 -168 -26zM1294 379v100q94 29 181 76q-46 -115 -181 -176zM756 479v-100q-135 61 -181 176q87 -47 181 -76zM385 584q-20 20 -19 46t17 42q17 16 35 21t49 10t55 16q-10 -25 -15 -55t-10 -48q-12 -48 -64 -52q-25 0 -48 20zM1526 719q24 -7 72 -17t66 -28
t18 -44q1 -26 -19 -46t-47 -20t-44 18t-27 66q-9 48 -19 71zM297 629q0 -55 36 -92t82 -42t81 15q30 -102 107 -195q117 -133 293 -162q60 -11 128 -12q199 -1 337 99t191 270q35 -20 81 -15t82 42t36 92t-34 88t-132 48t-145 50l-10 -8q38 -52 53 -162q-187 -109 -457 -107
t-461 107q0 11 3 23t5 24t9 38t15 39q7 13 11 21t10 17l-8 8q-49 -35 -147 -50t-132 -48t-34 -88zM1215 1051q-67 0 -105 -74t-45 -211h86q9 188 65 188t68 -188h84q-4 137 -45 211t-108 74zM832 1051q-66 0 -107 -74t-45 -211h84q12 188 68 188t65 -188h86q-6 137 -45 211
q-40 74 -106 74zM1024 -131q-258 -1 -463 149t-287 388q-4 -16 -9 -50t-13 -70q-8 -37 -35 -59q-33 -35 -88 -35t-94 40q-39 38 -40 94t36 88q29 31 113 46t108 23q-20 88 -21 181q-1 217 105 399q106 183 290 289t398 106q215 0 397 -106q183 -106 289 -290t107 -398
q0 -92 -21 -181q31 -10 79 -17q47 -7 83 -17t66 -39t29 -84q-1 -54 -40 -94t-94 -40q-98 1 -122 98q-7 26 -13 64t-10 52q-53 -156 -164 -277q-112 -121 -264 -191t-322 -69z" />
    <glyph glyph-name="u1F603" unicode="&#x1f603;" 
d="M1025 416q227 0 409 102q-39 -135 -151 -207q-112 -71 -258 -71t-258 72t-151 206q182 -102 409 -102zM1026 502q-324 0 -510 160q0 -232 138 -376t370 -144t371 145q137 146 137 377q-182 -162 -506 -162zM1205 1098q-93 0 -93 -198t93 -198t93 198t-93 198zM843 1098
q-93 0 -93 -198t93 -198t93 198t-93 198zM1024 1458q328 0 560 -232t232 -561t-232 -563t-560 -233q-328 0 -560 233q-232 232 -232 562t232 562t560 232z" />
    <glyph glyph-name="u1F604" unicode="&#x1f604;" 
d="M1025 416q227 0 409 102q-39 -135 -151 -207q-112 -71 -258 -71t-258 72t-151 206q182 -102 409 -102zM1026 502q-324 0 -510 160q0 -232 138 -376t370 -144t371 145q137 146 137 377q-182 -162 -506 -162zM1248 973q56 0 69 -203h94q-4 143 -48 221t-114 78
q-71 0 -115 -78t-49 -221h95q12 203 68 203zM800 973q56 0 68 -203h95q-5 143 -49 221t-114 78t-114 -78q-45 -78 -49 -221h94q13 203 69 203zM1024 1458q328 0 560 -232t232 -561t-232 -563t-560 -233q-328 0 -560 233q-232 232 -232 562t232 562t560 232z" />
    <glyph glyph-name="u1F605" unicode="&#x1f605;" 
d="M1025 416q227 0 409 102q-39 -135 -151 -207q-112 -71 -258 -71t-258 72t-151 206q182 -102 409 -102zM1026 502q-324 0 -510 160q0 -232 138 -376t370 -144t371 145q137 146 137 377q-182 -162 -506 -162zM1522 838q0 18 23 53q24 35 32 55q8 -20 32 -55q23 -35 23 -57
t-15 -37q-15 -17 -35 -17q-60 -2 -60 58zM1464 835q0 -33 14 -59q30 -54 88 -53q58 0 91 32q33 33 33 73t-51 110q-50 70 -56 119h-12q-7 -49 -57 -119t-50 -103zM1248 973q56 0 69 -203h94q-4 143 -48 221t-114 78q-71 0 -115 -78t-49 -221h95q12 203 68 203zM800 973
q56 0 68 -203h95q-5 143 -49 221t-114 78t-114 -78q-45 -78 -49 -221h94q13 203 69 203zM1024 1458q328 0 560 -232t232 -561t-232 -563t-560 -233q-328 0 -560 233q-232 232 -232 562t232 562t560 232z" />
    <glyph glyph-name="u1F606" unicode="&#x1f606;" 
d="M1025 274q-146 0 -258 72t-151 207q182 -102 409 -102t409 102q-39 -135 -151 -207t-258 -72zM1532 698q-182 -162 -506 -162t-510 160q0 -231 138 -375q138 -145 370 -145t370 146t138 376zM1380 975l-41 108l-249 -149v-53l249 -166l41 108l-166 80v8zM958 934
l-249 149l-41 -108l166 -64v-8l-166 -80l41 -108l249 166v53zM1024 1458q328 0 560 -232t232 -561t-232 -563t-560 -233q-328 0 -560 233q-232 232 -232 562t232 562t560 232z" />
    <glyph glyph-name="u1F607" unicode="&#x1f607;" 
d="M1024 199q180 0 317 103t170 259h-96q-47 -104 -153 -171q-106 -66 -238 -66t-238 66q-106 67 -153 171h-96q33 -156 170 -259t317 -103zM1205 641q93 0 93 198t-93 197q-93 0 -93 -198t93 -197zM843 641q93 0 93 198t-93 197q-93 0 -93 -198t93 -197zM457 1487
q0 -37 41 -75t116 -69q188 115 410 115t410 -115q157 64 157 142q0 57 -73 106q-168 111 -535 111q-199 0 -363 -64t-163 -151zM1542 1266q275 -241 275 -621q-1 -195 -107 -379t-288 -290t-398 -107q-215 0 -398 106q-182 105 -288 289t-106 381q-1 384 274 621
q-172 96 -172 219t201 218t489 95q188 0 349 -44t251 -117t90 -154q0 -57 -45 -115t-127 -102z" />
    <glyph glyph-name="u1F608" unicode="&#x1f608;" 
d="M1024 199q180 0 317 103t170 259h-96q-47 -104 -153 -171t-238 -66q-180 0 -303 114q-57 53 -88 123h-96q33 -156 170 -259t317 -103zM1108 817q0 -193 90 -192q90 0 90 192v117l203 65l-23 88l-360 -114v-156zM760 817q0 -193 90 -192q90 0 90 192v156l-360 114l-23 -88
l203 -65v-117zM1024 -131q-215 0 -398 106q-182 105 -288 289t-107 400q0 158 58 299q57 141 162 249v414l299 -217q133 49 274 49t274 -49l299 217v-414q218 -233 220 -548q-1 -214 -107 -398t-288 -290t-398 -107z" />
    <glyph glyph-name="u1F609" unicode="&#x1f609;" 
d="M1024 199q180 0 317 103t170 259h-96q-47 -104 -153 -171q-106 -66 -238 -66t-238 66q-106 67 -153 171h-96q23 -102 91 -185t173 -130q104 -47 223 -47zM1372 950l-41 99l-215 -134v-79l215 -154l41 98l-141 94zM844 1075q-92 1 -92 -195t92 -196t92 196t-92 195z
M1024 1458q328 0 560 -232t232 -561t-232 -563t-560 -233q-328 0 -560 233q-232 232 -232 562t232 562t560 232z" />
    <glyph glyph-name="u1F60A" unicode="&#x1f60a;" 
d="M1024 350q-132 0 -238 67t-153 171h-96q33 -156 170 -259t317 -104q119 0 223 47t173 130t91 186h-96q-47 -104 -153 -171t-238 -67zM1248 973q56 0 69 -203h94q-4 143 -48 221t-114 78q-71 0 -115 -78t-49 -221h95q12 203 68 203zM800 973q56 0 68 -203h95
q-5 143 -49 221t-114 78t-114 -78q-45 -78 -49 -221h94q13 203 69 203zM1024 1458q328 0 560 -232t232 -561t-232 -563t-560 -233q-328 0 -560 233q-232 232 -232 562t232 562t560 232z" />
    <glyph glyph-name="u1F60B" unicode="&#x1f60b;" 
d="M1321 264q-51 -37 -131 74q74 27 131 76q31 -74 30 -105t-30 -45zM1024 412q-113 0 -200 56t-113 142h-105q29 -129 146 -215t272 -86q43 0 86 8q136 -206 250 -122q59 33 66 95t-48 185q47 61 64 135h-105q-45 -137 -205 -183q-52 -15 -108 -15zM1248 973q56 0 69 -203
h94q-4 143 -48 221t-114 78q-71 0 -115 -78t-49 -221h95q12 203 68 203zM800 973q56 0 68 -203h95q-5 143 -49 221t-114 78t-114 -78q-45 -78 -49 -221h94q13 203 69 203zM1024 1458q328 0 560 -232t232 -561t-232 -563t-560 -233q-328 0 -560 233q-232 232 -232 562
t232 562t560 232z" />
    <glyph glyph-name="u1F60C" unicode="&#x1f60c;" 
d="M1024 199q180 0 317 103t170 259h-96q-47 -104 -153 -171q-106 -66 -238 -66t-238 66q-106 67 -153 171h-96q33 -156 170 -259t317 -103zM1248 784q-56 0 -68 203h-95q5 -143 49 -221t114 -78t114 78q45 78 49 221h-94q-13 -203 -69 -203zM800 784q-56 0 -69 203h-94
q4 -143 48 -221t114 -78q71 0 115 78t49 221h-95q-12 -203 -68 -203zM1024 1458q328 0 560 -232t232 -561t-232 -563t-560 -233q-328 0 -560 233q-232 232 -232 562t232 562t560 232z" />
    <glyph glyph-name="u1F60E" unicode="&#x1f60e;" 
d="M1024 199q180 0 317 103t170 259h-96q-47 -104 -153 -171t-238 -66q-204 0 -330 142q-39 44 -61 95h-96q23 -102 91 -185t173 -130q104 -47 223 -47zM694 659h105q61 0 89 24t46 77l59 162h64l57 -162q14 -35 26 -54q30 -45 109 -47h105q76 0 112 33t58 105l39 125h123
l-54 108h-1229l-53 -108h137l37 -125q20 -72 58 -105t112 -33zM1024 1458q328 0 560 -232t232 -561t-232 -563t-560 -233q-328 0 -560 233q-232 232 -232 562t232 562t560 232z" />
    <glyph glyph-name="u1F60F" unicode="&#x1f60f;" 
d="M1024 340v-121q124 0 234 55q110 54 183 152t95 217h-123q-33 -133 -141 -218t-248 -85zM1438 735v123h-324v-123h324zM932 735v123h-324v-123h324zM1024 1458q328 0 560 -232t232 -561t-232 -563t-560 -233q-328 0 -560 233q-232 232 -232 562t232 562t560 232z" />
    <glyph glyph-name="u1F610" unicode="&#x1f610;" 
d="M1432 358v123h-816v-123h816zM1205 1036q-93 0 -93 -198t93 -197q93 -1 93 197t-93 198zM843 1036q-93 0 -93 -198t93 -197q93 -1 93 197t-93 198zM1024 1458q328 0 560 -232t232 -561t-232 -563t-560 -233q-328 0 -560 233q-232 232 -232 562t232 562t560 232z" />
    <glyph glyph-name="u1F611" unicode="&#x1f611;" 
d="M1432 358v123h-816v-123h816zM1438 735v123h-324v-123h324zM932 735v123h-324v-123h324zM1024 1458q328 0 560 -232t232 -561t-232 -563t-560 -233q-328 0 -560 233q-232 232 -232 562t232 562t560 232z" />
    <glyph glyph-name="u1F612" unicode="&#x1f612;" 
d="M1432 358v123h-816v-123h816zM1475 985h-414v-94h227q0 -199 93 -199t94 199v94zM946 985h-414v-94h228q0 -199 93 -199t93 199v94zM1024 1458q328 0 560 -232t232 -561t-232 -563t-560 -233q-328 0 -560 233q-232 232 -232 562t232 562t560 232z" />
    <glyph glyph-name="u1F613" unicode="&#x1f613;" 
d="M1432 248v123h-816v-123h816zM1606 580q0 -28 -20 -46q-20 -20 -50 -20q-31 0 -50 20q-38 39 -8 88q12 20 30 46t28 51q12 -25 41 -68t29 -71zM1395 569q0 -49 41 -89t100 -40t100 40t41 83q0 71 -61 145t-72 150h-14q-6 -35 -22 -69t-82 -127q-31 -44 -31 -93zM1110 872
q0 -195 90 -194q90 0 90 194v58l183 -90l24 88l-387 190v-246zM938 872v246l-385 -190l22 -88l183 90v-58q0 -195 90 -194q90 0 90 194zM1024 1458q328 0 560 -232t232 -561t-232 -563t-560 -233q-328 0 -560 233q-232 232 -232 562t232 562t560 232z" />
    <glyph glyph-name="u1F614" unicode="&#x1f614;" 
d="M1432 317v123h-816v-123h816zM1249 1008q-71 0 -115 -78t-49 -221h95q12 203 69 202q55 0 68 -202h94q-4 143 -48 221t-114 78zM800 1008q-70 0 -114 -78q-45 -78 -49 -221h94q12 203 68 202q57 0 69 -202h95q-5 143 -49 221t-114 78zM1024 1458q328 0 560 -232t232 -561
t-232 -563t-560 -233q-328 0 -560 233q-232 232 -232 562t232 562t560 232z" />
    <glyph glyph-name="u1F615" unicode="&#x1f615;" 
d="M791 186q248 264 700 254l-47 129q-453 8 -701 -256zM1292 911h-196v-73q0 -125 98 -125t98 125v73zM837 1016q-81 0 -81 -174t81 -174t81 174t-81 174zM1024 1458q328 0 560 -232t232 -561t-232 -563t-560 -233q-328 0 -560 233q-232 232 -232 562t232 562t560 232z" />
    <glyph glyph-name="u1F616" unicode="&#x1f616;" 
d="M705 496q67 0 117 -71q22 -31 46 -59q57 -69 158 -69t157 70q24 29 44 59q47 69 116 70q129 0 181 -150l98 27q-22 88 -70 148q-84 108 -195 112t-166 -63q-23 -28 -45 -54q-54 -67 -124 -67t-120 62q-22 27 -46 53q-57 64 -158 69q-155 0 -239 -172q-20 -41 -33 -88
l98 -27q51 150 181 150zM1430 799l47 127l-363 131l-47 -127zM940 1057l-362 -131l45 -127l362 131zM1024 1458q328 0 560 -232t232 -561t-232 -563t-560 -233q-328 0 -560 233q-232 232 -232 562t232 562t560 232z" />
    <glyph glyph-name="u1F61B" unicode="&#x1f61b;" 
d="M1024 193q-59 0 -90 58t-43 200h264q-12 -141 -42 -199t-89 -59zM1430 451v102h-812v-102h170q18 -358 236 -361q100 0 162 89q61 89 71 272h173zM1205 1036q-93 0 -93 -198t93 -197q93 -1 93 197t-93 198zM843 1036q-93 0 -93 -198t93 -197q93 -1 93 197t-93 198z
M1024 1458q328 0 560 -232t232 -561t-232 -563t-560 -233q-328 0 -560 233q-232 232 -232 562t232 562t560 232z" />
    <glyph glyph-name="u1F61C" unicode="&#x1f61c;" 
d="M1024 193q-59 0 -90 58t-41 200h262q-12 -141 -42 -199t-89 -59zM1430 451v102h-812v-102h173q16 -358 233 -361q100 0 162 89q61 89 71 272h173zM1372 950l-41 99l-215 -134v-79l215 -154l41 98l-141 94zM844 1075q-92 1 -92 -195t92 -196t92 196t-92 195zM1024 1458
q328 0 560 -232t232 -561t-232 -563t-560 -233q-328 0 -560 233q-232 232 -232 562t232 562t560 232z" />
    <glyph glyph-name="u1F61D" unicode="&#x1f61d;" 
d="M1024 193q-59 0 -90 58t-41 200h262q-12 -141 -42 -199t-89 -59zM1430 451v102h-812v-102h173q16 -358 233 -361q100 0 162 89q61 89 71 272h173zM1380 940l-41 109l-249 -150v-53l249 -166l41 108l-166 80v9zM958 899l-249 150l-41 -109l166 -63v-9l-166 -80l41 -108
l249 166v53zM1024 1458q328 0 560 -232t232 -561t-232 -563t-560 -233q-328 0 -560 233q-232 232 -232 562t232 562t560 232z" />
    <glyph glyph-name="u1F61E" unicode="&#x1f61e;" 
d="M1024 432q132 0 238 -63t153 -164h96q-33 156 -170 259t-317 103t-317 -103t-170 -259h96q47 99 153 163t238 64zM1143 846q0 -184 86 -184t88 182l78 -43v127l-297 157v-120l45 -25v-94zM819 662q86 0 86 184v94l45 25v120l-297 -157v-127l78 43q2 -182 88 -182z
M1024 1458q328 0 560 -232t232 -561t-232 -563t-560 -233q-328 0 -560 233q-232 232 -232 562t232 562t560 232z" />
    <glyph glyph-name="u1F61F" unicode="&#x1f61f;" 
d="M1024 365q-61 0 -100 -35t-50 -97h62q18 59 88 59t88 -59h62q-10 61 -50 97t-100 35zM1024 557q-160 0 -264 -72t-137 -184h90q73 154 311 154q123 0 201 -42t110 -112h90q-33 113 -137 185t-264 71zM1143 887q0 -184 88 -185q84 0 86 183l78 -43v127l-297 157v-120
l45 -25v-94zM905 887v94l45 25v120l-297 -157v-127l78 43q2 -182 86 -183q88 0 88 185zM1024 1458q328 0 560 -232t232 -561t-232 -563t-560 -233q-328 0 -560 233q-232 232 -232 562t232 562t560 232z" />
    <glyph glyph-name="u1F620" unicode="&#x1f620;" 
d="M1024 473q132 0 238 -63t153 -164h96q-20 102 -90 185t-174 130t-223 47q-180 0 -317 -103t-170 -259h96q47 100 153 164t238 63zM1108 817q0 -193 90 -192q90 0 90 192v117l203 65l-23 88l-360 -114v-156zM760 817q0 -193 90 -192q90 0 90 192v156l-360 114l-23 -88
l203 -65v-117zM1024 1458q328 0 560 -232t232 -561t-232 -563t-560 -233q-328 0 -560 233q-232 232 -232 562t232 562t560 232z" />
    <glyph glyph-name="u1F621" unicode="&#x1f621;" 
d="M1024 365q-61 0 -100 -35t-50 -97h62q18 59 88 59t88 -59h62q-10 61 -50 97t-100 35zM1024 557q-160 0 -264 -72t-137 -184h90q73 154 311 154q123 0 201 -42t110 -112h90q-33 113 -137 185t-264 71zM1108 817q0 -193 90 -192q90 0 90 192v117l203 65l-23 88l-360 -114
v-156zM760 817q0 -193 90 -192q90 0 90 192v156l-360 114l-23 -88l203 -65v-117zM1024 1458q328 0 560 -232t232 -561t-232 -563t-560 -233q-328 0 -560 233q-232 232 -232 562t232 562t560 232z" />
    <glyph glyph-name="u1F622" unicode="&#x1f622;" 
d="M1004 309q98 0 168 -18q143 -37 182 -127h116q-31 121 -155 201q-125 79 -291 79t-291 -80t-155 -200h116q29 63 120 104q92 41 190 41zM1256 545q-80 -1 -80 77q0 20 30 66q31 45 41 72q12 -27 43 -72t31 -73q-1 -28 -21 -49t-44 -21zM1237 469q101 0 136 66t12 122
q-12 34 -42 74q-30 41 -40 57q94 53 104 250h-94q-14 -160 -75 -159q-60 0 -73 159h-94q8 -215 117 -258q-4 -6 -29 -40t-41 -64t-16 -76q0 -47 42 -89t93 -42zM811 772q74 0 118 69t48 197h-94q-12 -160 -73 -159q-60 0 -75 159h-94q6 -130 51 -198t119 -68zM1024 1458
q328 0 560 -232t232 -561t-232 -563t-560 -233q-328 0 -560 233q-232 232 -232 562t232 562t560 232z" />
    <glyph glyph-name="u1F623" unicode="&#x1f623;" 
d="M1024 473q132 0 238 -63t153 -164h96q-20 102 -90 185t-174 130t-223 47q-180 0 -317 -103t-170 -259h96q47 100 153 164t238 63zM1380 940l-41 109l-249 -150v-53l249 -166l41 108l-166 80v9zM958 899l-249 150l-41 -109l166 -63v-9l-166 -80l41 -108l249 166v53z
M1024 1458q328 0 560 -232t232 -561t-232 -563t-560 -233q-328 0 -560 233q-232 232 -232 562t232 562t560 232z" />
    <glyph glyph-name="u1F624" unicode="&#x1f624;" 
d="M1505 -213l-6 37q135 -8 150 -94q17 -76 -44 -115q-17 -10 -49 -15t-61 15q0 -47 -26 -76t-64 -35q-90 -14 -123 74q-16 -29 -61 -37t-79 16t-44 74q-14 82 108 142l6 -37q-66 -45 -56 -97t75 -45q25 2 35 29l30 -2q27 -71 99 -61q71 14 71 92l29 12q16 -18 44 -15t43 23
t9 49q-8 45 -75 64h-5zM834 -264l8 37q123 -55 108 -140q-10 -51 -44 -75t-78 -17q-44 6 -62 37q-33 -87 -123 -72q-39 6 -65 36t-25 77q-25 -25 -70 -17t-69 44q-24 35 -15 86q14 82 150 94l-6 -37q-25 -6 -37 -10q-12 -3 -28 -19t-22 -42q-5 -26 10 -45t41 -24t46 17
l29 -12q0 -39 20 -64t51 -28q70 -12 99 61l30 2q10 -25 37 -30q59 -11 74 51q4 36 -17 56q-22 21 -42 34zM1067 887l27 -94l323 96l-28 92zM631 889l325 -96l27 94l-324 94zM231 662q-1 218 105 401t290 289t398 106q215 0 397 -106q183 -106 289 -290t106 -398t-107 -398
q-108 -184 -288 -291l-96 379q55 -37 86 -88h92q-47 143 -211 215l-43 172l-41 -8l37 -145q-31 10 -63 18l-19 119l-39 -6l15 -107q-55 8 -113 8t-108 -6l14 105l-39 6l-19 -119q-33 -6 -61 -14l35 141l-41 8l-41 -168q-172 -72 -221 -219h92q33 55 96 94l-98 -389
q-184 105 -294 289t-110 402zM1376 -47l45 22l68 -264l-51 -8zM1376 -47q-47 -25 -98 -41l-78 496q39 -10 72 -25zM1026 -131q-104 0 -201 25l-32 -224l-52 11l37 227l47 -14l76 524q57 10 125 10t129 -12l76 -518l47 14l37 -231l-51 -11l-33 228q-101 -29 -205 -29z
M778 -92q-51 16 -100 41l-60 -246l-51 8l68 260l43 -22l106 438q33 12 72 23z" />
    <glyph glyph-name="u1F625" unicode="&#x1f625;" 
d="M1024 473q204 0 330 -136q39 -42 61 -91h96q-23 102 -91 185q-69 83 -173 130t-223 47q-180 0 -317 -103t-170 -259h96q47 100 153 164t238 63zM1626 622q0 -28 -19 -48t-51 -19q-32 0 -50 19q-19 19 -19 48q-1 29 29 71t40 67q12 -25 41 -68q29 -42 29 -70zM1556 481
q59 0 101 40q41 40 41 87t-29 92q-29 44 -63 96t-41 103h-15q-11 -77 -72 -149q-61 -73 -62 -131t40 -98t100 -40zM1436 864l-308 168l-53 -90l309 -168zM973 942l-53 90l-308 -168l52 -90zM1024 1458q328 0 560 -232t232 -561t-232 -563t-560 -233q-328 0 -560 233
q-232 232 -232 562t232 562t560 232z" />
    <glyph glyph-name="u1F626" unicode="&#x1f626;" 
d="M739 317q17 107 99 163t186 56t185 -56t100 -163h-570zM1024 645q-176 0 -286 -116t-128 -314h828q-18 199 -128 315t-286 115zM1205 1145q-93 0 -93 -198t93 -197q93 0 93 198t-93 197zM843 1145q-93 0 -93 -198t93 -197q93 0 93 198t-93 197zM1024 1458q328 0 560 -232
t232 -561t-232 -563t-560 -233q-328 0 -560 233q-232 232 -232 562t232 562t560 232z" />
    <glyph glyph-name="u1F627" unicode="&#x1f627;" 
d="M1002 510q191 0 291 -103q52 -54 75 -133q-141 41 -344 41t-344 -41q33 116 126 176q92 60 196 60zM1024 623q-209 -1 -333 -139t-126 -357q180 82 459 82q143 0 276 -22t183 -60q0 143 -56 255q-55 112 -159 176t-244 65zM1110 858q0 -195 90 -194q90 0 90 194v57
l183 -90l24 88l-387 191v-246zM938 858v246l-385 -191l22 -88l183 90v-57q0 -195 90 -194q90 0 90 194zM1024 1458q328 0 560 -232t232 -561t-232 -563t-560 -233q-328 0 -560 233q-232 232 -232 562t232 562t560 232z" />
    <glyph glyph-name="u1F628" unicode="&#x1f628;" 
d="M1024 559q104 0 185 -56t100 -163h-570q17 106 99 162t186 57zM1024 668q-176 0 -286 -116t-128 -314h828q-18 198 -128 314t-286 116zM1287 946q-22 0 -36 -15t-14 -35t14 -36t36 -16t37 15t15 35t-15 36t-37 16zM761 946q-22 0 -37 -15t-15 -33t11 -36t37 -18t40 15
t14 35t-14 36t-36 16zM1287 1026q54 0 93 -38t39 -93t-39 -93t-93 -38t-93 38t-39 93t39 93t93 38zM761 1026q54 0 93 -38t39 -93t-39 -93t-84 -38t-76 17q-65 36 -65 102q0 67 39 105t93 38zM1288 1102q-86 0 -146 -60t-60 -147q0 -86 60 -146q60 -61 146 -61t146 60
t61 147q-1 87 -61 147t-146 60zM760 1102q-86 0 -146 -60t-61 -147q0 -86 60 -146q61 -61 147 -61t146 60t61 147q-1 87 -61 147t-146 60zM1024 1458q328 0 560 -232t232 -561t-232 -563t-560 -233q-328 0 -560 233q-232 232 -232 562t232 562t560 232z" />
    <glyph glyph-name="u1F62E" unicode="&#x1f62e;" 
d="M1122 174q130 0 192 102q28 47 28 118t-60 131q-59 61 -145 61q-85 0 -145 -60t-60 -146q0 -85 59 -146q61 -60 131 -60zM1144 1036q-93 0 -93 -198t93 -197q93 -1 93 197t-93 198zM781 1036q-93 0 -93 -198t93 -197q93 -1 93 197t-93 198zM1024 1458q328 0 560 -232
t232 -561t-232 -563t-560 -233q-328 0 -560 233q-232 232 -232 562t232 562t560 232z" />
    <glyph glyph-name="u1F633" unicode="&#x1f633;" 
d="M756 424q0 -111 79 -190q79 -78 189 -78t188 78t78 190h-534zM1348 498q24 -41 60 -63t99 -29q118 16 160 92h-319zM381 498q25 -41 61 -63t99 -29q118 15 159 92h-319zM1321 594q0 -22 4 -43h365q6 20 6 43t-6 45h-363q-6 -23 -6 -45zM354 594q0 -22 4 -43h365
q6 20 6 43t-6 45h-363q-6 -23 -6 -45zM1508 778q-104 0 -160 -88h319q-55 88 -159 88zM542 778q-103 0 -159 -88h317q-55 88 -158 88zM1444 991l-307 113l-41 -115l307 -112zM909 1104l-307 -113l43 -114l307 112zM1024 1458q328 0 560 -232t232 -561t-232 -563t-560 -233
q-328 0 -560 233q-232 232 -232 562t232 562t560 232z" />
    <glyph glyph-name="b.sup" horiz-adv-x="948" 
d="M471 983q53 0 82 43t29 104q0 131 -101 132q-67 0 -102 -66v-178q39 -35 92 -35zM379 1692v-275q87 78 203 78t200 -90t84 -266q0 -107 -32 -189q-53 -138 -183 -188q-51 -20 -100 -21q-139 0 -209 95h-6l-41 -80h-193v936h277z" />
    <glyph glyph-name="T_h" horiz-adv-x="2447" 
d="M1659 1434v-480q127 143 321 144q143 0 254 -100t111 -259v-739h-391v639q0 53 -27 83t-67 30q-111 0 -199 -134v-618h-389v1063h-385v-1063h-420v1063h-385v371h1577z" />
    <glyph glyph-name="f_f_j" horiz-adv-x="2121" 
d="M1999 1073v-1132q0 -164 -120 -282t-307 -118t-300 66l78 289q68 -23 136 -23t96 24t28 85v759h-336v-741h-391v741h-330v-741h-391v741h-131v332h131v119q0 168 110 276t322 109q154 0 229 -43l-55 -270q-55 14 -113 14q-102 0 -102 -104v-101h330v103q1 192 115 288
t323 96t383 -98l-133 -262q-90 61 -174 62q-123 0 -123 -105v-84h725z" />
    <glyph glyph-name="f_i" horiz-adv-x="1372" 
d="M1249 1073v-1073h-389v741h-307v-741h-391v741h-131v332h131v103q0 192 114 288t324 96q209 0 383 -98l-133 -262q-90 61 -174 62q-123 0 -123 -105v-84h696z" />
    <glyph glyph-name="f_j" horiz-adv-x="1406" 
d="M1284 1073v-1132q0 -164 -120 -282t-307 -118t-300 66l78 289q69 -23 137 -23t96 24t27 85v759h-342v-741h-391v741h-131v332h131v103q0 192 114 288t324 96q209 0 383 -98l-133 -262q-90 61 -174 62q-123 0 -123 -105v-84h731z" />
    <glyph glyph-name="f_l" horiz-adv-x="1462" 
d="M158 1073v94q0 166 143 288t399 122q584 0 584 -487v-1090h-397v1092q0 182 -170 182q-76 0 -122 -39t-46 -115v-47h207v-325h-207v-748h-391v748h-131v325h131z" />
    <glyph glyph-name="f_t" horiz-adv-x="1660" 
d="M1254 -37q-187 0 -273 81t-86 261v436h-342v-741h-391v741h-131v332h131v119q0 168 110 276t322 109q154 0 229 -43l-55 -270q-55 14 -113 14q-102 0 -102 -104v-101h342v94l162 189h231v-283h260v-332h-260v-350q0 -80 78 -80q63 0 135 23l90 -271q-150 -100 -337 -100z
" />
    <glyph glyph-name="a.sc" horiz-adv-x="1343" 
d="M784 424l-112 344l-115 -344h227zM872 158h-403l-53 -158h-365l430 1167h379l432 -1167h-366z" />
    <glyph glyph-name="aacute.sc" horiz-adv-x="1343" 
d="M784 424l-112 344l-115 -344h227zM872 158h-403l-53 -158h-365l430 1167h379l432 -1167h-366zM768 1305h-207l115 329h418z" />
    <glyph glyph-name="abreve.sc" horiz-adv-x="1343" 
d="M784 424l-112 344l-115 -344h227zM872 158h-403l-53 -158h-365l430 1167h379l432 -1167h-366zM666 1253q-141 0 -238 75q-96 75 -106 237h165q23 -117 175 -117t178 117h159q-4 -111 -55 -184q-89 -128 -278 -128z" />
    <glyph glyph-name="acircumflex.sc" horiz-adv-x="1343" 
d="M784 424l-112 344l-115 -344h227zM872 158h-403l-53 -158h-365l430 1167h379l432 -1167h-366zM582 1317h-283l250 317h225l240 -317h-271l-81 115z" />
    <glyph glyph-name="adieresis.sc" horiz-adv-x="1343" 
d="M784 424l-112 344l-115 -344h227zM872 158h-403l-53 -158h-365l430 1167h379l432 -1167h-366zM882 1634q70 0 112 -40t42 -123t-44 -123t-111 -41q-68 0 -114 41q-46 42 -46 124t46 122t115 40zM448 1634q68 0 112 -40t44 -124t-45 -124t-111 -39q-66 0 -114 40
q-47 39 -47 123t46 124t115 40z" />
    <glyph glyph-name="agrave.sc" horiz-adv-x="1343" 
d="M784 424l-112 344l-115 -344h227zM872 158h-403l-53 -158h-365l430 1167h379l432 -1167h-366zM553 1305l-326 329h418l115 -329h-207z" />
    <glyph glyph-name="amacron.sc" horiz-adv-x="1343" 
d="M784 424l-112 344l-115 -344h227zM872 158h-403l-53 -158h-365l430 1167h379l432 -1167h-366zM971 1352h-611v176h611v-176z" />
    <glyph glyph-name="aogonek.sc" horiz-adv-x="1343" 
d="M784 424l-112 344l-115 -344h227zM1161 -195q0 -92 133 -102l-51 -207q-139 8 -232 74t-93 163t40 150q41 53 136 117h-168l-54 158h-403l-53 -158h-365l430 1167h379l432 -1167h-20q-111 -119 -111 -195z" />
    <glyph glyph-name="aring.sc" horiz-adv-x="1343" 
d="M784 424l-112 344l-115 -344h227zM872 158h-403l-53 -158h-365l430 1167h379l432 -1167h-366zM666 1536q-38 0 -56 -22t-18 -52t18 -50q18 -22 54 -22t56 24q19 22 19 50t-18 50t-55 22zM666 1278q-92 0 -145 54q-52 54 -52 132t52 131q53 53 145 53t144 -52
q52 -54 52 -132t-52 -132t-144 -54z" />
    <glyph glyph-name="atilde.sc" horiz-adv-x="1343" 
d="M784 424l-112 344l-115 -344h227zM872 158h-403l-53 -158h-365l430 1167h379l432 -1167h-366zM830 1327q-74 0 -155 40t-114 40q-70 0 -100 -100l-187 102q25 115 93 170q69 55 139 55t148 -42t100 -42q57 1 98 107l205 -82q-29 -115 -91 -181t-136 -67z" />
    <glyph glyph-name="ae.sc" horiz-adv-x="1802" 
d="M883 469v307l-162 -307h162zM1272 860v-112h391v-308h-391v-133h463v-307h-852v162h-324l-84 -162h-424l660 1167h1024v-307h-463z" />
    <glyph glyph-name="b.sc" horiz-adv-x="1202" 
d="M500 281h108q70 1 96 25t25 81q0 90 -108 90h-121v-196zM500 692h127q88 6 88 90t-90 84h-125v-174zM668 1167q417 0 417 -295q0 -88 -43 -164t-127 -114q121 -27 174 -91q52 -65 52 -175q0 -162 -120 -245t-319 -83h-569v1167h535z" />
    <glyph glyph-name="c.sc" horiz-adv-x="1126" 
d="M63 586q0 293 172.5 449.5t427.5 156.5t418 -127l-163 -256q-74 51 -189 51t-182.5 -67.5t-67.5 -206.5t71 -213t185.5 -74t212.5 63l152 -253q-137 -133 -416.5 -133.5t-450 158.5t-170.5 452z" />
    <glyph glyph-name="cacute.sc" horiz-adv-x="1126" 
d="M63 586q1 294 173 450t427 156t418 -127l-163 -256q-74 51 -189 51t-183 -68t-67 -206q0 -139 71 -213q72 -74 186 -74t212 63l152 -253q-136 -133 -416 -133t-451 158q-170 159 -170 452zM758 1305h-207l115 329h417z" />
    <glyph glyph-name="ccaron.sc" horiz-adv-x="1126" 
d="M63 586q1 294 173 450t427 156t418 -127l-163 -256q-74 51 -189 51t-183 -68t-67 -206q0 -139 71 -213q72 -74 186 -74t212 63l152 -253q-136 -133 -416 -133t-451 158q-170 159 -170 452zM539 1317l-250 317h282l80 -114l82 114h271l-240 -317h-225z" />
    <glyph glyph-name="ccedilla.sc" horiz-adv-x="1126" 
d="M676 -276q0 34 -31 34q-18 0 -39 -14l-119 104l62 136q-217 36 -351 190t-135 414q0 195 83 334q161 270 530 270q242 0 405 -127l-163 -256q-74 51 -189 51t-183 -68t-67 -204q0 -207 155 -271q46 -18 103 -18q113 0 211 63l152 -253q-125 -122 -381 -132l-41 -86
q106 16 163 -29q56 -46 56 -121t-41 -132q-81 -112 -260 -129l-66 149q146 27 146 95z" />
    <glyph glyph-name="cdotaccent.sc" horiz-adv-x="1126" 
d="M63 586q1 294 173 450t427 156t418 -127l-163 -256q-74 51 -189 51t-183 -68t-67 -206q0 -139 71 -213q72 -74 186 -74t212 63l152 -253q-136 -133 -416 -133t-451 158q-170 159 -170 452zM657 1638q78 0 131 -44q54 -44 54 -131t-54 -131t-130 -44q-77 0 -130 44
t-53 131t52 131t130 44z" />
    <glyph glyph-name="d.sc" horiz-adv-x="1310" 
d="M522 856v-549h90q242 0 242 285q0 264 -242 264h-90zM133 1167h504q281 0 446.5 -143t165.5 -438t-163.5 -440.5t-448.5 -145.5h-504v1167z" />
    <glyph glyph-name="eth.sc" horiz-adv-x="1310" 
d="M522 307h90q242 0 242 285q0 264 -242 264h-90v-94h170v-316h-170v-139zM133 1167h504q281 0 447 -143t165 -438q0 -294 -164 -440t-448 -146h-504v446h-170v316h170v405z" />
    <glyph glyph-name="dcaron.sc" horiz-adv-x="1310" 
d="M522 307h90q242 0 242 285q0 264 -242 264h-90v-549zM133 1167h504q281 0 447 -143t165 -438q0 -294 -164 -440t-448 -146h-504v1167zM520 1317l-250 317h283l80 -114l82 114h270l-240 -317h-225z" />
    <glyph glyph-name="dcroat.sc" horiz-adv-x="1310" 
d="M522 856v-549h90q242 0 242 285q0 264 -242 264h-90zM133 1167h504q281 0 447 -143t165 -438q0 -294 -164 -440t-448 -146h-504v1167zM942 1352h-610v176h610v-176z" />
    <glyph glyph-name="e.sc" horiz-adv-x="1052" 
d="M985 860h-463v-121h391v-307h-391v-125h463v-307h-852v1167h852v-307z" />
    <glyph glyph-name="eacute.sc" horiz-adv-x="1052" 
d="M985 860h-463v-121h391v-307h-391v-125h463v-307h-852v1167h852v-307zM674 1305h-207l115 329h417z" />
    <glyph glyph-name="ebreve.sc" horiz-adv-x="1052" 
d="M985 860h-463v-121h391v-307h-391v-125h463v-307h-852v1167h852v-307zM571 1253q-141 0 -237 75t-107 237h166q23 -117 174 -117t178 117h160q-4 -111 -55 -184q-89 -128 -279 -128z" />
    <glyph glyph-name="ecaron.sc" horiz-adv-x="1052" 
d="M522 860v-121h391v-307h-391v-125h463v-307h-852v1167h852v-307h-463zM455 1317l-250 317h282l80 -114l82 114h271l-240 -317h-225z" />
    <glyph glyph-name="ecircumflex.sc" horiz-adv-x="1052" 
d="M522 860v-121h391v-307h-391v-125h463v-307h-852v1167h852v-307h-463zM487 1317h-282l250 317h225l240 -317h-271l-82 115z" />
    <glyph glyph-name="edieresis.sc" horiz-adv-x="1052" 
d="M985 860h-463v-121h391v-307h-391v-125h463v-307h-852v1167h852v-307zM942 1471q0 -83 -44 -123t-112 -41q-68 0 -114 41q-46 42 -45 124q-1 82 45 122t115 40t112 -40t43 -123zM510 1470q0 -84 -45 -124t-112 -39q-67 0 -113 40q-46 39 -47 123t45 124t115 40t113 -40
t44 -124z" />
    <glyph glyph-name="edotaccent.sc" horiz-adv-x="1052" 
d="M985 860h-463v-121h391v-307h-391v-125h463v-307h-852v1167h852v-307zM573 1638q77 0 131 -44t54 -131t-53 -131t-131 -44t-131 44q-52 44 -52 131t52 131t130 44z" />
    <glyph glyph-name="egrave.sc" horiz-adv-x="1052" 
d="M985 860h-463v-121h391v-307h-391v-125h463v-307h-852v1167h852v-307zM666 1305h-207l-326 329h418z" />
    <glyph glyph-name="emacron.sc" horiz-adv-x="1052" 
d="M985 860h-463v-121h391v-307h-391v-125h463v-307h-852v1167h852v-307zM877 1352h-611v176h611v-176z" />
    <glyph glyph-name="eogonek.sc" horiz-adv-x="1052" 
d="M522 860v-121h391v-307h-391v-125h463v-307h-270q-90 -102 -90 -172q0 -92 133 -102l-51 -207q-139 8 -233 73q-93 66 -93 173t63 170q29 30 80 65h-391v1167h852v-307h-463z" />
    <glyph glyph-name="f.sc" horiz-adv-x="989" 
d="M969 860h-467v-215h405v-307h-405v-338h-369v1167h836v-307z" />
    <glyph glyph-name="g.sc" horiz-adv-x="1212" 
d="M1145 709v-496q-53 -102 -186.5 -171t-325.5 -69q-238 1 -403 141q-83 70 -130 193t-47 285q0 299 166 449.5t413.5 150.5t463.5 -115l-160 -284q-111 66 -256 65q-248 0 -248 -275.5t225 -275.5q102 0 154 58v86h-207v258h541z" />
    <glyph glyph-name="gbreve.sc" horiz-adv-x="1212" 
d="M1145 709v-496q-53 -102 -187 -171t-325 -69q-236 0 -403 141q-83 72 -130 194t-47 284q0 300 166 450q165 150 413 150t464 -115l-160 -284q-111 66 -256 65q-248 0 -248 -276t225 -275q102 0 154 58v86h-207v258h541zM645 1253q-141 0 -237 75t-107 237h166
q23 -117 174 -117t178 117h160q-4 -111 -55 -184q-89 -128 -279 -128z" />
    <glyph glyph-name="gcommaaccent.sc" horiz-adv-x="1212" 
d="M541 -487v370h280l-119 -370h-161zM1145 709v-496q-53 -102 -187 -171t-325 -69q-236 0 -403 141q-83 72 -130 194t-47 284q0 300 166 450q165 150 413 150t464 -115l-160 -284q-111 66 -256 65q-248 0 -248 -276t225 -275q102 0 154 58v86h-207v258h541z" />
    <glyph glyph-name="gdotaccent.sc" horiz-adv-x="1212" 
d="M1145 709v-496q-53 -102 -187 -171t-325 -69q-236 0 -403 141q-83 72 -130 194t-47 284q0 300 166 450q165 150 413 150t464 -115l-160 -284q-111 66 -256 65q-248 0 -248 -276t225 -275q102 0 154 58v86h-207v258h541zM647 1638q78 0 131 -44t53 -131t-53 -131t-131 -44
t-130 44t-52 131t52 131t130 44z" />
    <glyph glyph-name="h.sc" horiz-adv-x="1419" 
d="M1286 1167v-1167h-403v414h-361v-414h-389v1167h389v-428h361v428h403z" />
    <glyph glyph-name="hbar.sc" horiz-adv-x="1378" 
d="M883 846h-361v-107h361v107zM1352 846h-66v-846h-403v414h-361v-414h-389v846h-106v190h106v131h389v-131h361v131h403v-131h66v-190z" />
    <glyph glyph-name="dotlessi.sc" horiz-adv-x="714" 
d="M541 0h-367v1167h367v-1167z" />
    <glyph glyph-name="iacute.sc" horiz-adv-x="714" 
d="M541 0h-367v1167h367v-1167zM467 1307h-207l115 329h418z" />
    <glyph glyph-name="icircumflex.sc" horiz-adv-x="714" 
d="M174 1167h367v-1167h-367v1167zM281 1319h-283l250 317h225l240 -317h-271l-82 115z" />
    <glyph glyph-name="idieresis.sc" horiz-adv-x="714" 
d="M541 0h-367v1167h367v-1167zM581 1636q69 0 111 -40t43 -123q0 -83 -44 -123q-43 -40 -111 -41q-68 0 -114 41q-46 42 -46 124t46 122t115 40zM147 1636q69 0 113 -40t43 -124q0 -84 -45 -124q-46 -40 -112 -39q-66 0 -113 40q-47 39 -47 123t46 124t115 40z" />
    <glyph glyph-name="igrave.sc" horiz-adv-x="714" 
d="M541 0h-367v1167h367v-1167zM459 1307h-207l-326 329h418z" />
    <glyph glyph-name="ij.sc" horiz-adv-x="1566" 
d="M1434 1165v-790q0 -190 -102 -301t-304 -111q-203 0 -309 47l74 320q69 -20 139 -20t102 30q32 31 31 100v725h369zM541 0h-367v1167h367v-1167z" />
    <glyph glyph-name="imacron.sc" horiz-adv-x="714" 
d="M541 0h-367v1167h367v-1167zM670 1354h-611v176h611v-176z" />
    <glyph glyph-name="iogonek.sc" horiz-adv-x="714" 
d="M541 0h-49q-90 -102 -91 -172q0 -92 134 -102l-52 -207q-139 7 -232 73t-93 177q0 78 33 128q34 50 110 103h-127v1167h367v-1167z" />
    <glyph glyph-name="j.sc" horiz-adv-x="851" 
d="M719 1165v-790q1 -190 -101 -301t-305 -111t-309 47l74 320q70 -20 140 -20t100 30q32 31 32 100v725h369z" />
    <glyph glyph-name="k.sc" horiz-adv-x="1310" 
d="M522 0h-389v1167h389v-385l301 385h461l-450 -505l473 -662h-457l-254 395l-74 -82v-313z" />
    <glyph glyph-name="kcommaaccent.sc" horiz-adv-x="1310" 
d="M541 -109h280l-119 -370h-161v370zM522 0h-389v1167h389v-385l301 385h461l-450 -505l473 -662h-457l-254 395l-74 -82v-313z" />
    <glyph glyph-name="l.sc" horiz-adv-x="1101" 
d="M504 330h536v-330h-907v1167h371v-837z" />
    <glyph glyph-name="lacute.sc" horiz-adv-x="1101" 
d="M504 330h536v-330h-907v1167h371v-837zM416 1305h-207l115 329h417z" />
    <glyph glyph-name="lcaron.sc" horiz-adv-x="1101" 
d="M709 797v370h280l-119 -370h-161zM504 330h536v-330h-907v1167h371v-837z" />
    <glyph glyph-name="lcommaaccent.sc" horiz-adv-x="1101" 
d="M422 -479v370h280l-118 -370h-162zM504 330h536v-330h-907v1167h371v-837z" />
    <glyph glyph-name="ldot.sc" horiz-adv-x="1101" 
d="M631 741q0 83 52 131t124 48t123 -48t51 -131q0 -84 -51 -130t-123 -46t-124 46t-52 130zM504 330h536v-330h-907v1167h371v-837z" />
    <glyph glyph-name="lslash.sc" horiz-adv-x="1167" 
d="M1106 330v-330h-907v508l-156 -43v223l156 43v436h370v-329l156 43v-224l-156 -43v-284h537z" />
    <glyph glyph-name="m.sc" horiz-adv-x="1626" 
d="M1493 1167v-1167h-369v451l-223 -369h-180l-219 383v-465h-369v1167h332l358 -651l342 651h328z" />
    <glyph glyph-name="n.sc" horiz-adv-x="1370" 
d="M1237 1167v-1167h-322l-413 530v-530h-369v1167h309l426 -581v581h369z" />
    <glyph glyph-name="nacute.sc" horiz-adv-x="1370" 
d="M1237 1167v-1167h-322l-413 530v-530h-369v1167h309l426 -581v581h369zM768 1305h-207l115 329h418z" />
    <glyph glyph-name="ncaron.sc" horiz-adv-x="1370" 
d="M1237 1167v-1167h-322l-413 530v-530h-369v1167h309l426 -581v581h369zM549 1317l-250 317h283l80 -114l81 114h271l-240 -317h-225z" />
    <glyph glyph-name="ncommaaccent.sc" horiz-adv-x="1370" 
d="M608 -109h281l-119 -370h-162v370zM1237 1167v-1167h-322l-413 530v-530h-369v1167h309l426 -581v581h369z" />
    <glyph glyph-name="eng.sc" horiz-adv-x="1370" 
d="M1237 1167v-1239q0 -194 -101 -306q-100 -112 -304 -112t-310 48l74 319q70 -20 128 -20t87 13q57 26 57 118v71l-366 471v-530h-369v1167h309l426 -581v581h369z" />
    <glyph glyph-name="ntilde.sc" horiz-adv-x="1370" 
d="M1237 1167v-1167h-322l-413 530v-530h-369v1167h309l426 -581v581h369zM830 1327q-74 0 -155 40t-114 40q-70 0 -100 -100l-187 102q25 115 93 170q69 55 139 55t148 -42t100 -42q57 1 98 107l205 -82q-29 -115 -91 -181t-136 -67z" />
    <glyph glyph-name="o.sc" horiz-adv-x="1376" 
d="M688.5 848q-104.5 0 -165 -67.5t-60.5 -189.5t60.5 -190.5t163.5 -68.5t168 69.5t65 190.5t-63.5 188.5t-168 67.5zM1315 590.5q0 -152.5 -55.5 -274t-146.5 -194.5q-186 -149 -436.5 -149t-432 159t-181.5 459t181.5 457.5t431 157.5t437.5 -148q91 -72 146.5 -193.5
t55.5 -274z" />
    <glyph glyph-name="oacute.sc" horiz-adv-x="1376" 
d="M688 848q-104 0 -164 -68t-61 -190q0 -122 60 -190q59 -68 163 -68t169 70t65 190t-64 188t-168 68zM1315 590q0 -152 -55 -274q-54 -122 -146 -194q-187 -148 -438 -149q-250 0 -431 159t-181 459q0 299 180 457q182 158 431 158t438 -147q91 -72 147 -194
q56 -123 55 -275zM795 1317h-207l114 330h418z" />
    <glyph glyph-name="ocircumflex.sc" horiz-adv-x="1376" 
d="M687 332q103 0 168 70t65 190t-64 188t-168 68t-164 -68t-61 -190q0 -122 60 -190q61 -68 164 -68zM1315 590q0 -152 -55 -274q-54 -122 -146 -194q-187 -148 -438 -149q-250 0 -431 159t-181 459q0 299 180 457q182 158 431 158t438 -147q91 -72 147 -194
q56 -123 55 -275zM608 1329h-282l249 318h226l239 -318h-270l-82 115z" />
    <glyph glyph-name="odieresis.sc" horiz-adv-x="1376" 
d="M688 848q-104 0 -164 -68t-61 -190q0 -122 60 -190q59 -68 163 -68t169 70t65 190t-64 188t-168 68zM1315 590q0 -152 -55 -274q-54 -122 -146 -194q-187 -148 -438 -149q-250 0 -431 159t-181 459q0 299 180 457q182 158 431 158t438 -147q91 -72 147 -194
q56 -123 55 -275zM907 1319q-67 0 -113 41t-46 124t46 123t114 40q69 0 112 -40t43 -123t-44 -124t-112 -41zM474 1647q69 0 113 -40t44 -124t-45 -124t-112 -40t-114 40t-47 124t46 124t115 40z" />
    <glyph glyph-name="ograve.sc" horiz-adv-x="1376" 
d="M688 848q-104 0 -164 -68t-61 -190q0 -122 60 -190q59 -68 163 -68t169 70t65 190t-64 188t-168 68zM1315 590q0 -152 -55 -274q-54 -122 -146 -194q-187 -148 -438 -149q-250 0 -431 159t-181 459q0 299 180 457q182 158 431 158t438 -147q91 -72 147 -194
q56 -123 55 -275zM786 1317h-206l-326 330h418z" />
    <glyph glyph-name="ohungarumlaut.sc" horiz-adv-x="1376" 
d="M688 848q-104 0 -164 -68t-61 -190q0 -122 60 -190q59 -68 163 -68t169 70t65 190t-64 188t-168 68zM1315 590q0 -152 -55 -274q-54 -122 -146 -194q-187 -148 -438 -149q-250 0 -431 159t-181 459q0 299 180 457q182 158 431 158t438 -147q91 -72 147 -194
q56 -123 55 -275zM918 1346h-179l154 317h283zM604 1346h-174l49 317h275z" />
    <glyph glyph-name="omacron.sc" horiz-adv-x="1376" 
d="M688 848q-104 0 -164 -68t-61 -190q0 -122 60 -190q59 -68 163 -68t169 70t65 190t-64 188t-168 68zM1315 590q0 -152 -55 -274q-54 -122 -146 -194q-187 -148 -438 -149q-250 0 -431 159t-181 459q0 299 180 457q182 158 431 158t438 -147q91 -72 147 -194
q56 -123 55 -275zM997 1364h-610v176h610v-176z" />
    <glyph glyph-name="oslash.sc" horiz-adv-x="1357" 
d="M688 332q141 0 202 120q30 60 30 153t-52 161l-186 -434h6zM463 606.5q0 -106.5 37 -172.5l184 414q-102 -2 -161.5 -68.5t-59.5 -173zM1315 590q0 -348 -278 -522q-153 -95 -349 -95q-80 0 -153 17l-95 -219l-200 79l96 216q-127 76 -200 208t-73 301q0 322 193 484
q175 147 432 147q74 0 148 -16l94 213l186 -62l-94 -219q133 -76 213 -210t80 -322z" />
    <glyph glyph-name="otilde.sc" horiz-adv-x="1376" 
d="M688 848q-104 0 -164 -68t-61 -190q0 -122 60 -190q59 -68 163 -68t169 70t65 190t-64 188t-168 68zM1315 590q0 -152 -55 -274q-54 -122 -146 -194q-187 -148 -438 -149q-250 0 -431 159t-181 459q0 299 180 457q182 158 431 158t438 -147q91 -72 147 -194
q56 -123 55 -275zM856 1339q-74 0 -154 40q-82 40 -114 40q-70 0 -101 -100l-186 102q25 115 92 170q125 101 288 14q79 -42 99 -42q58 0 99 106l204 -82q-29 -115 -91 -181t-136 -67z" />
    <glyph glyph-name="oe.sc" horiz-adv-x="1609" 
d="M748 860h-54q-113 0 -185.5 -77.5t-72.5 -198.5t71 -199t187 -78h54v553zM1542 860h-426v-119h359v-307h-359v-127h426v-307h-780q-300 0 -492 134q-98 68 -152.5 184t-54.5 270q0 289 195 434t496 145h788v-307z" />
    <glyph glyph-name="p.sc" horiz-adv-x="1171" 
d="M502 860v-260h104q61 0 96 36t35 97t-35 94t-96 33h-104zM133 1167h488q257 -1 373 -121t116 -318t-136 -316t-362 -119h-110v-293h-369v1167z" />
    <glyph glyph-name="thorn.sc" horiz-adv-x="1146" 
d="M502 721v-260h80q61 0 96 36t35 97t-35 94t-96 33h-80zM502 1028h94q260 0 375 -121t115 -319t-137 -316q-136 -119 -361 -118h-86v-154h-369v1167h369v-139z" />
    <glyph glyph-name="q.sc" horiz-adv-x="1376" 
d="M920 592q0 120 -64 188t-168 68t-164 -68t-61 -189q0 -122 60 -191q59 -68 163 -68t169 70t65 190zM63 590q-1 301 181 459q182 157 431 157t438 -147q91 -72 147 -194q56 -121 55 -287q0 -166 -73 -296t-195 -208l251 -146l-239 -297l-426 344q-190 12 -335 114
t-204 286q-31 98 -31 215z" />
    <glyph glyph-name="r.sc" horiz-adv-x="1275" 
d="M522 621h133q59 0 95 33.5t36 74.5q0 68 -35.5 99.5t-95.5 31.5h-133v-239zM522 313v-313h-389v1167h537q319 1 441 -171q69 -97 69 -242q0 -246 -189 -367l244 -387h-436l-162 313h-115z" />
    <glyph glyph-name="racute.sc" horiz-adv-x="1275" 
d="M522 621h133q59 0 96 33q35 34 35 75q-1 95 -76 123q-24 8 -55 8h-133v-239zM522 313v-313h-389v1167h537q318 0 441 -172q67 -93 69 -241q0 -246 -189 -367l244 -387h-436l-162 313h-115zM688 1305h-207l115 329h418z" />
    <glyph glyph-name="rcaron.sc" horiz-adv-x="1275" 
d="M522 621h133q59 0 96 33q35 34 35 75q-1 95 -76 123q-24 8 -55 8h-133v-239zM522 313v-313h-389v1167h537q318 0 441 -172q67 -93 69 -241q0 -246 -189 -367l244 -387h-436l-162 313h-115zM469 1317l-250 317h283l80 -114l82 114h270l-240 -317h-225z" />
    <glyph glyph-name="rcommaaccent.sc" horiz-adv-x="1275" 
d="M512 -109h281l-119 -370h-162v370zM522 621h133q59 0 96 33q35 34 35 75q-1 95 -76 123q-24 8 -55 8h-133v-239zM522 313v-313h-389v1167h537q318 0 441 -172q67 -93 69 -241q0 -246 -189 -367l244 -387h-436l-162 313h-115z" />
    <glyph glyph-name="s.sc" horiz-adv-x="1079" 
d="M482 301q144 0 145 70q0 29 -20.5 41t-96.5 32q-260 70 -348 169q-68 77 -68 206q0 188 129 288.5t334 100.5q125 0 239.5 -35.5t174.5 -89.5l-148 -262q-49 39 -121.5 62.5t-136.5 23.5q-102 0 -102 -65q0 -51 98 -76.5t146 -40.5q154 -51 226.5 -124t72.5 -214
q0 -203 -139.5 -308.5t-374 -105.5t-414.5 111l100 295q160 -78 304 -78z" />
    <glyph glyph-name="sacute.sc" horiz-adv-x="1079" 
d="M482 301q144 0 145 70q-1 29 -21 41t-96 32q-258 68 -347 169q-69 77 -69 206q0 189 129 289t334 100q125 0 240 -36t174 -89l-148 -262q-49 39 -122 63t-136 23q-102 0 -102 -65q0 -39 33 -53q32 -15 56 -21l71 -18q218 -56 310 -149q73 -73 73 -214q0 -203 -140 -308
t-374 -105t-414 110l100 295q160 -78 304 -78zM664 1305h-207l114 329h418z" />
    <glyph glyph-name="scaron.sc" horiz-adv-x="1079" 
d="M463 842q0 -39 33 -53q32 -15 56 -21l71 -18q218 -56 310 -149q73 -73 73 -214q0 -203 -140 -308t-374 -105t-414 110l100 295q160 -78 304 -78t145 70q-1 29 -21 41t-96 32q-258 68 -347 169q-69 77 -69 206q0 189 129 289t334 100q125 0 240 -36t174 -89l-148 -262
q-49 39 -122 63t-136 23q-102 0 -102 -65zM444 1317l-249 317h282l80 -114l82 114h270l-239 -317h-226z" />
    <glyph glyph-name="scedilla.sc" horiz-adv-x="1079" 
d="M565 907q-102 0 -102 -65q0 -39 33 -53q32 -15 56 -21l71 -18q218 -56 310 -149q73 -73 73 -231t-106 -260q-106 -103 -282 -128l-43 -91q106 16 163 -29q56 -46 56 -140t-84 -162q-85 -70 -216 -80l-66 149q145 29 145 95q0 35 -30 34q-18 0 -39 -14l-119 104l59 127
q-215 14 -366 109l100 295q160 -78 304 -78t145 70q-1 29 -21 41t-96 32q-258 68 -347 169q-69 77 -69 206q0 189 129 289t334 100q125 0 240 -36t174 -89l-148 -262q-74 59 -192 80q-35 6 -66 6z" />
    <glyph glyph-name="scommaaccent.sc" horiz-adv-x="1079" 
d="M377 -479v370h280l-118 -370h-162zM482 301q144 0 145 70q-1 29 -21 41t-96 32q-258 68 -347 169q-69 77 -69 206q0 189 129 289t334 100q125 0 240 -36t174 -89l-148 -262q-49 39 -122 63t-136 23q-102 0 -102 -65q0 -39 33 -53q32 -15 56 -21l71 -18q218 -56 310 -149
q73 -73 73 -214q0 -203 -140 -308t-374 -105t-414 110l100 295q160 -78 304 -78z" />
    <glyph glyph-name="germandbls.sc" horiz-adv-x="1280" 
d="M1219 330q0 -168 -110 -261q-111 -93 -267 -93t-240 24l43 305q55 -18 103 -18q48 -1 72 25t24 65q0 94 -187 104v164l103 123q0 40 -32 64t-92 24t-98 -44q-36 -44 -36 -118v-694h-369v733q0 245 155 352t361 107q207 0 339 -106t130 -302l-145 -170q246 -59 246 -284z
" />
    <glyph glyph-name="t.sc" horiz-adv-x="1071" 
d="M1032 840h-313v-840h-371v840h-309v327h993v-327z" />
    <glyph glyph-name="tbar.sc" horiz-adv-x="1071" 
d="M1032 840h-313v-840h-371v840h-309v327h993v-327zM836 1352h-611v176h611v-176z" />
    <glyph glyph-name="tcaron.sc" horiz-adv-x="1071" 
d="M1032 840h-313v-840h-371v840h-309v327h993v-327zM414 1317l-250 317h282l80 -114l82 114h271l-240 -317h-225z" />
    <glyph glyph-name="tcedilla.sc" horiz-adv-x="1071" 
d="M829 -262q0 -108 -85 -178t-216 -80l-65 149q145 29 145 95q0 35 -30 34q-18 0 -39 -14l-119 104l69 152h-141v840h-309v327h993v-327h-313v-840h-57l-52 -109q106 16 163 -29q56 -46 56 -124z" />
    <glyph glyph-name="uni021B.sc" horiz-adv-x="1071" 
d="M412 -109h280l-119 -370h-161v370zM1032 840h-313v-840h-371v840h-309v327h993v-327z" />
    <glyph glyph-name="u.sc" horiz-adv-x="1310" 
d="M1178 1167v-682q0 -238 -148 -374t-376 -136t-374.5 135.5t-146.5 374.5v682h371v-696q0 -72 39 -112t112.5 -40t112.5 40t39 112v696h371z" />
    <glyph glyph-name="uacute.sc" horiz-adv-x="1310" 
d="M1178 1167v-682q0 -237 -148 -373t-376 -136t-374 134q-146 136 -147 375v682h371v-696q0 -72 39 -112t113 -40t112 40q39 40 39 112v696h371zM770 1305h-207l115 329h418z" />
    <glyph glyph-name="ucircumflex.sc" horiz-adv-x="1310" 
d="M1178 1167v-682q0 -237 -148 -373t-376 -136t-374 134q-146 136 -147 375v682h371v-696q0 -72 39 -112t113 -40t112 40q39 40 39 112v696h371zM584 1317h-283l250 317h225l240 -317h-271l-81 115z" />
    <glyph glyph-name="udieresis.sc" horiz-adv-x="1310" 
d="M1178 1167v-682q0 -237 -148 -373t-376 -136t-374 134q-146 136 -147 375v682h371v-696q0 -72 39 -112t113 -40t112 40q39 40 39 112v696h371zM884 1634q70 0 112 -40t42 -123t-44 -123t-112 -41q-68 0 -113 41q-46 42 -46 124t46 122t115 40zM450 1634q68 0 112 -40
t44 -124t-45 -124t-111 -39q-66 0 -114 40q-47 39 -47 123t46 124t115 40z" />
    <glyph glyph-name="ugrave.sc" horiz-adv-x="1310" 
d="M1178 1167v-682q0 -237 -148 -373t-376 -136t-374 134q-146 136 -147 375v682h371v-696q0 -72 39 -112t113 -40t112 40q39 40 39 112v696h371zM762 1305h-207l-326 329h418z" />
    <glyph glyph-name="uhungarumlaut.sc" horiz-adv-x="1310" 
d="M1178 1167v-682q0 -237 -148 -373t-376 -136t-374 134q-146 136 -147 375v682h371v-696q0 -72 39 -112t113 -40t112 40q39 40 39 112v696h371zM893 1333h-178l153 318h283zM580 1333h-174l49 318h274z" />
    <glyph glyph-name="umacron.sc" horiz-adv-x="1310" 
d="M1178 1167v-682q0 -237 -148 -373t-376 -136t-374 134q-146 136 -147 375v682h371v-696q0 -72 39 -112t113 -40t112 40q39 40 39 112v696h371zM973 1352h-611v176h611v-176z" />
    <glyph glyph-name="uogonek.sc" horiz-adv-x="1310" 
d="M1178 1167v-682q0 -174 -81 -295t-218 -174q-104 -115 -105 -188q0 -92 133 -102l-51 -207q-139 7 -232 73t-94 177q0 69 27 115t84 91q-223 3 -365 139t-143 371v682h371v-696q0 -72 39 -112t113 -40t112 40q39 40 39 112v696h371z" />
    <glyph glyph-name="uring.sc" horiz-adv-x="1310" 
d="M1178 1167v-682q0 -237 -148 -373t-376 -136t-374 134q-146 136 -147 375v682h371v-696q0 -72 39 -112t113 -40t112 40q39 40 39 112v696h371zM668 1536q-38 0 -56 -22t-18 -52t18 -50q18 -22 54 -22t56 24q19 22 19 50t-18 50t-55 22zM668 1649q92 1 144 -53t52 -132
t-52 -132t-144 -54t-145 54q-52 54 -52 132q1 78 53 132t144 53z" />
    <glyph glyph-name="v.sc" horiz-adv-x="1269" 
d="M1286 1167l-455 -1167h-401l-446 1167h419l242 -766l248 766h393z" />
    <glyph glyph-name="w.sc" horiz-adv-x="1730" 
d="M1751 1167l-367 -1169h-290l-209 612l-211 -612h-287l-367 1169h400l151 -618l191 610h266l193 -594l157 602h373z" />
    <glyph glyph-name="wacute.sc" horiz-adv-x="1730" 
d="M1751 1167l-367 -1169h-290l-209 612l-211 -612h-287l-367 1169h400l151 -618l191 610h266l193 -594l157 602h373zM1018 1296h-207l115 330h417z" />
    <glyph glyph-name="wcircumflex.sc" horiz-adv-x="1730" 
d="M1751 1167l-367 -1169h-290l-209 612l-211 -612h-287l-367 1169h400l151 -618l191 610h266l193 -594l157 602h373zM831 1309h-282l250 317h225l240 -317h-271l-82 114z" />
    <glyph glyph-name="wdieresis.sc" horiz-adv-x="1730" 
d="M1751 1167l-367 -1169h-290l-209 612l-211 -612h-287l-367 1169h400l151 -618l191 610h266l193 -594l157 602h373zM1132 1626q70 0 112 -40t42 -123t-44 -124t-111 -41q-68 0 -114 41t-46 124t46 123t115 40zM854 1462q0 -84 -46 -124t-112 -40t-112 40t-47 124
q0 84 46 124q47 40 115 40t112 -40t44 -124z" />
    <glyph glyph-name="wgrave.sc" horiz-adv-x="1730" 
d="M1751 1167l-367 -1169h-290l-209 612l-211 -612h-287l-367 1169h400l151 -618l191 610h266l193 -594l157 602h373zM803 1296l-326 330h418l115 -330h-207z" />
    <glyph glyph-name="x.sc" horiz-adv-x="1290" 
d="M860 594l451 -594h-420l-219 332l-203 -332h-416l436 565l-454 602h416l215 -333l200 333h396z" />
    <glyph glyph-name="y.sc" horiz-adv-x="1130" 
d="M764 0h-371v457l-426 710h404l219 -399l194 399h379l-399 -710v-457z" />
    <glyph glyph-name="yacute.sc" horiz-adv-x="1130" 
d="M764 0h-371v457l-426 710h404l219 -399l194 399h379l-399 -710v-457zM702 1305h-206l114 329h418z" />
    <glyph glyph-name="ycircumflex.sc" horiz-adv-x="1130" 
d="M764 0h-371v457l-426 710h404l219 -399l194 399h379l-399 -710v-457zM516 1317h-283l250 317h226l239 -317h-270l-82 115z" />
    <glyph glyph-name="ydieresis.sc" horiz-adv-x="1130" 
d="M764 0h-371v457l-426 710h404l219 -399l194 399h379l-399 -710v-457zM971 1471q0 -83 -44 -123t-112 -41q-68 0 -114 41q-46 42 -46 124t46 122t115 40t112 -40t43 -123zM539 1470q1 -84 -45 -124t-112 -39q-66 0 -114 40q-47 39 -47 123t46 124t115 40t113 -40t44 -124z
" />
    <glyph glyph-name="ygrave.sc" horiz-adv-x="1130" 
d="M764 0h-371v457l-426 710h404l219 -399l194 399h379l-399 -710v-457zM487 1305l-325 329h418l114 -329h-207z" />
    <glyph glyph-name="z.sc" horiz-adv-x="1032" 
d="M1001 330v-330h-923v252l426 592h-432v323h915v-239l-473 -598h487z" />
    <glyph glyph-name="zacute.sc" horiz-adv-x="1032" 
d="M1001 330v-330h-923v252l426 592h-432v323h915v-239l-473 -598h487zM674 1305h-207l115 329h417z" />
    <glyph glyph-name="zcaron.sc" horiz-adv-x="1032" 
d="M1001 330v-330h-923v252l426 592h-432v323h915v-239l-473 -598h487zM455 1317l-250 317h282l80 -114l82 114h271l-240 -317h-225z" />
    <glyph glyph-name="zdotaccent.sc" horiz-adv-x="1032" 
d="M1001 330v-330h-923v252l426 592h-432v323h915v-239l-473 -598h487zM573 1638q77 0 131 -44t54 -131t-53 -131t-131 -44t-131 44q-52 44 -52 131t52 131t130 44z" />
    <glyph glyph-name="i.sc" horiz-adv-x="714" 
d="M541 0h-367v1167h367v-1167z" />
    <glyph glyph-name="zero.sinf" horiz-adv-x="880" 
d="M442 317q-66 0 -98 -51t-33 -174q0 -229 131 -229q61 0 92 53q30 53 30 178t-28 174t-94 49zM438 526q184 0 300 -114t116 -320t-114 -322t-300 -116t-298 116t-112 324t112 321q112 111 296 111z" />
    <glyph glyph-name="one.sinf" horiz-adv-x="880" 
d="M594 -125h182v-215h-631v215h183v371l-144 -37l-65 188l284 111h191v-633z" />
    <glyph glyph-name="two.sinf" horiz-adv-x="880" 
d="M416 526q176 0 265 -70t89 -190q0 -147 -180 -268l-152 -102h346v-236h-665v219l235 174q113 84 113 144q-1 81 -97 81t-192 -53l-96 203q158 98 334 98z" />
    <glyph glyph-name="three.sinf" horiz-adv-x="880" 
d="M768 307q0 -131 -125 -196q152 -49 152 -197q0 -125 -108 -200q-108 -74 -289 -74t-298 77l50 197q135 -41 218 -41q82 0 114 14t32 54q0 61 -108 61h-156v178h139q90 0 90 68q1 68 -97 68t-204 -54l-92 174q62 41 150 67t172 25q178 0 269 -58t91 -163z" />
    <glyph glyph-name="four.sinf" horiz-adv-x="880" 
d="M434 10v205l-139 -205h139zM688 10h133v-203h-133v-147h-250v147h-379v191l387 510h242v-498z" />
    <glyph glyph-name="five.sinf" horiz-adv-x="880" 
d="M756 272h-348v-112q58 28 164 28t174 -68t67 -194q0 -126 -101 -206q-102 -80 -280 -80t-313 65l49 195q141 -39 220 -39q146 0 144 86q0 72 -88 71q-63 0 -122 -49l-175 66v473h609v-236z" />
    <glyph glyph-name="six.sinf" horiz-adv-x="880" 
d="M463 4q-66 0 -111 -61q16 -98 105 -99q39 0 65 24t25 58t-23 56t-61 22zM528 311q-88 0 -129 -44t-49 -132q72 55 186 55t188 -68t73 -190q0 -122 -83 -207t-252 -85t-274 104q-104 104 -104 330t120 340q120 115 314 114q142 0 236 -57l-68 -195q-70 35 -158 35z" />
    <glyph glyph-name="seven.sinf" horiz-adv-x="880" 
d="M98 270v238h684v-227l-252 -621h-284l246 610h-394z" />
    <glyph glyph-name="eight.sinf" horiz-adv-x="868" 
d="M435 -152q52 0 82 26t30 67t-31 67t-81 25q-50 0 -82 -26q-31 -25 -31 -65t30 -67t83 -27zM453 340q-115 0 -115 -72q0 -80 106 -82q36 0 64 23q27 23 27 51t-12 45q-24 35 -70 35zM807 -89q1 -128 -105 -200q-106 -71 -268 -71t-267 70t-105 203q0 132 114 198
q-98 59 -98 173t102 182t255 69q153 0 256 -70q103 -69 103 -183t-112 -173q125 -70 125 -198z" />
    <glyph glyph-name="nine.sinf" horiz-adv-x="880" 
d="M427 295q-42 0 -67 -22q-24 -23 -24 -59t24 -58t80 -21q54 0 90 43q-4 55 -32 86q-29 31 -71 31zM801 125q1 -487 -387 -485q-188 0 -308 51l54 200q88 -33 200 -32q170 0 179 143q-88 -49 -202 -49q-113 0 -185 79q-72 80 -72 206t92 206t246 80q197 0 290 -116t93 -283
z" />
    <glyph glyph-name="zero.sups" horiz-adv-x="880" 
d="M442 1550q-66 0 -98 -51t-33 -174q0 -229 131 -229q61 0 92 53q30 53 30 178t-28 174t-94 49zM438 1759q184 1 300 -113t116 -321t-114 -323t-300 -116t-298 116t-112 325t112 321q112 111 296 111z" />
    <glyph glyph-name="one.sups" horiz-adv-x="880" 
d="M594 1108h182v-215h-631v215h183v371l-144 -37l-65 188l284 111h191v-633z" />
    <glyph glyph-name="two.sups" horiz-adv-x="880" 
d="M416 1759q176 1 265 -69t89 -191q0 -147 -180 -268l-152 -103h346v-235h-665v219l235 174q113 84 113 144q-1 82 -97 82t-192 -54l-96 203q158 98 334 98z" />
    <glyph glyph-name="three.sups" horiz-adv-x="880" 
d="M383 1761q239 0 322 -104q39 -49 38 -117q0 -131 -125 -197q152 -49 152 -196q0 -125 -108 -200t-288 -75q-182 0 -298 78l49 197q135 -41 218 -41t115 14t31 54q0 61 -108 61h-156v178h140q90 0 90 68q1 67 -97 67t-204 -53l-93 174q140 92 322 92z" />
    <glyph glyph-name="four.sups" horiz-adv-x="880" 
d="M430 1243v205l-139 -205h139zM684 1243h133v-203h-133v-147h-250v147h-379v191l387 510h242v-498z" />
    <glyph glyph-name="five.sups" horiz-adv-x="880" 
d="M756 1505h-348v-112q58 29 164 29t174 -70q68 -68 67 -194q0 -126 -101 -206q-102 -80 -280 -80t-313 66l49 195q141 -39 220 -39q146 0 144 86q0 72 -88 71q-63 0 -122 -49l-175 66v473h609v-236z" />
    <glyph glyph-name="six.sups" horiz-adv-x="880" 
d="M463 1237q-66 0 -111 -61q16 -98 105 -99q39 0 65 24q26 25 25 59t-23 56t-61 21zM528 1544q-88 0 -129 -44t-49 -132q72 55 186 55q114 1 188 -67t73 -190q0 -122 -83 -208t-252 -86q-170 0 -274 104t-104 330t120 341t314 114q142 0 236 -57l-68 -195q-70 35 -158 35z
" />
    <glyph glyph-name="seven.sups" horiz-adv-x="880" 
d="M98 1503v238h684v-228l-252 -620h-284l246 610h-394z" />
    <glyph glyph-name="eight.sups" horiz-adv-x="868" 
d="M547 1185q0 29 -31 55t-81 26t-82 -26q-31 -26 -31 -60t13 -54q29 -45 104 -45q108 0 108 104zM338 1507q0 -88 109 -88q34 0 61 23t27 51t-12 45q-24 35 -79 35q-54 0 -80 -21t-26 -45zM807 1144q1 -128 -105 -200t-268 -72t-267 71t-105 203t114 197q-98 59 -98 173
t102 184q102 68 256 67q98 -1 180 -31t130 -86t49 -128q0 -122 -113 -181q125 -69 125 -197z" />
    <glyph glyph-name="nine.sups" horiz-adv-x="880" 
d="M297 1448q0 -80 104 -80q54 0 91 43q-4 55 -33 86t-71 31t-66 -22t-25 -58zM762 1358q0 -488 -386 -486q-188 0 -308 52l53 200q88 -33 201 -32q170 0 178 143q-88 -49 -202 -49t-186 79t-71 205q0 126 92 207q92 80 246 80q197 0 290 -117t93 -282z" />
    <glyph glyph-name="zero.tosf" horiz-adv-x="1331" 
d="M668 770q-90 0 -148 -57t-57 -175q0 -118 57 -176q58 -58 148 -59q90 0 147 58q57 59 57 177t-57 175t-147 57zM676 1110q219 0 391 -133q84 -65 134 -179t50 -259t-50 -259q-91 -208 -317 -283q-99 -34 -208 -34q-224 0 -401 135q-87 68 -140 182t-53 259t53 259
q94 202 330 278q102 34 211 34z" />
    <glyph glyph-name="one.tosf" horiz-adv-x="1331" 
d="M1141 295v-311h-822v311h211v407l-200 -86l-137 269l434 192h293v-782h221z" />
    <glyph glyph-name="two.tosf" horiz-adv-x="1331" 
d="M1174 317v-317h-977v297l389 201q90 51 131 94t41 100q0 117 -193 117q-137 0 -262 -76l-158 250q129 76 235 112t243 35q239 0 379 -95t140 -299t-237 -322l-186 -97h455z" />
    <glyph glyph-name="three.tosf" horiz-adv-x="1331" 
d="M608 1098q288 0 434 -100q145 -100 146 -250q0 -236 -234 -334v-8q133 -35 212 -115t79 -199q0 -231 -172 -360t-428 -129q-356 0 -555 168l162 301q141 -111 350 -111q98 0 153 38q54 38 54 107q0 115 -219 115h-238v295h215q193 0 193 123q0 47 -49 78t-140 31
q-167 0 -292 -86l-164 262q205 174 493 174z" />
    <glyph glyph-name="four.tosf" horiz-adv-x="1331" 
d="M694 233v330l-260 -330h260zM1286 233v-315h-192v-278h-416v278h-633v268l705 887h344v-840h192z" />
    <glyph glyph-name="five.tosf" horiz-adv-x="1331" 
d="M1157 702h-610v-196q96 57 244 57q193 0 309 -116q116 -117 114 -341q0 -224 -166 -365q-166 -140 -466 -140t-463 135l129 319q162 -96 332 -96q94 0 152 43t59 125q0 147 -170 147q-121 0 -215 -94l-252 131v764h1003v-373z" />
    <glyph glyph-name="six.tosf" horiz-adv-x="1331" 
d="M698 616q-117 0 -209 -84q11 -98 61 -156t127 -58t125 39q48 40 48 111q0 72 -42 110t-110 38zM792 1114q-292 0 -329 -283q145 113 344 113t336 -119t137 -339t-158 -364q-158 -146 -415 -147q-297 -1 -477 183t-181 550q0 366 197 558t507 192t496 -131l-182 -293
q-127 80 -275 80z" />
    <glyph glyph-name="seven.tosf" horiz-adv-x="1331" 
d="M133 702v373h1067v-315l-473 -1122h-436l457 1064h-615z" />
    <glyph glyph-name="eight.tosf" horiz-adv-x="1331" 
d="M659 588q-77 0 -125 -39t-48 -99t48 -102q50 -42 126 -41q76 0 123 41q48 42 48 102t-48 99t-124 39zM657 1100q-63 0 -102 -32t-39 -82t40 -82t101 -32t102 32q40 32 40 82t-39 82q-40 32 -103 32zM84 1038q0 198 162 306t410 108q247 0 409 -110t162 -304
q0 -106 -52 -189t-141 -114q230 -98 230 -311t-168 -340t-434 -127t-431 120q-164 120 -163 318q0 111 62 202t165 144q-84 33 -148 115q-63 82 -63 182z" />
    <glyph glyph-name="nine.tosf" horiz-adv-x="1331" 
d="M636 745q-83 0 -131 -42q-48 -43 -48 -117t44 -117t122 -43t141 36t86 103q-10 82 -70 131t-144 49zM539 92q-174 0 -323 99q-77 53 -124 151t-47 229q0 240 157 382t408 143q316 0 496 -178t180 -549q0 -201 -62 -353t-166 -236q-206 -166 -485 -167q-278 0 -434 90
l82 315q133 -66 299 -66t256 71q90 70 105 227q-125 -158 -342 -158z" />
    <glyph glyph-name="zero.osf" horiz-adv-x="1189" 
d="M596 768q-72 0 -118 -58t-46 -172t46 -173t118 -59t118 58q46 60 46 174t-46 172t-118 58zM240 976q160 134 362 134t357 -134q77 -68 123 -180t46 -256t-46 -259q-83 -208 -290 -284q-90 -34 -188 -34q-199 0 -364 136q-80 67 -129 183t-49 259t49 256t129 179z" />
    <glyph glyph-name="one.osf" horiz-adv-x="1118" 
d="M1024 295v-311h-821v311h211v407l-201 -86l-137 269l434 192h293v-782h221z" />
    <glyph glyph-name="two.osf" horiz-adv-x="1177" 
d="M1032 771q0 -177 -170 -312l-176 -142h371v-317h-891v213l311 264q166 139 166 219q0 113 -168 113q-121 0 -227 -76l-166 234q197 164 471 163q215 0 347 -91t132 -268z" />
    <glyph glyph-name="three.osf" horiz-adv-x="1277" 
d="M580 1098q289 0 434 -100t145 -250q0 -236 -233 -334v-8q133 -35 212 -115t79 -199q-1 -231 -173 -360t-428 -129q-356 0 -555 168l162 301q141 -111 350 -111q98 0 153 38q54 38 54 107q0 115 -219 115h-237v295h215q193 0 192 123q0 47 -49 78t-139 31q-168 0 -293 -86
l-164 262q205 174 494 174z" />
    <glyph glyph-name="four.osf" horiz-adv-x="1386" 
d="M737 233v330l-260 -330h260zM1329 233v-315h-192v-278h-416v278h-633v268l705 887h344v-840h192z" />
    <glyph glyph-name="five.osf" horiz-adv-x="1333" 
d="M1178 702h-611v-196q96 57 244 57q193 0 309 -116q116 -117 115 -341q0 -224 -167 -364t-466 -141q-299 0 -463 135l129 319q162 -96 332 -96q94 0 153 43q58 43 58 125q0 147 -170 147q-121 0 -215 -94l-252 131v764h1004v-373z" />
    <glyph glyph-name="six.osf" horiz-adv-x="1443" 
d="M735 616q-117 0 -209 -84q10 -98 60 -156t128 -58q77 0 125 39q48 40 48 111q0 72 -42 110t-110 38zM828 1114q-292 0 -328 -283q146 113 344 113t336 -119t137 -339q0 -220 -158 -364q-158 -146 -416 -147q-297 -1 -477 183t-180 550t197 558t507 192t496 -131
l-182 -293q-128 80 -276 80z" />
    <glyph glyph-name="seven.osf" horiz-adv-x="1140" 
d="M12 702v373h1067v-315l-473 -1122h-436l457 1064h-615z" />
    <glyph glyph-name="eight.osf" horiz-adv-x="1318" 
d="M653 588q-76 0 -125 -39t-49 -99t49 -102t125 -41q76 0 124 41q48 42 48 102t-48 99t-124 39zM651 1100q-63 0 -102 -32t-39 -82t40 -82t101 -32t102 32q40 32 40 82t-39 82q-40 32 -103 32zM78 1038q0 198 162 306t410 108q247 0 409 -110t162 -304q-1 -106 -53 -189
t-140 -114q229 -98 229 -311q1 -213 -167 -340t-434 -127t-431 120q-164 120 -164 318q1 111 63 202t165 144q-84 33 -148 115q-63 82 -63 182z" />
    <glyph glyph-name="nine.osf" horiz-adv-x="1298" 
d="M616 745q-84 0 -132 -42q-48 -43 -48 -117t44 -117t122 -43t141 36t86 103q-10 82 -70 131t-143 49zM518 92q-174 0 -322 99q-77 53 -124 151t-47 229q0 240 156 382q157 142 409 143q317 0 496 -178t180 -549q0 -201 -62 -353t-168 -236q-206 -166 -483 -167
q-278 0 -434 90l82 315q133 -66 299 -66t256 71q90 70 104 227q-125 -158 -342 -158z" />
    <glyph glyph-name="zero.lf" horiz-adv-x="1490" 
d="M746 1106q-257 0 -257 -396t257 -397q257 0 258 408q-1 385 -258 385zM745 1456q293 0 489 -191t196 -551t-195 -556t-490 -195q-295 0 -489 196t-195 555q-1 358 195 550t489 192z" />
    <glyph glyph-name="one.lf" horiz-adv-x="1308" 
d="M1214 373v-373h-1038v373h316v606l-271 -94l-145 295l514 258h317v-1065h307z" />
    <glyph glyph-name="two.lf" horiz-adv-x="1345" 
d="M593 1458q273 0 438 -108t165 -324q0 -137 -72 -253t-223 -236l-221 -175h559v-362h-1096v330l398 332q121 100 165 153t44 121q0 162 -226 162q-151 0 -284 -76l-127 305q207 131 480 131z" />
    <glyph glyph-name="three.lf" horiz-adv-x="1277" 
d="M580 1458q289 0 434 -99t145 -251q0 -236 -233 -334v-8q133 -35 212 -115t79 -198q-1 -231 -173 -361t-428 -129q-356 0 -555 168l162 301q141 -111 350 -110q98 0 153 37q54 38 54 108q0 115 -219 115h-237v295h215q193 0 192 122q0 47 -49 78t-139 31q-168 0 -293 -86
l-164 262q205 174 494 174z" />
    <glyph glyph-name="four.lf" horiz-adv-x="1386" 
d="M737 594v330l-260 -330h260zM1329 594v-315h-192v-279h-416v279h-633v268l705 887h344v-840h192z" />
    <glyph glyph-name="five.lf" horiz-adv-x="1333" 
d="M1178 1065h-611v-197q96 57 244 58q193 0 309 -116t115 -341q0 -225 -167 -365t-466 -141q-299 0 -463 135l129 320q162 -96 332 -96q94 0 153 43q58 43 58 124q0 147 -170 148q-121 0 -215 -94l-252 131v764h1004v-373z" />
    <glyph glyph-name="six.lf" horiz-adv-x="1443" 
d="M735 616q-117 0 -209 -84q10 -98 60 -156t128 -58q77 0 125 39q48 40 48 111q0 72 -42 110t-110 38zM828 1114q-292 0 -328 -283q146 113 344 113t336 -119t137 -339q0 -220 -158 -364q-158 -146 -416 -147q-297 -1 -477 183t-180 550t197 558t507 192t496 -131
l-182 -293q-128 80 -276 80z" />
    <glyph glyph-name="seven.lf" horiz-adv-x="1140" 
d="M12 1065v373h1067v-316l-473 -1122h-436l457 1065h-615z" />
    <glyph glyph-name="eight.lf" horiz-adv-x="1318" 
d="M653 594q-76 0 -125 -39t-49 -99t49 -102t125 -41q76 0 124 41q48 42 48 102t-48 99t-124 39zM651 1106q-63 0 -102 -32t-39 -82t40 -82t101 -32t102 32q40 32 40 82t-39 82q-40 32 -103 32zM78 1044q0 198 162 306t410 108q247 0 409 -110t162 -304q-1 -106 -53 -189
t-140 -114q229 -98 229 -311q1 -213 -167 -340t-434 -127t-431 120q-164 120 -164 318q1 111 63 202t165 145q-84 33 -148 114q-63 82 -63 182z" />
    <glyph glyph-name="nine.lf" horiz-adv-x="1327" 
d="M616 1108q-84 0 -132 -42t-48 -117t44 -118t122 -43t141 36t86 104q-10 82 -70 131t-143 49zM500 315q166 0 256 70t104 227q-125 -158 -342 -157q-177 0 -322 99q-77 52 -124 150t-47 230q0 240 156 382q157 142 409 142q317 0 496 -178t180 -549q0 -201 -62 -353
t-168 -236q-205 -167 -483 -166q-278 0 -434 90l82 315q133 -66 299 -66z" />
    <glyph glyph-name="zero.tf" horiz-adv-x="1331" 
d="M668 1122q-109 0 -154 -100t-45 -299t45 -304q44 -105 152 -105t154 104q46 106 46 311q1 393 -198 393zM668 1470q268 0 445 -192t177 -556t-177 -560t-446 -197q-269 0 -447 197q-177 197 -177 560t178 556q179 192 447 192z" />
    <glyph glyph-name="one.tf" horiz-adv-x="1331" 
d="M1264 373v-373h-1039v373h316v606l-271 -94l-145 295l514 258h317v-1065h308z" />
    <glyph glyph-name="two.tf" horiz-adv-x="1331" 
d="M591 1458q273 0 438 -108t165 -324q0 -137 -72 -253t-223 -236l-221 -175h559v-362h-1096v330l398 332q121 100 165 153t44 121q0 162 -226 162q-151 0 -284 -76l-127 305q207 131 480 131z" />
    <glyph glyph-name="three.tf" horiz-adv-x="1331" 
d="M555 1458q289 0 434 -99t146 -251q0 -236 -234 -334v-8q133 -35 212 -115t79 -198q0 -231 -172 -361t-428 -129q-356 0 -555 168l162 301q141 -111 350 -110q98 0 152 38t55 107q0 115 -219 115h-238v295h215q193 0 193 122q1 47 -49 78t-140 31q-168 0 -293 -86
l-164 262q205 174 494 174z" />
    <glyph glyph-name="four.tf" horiz-adv-x="1331" 
d="M711 594v330l-260 -330h260zM1303 594v-315h-193v-279h-416v279h-633v268l705 887h344v-840h193z" />
    <glyph glyph-name="five.tf" horiz-adv-x="1331" 
d="M1159 1065h-610v-197q96 57 244 58q193 0 309 -116t115 -341q0 -225 -167 -365q-166 -140 -466 -141q-300 0 -463 135l129 320q162 -96 332 -96q94 0 152 43t59 124q0 147 -170 148q-121 0 -215 -94l-252 131v764h1003v-373z" />
    <glyph glyph-name="six.tf" horiz-adv-x="1331" 
d="M700 616q-117 0 -208 -84q10 -98 60 -156t127 -58t125 39q48 40 48 111q0 72 -42 110t-110 38zM794 1114q-292 0 -329 -283q145 113 344 113t336 -119t137 -339t-158 -364q-158 -146 -415 -147q-297 -1 -477 183t-181 550q0 366 197 558t507 192t496 -131l-182 -293
q-127 80 -275 80z" />
    <glyph glyph-name="seven.tf" horiz-adv-x="1331" 
d="M109 1065v373h1124l8 -394l-506 -1044h-477l530 1065h-679z" />
    <glyph glyph-name="eight.tf" horiz-adv-x="1331" 
d="M659 594q-77 0 -125 -39t-48 -99t48 -102q50 -42 126 -41q76 0 123 41q48 42 48 102t-48 99t-124 39zM657 1106q-63 0 -102 -32t-39 -82t40 -82t101 -32t102 32q40 32 40 82t-39 82q-40 32 -103 32zM84 1044q0 198 162 306t410 108q247 0 409 -110t162 -304
q0 -106 -52 -189t-141 -114q230 -98 230 -311t-168 -340t-434 -127t-431 120q-164 120 -163 318q0 111 62 202t165 145q-84 33 -148 114q-63 82 -63 182z" />
    <glyph glyph-name="nine.tf" horiz-adv-x="1331" 
d="M622 1108q-84 0 -132 -42t-48 -117t44 -118t122 -43t142 36q63 36 86 104q-10 82 -70 131t-144 49zM506 315q166 0 256 70t104 227q-125 -158 -342 -157q-177 0 -322 99q-77 52 -124 150t-47 230q0 240 156 382q157 142 409 142q316 0 496 -178t180 -549q0 -201 -62 -353
t-168 -236q-205 -167 -483 -167q-278 1 -434 91l82 315q133 -66 299 -66z" />
    <glyph glyph-name="zero.dnom" horiz-adv-x="880" 
d="M442 639q-66 0 -98 -51t-33 -174q0 -229 131 -230q123 0 121 230q0 127 -27 176q-28 49 -94 49zM438 848q184 0 300 -114t116 -320t-114 -323q-114 -116 -300 -116t-298 116t-112 325q0 208 112 320t296 112z" />
    <glyph glyph-name="one.dnom" horiz-adv-x="880" 
d="M594 197h182v-215h-631v215h183v370l-144 -37l-65 189l284 110h191v-632z" />
    <glyph glyph-name="two.dnom" horiz-adv-x="880" 
d="M416 848q176 0 265 -70t89 -190q0 -147 -180 -269l-152 -102h346v-235h-665v219l235 174q113 84 113 143q-1 82 -97 82t-192 -53l-96 203q158 98 334 98z" />
    <glyph glyph-name="three.dnom" horiz-adv-x="880" 
d="M383 850q178 0 269 -58t91 -163q0 -131 -125 -197q152 -49 152 -196q0 -125 -108 -200t-288 -75q-182 0 -298 78l49 197q135 -41 218 -41t115 14t31 53q0 61 -108 62h-156v178h140q90 0 90 68q1 68 -97 67q-98 0 -204 -53l-93 174q61 40 149 66t173 26z" />
    <glyph glyph-name="four.dnom" horiz-adv-x="880" 
d="M430 332v205l-139 -205h139zM684 332h133v-203h-133v-147h-250v147h-379v190l387 510h242v-497z" />
    <glyph glyph-name="five.dnom" horiz-adv-x="880" 
d="M756 594h-348v-113q58 29 164 29t174 -69t67 -195q0 -126 -101 -205q-102 -80 -280 -80t-313 66l49 194q141 -39 220 -39q146 0 144 86q0 72 -88 72q-63 0 -122 -49l-175 65v473h609v-235z" />
    <glyph glyph-name="six.dnom" horiz-adv-x="880" 
d="M463 326q-66 0 -111 -62q16 -98 105 -98q39 0 65 24t25 58t-23 56t-61 22zM528 633q-88 0 -129 -44t-49 -132q72 55 186 55t188 -68t73 -190q0 -122 -83 -208q-83 -85 -252 -85q-170 1 -274 105t-104 330t120 340t314 114q142 0 236 -57l-68 -195q-70 35 -158 35z" />
    <glyph glyph-name="seven.dnom" horiz-adv-x="880" 
d="M98 592v237h684v-227l-252 -620h-284l246 610h-394z" />
    <glyph glyph-name="eight.dnom" horiz-adv-x="868" 
d="M435 170q52 0 82 26t30 66t-31 67q-31 25 -81 25t-82 -26q-31 -26 -31 -65q0 -41 30 -67t83 -26zM453 662q-115 0 -115 -72q0 -50 47 -72q23 -10 59 -10t64 22q27 22 27 52q0 28 -12 45q-24 35 -70 35zM807 232q1 -128 -105 -199q-106 -72 -268 -72t-267 71t-105 203
t114 197q-98 59 -98 174t103 182q103 68 255 68t255 -70t103 -184t-112 -172q125 -70 125 -198z" />
    <glyph glyph-name="nine.dnom" horiz-adv-x="880" 
d="M388 616q-42 0 -66 -22t-25 -58q0 -36 25 -58t63 -21q70 0 107 43q-4 56 -33 86t-71 30zM762 446q0 -485 -386 -485q-188 0 -308 51l53 201q88 -33 201 -33q170 0 178 144q-88 -50 -202 -50t-186 79t-71 206q0 127 92 207t246 80q197 0 290 -117t93 -283z" />
    <glyph glyph-name="zero.numr" horiz-adv-x="880" 
d="M446 1262q-66 0 -98 -52t-33 -174q0 -229 131 -229q61 0 92 53q30 53 30 178q0 124 -28 174t-94 50zM442 1470q184 0 300 -114t116 -320t-114 -322t-300 -116t-298 116t-112 324t112 321q112 111 296 111z" />
    <glyph glyph-name="one.numr" horiz-adv-x="880" 
d="M594 819h182v-215h-631v215h183v371l-144 -37l-65 188l284 111h191v-633z" />
    <glyph glyph-name="two.numr" horiz-adv-x="880" 
d="M416 1470q176 0 265 -70t89 -190q0 -147 -180 -268l-152 -102h346v-236h-665v219l235 174q113 84 113 144q-1 81 -97 81t-192 -53l-96 203q158 98 334 98z" />
    <glyph glyph-name="three.numr" horiz-adv-x="880" 
d="M770 858q0 -125 -108 -200q-108 -74 -288 -74q-182 0 -298 78l49 196q135 -41 218 -41t115 14t31 54q0 61 -108 61h-156v178h140q90 0 90 68q1 68 -97 68t-204 -54l-93 174q136 90 322 93q238 0 322 -105q39 -49 38 -117q0 -131 -125 -196q152 -49 152 -197z" />
    <glyph glyph-name="four.numr" horiz-adv-x="880" 
d="M430 954v205l-139 -205h139zM684 954h133v-202h-133v-148h-250v148h-379v190l387 510h242v-498z" />
    <glyph glyph-name="five.numr" horiz-adv-x="880" 
d="M756 1217h-348v-113q58 29 164 29t174 -69q68 -68 67 -194q0 -126 -101 -206q-102 -80 -280 -80t-313 65l49 195q141 -39 220 -39q146 0 144 86q0 72 -88 72q-63 0 -122 -50l-175 66v473h609v-235z" />
    <glyph glyph-name="six.numr" horiz-adv-x="880" 
d="M463 948q-66 0 -111 -61q16 -98 105 -99q39 0 65 24t25 58t-23 56t-61 22zM797 876q0 -122 -83 -207t-252 -85t-274 104q-104 104 -104 330t120 340t314 115q142 -1 236 -58l-68 -194q-70 35 -158 35t-129 -45q-41 -44 -49 -132q72 55 186 55t188 -67q74 -69 73 -191z
" />
    <glyph glyph-name="seven.numr" horiz-adv-x="880" 
d="M98 1214v238h684v-227l-252 -621h-284l246 610h-394z" />
    <glyph glyph-name="eight.numr" horiz-adv-x="868" 
d="M435 793q52 -1 82 25t30 67t-31 67t-81 25q-50 0 -82 -26q-31 -25 -31 -65t30 -67q31 -26 83 -26zM456 1284q-118 0 -118 -72q0 -33 25 -57q25 -23 72 -24q46 -1 73 22t27 51t-12 45q-24 35 -67 35zM807 855q1 -128 -105 -200q-106 -71 -268 -71t-267 70t-105 203
q0 132 114 198q-98 59 -98 173t102 182t256 69q98 0 180 -31t130 -87t49 -128q0 -121 -113 -180q125 -70 125 -198z" />
    <glyph glyph-name="nine.numr" horiz-adv-x="880" 
d="M297 1159q0 -80 104 -80q54 0 91 43q-4 55 -33 86t-71 31q-42 1 -66 -21t-25 -59zM322 803q170 0 178 143q-88 -49 -202 -49t-186 79q-72 80 -71 206q0 126 92 206t246 80q197 0 290 -116t93 -283q0 -248 -99 -367t-305 -118q-171 0 -290 51l53 201q88 -33 201 -33z" />
    <glyph glyph-name="zero.sc" horiz-adv-x="1292" 
d="M647 881q-205 0 -205 -303t205 -304q205 0 205 304t-205 303zM647 -31q-245 0 -409 160t-164 452q0 293 164 447t408 154q245 0 409 -155t164 -447t-163 -451q-163 -160 -409 -160z" />
    <glyph glyph-name="one.sc" horiz-adv-x="1075" 
d="M981 307v-307h-825v307h254v486l-220 -80l-114 248l407 210h248v-864h250z" />
    <glyph glyph-name="two.sc" horiz-adv-x="1114" 
d="M610 760q0 122 -210 122q-102 0 -189 -59l-129 242q166 133 392 133t356 -95t131 -269q-1 -106 -53 -196t-181 -198l-168 -133h434v-307h-854v260l316 275q87 73 121 119t34 106z" />
    <glyph glyph-name="three.sc" horiz-adv-x="1044" 
d="M484 1192q248 0 352 -82q102 -82 102 -209q0 -77 -44 -153t-134 -115v-10q109 -27 166 -100t57 -163q0 -180 -131 -280t-346 -100q-137 0 -257 36t-190 103l129 237q104 -80 280 -80t177 105q0 94 -164 94h-207v234h168q162 0 162 102q0 41 -36 66t-105 24
q-143 0 -252 -70l-133 238q158 123 406 123z" />
    <glyph glyph-name="four.sc" horiz-adv-x="1136" 
d="M612 485v260l-215 -260h215zM1079 485v-262h-155v-223h-324v223h-512v221l569 723h267v-682h155z" />
    <glyph glyph-name="five.sc" horiz-adv-x="1114" 
d="M975 860h-508v-160q74 56 219 56q144 0 242 -96t98 -276q0 -179 -132 -292q-132 -112 -370 -112t-395 100l104 264q129 -68 271 -68q86 0 137 32t51 89q0 119 -153 119q-98 0 -183 -76l-198 107v624h817v-311z" />
    <glyph glyph-name="six.sc" horiz-adv-x="1196" 
d="M618 498q-100 0 -176 -64q10 -74 52 -119t105 -45q64 0 106 30q41 30 40 83q0 53 -35 84q-37 31 -92 31zM676 901q-225 0 -256 -221q120 90 280 90t271 -98t111 -276t-128 -297q-127 -120 -331 -119q-238 0 -381 150q-144 150 -144 446t154 452t402 156t401 -105
l-140 -241q-111 63 -239 63z" />
    <glyph glyph-name="seven.sc" horiz-adv-x="927" 
d="M20 860v311h854v-262l-385 -909h-342l375 860h-502z" />
    <glyph glyph-name="eight.sc" horiz-adv-x="1077" 
d="M533 479q-62 -1 -104 -31t-42 -77t41 -80q42 -33 106 -33t104 33t40 81t-41 78q-42 29 -104 29zM653 805q0 39 -35 65t-87 25q-52 0 -86 -26q-33 -27 -33 -65t34 -64t86 -26q51 0 86 26t35 65zM76 850q0 160 128 247t327 87q198 0 327 -87t129 -247q0 -86 -44 -155
t-114 -93q83 -45 135 -118t52 -158q0 -160 -134 -258t-348 -98t-343 96q-130 98 -130 260q-1 90 51 164t134 118q-68 28 -119 94t-51 148z" />
    <glyph glyph-name="nine.sc" horiz-adv-x="1067" 
d="M491 903q-69 0 -107 -34t-38 -95q0 -123 160 -123q55 0 103 26t67 71q-8 74 -62 114t-123 41zM428 262q257 0 274 236q-98 -127 -256 -127t-278 80q-63 41 -102 121t-39 188q0 198 126 316t324 118q259 0 401 -154t142 -479q0 -155 -50 -271q-87 -203 -316 -277
q-97 -32 -205 -31q-218 -1 -351 73l66 244q143 -37 264 -37z" />
    <glyph glyph-name="parenleft.sup" horiz-adv-x="593" 
d="M377 1316q0 -300 172 -468l-199 -125q-244 186 -244 568t244 595l191 -139q-164 -131 -164 -431z" />
    <glyph glyph-name="parenright.sup" horiz-adv-x="593" 
d="M565 1291q0 -382 -246 -568l-196 125q172 172 172 448q0 316 -168 451l192 139q246 -213 246 -595z" />
    <glyph glyph-name="hyphen.sup" horiz-adv-x="1763" 
d="M1167 1169h-612v301h612v-301z" />
    <glyph glyph-name="exclam.sc" horiz-adv-x="485" 
d="M243 340q73 0 125 -46t52 -132t-52 -134t-125 -48t-124 48t-51 134t51 132t124 46zM375 453h-262l-66 714h393z" />
    <glyph glyph-name="exclamdown.sc" horiz-adv-x="485" 
d="M111 715h262l65 -715h-393zM418 1006q0 -86 -51 -132t-124 -47q-73 0 -125 46q-52 47 -52 133t52 134t125 48t124 -48t51 -134z" />
    <glyph glyph-name="parenleft.sc" horiz-adv-x="776" 
d="M428 568q0 -212 76 -397t190 -290l-139 -164q-66 53 -115 99t-111 127q-63 79 -103 163t-68 205q-29 121 -29 256q0 371 200 625q62 80 111 126t115 99l139 -164q-114 -104 -190 -289q-76 -184 -76 -396z" />
    <glyph glyph-name="parenright.sc" horiz-adv-x="714" 
d="M627 567q0 -135 -29 -256q-52 -216 -171 -368q-61 -80 -111 -126t-115 -100l-140 164q115 103 191 289t76 397t-76 397t-191 289l140 164q67 -53 115 -99t110 -126t103 -164q40 -84 69 -205t29 -256z" />
    <glyph glyph-name="question.sc" horiz-adv-x="1001" 
d="M485 336q76 0 127 -47q52 -47 52 -135t-52 -136t-126 -47q-75 0 -129 47q-54 48 -54 136t53 135t129 47zM474 1182q464 0 464 -322q0 -94 -46 -161t-102 -97q-149 -78 -149 -149v-58h-303v66q0 59 33 107t72 73q106 66 106 135q0 82 -121 82t-211 -61l-133 264
q160 121 390 121z" />
    <glyph glyph-name="questiondown.sc" horiz-adv-x="962" 
d="M664 694v-80q0 -55 -52 -114q-52 -58 -103 -108q-52 -50 -52 -80q-1 -30 21 -41t77 -11q100 0 170 92l178 -252q-113 -104 -195 -134t-200 -29q-217 1 -329 83t-111 230q0 78 40 144t87 104q127 100 127 161v35h342zM492 1141q78 0 133 -48q55 -47 55 -141t-55 -142
t-133 -48t-134 48q-55 48 -55 141t55 142q56 48 134 48z" />
    <glyph glyph-name="cent.osf" horiz-adv-x="983" 
d="M123 432q0 168 89 281t241 149l-15 242h246l-16 -232q115 -14 186 -59l-96 -270q-46 31 -110 31t-102 -40t-38 -112t38 -113t104 -41t112 39l119 -235q-95 -81 -217 -101l18 -223h-246l13 234q-145 43 -236 162q-90 120 -90 288z" />
    <glyph glyph-name="dollar.osf" horiz-adv-x="1075" 
d="M463 842q0 -39 33 -53q32 -15 56 -21l71 -18q218 -56 310 -149q73 -73 73 -227t-98 -257q-98 -102 -265 -131l12 -224h-299l13 222q-168 25 -291 100l100 295q160 -78 304 -78t145 70q0 27 -22 40t-67 25q-284 73 -375 177q-69 77 -69 217t84 235q84 94 228 127l-9 231
h283l-8 -223q201 -29 299 -117l-148 -262q-49 39 -122 63t-136 23q-102 0 -102 -65z" />
    <glyph glyph-name="ampersand.sc" horiz-adv-x="1298" 
d="M432 295q0 -70 107 -70q81 1 153 54l-168 143q-92 -78 -92 -127zM567 948q-35 0 -59 -20t-25 -58q0 -38 70 -112q53 43 72 66q18 24 18 54t-20 50q-21 20 -56 20zM510 -41q-182 0 -289 85q-106 85 -106 226t134 253q30 26 85 67q-72 70 -110 138t-38 159q0 92 48 168
q48 77 136 117t219 40q132 0 234 -74t103 -220q0 -94 -48 -170t-147 -158l123 -107l133 224l238 -103l-166 -297l182 -160l-190 -178l-154 133q-160 -143 -387 -143z" />
    <glyph glyph-name="cent.sc" horiz-adv-x="983" 
d="M123 432q0 168 89 281t241 149l-15 242h246l-16 -232q115 -14 186 -59l-96 -270q-46 31 -110 31t-102 -40t-38 -112t38 -113t104 -41t112 39l119 -235q-95 -81 -217 -101l18 -223h-246l13 234q-145 43 -236 162q-90 120 -90 288z" />
    <glyph glyph-name="percent.sc" horiz-adv-x="1433" 
d="M1106 477q-78 0 -78 -155q0 -80 16 -116t64 -36t62 34q15 34 16 118q0 84 -16 120t-64 35zM786 322q0 160 88 250t232 90q146 0 240 -90t94 -252q0 -160 -91 -248t-241 -88t-236 89t-86 249zM348 1030q-80 0 -80 -155t80 -154q49 0 65 35q15 36 15 118t-15 119
q-16 37 -65 37zM395 0h-192l825 1194h189zM348 1214q146 0 239 -90t93 -251t-91 -249t-239 -87q-148 0 -236 89q-87 88 -87 248t87 250q88 90 234 90z" />
    <glyph glyph-name="perthousand.sc" horiz-adv-x="2125" 
d="M1810 477q-78 0 -77 -155q0 -80 16 -116t63 -36t63 34q15 34 15 118t-16 120t-64 35zM1102 477q-78 0 -78 -155q0 -80 16 -116t64 -36t62 34q15 34 16 118q0 84 -16 120t-64 35zM1489 322q0 160 88 250q87 90 233 90t239 -90t93 -251t-91 -249t-239 -88t-236 89
q-87 89 -87 249zM782 322q0 160 88 250t232 90q146 0 240 -90t94 -252q0 -160 -91 -248t-241 -88t-236 89t-86 249zM344 1030q-80 0 -80 -155t80 -154q49 0 65 35q15 36 15 118t-15 119q-16 37 -65 37zM391 0h-192l825 1194h188zM344 1214q146 0 239 -90t93 -251t-91 -249
t-239 -87q-148 0 -236 89q-87 88 -87 248t87 250q88 90 234 90z" />
    <glyph glyph-name="u1F620.ss01" 
d="M1024 496q128 0 212 -30q144 -53 225 -123q135 -116 165 -263h-127q-57 104 -186 172t-289 67q-245 0 -399 -144q-47 -44 -76 -95h-127q41 178 210 297t392 119zM1372 934q0 -252 -119 -252t-118 252v125l475 151l30 -116l-268 -86v-74zM911 934q1 -252 -117 -252
t-118 252v74l-268 86l30 116l473 -151v-125z" />
    <glyph glyph-name="u1F627.ss01" 
d="M1025 528q-165 0 -288 -78t-168 -231q187 53 455 53t455 -53q-43 153 -166 231t-288 78zM1025 678q275 0 439 -182t166 -471q-66 49 -242 79t-364 29q-369 0 -606 -108q2 289 167 471t440 182zM1376 989q0 -256 -120 -256t-119 256v264l510 -254l-29 -114l-242 119v-15z
M911 989q1 -256 -119 -256t-120 256v15l-240 -119l-31 114l510 254v-264z" />
    <glyph glyph-name="u1F616.ss01" 
d="M1389 434q-73 0 -110 -53q-38 -53 -96 -113q-57 -61 -165 -61t-172 81q-28 34 -52 66q-61 81 -132 80q-147 0 -207 -172l-111 33q26 98 99 197q73 98 212 98q112 -4 179 -78q28 -32 52 -62q57 -72 138 -71q81 0 139 77q25 32 51 62q65 75 179 72q153 0 243 -139
q44 -67 70 -156l-113 -33q-59 172 -204 172zM1565 909l-480 174l54 150l479 -174zM918 1233l53 -150l-479 -174l-54 150z" />
    <glyph glyph-name="u1F615.ss01" 
d="M592 102l-62 170q328 348 926 336l62 -170q-598 12 -926 -336zM1255 1059v-96q0 -164 -130 -164t-130 164v96h260zM653 1198q109 0 109 -229t-109 -230t-109 229t109 230z" />
    <glyph glyph-name="u1F622.ss01" 
d="M1023 444q218 0 384 -105t207 -265h-156q-37 84 -158 138q-122 54 -278 54t-276 -54t-158 -138h-154q39 160 205 265t384 105zM1225 670q1 -37 27 -66t61 -29q35 -1 57 13q46 29 45 74q0 45 -40 104t-56 92q-14 -33 -54 -92t-40 -96zM1457 530q-55 -55 -123 -55
q-123 0 -184 95q-26 42 -26 92t48 127q48 76 69 98q-143 55 -156 340h123q10 -109 33 -160t66 -51t65 51t31 160h125q-10 -260 -137 -330q14 -20 55 -78q67 -94 67 -164t-56 -125zM744 877q-98 0 -158 90t-68 260h125q15 -211 98 -211q43 0 66 51t31 160h125
q-9 -170 -65 -260t-154 -90z" />
    <glyph glyph-name="u1F625.ss01" 
d="M1024 598q223 0 392 -119t210 -297h-127q-78 143 -272 208q-95 32 -189 32q-255 0 -413 -144q-47 -45 -76 -96h-127q41 178 210 297t392 119zM1632 679q0 -36 26 -64q26 -27 60 -27q67 1 86 47q10 20 10 50t-37 86q-39 56 -53 89q-16 -35 -54 -90t-38 -91zM1911 660
q0 -62 -54 -115q-53 -53 -133 -53t-134 53t-54 115t39 120t84 126t55 138h19q10 -70 55 -138t84 -126t39 -120zM1565 997l-68 -116l-410 219l72 119zM952 1100l-409 -219l-68 116l406 222z" />
    <glyph glyph-name="u1F61E.ss01" 
d="M1024 598q223 0 392 -119t210 -297h-127q-57 104 -186 172t-289 68t-289 -68t-186 -172h-127q27 117 112 212q85 96 214 150t276 54zM1295 729q-114 0 -113 244v123l-60 34v158l391 -207v-170l-104 60q0 -242 -114 -242zM866 973q0 -244 -114 -244t-113 242l-104 -60v170
l391 207v-158l-60 -34v-123z" />
    <glyph glyph-name="u1F611.ss01" 
d="M1561 340h-1074v147h1074v-147zM1565 907h-430v150h430v-150zM915 907h-430v150h430v-150z" />
    <glyph glyph-name="u1F60B.ss01" 
d="M1415 203q37 20 39 61t-39 139q-76 -63 -172 -100q59 -81 99 -103t73 3zM1024 264q-206 0 -360 114t-191 284h139q32 -110 146 -186q114 -75 263 -76q150 -1 266 74t151 188h137q-20 -96 -84 -179q75 -161 65 -243t-88 -127q-51 -27 -101 -26q-106 2 -230 187
q-55 -10 -113 -10zM1321 1141q-41 0 -63 -65t-29 -204h-123q6 188 65 292t151 104t149 -104q58 -104 65 -292h-125q-12 187 -45 239q-18 30 -45 30zM803 1024q-21 117 -74 117t-76 -117q-10 -58 -16 -152h-123q4 188 64 292t153 104q126 0 179 -178q28 -90 32 -218h-123
q-6 94 -16 152z" />
    <glyph glyph-name="u1F613.ss01" 
d="M1440 264h-1073v150h1073v-150zM1489 623q-1 -37 25 -63t66 -26t66 28q26 26 26 62t-39 92q-38 56 -52 91q-14 -33 -53 -90t-39 -94zM1580 438q-79 0 -133 52t-54 114t39 122t84 128t55 135h18q14 -97 97 -197t82 -175t-55 -127t-133 -52zM1255 1008q1 -256 -119 -256
t-120 256v325l510 -254l-29 -114l-242 118v-75zM791 1008q0 -256 -120 -256t-120 256v75l-240 -118l-30 114l510 254v-325z" />
    <glyph glyph-name="u1F624.ss01" 
d="M1628 -283q174 -16 193 -120q25 -140 -116 -166q-44 -8 -81 20q-2 -59 -33 -95t-82 -45t-94 15t-65 80q-18 -37 -76 -48t-102 19q-44 31 -55 95t28 104q39 41 110 76l9 -47q-25 -17 -38 -27q-12 -10 -26 -36t-9 -52q15 -79 93 -65q33 2 47 36l39 -2q23 -60 83 -76t106 34
q27 30 28 79l35 19q20 -25 62 -21t56 42q14 37 3 61q-22 51 -75 65q-29 8 -32 8zM804 -645q-78 0 -110 51q-20 -55 -63 -79q-43 -25 -93 -15t-82 46t-34 97q-33 -31 -88 -21t-87 55q-32 44 -20 112q16 98 191 118l-8 -47q-31 -8 -46 -13t-37 -25t-27 -52q-5 -34 14 -58
q18 -24 52 -30t58 23l35 -17q1 -51 27 -81q26 -29 65 -35q90 -13 125 77l39 4q12 -35 46 -41q33 -6 61 11q28 18 33 51q5 34 -8 58t-25 33t-40 28l9 47q158 -72 138 -172t-95 -121q-14 -4 -30 -4zM1026 485q-86 0 -160 -12l-139 -952l-63 14l147 928q-51 -12 -92 -29
l-211 -872l-66 10l211 829q-82 -49 -123 -120h-118q30 87 102 161t180 119l54 211l51 -8l-45 -182q39 12 77 20l25 150l51 -9l-20 -131q153 19 282 -2l-20 133l51 9l25 -152q41 -8 78 -22l-46 184l52 10l55 -217q209 -92 270 -274h-118q-39 66 -111 112l209 -821l-64 -10
l-211 866q-43 18 -92 33l146 -926l-64 -14l-139 950q-78 14 -164 14zM1079 1163l426 123l25 -94l-426 -125zM516 1192l25 94l428 -123l-25 -96z" />
    <glyph glyph-name="u1F62E.ss01" 
d="M1184 88q-113 0 -193 79t-80 191q0 74 37 136q38 62 100 100q62 37 136 37q114 0 192 -80t78 -193q0 -114 -78 -192t-192 -78zM1192 1225q123 0 123 -261t-123 -262q-123 0 -123 262t123 261zM715 1225q123 0 123 -261t-123 -262q-123 0 -123 262t123 261z" />
    <glyph glyph-name="u1F61B.ss01" 
d="M1198 453h-348q14 -187 55 -265t119 -78t118 78q40 77 56 265zM1559 453h-226q-14 -242 -95 -360t-215 -118t-215 118t-93 360h-226v135h1070v-135zM1264 1225q122 0 122 -261t-122 -262q-123 0 -123 262t123 261zM785 1225q122 0 122 -261t-122 -262q-122 0 -122 262
t122 261z" />
    <glyph glyph-name="u1F61D.ss01" 
d="M1198 453h-348q14 -187 55 -265t119 -78t118 78q40 77 56 265zM1559 453h-226q-8 -164 -50 -272q-79 -204 -259 -206q-135 0 -216 118t-93 360h-226v135h1070v-135zM1493 1098l-217 -84v-10l217 -107l-51 -143l-330 219v69l330 199zM938 1042v-69l-332 -219l-51 143
l217 107v10l-217 84l51 143z" />
    <glyph glyph-name="u1F602.ss01" 
d="M1991 428q12 -31 18 -67q6 -37 12 -59t26 -42q19 -20 51 -20t56 24t24 57q0 32 -22 53q-22 20 -79 32t-86 22zM59 428q-31 -10 -88 -21q-99 -19 -101 -86q-1 -32 24 -57q24 -26 56 -24t54 23t32 79t23 86zM985 461q-106 2 -203 22v-131q94 -27 203 -30v139zM1270 483
q-96 -20 -203 -22v-139q109 4 203 30v131zM2259 318q0 -62 -47 -110t-114 -50q-68 -2 -104 36t-47 97t-25 127t-48 114l12 13q47 -35 114 -49t125 -26t96 -51t38 -101zM164 545l10 -13q-35 -46 -49 -114q-15 -68 -27 -127t-49 -97t-101 -37t-112 48q-47 47 -49 113t36 102
q38 37 97 49q59 13 128 27t116 49zM1350 383q164 74 217 213q-104 -59 -217 -92v-121zM702 504q-113 33 -217 92q53 -139 217 -213v121zM232 683q-1 -31 25 -56q27 -25 57 -24q65 2 85 103q12 58 23 85q-29 -9 -87 -21t-80 -34t-23 -53zM1790 627q25 25 24 57q0 32 -22 52
t-78 32t-86 23q10 -29 22 -86q20 -100 85 -102q30 -1 55 24zM1896 681q0 -63 -43 -107t-97 -51t-97 18q-63 -205 -229 -325t-406 -120q-160 0 -290 56q-256 109 -345 389q-41 -25 -96 -18t-98 50t-45 108t36 101t96 49q60 13 129 27t115 49l13 -12q-7 -8 -13 -18
q-6 -11 -11 -19t-9 -19t-7 -19t-6 -20q-3 -14 -5 -20t-5 -20q-2 -14 -3 -20t-4 -20q-3 -15 -3 -20q229 -127 553 -127t551 127l-4 21q-4 21 -4 33t-5 26t-10 30q-4 14 -8 22t-12 29t-23 34l13 12q48 -35 114 -49t124 -26t96 -51q38 -38 38 -100zM1256 1075q-67 0 -78 -227
h-103q6 164 53 252t127 88t128 -88t55 -252h-101q-14 227 -81 227zM792 1075q-66 0 -79 -227h-103q6 164 56 252t129 88q159 0 180 -340h-103q-14 227 -80 227z" />
    <glyph glyph-name="u1F628.ss01" 
d="M1026 594q-138 0 -246 -73t-131 -216h752q-25 141 -131 215t-244 74zM1571 170h-1092q33 357 273 498q120 70 274 70t272 -70q240 -142 273 -498zM1373 1106q28 0 47 -20q20 -20 20 -49q0 -28 -20 -47t-47 -19q-28 0 -48 19t-20 47q0 29 20 49t48 20zM677 1106
q28 0 47 -20t19 -49q0 -28 -19 -47t-47 -19t-48 19t-21 47q0 29 20 49t49 20zM1372 1212q-72 0 -123 -51t-51 -123t51 -123t123 -51t123 51t51 123t-51 123t-123 51zM677 1212q-73 0 -124 -51t-51 -123t51 -123t124 -51t123 51t50 123t-50 123t-123 51zM1372 1311
q113 0 194 -80t81 -193q0 -112 -81 -192t-194 -80q-112 0 -192 80t-80 192t80 193q80 80 192 80zM677 1311q113 0 193 -80t80 -193q0 -112 -80 -192t-194 -80t-193 80q-80 80 -80 192t80 193q80 80 194 80z" />
    <glyph glyph-name="u1F633.ss01" 
d="M662 449h718q0 -150 -104 -256q-104 -107 -253 -107t-255 106t-106 257zM1493 569h418q-39 -67 -112 -95q-40 -15 -97 -23q-112 16 -163 61q-26 22 -46 57zM137 569h418q-31 -51 -78 -80t-131 -38q-112 16 -163 61q-26 22 -46 57zM1458 696q0 30 6 58h475q18 -64 0 -115
h-475q-6 27 -6 57zM590 695q0 -30 -6 -56h-475q-8 27 -8 57t8 58h475q6 -29 6 -59zM1702 936q64 0 118 -31q56 -31 91 -84h-416q33 53 88 84t119 31zM346 936q62 0 118 -31t89 -84h-416q76 115 209 115zM1124 1251l78 123l377 -172l-27 -127zM469 1202l375 172l80 -123
l-428 -176z" />
    <glyph glyph-name="u1F626.ss01" 
d="M1024 565q-191 0 -302 -128q-59 -67 -75 -161h752q-25 139 -131 214t-244 75zM1024 709q232 0 376 -153t169 -415h-1092q16 172 86 300t188 198t273 70zM1262 1368q122 0 122 -261t-122 -261t-123 261q0 261 123 261zM784 1368q123 0 123 -261t-123 -261t-123 261
t123 261z" />
    <glyph glyph-name="u1F600.ss01" 
d="M762 430v-141q102 -29 219 -33v150q-115 4 -219 24zM1286 291v141q-102 -23 -217 -26v-150q117 4 217 35zM1374 453v-131q174 80 234 229q-113 -61 -234 -98zM674 322v131q-119 35 -232 98q58 -149 232 -229zM1022 14q-330 0 -526 207t-197 535q263 -224 723 -226
q333 0 580 128q82 45 145 102q-2 -330 -198 -538q-197 -208 -527 -208zM1262 1225q122 0 122 -261t-122 -262q-123 0 -123 262t123 261zM784 1225q123 0 123 -261t-123 -262q-123 0 -123 262t123 261z" />
    <glyph glyph-name="u1F601.ss01" 
d="M762 430v-141q102 -29 219 -33v150q-115 4 -219 24zM1286 291v141q-102 -23 -217 -26v-150q117 4 217 35zM1374 453v-131q174 80 234 229q-113 -61 -234 -98zM674 322v131q-119 35 -232 98q58 -149 232 -229zM1022 14q-330 0 -526 207t-197 535q263 -224 723 -226
q295 0 523 102q116 52 202 128q-2 -330 -198 -538q-197 -208 -527 -208zM1409 872q-10 264 -88 269q-43 0 -63 -65t-29 -204h-125q6 188 65 292t151 104t150 -104q57 -104 64 -292h-125zM725 1141q-77 0 -88 -269h-125q6 188 66 292t153 104q123 0 178 -178q29 -90 33 -218
h-125q-12 187 -45 239q-18 30 -47 30z" />
    <glyph glyph-name="u1F610.ss01" 
d="M1561 340h-1074v147h1074v-147zM1264 1225q122 0 122 -261t-122 -262q-123 0 -123 262t123 261zM786 1225q123 0 123 -261t-123 -262q-123 0 -123 262t123 261z" />
    <glyph glyph-name="u1F614.ss01" 
d="M1561 340h-1074v147h1074v-147zM1229 793h-123q6 188 65 290q59 103 151 103t149 -102q58 -102 65 -291h-125q-12 208 -54 250q-15 15 -36 16q-41 1 -61 -63t-31 -203zM637 793h-123q6 188 66 290t153 103q57 0 103 -44q99 -94 108 -349h-125q-8 139 -29 202
q-22 63 -63 64q-51 0 -74 -117q-10 -57 -16 -149z" />
    <glyph glyph-name="u1F623.ss01" 
d="M1024 598q223 0 392 -119t210 -297h-127q-57 104 -186 172t-289 68q-242 0 -399 -144q-47 -45 -76 -96h-127q27 117 112 212q85 96 214 150t276 54zM1493 1098l-215 -84v-10l215 -107l-51 -143l-330 219v69l330 199zM938 1042v-69l-332 -219l-51 143l217 107v10l-217 84
l51 143z" />
    <glyph glyph-name="u1F621.ss01" 
d="M1022 303q92 0 150 -54t75 -147h-92q-29 92 -132 92t-132 -92h-92q16 92 74 146q57 54 149 55zM1024 594q240 0 398 -110t206 -279h-135q-70 145 -248 202q-98 31 -222 31q-357 -1 -470 -233h-135q49 169 207 279q159 110 399 110zM1372 975q0 -252 -119 -252t-118 252
v125l475 151l30 -116l-268 -86v-74zM911 975q1 -252 -117 -252t-118 252v74l-268 86l30 116l473 -151v-125z" />
    <glyph glyph-name="u1F60C.ss01" 
d="M1024 119q-238 0 -419 136t-224 343h127q62 -139 202 -227t314 -88t314 88t202 227h127q-43 -207 -224 -343t-419 -136zM1318 766q-91 0 -149 102q-57 102 -63 291h123q11 -139 31 -203t61 -63q41 -1 61 63t29 203h125q-6 -189 -66 -291t-152 -102zM725 766
q-124 0 -179 178q-28 90 -32 215h123q15 -266 90 -266q41 -1 63 63t29 203h125q-6 -189 -66 -291t-153 -102z" />
    <glyph glyph-name="u1F607.ss01" 
d="M1024 119q-238 0 -419 136t-224 343h127q62 -139 202 -227t314 -88t314 88t202 227h127q-43 -207 -224 -343t-419 -136zM1262 1225q122 0 122 -261t-122 -262q-123 0 -123 262t123 261zM784 1225q123 0 123 -261t-123 -262q-123 0 -123 262t123 261zM1023 2103
q-216 0 -395 -47q-180 -47 -280 -125t-100 -168q0 -55 54 -112q123 -130 395 -184q151 -30 325 -29q344 0 561 101t217 222q0 90 -101 168t-281 126t-395 48zM991 2230q415 0 681 -142q120 -65 192 -151q126 -150 31 -316q-79 -140 -311 -247q-232 -106 -562 -104
q-205 0 -381 44q-322 81 -465 273q-63 86 -63 172q0 123 118 231q119 108 330 174t430 66z" />
    <glyph glyph-name="u1F608.ss01" 
d="M1024 119q-238 0 -419 136t-224 343h127q62 -139 202 -227t314 -88t314 88t202 227h127q-43 -207 -224 -343t-419 -136zM1372 934q0 -252 -118 -252t-117 252v207l473 151l30 -116l-268 -86v-156zM913 934q-1 -252 -119 -252t-118 252v156l-268 86l30 116l475 -151v-207z
M1780 2003v-561q-180 166 -486 209zM268 2003l486 -352q-303 -43 -486 -209v561z" />
    <glyph glyph-name="u1F603.ss01" 
d="M1025 172q193 0 341 96t199 273q-240 -135 -541 -138q-299 2 -539 138q51 -177 199 -273t341 -96zM1024 43q-307 0 -488 190t-184 496q244 -207 672 -211q431 0 672 215q-2 -307 -184 -499t-488 -191zM1262 1307q122 0 122 -261t-122 -262q-123 0 -123 262t123 261z
M784 1307q123 0 123 -261t-123 -262q-123 0 -123 262t123 261z" />
    <glyph glyph-name="u1F605.ss01" 
d="M923 172q194 0 341 96t198 273q-240 -135 -540 -138q-299 2 -539 138q51 -177 199 -273t341 -96zM922 43q-307 0 -489 190q-181 190 -183 496q244 -207 672 -211q312 0 536 121q76 41 135 94q-2 -307 -183 -499t-488 -191zM1577 956q0 -26 20 -48q19 -22 53 -22t54 22
t20 51t-30 73t-43 72q-11 -26 -31 -54t-32 -48t-11 -46zM1800 945q0 -50 -43 -93t-105 -43t-106 43q-43 43 -43 93t31 97q31 46 67 100t44 109h14q8 -55 44 -108q37 -53 67 -101t30 -97zM1126 872h-125q7 188 67 292t152 104t148 -104q57 -104 64 -292h-123q-16 226 -62 258
q-12 10 -28 11q-41 0 -63 -65t-30 -204zM630 1141q-38 0 -52 -32q-30 -66 -43 -237h-125q6 188 66 292t152 104t148 -104q57 -104 64 -292h-123q-18 269 -87 269z" />
    <glyph glyph-name="u1F604.ss01" 
d="M1025 172q193 0 341 96t199 273q-240 -135 -541 -138q-299 2 -539 138q51 -177 199 -273t341 -96zM1024 43q-307 0 -488 190t-184 496q244 -207 672 -211q431 0 672 215q-2 -307 -184 -499t-488 -191zM1321 1141q-41 0 -63 -65t-29 -204h-125q6 188 66 292t152 104
t148 -104q57 -104 64 -292h-123q-12 187 -45 239q-18 30 -45 30zM727 1141q-41 0 -61 -65t-29 -204h-125q6 188 66 292t152 104q90 0 148 -104t64 -292h-123q-12 188 -46 239q-19 30 -46 30z" />
    <glyph glyph-name="u1F606.ss01" 
d="M1025 451q-300 0 -540 135q51 -178 199 -272t341 -95q193 1 341 95t199 272q-240 -135 -540 -135zM1024 88q-307 0 -488 192t-184 496q250 -211 677 -211q428 0 667 213q-2 -306 -184 -498t-488 -192zM1493 1145l-217 -84v-12l217 -105l-51 -143l-332 219v70l332 196z
M936 1090v-70l-330 -219l-51 143l215 105v12l-215 84l51 141z" />
    <glyph glyph-name="u1F60A.ss01" 
d="M1024 154q-238 0 -419 136t-224 343h127q62 -139 202 -227t314 -88t314 88t202 227h127q-43 -207 -224 -343t-419 -136zM1229 872h-123q6 188 65 292t151 104t149 -104q58 -104 65 -292h-125q-13 174 -38 227q-16 40 -52 42q-41 0 -61 -65t-31 -204zM727 1141
q-75 0 -90 -269h-123q6 188 66 292t153 104q57 0 103 -44q99 -94 108 -352h-125q-12 187 -45 239q-18 30 -47 30z" />
    <glyph glyph-name="u1F60E.ss01" 
d="M1032 119q-238 0 -419 136t-224 343h127q62 -139 202 -227t314 -88t314 88q139 88 202 227h127q-29 -135 -120 -245t-229 -172t-294 -62zM1468 727h-137q-82 0 -118 32t-62 99l-78 215h-82l-80 -215q-16 -45 -33 -71q-39 -60 -145 -60h-137q-100 0 -149 43
q-48 43 -74 139l-51 164h-179l70 144h1622l70 -144h-162l-51 -164q-29 -96 -77 -139t-147 -43z" />
    <glyph glyph-name="u1F60F.ss01" 
d="M934 145v160q184 0 328 113q143 113 186 287h162q-48 -283 -311 -453q-166 -107 -365 -107zM1427 936h-430v147h430v-147zM868 936h-430v147h430v-147z" />
    <glyph glyph-name="u1F612.ss01" 
d="M1587 412h-1073v147h1073v-147zM1645 1157v-125q0 -262 -122 -262t-122 262h-301v125h545zM948 1157v-125q0 -262 -122 -262t-121 262h-302v125h545z" />
    <glyph glyph-name="uni2639.ss01" 
d="M639 172h-145q0 186 155 317q156 131 375 131t374 -130q155 -132 154 -318h-145q0 117 -111 202t-272 85q-160 0 -272 -84t-113 -203zM1262 1278q122 0 122 -260t-122 -260t-123 260q0 260 123 260zM784 1278q123 0 123 -260t-123 -260t-123 260t123 260z" />
    <glyph glyph-name="u1F609.ss01" 
d="M1024 119q-238 0 -419 136t-224 343h127q62 -139 202 -227t314 -88t314 88t202 227h127q-43 -207 -224 -343t-419 -136zM1483 1112l-187 -100l187 -125l-53 -129l-285 203v104l285 176zM785 1276q122 0 122 -258t-122 -258t-122 258t122 258z" />
    <glyph glyph-name="u1F61F.ss01" 
d="M1022 303q92 0 150 -54t75 -147h-92q-29 92 -132 92t-132 -92h-92q16 92 74 146q57 54 149 55zM1042 594q142 0 271 -53q252 -103 315 -336h-135q-51 104 -169 169q-118 64 -301 64t-301 -64t-169 -169h-135q25 82 75 151q169 238 549 238zM1294 784q-113 0 -112 244v123
l-60 33v159l391 -208v-168l-104 57q-2 -240 -115 -240zM864 1028q0 -244 -112 -244t-115 240l-105 -57v168l394 208v-159l-62 -33v-123z" />
    <glyph glyph-name="faceWithStuckOutTongueAndWinkin" 
d="M1196 451h-346q14 -185 55 -263t119 -78t117 78q39 77 55 263zM1559 451h-228q-12 -240 -93 -358t-216 -118t-215 118t-92 358h-226v135h1070v-135zM1483 1112l-187 -102l187 -121l-53 -131l-285 203v104l285 176zM785 1276q122 0 122 -258t-122 -258t-122 258t122 258z
" />
    <glyph glyph-name="whiteSmilingFace.ss01" 
d="M1024 119q-238 0 -419 136t-224 343h127q62 -139 202 -227t314 -88t314 88t202 227h127q-29 -135 -120 -245t-228 -172t-295 -62zM1264 1225q122 0 122 -261t-122 -262q-123 0 -123 262t123 261zM786 1225q123 0 123 -261t-123 -262q-123 0 -123 262t123 261z" />
    </font>
</defs>
</svg>
