<?xml version="1.0" standalone="no"?>
<!DOCTYPE svg PUBLIC "-//W3C//DTD SVG 1.1//EN" "http://www.w3.org/Graphics/SVG/1.1/DTD/svg11.dtd" >
<svg xmlns="http://www.w3.org/2000/svg">
<metadata>
Created by FontPrep 20130207 at Thu Oct 17 11:56:28 2013
 By Rodrigo Saiani
Copyright (c) 2012 by Rodrigo Saiani. All rights reserved.
</metadata>
<defs>
<font id="67063f611dd46bacb6da4a7b13020694" horiz-adv-x='1024' >
  <font-face 
    font-family="MotivaSans-ExtraBoldItalic"
    font-weight="800"
    font-style="italic"
    font-stretch="normal"
    units-per-em="2048"
    panose-1="0 0 9 0 0 0 0 0 0 0"
    ascent="1540"
    descent="-508"
    x-height="1073"
    cap-height="1434"
    bbox="-322 -889 2357 2230"
    underline-thickness="102"
    underline-position="-102"
    slope="-10"
    unicode-range="U+0020-1F633"
  />
<missing-glyph horiz-adv-x="1292" 
d="M369 164h557v1108h-557v-1108zM1094 0h-895v1434h895v-1434z" />
    <glyph glyph-name="f_f" unicode="ff" horiz-adv-x="1538" 
d="M1468 1286q-102 0 -122 -94l-25 -111h225l-49 -274h-225l-164 -930q-57 -340 -426 -340q-111 0 -164 27l62 268q45 -12 84 -12q104 0 127 133l151 854h-358l-164 -930q-57 -340 -426 -340q-111 0 -164 27l61 268q45 -12 84 -12q104 0 127 133l152 854h-145l49 274h141
l29 138q37 167 136 253t294 87q119 0 192 -37l-63 -250q-53 14 -107 14q-102 0 -123 -94l-24 -111h354l29 138q37 167 136 253t294 87q118 0 192 -37l-63 -250q-53 14 -107 14z" />
    <glyph glyph-name="f_f_i" unicode="ffi" horiz-adv-x="2088" 
d="M1894 252q48 0 84 22l-49 -266q-95 -35 -201 -35t-176 68t-45 201l88 456q10 59 -9 84t-75 25h-217l-153 -852q-27 -172 -146 -270t-297 -99q-104 0 -174 35l72 258q47 -10 86 -10q115 0 135 115l146 823h-379l-164 -930q-57 -340 -426 -340q-111 0 -164 27l61 268
q45 -12 84 -12q104 0 127 133l152 854h-145l49 274h141l29 138q37 167 136 253t294 87q119 0 192 -37l-63 -250q-53 14 -107 14q-102 0 -123 -94l-24 -111h377l22 136q84 360 496 360q118 0 226 -25t165 -63l-135 -266q-106 82 -252 82t-172 -129l-17 -95h340
q168 -1 233 -71t28 -256l-86 -432q-12 -70 36 -70z" />
    <glyph glyph-name="f_f_l" unicode="ffl" horiz-adv-x="2091" 
d="M1896 252q48 0 82 22l-49 -266q-104 -35 -203 -35t-172 68q-72 68 -47 201l211 1038q-45 25 -187 25t-167 -113l-21 -111h246l-49 -274h-246l-153 -852q-29 -156 -159 -262t-288 -107q-102 0 -170 27l72 266q35 -10 86 -10t89 32t46 89l146 817h-363l-162 -899
q-28 -160 -156 -265t-313 -106q-84 0 -141 25l66 270q34 -12 84 -12t89 28q38 29 46 76l155 883h-137l49 274h135l23 136q31 164 151 262q121 98 316 98q133 -2 196 -37l-104 -250q-133 33 -187 -5q-30 -19 -34 -50l-27 -154h361l22 136q31 164 152 262t313 98
q191 1 323 -33t259 -145l-221 -1077q-10 -70 38 -70z" />
    <glyph glyph-name=".notdef" horiz-adv-x="1292" 
d="M369 164h557v1108h-557v-1108zM1094 0h-895v1434h895v-1434z" />
    <glyph glyph-name=".null" horiz-adv-x="0" 
 />
    <glyph glyph-name="nonmarkingreturn" horiz-adv-x="681" 
 />
    <glyph glyph-name="space" unicode=" " horiz-adv-x="573" 
 />
    <glyph glyph-name="exclam" unicode="!" horiz-adv-x="688" 
d="M303 373q84 -1 139 -59t38 -160q-18 -102 -78 -148q-60 -45 -144 -45q-84 1 -140 61t-38 162t78 146q60 43 145 43zM483 494h-286l125 944h370z" />
    <glyph glyph-name="quotedbl" unicode="&#x22;" horiz-adv-x="897" 
d="M782 987h-176l37 455h266zM383 987h-174l37 455h264z" />
    <glyph glyph-name="numbersign" unicode="#" horiz-adv-x="1376" 
d="M973 879h-258l-94 -312h260zM1176 879l-93 -312h314l-35 -194h-338l-109 -373h-202l108 373h-258l-112 -373h-205l112 373h-254l35 194h279l94 312h-281l37 198h303l109 357h203l-109 -357h256l107 357h202l-106 -357h297l-37 -198h-317z" />
    <glyph glyph-name="dollar" unicode="$" horiz-adv-x="1251" 
d="M762 1161q-96 0 -152 -38t-57 -96q0 -58 63 -89q63 -32 135 -55q249 -76 334 -159t84 -210q0 -227 -158 -369q-159 -141 -413 -165l-31 -226h-248l50 230q-219 29 -365 125l158 290q176 -98 375 -98q119 0 183 38t64 95t-50 83t-125 50q-249 80 -339 168t-90 219
q0 209 138 338t366 158l31 213h246l-46 -211q238 -26 359 -137l-195 -260q-133 106 -317 106z" />
    <glyph glyph-name="percent" unicode="%" horiz-adv-x="1654" 
d="M1227 551q-74 0 -121 -66q-47 -67 -47 -197t98 -130q166 0 166 266q0 127 -96 127zM1255 729q137 0 221 -81t83 -224q0 -205 -123 -325t-312 -119q-135 0 -215 78t-80 221q0 205 123 327t303 123zM498 1280q-72 0 -119 -66t-47 -196t96 -131q168 0 168 268q0 125 -98 125
zM297 0h-191l1231 1434h189zM526 1458q138 0 222 -81t83 -224q1 -203 -123 -324t-311 -120q-135 1 -215 79t-80 220q0 206 122 328t302 122z" />
    <glyph glyph-name="ampersand" unicode="&#x26;" horiz-adv-x="1554" 
d="M492 369q0 -94 133 -95q104 0 215 74l-197 201l-20 -12q-131 -92 -131 -168zM899 1110q0 84 -98 84q-61 0 -99 -38t-39 -100q0 -62 80 -153l9 4q147 92 147 203zM580 -25q-209 0 -325 83q-116 82 -116 226t80 245t250 204q-125 150 -125 293q0 194 138 318t366 124
q164 0 263 -83t99 -217t-72 -237q-72 -104 -229 -208l152 -160l188 271l234 -115l-129 -199q-39 -66 -107 -155l185 -195l-220 -203l-172 176q-203 -168 -460 -168z" />
    <glyph glyph-name="quotesingle" unicode="'" horiz-adv-x="483" 
d="M459 991h-242l37 451h328z" />
    <glyph glyph-name="parenleft" unicode="(" horiz-adv-x="837" 
d="M795 1606l131 -142q-64 -47 -108 -85q-44 -39 -117 -117t-121 -159t-94 -202t-62 -254q-59 -432 231 -729l-182 -141q-414 309 -332 870q20 162 74 303q53 142 118 238t152 183q88 87 157 137t153 98z" />
    <glyph glyph-name="parenright" unicode=")" horiz-adv-x="837" 
d="M240 1464l182 142q410 -307 332 -873q-76 -612 -656 -956l-131 141q442 336 502 815q60 436 -229 731z" />
    <glyph glyph-name="asterisk" unicode="*" horiz-adv-x="970" 
d="M690 1309l176 116l68 -170l-180 -71l161 -78l-120 -168l-146 113l-14 -195h-195l60 195l-172 -113l-70 170l180 76l-153 84l108 151l148 -108l16 200h197z" />
    <glyph glyph-name="plus" unicode="+" horiz-adv-x="1411" 
d="M821 801h412l-33 -187h-414l-77 -438h-189l78 438h-414l35 187h412l78 438h188z" />
    <glyph glyph-name="comma" unicode="," horiz-adv-x="573" 
d="M248 334q68 0 120 -58t32 -173t-102 -233q-81 -118 -202 -198l-100 95q129 102 207 245q-61 0 -103 54t-26 135q23 133 174 133z" />
    <glyph glyph-name="hyphen" unicode="-" horiz-adv-x="876" 
d="M784 520h-694l33 203h696z" />
    <glyph glyph-name="period" unicode="." horiz-adv-x="636" 
d="M264 311q70 0 119 -51t34 -137t-67 -124t-120 -38q-70 0 -118 53q-48 54 -33 140t65 122t120 35z" />
    <glyph glyph-name="slash" unicode="/" horiz-adv-x="763" 
d="M250 -98h-268l780 1638h262z" />
    <glyph glyph-name="zero" unicode="0" horiz-adv-x="1462" 
d="M845 1165q-118 0 -211 -99t-134 -230t-41 -263q0 -303 217 -303q123 0 216 104t135 236q42 133 42 263t-53 211t-171 81zM907 1468q264 0 396 -159q131 -160 131 -423t-148 -512q-148 -250 -389 -351q-131 -55 -279 -56q-262 0 -394 161t-132 421q0 166 58 330
q123 355 418 507q157 82 339 82z" />
    <glyph glyph-name="one" unicode="1" horiz-adv-x="1183" 
d="M1077 313l-57 -313h-963l60 313h307l121 717l-254 -108l-82 270l500 250h270l-197 -1129h295z" />
    <glyph glyph-name="two" unicode="2" horiz-adv-x="1253" 
d="M1227 1120q0 -158 -82 -288t-303 -293l-297 -220h592l-58 -319h-1054l51 274l485 365q154 115 209 194t55 153t-57 116q-57 41 -154 41q-174 0 -317 -86l-102 250q242 162 530 161q229 0 365 -95t137 -253z" />
    <glyph glyph-name="three" unicode="3" horiz-adv-x="1259" 
d="M1149 455q0 -203 -184 -341t-498 -139q-154 -1 -290 47t-214 128l170 235q119 -100 330 -100q159 0 239 59t80 134t-51 105t-162 29h-243l45 250h186q125 0 199 51t73 123q0 123 -183 123t-343 -104l-125 258q217 150 541 149q254 0 371 -92t116 -242q0 -100 -74 -200
t-229 -156v-6q117 -27 181 -110t65 -201z" />
    <glyph glyph-name="four" unicode="4" horiz-adv-x="1357" 
d="M834 1004l-402 -426h324zM1294 578l-47 -273h-200l-54 -305h-350l51 305h-655l41 234l874 901h293l-151 -862h198z" />
    <glyph glyph-name="five" unicode="5" horiz-adv-x="1306" 
d="M832 924q164 0 262 -96t98 -267q0 -250 -193 -418t-497 -168t-463 125l162 273q154 -88 308 -88q154 1 235 65t81 168q0 74 -48 113t-134 39q-133 0 -260 -99l-201 117l133 750h969l-55 -320h-633l-45 -260q117 66 281 66z" />
    <glyph glyph-name="six" unicode="6" horiz-adv-x="1406" 
d="M940 488q0 160 -173 159q-173 0 -282 -131q-10 -94 41 -165t159 -73q107 -2 181 62t74 148zM872 932q198 0 317 -102q120 -102 120 -281q1 -231 -187 -403t-450 -171t-403 147q-142 146 -142 421t123 505q66 122 159 215t235 149t314 56q260 1 424 -118l-157 -256
q-105 78 -271 78t-284 -99q-118 -98 -164 -276q168 135 366 135z" />
    <glyph glyph-name="seven" unicode="7" horiz-adv-x="1138" 
d="M1202 1161l-719 -1161h-377l701 1118h-670l58 320h1056z" />
    <glyph glyph-name="eight" unicode="8" horiz-adv-x="1292" 
d="M644 621q-102 1 -170 -61t-66 -135q0 -73 49 -115t151 -42t172 60q68 60 68 134q0 75 -50 117q-52 42 -154 42zM545 1004q0 -134 170 -134q86 0 142 50t56 114q0 131 -170 131q-85 0 -141 -49q-56 -48 -57 -112zM772 1468q254 0 385 -98t131 -260q0 -109 -68 -205
t-194 -155q190 -82 190 -283t-186 -351q-188 -150 -491 -151q-250 0 -376 109t-126 264q0 125 81 241t230 175q-78 34 -123 104t-45 164q0 184 168 315q170 131 424 131z" />
    <glyph glyph-name="nine" unicode="9" horiz-adv-x="1294" 
d="M719 1159q-98 0 -165 -60q-67 -59 -72 -145t41 -132t131 -46t163 41t117 117q8 109 -54 167q-63 58 -161 58zM532 479q-174 1 -296 99t-116 326q7 228 181 394q174 164 473 164q539 0 516 -585q-16 -406 -242 -654t-602 -248q-122 -1 -228 25t-159 63l111 263
q145 -55 307 -56q334 0 428 373q-164 -164 -373 -164z" />
    <glyph glyph-name="colon" unicode=":" horiz-adv-x="634" 
d="M281 330q79 0 131 -51t37 -143t-69 -132q-54 -41 -133 -41t-130 54q-51 55 -37 145t68 129t133 39zM423 1098q79 0 130 -52t37 -149q-25 -160 -197 -160q-86 0 -136 51q-50 52 -36 142q15 90 69 129t133 39z" />
    <glyph glyph-name="semicolon" unicode=";" horiz-adv-x="634" 
d="M80 162q0 76 59 124t125 48t112 -40t46 -122q0 -127 -90 -262t-234 -229l-82 77q131 104 189 242q-55 8 -90 47t-35 115zM367 748q-70 0 -111 38t-41 120q1 84 63 138t130 54t110 -37q41 -37 41 -121t-61 -138t-131 -54z" />
    <glyph glyph-name="less" unicode="&#x3c;" horiz-adv-x="1028" 
d="M1001 1032l-673 -370l557 -402l-154 -168l-680 475l33 191l844 467z" />
    <glyph glyph-name="equal" unicode="=" horiz-adv-x="1161" 
d="M1016 328h-946l32 184h949zM1087 721h-948l33 184h948z" />
    <glyph glyph-name="greater" unicode="&#x3e;" horiz-adv-x="1026" 
d="M1020 758l-33 -191l-848 -473l-92 166l698 402l-544 370l143 193z" />
    <glyph glyph-name="question" unicode="?" horiz-adv-x="1067" 
d="M400 -25q-171 0 -171 174q0 88 66 152t152 64q171 0 171 -172q0 -88 -66 -153t-152 -65zM686 1458q202 0 312 -81t110 -216q0 -167 -154 -284q-66 -51 -134 -101t-128 -121q-59 -72 -80 -159h-247q18 102 60 184t90 130t92 88q104 95 104 169q0 99 -155 99t-292 -76
l-82 233q92 61 228 98t276 37z" />
    <glyph glyph-name="at" unicode="@" horiz-adv-x="1906" 
d="M1047 393l92 299q-29 14 -95 15q-100 0 -160 -77t-61 -184q0 -55 24 -85t62 -29q76 0 138 61zM66 307q0 467 327 759q328 292 821 292q326 0 503 -161t177 -437t-162 -474q-162 -200 -440 -200q-164 0 -227 98q-107 -68 -233 -68t-198 72t-73 215q0 240 156 376t401 136
q150 0 309 -61l-118 -401q-39 -143 49 -144q116 0 194 122q78 123 78 311t-117 292t-348 105q-360 0 -596 -215t-235 -568q0 -225 133 -348t364 -123q158 1 326 58l37 -222q-211 -71 -388 -71t-299 36q-441 130 -441 621z" />
    <glyph glyph-name="A" unicode="A" horiz-adv-x="1552" 
d="M956 524l-82 500l-253 -500h335zM1001 250h-520l-125 -250h-370l790 1434h342l305 -1434h-379z" />
    <glyph glyph-name="B" unicode="B" horiz-adv-x="1325" 
d="M668 295q112 0 164 48t53 126q0 125 -158 125h-238l-53 -299h232zM725 852q104 0 154 53q49 53 49 119q0 115 -160 115h-182l-49 -287h188zM842 1434q238 0 344 -77t106 -227q0 -248 -245 -362q213 -74 213 -272t-156 -346q-156 -150 -453 -150h-622l252 1434h561z" />
    <glyph glyph-name="C" unicode="C" horiz-adv-x="1347" 
d="M678 -35q-264 0 -432 163t-168 470q0 201 70.5 368t191.5 275.5t278.5 167.5t318 59t283.5 -36.5t193 -100.5l-209 -278q-111 92 -294 92t-318 -136.5t-135 -371.5q0 -174 86 -261t225 -87q178 4 340 121l125 -254q-96 -82 -246.5 -136.5t-308.5 -54.5z" />
    <glyph glyph-name="D" unicode="D" horiz-adv-x="1431" 
d="M582 315q203 0 329.5 146.5t126.5 355.5q0 299 -315 299h-141l-142 -801h142zM762 1434q301 0 478 -156t177 -444q0 -358 -243.5 -596t-657.5 -238h-487l252 1434h481z" />
    <glyph glyph-name="E" unicode="E" horiz-adv-x="1245" 
d="M1219 1135h-639l-50 -265h547l-53 -299h-545l-47 -270h641l-53 -301h-991l252 1434h991z" />
    <glyph glyph-name="F" unicode="F" horiz-adv-x="1173" 
d="M1167 1133h-589l-60 -334h514l-53 -299h-512l-88 -500h-350l252 1432h940z" />
    <glyph glyph-name="G" unicode="G" horiz-adv-x="1474" 
d="M712.5 -33q-145.5 0 -254 35t-196.5 103.5t-139 185.5t-51 273.5t55 314t159.5 292t275.5 217t382 82.5q309 0 504 -163l-205 -254q-129 92 -307 92q-123 0 -220.5 -48t-153.5 -127q-113 -159 -113 -360q0 -317 294 -317q131 0 232 69l43 209h-305l49 281h639l-115 -678
q-115 -96 -271.5 -151.5t-302 -55.5z" />
    <glyph glyph-name="H" unicode="H" horiz-adv-x="1540" 
d="M1323 0h-350l102 563h-596l-100 -563h-350l252 1434h350l-101 -572h598l101 572h346z" />
    <glyph glyph-name="I" unicode="I" horiz-adv-x="595" 
d="M379 0h-350l252 1434h350z" />
    <glyph glyph-name="J" unicode="J" horiz-adv-x="966" 
d="M238 -39q-182 0 -293 39l73 289q66 -16 185 -17q240 0 278 238l162 924h358l-163 -922q-92 -551 -600 -551z" />
    <glyph glyph-name="K" unicode="K" horiz-adv-x="1490" 
d="M870 807l473 -807h-450l-279 571l-149 -137l-76 -434h-350l252 1434h350l-94 -547l538 547h471z" />
    <glyph glyph-name="L" unicode="L" horiz-adv-x="1148" 
d="M434 315h649l-53 -315h-1001l252 1434h350z" />
    <glyph glyph-name="M" unicode="M" horiz-adv-x="1800" 
d="M1835 1434l-252 -1434h-334l137 780l-475 -727h-200l-213 725l-136 -778h-333l252 1434h315l287 -971l610 971h342z" />
    <glyph glyph-name="N" unicode="N" horiz-adv-x="1513" 
d="M1296 0h-295l-477 825l-145 -825h-350l252 1434h297l466 -836l146 836h358z" />
    <glyph glyph-name="O" unicode="O" horiz-adv-x="1568" 
d="M895 1143q-139 0 -245.5 -87t-155 -204t-48.5 -252.5t79 -222t214 -86.5q201 0 323 172t122 383q0 139 -75 218t-214 79zM944 1468q313 0 468 -174t149 -446q-10 -371 -257 -627t-612 -256q-279 0 -447.5 168t-168.5 457q0 162 57 317.5t163.5 281.5t275.5 202.5
t372 76.5z" />
    <glyph glyph-name="P" unicode="P" horiz-adv-x="1277" 
d="M682 750q127 0 186 74t60 163q0 147 -180 148h-168l-68 -385h170zM809 1434q246 0 372 -108t126 -302t-150 -373q-76 -90 -211 -145t-311 -55h-176l-80 -451h-350l252 1434h528z" />
    <glyph glyph-name="Q" unicode="Q" horiz-adv-x="1587" 
d="M739 291q201 0 323 172t122 383q0 139 -75 218t-214 79t-245 -87t-155 -204q-49 -116 -49 -252t79 -222t214 -87zM76 590q0 162 57 318t163 281q106 126 276 203q169 77 372 76q313 0 468 -174t147 -445q-9 -271 -147 -489t-368 -319l361 -180l-207 -256l-508 360
q-278 0 -446 168t-168 457z" />
    <glyph glyph-name="R" unicode="R" horiz-adv-x="1394" 
d="M698 756q145 0 215 69.5t70 152.5t-51 120t-164 37h-188l-68 -379h186zM838 1434q526 0 526 -387q0 -166 -90 -307.5t-264 -217.5l237 -522h-389l-192 457h-207l-80 -457h-350l252 1434h557z" />
    <glyph glyph-name="S" unicode="S" horiz-adv-x="1245" 
d="M524 301q127 0 191.5 42t64.5 108q0 37 -28.5 62.5t-65.5 38.5t-110.5 37.5t-124.5 45.5q-129 53 -201 132t-72 214q0 199 151.5 338t448.5 139q162 0 288 -42t198 -107l-185 -252q-119 102 -299 102q-111 0 -172 -39t-61 -100q0 -78 141 -122q35 -11 91.5 -28.5
t94.5 -31.5q289 -113 289 -346q0 -209 -172 -363t-477 -153.5t-510 135.5l146 286q174 -96 374 -96z" />
    <glyph glyph-name="T" unicode="T" horiz-adv-x="1351" 
d="M1374 1135h-418l-198 -1135h-350l198 1135h-420l54 299h1187z" />
    <glyph glyph-name="U" unicode="U" horiz-adv-x="1439" 
d="M618 -35q-266 0 -407 134t-90 421l160 914h350l-158 -902q-23 -119 30.5 -182t172.5 -63t193.5 63.5t95.5 181.5l159 902h351l-160 -914q-35 -195 -141.5 -322.5t-244.5 -180t-311 -52.5z" />
    <glyph glyph-name="V" unicode="V" horiz-adv-x="1507" 
d="M840 0h-355l-292 1434h385l161 -1020l514 1020h387z" />
    <glyph glyph-name="W" unicode="W" horiz-adv-x="2099" 
d="M2232 1434l-706 -1434h-238l-168 911l-489 -911h-240l-207 1434h334l123 -869l451 869h239l156 -861l385 861h360z" />
    <glyph glyph-name="X" unicode="X" horiz-adv-x="1488" 
d="M930 737l434 -737h-410l-233 483l-385 -483h-428l674 731l-381 703h399l201 -461l344 461h426z" />
    <glyph glyph-name="Y" unicode="Y" horiz-adv-x="1388" 
d="M874 569l-98 -569h-352l100 571l-346 863h406l186 -523l375 523h381z" />
    <glyph glyph-name="Z" unicode="Z" horiz-adv-x="1394" 
d="M1374 1225l-846 -924h725l-53 -301h-1161l37 217l821 918h-627l54 299h1087z" />
    <glyph glyph-name="bracketleft" unicode="[" horiz-adv-x="671" 
d="M762 1372h-234l-254 -1419h236l-43 -234h-496l336 1885h496z" />
    <glyph glyph-name="backslash" unicode="\" horiz-adv-x="851" 
d="M639 -98h-252l-186 1638h250z" />
    <glyph glyph-name="bracketright" unicode="]" horiz-adv-x="669" 
d="M410 -281h-496l41 234h233l250 1419h-233l41 232h495z" />
    <glyph glyph-name="asciicircum" unicode="^" horiz-adv-x="1349" 
d="M995 825l-202 392l-336 -392h-351l635 727h226l379 -727h-351z" />
    <glyph glyph-name="underscore" unicode="_" horiz-adv-x="1413" 
d="M1241 -279h-1182l50 275h1181z" />
    <glyph glyph-name="grave" unicode="`" horiz-adv-x="716" 
d="M733 1233h-188l-252 307h371z" />
    <glyph glyph-name="a" unicode="a" horiz-adv-x="1269" 
d="M424 451q0 -201 156 -201q86 0 145.5 70.5t79.5 187.5l51 297q-49 25 -125 24q-143 0 -225 -114.5t-82 -263.5zM442 -25q-162 0 -264 118t-102 325q0 283 183 485.5t441 202.5q96 0 248 -37h273l-144 -797q-6 -35 6.5 -52t29.5 -17t58 4l-38 -197q-74 -31 -187 -30
q-182 0 -180 186q-57 -96 -133 -143.5t-191 -47.5z" />
    <glyph glyph-name="b" unicode="b" horiz-adv-x="1208" 
d="M831 660q0 66 -35 109q-36 44 -106 44t-128 -55t-75 -164l-55 -303q149 -45 247 23q58 40 90 101q62 117 62 245zM866 1106q154 0 240 -99t86 -264q0 -216 -92 -405q-51 -104 -127 -183t-198 -129t-271 -51q-252 0 -451 70l258 1491h336l-104 -592q49 78 136 120t187 42z
" />
    <glyph glyph-name="c" unicode="c" horiz-adv-x="1067" 
d="M567.5 -35q-239.5 0 -362.5 136.5t-123 349.5q0 254 163 448q79 94 202.5 151.5t275.5 57.5q233 0 373 -129l-154 -229q-82 72 -219 71.5t-222 -97.5t-85 -219t58 -186.5t171.5 -64.5t222.5 90l111 -225q-172 -154 -411.5 -154z" />
    <glyph glyph-name="d" unicode="d" horiz-adv-x="1284" 
d="M717 813q-125 0 -201 -98t-76 -222q0 -223 148 -223q82 0 142 68t81 182l43 266q-57 27 -137 27zM1126 203q16 0 58 4l-39 -197q-74 -30 -175 -30t-146 46q-44 46 -42 146q-94 -201 -333 -201q-170 0 -271 120q-100 120 -100 344t146 435q73 104 199 168q127 64 265 64
t211 -33l82 471h334l-225 -1268q-6 -35 7 -52t29 -17z" />
    <glyph glyph-name="e" unicode="e" horiz-adv-x="1144" 
d="M731 842q-117 0 -202 -68.5t-117 -179.5q184 4 301.5 51t117.5 123q0 35 -27.5 54.5t-72.5 19.5zM594 -35q-246 0 -382 133t-132 355q4 268 188.5 460.5t489.5 192.5q170 0 268 -74t96 -207t-106 -232q-201 -190 -610 -190h-5q33 -158 240 -157q174 0 295 106l111 -223
q-82 -78 -203 -121t-250 -43z" />
    <glyph glyph-name="f" unicode="f" horiz-adv-x="815" 
d="M780 1286q-102 0 -123 -94l-24 -111h225l-49 -274h-225l-164 -930q-57 -340 -426 -340q-111 0 -164 27l61 268q45 -12 84 -12q104 0 127 133l152 854h-145l49 274h141l29 138q37 167 136 253t294 87q118 0 192 -37l-63 -250q-53 14 -107 14z" />
    <glyph glyph-name="g" unicode="g" horiz-adv-x="1212" 
d="M709 817q-119 0 -192 -90t-73 -225q0 -180 148 -180q72 0 131.5 56t75.5 150l45 260q-57 29 -135 29zM446 41q-141 0 -251.5 112.5t-110.5 313.5q0 260 178 450.5t445 190.5q162 0 258 -39l256 -4l-187 -1057q-86 -471 -614 -471q-102 0 -213 28.5t-174 72.5l92 266
q133 -82 281.5 -82t217 48t91.5 159l37 182q-111 -170 -306 -170z" />
    <glyph glyph-name="h" unicode="h" horiz-adv-x="1310" 
d="M1161.5 225q26.5 0 44.5 6l-43 -219q-66 -27 -176 -26q-223 0 -223 186q0 35 10 90l78 383q35 168 -96 168q-109 0 -186.5 -108.5t-112.5 -305.5l-76 -399h-334l223 1217q12 59 -49 59q-32 0 -57 -10l57 262q53 25 160 24q252 0 199 -284l-66 -369h12q129 207 369 207
q174 0 248 -96.5t43 -272.5l-78 -442l-2 -19q0 -23 14.5 -37t41 -14z" />
    <glyph glyph-name="i" unicode="i" horiz-adv-x="634" 
d="M491.5 217q24.5 0 53.5 4l-41 -219q-72 -27 -182 -27q-276 0 -218 281l148 817h340l-143 -788q-6 -31 6 -49.5t36.5 -18.5zM512 1565q90 0 132 -42t39 -116t-68.5 -134.5t-155.5 -60.5t-128 40t-36 117t64.5 136.5t152.5 59.5z" />
    <glyph glyph-name="j" unicode="j" horiz-adv-x="641" 
d="M-50 -463q-154 0 -208 39l61 256q33 -12 98 -12t101 26t49 93l201 1134h332l-217 -1202q-29 -162 -146 -248t-271 -86zM446 1235q-170 1 -164 157q2 76 66 136q64 59 153 59t131 -43q42 -42 40 -116t-69 -134t-157 -59z" />
    <glyph glyph-name="k" unicode="k" horiz-adv-x="1267" 
d="M821 725q0 78 -79 78t-149.5 -69.5t-109.5 -225.5l119 39q219 72 219 178zM892.5 -25q-188.5 0 -247.5 152l-80 188l-125 -45l-49 -270h-334l215 1210q12 66 -43 66q-14 0 -51 -8l45 256q109 29 176 28q133 0 176 -78.5t11 -259.5l-47 -258h2q133 150 323 150
q147 0 227 -79t80 -208q1 -244 -284 -387l65 -141q33 -63 78 -63.5t82 24.5l59 -197q-90 -80 -278.5 -80z" />
    <glyph glyph-name="l" unicode="l" horiz-adv-x="618" 
d="M414 1563q256 0 192 -308l-180 -946q-12 -57 45 -57q16 0 47 6l-51 -262q-168 -36 -261 -6q-171 56 -130 260l186 971q14 63 -45 63q-28 0 -51 -8l47 260q90 27 201 27z" />
    <glyph glyph-name="m" unicode="m" horiz-adv-x="1925" 
d="M897 1106q233 0 260 -225q131 225 371 225q170 0 250 -104t39 -291l-95 -428q-8 -29 8 -49t40 -19q24 0 49 4l-41 -217q-62 -27 -192 -27t-181 72t-21 209l86 408q14 68 -12 108t-96 41q-70 0 -133 -72t-94 -235l-91 -506h-323l119 674q12 63 -14 101t-89 38
q-180 0 -248 -356l-83 -457h-334l149 801q12 70 -51 69q-20 0 -61 -10l41 215q68 23 156 23t143 -51q56 -51 45 -160h4q88 125 182 172t217 47z" />
    <glyph glyph-name="n" unicode="n" horiz-adv-x="1329" 
d="M937 1106q153 0 233.5 -99.5t43.5 -279.5l-84 -432q-6 -31 8.5 -49.5t37 -18.5t51.5 4l-43 -217q-63 -27 -187 -26q-260 0 -200 280l75 381q33 164 -110 164q-94 0 -168 -88t-107 -268l-81 -457h-334l153 801q12 70 -51 69q-25 0 -61 -10l37 215q68 23 155.5 23t140 -47
t50.5 -144l-7 -37h5q90 133 190 184.5t253 51.5z" />
    <glyph glyph-name="o" unicode="o" horiz-adv-x="1236" 
d="M686 813q-125 0 -197.5 -100.5t-72.5 -220.5q0 -232 178 -232q125 0 200.5 100.5t75.5 247.5q0 205 -184 205zM727 1094q207 0 343 -119t136 -344q0 -170 -72.5 -316.5t-221 -240.5t-357.5 -94t-341 126.5t-132 342.5q0 270 171 457.5t474 187.5z" />
    <glyph glyph-name="p" unicode="p" horiz-adv-x="1255" 
d="M596 236q137 0 217 112t80 270q0 184 -148 185q-84 -1 -145 -59t-84 -181l-51 -280q41 -47 131 -47zM318 1098q92 0 142 -50q52 -50 50 -157l-2 -21h4q131 227 367 228q170 0 260 -119t90 -305t-68 -340q-68 -156 -206 -262q-137 -106 -297 -106t-238 65l-80 -453h-334
l219 1223q12 70 -51 69q-25 0 -61 -10l37 215q76 23 168 23z" />
    <glyph glyph-name="q" unicode="q" horiz-adv-x="1243" 
d="M426 461q0 -95 40 -153t120 -58t140 70t81 188l51 297q-53 25 -127 24q-141 1 -223 -111t-82 -257zM76 426q0 280 183 480t443 200q92 0 248 -37h273l-262 -1489h-297l100 586q-57 -96 -130 -143t-190 -48q-160 0 -264 120t-104 331z" />
    <glyph glyph-name="r" unicode="r" horiz-adv-x="899" 
d="M799 1106q78 0 143 -35l-59 -307q-51 25 -139 24.5t-159 -82t-102 -241.5l-90 -465h-332l144 760q12 70 -41 69q-25 0 -62 -10l48 256q78 25 180 25q180 0 166 -182l-7 -52h13q102 240 297 240z" />
    <glyph glyph-name="s" unicode="s" horiz-adv-x="985" 
d="M408 248q82 0 128 24.5t46 62.5t-28 53t-97.5 32.5t-110.5 32.5q-213 80 -213 259t139.5 287.5t370 108.5t363.5 -111l-134 -225q-119 80 -270 80q-66 0 -103.5 -23.5t-37.5 -64.5q1 -40 73 -66q49 -17 81 -26q165 -42 236 -107t71 -170q0 -197 -154 -306t-390.5 -109
t-373.5 100l121 250q115 -82 283 -82z" />
    <glyph glyph-name="t" unicode="t" horiz-adv-x="907" 
d="M573 264q61 0 142 27l37 -236q-147 -76 -318.5 -75.5t-238 71t-37.5 228.5l90 509h-154l51 285h154l18 103l170 170h195l-47 -273h262l-51 -285h-260l-78 -438q-14 -86 65 -86z" />
    <glyph glyph-name="u" unicode="u" horiz-adv-x="1288" 
d="M354 1106q258 0 201 -272l-80 -408q-27 -156 113 -156q68 0 132 55.5t87 186.5l102 569h334l-147 -821q-12 -61 48 -61q30 0 48 2l-39 -193q-63 -33 -166.5 -33t-152 35t-41.5 135l8 50h-8q-41 -109 -133.5 -164.5t-213.5 -55.5q-172 0 -261 100.5t-48 307.5l82 424
q12 66 -49 65q-33 0 -66 -8l41 211q86 31 209 31z" />
    <glyph glyph-name="v" unicode="v" horiz-adv-x="1187" 
d="M287 1106q96 0 143 -43t68 -133q57 -236 82 -586l346 729h342l-596 -1081h-293l-193 815q-14 66 -63 65q-20 0 -53 -8l41 211q80 31 176 31z" />
    <glyph glyph-name="w" unicode="w" horiz-adv-x="1796" 
d="M287 1106q96 0 142 -43t71 -144.5t51 -533.5l309 688h273l86 -657l313 657h342l-567 -1081h-295l-84 653l-310 -653h-284l-150 815q-12 66 -61 65q-25 0 -53 -8l41 211q80 31 176 31z" />
    <glyph glyph-name="x" unicode="x" horiz-adv-x="1150" 
d="M994 221q38 0 77 17l-31 -230q-61 -31 -161 -31q-137 0 -213 142l-111 188l-197 -307h-399l4 18l457 529l-121 223q-47 80 -105 80t-79 -10l37 237q59 23 146 23t146 -43t111 -139l72 -148l213 303h389l-2 -12l-463 -529l156 -256q36 -55 74 -55z" />
    <glyph glyph-name="y" unicode="y" horiz-adv-x="1185" 
d="M228.5 -459q-140.5 0 -251.5 62l86 241q142 -62 209 2q33 32 64 99l49 98l-213 756q-8 37 -21.5 51t-39 14t-54.5 -8l41 211q80 31 174 31t143.5 -43t67.5 -131l117 -564l318 713h354l-645 -1237q-82 -156 -170 -225.5t-228.5 -69.5z" />
    <glyph glyph-name="z" unicode="z" horiz-adv-x="1056" 
d="M1051 848l-590 -576h497l-45 -272h-917l35 215l569 576h-440l51 282h881z" />
    <glyph glyph-name="braceleft" unicode="{" horiz-adv-x="825" 
d="M987 1659l-33 -193q-98 -6 -161 -56t-78 -140l-64 -350q-12 -76 -70 -129t-122 -74l-2 -2q55 -17 95 -75t28 -130l-62 -352q-16 -88 28 -138t140 -57l-33 -192q-213 0 -315 97t-74 267l51 285q33 182 -155 192l37 205q188 14 223 195l51 282q29 170 166 268t350 97z" />
    <glyph glyph-name="bar" unicode="|" horiz-adv-x="475" 
d="M168 -219h-199l338 1905h199z" />
    <glyph glyph-name="braceright" unicode="}" horiz-adv-x="825" 
d="M244 1466l35 193q211 0 314 -97t73 -268l-50 -282q-35 -180 156 -195l-39 -205q-190 -10 -223 -192l-51 -285q-31 -170 -169 -267t-351 -97l36 192q205 12 240 195l64 352q12 72 70 129t122 76v2q-57 19 -95 73t-26 130l64 350q14 90 -30 140t-140 56z" />
    <glyph glyph-name="asciitilde" unicode="~" horiz-adv-x="1271" 
d="M782 446q-57 0 -168 36t-169 36t-109 -76h-246q60 180 162 266t227 85q63 0 167 -35t150 -35q46 -1 87 23t57 55h270q-63 -183 -182 -269t-246 -86z" />
    <glyph glyph-name="exclamdown" unicode="&#xa1;" horiz-adv-x="688" 
d="M381 -367h-373l209 947h289zM388 698q-83 0 -139 62t-39 162q16 102 78 146t146 44t139 -59t37 -161t-78 -148t-144 -46z" />
    <glyph glyph-name="cent" unicode="&#xa2;" horiz-adv-x="1118" 
d="M746 1010q-136 0 -222 -98t-86 -219q0 -123 58 -187t172 -64t223 90l110 -225q-145 -129 -356 -149l-20 -187h-195l45 191q-180 31 -275 160t-96 317q0 240 148 431t407 220l25 209h195l-50 -209q176 -20 289 -123l-153 -229q-82 72 -219 72z" />
    <glyph glyph-name="sterling" unicode="&#xa3;" horiz-adv-x="1224" 
d="M870 1163q-108 0 -161 -45t-72 -153l-31 -172h350l-30 -170h-348l-27 -148q-23 -135 -65 -175q-22 -22 -54 -40q70 12 116 12t114 -9t132 -9t167 20l8 -268q-109 -41 -283 -41q-76 1 -184 15t-211 14q-102 0 -211 -27l-41 213q82 56 116 98t46 117l41 228h-119l31 170
h116l41 223q37 221 188 335q151 113 384 113t385 -102l-203 -262q-87 63 -195 63z" />
    <glyph glyph-name="currency" unicode="&#xa4;" horiz-adv-x="1452" 
d="M526 670q0 -189 206 -189q108 0 182 79t73 210q1 190 -205 190q-108 0 -182 -78q-74 -79 -74 -212zM1319 813q0 -238 -139 -403l139 -170l-162 -140l-143 174q-162 -90 -348 -90t-314 97l-211 -181l-112 138l211 180q-45 94 -45 209q0 252 155 422l-145 176l162 137
l153 -186q152 80 332 80t301 -91l227 193l113 -137l-223 -189q49 -98 49 -219z" />
    <glyph glyph-name="yen" unicode="&#xa5;" horiz-adv-x="1269" 
d="M965 799h260l-29 -170h-367l-4 -4l-22 -127h368l-28 -170h-369l-57 -328h-352l57 328h-373l29 170h375l22 131h-373l29 170h268l-278 635h397l189 -560l380 560h379z" />
    <glyph glyph-name="brokenbar" unicode="&#xa6;" horiz-adv-x="452" 
d="M455 1460l-258 -1458h-199l258 1458h199z" />
    <glyph glyph-name="section" unicode="&#xa7;" horiz-adv-x="1107" 
d="M602 846q-68 0 -118 -42t-50 -110q0 -104 133 -104q80 0 127 38t47 99q-1 119 -139 119zM444 225q188 0 189 94q0 54 -113 81q-29 6 -77 18t-85 24q-193 61 -192 224q0 90 50 164t138 112q-102 61 -102 204q0 142 127 232t342 90t350 -69l-123 -230q-123 43 -250 43
q-158 0 -157 -92q0 -41 47 -61q80 -34 184 -53q119 -29 181 -83t63 -149q0 -180 -203 -274q63 -25 98 -77t35 -116q0 -143 -138 -240t-353 -98q-260 1 -420 99l125 229q45 -29 128 -51t156 -21z" />
    <glyph glyph-name="dieresis" unicode="&#xa8;" horiz-adv-x="837" 
d="M791 1520q66 0 101.5 -41t21.5 -116q-25 -140 -150 -140q-70 0 -108 41t-23 118q25 138 158 138zM379 1520q66 0 102.5 -41t23.5 -116t-56 -107.5t-105 -32.5t-99.5 41t-25.5 118q25 138 160 138z" />
    <glyph glyph-name="copyright" unicode="&#xa9;" horiz-adv-x="1656" 
d="M804 330q-150 0 -240 86q-89 86 -89 235q0 215 136 336t325 121q150 0 246 -78l-90 -141q-74 57 -182 57t-180 -70t-73 -172q1 -102 51 -151t141 -49t177 59l57 -145q-129 -88 -279 -88zM963 1288q-285 0 -486 -190t-201 -484q0 -219 132 -347t350 -128q288 -1 486 189
t198 489q0 217 -131 344t-348 127zM991 1462q271 0 451 -171t180 -453q0 -190 -76 -356t-202 -278q-126 -110 -286 -173q-161 -63 -331 -64q-272 0 -452 171q-179 170 -179 440t130 472t333 307t432 105z" />
    <glyph glyph-name="ordfeminine" unicode="&#xaa;" horiz-adv-x="776" 
d="M287 735q37 0 86 49l8 47q-66 4 -72 5q-55 0 -63 -50q-10 -51 41 -51zM285 989h121l6 41q0 29 -90 29t-138 -41l-88 137q127 119 324 119q148 0 206 -57t40 -170l-45 -240q-4 -53 41 -53h30l-45 -181q-55 -16 -121 -16t-103 30q-38 30 -44 83q-80 -113 -197 -113
q-88 0 -139 61t-33 156q39 215 275 215z" />
    <glyph glyph-name="guillemotleft" unicode="&#xab;" horiz-adv-x="1138" 
d="M1087 791l-282 -271l186 -272l-180 -154l-287 424l416 426zM604 791l-282 -271l188 -272l-182 -154l-287 424l414 426z" />
    <glyph glyph-name="logicalnot" unicode="&#xac;" horiz-adv-x="1257" 
d="M1102 260h-172l69 408h-868l33 186h1042z" />
    <glyph glyph-name="registered" unicode="&#xae;" horiz-adv-x="1656" 
d="M881 766q55 0 86 31t30 80q0 70 -90 69h-106l-31 -180h111zM948 1100q113 0 172 -52q60 -52 60 -136t-46 -148q-46 -63 -124 -92l116 -314h-182l-88 269h-115l-47 -269h-157l131 742h280zM963 1288q-285 0 -486 -190t-201 -484q0 -219 132 -347t350 -128q288 -1 486 189
t198 489q0 217 -131 344t-348 127zM991 1462q271 0 451 -171t180 -453q0 -190 -76 -356t-202 -278q-126 -110 -286 -173q-161 -63 -331 -64q-272 0 -452 171q-179 170 -179 440t130 472t333 307t432 105z" />
    <glyph glyph-name="macron" unicode="&#xaf;" horiz-adv-x="1120" 
d="M985 1276h-590l27 158h592z" />
    <glyph glyph-name="degree" unicode="&#xb0;" horiz-adv-x="851" 
d="M657 1122q1 109 -119 109q-60 0 -104 -44q-43 -45 -43 -109q0 -122 107 -122q70 0 114 45t45 121zM584 1438q127 0 215 -74t88 -211q0 -191 -130 -297t-296 -106q-127 0 -214 74t-87 210q0 190 129 297t295 107z" />
    <glyph glyph-name="plusminus" unicode="&#xb1;" horiz-adv-x="1191" 
d="M1026 8h-1016l33 187h1014zM786 995h412l-31 -186h-413l-76 -438h-191l78 438h-413l32 186h412l78 439h190z" />
    <glyph glyph-name="acute" unicode="&#xb4;" horiz-adv-x="1105" 
d="M616 1210h-186l176 308h369z" />
    <glyph glyph-name="paragraph" unicode="&#xb6;" horiz-adv-x="1067" 
d="M207 1020q0 167 104 291q104 123 379 123h420l-252 -1434h-186l217 1237h-125l-217 -1237h-189l127 715q-131 27 -205 105t-73 200z" />
    <glyph glyph-name="periodcentered" unicode="&#xb7;" horiz-adv-x="518" 
d="M421 807q81 0 135 -59q54 -60 37 -156t-75 -140t-141 -44q-82 0 -136 60t-37 154q16 94 76 140q60 45 141 45z" />
    <glyph glyph-name="cedilla" unicode="&#xb8;" horiz-adv-x="716" 
d="M272 -98q72 0 107 -34t35 -91q0 -96 -87 -177t-245 -96l-33 136q98 18 130 43.5t32 58.5t-31 33q-16 0 -41 -13l-90 93l101 149h153l-72 -106q33 4 41 4z" />
    <glyph glyph-name="ordmasculine" unicode="&#xba;" horiz-adv-x="813" 
d="M403 1028q-35 0 -63 -32t-37 -84q-10 -52 5 -87t52 -34q80 0 105 120q8 51 -9 84q-18 33 -53 33zM444 1262q142 0 228 -90t55 -261q-31 -170 -149 -262t-256 -92q-139 0 -224 92q-84 92 -52 263q32 170 144 260t254 90z" />
    <glyph glyph-name="guillemotright" unicode="&#xbb;" horiz-adv-x="1134" 
d="M606 518l-422 -424l-139 154l283 272l-189 271l189 153zM1085 518l-419 -424l-140 154l281 272l-186 271l188 153z" />
    <glyph glyph-name="onequarter" unicode="&#xbc;" horiz-adv-x="2271" 
d="M1651 336h161l41 225zM2038 336h131l-31 -182h-131l-29 -162h-223l29 162h-379l29 172l481 505h211zM621 801h180l-33 -193h-596l33 193h180l72 409l-156 -45l-33 168l299 115h168zM1677 1589l-950 -1880h-182l952 1880h180z" />
    <glyph glyph-name="onehalf" unicode="&#xbd;" horiz-adv-x="2271" 
d="M1860 848q160 0 235 -60q76 -60 73 -159q-2 -98 -64 -176t-191 -158l-160 -94h358l-38 -209h-646l33 192l269 178q154 102 157 187q6 81 -94 81t-205 -59l-59 179q172 98 332 98zM621 801h180l-33 -193h-596l33 193h180l72 409l-156 -45l-33 168l299 115h168zM1677 1589
l-950 -1880h-182l952 1880h180z" />
    <glyph glyph-name="threequarters" unicode="&#xbe;" horiz-adv-x="2271" 
d="M1853 561l-202 -225h161zM2169 336l-31 -182h-131l-29 -162h-223l29 162h-379l29 172l481 505h211l-88 -495h131zM550 1468q167 0 245 -52t73 -142q-4 -154 -168 -219q133 -45 129 -173q-3 -128 -121 -212t-292 -84t-295 78l76 180q127 -49 223 -49q160 0 162 92
q4 35 -25 52t-92 17h-139l30 164h123q119 0 123 88q8 66 -93 66q-101 1 -218 -60l-60 156q152 98 319 98zM1677 1589l-950 -1880h-182l952 1880h180z" />
    <glyph glyph-name="questiondown" unicode="&#xbf;" horiz-adv-x="1093" 
d="M582 -379q-203 0 -313 81t-109 216q0 166 153 284q67 50 135 100t127 122t80 158h248q-18 -102 -60 -184t-90 -131q-49 -48 -93 -87q-104 -91 -103 -168q0 -98 155 -98t292 76l81 -234q-92 -61 -228 -98t-275 -37zM821 715q-172 -1 -172 171q0 88 66 152t151 64
q84 0 128 -43t44 -131t-65 -151q-66 -62 -152 -62z" />
    <glyph glyph-name="Agrave" unicode="&#xc0;" horiz-adv-x="1552" 
d="M956 524l-82 500l-253 -500h335zM1001 250h-520l-125 -250h-370l790 1434h342l305 -1434h-379zM913 1593l-254 308h371l70 -308h-187z" />
    <glyph glyph-name="Aacute" unicode="&#xc1;" horiz-adv-x="1552" 
d="M956 524l-82 500l-253 -500h335zM1001 250h-520l-125 -250h-370l790 1434h342l305 -1434h-379zM1042 1563h-188l178 307h369z" />
    <glyph glyph-name="Acircumflex" unicode="&#xc2;" horiz-adv-x="1552" 
d="M956 524l-82 500l-253 -500h335zM1001 250h-520l-125 -250h-370l790 1434h342l305 -1434h-379zM879 1585h-252l297 297h192l184 -297h-243l-72 113z" />
    <glyph glyph-name="Atilde" unicode="&#xc3;" horiz-adv-x="1552" 
d="M956 524l-82 500l-253 -500h335zM1001 250h-520l-125 -250h-370l790 1434h342l305 -1434h-379zM858 1675q-68 0 -117 -96l-147 88q43 105 115 157q71 52 139 52t138 -41t91 -41q60 0 117 102l164 -73q-100 -227 -262 -228q-59 0 -131 40t-107 40z" />
    <glyph glyph-name="Adieresis" unicode="&#xc4;" horiz-adv-x="1552" 
d="M956 524l-82 500l-253 -500h335zM1001 250h-520l-125 -250h-370l790 1434h342l305 -1434h-379zM1208 1880q66 0 102 -41t21 -123q-23 -133 -157 -133q-62 0 -100 41t-25 119q25 137 159 137zM797 1880q65 0 101 -41t22 -123q-22 -133 -158 -133q-62 0 -100 41t-25 119
q25 137 160 137z" />
    <glyph glyph-name="Aring" unicode="&#xc5;" horiz-adv-x="1552" 
d="M956 524l-82 500l-253 -500h335zM1001 250h-520l-125 -250h-370l790 1434h342l305 -1434h-379zM928 1731q-4 -31 10 -53t51 -21q70 0 86 74q4 31 -11 53t-51 20q-37 0 -59 -21t-26 -52zM971 1554q-86 0 -127 50t-29 127q15 76 73 126t144 50t128 -50t29 -126
q-13 -77 -73 -127t-145 -50z" />
    <glyph glyph-name="AE" unicode="&#xc6;" horiz-adv-x="2023" 
d="M965 520l94 535l-352 -535h258zM1421 1120l-41 -248h486l-56 -311h-487l-45 -266h571l-51 -295h-924l39 225h-401l-150 -225h-399l1002 1434h1081l-57 -314h-568z" />
    <glyph glyph-name="Ccedilla" unicode="&#xc7;" horiz-adv-x="1347" 
d="M731 -98q70 0 105 -34t34 -91q0 -96 -86 -177t-243 -96l-35 136q164 29 164 104q0 31 -31 31q-20 0 -41 -13l-90 93l76 116q-227 27 -367 188q-139 161 -139 439q0 201 70 368q135 317 470 443q158 59 318 59t284 -36t193 -101l-209 -278q-111 92 -294 92t-318 -136
t-135 -372q0 -174 86 -261t225 -87q178 4 340 121l125 -254q-197 -166 -498 -189l-47 -69q33 4 43 4z" />
    <glyph glyph-name="Egrave" unicode="&#xc8;" horiz-adv-x="1245" 
d="M1219 1135h-639l-50 -265h547l-53 -299h-545l-47 -270h641l-53 -301h-991l252 1434h991zM913 1593h-188l-252 308h369z" />
    <glyph glyph-name="Eacute" unicode="&#xc9;" horiz-adv-x="1245" 
d="M1219 1135h-639l-50 -265h547l-53 -299h-545l-47 -270h641l-53 -301h-991l252 1434h991zM856 1563h-188l176 307h370z" />
    <glyph glyph-name="Ecircumflex" unicode="&#xca;" horiz-adv-x="1245" 
d="M580 1135l-50 -265h547l-53 -299h-545l-47 -270h641l-53 -301h-991l252 1434h991l-53 -299h-639zM692 1585h-254l299 297h193l182 -297h-242l-71 113z" />
    <glyph glyph-name="Edieresis" unicode="&#xcb;" horiz-adv-x="1245" 
d="M1219 1135h-639l-50 -265h547l-53 -299h-545l-47 -270h641l-53 -301h-991l252 1434h991zM1020 1880q66 0 102 -41t23 -116q-22 -140 -152 -140q-69 0 -107 41t-24 119q25 137 158 137zM608 1880q66 0 103 -41t23 -116q-25 -140 -152 -140q-70 0 -108 41t-23 119
q24 137 157 137z" />
    <glyph glyph-name="Igrave" unicode="&#xcc;" horiz-adv-x="595" 
d="M379 0h-350l252 1434h350zM614 1593h-188l-252 308h371z" />
    <glyph glyph-name="Iacute" unicode="&#xcd;" horiz-adv-x="595" 
d="M379 0h-350l252 1434h350zM557 1563h-188l178 307h368z" />
    <glyph glyph-name="Icircumflex" unicode="&#xce;" horiz-adv-x="595" 
d="M281 1434h350l-252 -1434h-350zM393 1585h-254l299 297h193l182 -297h-242l-71 113z" />
    <glyph glyph-name="Idieresis" unicode="&#xcf;" horiz-adv-x="595" 
d="M379 0h-350l252 1434h350zM721 1880q67 0 103 -41t23 -116q-24 -140 -153 -140q-68 0 -106 41t-25 119q25 137 158 137zM309 1880q66 0 103 -41q38 -41 24 -116q-25 -140 -153 -140q-70 0 -108 41t-23 119q24 137 157 137z" />
    <glyph glyph-name="Eth" unicode="&#xd0;" horiz-adv-x="1523" 
d="M682 315q205 1 332 147t127 355q0 299 -318 299h-141l-49 -278h205l-41 -234h-205l-51 -289h141zM862 1434q301 0 478 -156t178 -444q0 -358 -244 -596t-656 -238h-489l107 604h-197l41 234h196l105 596h481z" />
    <glyph glyph-name="Ntilde" unicode="&#xd1;" horiz-adv-x="1513" 
d="M1296 0h-295l-477 825l-145 -825h-350l252 1434h297l466 -836l146 836h358zM844 1675q-70 0 -119 -96l-145 88q43 106 114 158q72 51 138 51t138 -41q71 -41 93 -41q56 0 117 102l163 -73q-45 -104 -114 -166q-125 -109 -281 -22q-72 40 -104 40z" />
    <glyph glyph-name="Ograve" unicode="&#xd2;" horiz-adv-x="1568" 
d="M895 1143q-139 0 -245 -87t-155 -204q-49 -116 -49 -252t79 -222t214 -87q201 0 323 172t122 383q0 139 -75 218t-214 79zM944 1468q313 0 468 -174t149 -446q-10 -371 -257 -627t-612 -256q-280 0 -448 168t-168 457q0 162 57 318q125 342 439 484q169 76 372 76z
M1094 1604h-187l-252 309h369z" />
    <glyph glyph-name="Oacute" unicode="&#xd3;" horiz-adv-x="1568" 
d="M895 1143q-139 0 -245 -87t-155 -204q-49 -116 -49 -252t79 -222t214 -87q201 0 323 172t122 383q0 139 -75 218t-214 79zM944 1468q313 0 468 -174t149 -446q-10 -371 -257 -627t-612 -256q-280 0 -448 168t-168 457q0 162 57 318q125 342 439 484q169 76 372 76z
M1038 1573h-188l176 309h371z" />
    <glyph glyph-name="Ocircumflex" unicode="&#xd4;" horiz-adv-x="1568" 
d="M739 291q201 0 323 172t122 383q0 139 -75 218t-214 79t-245 -87t-155 -204q-49 -116 -49 -252t79 -222t214 -87zM944 1468q313 0 468 -174t149 -446q-10 -371 -257 -627t-612 -256q-280 0 -448 168t-168 457q0 162 57 318q125 342 439 484q169 76 372 76zM874 1595h-253
l297 297h194l182 -297h-241l-72 113z" />
    <glyph glyph-name="Otilde" unicode="&#xd5;" horiz-adv-x="1568" 
d="M895 1143q-139 0 -245 -87t-155 -204q-49 -116 -49 -252t79 -222t214 -87q201 0 323 172t122 383q0 139 -75 218t-214 79zM944 1468q313 0 468 -174t149 -446q-10 -371 -257 -627t-612 -256q-280 0 -448 168t-168 457q0 162 57 318q125 342 439 484q169 76 372 76z
M1102 1608q-69 0 -141 39t-107 39q-72 0 -119 -97l-145 90q43 105 115 157q73 52 139 52t136 -41t93 -41q58 1 117 103l164 -74q-45 -107 -114 -167t-138 -60z" />
    <glyph glyph-name="Odieresis" unicode="&#xd6;" horiz-adv-x="1568" 
d="M895 1143q-139 0 -245 -87t-155 -204q-49 -116 -49 -252t79 -222t214 -87q201 0 323 172t122 383q0 139 -75 218t-214 79zM944 1468q313 0 468 -174t149 -446q-10 -371 -257 -627t-612 -256q-280 0 -448 168t-168 457q0 162 57 318q125 342 439 484q169 76 372 76z
M1202 1892q66 0 102 -41t24 -115t-55 -108q-43 -33 -105 -33t-100 41t-24 119q25 137 158 137zM791 1892q67 0 103 -41t22 -115t-55 -108q-43 -33 -105 -33t-100 41t-23 119q25 137 158 137z" />
    <glyph glyph-name="multiply" unicode="&#xd7;" horiz-adv-x="1228" 
d="M1085 162l-184 -154l-313 379l-449 -377l-129 152l447 379l-316 379l187 155l313 -381l451 381l127 -155l-449 -379z" />
    <glyph glyph-name="Oslash" unicode="&#xd8;" horiz-adv-x="1568" 
d="M739 291q201 0 323 172t122 383q0 96 -39 168l-518 -703q47 -20 112 -20zM446 623.5q0 -111.5 41 -187.5l514 692q-57 14 -104 15q-141 0 -247.5 -87t-155 -204t-48.5 -228.5zM692 -35q-158 0 -280 55l-199 -268l-154 109l195 262q-178 168 -178 467q0 162 57 317.5
t163.5 281.5t275.5 202.5t348.5 76.5t298.5 -47l170 228l159 -88l-170 -232q188 -166 183 -481q-10 -371 -257 -627t-612 -256z" />
    <glyph glyph-name="Ugrave" unicode="&#xd9;" horiz-adv-x="1439" 
d="M618 -35q-266 0 -407 134t-90 421l160 914h350l-158 -902q-23 -119 31 -182t172 -63q120 0 194 63t95 182l159 902h351l-160 -914q-35 -194 -141 -322t-244 -180t-312 -53zM1028 1593h-188l-252 308h368z" />
    <glyph glyph-name="Uacute" unicode="&#xda;" horiz-adv-x="1439" 
d="M618 -35q-266 0 -407 134t-90 421l160 914h350l-158 -902q-23 -119 31 -182t172 -63q120 0 194 63t95 182l159 902h351l-160 -914q-35 -194 -141 -322t-244 -180t-312 -53zM971 1563h-189l176 307h371z" />
    <glyph glyph-name="Ucircumflex" unicode="&#xdb;" horiz-adv-x="1439" 
d="M618 -35q-266 0 -407 134t-90 421l160 914h350l-158 -902q-23 -119 31 -182t172 -63q120 0 194 63t95 182l159 902h351l-160 -914q-35 -194 -141 -322t-244 -180t-312 -53zM807 1585h-254l299 297h192l183 -297h-242l-72 113z" />
    <glyph glyph-name="Udieresis" unicode="&#xdc;" horiz-adv-x="1439" 
d="M618 -35q-266 0 -407 134t-90 421l160 914h350l-158 -902q-23 -119 31 -182t172 -63q120 0 194 63t95 182l159 902h351l-160 -914q-35 -194 -141 -322t-244 -180t-312 -53zM1135 1880q65 0 101 -41t24 -116t-54 -107t-104 -33q-62 0 -101 41t-24 119q25 137 158 137z
M723 1880q67 0 103 -41t23 -116q-24 -140 -153 -140q-70 0 -108 41t-23 119q25 137 158 137z" />
    <glyph glyph-name="Yacute" unicode="&#xdd;" horiz-adv-x="1388" 
d="M874 569l-98 -569h-352l100 571l-346 863h406l186 -523l375 523h381zM950 1573h-186l176 309h369z" />
    <glyph glyph-name="Thorn" unicode="&#xde;" horiz-adv-x="1230" 
d="M637 573q96 -1 150 59q55 60 55 134t-40 108q-40 35 -108 35h-149l-58 -336h150zM793 1221q215 0 323 -108t107 -290q0 -182 -136 -354q-67 -86 -187 -140t-275 -55h-191l-47 -274h-358l252 1434h358l-37 -213h191z" />
    <glyph glyph-name="germandbls" unicode="&#xdf;" horiz-adv-x="1372" 
d="M819 1542q217 0 335 -81t118 -234q0 -121 -58 -200t-176 -167q-34 -27 -34 -46t36 -42q51 -29 73 -41t62 -44q40 -31 57 -61q48 -83 48 -168q0 -245 -175 -379q-136 -104 -362 -104q-127 0 -215 41l60 248q82 -31 160 -31q78 1 134 49t56 150q0 47 -12 80q-12 32 -48 58
t-58 36t-84 37t-62 103t61 126q90 72 128 110q37 38 47 74t10 72q0 119 -142 119q-66 0 -118 -42t-66 -126l-191 -1079h-344l197 1118q76 424 563 424z" />
    <glyph glyph-name="agrave" unicode="&#xe0;" horiz-adv-x="1269" 
d="M424 451q0 -201 156 -201q86 0 146 70t79 188l51 297q-49 25 -125 24q-143 -1 -225 -115t-82 -263zM76 418q0 284 183 486t441 202q96 0 248 -37h273l-144 -797q-6 -35 6 -52q11 -17 29 -17t59 4l-38 -197q-74 -31 -187 -30q-182 0 -180 186q-57 -96 -133 -143t-191 -48
q-162 0 -264 118t-102 325zM842 1548l69 -309h-186l-252 309h369z" />
    <glyph glyph-name="aacute" unicode="&#xe1;" horiz-adv-x="1269" 
d="M424 451q0 -201 156 -201q86 0 146 70t79 188l51 297q-49 25 -125 24q-143 -1 -225 -115t-82 -263zM76 418q0 284 183 486t441 202q96 0 248 -37h273l-144 -797q-6 -35 6 -52q11 -17 29 -17t59 4l-38 -197q-74 -31 -187 -30q-182 0 -180 186q-57 -96 -133 -143t-191 -48
q-162 0 -264 118t-102 325zM1212 1518l-358 -308h-186l176 308h368z" />
    <glyph glyph-name="acircumflex" unicode="&#xe2;" horiz-adv-x="1269" 
d="M424 451q0 -201 156 -201q86 0 146 70t79 188l51 297q-49 25 -125 24q-143 -1 -225 -115t-82 -263zM1112 203q18 0 59 4l-38 -197q-74 -31 -187 -30q-182 0 -180 186q-57 -96 -133 -143t-191 -48q-162 0 -264 118t-102 325q0 284 183 486t441 202q96 0 248 -37h273
l-144 -797q-6 -35 6 -52q11 -17 29 -17zM799 1346l-107 -113h-254l297 297h195l182 -297h-242z" />
    <glyph glyph-name="atilde" unicode="&#xe3;" horiz-adv-x="1269" 
d="M424 451q0 -201 156 -201q86 0 146 70t79 188l51 297q-49 25 -125 24q-143 -1 -225 -115t-82 -263zM76 418q0 284 183 486t441 202q96 0 248 -37h273l-144 -797q-6 -35 6 -52q11 -17 29 -17t59 4l-38 -197q-74 -31 -187 -30q-182 0 -180 186q-57 -96 -133 -143t-191 -48
q-162 0 -264 118t-102 325zM672 1323q-70 0 -119 -96l-145 88q41 106 112 158q72 51 140 51t138 -41q71 -41 93 -41q56 0 117 102l161 -74q-45 -104 -113 -165t-138 -61t-142 39q-72 40 -104 40z" />
    <glyph glyph-name="adieresis" unicode="&#xe4;" horiz-adv-x="1269" 
d="M424 451q0 -201 156 -201q86 0 146 70t79 188l51 297q-49 25 -125 24q-143 -1 -225 -115t-82 -263zM76 418q0 284 183 486t441 202q96 0 248 -37h273l-144 -797q-6 -35 6 -52q11 -17 29 -17t59 4l-38 -197q-74 -31 -187 -30q-182 0 -180 186q-57 -96 -133 -143t-191 -48
q-162 0 -264 118t-102 325zM1020 1528q66 0 102 -41t22 -116q-24 -140 -151 -140q-69 0 -107 41t-24 119q25 137 158 137zM608 1528q66 0 103 -41t23 -116t-56 -107t-104 -33q-62 0 -100 41t-23 119q22 137 157 137z" />
    <glyph glyph-name="aring" unicode="&#xe5;" horiz-adv-x="1269" 
d="M424 451q0 -201 156 -201q86 0 146 70t79 188l51 297q-49 25 -125 24q-143 -1 -225 -115t-82 -263zM76 418q0 284 183 486t441 202q96 0 248 -37h273l-144 -797q-6 -35 6 -52q11 -17 29 -17t59 4l-38 -197q-74 -31 -187 -30q-182 0 -180 186q-57 -96 -133 -143t-191 -48
q-162 0 -264 118t-102 325zM825 1452q-35 0 -57 -22t-27 -52q-3 -30 11 -52t49 -22t59 22t27 52q4 30 -11 53q-16 21 -51 21zM845 1554q85 0 127 -50t28 -126t-72 -126q-60 -50 -146 -50t-127 50t-28 126q14 76 73 126q60 50 145 50z" />
    <glyph glyph-name="ae" unicode="&#xe6;" horiz-adv-x="1798" 
d="M479 207q80 0 151.5 63.5t88.5 155.5q-84 23 -175 23t-139.5 -39t-48.5 -101q0 -102 123 -102zM1377 817q-103 0 -184 -61.5t-118 -159.5q168 6 287 45t119 111q-1 65 -104 65zM689 1108q128 0 202 -46t96 -165q156 209 440 209q160 0 254.5 -74t92.5 -195t-67 -205.5
t-168 -130.5q-214 -95 -470 -79q4 -90 61.5 -141.5t157.5 -51.5q178 0 303 111l90 -223q-154 -152 -434 -152q-319 0 -393 236q-135 -236 -479 -236q-150 0 -242 75t-92 210q0 178 125 284.5t356 106.5q137 0 213 -18l6 43q16 96 -23.5 135t-131.5 39q-164 0 -289 -88
l-88 206q98 72 225 111t255 39z" />
    <glyph glyph-name="ccedilla" unicode="&#xe7;" horiz-adv-x="1067" 
d="M590 -98q70 0 106 -35t35 -90q0 -96 -87 -177t-245 -96l-32 136q98 18 130 44q31 26 31 58t-30 33q-16 0 -41 -13l-90 93l79 120q-178 31 -271 160t-93 316q0 254 163 448q79 93 203 151t275 58q233 0 373 -129l-154 -229q-82 72 -219 72t-222 -98q-85 -97 -85 -219
t58 -187q58 -64 172 -64t222 90l111 -225q-154 -139 -385 -152l-47 -69q33 4 43 4z" />
    <glyph glyph-name="egrave" unicode="&#xe8;" horiz-adv-x="1144" 
d="M731 842q-117 0 -202 -69t-117 -179q184 4 302 51t117 123q1 34 -27 54t-73 20zM594 -35q-246 0 -382 133t-132 355q4 269 188 461t490 192q170 0 268 -74t96 -207t-106 -232q-197 -188 -610 -190h-5q33 -158 240 -157q174 0 295 106l111 -223q-82 -78 -203 -121
t-250 -43zM903 1239h-186l-252 309h369z" />
    <glyph glyph-name="eacute" unicode="&#xe9;" horiz-adv-x="1144" 
d="M831 768q-1 72 -109 73t-192 -67t-118 -180q184 4 302 51t117 123zM594 -35q-246 0 -382 133t-132 355q4 269 188 461t490 192q170 0 268 -74t96 -207t-106 -232q-197 -188 -610 -190h-5q33 -158 240 -157q174 0 295 106l111 -223q-82 -78 -203 -121t-250 -43zM1206 1518
l-360 -308h-187l177 308h370z" />
    <glyph glyph-name="ecircumflex" unicode="&#xea;" horiz-adv-x="1144" 
d="M731 842q-117 0 -202 -69t-117 -179q184 4 302 51t117 123q1 34 -27 54t-73 20zM594 -35q-246 0 -382 133t-132 355q4 269 188 461t490 192q170 0 268 -74t96 -207t-106 -232q-197 -188 -610 -190h-5q33 -158 240 -157q174 0 295 106l111 -223q-82 -78 -203 -121
t-250 -43zM791 1346l-107 -113h-254l297 297h195l182 -297h-242z" />
    <glyph glyph-name="edieresis" unicode="&#xeb;" horiz-adv-x="1144" 
d="M831 768q-1 72 -109 73t-192 -67t-118 -180q184 4 302 51t117 123zM594 -35q-246 0 -382 133t-132 355q4 269 188 461t490 192q170 0 268 -74t96 -207t-106 -232q-197 -188 -610 -190h-5q33 -158 240 -157q174 0 295 106l111 -223q-82 -78 -203 -121t-250 -43zM1012 1528
q66 0 102 -41t22 -116q-24 -140 -151 -140q-69 0 -107 41t-24 119q25 137 158 137zM600 1528q66 0 102 -41t23 -123q-23 -133 -159 -133q-62 0 -100 41t-24 119q25 137 158 137z" />
    <glyph glyph-name="igrave" unicode="&#xec;" horiz-adv-x="632" 
d="M483 252q39 0 54 6l-52 -262q-90 -20 -186 -20t-165 65q-69 66 -44 209l148 823h340l-138 -764q-10 -57 43 -57zM553 1233h-186l-254 307h370z" />
    <glyph glyph-name="iacute" unicode="&#xed;" horiz-adv-x="632" 
d="M483 252q39 0 54 6l-52 -262q-90 -20 -186 -20t-165 65q-69 66 -44 209l148 823h340l-138 -764q-10 -57 43 -57zM496 1202h-187l176 307h369z" />
    <glyph glyph-name="icircumflex" unicode="&#xee;" horiz-adv-x="632" 
d="M483 252q39 0 54 6l-52 -262q-90 -20 -186 -20t-165 65q-69 66 -44 209l148 823h340l-138 -764q-10 -57 43 -57zM332 1225h-252l297 297h192l185 -297h-244l-70 112z" />
    <glyph glyph-name="idieresis" unicode="&#xef;" horiz-adv-x="632" 
d="M483 252q39 0 54 6l-52 -262q-90 -20 -186 -20t-165 65q-69 66 -44 209l148 823h340l-138 -764q-10 -57 43 -57zM662 1520q66 0 102 -41t22 -116t-56 -108t-104 -33t-99 42q-38 41 -23 118q23 138 158 138zM250 1520q66 0 102 -41t23 -117q-11 -76 -55 -108t-106 -32
t-100 42q-38 41 -24 118q25 138 160 138z" />
    <glyph glyph-name="eth" unicode="&#xf0;" horiz-adv-x="1243" 
d="M598 264q122 0 190 98t76 210q8 114 -33 176t-145 61q-104 0 -176 -86q-72 -87 -80 -207t34 -186t134 -66zM541 -35q-229 0 -348 137t-107 377q8 154 76 294q68 139 206 237t304 98t256 -113q-25 131 -115 238l-205 -86l-43 113l152 63q-49 37 -107 66l221 174
q92 -53 166 -121l193 84l41 -115l-146 -61q168 -213 152 -523q-8 -257 -104 -470q-53 -117 -129 -201t-196 -138t-267 -53z" />
    <glyph glyph-name="ntilde" unicode="&#xf1;" horiz-adv-x="1329" 
d="M937 1106q153 0 233 -99t44 -280l-84 -432q-6 -31 8 -49t38 -18q22 0 51 3l-43 -217q-63 -27 -187 -26q-260 0 -200 280l75 381q33 164 -110 164q-94 0 -168 -88t-107 -268l-81 -457h-334l153 801q12 70 -51 69q-25 0 -61 -10l37 215q68 23 156 23t139 -47
q52 -47 51 -144l-7 -37h5q90 132 190 184t253 52zM645 1323q-72 0 -119 -96l-145 88q41 105 113 157t140 52t138 -41t92 -41q56 0 117 102l162 -74q-45 -104 -114 -165t-137 -61t-140 39q-72 40 -107 40z" />
    <glyph glyph-name="ograve" unicode="&#xf2;" horiz-adv-x="1236" 
d="M686 813q-125 0 -198 -100t-72 -244q0 -97 45 -153t133 -56q125 0 201 100t75 248q0 205 -184 205zM727 1094q207 0 343 -119t136 -344q0 -171 -72 -317t-222 -240q-148 -94 -357 -94t-341 126t-132 343q0 269 171 457t474 188zM881 1233h-187l-252 307h369z" />
    <glyph glyph-name="oacute" unicode="&#xf3;" horiz-adv-x="1236" 
d="M686 813q-125 0 -198 -100t-72 -244q0 -97 45 -153t133 -56q125 0 201 100t75 248q0 205 -184 205zM727 1094q207 0 343 -119t136 -344q0 -171 -72 -317t-222 -240q-148 -94 -357 -94t-341 126t-132 343q0 269 171 457t474 188zM823 1202h-186l176 307h369z" />
    <glyph glyph-name="ocircumflex" unicode="&#xf4;" horiz-adv-x="1236" 
d="M594 260q125 0 201 100t75 248q0 205 -184 205q-125 0 -198 -100t-72 -244q0 -97 45 -153t133 -56zM727 1094q207 0 343 -119t136 -344q0 -171 -72 -317t-222 -240q-148 -94 -357 -94t-341 126t-132 343q0 269 171 457t474 188zM662 1225h-254l297 297h194l182 -297h-241
l-72 112z" />
    <glyph glyph-name="otilde" unicode="&#xf5;" horiz-adv-x="1236" 
d="M686 813q-125 0 -198 -100t-72 -244q0 -97 45 -153t133 -56q125 0 201 100t75 248q0 205 -184 205zM727 1094q207 0 343 -119t136 -344q0 -171 -72 -317t-222 -240q-148 -94 -357 -94t-341 126t-132 343q0 269 171 457t474 188zM888 1235q-68 0 -140 40t-107 40
q-72 0 -119 -96l-145 88q41 106 112 157q134 95 278 11q71 -41 93 -41q56 0 117 102l162 -74q-45 -104 -114 -166t-137 -61z" />
    <glyph glyph-name="odieresis" unicode="&#xf6;" horiz-adv-x="1236" 
d="M686 813q-125 0 -198 -100t-72 -244q0 -97 45 -153t133 -56q125 0 201 100t75 248q0 205 -184 205zM727 1094q207 0 343 -119t136 -344q0 -171 -72 -317t-222 -240q-148 -94 -357 -94t-341 126t-132 343q0 269 171 457t474 188zM989 1520q66 0 102 -41q37 -41 23 -116
q-26 -142 -151 -140q-70 0 -108 41t-24 118q25 138 158 138zM578 1520q66 0 102 -41t24 -116q-14 -75 -57 -108t-105 -33t-99 42q-38 41 -23 118q23 138 158 138z" />
    <glyph glyph-name="divide" unicode="&#xf7;" horiz-adv-x="1157" 
d="M486 14q-136 0 -136 134q0 70 53 115q53 44 117 44q132 0 131 -119q0 -82 -51 -128q-52 -46 -114 -46zM1036 446h-944l33 187h944zM656 1077q134 0 132 -131q0 -70 -53 -116t-115 -46t-97 32q-36 32 -36 102q1 70 53 115q52 44 116 44z" />
    <glyph glyph-name="oslash" unicode="&#xf8;" horiz-adv-x="1245" 
d="M594 260q125 0 200.5 100.5t75.5 247.5q0 50 -14 97l-317 -439q25 -6 55 -6zM686 813q-125 0 -197.5 -100.5t-72.5 -243.5q-1 -66 22 -115l324 449q-37 10 -76 10zM1206 631q0 -170 -72.5 -316.5t-221 -240.5t-345.5 -94q-113 0 -207 34l-161 -227l-131 90l165 211
q-152 129 -151 361q0 270 171 457.5t474 187.5q113 0 211 -37l154 225l141 -76l-172 -223q145 -129 145 -352z" />
    <glyph glyph-name="ugrave" unicode="&#xf9;" horiz-adv-x="1288" 
d="M354 1106q258 0 201 -272l-80 -408q-27 -156 113 -156q68 0 132 56t87 186l102 569h334l-147 -821q-12 -61 48 -61q30 0 48 2l-39 -193q-63 -33 -167 -33t-151 35q-48 35 -42 135l8 50h-8q-41 -109 -133 -164t-214 -56q-172 1 -261 101t-48 307l82 424q12 66 -49 65
q-33 0 -66 -8l41 211q86 31 209 31zM881 1233h-187l-252 307h369z" />
    <glyph glyph-name="uacute" unicode="&#xfa;" horiz-adv-x="1288" 
d="M354 1106q258 0 201 -272l-80 -408q-27 -156 113 -156q68 0 132 56t87 186l102 569h334l-147 -821q-12 -61 48 -61q30 0 48 2l-39 -193q-63 -33 -167 -33t-151 35q-48 35 -42 135l8 50h-8q-41 -109 -133 -164t-214 -56q-172 1 -261 101t-48 307l82 424q12 66 -49 65
q-33 0 -66 -8l41 211q86 31 209 31zM825 1202h-188l176 307h371z" />
    <glyph glyph-name="ucircumflex" unicode="&#xfb;" horiz-adv-x="1288" 
d="M986 -25q-104 0 -151 35q-48 35 -42 135l8 50h-8q-41 -109 -133 -164t-214 -56q-172 1 -261 101t-48 307l82 424q12 66 -49 65q-33 0 -66 -8l41 211q86 31 209 31q258 0 201 -272l-80 -408q-27 -156 113 -156q68 0 132 56t87 186l102 569h334l-147 -821q-12 -61 48 -61
q30 0 48 2l-39 -193q-63 -33 -167 -33zM662 1225h-254l297 297h194l182 -297h-241l-72 112z" />
    <glyph glyph-name="udieresis" unicode="&#xfc;" horiz-adv-x="1288" 
d="M354 1106q258 0 201 -272l-80 -408q-27 -156 113 -156q68 0 132 56t87 186l102 569h334l-147 -821q-12 -61 48 -61q30 0 48 2l-39 -193q-63 -33 -167 -33t-151 35q-48 35 -42 135l8 50h-8q-41 -109 -133 -164t-214 -56q-172 1 -261 101t-48 307l82 424q12 66 -49 65
q-33 0 -66 -8l41 211q86 31 209 31zM989 1520q66 0 102 -41q35 -41 23 -116t-54 -108t-104 -33t-101 42q-38 41 -24 118q25 138 158 138zM578 1520q66 0 102 -41t24 -116q-14 -75 -56 -108t-104 -33t-101 42q-38 41 -23 118q25 138 158 138z" />
    <glyph glyph-name="yacute" unicode="&#xfd;" horiz-adv-x="1185" 
d="M228 -459q-140 0 -251 62l86 241q141 -63 209 1q33 32 64 100l49 98l-213 756q-8 37 -21 51t-39 14t-55 -8l41 211q80 31 174 31t144 -43t67 -131l117 -564l318 713h354l-645 -1237q-82 -156 -170 -226q-89 -70 -229 -69zM754 1210h-187l176 308h369z" />
    <glyph glyph-name="thorn" unicode="&#xfe;" horiz-adv-x="1247" 
d="M590 236q133 0 213 112t80 268q0 186 -150 187q-82 -1 -143 -57t-84 -177l-51 -286q45 -47 135 -47zM887 1098q160 0 246 -119t86 -305t-68 -342q-68 -154 -206 -260q-137 -106 -297 -106t-238 65l-80 -453h-334l344 1962h315l-112 -641h4q109 199 340 199z" />
    <glyph glyph-name="ydieresis" unicode="&#xff;" horiz-adv-x="1185" 
d="M228 -459q-140 0 -251 62l86 241q141 -63 209 1q33 32 64 100l49 98l-213 756q-8 37 -21 51t-39 14t-55 -8l41 211q80 31 174 31t144 -43t67 -131l117 -564l318 713h354l-645 -1237q-82 -156 -170 -226q-89 -70 -229 -69zM920 1528q66 0 102 -41t20 -123
q-24 -133 -158 -133q-62 0 -99 41q-38 41 -23 119q23 137 158 137zM508 1528q66 0 102 -41t23 -123q-23 -133 -161 -133q-62 0 -100 41t-24 119q25 137 160 137z" />
    <glyph glyph-name="Amacron" unicode="&#x100;" horiz-adv-x="1552" 
d="M956 524l-82 500l-253 -500h335zM1001 250h-520l-125 -250h-370l790 1434h342l305 -1434h-379zM1270 1636h-590l27 158h591z" />
    <glyph glyph-name="amacron" unicode="&#x101;" horiz-adv-x="1269" 
d="M424 451q0 -201 156 -201q86 0 146 70t79 188l51 297q-49 25 -125 24q-143 -1 -225 -115t-82 -263zM76 418q0 284 183 486t441 202q96 0 248 -37h273l-144 -797q-6 -35 6 -52q11 -17 29 -17t59 4l-38 -197q-74 -31 -187 -30q-182 0 -180 186q-57 -96 -133 -143t-191 -48
q-162 0 -264 118t-102 325zM1110 1442l-27 -158h-591l28 158h590z" />
    <glyph glyph-name="Abreve" unicode="&#x102;" horiz-adv-x="1552" 
d="M956 524l-82 500l-253 -500h335zM1001 250h-520l-125 -250h-370l790 1434h342l305 -1434h-379zM965 1587q-129 0 -207 72t-64 219h152q4 -119 150 -119t192 119h149q-37 -147 -140 -219t-232 -72z" />
    <glyph glyph-name="abreve" unicode="&#x103;" horiz-adv-x="1269" 
d="M424 451q0 -201 156 -201q86 0 146 70t79 188l51 297q-49 25 -125 24q-143 -1 -225 -115t-82 -263zM76 418q0 284 183 486t441 202q96 0 248 -37h273l-144 -797q-6 -35 6 -52q11 -17 29 -17t59 4l-38 -197q-74 -31 -187 -30q-182 0 -180 186q-57 -96 -133 -143t-191 -48
q-162 0 -264 118t-102 325zM778 1235q-130 0 -208 72q-79 72 -62 219h151q5 -119 149 -119t193 119h148q-37 -147 -139 -219t-232 -72z" />
    <glyph glyph-name="Aogonek" unicode="&#x104;" horiz-adv-x="1552" 
d="M956 524l-82 500l-253 -500h335zM1198 -193q0 -78 111 -90l-80 -182q-258 27 -258 215q0 70 43 128t143 122h-113l-43 250h-520l-125 -250h-370l790 1434h342l305 -1434h-90q-135 -104 -135 -193z" />
    <glyph glyph-name="aogonek" unicode="&#x105;" horiz-adv-x="1269" 
d="M424 451q0 -201 156 -201q86 0 146 70t79 188l51 297q-49 25 -125 24q-143 -1 -225 -115t-82 -263zM1112 203q18 0 59 4l-38 -197q-137 -104 -138 -192q0 -78 111 -90l-80 -183q-258 27 -258 215q0 121 143 222q-147 14 -145 184q-57 -96 -133 -143t-191 -48
q-162 0 -264 118t-102 325q0 284 183 486t441 202q96 0 248 -37h273l-144 -797q-6 -35 6 -52q11 -17 29 -17z" />
    <glyph glyph-name="Cacute" unicode="&#x106;" horiz-adv-x="1347" 
d="M678 -35q-264 0 -432 163t-168 470q0 201 70 368q135 317 470 443q158 59 318 59t284 -36t193 -101l-209 -278q-111 92 -294 92t-318 -136t-135 -372q0 -174 86 -261t225 -87q178 4 340 121l125 -254q-96 -82 -247 -136t-308 -55zM1057 1583h-187l177 309h368z" />
    <glyph glyph-name="cacute" unicode="&#x107;" horiz-adv-x="1067" 
d="M568 -35q-240 0 -363 136t-123 350q0 254 163 448q79 93 203 151t275 58q233 0 373 -129l-154 -229q-82 72 -219 72t-222 -98q-85 -97 -85 -219t58 -187q58 -64 172 -64t222 90l111 -225q-171 -154 -411 -154zM807 1202h-186l176 307h370z" />
    <glyph glyph-name="Cdotaccent" unicode="&#x10a;" horiz-adv-x="1347" 
d="M678 -35q-264 0 -432 163t-168 470q0 201 70 368q135 317 470 443q158 59 318 59t284 -36t193 -101l-209 -278q-111 92 -294 92t-318 -136t-135 -372q0 -174 86 -261t225 -87q178 4 340 121l125 -254q-96 -82 -247 -136t-308 -55zM1038 1917q70 0 111 -40t27 -119
t-70 -119t-124 -40q-69 0 -109 40t-25 118q12 78 66 119t124 41z" />
    <glyph glyph-name="cdotaccent" unicode="&#x10b;" horiz-adv-x="1067" 
d="M568 -35q-240 0 -363 136t-123 350q0 254 163 448q79 93 203 151t275 58q233 0 373 -129l-154 -229q-82 72 -219 72t-222 -98q-85 -97 -85 -219t58 -187q58 -64 172 -64t222 90l111 -225q-171 -154 -411 -154zM788 1534q70 0 111 -40t28 -119t-69 -118t-125 -39t-109 40
q-40 38 -26 117t67 119t123 40z" />
    <glyph glyph-name="Ccaron" unicode="&#x10c;" horiz-adv-x="1347" 
d="M910 1145q-183 0 -318 -136t-135 -372q0 -174 86 -261t225 -87q178 4 340 121l125 -254q-96 -82 -247 -136t-308 -55q-264 0 -432 163t-168 470q0 201 70 368q135 317 470 443q158 59 318 59t284 -37q123 -37 193 -100l-209 -278q-111 92 -294 92zM883 1606l-193 295h252
l68 -117l112 117h242l-285 -295h-196z" />
    <glyph glyph-name="ccaron" unicode="&#x10d;" horiz-adv-x="1067" 
d="M416 505q0 -122 58 -187q58 -64 172 -64t222 90l111 -225q-171 -154 -411 -154t-363 136t-123 350q0 254 163 448q79 93 203 151t275 58q234 0 373 -129l-154 -229q-82 72 -219 72t-222 -98q-85 -97 -85 -219zM633 1223l-193 295h252l70 -115l112 115h240l-285 -295h-196
z" />
    <glyph glyph-name="Dcaron" unicode="&#x10e;" horiz-adv-x="1431" 
d="M582 315q204 1 330 147t126 355q0 299 -315 299h-141l-142 -801h142zM762 1434q301 0 478 -156t177 -444q1 -358 -243 -596t-658 -238h-487l252 1434h481zM711 1583l-193 295h252l68 -115l112 115h242l-285 -295h-196z" />
    <glyph glyph-name="dcaron" unicode="&#x10f;" horiz-adv-x="1284" 
d="M717 813q-125 0 -201 -98t-76 -222q0 -223 148 -223q82 0 142 68t81 182l43 266q-57 27 -137 27zM1528 1186h-144l66 354h250zM1126 203q16 0 58 4l-39 -197q-74 -30 -175 -30t-146 46q-44 46 -42 146q-94 -201 -333 -201q-170 0 -271 120q-100 120 -100 344t146 435
q73 104 199 168q127 64 265 64t211 -33l82 471h334l-225 -1268q-6 -35 7 -52t29 -17z" />
    <glyph glyph-name="Dcroat" unicode="&#x110;" horiz-adv-x="1431" 
d="M582 315q204 1 330 147t126 355q0 299 -315 299h-141l-142 -801h142zM762 1434q301 0 478 -156t177 -444q1 -358 -243 -596t-658 -238h-487l252 1434h481zM1112 1636h-590l27 158h592z" />
    <glyph glyph-name="dcroat" unicode="&#x111;" horiz-adv-x="1277" 
d="M717 813q-125 0 -201 -98t-76 -222q0 -223 148 -223q82 0 142 68t81 182l43 266q-57 27 -137 27zM1126 203q16 0 58 4l-39 -197q-74 -30 -175 -30t-146 46q-44 46 -42 146q-94 -201 -333 -201q-170 0 -271 120q-100 120 -100 344t146 435q73 104 199 168q127 64 265 64
t211 -33l25 143h-164l26 160h166l29 168h334l-31 -168h143l-28 -160h-144l-165 -940q-6 -35 7 -52t29 -17z" />
    <glyph glyph-name="Emacron" unicode="&#x112;" horiz-adv-x="1245" 
d="M1219 1135h-639l-50 -265h547l-53 -299h-545l-47 -270h641l-53 -301h-991l252 1434h991zM1083 1636h-591l28 158h590z" />
    <glyph glyph-name="emacron" unicode="&#x113;" horiz-adv-x="1144" 
d="M731 842q-117 0 -202 -69t-117 -179q184 4 302 51t117 123q1 34 -27 54t-73 20zM594 -35q-246 0 -382 133t-132 355q4 269 188 461t490 192q170 0 268 -74t96 -207t-106 -232q-197 -188 -610 -190h-5q33 -158 240 -157q174 0 295 106l111 -223q-82 -78 -203 -121
t-250 -43zM1102 1442l-27 -158h-592l29 158h590z" />
    <glyph glyph-name="Ebreve" unicode="&#x114;" horiz-adv-x="1245" 
d="M1219 1135h-639l-50 -265h547l-53 -299h-545l-47 -270h641l-53 -301h-991l252 1434h991zM778 1587q-130 0 -208 72q-79 72 -62 219h151q5 -119 149 -119t193 119h148q-37 -147 -139 -219t-232 -72z" />
    <glyph glyph-name="ebreve" unicode="&#x115;" horiz-adv-x="1144" 
d="M831 768q-1 72 -109 73t-192 -67t-118 -180q184 4 302 51t117 123zM594 -35q-246 0 -382 133t-132 355q4 269 188 461t490 192q170 0 268 -74t96 -207t-106 -232q-197 -188 -610 -190h-5q33 -158 240 -157q174 0 295 106l111 -223q-82 -78 -203 -121t-250 -43zM770 1235
q-129 0 -208 72t-62 219h151q5 -119 149 -119t193 119h148q-37 -147 -139 -219t-232 -72z" />
    <glyph glyph-name="Edotaccent" unicode="&#x116;" horiz-adv-x="1245" 
d="M1219 1135h-639l-50 -265h547l-53 -299h-545l-47 -270h641l-53 -301h-991l252 1434h991zM838 1894q70 0 110 -40t26 -118q-12 -78 -68 -118q-56 -39 -126 -39t-110 39t-25 118q15 78 69 118t124 40z" />
    <glyph glyph-name="edotaccent" unicode="&#x117;" horiz-adv-x="1144" 
d="M731 842q-117 0 -202 -69t-117 -179q184 4 302 51t117 123q1 34 -27 54t-73 20zM594 -35q-246 0 -382 133t-132 355q4 269 188 461t490 192q170 0 268 -74t96 -207t-106 -232q-197 -188 -610 -190h-5q33 -158 240 -157q174 0 295 106l111 -223q-82 -78 -203 -121
t-250 -43zM772 1227q-70 0 -110 39q-40 40 -25 118t69 118t122 40t110 -40q41 -40 28 -119q-12 -79 -68 -117t-126 -39z" />
    <glyph glyph-name="Eogonek" unicode="&#x118;" horiz-adv-x="1245" 
d="M557 -193q0 -78 111 -92l-80 -180q-258 27 -258 215q0 70 43 128t145 122h-489l252 1434h991l-53 -299h-639l-50 -265h547l-53 -299h-545l-47 -270h641l-53 -301h-326q-137 -104 -137 -193z" />
    <glyph glyph-name="eogonek" unicode="&#x119;" horiz-adv-x="1144" 
d="M731 842q-117 0 -202 -69t-117 -179q184 4 302 51t117 123q1 34 -27 54t-73 20zM553 -186q0 86 63 151h-22q-246 0 -382 133t-132 355q4 269 188 461t490 192q170 0 268 -74t96 -207t-106 -232q-197 -188 -610 -190h-5q33 -158 240 -157q174 0 295 106l111 -223
q-72 -72 -187 -115q-80 -78 -80 -145q0 -76 109 -90l-78 -182q-258 27 -258 217z" />
    <glyph glyph-name="Ecaron" unicode="&#x11a;" horiz-adv-x="1245" 
d="M580 1135l-50 -265h547l-53 -299h-545l-47 -270h641l-53 -301h-991l252 1434h991l-53 -299h-639zM680 1583l-193 295h252l70 -115l113 115h239l-282 -295h-199z" />
    <glyph glyph-name="ecaron" unicode="&#x11b;" horiz-adv-x="1144" 
d="M831 768q-1 72 -109 73t-192 -67t-118 -180q184 4 302 51t117 123zM594 -35q-246 0 -382 133t-132 355q4 269 188 461t490 192q170 0 268 -74t96 -207t-106 -232q-197 -188 -610 -190h-5q33 -158 240 -157q174 0 295 106l111 -223q-82 -78 -203 -121t-250 -43zM868 1231
h-196l-193 295h252l70 -115l112 115h240z" />
    <glyph glyph-name="Gbreve" unicode="&#x11e;" horiz-adv-x="1474" 
d="M72 564q0 156 55 315q124 356 435 509q171 83 382 82q309 0 504 -163l-205 -254q-129 92 -307 92q-123 0 -220 -48q-98 -48 -154 -127q-116 -162 -113 -360q0 -317 294 -317q131 0 232 69l43 209h-305l49 281h639l-115 -678q-116 -96 -272 -151t-302 -55
q-271 -1 -450 137q-88 69 -139 186t-51 273zM938 1597q-129 0 -208 72t-62 221h149q5 -121 151 -121t193 121h148q-35 -150 -139 -222t-232 -71z" />
    <glyph glyph-name="gbreve" unicode="&#x11f;" horiz-adv-x="1212" 
d="M709 817q-119 0 -192 -90t-73 -225q0 -180 148 -180q72 0 132 56t75 150l45 260q-57 29 -135 29zM446 41q-142 0 -252 113t-110 313q0 261 178 451t445 190q162 0 258 -39l256 -4l-187 -1057q-86 -471 -614 -471q-102 0 -213 29t-174 72l92 266q133 -82 281 -82t218 48
q68 48 91 159l37 182q-111 -170 -306 -170zM770 1233q-129 0 -208 72t-62 221h151q-1 -119 147 -119t195 119h148q-37 -150 -139 -222t-232 -71z" />
    <glyph glyph-name="Gdotaccent" unicode="&#x120;" horiz-adv-x="1474" 
d="M72 564q0 156 55 315q124 356 435 509q171 83 382 82q309 0 504 -163l-205 -254q-129 92 -307 92q-123 0 -220 -48q-98 -48 -154 -127q-116 -162 -113 -360q0 -317 294 -317q131 0 232 69l43 209h-305l49 281h639l-115 -678q-116 -96 -272 -151t-302 -55
q-271 -1 -450 137q-88 69 -139 186t-51 273zM996 1907q69 0 110 -40t27 -119q-13 -79 -69 -119t-125 -40t-109 40t-26 119t69 119q54 40 123 40z" />
    <glyph glyph-name="gdotaccent" unicode="&#x121;" horiz-adv-x="1212" 
d="M709 817q-119 0 -192 -90t-73 -225q0 -180 148 -180q72 0 132 56t75 150l45 260q-57 29 -135 29zM446 41q-142 0 -252 113t-110 313q0 261 178 451t445 190q162 0 258 -39l256 -4l-187 -1057q-86 -471 -614 -471q-102 0 -213 29t-174 72l92 266q133 -82 281 -82t218 48
q68 48 91 159l37 182q-111 -170 -306 -170zM772 1225q-68 0 -108 40q-40 41 -27 119q14 78 68 118t123 40t110 -40t27 -119q-13 -79 -69 -119t-124 -39z" />
    <glyph glyph-name="Gcommaaccent" unicode="&#x122;" horiz-adv-x="1474" 
d="M625 -463h-144l66 354h250zM72 564q0 156 55 315q124 356 435 509q171 83 382 82q309 0 504 -163l-205 -254q-129 92 -307 92q-123 0 -220 -48q-98 -48 -154 -127q-116 -162 -113 -360q0 -317 294 -317q131 0 232 69l43 209h-305l49 281h639l-115 -678
q-116 -96 -272 -151t-302 -55q-271 -1 -450 137q-88 69 -139 186t-51 273z" />
    <glyph glyph-name="gcommaaccent" unicode="&#x123;" horiz-adv-x="1212" 
d="M383 -889h-143l65 354h250zM709 817q-119 0 -192 -90t-73 -225q0 -180 148 -180q72 0 132 56t75 150l45 260q-57 29 -135 29zM446 41q-142 0 -252 113t-110 313q0 261 178 451t445 190q162 0 258 -39l256 -4l-187 -1057q-86 -471 -614 -471q-102 0 -213 29t-174 72
l92 266q133 -82 281 -82t218 48q68 48 91 159l37 182q-111 -170 -306 -170z" />
    <glyph glyph-name="Hbar" unicode="&#x126;" horiz-adv-x="1802" 
d="M1284 1028h-596l-29 -166h596zM1765 1028h-133l-180 -1028h-352l102 563h-596l-98 -563h-352l182 1028h-129l35 199h129l35 207h352l-37 -207h596l37 207h348l-37 -207h133z" />
    <glyph glyph-name="hbar" unicode="&#x127;" horiz-adv-x="1263" 
d="M764 172q0 35 10 90l78 383q35 168 -96 168q-109 -1 -187 -109t-112 -305l-76 -399h-334l189 1024h-166l26 160h168l6 33q12 59 -49 59q-33 0 -57 -10l57 262q53 25 160 24q252 0 199 -284l-15 -84h6l-26 -160h-8l-23 -125h12q129 207 369 207q174 0 248 -96t43 -273
l-78 -442l-2 -19q0 -48 55 -50q27 0 45 5l-43 -219q-66 -27 -176 -26q-223 0 -223 186z" />
    <glyph glyph-name="Imacron" unicode="&#x12a;" horiz-adv-x="595" 
d="M379 0h-350l252 1434h350zM784 1636h-591l28 158h592z" />
    <glyph glyph-name="imacron" unicode="&#x12b;" horiz-adv-x="632" 
d="M483 252q39 0 54 6l-52 -262q-90 -20 -186 -20t-165 65q-69 66 -44 209l148 823h340l-138 -764q-10 -57 43 -57zM723 1276h-590l27 158h592z" />
    <glyph glyph-name="Iogonek" unicode="&#x12e;" horiz-adv-x="595" 
d="M-39 -250q0 70 43 128t143 122h-118l252 1434h350l-252 -1434h-55q-135 -104 -136 -193q0 -78 109 -90l-78 -182q-258 27 -258 215z" />
    <glyph glyph-name="iogonek" unicode="&#x12f;" horiz-adv-x="634" 
d="M354 -188q0 -78 111 -93l-80 -180q-258 27 -258 215q0 119 147 223q-223 23 -170 279l148 817h340l-143 -788q-6 -31 8 -53t88 -11l-41 -219l-25 -6q-125 -100 -125 -184zM512 1565q90 0 132 -42t39 -116t-69 -134t-165 -61q-158 0 -154 157q3 77 65 137t152 59z" />
    <glyph glyph-name="Idotaccent" unicode="&#x130;" horiz-adv-x="595" 
d="M379 0h-350l252 1434h350zM539 1894q71 0 111 -40t26 -118t-68 -118q-54 -39 -125 -39t-111 39t-26 118q14 78 68 118t125 40z" />
    <glyph glyph-name="dotlessi" unicode="&#x131;" horiz-adv-x="632" 
d="M483 252q39 0 54 6l-52 -262q-90 -20 -186 -20.5t-164.5 65t-44.5 209.5l148 823h340l-138 -764q-10 -57 43 -57z" />
    <glyph glyph-name="IJ" unicode="&#x132;" horiz-adv-x="1562" 
d="M834 -39q-180 0 -293 39l75 289q66 -16 183 -17q240 0 278 238l164 924h356l-161 -922q-96 -551 -602 -551zM379 0h-350l252 1434h350z" />
    <glyph glyph-name="ij" unicode="&#x133;" horiz-adv-x="1275" 
d="M586 -463q-152 0 -209 39l63 256q33 -12 88 -12q139 0 158 119l203 1134h330l-218 -1202q-29 -162 -145 -248q-118 -86 -270 -86zM322 -25q-276 0 -218 281l148 817h340l-143 -788q-6 -31 8 -53t88 -11l-41 -219q-72 -27 -182 -27zM512 1565q90 0 132 -42t39 -116
t-69 -134t-165 -61q-158 0 -154 157q3 77 65 137t152 59zM1082 1235q-172 1 -164 157q4 76 66 136q63 59 152 59t131 -42q42 -43 40 -117t-68 -134t-157 -59z" />
    <glyph glyph-name="Kcommaaccent" unicode="&#x136;" horiz-adv-x="1490" 
d="M508 -109h250l-172 -354h-144zM870 807l473 -807h-450l-279 571l-149 -137l-76 -434h-350l252 1434h350l-94 -547l538 547h471z" />
    <glyph glyph-name="kcommaaccent" unicode="&#x137;" horiz-adv-x="1267" 
d="M420 -109h250l-172 -354h-144zM821 725q0 78 -79 78t-150 -70t-109 -225l119 39q219 72 219 178zM892 -25q-188 0 -247 152l-80 188l-125 -45l-49 -270h-334l215 1210q12 66 -43 66q-14 0 -51 -8l45 256q109 29 176 28q133 0 176 -78t11 -260l-47 -258h2q133 150 323 150
q148 0 228 -79t79 -208q1 -244 -284 -387l65 -141q33 -63 78 -63t82 24l59 -197q-91 -80 -279 -80z" />
    <glyph glyph-name="Lacute" unicode="&#x139;" horiz-adv-x="1148" 
d="M434 315h649l-53 -315h-1001l252 1434h350zM582 1563h-189l176 307h371z" />
    <glyph glyph-name="lacute" unicode="&#x13a;" horiz-adv-x="618" 
d="M414 1563q256 0 192 -308l-180 -946q-12 -57 45 -57q16 0 47 6l-51 -262q-169 -37 -261 -6q-169 54 -130 260l186 971q14 63 -45 63q-28 0 -51 -8l47 260q90 27 201 27zM543 1669h-187l176 307h369z" />
    <glyph glyph-name="Lcommaaccent" unicode="&#x13b;" horiz-adv-x="1148" 
d="M510 -463h-143l65 354h250zM434 315h649l-53 -315h-1001l252 1434h350z" />
    <glyph glyph-name="lcommaaccent" unicode="&#x13c;" horiz-adv-x="618" 
d="M195 -463h-144l66 354h250zM414 1563q256 0 192 -308l-180 -946q-12 -57 45 -57q16 0 47 6l-51 -262q-169 -37 -261 -6q-169 54 -130 260l186 971q14 63 -45 63q-28 0 -51 -8l47 260q90 27 201 27z" />
    <glyph glyph-name="Lcaron" unicode="&#x13d;" horiz-adv-x="1148" 
d="M434 315h649l-53 -315h-1001l252 1434h350zM936 1079h-143l65 355h250z" />
    <glyph glyph-name="lcaron" unicode="&#x13e;" horiz-adv-x="845" 
d="M809 1186h-143l65 354h250zM414 1563q256 0 192 -308l-180 -946q-12 -57 45 -57q16 0 47 6l-51 -262q-169 -37 -261 -6q-169 54 -130 260l186 971q14 63 -45 63q-28 0 -51 -8l47 260q90 27 201 27z" />
    <glyph glyph-name="Ldot" unicode="&#x13f;" horiz-adv-x="1148" 
d="M903 1026q82 0 135 -60t37 -156q-17 -96 -75 -139q-58 -44 -140 -44t-136 60q-54 61 -37 155t75 139t141 45zM434 315h649l-53 -315h-1001l252 1434h350z" />
    <glyph glyph-name="ldot" unicode="&#x140;" horiz-adv-x="903" 
d="M822 989q81 0 135 -60q54 -61 38 -155t-75 -139q-60 -45 -142 -45t-136 60t-37 154t77 140q60 45 140 45zM414 1563q256 0 192 -308l-180 -946q-12 -57 45 -57q16 0 47 6l-51 -262q-169 -37 -261 -6q-169 54 -130 260l186 971q14 63 -45 63q-28 0 -51 -8l47 260
q90 27 201 27z" />
    <glyph glyph-name="Lslash" unicode="&#x141;" horiz-adv-x="1134" 
d="M551 979l266 102l-45 -262l-268 -104l-72 -402h598l-55 -313h-948l98 565l-174 -71l45 260l176 71l107 609h350z" />
    <glyph glyph-name="lslash" unicode="&#x142;" horiz-adv-x="737" 
d="M516 252q16 0 47 6l-51 -262q-169 -38 -260 -6q-170 55 -131 260l82 418l-183 -62l48 217l176 62l65 336q12 63 -47 63q-27 0 -51 -8l47 260q90 27 203 27q254 0 190 -308l-45 -243l232 80l-50 -220l-225 -77l-92 -486q-12 -57 45 -57z" />
    <glyph glyph-name="Nacute" unicode="&#x143;" horiz-adv-x="1513" 
d="M1296 0h-295l-477 825l-145 -825h-350l252 1434h297l466 -836l146 836h358zM1028 1563h-188l176 307h370z" />
    <glyph glyph-name="nacute" unicode="&#x144;" horiz-adv-x="1329" 
d="M937 1106q153 0 233 -99t44 -280l-84 -432q-6 -31 8 -49t38 -18q22 0 51 3l-43 -217q-63 -27 -187 -26q-260 0 -200 280l75 381q33 164 -110 164q-94 0 -168 -88t-107 -268l-81 -457h-334l153 801q12 70 -51 69q-25 0 -61 -10l37 215q68 23 156 23t139 -47
q52 -47 51 -144l-7 -37h5q90 132 190 184t253 52zM827 1210h-186l176 308h369z" />
    <glyph glyph-name="Ncommaaccent" unicode="&#x145;" horiz-adv-x="1513" 
d="M653 -463h-143l65 354h250zM1296 0h-295l-477 825l-145 -825h-350l252 1434h297l466 -836l146 836h358z" />
    <glyph glyph-name="ncommaaccent" unicode="&#x146;" horiz-adv-x="1329" 
d="M530 -463h-143l66 354h249zM937 1106q153 0 233 -99t44 -280l-84 -432q-6 -31 8 -49t38 -18q22 0 51 3l-43 -217q-63 -27 -187 -26q-260 0 -200 280l75 381q33 164 -110 164q-94 0 -168 -88t-107 -268l-81 -457h-334l153 801q12 70 -51 69q-25 0 -61 -10l37 215
q68 23 156 23t139 -47q52 -47 51 -144l-7 -37h5q90 132 190 184t253 52z" />
    <glyph glyph-name="Ncaron" unicode="&#x147;" horiz-adv-x="1513" 
d="M1548 1434l-252 -1434h-295l-477 825l-145 -825h-350l252 1434h297l466 -836l146 836h358zM852 1583l-193 295h252l70 -115l113 115h239l-284 -295h-197z" />
    <glyph glyph-name="ncaron" unicode="&#x148;" horiz-adv-x="1329" 
d="M762 813q-94 0 -168 -88t-107 -268l-81 -457h-334l153 801q12 70 -51 69q-25 0 -61 -10l37 215q68 23 156 23t139 -47q52 -47 51 -144l-7 -37h5q90 132 190 184t253 52t233 -100t44 -279l-84 -432q-6 -31 8 -49t38 -18q22 0 51 3l-43 -217q-63 -27 -187 -26
q-260 0 -200 280l75 381q33 164 -110 164zM653 1231l-192 295h252l69 -115l113 115h240l-285 -295h-197z" />
    <glyph glyph-name="Eng" unicode="&#x14a;" horiz-adv-x="1513" 
d="M707 -483q-182 0 -293 39l73 288q66 -16 185 -16q240 0 278 238l2 18l-428 741l-145 -825h-350l252 1434h297l466 -836l146 836h358l-254 -1434q-115 -483 -587 -483z" />
    <glyph glyph-name="eng" unicode="&#x14b;" horiz-adv-x="1273" 
d="M930 1106q152 0 232 -99q79 -99 46 -280l-151 -856q-31 -164 -148 -249t-297 -85q-125 0 -180 39l62 256q33 -12 97 -12t101 26t49 93l125 710q27 164 -112 164q-92 0 -166 -88t-107 -268l-84 -457h-331l143 760q12 70 -51 69q-23 0 -64 -10l47 256q72 23 159 23t139 -47
t50 -144l-8 -37h6q91 132 191 184t252 52z" />
    <glyph glyph-name="Omacron" unicode="&#x14c;" horiz-adv-x="1568" 
d="M895 1143q-139 0 -245 -87t-155 -204q-49 -116 -49 -252t79 -222t214 -87q201 0 323 172t122 383q0 139 -75 218t-214 79zM944 1468q313 0 468 -174t149 -446q-10 -371 -257 -627t-612 -256q-280 0 -448 168t-168 457q0 162 57 318q125 342 439 484q169 76 372 76z
M1266 1647h-592l28 159h590z" />
    <glyph glyph-name="omacron" unicode="&#x14d;" horiz-adv-x="1236" 
d="M686 813q-125 0 -198 -100t-72 -244q0 -97 45 -153t133 -56q125 0 201 100t75 248q0 205 -184 205zM727 1094q207 0 343 -119t136 -344q0 -171 -72 -317t-222 -240q-148 -94 -357 -94t-341 126t-132 343q0 269 171 457t474 188zM1053 1276h-592l28 158h590z" />
    <glyph glyph-name="Ohungarumlaut" unicode="&#x150;" horiz-adv-x="1568" 
d="M895 1143q-139 0 -245 -87t-155 -204q-49 -116 -49 -252t79 -222t214 -87q201 0 323 172t122 383q0 139 -75 218t-214 79zM944 1468q313 0 468 -174t149 -446q-10 -371 -257 -627t-612 -256q-280 0 -448 168t-168 457q0 162 57 318q125 342 439 484q169 76 372 76z
M1217 1604h-211l202 309h301zM846 1604h-184l120 309h285z" />
    <glyph glyph-name="ohungarumlaut" unicode="&#x151;" horiz-adv-x="1236" 
d="M686 813q-125 0 -198 -100t-72 -244q0 -97 45 -153t133 -56q125 0 201 100t75 248q0 205 -184 205zM727 1094q207 0 343 -119t136 -344q0 -171 -72 -317t-222 -240q-148 -94 -357 -94t-341 126t-132 343q0 269 171 457t474 188zM1004 1233h-211l202 307h301zM633 1233
h-184l118 307h287z" />
    <glyph glyph-name="OE" unicode="&#x152;" horiz-adv-x="1849" 
d="M899 1139q-174 0 -292 -107.5t-152.5 -307.5t45.5 -306.5t254 -106.5h4l145 828h-4zM743 0q-342 0 -530 185.5t-126 538.5t312 531.5t592 178.5h883l-55 -318h-557l-45 -252h497l-51 -280h-496l-47 -267h559l-57 -317h-879z" />
    <glyph glyph-name="oe" unicode="&#x153;" horiz-adv-x="1802" 
d="M555 260q113 0 187.5 106.5t74.5 254.5q0 193 -151 192q-115 0 -187.5 -106.5t-72.5 -249.5q0 -92 39.5 -144.5t109.5 -52.5zM1460 756q0 61 -86 61t-160.5 -56t-111.5 -159q16 -2 55 -2q123 0 213 45t90 111zM473 -20q-184 0 -292.5 118.5t-108.5 313.5q0 297 175 496.5
t427 199.5q141 0 218 -55.5t109 -171.5q72 102 182.5 163.5t252 61.5t229.5 -70.5t88 -193.5q0 -193 -178 -313.5t-428 -120.5q-23 0 -64 4q4 -158 163 -158t331 86l55 -242q-188 -119 -409 -118q-285 0 -359 190q-145 -190 -391 -190z" />
    <glyph glyph-name="Racute" unicode="&#x154;" horiz-adv-x="1394" 
d="M698 756q145 0 215 70t70 152q0 83 -51 120t-164 37h-188l-68 -379h186zM838 1434q526 0 526 -387q0 -165 -90 -307t-264 -218l237 -522h-389l-192 457h-207l-80 -457h-350l252 1434h557zM887 1563h-189l179 307h368z" />
    <glyph glyph-name="racute" unicode="&#x155;" horiz-adv-x="899" 
d="M799 1106q78 0 143 -35l-59 -307q-51 24 -139 24t-159 -82t-102 -241l-90 -465h-332l144 760q12 70 -41 69q-25 0 -62 -10l48 256q78 25 180 25q180 0 166 -182l-7 -52h13q102 240 297 240zM635 1202h-189l179 307h368z" />
    <glyph glyph-name="Rcommaaccent" unicode="&#x156;" horiz-adv-x="1394" 
d="M467 -109h250l-172 -354h-144zM698 756q145 0 215 70t70 152q0 83 -51 120t-164 37h-188l-68 -379h186zM838 1434q526 0 526 -387q0 -165 -90 -307t-264 -218l237 -522h-389l-192 457h-207l-80 -457h-350l252 1434h557z" />
    <glyph glyph-name="rcommaaccent" unicode="&#x157;" horiz-adv-x="899" 
d="M160 -463h-144l66 354h250zM799 1106q78 0 143 -35l-59 -307q-51 24 -139 24t-159 -82t-102 -241l-90 -465h-332l144 760q12 70 -41 69q-25 0 -62 -10l48 256q78 25 180 25q180 0 166 -182l-7 -52h13q102 240 297 240z" />
    <glyph glyph-name="Rcaron" unicode="&#x158;" horiz-adv-x="1394" 
d="M698 756q145 0 215 70t70 152q0 83 -51 120t-164 37h-188l-68 -379h186zM838 1434q526 0 526 -387q0 -165 -90 -307t-264 -218l237 -522h-389l-192 457h-207l-80 -457h-350l252 1434h557zM711 1583l-191 295h252l68 -115l112 115h242l-285 -295h-198z" />
    <glyph glyph-name="rcaron" unicode="&#x159;" horiz-adv-x="899" 
d="M799 1106q78 0 143 -35l-59 -307q-51 24 -139 24t-159 -82t-102 -241l-90 -465h-332l144 760q12 70 -41 69q-25 0 -62 -10l48 256q78 25 180 25q180 0 166 -182l-7 -52h13q102 240 297 240zM459 1223l-191 295h252l68 -115l112 115h242l-285 -295h-198z" />
    <glyph glyph-name="Sacute" unicode="&#x15a;" horiz-adv-x="1245" 
d="M524 301q127 0 192 42t64 108q0 37 -28 63t-66 38q-37 13 -111 38t-124 45q-129 53 -201 132t-72 214q0 199 152 338t448 139q162 0 288 -42t198 -107l-185 -252q-119 102 -299 102q-111 0 -172 -39t-61 -99t70 -94q39 -19 129 -47q89 -28 128 -42q289 -113 289 -346
q0 -209 -172 -363q-172 -153 -477 -153t-510 135l146 286q174 -96 374 -96zM872 1563h-186l176 307h369z" />
    <glyph glyph-name="sacute" unicode="&#x15b;" horiz-adv-x="985" 
d="M408 248q82 0 128 24t46 63q0 38 -28 53q-28 14 -98 32t-110 33q-213 80 -213 259q0 180 139 288t370 108t364 -111l-134 -225q-119 80 -270 80q-66 0 -104 -24t-37 -62q0 -38 41 -56q10 -4 32 -12t36 -13t45 -13q164 -41 235 -106q72 -66 72 -171q0 -197 -154 -307
t-390 -108q-236 0 -374 100l121 250q115 -82 283 -82zM725 1210h-186l176 308h368z" />
    <glyph glyph-name="Scedilla" unicode="&#x15e;" horiz-adv-x="1245" 
d="M780 1159q-111 0 -172 -39t-61 -99t70 -94q39 -19 129 -47q89 -28 128 -42q289 -113 289 -346q0 -190 -143 -336t-404 -174l-55 -84q33 4 43 4q70 0 105 -34t34 -91q0 -96 -87 -177t-244 -96l-33 136q98 18 130 44t32 58t-31 33q-16 0 -41 -13l-88 93l80 122
q-279 14 -457 134l146 286q174 -96 374 -96q127 0 192 42t64 108q0 37 -28 63t-66 38q-37 13 -111 38t-124 45q-129 53 -201 132t-72 214q0 199 152 338t448 139q162 0 288 -42t198 -107l-185 -252q-119 102 -299 102z" />
    <glyph glyph-name="scedilla" unicode="&#x15f;" horiz-adv-x="985" 
d="M602 852q-66 0 -104 -24t-37 -62q0 -38 41 -56q10 -4 32 -12t36 -13t45 -13q164 -41 235 -106q72 -66 72 -171q0 -172 -119 -278t-309 -131l-60 -88q33 4 43 4q70 0 105 -34t34 -91q0 -96 -86 -177t-243 -96l-35 136q164 29 164 104q0 31 -31 31q-20 0 -41 -13l-90 93
l82 125q-213 12 -332 100l121 250q115 -82 283 -82q82 0 128 24t46 63q0 38 -28 53q-28 14 -98 32t-110 33q-213 80 -213 259q0 180 139 288t370 108t364 -111l-134 -225q-119 80 -270 80z" />
    <glyph glyph-name="Scaron" unicode="&#x160;" horiz-adv-x="1245" 
d="M780 1159q-111 0 -172 -39t-61 -99t70 -94q39 -19 129 -47q89 -28 128 -42q289 -113 289 -346q0 -209 -172 -363t-477 -154t-510 136l146 286q174 -96 374 -96q127 0 192 42t64 108q0 37 -28 63t-66 38q-37 13 -111 38t-124 45q-129 53 -201 132t-72 214q0 199 152 338
t448 139q162 0 288 -42t198 -107l-185 -252q-119 102 -299 102zM698 1583l-192 295h252l69 -115l113 115h240l-285 -295h-197z" />
    <glyph glyph-name="scaron" unicode="&#x161;" horiz-adv-x="985" 
d="M602 852q-66 0 -104 -24t-37 -62q0 -38 41 -56q10 -4 32 -12t36 -13t45 -13q164 -41 235 -106q72 -66 72 -171q0 -197 -154 -307t-390 -108q-236 0 -374 100l121 250q115 -82 283 -82q82 0 128 24t46 63q0 38 -28 53q-28 14 -98 32t-110 33q-213 80 -213 259
q0 180 139 288t370 108t364 -111l-134 -225q-119 80 -270 80zM551 1231l-193 295h252l68 -115l113 115h241l-284 -295h-197z" />
    <glyph glyph-name="Tcedilla" unicode="&#x162;" horiz-adv-x="1351" 
d="M623 -98q69 0 105 -35t36 -90q0 -96 -87 -177t-245 -96l-33 136q162 29 162 104q0 31 -31 31q-16 0 -41 -13l-90 93l97 145h-88l198 1135h-420l54 299h1187l-53 -299h-418l-198 -1135h-109l-69 -102q33 4 43 4z" />
    <glyph glyph-name="tcedilla" unicode="&#x163;" horiz-adv-x="907" 
d="M573 264q61 0 142 27l37 -236q-121 -63 -283 -75l-55 -82q29 4 41 4q69 0 105 -35t36 -90q0 -96 -87 -177t-245 -96l-33 136q98 18 130 44t32 58t-31 33q-16 0 -40 -13l-91 93l88 133q-209 37 -161 291l90 509h-154l51 285h154l18 103l170 170h195l-47 -273h262l-51 -285
h-260l-78 -438q-14 -86 65 -86z" />
    <glyph glyph-name="Tcaron" unicode="&#x164;" horiz-adv-x="1351" 
d="M1427 1434l-53 -299h-418l-198 -1135h-350l198 1135h-420l54 299h1187zM739 1583l-192 295h252l69 -115l113 115h240l-285 -295h-197z" />
    <glyph glyph-name="tcaron" unicode="&#x165;" horiz-adv-x="907" 
d="M573 264q61 0 142 27l37 -236q-146 -75 -318 -75t-238 70t-38 229l90 509h-154l51 285h154l18 103l170 170h195l-47 -273h262l-51 -285h-260l-78 -438q-14 -86 65 -86zM883 1163h-144l66 355h250z" />
    <glyph glyph-name="Tbar" unicode="&#x166;" horiz-adv-x="1351" 
d="M1374 1135h-418l-198 -1135h-350l198 1135h-420l54 299h1187zM1143 1636h-592l29 158h589z" />
    <glyph glyph-name="tbar" unicode="&#x167;" horiz-adv-x="907" 
d="M573 264q61 0 142 27l37 -236q-146 -75 -318 -75t-238 70t-38 229l41 235h-113l29 160h112l21 114h-154l51 285h154l18 103l170 170h195l-47 -273h262l-51 -285h-260l-21 -114h140l-29 -160h-139l-29 -164q-14 -86 65 -86z" />
    <glyph glyph-name="Umacron" unicode="&#x16a;" horiz-adv-x="1439" 
d="M618 -35q-266 0 -407 134t-90 421l160 914h350l-158 -902q-23 -119 31 -182t172 -63q120 0 194 63t95 182l159 902h351l-160 -914q-35 -194 -141 -322t-244 -180t-312 -53zM1198 1636h-592l29 158h590z" />
    <glyph glyph-name="umacron" unicode="&#x16b;" horiz-adv-x="1288" 
d="M354 1106q258 0 201 -272l-80 -408q-27 -156 113 -156q68 0 132 56t87 186l102 569h334l-147 -821q-12 -61 48 -61q30 0 48 2l-39 -193q-63 -33 -167 -33t-151 35q-48 35 -42 135l8 50h-8q-41 -109 -133 -164t-214 -56q-172 1 -261 101t-48 307l82 424q12 66 -49 65
q-33 0 -66 -8l41 211q86 31 209 31zM1053 1276h-592l28 158h590z" />
    <glyph glyph-name="Uring" unicode="&#x16e;" horiz-adv-x="1439" 
d="M618 -35q-266 0 -407 134t-90 421l160 914h350l-158 -902q-23 -119 31 -182t172 -63q120 0 194 63t95 182l159 902h351l-160 -914q-35 -194 -141 -322t-244 -180t-312 -53zM941 1804q-37 0 -59 -22t-26 -52t10 -52t50 -22t60 22q22 22 26 52t-10 52q-15 22 -51 22z
M961 1907q86 0 128 -50q43 -50 29 -126t-74 -126q-60 -51 -146 -51q-85 0 -127 50t-28 127q12 76 72 126t146 50z" />
    <glyph glyph-name="uring" unicode="&#x16f;" horiz-adv-x="1288" 
d="M354 1106q258 0 201 -272l-80 -408q-27 -156 113 -156q68 0 132 56t87 186l102 569h334l-147 -821q-12 -61 48 -61q30 0 48 2l-39 -193q-63 -33 -167 -33t-151 35q-48 35 -42 135l8 50h-8q-41 -109 -133 -164t-214 -56q-172 1 -261 101t-48 307l82 424q12 66 -49 65
q-33 0 -66 -8l41 211q86 31 209 31zM770 1296q34 0 58 22t28 52q10 74 -60 74q-36 0 -59 -22t-27 -52t11 -52q14 -22 49 -22zM815 1546q86 0 128 -50t29 -126q-14 -76 -74 -126t-145 -50t-127 50t-30 126q14 76 74 126t145 50z" />
    <glyph glyph-name="Uhungarumlaut" unicode="&#x170;" horiz-adv-x="1439" 
d="M618 -35q-266 0 -407 134t-90 421l160 914h350l-158 -902q-23 -119 31 -182t172 -63q120 0 194 63t95 182l159 902h351l-160 -914q-35 -194 -141 -322t-244 -180t-312 -53zM1149 1593h-211l203 308h301zM778 1593h-184l121 308h284z" />
    <glyph glyph-name="uhungarumlaut" unicode="&#x171;" horiz-adv-x="1288" 
d="M354 1106q258 0 201 -272l-80 -408q-27 -156 113 -156q68 0 132 56t87 186l102 569h334l-147 -821q-12 -61 48 -61q30 0 48 2l-39 -193q-63 -33 -167 -33t-151 35q-48 35 -42 135l8 50h-8q-41 -109 -133 -164t-214 -56q-172 1 -261 101t-48 307l82 424q12 66 -49 65
q-33 0 -66 -8l41 211q86 31 209 31zM1004 1233h-211l202 307h301zM633 1233h-184l120 307h285z" />
    <glyph glyph-name="Uogonek" unicode="&#x172;" horiz-adv-x="1439" 
d="M793 -172q0 -78 108 -92l-78 -180q-258 27 -258 215q0 109 111 196l-58 -2q-266 0 -407 134t-90 421l160 914h350l-158 -902q-23 -119 31 -182t172 -63q120 0 194 63t95 182l159 902h351l-160 -914q-70 -377 -387 -500q-135 -104 -135 -192z" />
    <glyph glyph-name="uogonek" unicode="&#x173;" horiz-adv-x="1288" 
d="M986 -25q-104 0 -151 35q-48 35 -42 135l8 50h-8q-35 -88 -97 -138l43 -20q-137 -104 -137 -193q0 -78 111 -92l-80 -180q-258 27 -258 215q0 102 102 188h-31q-172 1 -261 101t-48 307l82 424q12 66 -49 65q-33 0 -66 -8l41 211q86 31 209 31q258 0 201 -272l-80 -408
q-27 -156 113 -156q68 0 132 56t87 186l102 569h334l-147 -821q-12 -61 48 -61q30 0 48 2l-39 -193q-63 -33 -167 -33z" />
    <glyph glyph-name="Wcircumflex" unicode="&#x174;" horiz-adv-x="2099" 
d="M2232 1434l-706 -1434h-238l-168 911l-489 -911h-240l-207 1434h334l123 -869l451 869h239l156 -861l385 861h360zM1159 1595h-252l297 297h193l184 -297h-244l-69 113z" />
    <glyph glyph-name="wcircumflex" unicode="&#x175;" horiz-adv-x="1796" 
d="M287 1106q96 0 142 -43t71 -145t51 -533l309 688h273l86 -657l313 657h342l-567 -1081h-295l-84 653l-310 -653h-284l-150 815q-12 66 -61 65q-25 0 -53 -8l41 211q80 31 176 31zM756 1233h-254l297 297h192l185 -297h-244l-70 113z" />
    <glyph glyph-name="Ycircumflex" unicode="&#x176;" horiz-adv-x="1388" 
d="M1526 1434l-652 -865l-98 -569h-352l100 571l-346 863h406l186 -523l375 523h381zM788 1595h-253l296 297h195l182 -297h-243l-70 113z" />
    <glyph glyph-name="ycircumflex" unicode="&#x177;" horiz-adv-x="1185" 
d="M228 -459q-140 0 -251 62l86 241q141 -63 209 1q33 32 64 100l49 98l-213 756q-8 37 -21 51t-39 14t-55 -8l41 211q80 31 174 31t144 -43t67 -131l117 -564l318 713h354l-645 -1237q-82 -156 -170 -226q-89 -70 -229 -69zM590 1233h-252l297 297h192l185 -297h-244
l-70 113z" />
    <glyph glyph-name="Ydieresis" unicode="&#x178;" horiz-adv-x="1388" 
d="M874 569l-98 -569h-352l100 571l-346 863h406l186 -523l375 523h381zM1116 1892q66 0 102 -41t22 -115q-25 -141 -153 -141q-67 0 -105 41t-24 119q25 137 158 137zM705 1892q67 0 103 -41t22 -115t-56 -108q-42 -33 -104 -33t-100 41t-25 119q25 137 160 137z" />
    <glyph glyph-name="Zacute" unicode="&#x179;" horiz-adv-x="1394" 
d="M1374 1225l-846 -924h725l-53 -301h-1161l37 217l821 918h-627l54 299h1087zM963 1563h-187l176 307h369z" />
    <glyph glyph-name="zacute" unicode="&#x17a;" horiz-adv-x="1056" 
d="M1051 848l-590 -576h497l-45 -272h-917l35 215l569 576h-440l51 282h881zM754 1210h-189l176 308h371z" />
    <glyph glyph-name="Zdotaccent" unicode="&#x17b;" horiz-adv-x="1394" 
d="M1374 1225l-846 -924h725l-53 -301h-1161l37 217l821 918h-627l54 299h1087zM944 1894q70 0 111 -40t27 -118t-69 -118q-54 -39 -124 -39t-110 39q-39 39 -25 118q14 78 67 118t123 40z" />
    <glyph glyph-name="zdotaccent" unicode="&#x17c;" horiz-adv-x="1056" 
d="M1051 848l-590 -576h497l-45 -272h-917l35 215l569 576h-440l51 282h881zM734 1542q69 0 110 -40q42 -40 28 -119t-69 -117t-125 -39q-70 0 -110 39q-40 40 -26 118t69 118q54 40 123 40z" />
    <glyph glyph-name="Zcaron" unicode="&#x17d;" horiz-adv-x="1394" 
d="M1374 1225l-846 -924h725l-53 -301h-1161l37 217l821 918h-627l54 299h1087zM788 1583l-192 295h252l67 -115l113 115h242l-285 -295h-197z" />
    <glyph glyph-name="zcaron" unicode="&#x17e;" horiz-adv-x="1056" 
d="M1051 848l-590 -576h497l-45 -272h-917l35 215l569 576h-440l51 282h881zM578 1231l-193 295h252l70 -115l112 115h240l-285 -295h-196z" />
    <glyph glyph-name="florin" unicode="&#x192;" horiz-adv-x="1044" 
d="M920 1282q-50 0 -82 -26t-41 -72l-21 -107h230l-50 -284h-229l-115 -652q-32 -164 -144 -262t-276 -98t-241 49l102 242q66 -18 106 -18q39 0 75 28q36 29 47 90l110 621h-131l49 284h131l23 121q31 174 144 267q114 93 300 94q121 0 223 -39l-106 -256q-54 18 -104 18z
" />
    <glyph glyph-name="Scommaaccent" unicode="&#x218;" horiz-adv-x="1245" 
d="M485 -463h-141l66 354h247zM524 301q127 0 192 42t64 108q0 37 -28 63t-66 38q-37 13 -111 38t-124 45q-129 53 -201 132t-72 214q0 199 152 338t448 139q162 0 288 -42t198 -107l-185 -252q-119 102 -299 102q-111 0 -172 -39t-61 -99t70 -94q39 -19 129 -47
q89 -28 128 -42q289 -113 289 -346q0 -209 -172 -363q-172 -153 -477 -153t-510 135l146 286q174 -96 374 -96z" />
    <glyph glyph-name="scommaaccent" unicode="&#x219;" horiz-adv-x="985" 
d="M360 -463h-143l66 354h247zM408 248q82 0 128 24t46 63q0 38 -28 53q-28 14 -98 32t-110 33q-213 80 -213 259q0 180 139 288t370 108t364 -111l-134 -225q-119 80 -270 80q-66 0 -104 -24t-37 -62q0 -38 41 -56q10 -4 32 -12t36 -13t45 -13q164 -41 235 -106
q72 -66 72 -171q0 -197 -154 -307t-390 -108q-236 0 -374 100l121 250q115 -82 283 -82z" />
    <glyph glyph-name="uni021A" unicode="&#x21a;" horiz-adv-x="1351" 
d="M506 -463h-144l66 354h250zM1374 1135h-418l-198 -1135h-350l198 1135h-420l54 299h1187z" />
    <glyph glyph-name="uni021B" unicode="&#x21b;" horiz-adv-x="907" 
d="M338 -463h-143l65 354h250zM573 264q61 0 142 27l37 -236q-146 -75 -318 -75t-238 70t-38 229l90 509h-154l51 285h154l18 103l170 170h195l-47 -273h262l-51 -285h-260l-78 -438q-14 -86 65 -86z" />
    <glyph glyph-name="circumflex" unicode="&#x2c6;" horiz-adv-x="776" 
d="M604 1225l-72 112l-106 -112h-254l297 297h195l182 -297h-242z" />
    <glyph glyph-name="caron" unicode="&#x2c7;" horiz-adv-x="776" 
d="M897 1518l-285 -295h-196l-193 295h252l68 -115l112 115h242z" />
    <glyph glyph-name="breve" unicode="&#x2d8;" horiz-adv-x="671" 
d="M457 1227q-129 0 -207 71.5t-62 219.5h150q4 -119 150.5 -119t191.5 119h149q-37 -147 -140 -219t-232 -72z" />
    <glyph glyph-name="dotaccent" unicode="&#x2d9;" horiz-adv-x="821" 
d="M586 1534q70 0 110.5 -40t26.5 -119t-68.5 -117.5t-124.5 -38.5t-109.5 38.5t-25.5 117.5t67.5 119t123.5 40z" />
    <glyph glyph-name="ring" unicode="&#x2da;" horiz-adv-x="776" 
d="M550 1444q-36 0 -58.5 -21.5t-26.5 -52.5q-10 -74 61 -74q33 0 56.5 21.5t28.5 51.5t-10 52.5t-51 22.5zM569 1546q86 0 128 -50t29 -126t-73.5 -126t-145.5 -50t-127 50t-30 126q14 76 73.5 126t145.5 50z" />
    <glyph glyph-name="ogonek" unicode="&#x2db;" horiz-adv-x="716" 
d="M334 -193q0 -78 110 -92l-79 -180q-258 27 -259 215q0 82 60 147.5t205 147.5l100 -45q-137 -104 -137 -193z" />
    <glyph glyph-name="tilde" unicode="&#x2dc;" horiz-adv-x="1243" 
d="M897.5 1235q-69.5 0 -141.5 40t-105 40q-70 0 -119 -96l-145 88q43 106 114.5 157.5t138.5 51.5t137.5 -41t92.5 -41q56 0 117 102l164 -74q-45 -104 -114.5 -165.5t-139 -61.5z" />
    <glyph glyph-name="hungarumlaut" unicode="&#x2dd;" horiz-adv-x="866" 
d="M721 1233h-211l203 307h301zM350 1233h-184l119 307h286z" />
    <glyph glyph-name="commaaccentcomb" unicode="&#x326;" horiz-adv-x="0" 
d="M184 -463h-143l65 354h248z" />
    <glyph glyph-name="mu" unicode="&#x3bc;" horiz-adv-x="1255" 
d="M496 -25q-94 0 -160 45l-68 -397h-325l256 1450h329l-106 -614q-33 -184 143 -185q135 0 234 150l114 649h332l-188 -1073h-226l-32 139q-150 -164 -303 -164z" />
    <glyph glyph-name="Wgrave" unicode="&#x1e80;" horiz-adv-x="2099" 
d="M2232 1434l-706 -1434h-238l-168 911l-489 -911h-240l-207 1434h334l123 -869l451 869h239l156 -861l385 861h360zM1194 1604l-254 309h371l69 -309h-186z" />
    <glyph glyph-name="wgrave" unicode="&#x1e81;" horiz-adv-x="1796" 
d="M287 1106q96 0 142 -43t71 -145t51 -533l309 688h273l86 -657l313 657h342l-567 -1081h-295l-84 653l-310 -653h-284l-150 815q-12 66 -61 65q-25 0 -53 -8l41 211q80 31 176 31zM788 1239l-253 309h370l70 -309h-187z" />
    <glyph glyph-name="Wacute" unicode="&#x1e82;" horiz-adv-x="2099" 
d="M2232 1434l-706 -1434h-238l-168 911l-489 -911h-240l-207 1434h334l123 -869l451 869h239l156 -861l385 861h360zM1323 1573h-186l176 309h368z" />
    <glyph glyph-name="wacute" unicode="&#x1e83;" horiz-adv-x="1796" 
d="M287 1106q96 0 142 -43t71 -145t51 -533l309 688h273l86 -657l313 657h342l-567 -1081h-295l-84 653l-310 -653h-284l-150 815q-12 66 -61 65q-25 0 -53 -8l41 211q80 31 176 31zM918 1210h-187l176 308h369z" />
    <glyph glyph-name="Wdieresis" unicode="&#x1e84;" horiz-adv-x="2099" 
d="M2232 1434l-706 -1434h-238l-168 911l-489 -911h-240l-207 1434h334l123 -869l451 869h239l156 -861l385 861h360zM1489 1892q65 0 101 -41t22 -122q-24 -134 -158 -134q-62 0 -100 41t-25 119q25 137 160 137zM1077 1892q66 0 102 -41t23 -122q-24 -134 -160 -134
q-62 0 -100 41q-39 41 -24 119q25 137 159 137z" />
    <glyph glyph-name="wdieresis" unicode="&#x1e85;" horiz-adv-x="1796" 
d="M287 1106q96 0 142 -43t71 -145t51 -533l309 688h273l86 -657l313 657h342l-567 -1081h-295l-84 653l-310 -653h-284l-150 815q-12 66 -61 65q-25 0 -53 -8l41 211q80 31 176 31zM1083 1528q66 0 102 -41t21 -123q-24 -133 -158 -133q-62 0 -99 41q-38 41 -23 119
q25 137 157 137zM672 1528q66 0 102 -41t23 -123q-23 -133 -161 -133q-62 0 -100 41t-24 119q25 137 160 137z" />
    <glyph glyph-name="uni1E9E" unicode="&#x1e9e;" horiz-adv-x="1372" 
d="M758 -29q-168 0 -242 37l94 295q78 -33 154 -33t125 54t49 127q0 143 -250 163l31 174l207 189q32 162 -151 162q-89 -1 -153 -63t-85 -173l-158 -903h-352l168 944q45 258 228 386t419 128t360 -141q123 -141 78 -389l-225 -193q237 -63 237 -281t-145 -351
q-145 -132 -389 -132z" />
    <glyph glyph-name="Ygrave" unicode="&#x1ef2;" horiz-adv-x="1388" 
d="M874 569l-98 -569h-352l100 571l-346 863h406l186 -523l375 523h381zM1008 1604h-187l-252 309h369z" />
    <glyph glyph-name="ygrave" unicode="&#x1ef3;" horiz-adv-x="1185" 
d="M228 -459q-140 0 -251 62l86 241q141 -63 209 1q33 32 64 100l49 98l-213 756q-8 37 -21 51t-39 14t-55 -8l41 211q80 31 174 31t144 -43t67 -131l117 -564l318 713h354l-645 -1237q-82 -156 -170 -226q-89 -70 -229 -69zM625 1239l-254 309h370l70 -309h-186z" />
    <glyph glyph-name="uni2009" unicode="&#x2009;" horiz-adv-x="10" 
 />
    <glyph glyph-name="endash" unicode="&#x2013;" horiz-adv-x="1175" 
d="M1038 391h-952l51 293h953z" />
    <glyph glyph-name="emdash" unicode="&#x2014;" horiz-adv-x="1814" 
d="M1640 391h-1517l51 293h1518z" />
    <glyph glyph-name="quoteleft" unicode="&#x2018;" horiz-adv-x="550" 
d="M422 1487l156 -72q-111 -96 -148 -168q139 -39 115 -198q-35 -186 -217 -187q-92 0 -148 70q-55 70 -33 188q33 201 275 367z" />
    <glyph glyph-name="quoteright" unicode="&#x2019;" horiz-adv-x="573" 
d="M436 1479q88 0 142 -69t34 -189q-37 -205 -270 -367l-160 74q115 98 148 168q-70 18 -99 72t-15 136t74 128q58 46 146 47z" />
    <glyph glyph-name="quotesinglbase" unicode="&#x201a;" horiz-adv-x="522" 
d="M213 360q88 0 143 -68t33 -192q-34 -198 -270 -362l-160 72q25 20 44 38t31 30t26 28q13 18 19 24q5 6 19 26t19 28q-72 4 -106 59t-17 133q14 94 72 139t147 45z" />
    <glyph glyph-name="quotedblleft" unicode="&#x201c;" horiz-adv-x="1036" 
d="M498 1464l133 -41q-127 -104 -174 -219q59 -4 100 -43t39 -129t-72 -152q-70 -64 -156 -64t-136 50q-50 51 -48 144q7 266 314 454zM977 1464l135 -41q-125 -104 -176 -219q59 -2 101 -42t40 -130t-71 -153q-70 -63 -157 -63t-136 50q-49 51 -47 144q4 266 311 454z" />
    <glyph glyph-name="quotedblright" unicode="&#x201d;" horiz-adv-x="1036" 
d="M878 1462q87 0 137 -51t48 -143q-6 -267 -313 -455l-134 41q125 104 177 219q-59 2 -102 41q-42 39 -40 130q2 90 71 154t156 64zM399 1462q87 0 137 -51t48 -143q-7 -265 -314 -455l-133 41q125 106 174 219q-59 2 -100 42t-39 130q2 89 71 153t156 64z" />
    <glyph glyph-name="quotedblbase" unicode="&#x201e;" horiz-adv-x="1073" 
d="M731 360q88 0 143 -68t33 -192q-34 -196 -272 -362l-158 72q109 92 148 167q-68 17 -97 73q-30 56 -16 138t72 127t147 45zM246 360q88 0 143 -68t33 -192q-34 -198 -270 -362l-160 72q111 94 147 170q-71 18 -99 72t-13 124q14 94 72 139q59 45 147 45z" />
    <glyph glyph-name="dagger" unicode="&#x2020;" horiz-adv-x="901" 
d="M885 811h-236l-143 -811h-299l143 811h-237l45 266h239l64 357h299l-64 -357h234z" />
    <glyph glyph-name="daggerdbl" unicode="&#x2021;" horiz-adv-x="897" 
d="M662 877l-35 -189h219l-47 -266h-217l-74 -422h-305l73 422h-219l47 266h220l32 189h-219l47 264h219l52 293h305l-53 -293h219l-47 -264h-217z" />
    <glyph glyph-name="bullet" unicode="&#x2022;" horiz-adv-x="452" 
d="M365 741q73 0 117 -47q44 -48 31 -122t-59 -108t-109 -34t-105 48t-27 130q25 133 152 133z" />
    <glyph glyph-name="ellipsis" unicode="&#x2026;" horiz-adv-x="1832" 
d="M1534 373q82 -1 138 -59t39 -160t-79 -148q-62 -45 -144 -45q-83 1 -140 61t-39 162q19 102 81 145q62 44 144 44zM967 373q83 -1 139 -59t38 -160t-78 -148q-60 -45 -143 -45q-83 1 -139 61t-38 162t78 145q60 44 143 44zM402 373q82 -1 138 -59t39 -160t-77 -148
q-60 -45 -145 -45q-83 1 -139 61t-38 162t78 146q60 43 144 43z" />
    <glyph glyph-name="perthousand" unicode="&#x2030;" horiz-adv-x="2461" 
d="M2023 551q-73 0 -119 -66q-46 -67 -46 -197t96 -130q168 0 168 266q-1 127 -99 127zM1231 551q-74 0 -121 -66q-47 -67 -47 -197t98 -130q166 0 166 266q0 127 -96 127zM2052 729q137 0 221 -81t84 -224q0 -205 -123 -325t-311 -119q-137 0 -217 78t-80 221
q0 205 123 327t303 123zM1260 729q137 0 221 -81t84 -224q0 -203 -124 -324t-313 -120q-135 0 -215 78t-79 221q0 205 123 327t303 123zM502 1280q-72 0 -119 -66t-47 -196t96 -131q168 0 168 268q0 125 -98 125zM301 0h-190l1230 1434h189zM530 1458q138 0 222 -81t84 -224
q0 -203 -124 -324t-311 -120q-135 1 -215 79t-80 220q0 206 122 328t302 122z" />
    <glyph glyph-name="guilsinglleft" unicode="&#x2039;" horiz-adv-x="647" 
d="M602 821l-305 -301l199 -303l-168 -123l-287 424l414 426z" />
    <glyph glyph-name="guilsinglright" unicode="&#x203a;" horiz-adv-x="651" 
d="M600 510l-428 -424l-133 137l305 295l-197 293l166 131z" />
    <glyph glyph-name="fraction" unicode="&#x2044;" horiz-adv-x="536" 
d="M809 1589l-948 -1880h-183l951 1880h180z" />
    <glyph glyph-name="Euro" unicode="&#x20ac;" horiz-adv-x="1492" 
d="M1081 1458q145 0 267 -42t188 -111l-221 -238q-117 90 -281 90q-242 0 -366 -205h571l-65 -170h-572q-12 -57 -12 -125h536l-65 -170h-449q68 -201 271 -200q184 0 346 119l127 -224q-94 -88 -242 -146t-317 -59q-231 -1 -391 131t-185 379h-158l29 170h127q2 43 14 125
h-118l30 170h138q96 246 311 376t487 130z" />
    <glyph glyph-name="trademark" unicode="&#x2122;" horiz-adv-x="1921" 
d="M1870 512h-262v461l-174 -244h-93l-174 240v-457h-252v922h232l250 -367l301 367h172v-922zM854 1186h-250v-674h-262v674h-242v248h754v-248z" />
    <glyph glyph-name="oneeighth" unicode="&#x215b;" horiz-adv-x="2263" 
d="M1806 369q-57 0 -98 -30t-49 -76q-9 -46 21 -76q30 -29 89 -29t99 29q39 30 45 77q10 47 -20 76t-87 29zM1862 678q-48 0 -84 -22q-35 -22 -42 -60q-6 -39 20 -64q26 -24 76 -24t84 24t42 64q8 38 -20 60t-76 22zM1734 -31q-158 0 -246 71t-66 204t159 196
q-92 56 -73 168t128 180t255 68t233 -68q86 -68 66 -180t-144 -170q121 -66 96 -198q-20 -127 -135 -199t-273 -72zM768 608h-596l33 193h180l72 409l-156 -45l-33 168l299 115h168l-114 -647h180zM1677 1589l-950 -1880h-182l952 1880h180z" />
    <glyph glyph-name="threeeighths" unicode="&#x215c;" horiz-adv-x="2263" 
d="M1806 369q-57 0 -98 -30t-49 -76q-9 -46 21 -76q30 -29 89 -29t99 29q39 30 45 77q10 47 -20 76t-87 29zM1862 678q-48 0 -84 -22q-35 -22 -42 -60q-6 -39 20 -64q26 -24 76 -24t84 24t42 64q8 38 -20 60t-76 22zM1734 -31q-158 0 -246 71t-66 204t159 196
q-92 56 -73 168t128 180t255 68t233 -68q86 -68 66 -180t-144 -170q121 -66 96 -198q-20 -127 -135 -199t-273 -72zM550 1468q167 0 245 -52t73 -142q-4 -154 -168 -219q133 -45 129 -173q-3 -128 -121 -212t-292 -84t-295 78l76 180q127 -49 223 -49q160 0 162 92
q4 35 -25 52t-92 17h-139l30 164h123q119 0 123 88q8 66 -93 66q-101 1 -218 -60l-60 156q152 98 319 98zM1677 1589l-950 -1880h-182l952 1880h180z" />
    <glyph glyph-name="fiveeighths" unicode="&#x215d;" horiz-adv-x="2263" 
d="M1806 369q-57 0 -98 -30t-49 -76q-9 -46 21 -76q30 -29 89 -29t99 29q39 30 45 77q10 47 -20 76t-87 29zM1862 678q-48 0 -84 -22q-35 -22 -42 -60q-6 -39 20 -64q26 -24 76 -24t84 24t42 64q8 38 -20 60t-76 22zM1734 -31q-158 0 -246 71t-66 204t159 196
q-92 56 -73 168t128 180t255 68t233 -68q86 -68 66 -180t-144 -170q121 -66 96 -198q-20 -127 -135 -199t-273 -72zM627 1137q102 0 161 -70q58 -69 36 -195t-136 -206t-282 -80q-170 0 -287 69l80 174q121 -45 203 -45q154 0 178 105q8 43 -18 67t-88 23q-62 0 -124 -51
l-145 59l82 459h581l-34 -209h-353l-24 -131q68 31 170 31zM1677 1589l-950 -1880h-182l952 1880h180z" />
    <glyph glyph-name="seveneighths" unicode="&#x215e;" horiz-adv-x="2263" 
d="M1806 369q-57 0 -98 -30t-49 -76q-9 -46 21 -76q30 -29 89 -29t99 29q39 30 45 77q10 47 -20 76t-87 29zM1862 678q-48 0 -84 -22q-35 -22 -42 -60q-6 -39 20 -64q26 -24 76 -24t84 24t42 64q8 38 -20 60t-76 22zM1734 -31q-158 0 -246 71t-66 204t159 196
q-92 56 -73 168t128 180t255 68t233 -68q86 -68 66 -180t-144 -170q121 -66 96 -198q-20 -127 -135 -199t-273 -72zM891 1247l-387 -639h-254l379 627h-402l37 211h664zM1677 1589l-950 -1880h-182l952 1880h180z" />
    <glyph glyph-name="minus" unicode="&#x2212;" horiz-adv-x="1421" 
d="M1202 500h-999l33 184h1001z" />
    <glyph glyph-name="notequal" unicode="&#x2260;" horiz-adv-x="1353" 
d="M827 721l-116 -209h417l-32 -184h-486l-139 -256h-188l139 256h-272l32 184h342l115 209h-420l33 184h487l142 258h188l-141 -258h272l-35 -184h-338z" />
    <glyph glyph-name="uni2322" unicode="&#x2322;" 
d="M1024 608q180 0 317 -103t170 -259h-96q-47 100 -152 164t-239 63q-134 0 -239 -63q-105 -64 -152 -164h-96q33 156 170 259t317 103z" />
    <glyph glyph-name="uni2323" unicode="&#x2323;" 
d="M1024 199q-180 0 -317 103t-170 259h96q47 -104 152 -171q105 -66 239 -66t239 66q105 67 152 171h96q-33 -156 -170 -259t-317 -103z" />
    <glyph glyph-name="uni2639" unicode="&#x2639;" 
d="M733 219q0 106 85 181t206 75t206 -75t85 -181h110q1 155 -117 267t-284 112t-284 -112t-117 -267h110zM1205 1077q-93 1 -93 -197t93 -198t93 198t-93 197zM843 1077q-93 1 -93 -197t93 -198t93 198t-93 197zM1023 1458q329 0 561 -232t232 -561t-232 -563t-560 -233
q-328 0 -560 232q-232 233 -232 563t230 562q232 232 561 232z" />
    <glyph glyph-name="whiteSmilingFace" unicode="&#x263a;" 
d="M1024 199q180 0 317 103t170 259h-96q-47 -104 -152 -171q-105 -66 -239 -66t-239 66q-105 67 -152 171h-96q33 -156 170 -259t317 -103zM1205 1036q-93 0 -93 -198t93 -197q93 -1 93 197t-93 198zM843 1036q-93 0 -93 -198t93 -197q93 -1 93 197t-93 198zM1023 1458
q329 0 561 -232t232 -561t-232 -563t-560 -233q-328 0 -560 232q-232 233 -232 563t230 562q232 232 561 232z" />
    <glyph glyph-name="onefitted" unicode="&#xf6dc;" horiz-adv-x="1183" 
d="M1077 313l-57 -313h-963l60 313h307l121 717l-254 -108l-82 270l500 250h270l-197 -1129h295z" />
    <glyph glyph-name="threequartersemdash" unicode="&#xf6de;" horiz-adv-x="1284" 
d="M1180 485h-1098l55 293h1098z" />
    <glyph glyph-name="u1F600" unicode="&#x1f600;" 
d="M825 434q86 -16 166 -18v-115q-92 6 -166 27v106zM1225 328q-72 -20 -166 -27v115q86 4 166 20v-108zM1290 453q88 25 176 73q-45 -115 -176 -174v101zM760 352q-131 59 -176 174q88 -49 176 -73v-101zM1026 510q-348 0 -551 172q1 -250 149 -406t400 -156t400 158
q148 156 149 406q-199 -174 -547 -174zM1205 1036q-93 0 -93 -198t93 -197q93 -1 93 197t-93 198zM843 1036q-93 0 -93 -198t93 -197q93 -1 93 197t-93 198zM1023 1458q329 0 561 -232t232 -561t-232 -563t-560 -233q-328 0 -560 232q-232 233 -232 563t230 562
q232 232 561 232z" />
    <glyph glyph-name="u1F601" unicode="&#x1f601;" 
d="M825 434q86 -16 166 -18v-115q-92 6 -166 27v106zM1225 328q-72 -20 -166 -27v115q86 4 166 20v-108zM1290 453q88 25 176 73q-45 -115 -176 -174v101zM760 352q-131 59 -176 174q88 -49 176 -73v-101zM1026 510q-348 0 -551 172q1 -250 149 -406t400 -156t400 158
q148 156 149 406q-199 -174 -547 -174zM1248 973q56 0 69 -203h94q-4 143 -48 221t-114 78q-71 0 -115 -78t-49 -221h95q12 203 68 203zM800 973q56 0 68 -203h95q-5 143 -49 221t-114 78t-114 -78q-45 -78 -49 -221h94q13 203 69 203zM1023 1458q329 0 561 -232t232 -561
t-232 -563t-560 -233q-328 0 -560 232q-232 233 -232 563t230 562q232 232 561 232z" />
    <glyph glyph-name="u1F602" unicode="&#x1f602;" 
d="M1964 281q20 20 21 47q0 27 -21 45q-16 18 -63 26q-48 8 -72 19q10 -27 18 -74t25 -63q49 -45 92 0zM176 281q16 16 25 63q8 47 18 74q-23 -8 -71 -18t-65 -28q-17 -17 -18 -44t19 -47q43 -45 92 0zM823 354v109q86 -18 168 -19v-116q-94 3 -168 26zM1059 328v116
q98 4 168 19v-109q-74 -22 -168 -26zM1294 379v100q98 31 181 76q-46 -115 -181 -176zM756 479v-100q-137 63 -181 176q89 -47 181 -76zM385 584q-20 20 -19 46t18 43q18 17 66 27t72 19q-8 -23 -18 -71t-28 -65t-42 -18q-26 -1 -49 19zM1526 719q28 -11 74 -19t64 -26
t18 -44q2 -26 -20 -46t-48 -20t-42 18q-17 18 -28 66q-10 48 -18 71zM297 627q0 -53 36 -90t82 -42t81 15q53 -170 191 -269t337 -99t337 98q138 100 191 270q35 -20 81 -15t82 42t36 90t-34 88t-132 50t-145 50l-10 -8q35 -45 53 -162q-183 -109 -455 -107t-463 107
q18 117 53 162l-8 8q-47 -35 -146 -50t-133 -50t-34 -88zM1215 1051q-67 0 -105 -74t-45 -211h86q13 188 67 188t66 -188h84q-4 137 -45 211t-108 74zM832 1051q-66 0 -107 -74t-45 -211h84q12 188 66 188t67 -188h86q-6 137 -45 211q-40 74 -106 74zM1023 1458
q329 0 561 -232t233 -562q0 -96 -21 -181q24 -8 108 -23t117 -47t32 -87q-1 -54 -40 -94t-94 -41q-83 -2 -117 81q-10 27 -17 72t-11 62q-82 -236 -288 -387t-463 -151t-462 150t-287 388q-4 -16 -14 -82t-43 -97q-33 -37 -88 -36t-94 40t-40 95t36 88q29 31 113 46t108 23
q-20 82 -21 181q-1 330 231 562t561 232z" />
    <glyph glyph-name="u1F603" unicode="&#x1f603;" 
d="M1025 416q231 0 409 102q-39 -135 -151 -207q-112 -71 -258 -71t-258 72t-151 206q178 -102 409 -102zM1027 502q-325 0 -511 160q2 -232 138 -376t370 -144t371 145q137 146 137 377q-180 -162 -505 -162zM1205 1098q-93 0 -93 -198t93 -198t93 198t-93 198zM843 1098
q-93 0 -93 -198t93 -198t93 198t-93 198zM1023 1458q329 0 561 -232t232 -561t-232 -563t-560 -233q-328 0 -560 232q-232 233 -232 563t230 562q232 232 561 232z" />
    <glyph glyph-name="u1F604" unicode="&#x1f604;" 
d="M1025 416q231 0 409 102q-39 -135 -151 -207q-112 -71 -258 -71t-258 72t-151 206q178 -102 409 -102zM1027 502q-325 0 -511 160q2 -232 138 -376t370 -144t371 145q137 146 137 377q-180 -162 -505 -162zM1248 973q56 0 69 -203h94q-4 143 -48 221t-114 78
q-71 0 -115 -78t-49 -221h95q12 203 68 203zM800 973q56 0 68 -203h95q-5 143 -49 221t-114 78t-114 -78q-45 -78 -49 -221h94q13 203 69 203zM1023 1458q329 0 561 -232t232 -561t-232 -563t-560 -233q-328 0 -560 232q-232 233 -232 563t230 562q232 232 561 232z" />
    <glyph glyph-name="u1F605" unicode="&#x1f605;" 
d="M1025 416q231 0 409 102q-39 -135 -151 -207q-112 -71 -258 -71t-258 72t-151 206q178 -102 409 -102zM1027 502q-325 0 -511 160q2 -232 138 -376t370 -144t371 145q137 146 137 377q-180 -162 -505 -162zM1522 836q0 22 23 57q24 35 32 53q10 -22 33 -56q22 -34 22 -56
t-15 -37q-15 -17 -40 -17t-40 16q-15 18 -15 40zM1464 827q0 -41 33 -73t80 -31q47 0 80 32q33 33 33 73t-50 109q-49 69 -57 120h-12q-7 -51 -57 -120t-50 -110zM1248 973q56 0 69 -203h94q-4 143 -48 221t-114 78q-71 0 -115 -78t-49 -221h95q12 203 68 203zM800 973
q56 0 68 -203h95q-5 143 -49 221t-114 78t-114 -78q-45 -78 -49 -221h94q13 203 69 203zM1023 1458q329 0 561 -232t232 -561t-232 -563t-560 -233q-328 0 -560 232q-232 233 -232 563t230 562q232 232 561 232z" />
    <glyph glyph-name="u1F606" unicode="&#x1f606;" 
d="M1025 274q-146 0 -258 72t-151 207q178 -102 409 -102t409 102q-39 -135 -151 -207t-258 -72zM1532 698q-180 -162 -505 -162t-511 160q2 -231 138 -375q136 -145 370 -145t370 146q138 146 138 376zM1380 975l-41 108l-249 -149v-53l249 -166l41 108l-166 80v8zM958 934
l-249 149l-41 -108l166 -64v-8l-166 -80l41 -108l249 166v53zM1023 1458q329 0 561 -232t232 -561t-232 -563t-560 -233q-328 0 -560 232q-232 233 -232 563t230 562q232 232 561 232z" />
    <glyph glyph-name="u1F607" unicode="&#x1f607;" 
d="M1024 199q180 0 317 103t170 259h-96q-47 -104 -152 -171q-105 -66 -239 -66t-239 66q-105 67 -152 171h-96q33 -156 170 -259t317 -103zM1112 838q0 -198 93 -197q93 0 93 198t-94 197q-92 0 -92 -198zM750 838q0 -198 93 -197q93 0 93 198t-92 197q-94 0 -94 -198z
M457 1487q0 -80 157 -144q184 115 408 115t412 -115q158 63 157 142q0 89 -164 153q-163 64 -403 64t-404 -64t-163 -151zM1817 664q-1 -328 -233 -562t-560 -233q-328 0 -560 232t-233 563q0 178 73 334t202 268q-172 98 -172 220t201 217t489 95t488 -95q202 -95 202 -218
t-172 -219q129 -111 202 -269t73 -333z" />
    <glyph glyph-name="u1F608" unicode="&#x1f608;" 
d="M1024 199q180 0 317 103t170 259h-96q-47 -104 -152 -171q-105 -66 -239 -66t-239 66q-105 67 -152 171h-96q33 -156 170 -259t317 -103zM1108 817q0 -193 90 -192q90 0 90 192v117l203 65l-23 88l-360 -114v-156zM760 817q0 -193 90 -192q90 0 90 192v156l-360 114
l-23 -88l203 -65v-117zM1024 -131q-328 0 -560 232t-232 557t219 554v414l299 -217q129 49 274 49t274 -49l299 217v-414q219 -232 219 -554t-232 -556t-560 -233z" />
    <glyph glyph-name="u1F609" unicode="&#x1f609;" 
d="M1024 199q180 0 317 103t170 259h-96q-47 -104 -152 -171q-105 -66 -239 -66t-239 66q-105 67 -152 171h-96q33 -156 170 -259t317 -103zM1372 950l-41 101l-215 -136v-79l215 -154l41 98l-141 94zM844 1075q-92 1 -92 -195t92 -196t92 196t-92 195zM1023 1458
q329 0 561 -232t232 -561t-232 -563t-560 -233q-328 0 -560 232q-232 233 -232 563t230 562q232 232 561 232z" />
    <glyph glyph-name="u1F60A" unicode="&#x1f60a;" 
d="M1024 350q-134 0 -239 67t-152 171h-96q33 -156 170 -259t317 -103t317 102q137 104 170 260h-96q-47 -104 -152 -171t-239 -67zM1248 973q56 0 69 -203h94q-4 143 -48 221t-114 78q-71 0 -115 -78t-49 -221h95q12 203 68 203zM800 973q56 0 68 -203h95q-5 143 -49 221
t-114 78t-114 -78q-45 -78 -49 -221h94q13 203 69 203zM1023 1458q329 0 561 -232t232 -561t-232 -563t-560 -233q-328 0 -560 232q-232 233 -232 563t230 562q232 232 561 232z" />
    <glyph glyph-name="u1F60B" unicode="&#x1f60b;" 
d="M1321 264q-51 -37 -131 74q68 25 131 76q31 -76 30 -105t-30 -45zM1024 412q-113 0 -200 56t-113 142h-105q29 -131 146 -216t272 -85q47 0 86 8q129 -193 250 -123t18 281q49 66 64 135h-105q-27 -86 -113 -142t-200 -56zM1248 973q56 0 69 -203h94q-4 143 -48 221
t-114 78q-71 0 -115 -78t-49 -221h95q12 203 68 203zM800 973q56 0 68 -203h95q-5 143 -49 221t-114 78t-114 -78q-45 -78 -49 -221h94q13 203 69 203zM1023 1458q329 0 561 -232t232 -561t-232 -563t-560 -233q-328 0 -560 232q-232 233 -232 563t230 562q232 232 561 232z
" />
    <glyph glyph-name="u1F60C" unicode="&#x1f60c;" 
d="M1024 199q180 0 317 103t170 259h-96q-47 -104 -152 -171q-105 -66 -239 -66t-239 66q-105 67 -152 171h-96q33 -156 170 -259t317 -103zM1248 784q-56 0 -68 203h-95q5 -143 49 -221t114 -78t114 78q45 78 49 221h-94q-13 -203 -69 -203zM800 784q-56 0 -69 203h-94
q4 -143 48 -221t114 -78q71 0 115 78t49 221h-95q-12 -203 -68 -203zM1023 1458q329 0 561 -232t232 -561t-232 -563t-560 -233q-328 0 -560 232q-232 233 -232 563t230 562q232 232 561 232z" />
    <glyph glyph-name="u1F60E" unicode="&#x1f60e;" 
d="M1024 199q180 0 317 103t170 259h-96q-47 -104 -152 -171q-105 -66 -239 -66t-239 66q-105 67 -152 171h-96q33 -156 170 -259t317 -103zM694 659h105q61 0 89 24t46 77l59 162h64l57 -162q20 -53 48 -77t87 -24h105q76 0 112 33t58 105l39 125h123l-54 108h-1229
l-53 -108h137l37 -125q23 -72 59 -105t111 -33zM1023 1458q329 0 561 -232t232 -561t-232 -563t-560 -233q-328 0 -560 232q-232 233 -232 563t230 562q232 232 561 232z" />
    <glyph glyph-name="u1F60F" unicode="&#x1f60f;" 
d="M1024 340v-121q188 0 333 121q144 121 179 303h-123q-33 -131 -141 -217t-248 -86zM1438 735v123h-324v-123h324zM932 735v123h-324v-123h324zM1023 1458q329 0 561 -232t232 -561t-232 -563t-560 -233q-328 0 -560 232q-232 233 -232 563t230 562q232 232 561 232z" />
    <glyph glyph-name="u1F610" unicode="&#x1f610;" 
d="M1432 358v123h-816v-123h816zM1205 1036q-93 0 -93 -198t93 -197q93 -1 93 197t-93 198zM843 1036q-93 0 -93 -198t93 -197q93 -1 93 197t-93 198zM1023 1458q329 0 561 -232t232 -561t-232 -563t-560 -233q-328 0 -560 232q-232 233 -232 563t230 562q232 232 561 232z
" />
    <glyph glyph-name="u1F611" unicode="&#x1f611;" 
d="M1432 358v123h-816v-123h816zM1438 735v123h-324v-123h324zM932 735v123h-324v-123h324zM1023 1458q329 0 561 -232t232 -561t-232 -563t-560 -233q-328 0 -560 232q-232 233 -232 563t230 562q232 232 561 232z" />
    <glyph glyph-name="u1F612" unicode="&#x1f612;" 
d="M1432 358v123h-816v-123h816zM1475 985h-414v-94h227q0 -199 93 -199t94 199v94zM946 985h-414v-94h228q0 -199 93 -199t93 199v94zM1023 1458q329 0 561 -232t232 -561t-232 -563t-560 -233q-328 0 -560 232q-232 233 -232 563t230 562q232 232 561 232z" />
    <glyph glyph-name="u1F613" unicode="&#x1f613;" 
d="M1432 248v123h-816v-123h816zM1606 582q0 -26 -20 -47t-50 -21q-31 0 -50 20q-42 45 10 116q30 42 40 69q10 -27 40 -69t30 -68zM1395 572q0 -50 41 -91t100 -41t100 40t41 91t-62 137t-71 150h-14q-10 -63 -72 -149q-62 -87 -63 -137zM1110 872q0 -195 90 -194
q90 0 90 194v58l183 -90l22 88l-385 190v-246zM938 872v246l-385 -190l22 -88l183 90v-58q0 -195 90 -194q90 0 90 194zM1023 1458q329 0 561 -232t232 -561t-232 -563t-560 -233q-328 0 -560 232q-232 233 -232 563t230 562q232 232 561 232z" />
    <glyph glyph-name="u1F614" unicode="&#x1f614;" 
d="M1432 317v123h-816v-123h816zM1249 1008q-71 0 -115 -78t-49 -221h95q12 203 69 202q55 0 68 -202h94q-4 143 -48 221t-114 78zM800 1008q-70 0 -114 -78q-45 -78 -49 -221h94q12 203 68 202q57 0 69 -202h95q-5 143 -49 221t-114 78zM1023 1458q329 0 561 -232t232 -561
t-232 -563t-560 -233q-328 0 -560 232q-232 233 -232 563t230 562q232 232 561 232z" />
    <glyph glyph-name="u1F615" unicode="&#x1f615;" 
d="M791 186q248 264 700 254l-47 129q-451 8 -701 -256zM1292 911h-196v-73q0 -125 98 -125t98 125v73zM837 1016q-81 0 -81 -174t81 -174t81 174t-81 174zM1023 1458q329 0 561 -232t232 -561t-232 -563t-560 -233q-328 0 -560 232q-232 233 -232 563t230 562
q232 232 561 232z" />
    <glyph glyph-name="u1F616" unicode="&#x1f616;" 
d="M705 496q66 0 117 -70q22 -28 46 -58q56 -70 156 -71q66 0 113 31q47 30 69 68t57 69q36 31 80 31q129 0 181 -150l98 27q-74 258 -272 260q-103 4 -159 -62q-23 -27 -45 -55q-53 -68 -124 -67q-70 0 -120 62q-22 25 -46 53q-54 63 -158 69q-199 0 -272 -260l98 -27
q51 150 181 150zM1477 926l-363 131l-47 -127l363 -131zM985 930l-45 127l-362 -131l45 -127zM1023 1458q329 0 561 -232t232 -561t-232 -563t-560 -233q-328 0 -560 232q-232 233 -232 563t230 562q232 232 561 232z" />
    <glyph glyph-name="u1F61B" unicode="&#x1f61b;" 
d="M1024 193q-59 0 -90 58t-41 200h262q-12 -141 -42 -199t-89 -59zM1430 451v102h-812v-102h173q18 -356 233 -361q213 0 233 361h173zM1205 1036q-93 0 -93 -198t93 -197q93 -1 93 197t-93 198zM843 1036q-93 0 -93 -198t93 -197q93 -1 93 197t-93 198zM1023 1458
q329 0 561 -232t232 -561t-232 -563t-560 -233q-328 0 -560 232q-232 233 -232 563t230 562q232 232 561 232z" />
    <glyph glyph-name="u1F61C" unicode="&#x1f61c;" 
d="M1024 193q-59 0 -90 58t-41 200h262q-12 -141 -42 -199t-89 -59zM1430 451v102h-812v-102h173q18 -356 233 -361q213 0 233 361h173zM1372 950l-41 101l-215 -136v-79l215 -154l41 98l-141 94zM844 1075q-92 1 -92 -195t92 -196t92 196t-92 195zM1023 1458
q329 0 561 -232t232 -561t-232 -563t-560 -233q-328 0 -560 232q-232 233 -232 563t230 562q232 232 561 232z" />
    <glyph glyph-name="u1F61D" unicode="&#x1f61d;" 
d="M1024 193q-59 0 -90 58t-41 200h262q-12 -141 -42 -199t-89 -59zM1430 451v102h-812v-102h173q18 -356 233 -361q213 0 233 361h173zM1380 940l-41 109l-249 -150v-53l249 -166l41 108l-166 80v9zM958 899l-249 150l-41 -109l166 -63v-9l-166 -80l41 -108l249 166v53z
M1023 1458q329 0 561 -232t232 -561t-232 -563t-560 -233q-328 0 -560 232q-232 233 -232 563t230 562q232 232 561 232z" />
    <glyph glyph-name="u1F61E" unicode="&#x1f61e;" 
d="M1024 432q134 0 238 -63q106 -63 153 -164h96q-33 156 -170 259t-317 103t-317 -103t-170 -259h96q47 99 152 163t239 64zM1143 846q0 -184 86 -184t88 182l78 -43v127l-297 157v-120l45 -25v-94zM819 662q86 0 86 184v94l45 25v120l-297 -157v-127l78 43q2 -182 88 -182
zM1023 1458q329 0 561 -232t232 -561t-232 -563t-560 -233q-328 0 -560 232q-232 233 -232 563t230 562q232 232 561 232z" />
    <glyph glyph-name="u1F61F" unicode="&#x1f61f;" 
d="M934 223q18 63 90 63t90 -63h64q-10 63 -52 101t-102 36q-61 0 -102 -36t-52 -101h64zM1024 453q242 0 319 -160h93q-36 117 -142 191t-270 73q-164 0 -270 -74t-142 -190h93q77 160 319 160zM1143 887q0 -184 88 -185q84 0 86 183l78 -43v127l-297 157v-120l45 -25v-94z
M905 887v94l45 25v120l-297 -157v-127l78 43q2 -182 86 -183q88 0 88 185zM1023 1458q329 0 561 -232t232 -561t-232 -563t-560 -233q-328 0 -560 232q-232 233 -232 563t230 562q232 232 561 232z" />
    <glyph glyph-name="u1F620" unicode="&#x1f620;" 
d="M1024 473q134 0 238 -63q106 -63 153 -164h96q-33 156 -170 259t-317 103t-317 -103t-170 -259h96q47 100 152 164t239 63zM1108 817q0 -193 90 -192q90 0 90 192v117l203 65l-23 88l-360 -114v-156zM760 817q0 -193 90 -192q90 0 90 192v156l-360 114l-23 -88l203 -65
v-117zM1023 1458q329 0 561 -232t232 -561t-232 -563t-560 -233q-328 0 -560 232q-232 233 -232 563t230 562q232 232 561 232z" />
    <glyph glyph-name="u1F621" unicode="&#x1f621;" 
d="M934 223q18 63 90 63t90 -63h64q-10 63 -52 101t-102 36q-61 0 -102 -36t-52 -101h64zM1024 453q242 0 319 -160h93q-36 117 -142 191t-270 73q-164 0 -270 -74t-142 -190h93q77 160 319 160zM1108 817q0 -193 90 -192q90 0 90 192v117l203 65l-23 88l-360 -114v-156z
M760 817q0 -193 90 -192q90 0 90 192v156l-360 114l-23 -88l203 -65v-117zM1023 1458q329 0 561 -232t232 -561t-232 -563t-560 -233q-328 0 -560 232q-232 233 -232 563t230 562q232 232 561 232z" />
    <glyph glyph-name="u1F622" unicode="&#x1f622;" 
d="M1024 309q119 0 210 -41t120 -104h116q-29 121 -155 201q-127 79 -291 79t-290 -80t-156 -200h116q29 63 120 104t210 41zM1321 614q-1 -29 -21 -49t-52 -20t-52 20t-20 50t29 75q30 45 42 70q12 -27 43 -72t31 -74zM1248 469q62 0 105 42q42 42 42 82t-11 69t-81 126
q96 53 104 250h-94q-12 -160 -74 -159q-61 0 -74 159h-94q10 -217 117 -258q-34 -51 -60 -88t-26 -88t42 -93t104 -42zM812 772q75 0 118 69t47 197h-94q-12 -160 -74 -159q-59 0 -74 159h-94q6 -130 51 -198t120 -68zM1023 1458q329 0 561 -232t232 -561t-232 -563
t-560 -233q-328 0 -560 232q-232 233 -232 563t230 562q232 232 561 232z" />
    <glyph glyph-name="u1F623" unicode="&#x1f623;" 
d="M1024 473q134 0 238 -63q106 -63 153 -164h96q-33 156 -170 259t-317 103t-317 -103t-170 -259h96q47 100 152 164t239 63zM1380 940l-41 109l-249 -150v-53l249 -166l41 108l-166 80v9zM958 899l-249 150l-41 -109l166 -63v-9l-166 -80l41 -108l249 166v53zM1023 1458
q329 0 561 -232t232 -561t-232 -563t-560 -233q-328 0 -560 232q-232 233 -232 563t230 562q232 232 561 232z" />
    <glyph glyph-name="u1F624" unicode="&#x1f624;" 
d="M1505 -213l-6 37q133 -8 150 -94q10 -51 -15 -86q-24 -35 -66 -42t-73 13q0 -45 -25 -75t-65 -36q-90 -14 -123 74q-16 -29 -61 -37t-80 16t-43 74q-14 82 108 142l6 -37q-66 -45 -56 -98t75 -44q23 2 35 29l30 -2q29 -73 99 -61t71 92l29 12q16 -18 44 -15t43 22t10 46
q-10 53 -87 70zM834 -264l8 37q123 -55 108 -140q-8 -51 -43 -75t-78 -17q-43 6 -63 37q-35 -90 -123 -72q-41 6 -65 36t-25 77q-27 -25 -71 -17t-68 44q-24 35 -15 86q14 82 150 94l-6 -37q-25 -6 -37 -10q-12 -3 -28 -19t-21 -42q-4 -26 11 -45t40 -23t45 16l29 -12
q2 -80 72 -92t98 61l30 2q10 -25 35 -31q63 -10 76 52q9 47 -59 90zM1067 887l27 -94l323 96l-26 92zM631 889l325 -96l27 94l-324 94zM231 664q-1 330 231 562t561 232t561 -232t233 -562q0 -214 -108 -398t-288 -291l-96 379q51 -33 86 -88h92q-47 145 -211 215l-43 172
l-41 -8l37 -145q-8 4 -63 18l-19 119l-39 -6l15 -107q-47 8 -109 8t-112 -6l14 105l-39 6l-19 -119q-35 -6 -61 -14l35 141l-41 8l-41 -168q-170 -67 -221 -219h92q33 55 96 94l-98 -389q-184 105 -294 289t-110 404zM1376 -47l45 22l68 -264l-51 -8zM1376 -47
q-51 -27 -98 -41l-78 496q25 -6 72 -25zM1026 -131q-104 0 -201 25l-32 -224l-52 11l37 227l47 -14l76 524q61 10 129 10t125 -12l76 -518l47 14l37 -231l-49 -11l-35 228q-101 -29 -205 -29zM778 -92q-63 23 -100 41l-60 -246l-51 8l68 260l43 -22l106 438q41 14 72 23z
" />
    <glyph glyph-name="u1F625" unicode="&#x1f625;" 
d="M1024 473q134 0 238 -63q106 -63 153 -164h96q-33 156 -170 259t-317 103t-317 -103t-170 -259h96q47 100 152 164t239 63zM1626 622q0 -26 -19 -46t-51 -21q-32 0 -50 20q-19 19 -19 47q-1 28 29 70t40 68q10 -27 40 -69q30 -43 30 -69zM1556 481q59 0 101 40
q41 40 41 91q0 52 -62 138t-71 149h-15q-10 -63 -72 -149t-62 -136t40 -92q41 -41 100 -41zM1436 864l-308 166l-53 -88l309 -168zM973 942l-53 88l-308 -166l52 -90zM1023 1458q329 0 561 -232t232 -561t-232 -563t-560 -233q-328 0 -560 232q-232 233 -232 563t230 562
q232 232 561 232z" />
    <glyph glyph-name="u1F626" unicode="&#x1f626;" 
d="M739 317q17 107 99 163t186 56t185 -56t100 -163h-570zM1024 645q-176 0 -286 -116t-128 -314h828q-18 199 -128 315t-286 115zM1298 948q0 198 -93 197q-93 0 -93 -198t92 -197q94 0 94 198zM936 948q0 198 -93 197q-93 0 -93 -198t94 -197q92 0 92 198zM1023 1458
q329 0 561 -232t232 -561t-232 -563t-560 -233q-328 0 -560 232q-232 233 -232 563t230 562q232 232 561 232z" />
    <glyph glyph-name="u1F627" unicode="&#x1f627;" 
d="M1024 510q125 0 218 -59t126 -177q-139 41 -344 41t-344 -41q33 116 126 176t218 60zM1024 623q-209 1 -333 -139t-126 -357q180 82 459 82q141 0 275 -22t184 -60q-2 217 -126 357t-333 139zM1110 858q0 -195 90 -194q90 0 90 194v57l183 -90l22 88l-385 191v-246z
M938 858v246l-385 -191l22 -88l183 90v-57q0 -195 90 -194q90 0 90 194zM1023 1458q329 0 561 -232t232 -561t-232 -563t-560 -233q-328 0 -560 232q-232 233 -232 563t230 562q232 232 561 232z" />
    <glyph glyph-name="u1F628" unicode="&#x1f628;" 
d="M1024 559q104 0 185 -56t100 -163h-570q17 106 99 162t186 57zM1024 668q-176 0 -286 -116t-128 -314h828q-18 198 -128 314t-286 116zM1288 946q-23 0 -37 -14t-14 -37t14 -37t37 -14t37 14t14 37t-14 37t-37 14zM760 946q-23 0 -37 -14t-14 -37t14 -37t37 -14t37 14
t14 37t-14 37t-37 14zM1287 1026q54 0 93 -38t39 -93t-39 -93t-93 -38t-93 38t-39 93t39 93t93 38zM761 1026q54 0 93 -38t39 -93t-39 -93t-93 -38t-93 38t-39 93t39 93t93 38zM1288 1102q-86 0 -146 -60t-60 -147q0 -86 60 -146q60 -61 146 -61t146 60t61 147
q-1 87 -61 147t-146 60zM760 1102q-86 0 -146 -60t-61 -147q0 -86 60 -146q61 -61 147 -61t146 60t61 147q-1 87 -61 147t-146 60zM1023 1458q329 0 561 -232t232 -561t-232 -563t-560 -233q-328 0 -560 232q-232 233 -232 563t230 562q232 232 561 232z" />
    <glyph glyph-name="u1F62E" unicode="&#x1f62e;" 
d="M1137 174q84 0 144 60t60 146t-60 145q-60 61 -144 61q-85 0 -145 -60t-60 -146q0 -85 60 -146q61 -60 145 -60zM1144 1036q-93 0 -93 -198t93 -197q93 -1 93 197t-93 198zM781 1036q-93 0 -93 -198t93 -197q93 -1 93 197t-93 198zM1023 1458q329 0 561 -232t232 -561
t-232 -563t-560 -233q-328 0 -560 232q-232 233 -232 563t230 562q232 232 561 232z" />
    <glyph glyph-name="u1F633" unicode="&#x1f633;" 
d="M756 424q0 -111 79 -190q79 -78 189 -78t188 78t78 190h-534zM1348 498q45 -76 159 -92q115 16 160 92h-319zM381 498q45 -76 160 -92q117 16 161 92h-321zM1321 598q0 -22 4 -47h365q6 18 6 42t-6 46h-363q-6 -19 -6 -41zM354 598q0 -22 4 -47h365q6 18 6 42t-6 46h-363
q-6 -19 -6 -41zM1508 778q-102 0 -160 -88h319q-57 88 -159 88zM542 778q-101 0 -159 -88h317q-57 88 -158 88zM1444 991l-307 113l-41 -115l307 -112zM909 1104l-307 -113l43 -114l307 112zM1023 1458q329 0 561 -232t232 -561t-232 -563t-560 -233q-328 0 -560 232
q-232 233 -232 563t230 562q232 232 561 232z" />
    <glyph glyph-name="f.ss01" horiz-adv-x="880" 
d="M780 1577q146 0 226 -35l-91 -252q-39 14 -112 15q-106 0 -123 -95l-25 -129h226l-50 -274h-225l-190 -1061h-330l190 1061h-145l49 274h142l28 158q31 166 132 252t298 86z" />
    <glyph glyph-name="h.ss01" horiz-adv-x="1261" 
d="M864 1106q170 0 245 -98.5t40 -270.5l-88 -450q-6 -31 9 -50.5t43 -19.5t58 6l-43 -217q-63 -27 -178 -26q-276 0 -215 278l82 387q37 168 -96 168q-109 0 -186.5 -108.5t-112.5 -305.5l-76 -399h-334l275 1540h307l-113 -637h13q127 203 370 203z" />
    <glyph glyph-name="hbar.ss01" horiz-adv-x="1261" 
d="M721 813q-109 -1 -187 -109t-112 -305l-76 -399h-334l209 1176h-135l27 157h137l37 207h307l-37 -207h156l-25 -157h-160l-47 -273h13q127 203 370 203q170 0 245 -98t40 -271l-88 -450q-6 -31 13 -55t97 -9l-43 -217q-63 -27 -178 -26q-276 0 -215 278l82 387
q37 168 -96 168z" />
    <glyph glyph-name="k.ss01" horiz-adv-x="1210" 
d="M780 639l334 -639h-387l-201 403l-114 -106l-54 -297h-333l272 1540h334l-150 -850l365 383h401z" />
    <glyph glyph-name="kcommaaccent.ss01" horiz-adv-x="1210" 
d="M391 -109h248l-170 -354h-143zM780 639l334 -639h-387l-201 403l-114 -106l-54 -297h-333l272 1540h334l-150 -850l365 383h401z" />
    <glyph glyph-name="b.sup" horiz-adv-x="944" 
d="M536 950q70 0 116 62t46 145q0 115 -94 115q-78 0 -135 -78l-33 -195q30 -49 100 -49zM712 1475q108 0 174 -70t66 -196t-40 -219q-69 -160 -224 -223q-63 -26 -121 -26q-141 0 -190 93h-6l-52 -80h-167l165 934h240l-53 -293q100 80 208 80z" />
    <glyph glyph-name="f_i" horiz-adv-x="1452" 
d="M854 1577q276 0 428 -88l-92 -260q-145 76 -305 76q-135 0 -158 -113l-22 -111h342q163 0 231 -57t43 -184l-100 -518q-13 -70 35 -70t85 22l-51 -266q-104 -35 -202 -35t-173 68q-74 68 -49 201l97 473q9 53 -9 72t-82 20h-217l-159 -899q-29 -160 -158 -265t-313 -106
q-82 0 -140 25l64 270q33 -12 85 -12t89 28t47 76l156 883h-176l49 274h172l22 136q31 164 150 262t311 98z" />
    <glyph glyph-name="f_l" horiz-adv-x="1429" 
d="M811 1577q369 0 610 -154l-223 -1101q-12 -70 37 -70t84 22l-49 -266q-109 -35 -206 -35t-171 69t-47 200l213 1034q-47 29 -205 29t-182 -113l-21 -111h246l-49 -274h-246l-151 -852q-29 -160 -158 -264t-313 -105q-82 0 -140 25l64 268q41 -10 89 -10t86 28t46 76
l145 834h-174l49 274h172l23 136q31 164 153 262t318 98z" />
    <glyph glyph-name="f_f_l.ss01" horiz-adv-x="2091" 
d="M1896 252q48 0 82 22l-49 -266q-104 -35 -203 -35t-172 68q-72 68 -47 201l211 1038q-45 25 -187 25t-167 -113l-21 -111h246l-49 -274h-246l-196 -1061h-326l191 1061h-363l-192 -1061h-326l186 1061h-137l49 274h135l23 136q31 164 151 262q121 98 316 98
q133 -2 196 -37l-104 -250q-133 33 -187 -5q-30 -19 -34 -50l-27 -154h361l22 136q31 164 152 262t313 98q191 1 323 -33t259 -145l-221 -1077q-10 -70 38 -70z" />
    <glyph glyph-name="f_f_i.ss01" horiz-adv-x="2088" 
d="M1894 252q48 0 84 22l-49 -266q-95 -35 -201 -35t-176 68t-45 201l88 456q10 59 -9 84t-75 25h-217l-186 -1061h-326l181 1061h-357l-190 -1061h-330l190 1061h-145l49 274h142l28 158q31 166 132 252t298 86q145 0 226 -35l-91 -252q-39 14 -112 15q-106 0 -123 -95
l-25 -129h355l22 136q84 360 496 360q118 0 226 -25t165 -63l-135 -266q-106 82 -252 82t-172 -129l-17 -95h340q168 -1 233 -71t28 -256l-86 -432q-12 -70 36 -70z" />
    <glyph glyph-name="f_f.ss01" horiz-adv-x="1560" 
d="M780 1577q145 0 226 -35l-91 -252q-39 14 -112 15q-106 0 -123 -95l-25 -129h361l28 158q59 338 429 338q151 0 225 -35l-90 -252q-39 14 -111 15q-109 0 -125 -95l-22 -129h225l-49 -274h-226l-190 -1061h-332l191 1061h-363l-190 -1061h-330l190 1061h-145l49 274h142
l28 158q31 166 132 252t298 86z" />
    <glyph glyph-name="f_i.ss01" horiz-adv-x="1452" 
d="M854 1577q276 0 428 -88l-92 -260q-145 76 -305 76q-135 0 -158 -113l-22 -111h342q163 0 231 -57t43 -184l-100 -518q-13 -70 35 -70t85 22l-51 -266q-104 -35 -202 -35t-173 68q-74 68 -49 201l97 473q9 53 -9 72t-82 20h-217l-190 -1061h-328l189 1061h-176l49 274
h172l22 136q31 164 150 262t311 98z" />
    <glyph glyph-name="f_l.ss01" horiz-adv-x="1429" 
d="M854 1305q-158 0 -182 -113l-21 -111h246l-49 -274h-246l-190 -1061h-328l186 1061h-174l49 274h172l23 136q31 164 153 262t318 98q369 0 610 -154l-223 -1101q-12 -70 37 -70t84 22l-49 -266q-109 -35 -206 -35t-171 69t-47 200l213 1034q-47 29 -205 29z" />
    <glyph glyph-name="a.sc" horiz-adv-x="1271" 
d="M772 420l-67 411l-211 -411h278zM809 184h-434l-94 -184h-318l635 1167h332l227 -1167h-317z" />
    <glyph glyph-name="aacute.sc" horiz-adv-x="1271" 
d="M772 420l-67 411l-211 -411h278zM930 1167l227 -1167h-317l-31 184h-434l-94 -184h-318l635 1167h332zM854 1290h-186l176 307h368z" />
    <glyph glyph-name="abreve.sc" horiz-adv-x="1271" 
d="M772 420l-67 411l-211 -411h278zM809 184h-434l-94 -184h-318l635 1167h332l227 -1167h-317zM808 1487q144 0 193 119h148q-37 -148 -139 -220t-232 -72t-208 72q-79 72 -62 220h151q5 -119 149 -119z" />
    <glyph glyph-name="acircumflex.sc" horiz-adv-x="1271" 
d="M772 420l-67 411l-211 -411h278zM809 184h-434l-94 -184h-318l635 1167h332l227 -1167h-317zM692 1313h-254l297 297h195l182 -297h-242l-71 112z" />
    <glyph glyph-name="adieresis.sc" horiz-adv-x="1271" 
d="M772 420l-67 411l-211 -411h278zM809 184h-434l-94 -184h-318l635 1167h332l227 -1167h-317zM1143 1444q-23 -133 -157 -133q-62 0 -100 41t-24 118q25 137 158 138q66 0 102 -41t21 -123zM733 1444q-23 -133 -159 -133q-62 0 -100 41t-23 118q23 137 157 138
q66 0 103 -41t22 -123z" />
    <glyph glyph-name="agrave.sc" horiz-adv-x="1271" 
d="M772 420l-67 411l-211 -411h278zM809 184h-434l-94 -184h-318l635 1167h332l227 -1167h-317zM725 1321l-252 307h369l69 -307h-186z" />
    <glyph glyph-name="amacron.sc" horiz-adv-x="1271" 
d="M772 420l-67 411l-211 -411h278zM809 184h-434l-94 -184h-318l635 1167h332l227 -1167h-317zM1083 1364h-591l28 158h590z" />
    <glyph glyph-name="aogonek.sc" horiz-adv-x="1271" 
d="M772 420l-67 411l-211 -411h278zM799 -193q0 -78 110 -92l-80 -180q-258 27 -258 215q-1 82 59 148t204 145l-25 141h-434l-94 -184h-318l635 1167h332l227 -1167h-221q-137 -104 -137 -193z" />
    <glyph glyph-name="aring.sc" horiz-adv-x="1271" 
d="M772 420l-67 411l-211 -411h278zM809 184h-434l-94 -184h-318l635 1167h332l227 -1167h-317zM801 1384q35 0 59 22t27 52q4 30 -11 52q-14 22 -50 22t-58 -22t-27 -52q-3 -30 11 -52t49 -22zM782 1282q-86 0 -127 50t-28 126q14 76 73 126q58 50 144 50t128 -50t28 -126
t-72 -126q-60 -50 -146 -50z" />
    <glyph glyph-name="atilde.sc" horiz-adv-x="1271" 
d="M772 420l-67 411l-211 -411h278zM930 1167l227 -1167h-317l-31 184h-434l-94 -184h-318l635 1167h332zM918 1325q-70 0 -142 39t-104 39q-70 0 -119 -96l-145 88q41 106 112 157q133 94 278 11q71 -41 93 -41q58 0 117 104l161 -76q-45 -104 -112 -165q-69 -60 -139 -60z
" />
    <glyph glyph-name="ae.sc" horiz-adv-x="1728" 
d="M821 455l70 417l-270 -417h200zM1237 901l-29 -172h400l-45 -266h-402l-33 -197h471l-47 -266h-807l33 186h-332l-120 -186h-363l825 1167h969l-49 -266h-471z" />
    <glyph glyph-name="b.sc" horiz-adv-x="1177" 
d="M555 246q88 0 129 37t41 116q0 90 -121 90h-153l-43 -243h147zM770 821q0 84 -102 84h-146l-39 -221h146q69 2 105 38t36 99zM748 1167q358 0 358 -243q0 -100 -55 -188t-162 -136q184 -45 184 -224q0 -180 -134 -278t-349 -98h-543l205 1167h496z" />
    <glyph glyph-name="c.sc" horiz-adv-x="1136" 
d="M76 463.5q0 234.5 102.5 402.5t262 247t352.5 79q236 0 374 -127l-180 -223q-82 63 -218.5 63t-234.5 -99t-98 -292q0 -125 65.5 -190.5t183.5 -65.5t241 74l92 -221q-170 -135 -438 -136q-225 0 -364.5 127t-139.5 361.5z" />
    <glyph glyph-name="cacute.sc" horiz-adv-x="1136" 
d="M76 464q0 234 102 402t262 247t353 79q236 0 374 -127l-180 -223q-83 63 -219 63t-234 -99t-98 -292q0 -124 66 -190t184 -66t240 74l92 -221q-170 -135 -438 -136q-225 0 -365 127q-139 128 -139 362zM977 1288h-186l176 309h368z" />
    <glyph glyph-name="ccaron.sc" horiz-adv-x="1136" 
d="M768 905q-136 0 -234 -99t-98 -292q0 -124 66 -190t184 -66t240 74l92 -221q-170 -135 -438 -136q-225 0 -365 127q-139 128 -139 362t102 402t262 247t374 79t353 -127l-180 -223q-83 63 -219 63zM803 1311l-193 295h252l68 -117l112 117h242l-285 -295h-196z" />
    <glyph glyph-name="ccedilla.sc" horiz-adv-x="1136" 
d="M733 -227q0 -97 -87 -179t-245 -94l-32 133q98 18 130 44q31 26 31 60t-30 34q-18 0 -41 -15l-90 94l90 136q-176 33 -280 155q-103 123 -103 340t102 385t262 247t353 79q236 0 374 -127l-180 -223q-83 63 -219 63t-234 -99t-98 -292q0 -124 66 -190t184 -66t240 74
l92 -221q-154 -127 -412 -136l-57 -81l43 2q70 0 106 -34t35 -89z" />
    <glyph glyph-name="cdotaccent.sc" horiz-adv-x="1136" 
d="M76 464q0 234 102 402t262 247t353 79q236 0 374 -127l-180 -223q-83 63 -219 63t-234 -99t-98 -292q0 -124 66 -190t184 -66t240 74l92 -221q-170 -135 -438 -136q-225 0 -365 127q-139 128 -139 362zM902 1305q-68 0 -108 40q-40 39 -27 117t67 119t124 41t111 -40
t27 -119t-70 -119t-124 -39z" />
    <glyph glyph-name="d.sc" horiz-adv-x="1292" 
d="M535 266q176 0 265 105.5t89 294.5q0 231 -244 231h-108l-111 -631h109zM719 1167q238 0 376 -114.5t138 -341.5q0 -344 -198.5 -527.5t-522.5 -183.5h-467l207 1167h467z" />
    <glyph glyph-name="eth.sc" horiz-adv-x="1292" 
d="M535 266q176 0 265 106t89 294q0 231 -244 231h-108l-37 -209h186l-35 -201h-186l-39 -221h109zM719 1167q238 -1 376 -115t138 -341q0 -343 -199 -527t-522 -184h-467l86 487h-174l35 201h176l84 479h467z" />
    <glyph glyph-name="dcaron.sc" horiz-adv-x="1292" 
d="M535 266q176 0 265 106t89 294q0 231 -244 231h-108l-111 -631h109zM719 1167q238 -1 376 -115t138 -341q0 -343 -199 -527t-522 -184h-467l207 1167h467zM645 1313l-192 295h252l69 -117l113 117h239l-284 -295h-197z" />
    <glyph glyph-name="dcroat.sc" horiz-adv-x="1292" 
d="M535 266q176 0 265 106t89 294q0 231 -244 231h-108l-111 -631h109zM719 1167q238 -1 376 -115t138 -341q0 -343 -199 -527t-522 -184h-467l207 1167h467zM1049 1364h-592l28 158h590z" />
    <glyph glyph-name="e.sc" horiz-adv-x="1046" 
d="M1026 901h-489l-31 -178h422l-47 -268h-422l-31 -189h490l-48 -266h-823l205 1167h823z" />
    <glyph glyph-name="eacute.sc" horiz-adv-x="1046" 
d="M1026 901h-489l-31 -178h422l-47 -268h-422l-31 -189h490l-48 -266h-823l205 1167h823zM741 1290h-186l176 307h371z" />
    <glyph glyph-name="ebreve.sc" horiz-adv-x="1046" 
d="M1026 901h-489l-31 -178h422l-47 -268h-422l-31 -189h490l-48 -266h-823l205 1167h823zM696 1487q144 0 193 119h147q-37 -148 -139 -220t-231 -72t-208 72t-63 220h152q5 -119 149 -119z" />
    <glyph glyph-name="ecaron.sc" horiz-adv-x="1046" 
d="M537 901l-31 -178h422l-47 -268h-422l-31 -189h490l-48 -266h-823l205 1167h823l-49 -266h-489zM567 1313l-192 293h252l69 -115l113 115h240l-285 -293h-197z" />
    <glyph glyph-name="ecircumflex.sc" horiz-adv-x="1046" 
d="M537 901l-31 -178h422l-47 -268h-422l-31 -189h490l-48 -266h-823l205 1167h823l-49 -266h-489zM580 1313h-254l297 297h194l182 -297h-241l-72 112z" />
    <glyph glyph-name="edieresis.sc" horiz-adv-x="1046" 
d="M1026 901h-489l-31 -178h422l-47 -268h-422l-31 -189h490l-48 -266h-823l205 1167h823zM907 1608q66 0 102 -41q37 -41 23 -116q-26 -142 -151 -140q-70 0 -108 41t-23 118q24 138 157 138zM496 1608q66 0 102 -41t24 -116q-14 -75 -56 -108t-104 -33t-101 42
q-38 41 -23 118q25 138 158 138z" />
    <glyph glyph-name="edotaccent.sc" horiz-adv-x="1046" 
d="M1026 901h-489l-31 -178h422l-47 -268h-422l-31 -189h490l-48 -266h-823l205 1167h823zM724 1622q69 0 110 -39q42 -39 28 -119t-69 -118t-125 -39q-70 0 -110 40q-40 41 -26 119t68 117t124 39z" />
    <glyph glyph-name="egrave.sc" horiz-adv-x="1046" 
d="M1026 901h-489l-31 -178h422l-47 -268h-422l-31 -189h490l-48 -266h-823l205 1167h823zM799 1321h-187l-252 307h369z" />
    <glyph glyph-name="emacron.sc" horiz-adv-x="1046" 
d="M1026 901h-489l-31 -178h422l-47 -268h-422l-31 -189h490l-48 -266h-823l205 1167h823zM971 1364h-592l29 158h589z" />
    <glyph glyph-name="eogonek.sc" horiz-adv-x="1046" 
d="M662 -193q0 -76 110 -90l-80 -182q-258 31 -258 217q0 70 42 127t142 121h-571l205 1167h823l-49 -266h-489l-31 -178h422l-47 -268h-422l-31 -189h490l-48 -266h-73q-135 -104 -135 -193z" />
    <glyph glyph-name="f.sc" horiz-adv-x="1003" 
d="M1010 901h-490l-43 -266h428l-49 -266h-428l-63 -369h-318l205 1167h807z" />
    <glyph glyph-name="g.sc" horiz-adv-x="1220" 
d="M567 -27q-225 0 -358 121t-133 369.5t101.5 412.5t261 240t375 76t386.5 -119l-186 -246q-98 76 -258 76t-254 -103.5t-94 -281.5q0 -256 221 -256q119 0 190 57l25 146h-234l41 227h525l-89 -495q-76 -98 -212 -161t-308 -63z" />
    <glyph glyph-name="gbreve.sc" horiz-adv-x="1220" 
d="M76 464q0 248 101 412t261 240t376 76t386 -119l-186 -246q-98 76 -258 76t-254 -103t-94 -282q0 -256 221 -256q119 0 190 57l25 146h-234l41 227h525l-89 -495q-75 -99 -211 -161t-309 -63q-225 0 -358 121q-133 122 -133 370zM838 1485q146 0 192 121h148
q-38 -150 -140 -222t-231 -72t-208 72t-62 222h151q4 -121 150 -121z" />
    <glyph glyph-name="gcommaaccent.sc" horiz-adv-x="1220" 
d="M578 -471h-144l66 356h248zM76 464q0 248 101 412t261 240t376 76t386 -119l-186 -246q-98 76 -258 76t-254 -103t-94 -282q0 -256 221 -256q119 0 190 57l25 146h-234l41 227h525l-89 -495q-75 -99 -211 -161t-309 -63q-225 0 -358 121q-133 122 -133 370z" />
    <glyph glyph-name="gdotaccent.sc" horiz-adv-x="1220" 
d="M76 464q0 248 101 412t261 240t376 76t386 -119l-186 -246q-98 76 -258 76t-254 -103t-94 -282q0 -256 221 -256q119 0 190 57l25 146h-234l41 227h525l-89 -495q-75 -99 -211 -161t-309 -63q-225 0 -358 121q-133 122 -133 370zM865 1622q69 0 110 -40t27 -119t-68 -119
q-55 -40 -124 -39q-69 0 -110 40q-40 41 -26 119t68 118t123 40z" />
    <glyph glyph-name="h.sc" horiz-adv-x="1378" 
d="M1348 1167l-205 -1167h-344l75 434h-417l-76 -434h-334l205 1167h334l-80 -452h418l80 452h344z" />
    <glyph glyph-name="hbar.sc" horiz-adv-x="1349" 
d="M946 831h-416l-20 -116h418zM1436 831h-144l-145 -831h-346l76 434h-416l-76 -434h-334l146 831h-33l29 173h34l29 163h334l-29 -163h416l29 163h346l-29 -163h141z" />
    <glyph glyph-name="dotlessi.sc" horiz-adv-x="600" 
d="M365 0h-318l205 1167h317z" />
    <glyph glyph-name="iacute.sc" horiz-adv-x="600" 
d="M365 0h-318l205 1167h317zM508 1292h-186l176 307h368z" />
    <glyph glyph-name="icircumflex.sc" horiz-adv-x="600" 
d="M252 1167h317l-204 -1167h-318zM344 1315h-252l297 297h193l184 -297h-244l-69 112z" />
    <glyph glyph-name="idieresis.sc" horiz-adv-x="600" 
d="M365 0h-318l205 1167h317zM674 1610q66 0 102 -41t22 -116t-56 -107t-104 -33q-62 0 -98 41q-38 41 -24 119q23 137 158 137zM262 1610q66 0 102 -41t24 -117q-23 -139 -155 -139q-69 0 -107 41t-24 119q25 137 160 137z" />
    <glyph glyph-name="igrave.sc" horiz-adv-x="600" 
d="M365 0h-318l205 1167h317zM565 1321h-186l-254 309h371z" />
    <glyph glyph-name="imacron.sc" horiz-adv-x="600" 
d="M365 0h-318l205 1167h317zM735 1366h-590l27 158h592z" />
    <glyph glyph-name="iogonek.sc" horiz-adv-x="600" 
d="M145 -170q0 -78 109 -92l-78 -180q-260 27 -260 215q0 123 154 227h-23l205 1167h317l-204 -1167h-111q-109 -92 -109 -170z" />
    <glyph glyph-name="j.sc" horiz-adv-x="827" 
d="M163 258q158 0 185 156l131 751h318l-140 -800q-72 -403 -512 -404q-150 0 -233 41l111 274q61 -18 140 -18z" />
    <glyph glyph-name="k.sc" horiz-adv-x="1259" 
d="M764 629l399 -629h-387l-250 410l-90 -82l-57 -328h-334l207 1167h334l-78 -440l444 440h400z" />
    <glyph glyph-name="kcommaaccent.sc" horiz-adv-x="1259" 
d="M440 -109h250l-172 -354h-143zM764 629l399 -629h-387l-250 410l-90 -82l-57 -328h-334l207 1167h334l-78 -440l444 440h400z" />
    <glyph glyph-name="l.sc" horiz-adv-x="997" 
d="M416 285h497l-49 -285h-817l205 1167h319z" />
    <glyph glyph-name="lacute.sc" horiz-adv-x="997" 
d="M416 285h497l-49 -285h-817l205 1167h319zM520 1290h-186l176 307h369z" />
    <glyph glyph-name="lcaron.sc" horiz-adv-x="1067" 
d="M938 799h-143l65 354h250zM416 285h497l-49 -285h-817l205 1167h319z" />
    <glyph glyph-name="lcommaaccent.sc" horiz-adv-x="997" 
d="M424 -463h-143l65 354h250zM416 285h497l-49 -285h-817l205 1167h319z" />
    <glyph glyph-name="ldot.sc" horiz-adv-x="997" 
d="M761 532q-69 0 -115 50t-32 131q14 79 65 117t119 38t114 -50q44 -50 31 -131t-63 -118t-119 -37zM416 285h497l-49 -285h-817l205 1167h319z" />
    <glyph glyph-name="lslash.sc" horiz-adv-x="1185" 
d="M1032 285l-49 -285h-817l90 512l-162 -45l39 195l158 45l80 460h319l-63 -366l174 49l-39 -195l-170 -49l-57 -321h497z" />
    <glyph glyph-name="m.sc" horiz-adv-x="1601" 
d="M1571 1167l-205 -1167h-317l94 541l-344 -475h-162l-178 485l-94 -551h-318l205 1167h289l254 -723l489 723h287z" />
    <glyph glyph-name="n.sc" horiz-adv-x="1353" 
d="M1321 1167l-205 -1167h-270l-375 633l-106 -633h-318l205 1167h270l367 -659l115 659h317z" />
    <glyph glyph-name="nacute.sc" horiz-adv-x="1353" 
d="M1321 1167l-205 -1167h-270l-375 633l-106 -633h-318l205 1167h270l367 -659l115 659h317zM868 1290h-186l176 307h369z" />
    <glyph glyph-name="ncaron.sc" horiz-adv-x="1353" 
d="M1321 1167l-205 -1167h-270l-375 633l-106 -633h-318l205 1167h270l367 -659l115 659h317zM694 1313l-192 293h252l69 -115l113 115h240l-285 -293h-197z" />
    <glyph glyph-name="ncommaaccent.sc" horiz-adv-x="1353" 
d="M516 -109h248l-170 -354h-143zM1321 1167l-205 -1167h-270l-375 633l-106 -633h-318l205 1167h270l367 -659l115 659h317z" />
    <glyph glyph-name="eng.sc" horiz-adv-x="1351" 
d="M621 -479q-174 0 -259 39l107 276q63 -18 142 -18q157 0 186 155l14 82l-340 578l-106 -633h-318l205 1167h270l367 -659l115 659h317l-215 -1243q-72 -403 -485 -403z" />
    <glyph glyph-name="ntilde.sc" horiz-adv-x="1353" 
d="M1321 1167l-205 -1167h-270l-375 633l-106 -633h-318l205 1167h270l367 -659l115 659h317zM934 1325q-69 0 -141 39t-107 39q-72 0 -119 -96l-145 88q41 106 113 157q134 95 277 11q71 -41 93 -41q58 0 117 104l162 -76q-45 -104 -113 -164t-137 -61z" />
    <glyph glyph-name="o.sc" horiz-adv-x="1384" 
d="M754 885q-141 0 -235.5 -97.5t-94.5 -263.5q0 -115 61.5 -179t163.5 -64q139 0 236.5 100t97.5 266q0 115 -62.5 176.5t-166.5 61.5zM807 1192q215 0 367.5 -130t152.5 -374q0 -174 -67.5 -315.5t-175.5 -226.5q-221 -173 -488 -173q-221 0 -370.5 129t-149.5 371
q0 177 64 319q62 142 168 227q214 173 499 173z" />
    <glyph glyph-name="oacute.sc" horiz-adv-x="1384" 
d="M754 885q-142 1 -236 -97t-94 -264q0 -116 61 -180t164 -63q139 0 237 100q97 100 97 266q-1 115 -63 177t-166 61zM807 1192q215 0 368 -130t152 -374q1 -174 -67 -315q-122 -254 -411 -356q-126 -44 -253 -44q-221 0 -371 129t-149 371q0 177 63 319q114 257 403 356
q128 44 265 44zM903 1286h-188l178 309h369z" />
    <glyph glyph-name="ocircumflex.sc" horiz-adv-x="1384" 
d="M649 281q139 0 237 100q97 100 97 266q0 115 -62 176t-185 61q-124 0 -218 -96q-94 -98 -94 -264q0 -115 62 -179t163 -64zM807 1192q215 0 368 -130t152 -374q1 -174 -67 -315q-122 -254 -411 -356q-126 -44 -253 -44q-221 0 -371 129t-149 371q0 177 63 319
q114 257 403 356q128 44 265 44zM739 1309h-252l297 297h193l184 -297h-243l-72 112z" />
    <glyph glyph-name="odieresis.sc" horiz-adv-x="1384" 
d="M754 885q-142 1 -236 -97t-94 -264q0 -116 61 -180t164 -63q139 0 237 100q97 100 97 266q-1 115 -63 177t-166 61zM807 1192q215 0 368 -130t152 -374q1 -174 -67 -315q-122 -254 -411 -356q-126 -44 -253 -44q-221 0 -371 129t-149 371q0 177 63 319q114 257 403 356
q128 44 265 44zM1069 1606q65 0 101 -41t23 -116t-55 -109t-104 -34t-100 43q-38 42 -25 119q25 138 160 138zM657 1606q66 0 102 -41q37 -41 23 -117t-56 -109t-104 -33t-100 43q-39 42 -24 119q24 138 159 138z" />
    <glyph glyph-name="ograve.sc" horiz-adv-x="1384" 
d="M754 885q-142 1 -236 -97t-94 -264q0 -116 61 -180t164 -63q139 0 237 100q97 100 97 266q-1 115 -63 177t-166 61zM807 1192q215 0 368 -130t152 -374q1 -174 -67 -315q-122 -254 -411 -356q-126 -44 -253 -44q-221 0 -371 129t-149 371q0 177 63 319q114 257 403 356
q128 44 265 44zM961 1317h-187l-254 307h371z" />
    <glyph glyph-name="ohungarumlaut.sc" horiz-adv-x="1384" 
d="M754 885q-142 1 -236 -97t-94 -264q0 -116 61 -180t164 -63q139 0 237 100q97 100 97 266q-1 115 -63 177t-166 61zM807 1192q215 0 368 -130t152 -374q1 -174 -67 -315q-122 -254 -411 -356q-126 -44 -253 -44q-221 0 -371 129t-149 371q0 177 63 319q114 257 403 356
q128 44 265 44zM1081 1317h-211l205 307h301zM713 1317h-185l119 307h285z" />
    <glyph glyph-name="omacron.sc" horiz-adv-x="1384" 
d="M754 885q-142 1 -236 -97t-94 -264q0 -116 61 -180t164 -63q139 0 237 100q97 100 97 266q-1 115 -63 177t-166 61zM807 1192q215 0 368 -130t152 -374q1 -174 -67 -315q-122 -254 -411 -356q-126 -44 -253 -44q-221 0 -371 129t-149 371q0 177 63 319q114 257 403 356
q128 44 265 44zM1130 1360h-589l26 158h592z" />
    <glyph glyph-name="oslash.sc" horiz-adv-x="1384" 
d="M983 647q0 88 -43 152l-319 -516l28 -2q139 0 236.5 100t97.5 266zM424 524q0 -96 45 -159l326 518l-41 2q-141 0 -235.5 -97.5t-94.5 -263.5zM1327 688q0 -174 -67.5 -315.5t-175.5 -226.5q-221 -173 -488 -173q-80 0 -154 19l-129 -211l-166 74l132 206
q-203 133 -203 412q0 177 64 319q62 142 168 227q215 173 499 173q84 0 168 -23l137 215l154 -59l-140 -225q201 -135 201 -412z" />
    <glyph glyph-name="otilde.sc" horiz-adv-x="1384" 
d="M754 885q-142 1 -236 -97t-94 -264q0 -116 61 -180t164 -63q139 0 237 100q97 100 97 266q-1 115 -63 177t-166 61zM807 1192q215 0 368 -130t152 -374q1 -174 -67 -315q-122 -254 -411 -356q-126 -44 -253 -44q-221 0 -371 129t-149 371q0 177 63 319q114 257 403 356
q128 44 265 44zM956 1321q-59 0 -131 39t-106 39q-74 0 -117 -96l-147 90q43 106 114 157q135 95 277 11q70 -41 92 -41q62 0 117 102l164 -74q-98 -227 -263 -227z" />
    <glyph glyph-name="oe.sc" horiz-adv-x="1585" 
d="M754 901q-147 0 -250 -105.5t-103 -273.5q0 -119 64.5 -188.5t177.5 -69.5h53l111 637h-53zM643 0q-252 0 -409.5 118t-157.5 361q0 175 64 311t174 216q222 162 532 161h768l-45 -266h-445l-30 -176h376l-47 -268h-376l-35 -191h444l-47 -266h-766z" />
    <glyph glyph-name="p.sc" horiz-adv-x="1150" 
d="M596 590q90 0 144 50t54 122q1 138 -143 139h-131l-53 -311h129zM717 1167q209 0 306 -93t97 -247q0 -225 -156 -365t-405 -140h-139l-58 -322h-317l207 1167h465z" />
    <glyph glyph-name="thorn.sc" horiz-adv-x="1114" 
d="M631 436q78 0 128 42t62 116t-23 114q-36 40 -114 40h-98l-51 -312h96zM750 1014q242 0 334 -116t60 -306t-182 -306t-364 -116h-113l-28 -170h-318l205 1167h318l-27 -153h115z" />
    <glyph glyph-name="q.sc" horiz-adv-x="1437" 
d="M424 524q0 -116 61 -180t164 -63q139 0 237 100q97 100 97 266q0 115 -62 176t-185 61q-124 0 -218 -96q-94 -98 -94 -264zM596 -27q-221 0 -371 129t-149 371q0 177 63 319q114 257 403 356q128 44 265 44q215 0 368 -130t153 -362t-101 -389q-100 -158 -266 -245
l280 -185l-233 -225l-340 321q-49 -4 -72 -4z" />
    <glyph glyph-name="r.sc" horiz-adv-x="1224" 
d="M641 610q86 0 136 48.5t50 125.5q0 117 -135 117h-155l-52 -291h156zM756 1167q219 0 318.5 -89t99.5 -237.5t-73 -263t-196 -176.5l178 -401h-376l-121 342h-148l-59 -342h-334l207 1167h504z" />
    <glyph glyph-name="racute.sc" horiz-adv-x="1224" 
d="M641 610q86 0 136 48t50 126q0 117 -135 117h-155l-52 -291h156zM756 1167q219 0 318 -89q100 -90 100 -238t-73 -262t-196 -177l178 -401h-376l-121 342h-148l-59 -342h-334l207 1167h504zM815 1290h-188l178 307h369z" />
    <glyph glyph-name="rcaron.sc" horiz-adv-x="1224" 
d="M641 610q86 0 136 48t50 126q0 117 -135 117h-155l-52 -291h156zM756 1167q219 0 318 -89q100 -90 100 -238t-73 -262t-196 -177l178 -401h-376l-121 342h-148l-59 -342h-334l207 1167h504zM639 1313l-190 293h251l68 -115l113 115h241l-284 -293h-199z" />
    <glyph glyph-name="rcommaaccent.sc" horiz-adv-x="1224" 
d="M301 -109h250l-172 -354h-143zM641 610q86 0 136 48t50 126q0 117 -135 117h-155l-52 -291h156zM756 1167q219 0 318 -89q100 -90 100 -238t-73 -262t-196 -177l178 -401h-376l-121 342h-148l-59 -342h-334l207 1167h504z" />
    <glyph glyph-name="s.sc" horiz-adv-x="1046" 
d="M436 258q184 0 185 107q0 34 -34 50q-34 17 -96.5 39.5t-95.5 34.5q-123 47 -183 112t-60 167q0 197 145 310.5t362 113.5q123 0 225.5 -35t153.5 -86l-168 -227q-102 88 -247 88q-70 0 -108 -27.5t-38 -72.5t42 -65t100 -39q203 -65 268 -131.5t65 -172.5
q0 -211 -156.5 -331t-392 -120t-393.5 109l133 254q143 -78 293 -78z" />
    <glyph glyph-name="sacute.sc" horiz-adv-x="1046" 
d="M436 258q184 0 185 107q0 32 -32 48q-31 17 -53 25l-65 24q-43 15 -76 27q-123 47 -183 112t-60 167q0 196 145 310t362 114q123 0 225 -35t154 -86l-168 -227q-102 88 -247 88q-70 0 -108 -28t-38 -72t34 -61q48 -24 123 -48q188 -60 253 -126t65 -173q0 -211 -156 -331
t-392 -120t-394 109l133 254q143 -78 293 -78zM754 1278h-187l176 307h369z" />
    <glyph glyph-name="scaron.sc" horiz-adv-x="1046" 
d="M623 932q-70 0 -108 -28t-38 -72t34 -61q48 -24 123 -48q188 -60 253 -126t65 -173q0 -211 -156 -331t-393 -120q-236 0 -393 109l133 254q143 -78 293 -78q184 0 185 107q0 32 -32 48q-31 17 -53 25l-65 24q-43 15 -76 27q-123 47 -183 112t-60 167q0 196 145 310
t362 114q123 0 225 -35t154 -86l-168 -227q-102 88 -247 88zM580 1298l-193 295h252l68 -114l112 114h242l-285 -295h-196z" />
    <glyph glyph-name="scedilla.sc" horiz-adv-x="1046" 
d="M623 932q-70 0 -108 -28t-38 -72t34 -61q48 -24 123 -48q188 -60 253 -126t65 -173q0 -186 -125 -302t-321 -142l-57 -82q33 4 43 4q70 0 106 -35t35 -90q0 -96 -87 -177t-245 -96l-33 136q162 29 162 104q0 31 -31 31q-16 0 -41 -13l-90 93l80 120q-203 14 -338 107
l133 254q143 -78 293 -78q184 0 185 107q0 32 -32 48q-31 17 -53 25l-65 24q-43 15 -76 27q-123 47 -183 112t-60 167q0 196 145 310t362 114q123 0 225 -35t154 -86l-168 -227q-102 88 -247 88z" />
    <glyph glyph-name="scommaaccent.sc" horiz-adv-x="1046" 
d="M375 -463h-144l66 354h250zM436 258q184 0 185 107q0 32 -32 48q-31 17 -53 25l-65 24q-43 15 -76 27q-123 47 -183 112t-60 167q0 196 145 310t362 114q123 0 225 -35t154 -86l-168 -227q-102 88 -247 88q-70 0 -108 -28t-38 -72t34 -61q48 -24 123 -48
q188 -60 253 -126t65 -173q0 -211 -156 -331t-392 -120t-394 109l133 254q143 -78 293 -78z" />
    <glyph glyph-name="germandbls.sc" horiz-adv-x="1234" 
d="M1128 382q0 -185 -130 -296t-324 -111q-133 0 -207 29l86 264q57 -22 117 -22t100 39q39 39 39 94q0 102 -197 110l27 150l156 147q8 51 -24 84q-31 33 -99 33t-118 -48t-65 -130l-127 -725h-317l133 760q39 219 197 325q157 107 357 107t304 -104t70 -293l-193 -181
q215 -47 215 -232z" />
    <glyph glyph-name="t.sc" horiz-adv-x="1110" 
d="M1110 885h-328l-153 -885h-320l154 885h-328l51 282h977z" />
    <glyph glyph-name="tbar.sc" horiz-adv-x="1110" 
d="M1110 885h-328l-153 -885h-320l154 885h-328l51 282h977zM991 1364h-592l29 158h590z" />
    <glyph glyph-name="tcaron.sc" horiz-adv-x="1110" 
d="M1110 885h-328l-153 -885h-320l154 885h-328l51 282h977zM588 1311l-193 295h252l70 -115l112 115h240l-285 -295h-196z" />
    <glyph glyph-name="tcedilla.sc" horiz-adv-x="1110" 
d="M563 -98q70 0 106 -35t36 -90q1 -96 -87 -177t-245 -96l-33 136q98 18 130 44t32 58t-31 33q-16 0 -41 -13l-90 93l96 145h-127l154 885h-328l51 282h977l-53 -282h-328l-153 -885h-39l-68 -102q29 4 41 4z" />
    <glyph glyph-name="uni021B.sc" horiz-adv-x="1110" 
d="M369 -109h249l-172 -354h-143zM1110 885h-328l-153 -885h-320l154 885h-328l51 282h977z" />
    <glyph glyph-name="u.sc" horiz-adv-x="1288" 
d="M546 -25q-220 0 -339 129t-78 365l123 698h319l-127 -716q-14 -84 26 -132.5t129 -48.5t145.5 49.5t70.5 131.5l127 716h320l-125 -698q-39 -236 -205 -365t-386 -129z" />
    <glyph glyph-name="uacute.sc" horiz-adv-x="1288" 
d="M546 -25q-220 0 -339 129t-78 365l123 698h319l-127 -716q-14 -85 26 -133t129 -48t145 49t71 132l127 716h320l-125 -698q-39 -236 -205 -365t-386 -129zM844 1290h-189l176 307h371z" />
    <glyph glyph-name="ucircumflex.sc" horiz-adv-x="1288" 
d="M546 -25q-220 0 -339 129t-78 365l123 698h319l-127 -716q-14 -85 26 -133t129 -48t145 49t71 132l127 716h320l-125 -698q-39 -236 -205 -365t-386 -129zM680 1313h-254l297 297h195l182 -297h-242l-72 112z" />
    <glyph glyph-name="udieresis.sc" horiz-adv-x="1288" 
d="M546 -25q-220 0 -339 129t-78 365l123 698h319l-127 -716q-14 -85 26 -133t129 -48t145 49t71 132l127 716h320l-125 -698q-39 -236 -205 -365t-386 -129zM1008 1608q66 0 102 -41t22 -116q-26 -142 -151 -140q-70 0 -108 41t-23 118q25 138 158 138zM596 1608
q66 0 102 -41t24 -116q-13 -75 -55 -108t-105 -33q-62 0 -100 42q-38 41 -24 118q25 138 158 138z" />
    <glyph glyph-name="ugrave.sc" horiz-adv-x="1288" 
d="M546 -25q-220 0 -339 129t-78 365l123 698h319l-127 -716q-14 -85 26 -133t129 -48t145 49t71 132l127 716h320l-125 -698q-39 -236 -205 -365t-386 -129zM899 1321h-186l-252 307h368z" />
    <glyph glyph-name="uhungarumlaut.sc" horiz-adv-x="1288" 
d="M546 -25q-220 0 -339 129t-78 365l123 698h319l-127 -716q-14 -85 26 -133t129 -48t145 49t71 132l127 716h320l-125 -698q-39 -236 -205 -365t-386 -129zM1022 1321h-211l203 307h301zM651 1321h-184l119 307h286z" />
    <glyph glyph-name="umacron.sc" horiz-adv-x="1288" 
d="M546 -25q-220 0 -339 129t-78 365l123 698h319l-127 -716q-14 -85 26 -133t129 -48t145 49t71 132l127 716h320l-125 -698q-39 -236 -205 -365t-386 -129zM1071 1364h-592l29 158h590z" />
    <glyph glyph-name="uogonek.sc" horiz-adv-x="1288" 
d="M307 -227q0 115 131 211q-172 32 -258 156t-51 329l123 698h319l-127 -716q-14 -85 26 -133t129 -48t145 49t71 132l127 716h320l-125 -698q-37 -215 -179 -342t-340 -147q-84 -82 -83 -150q0 -78 108 -92l-78 -180q-258 27 -258 215z" />
    <glyph glyph-name="uring.sc" horiz-adv-x="1288" 
d="M546 -25q-220 0 -339 129t-78 365l123 698h319l-127 -716q-14 -85 26 -133t129 -48t145 49t71 132l127 716h320l-125 -698q-39 -236 -205 -365t-386 -129zM788 1384q35 0 59 22t27 52q10 74 -60 74q-36 0 -58 -22t-27 -52q-4 -30 10 -52t49 -22zM833 1634q85 0 127 -50
t28 -126q-12 -76 -72 -126t-145 -50t-127 50t-30 126q14 76 74 126t145 50z" />
    <glyph glyph-name="v.sc" horiz-adv-x="1216" 
d="M1331 1167l-663 -1167h-342l-220 1167h361l108 -788l416 788h340z" />
    <glyph glyph-name="w.sc" horiz-adv-x="1726" 
d="M1817 1167l-572 -1171h-254l-110 692l-355 -692h-252l-157 1171h344l57 -696l336 690h238l98 -678l305 684h322z" />
    <glyph glyph-name="wacute.sc" horiz-adv-x="1726" 
d="M1817 1167l-572 -1171h-254l-110 692l-355 -692h-252l-157 1171h344l57 -696l336 690h238l98 -678l305 684h322zM1073 1288h-188l178 309h369z" />
    <glyph glyph-name="wcircumflex.sc" horiz-adv-x="1726" 
d="M1817 1167l-572 -1171h-254l-110 692l-355 -692h-252l-157 1171h344l57 -696l336 690h238l98 -678l305 684h322zM909 1311h-254l299 297h193l182 -297h-242l-71 112z" />
    <glyph glyph-name="wdieresis.sc" horiz-adv-x="1726" 
d="M1817 1167l-572 -1171h-254l-110 692l-355 -692h-252l-157 1171h344l57 -696l336 690h238l98 -678l305 684h322zM1362 1444q-22 -135 -158 -135q-62 0 -100 41t-25 118q25 137 158 138q67 0 103 -40t22 -122zM950 1444q-22 -135 -158 -135q-62 0 -101 41q-38 41 -23 118
q25 137 159 138q63 0 101 -41t22 -121z" />
    <glyph glyph-name="wgrave.sc" horiz-adv-x="1726" 
d="M1817 1167l-572 -1171h-254l-110 692l-355 -692h-252l-157 1171h344l57 -696l336 690h238l98 -678l305 684h322zM942 1319l-252 307h371l69 -307h-188z" />
    <glyph glyph-name="x.sc" horiz-adv-x="1241" 
d="M811 598l352 -598h-381l-174 358l-266 -358h-397l516 594l-346 575h391l168 -354l258 354h379z" />
    <glyph glyph-name="y.sc" horiz-adv-x="1112" 
d="M1237 1167l-522 -710l-82 -469h-320l82 469l-299 710h348l168 -440l297 440h328z" />
    <glyph glyph-name="yacute.sc" horiz-adv-x="1112" 
d="M1237 1167l-522 -710l-82 -469h-320l82 469l-299 710h348l168 -440l297 440h328zM752 1290h-187l176 307h369z" />
    <glyph glyph-name="ycircumflex.sc" horiz-adv-x="1112" 
d="M1237 1167l-522 -710l-82 -469h-320l82 469l-299 710h348l168 -440l297 440h328zM590 1313h-254l297 297h194l183 -297h-242l-72 112z" />
    <glyph glyph-name="ydieresis.sc" horiz-adv-x="1112" 
d="M1237 1167l-522 -710l-82 -469h-320l82 469l-299 710h348l168 -440l297 440h328zM1040 1444q-22 -133 -156 -133q-62 0 -101 41q-38 41 -23 118q25 137 158 138q66 0 102 -41t20 -123zM470 1311q-62 0 -98 41q-38 41 -26 118q25 137 160 138q66 0 102 -41t24 -116
t-56 -107t-106 -33z" />
    <glyph glyph-name="ygrave.sc" horiz-adv-x="1112" 
d="M1237 1167l-522 -710l-82 -469h-320l82 469l-299 710h348l168 -440l297 440h328zM623 1321l-252 307h368l70 -307h-186z" />
    <glyph glyph-name="z.sc" horiz-adv-x="1036" 
d="M1042 954l-622 -669h526l-51 -285h-901l39 223l585 664h-466l49 280h880z" />
    <glyph glyph-name="zacute.sc" horiz-adv-x="1036" 
d="M1042 954l-622 -669h526l-51 -285h-901l39 223l585 664h-466l49 280h880zM748 1290h-189l176 307h371z" />
    <glyph glyph-name="zcaron.sc" horiz-adv-x="1036" 
d="M1042 954l-622 -669h526l-51 -285h-901l39 223l585 664h-466l49 280h880zM571 1313l-192 293h252l69 -115l113 115h240l-285 -293h-197z" />
    <glyph glyph-name="zdotaccent.sc" horiz-adv-x="1036" 
d="M1042 954l-622 -669h526l-51 -285h-901l39 223l585 664h-466l49 280h880zM728 1622q69 0 110 -39q42 -39 28 -119t-69 -118t-125 -39q-70 0 -110 40q-40 41 -26 119t69 117q54 39 123 39z" />
    <glyph glyph-name="i.sc" horiz-adv-x="600" 
d="M365 0h-318l205 1167h317z" />
    <glyph glyph-name="zero.sinf" horiz-adv-x="868" 
d="M399 338q-71 0 -117 -56t-71 -188q-43 -248 99 -248t184 248q23 136 0 190t-95 54zM429 526q177 0 268 -112t55 -319q-36 -209 -166 -323q-129 -114 -307 -114t-267 115q-88 115 -50 323t164 320q126 110 303 110z" />
    <glyph glyph-name="one.sinf" horiz-adv-x="868" 
d="M451 -127h180l-33 -192h-596l33 192h180l72 410l-156 -45l-33 168l299 114h168z" />
    <glyph glyph-name="two.sinf" horiz-adv-x="868" 
d="M135 260l-59 178q170 100 332 100t237 -60q76 -60 72 -160q-3 -100 -65 -178q-62 -77 -191 -154l-160 -97h358l-36 -208h-648l35 192l266 178q156 102 160 185t-94 83t-207 -59z" />
    <glyph glyph-name="three.sinf" horiz-adv-x="868" 
d="M392 528q170 0 248 -52t73 -140q-4 -154 -170 -221q135 -45 131 -173t-122 -211t-292 -83t-295 78l76 180q127 -51 221 -51q158 0 164 92q2 37 -26 53t-91 16h-139l31 164h121q119 0 124 90q4 64 -94 64q-98 1 -217 -58l-59 156q146 96 316 96z" />
    <glyph glyph-name="four.sinf" horiz-adv-x="868" 
d="M190 23h162l41 225zM578 23h131l-31 -183h-131l-29 -162h-223l29 162h-379l28 172l482 506h211z" />
    <glyph glyph-name="five.sinf" horiz-adv-x="868" 
d="M470 221q102 1 161 -69t37 -196t-137 -205t-285 -79t-287 68l82 174q121 -45 203 -45q156 0 178 104q8 43 -18 67t-87 24t-124 -52l-146 62l80 456h584l-37 -208h-352l-23 -132q69 31 171 31z" />
    <glyph glyph-name="six.sinf" horiz-adv-x="868" 
d="M373 47q-78 0 -144 -70q-2 -57 25 -89t77 -32t84 28t42 70q9 42 -15 68t-69 25zM483 358q-180 0 -225 -202q88 63 205 63q117 1 179 -67t40 -191t-121 -206q-98 -83 -261 -83t-246 104t-43 328t176 336t325 113q139 0 225 -61l-96 -175q-68 41 -158 41z" />
    <glyph glyph-name="seven.sinf" horiz-adv-x="868" 
d="M727 319l-389 -638h-252l377 626h-402l39 211h662z" />
    <glyph glyph-name="eight.sinf" horiz-adv-x="858" 
d="M309 -154q59 0 99 30q39 30 45 77q10 47 -20 76t-87 29t-97 -30q-40 -28 -49 -75q-10 -47 20 -77t89 -30zM401 369q-49 -1 -84 -23t-42 -61t20 -64t77 -25t85 26q35 24 42 63t-21 61t-77 23zM274 -342q-158 0 -246 72t-64 204t157 195q-92 59 -73 169t128 179
q109 68 255 68t233 -68q87 -67 68 -179t-146 -171q121 -63 98 -195q-24 -132 -138 -202q-114 -72 -272 -72z" />
    <glyph glyph-name="nine.sinf" horiz-adv-x="868" 
d="M387 348q-49 0 -83 -26t-42 -71q-8 -44 14 -69t68 -24q92 0 139 51q9 67 -19 103t-77 36zM240 -129q186 0 223 178q-98 -59 -215 -59t-176 76q-60 76 -38 202t127 206q105 79 253 79q190 0 262 -114t41 -287q-82 -477 -481 -478q-167 1 -271 58l86 178q82 -39 189 -39z
" />
    <glyph glyph-name="zero.sups" horiz-adv-x="868" 
d="M614 1563q-72 1 -118 -57t-70 -189q-41 -246 100 -246t185 246q23 133 -1 189t-96 57zM644 1751q177 0 268 -113q90 -112 54 -320t-165 -322t-307 -114t-266 114q-87 114 -50 324t163 320t303 111z" />
    <glyph glyph-name="one.sups" horiz-adv-x="868" 
d="M662 1085h180l-33 -192h-596l33 192h180l74 410l-156 -45l-33 168l299 115h166z" />
    <glyph glyph-name="two.sups" horiz-adv-x="868" 
d="M614 1751q160 0 236 -60q76 -61 73 -161t-65 -177t-190 -155l-160 -96h358l-39 -209h-645l35 192l266 179q154 102 158 186q7 82 -93 82t-206 -59l-59 178q171 100 331 100z" />
    <glyph glyph-name="three.sups" horiz-adv-x="868" 
d="M597 1751q169 0 246 -51t75 -141q-4 -154 -170 -220q135 -45 129 -168q-2 -135 -119 -218t-292 -83t-296 78l76 180q123 -49 221 -49q160 0 162 92q4 35 -25 53t-92 17h-137l28 164h123q119 0 125 88q4 67 -97 67t-214 -61l-59 156q147 96 316 96z" />
    <glyph glyph-name="four.sups" horiz-adv-x="868" 
d="M406 1235h161l41 227zM795 1235h129l-31 -180h-131l-29 -162h-221l29 162h-381l28 172l484 506h211z" />
    <glyph glyph-name="five.sups" horiz-adv-x="868" 
d="M456 870q-172 0 -286 70l82 172q126 -43 206 -43q154 0 175 105q8 42 -18 66t-86 24t-128 -52l-143 60l80 459h584l-37 -209h-353l-24 -133q63 31 169 31t165 -70q58 -68 36 -194t-136 -206t-286 -80z" />
    <glyph glyph-name="six.sups" horiz-adv-x="868" 
d="M584 1247q-78 0 -144 -69q-2 -56 25 -90t76 -34t84 30q35 28 43 69t-16 67t-68 27zM671 1417q118 1 181 -67q62 -68 40 -190t-120 -206t-261 -84t-246 104t-43 328t176 336t325 113q139 0 225 -61l-96 -172q-63 39 -158 38q-178 0 -225 -202q84 63 202 63z" />
    <glyph glyph-name="seven.sups" horiz-adv-x="868" 
d="M940 1532l-387 -639h-254l379 625h-402l37 213h664z" />
    <glyph glyph-name="eight.sups" horiz-adv-x="858" 
d="M561 1270q-57 0 -98 -29t-49 -76t20 -77t89 -29q61 -1 99 29t46 77t-21 76t-86 29zM586 1409q49 0 84 25q35 26 42 64t-20 61t-77 23t-84 -24q-34 -22 -41 -61t20 -63t76 -25zM488 870q-158 0 -246 72t-68 199q27 137 160 200q-92 59 -72 171t129 179t255 67t234 -68
q86 -68 66 -172q-20 -121 -147 -179q121 -63 98 -194t-137 -203t-272 -72z" />
    <glyph glyph-name="nine.sups" horiz-adv-x="868" 
d="M599 1544q-50 0 -84 -26t-42 -71q-9 -44 15 -69t69 -24q88 0 139 51q8 67 -20 103t-77 36zM451 1067q188 0 225 178q-98 -59 -215 -59t-177 76t-38 202t127 206q103 79 243 79t217 -58q138 -104 95 -343q-82 -477 -482 -478q-168 1 -268 58l86 178q82 -39 187 -39z" />
    <glyph glyph-name="zero.tosf" horiz-adv-x="1331" 
d="M717 817q-129 0 -217 -88t-88 -248q0 -107 57 -165t165 -58t200 91q90 91 90 251q0 104 -58 160t-149 57zM774 1112q205 0 344 -121t139 -348q0 -164 -61 -297q-62 -133 -162 -214q-207 -167 -463 -167q-207 0 -351 124t-144 353q0 164 63 296t167 211q214 163 468 163z
" />
    <glyph glyph-name="one.tosf" horiz-adv-x="1331" 
d="M1055 256l-49 -268h-785l49 268h224l92 489l-238 -104l-78 233l463 203h250l-156 -821h228z" />
    <glyph glyph-name="two.tosf" horiz-adv-x="1331" 
d="M1190 805q0 -119 -78 -217t-258 -193l-221 -119h495l-49 -276h-948l47 258l414 215q139 80 195 132t57 118q0 123 -191 123q-148 0 -291 -84l-100 217q131 74 241 111t251 36q200 0 318 -82t118 -239z" />
    <glyph glyph-name="three.tosf" horiz-adv-x="1331" 
d="M731 1102q254 0 372 -92t118 -242q0 -100 -75 -200t-231 -156v-6q117 -27 182 -110t64 -202q0 -203 -184 -341t-498 -138q-154 0 -290 47t-214 127l170 236q121 -100 330 -101q158 0 240 60t82 134q-1 74 -53 104t-162 30h-244l45 250h188q125 0 198 51t73 123
q0 122 -184 122t-343 -104l-122 258q215 150 538 150z" />
    <glyph glyph-name="four.tosf" horiz-adv-x="1331" 
d="M776 643l-401 -426h325zM1239 217l-49 -272h-201l-53 -305h-350l53 305h-657l41 233l876 901h291l-152 -862h201z" />
    <glyph glyph-name="five.tosf" horiz-adv-x="1331" 
d="M453 -385q-304 0 -463 125l162 274q152 -90 307 -90t236 66t81 170q0 150 -182 149q-131 0 -260 -98l-201 117l133 749h971l-57 -319h-631l-47 -260q116 66 280 66t262 -96q98 -95 99 -267q0 -250 -193 -418t-497 -168z" />
    <glyph glyph-name="six.tosf" horiz-adv-x="1331" 
d="M899 488q0 160 -171 159q-81 0 -158 -36t-126 -95q-8 -94 42 -165t159 -73t181 62t73 148zM832 932q196 0 317 -102t121 -281q0 -231 -188 -403t-450 -171q-260 1 -402 147t-142 420t122 506q65 122 159 215t236 149t315 56q261 1 421 -118l-155 -256q-111 78 -275 78
q-165 0 -283 -99q-118 -98 -161 -276q169 135 365 135z" />
    <glyph glyph-name="seven.tosf" horiz-adv-x="1331" 
d="M1241 809l-719 -1163h-377l703 1120h-670l55 319h1057z" />
    <glyph glyph-name="eight.tosf" horiz-adv-x="1331" 
d="M660 621q-102 1 -168 -61q-68 -62 -68 -135t49 -115t151 -42t172 60q68 60 68 134q0 75 -51 117t-153 42zM730 870q85 0 141 50q57 50 57 114q0 63 -43 97t-128 34t-141 -49q-56 -48 -57 -112q0 -64 43 -99t128 -35zM785 1468q255 0 387 -98t133 -260q0 -109 -68 -205
t-195 -155q190 -82 190 -283t-186 -351q-187 -150 -491 -151q-250 0 -376 109t-126 264q0 125 80 241t232 175q-78 34 -124 104t-46 164q0 184 167 315q168 131 423 131z" />
    <glyph glyph-name="nine.tosf" horiz-adv-x="1331" 
d="M675 801q-97 -1 -164 -61t-72 -145t40 -132t130 -47t163 41t117 116q7 109 -55 169t-159 59zM432 -90q338 0 428 373q-164 -164 -373 -164q-174 0 -297 99q-124 98 -116 326t183 394t474 166q537 0 516 -588q-16 -406 -243 -654t-603 -247q-121 -1 -227 25t-160 63
l111 264q152 -57 307 -57z" />
    <glyph glyph-name="zero.osf" horiz-adv-x="1216" 
d="M647 819q-90 0 -167 -88t-85 -237q-8 -111 39 -173q47 -63 138 -63t167 88t84 242q8 109 -39 170t-137 61zM715 1112q188 0 314 -126t118 -357q-3 -162 -63 -293t-152 -209q-191 -162 -420 -162q-188 0 -318 129t-122 367q4 158 65 287q108 228 361 323q108 41 217 41z
" />
    <glyph glyph-name="one.osf" horiz-adv-x="1161" 
d="M944 256l-49 -268h-784l49 268h223l92 489l-237 -104l-78 233l463 203h249l-155 -821h227z" />
    <glyph glyph-name="two.osf" horiz-adv-x="1185" 
d="M530 848q-133 0 -260 -86l-108 205q221 160 479 159q188 0 297 -80t106 -227q-4 -113 -65 -199t-207 -190l-217 -156h420l-47 -274h-869l33 190l359 265q139 102 190 157q51 56 53 114t-43 90t-121 32z" />
    <glyph glyph-name="three.osf" horiz-adv-x="1259" 
d="M684 1102q254 0 372 -92t118 -242q0 -100 -75 -200t-231 -156v-6q117 -27 182 -110t64 -202q0 -203 -184 -341t-498 -138q-154 0 -290 47t-214 127l170 236q121 -100 330 -101q158 0 240 60t82 134t-52 104t-163 30h-244l45 250h188q125 0 198 51t73 123q1 122 -183 122
t-344 -104l-123 258q215 150 539 150z" />
    <glyph glyph-name="four.osf" horiz-adv-x="1357" 
d="M788 643l-401 -426h326zM1249 217l-47 -272h-201l-53 -305h-350l53 305h-657l41 233l876 901h291l-151 -862h198z" />
    <glyph glyph-name="five.osf" horiz-adv-x="1306" 
d="M1126 201q0 -250 -192 -418t-496 -168q-303 0 -463 125l162 274q151 -90 307 -90t236 66t80 170q0 150 -182 149q-131 0 -259 -98l-200 117l133 749h969l-56 -319h-633l-45 -260q117 66 281 66t261 -96q97 -95 97 -267z" />
    <glyph glyph-name="six.osf" horiz-adv-x="1406" 
d="M940 488q0 160 -173 159q-173 0 -282 -131q-10 -94 41 -165t159 -73q107 -2 181 62t74 148zM872 932q198 0 317 -102q120 -102 120 -281q1 -231 -187 -403t-450 -171t-403 147q-142 146 -142 421t123 505q66 122 159 215t235 149t314 56q260 1 424 -118l-157 -256
q-105 78 -271 78t-284 -99q-118 -98 -164 -276q168 135 366 135z" />
    <glyph glyph-name="seven.osf" horiz-adv-x="1138" 
d="M1139 801l-719 -1161h-377l700 1118h-669l57 319h1055z" />
    <glyph glyph-name="eight.osf" horiz-adv-x="1292" 
d="M644 621q-102 1 -170 -61t-66 -135q0 -73 49 -115t151 -42t172 60q68 60 68 134q0 75 -50 117q-52 42 -154 42zM545 1004q0 -134 170 -134q86 0 142 50t56 114q0 131 -170 131q-85 0 -141 -49q-56 -48 -57 -112zM772 1468q254 0 385 -98t131 -260q0 -109 -68 -205
t-194 -155q190 -82 190 -283t-186 -351q-188 -150 -491 -151q-250 0 -376 109t-126 264q0 125 81 241t230 175q-78 34 -123 104t-45 164q0 184 168 315q170 131 424 131z" />
    <glyph glyph-name="nine.osf" horiz-adv-x="1294" 
d="M654 801q-97 1 -164 -61q-68 -62 -72 -146t42 -131t131 -47t163 41t114 116q10 109 -54 169t-160 59zM412 -90q338 0 430 373q-166 -164 -375 -164q-172 0 -295 99q-123 98 -117 326q5 228 181 394t475 166q539 0 516 -588q-17 -406 -243 -654t-603 -247q-121 -1 -227 25
t-158 63l110 264q152 -57 306 -57z" />
    <glyph glyph-name="zero.lf" horiz-adv-x="1615" 
d="M845 1161q-118 0 -211 -99q-93 -98 -134 -230t-41 -261q0 -305 217 -305q123 0 216 104t135 236q42 133 42 263t-53 211t-171 81zM907 1464q264 0 396 -159q131 -160 131 -423t-147 -511q-147 -249 -390 -353q-131 -55 -279 -55q-262 0 -394 162t-132 422q0 166 58 329
q124 355 418 507q157 81 339 81z" />
    <glyph glyph-name="one.lf" horiz-adv-x="1263" 
d="M1077 313l-57 -313h-963l60 313h307l121 717l-254 -108l-82 270l500 250h270l-197 -1129h295z" />
    <glyph glyph-name="two.lf" horiz-adv-x="1318" 
d="M1227 1120q0 -158 -82 -288t-303 -293l-297 -220h592l-58 -319h-1054l51 274l485 365q154 115 209 194t55 153t-57 116q-57 41 -154 41q-174 0 -317 -86l-102 250q242 162 530 161q229 0 365 -95t137 -253z" />
    <glyph glyph-name="three.lf" horiz-adv-x="1259" 
d="M1149 455q0 -203 -184 -341t-498 -139q-154 -1 -290 47t-214 128l170 235q119 -100 330 -100q159 0 239 59t80 134t-51 105t-162 29h-243l45 250h186q125 0 199 51t73 123q0 123 -183 123t-343 -104l-125 258q217 150 541 149q254 0 371 -92t116 -242q0 -100 -74 -200
t-229 -156v-6q117 -27 181 -110t65 -201z" />
    <glyph glyph-name="four.lf" horiz-adv-x="1357" 
d="M834 1004l-402 -426h324zM1294 578l-47 -273h-200l-54 -305h-350l51 305h-655l41 234l874 901h293l-151 -862h198z" />
    <glyph glyph-name="five.lf" horiz-adv-x="1306" 
d="M832 924q164 0 262 -96t98 -267q0 -250 -193 -418t-497 -168t-463 125l162 273q154 -88 308 -88q154 1 235 65t81 168q0 74 -48 113t-134 39q-133 0 -260 -99l-201 117l133 750h969l-55 -320h-633l-45 -260q117 66 281 66z" />
    <glyph glyph-name="six.lf" horiz-adv-x="1411" 
d="M940 488q0 160 -173 159q-173 0 -282 -131q-10 -94 41 -165t159 -73q107 -2 181 62t74 148zM872 932q198 0 317 -102q120 -102 120 -281q1 -231 -187 -403t-450 -171t-403 147q-142 146 -142 421t123 505q66 122 159 215t235 149t314 56q260 1 424 -118l-157 -256
q-105 78 -271 78t-284 -99q-118 -98 -164 -276q168 135 366 135z" />
    <glyph glyph-name="seven.lf" horiz-adv-x="1138" 
d="M1202 1161l-719 -1161h-377l701 1118h-670l58 320h1056z" />
    <glyph glyph-name="eight.lf" horiz-adv-x="1292" 
d="M644 621q-102 1 -170 -61t-66 -135q0 -73 49 -115t151 -42t172 60q68 60 68 134q0 75 -50 117q-52 42 -154 42zM545 1004q0 -134 170 -134q86 0 142 50t56 114q0 131 -170 131q-85 0 -141 -49q-56 -48 -57 -112zM772 1468q254 0 385 -98t131 -260q0 -109 -68 -205
t-194 -155q190 -82 190 -283t-186 -351q-188 -150 -491 -151q-250 0 -376 109t-126 264q0 125 81 241t230 175q-78 34 -123 104t-45 164q0 184 168 315q170 131 424 131z" />
    <glyph glyph-name="nine.lf" horiz-adv-x="1294" 
d="M719 1159q-98 0 -165 -60q-67 -59 -72 -145t41 -132t131 -46t163 41t117 117q8 109 -54 167q-63 58 -161 58zM532 479q-174 1 -296 99t-116 326q7 228 181 394q174 164 473 164q539 0 516 -585q-16 -406 -242 -654t-602 -248q-122 -1 -228 25t-159 63l111 263
q145 -55 307 -56q334 0 428 373q-164 -164 -373 -164z" />
    <glyph glyph-name="zero.tf" horiz-adv-x="1331" 
d="M776 1153q-137 0 -222 -189t-85 -403q0 -281 160 -280q94 0 168 102t106 235q33 133 33 256q0 279 -160 279zM844 1468q240 0 356 -158t117 -409q0 -164 -53 -329q-54 -165 -148 -300t-239 -220t-314 -85q-241 0 -359 161t-118 413q0 170 54 335q116 355 390 510
q146 82 314 82z" />
    <glyph glyph-name="one.tf" horiz-adv-x="1331" 
d="M1137 313l-60 -313h-960l59 313h307l121 717l-254 -108l-84 270l502 250h270l-196 -1129h295z" />
    <glyph glyph-name="two.tf" horiz-adv-x="1333" 
d="M1251 1118q0 -158 -81 -286q-81 -130 -302 -293l-299 -220h592l-57 -319h-1055l51 274l486 365q154 115 209 194t55 153t-57 116q-57 41 -154 41q-170 0 -317 -86l-103 250q244 162 533 161q227 0 363 -96t136 -254z" />
    <glyph glyph-name="three.tf" horiz-adv-x="1331" 
d="M1241 1128q0 -100 -75 -200t-228 -156v-6q117 -27 180 -110t64 -201q0 -203 -184 -341t-498 -139q-154 -1 -290 47t-214 128l172 235q119 -100 328 -100q158 0 240 59t81 134q0 75 -51 105t-162 29h-246l48 250h186q125 0 199 51t73 123q0 123 -184 123t-342 -104
l-125 258q215 150 541 149q252 0 370 -92t117 -242z" />
    <glyph glyph-name="four.tf" horiz-adv-x="1331" 
d="M809 1004l-401 -426h325zM1272 578l-49 -273h-201l-53 -305h-351l54 305h-658l41 234l877 901h291l-152 -862h201z" />
    <glyph glyph-name="five.tf" horiz-adv-x="1331" 
d="M842 924q164 0 261 -96t97 -267q0 -250 -192 -418t-496 -168q-303 0 -463 125l162 273q155 -88 309 -88q154 1 235 65t81 168q0 74 -48 113t-137 39q-131 0 -258 -99l-200 117l133 750h968l-55 -320h-633l-45 -260q117 66 281 66z" />
    <glyph glyph-name="six.tf" horiz-adv-x="1331" 
d="M903 488q0 160 -173 159q-173 0 -281 -131q-9 -94 41 -165t158 -73t182 62t73 148zM836 932q196 0 316 -102t120 -281q0 -231 -188 -403t-448 -171q-262 1 -404 147t-142 421t123 505q66 122 159 215t235 149t315 56q260 1 424 -118l-156 -256q-111 78 -275 78
q-165 0 -283 -99q-118 -98 -163 -276q171 135 367 135z" />
    <glyph glyph-name="seven.tf" horiz-adv-x="1331" 
d="M1337 1100l-764 -1100h-428l807 1118h-755l55 320h1137z" />
    <glyph glyph-name="eight.tf" horiz-adv-x="1331" 
d="M660 621q-102 1 -170 -61q-66 -62 -66 -135t49 -115t151 -42t170 60t68 134q0 75 -50 117t-152 42zM559 1004q0 -134 170 -134q86 0 142 50q57 50 57 114q0 63 -43 97t-128 34t-141 -49q-56 -48 -57 -112zM785 1468q255 0 386 -98t132 -260q0 -109 -68 -205t-195 -155
q190 -82 190 -283t-186 -351q-188 -150 -491 -151q-248 0 -374 109t-126 264q0 125 80 241t229 175q-78 34 -122 104t-45 164q0 184 167 315q168 131 423 131z" />
    <glyph glyph-name="nine.tf" horiz-adv-x="1331" 
d="M716 1159q-97 0 -164 -60q-67 -59 -72 -145t41 -132t130 -46t163 41t116 117q8 109 -54 167q-63 58 -160 58zM528 479q-174 1 -297 99t-115 326t181 394q174 164 475 164q539 0 516 -585q-16 -406 -242 -654t-604 -248q-122 -1 -228 25t-157 63l109 263q145 -55 307 -56
q338 0 428 373q-164 -164 -373 -164z" />
    <glyph glyph-name="zero.dnom" horiz-adv-x="868" 
d="M455 659q-145 -1 -187 -245t101 -244q139 0 182 246q23 133 -1 188t-95 55zM485 848q179 0 269 -111t53 -319t-166 -323q-129 -113 -307 -113t-265 114t-51 322q36 210 163 320q126 110 304 110z" />
    <glyph glyph-name="one.dnom" horiz-adv-x="868" 
d="M500 184h180l-33 -192h-596l33 192h180l72 410l-156 -45l-33 168l299 114h168z" />
    <glyph glyph-name="two.dnom" horiz-adv-x="868" 
d="M454 848q160 0 237 -60t73 -160q-4 -99 -66 -177t-190 -156l-160 -94h359l-39 -209h-645l34 192l267 178q156 102 159 187q5 81 -121 81q-70 0 -180 -59l-59 179q171 98 331 98z" />
    <glyph glyph-name="three.dnom" horiz-adv-x="868" 
d="M438 850q170 0 246 -52q78 -52 74 -141q-4 -154 -170 -221q135 -41 131 -171t-122 -213t-292 -83t-295 78l76 180q127 -49 221 -49q158 0 164 92q4 70 -117 70h-139l31 162h121q119 0 125 90q4 68 -96 68t-216 -62l-59 156q147 96 317 96z" />
    <glyph glyph-name="four.dnom" horiz-adv-x="868" 
d="M246 336h164l39 225zM635 336h131l-33 -182h-131l-29 -162h-221l29 162h-381l31 172l481 505h211z" />
    <glyph glyph-name="five.dnom" horiz-adv-x="868" 
d="M517 518q106 0 165 -68q58 -68 36 -196q-22 -127 -136 -206t-286 -79t-286 70l82 172q117 -43 202 -43q157 0 179 104q8 43 -17 67q-26 23 -88 23t-124 -51l-146 60l80 458h584l-37 -208h-352l-23 -134q61 31 167 31z" />
    <glyph glyph-name="six.dnom" horiz-adv-x="868" 
d="M420 346q-80 0 -141 -72q-6 -121 102 -120q47 0 82 28t41 70q8 42 -14 68t-70 26zM530 655q-178 0 -223 -202q86 63 203 63t179 -68q63 -68 41 -189q-22 -122 -120 -206t-262 -84q-164 1 -246 105t-43 328t175 336t327 112q139 -1 225 -62l-96 -174q-61 41 -160 41z" />
    <glyph glyph-name="seven.dnom" horiz-adv-x="868" 
d="M780 631l-387 -639h-252l377 624h-401l37 211h663z" />
    <glyph glyph-name="eight.dnom" horiz-adv-x="858" 
d="M401 369q-57 0 -97 -29t-49 -76t21 -77q30 -29 90 -29t98 30t46 76q8 47 -22 76t-87 29zM458 678q-50 0 -84 -22t-42 -60q-8 -39 18 -64q26 -24 77 -24q50 0 85 24t42 64q6 38 -20 60t-76 22zM330 -31q-158 0 -246 71t-68 200q27 137 160 200q-92 60 -72 170t128 178
t254 68t233 -68t68 -180t-146 -170q121 -63 98 -194t-137 -203t-272 -72z" />
    <glyph glyph-name="nine.dnom" horiz-adv-x="868" 
d="M439 643q-50 0 -84 -27q-34 -26 -41 -70t16 -70t67 -25q86 0 140 53q8 68 -20 104t-78 35zM291 166q188 0 225 176q-100 -57 -216 -57q-116 -1 -175 75t-37 203t125 206q104 79 252 79q193 0 265 -114t40 -288q-84 -477 -483 -477q-165 1 -269 58l86 178q76 -39 187 -39z
" />
    <glyph glyph-name="zero.numr" horiz-adv-x="868" 
d="M563 1274q-145 0 -187 -246t99 -246t184 248q23 132 -1 188t-95 56zM594 1462q178 0 268 -112t53 -319q-37 -209 -165 -323t-308 -114q-178 0 -265 115t-50 323t163 320q126 110 304 110z" />
    <glyph glyph-name="one.numr" horiz-adv-x="868" 
d="M621 801h180l-33 -193h-596l33 193h180l72 409l-156 -45l-33 168l299 115h168z" />
    <glyph glyph-name="two.numr" horiz-adv-x="868" 
d="M564 1466q161 0 237 -60q77 -60 73 -160t-65 -178q-61 -77 -191 -155l-159 -96h358l-39 -209h-645l35 193l266 178q154 102 158 186q6 82 -94 82t-205 -59l-60 178q170 100 331 100z" />
    <glyph glyph-name="three.numr" horiz-adv-x="868" 
d="M550 1468q167 0 245 -52t73 -142q-4 -154 -168 -219q133 -45 129 -173q-3 -128 -121 -212t-292 -84t-295 78l76 180q127 -49 223 -49q160 0 162 92q4 35 -25 52t-92 17h-139l30 164h123q119 0 123 88q8 66 -93 66q-101 1 -218 -60l-60 156q152 98 319 98z" />
    <glyph glyph-name="four.numr" horiz-adv-x="868" 
d="M354 952h162l41 226zM743 952h129l-30 -182h-131l-29 -162h-221l28 162h-380l28 172l484 506h210z" />
    <glyph glyph-name="five.numr" horiz-adv-x="868" 
d="M627 1137q102 0 161 -70q58 -69 36 -195t-136 -206t-282 -80q-170 0 -287 69l80 174q121 -45 203 -45q154 0 178 105q8 43 -18 67t-88 23q-62 0 -124 -51l-145 59l82 459h581l-34 -209h-353l-24 -131q68 31 170 31z" />
    <glyph glyph-name="six.numr" horiz-adv-x="868" 
d="M532 963q-78 0 -143 -70q-2 -57 25 -89t76 -32q50 0 84 28t42 68t-15 68q-24 27 -69 27zM643 1274q-178 0 -225 -205q84 63 202 63t181 -67t41 -189t-121 -206q-98 -84 -261 -84t-246 104t-43 329t176 337t325 112q141 0 225 -63l-96 -172q-68 41 -158 41z" />
    <glyph glyph-name="seven.numr" horiz-adv-x="868" 
d="M891 1247l-387 -639h-254l379 627h-402l37 211h664z" />
    <glyph glyph-name="eight.numr" horiz-adv-x="858" 
d="M520 985q-57 0 -98 -29t-51 -75q-5 -47 23 -77t88 -30t99 30q38 30 46 77t-21 75t-86 29zM546 1124q50 0 84 25t41 63t-20 62q-27 22 -77 22t-84 -22q-33 -23 -40 -62q-6 -40 20 -64t76 -24zM605 1473q146 0 233 -68t67 -172q-20 -121 -147 -178q121 -63 98 -195
q-24 -132 -138 -203t-270 -71t-246 72q-88 72 -66 202q22 131 157 199q-92 59 -72 169t129 178q109 67 255 67z" />
    <glyph glyph-name="nine.numr" horiz-adv-x="868" 
d="M547 1260q-49 0 -83 -27t-42 -71t14 -68t68 -25q92 0 139 53q8 66 -19 102q-28 36 -77 36zM399 782q186 0 224 179q-98 -59 -215 -59t-177 75q-59 76 -37 203q22 128 127 206t252 78q190 0 263 -113q72 -114 41 -288q-82 -477 -482 -477q-166 0 -270 57l86 178
q82 -39 188 -39z" />
    <glyph glyph-name="zero.sc" horiz-adv-x="1275" 
d="M698 915q-145 0 -223 -128t-78 -302q0 -246 183 -245q100 0 171 68q131 125 131 366t-184 241zM768 1182q188 0 312 -120q122 -120 122 -368q0 -326 -203 -526t-475 -199q-202 0 -324 124q-122 125 -122 359t99 401t251 248t340 81z" />
    <glyph glyph-name="one.sc" horiz-adv-x="1052" 
d="M909 268l-47 -268h-780l47 268h250l102 570l-243 -90l-62 217l430 206h219l-161 -903h245z" />
    <glyph glyph-name="two.sc" horiz-adv-x="1107" 
d="M595 1196q217 0 323 -96t77 -264q-18 -111 -93 -202t-226 -206l-219 -158h469l-47 -270h-838l41 231l364 281q115 84 167 139q53 55 63 125t-38 106t-161 36t-217 -68l-80 215q197 131 415 131z" />
    <glyph glyph-name="three.sc" horiz-adv-x="1040" 
d="M567 1190q240 0 327 -81t64 -206q-14 -82 -75 -158t-158 -112v-10q103 -25 151 -98t29 -169q-31 -176 -178 -276t-358 -100q-133 0 -243 36t-169 101l156 211q96 -86 266 -86q100 0 161 34q60 36 71 98t-31 90q-43 28 -144 28h-188l37 210h155q186 0 209 123q8 47 -29 78
q-38 31 -116 31q-146 0 -273 -78l-84 209q180 125 420 125z" />
    <glyph glyph-name="four.sc" horiz-adv-x="1114" 
d="M645 791l-311 -318h254zM1022 473l-41 -231h-158l-45 -242h-282l41 242h-523l35 196l703 729h235l-123 -694h158z" />
    <glyph glyph-name="five.sc" horiz-adv-x="1110" 
d="M517 537q-91 0 -200 -80l-159 96l110 618h785l-49 -274h-512l-39 -205q90 58 235 58t227 -94q83 -94 51 -274q-32 -179 -180 -291q-148 -111 -380 -111q-230 0 -361 100l135 233q113 -72 256 -71q96 0 160 40t78 110t-26 108q-40 37 -131 37z" />
    <glyph glyph-name="six.sc" horiz-adv-x="1128" 
d="M596 520q-123 0 -219 -86q-6 -90 34 -144q39 -54 115 -54t131 40t66 105q13 67 -23 103t-104 36zM721 934q-250 0 -324 -277q147 105 308 105t254 -96t63 -272t-177 -296q-146 -119 -343 -118q-233 0 -345 150t-59 446q52 298 230 453t418 155t370 -103l-164 -215
q-98 68 -231 68z" />
    <glyph glyph-name="seven.sc" horiz-adv-x="935" 
d="M928 899l-566 -899h-301l564 897h-535l47 272h842z" />
    <glyph glyph-name="eight.sc" horiz-adv-x="1071" 
d="M524 498q-74 0 -130 -37t-66 -96t29 -100q40 -40 118 -40t131 39q54 40 64 100t-31 97t-115 37zM600 930q-64 0 -108 -31t-54 -80t27 -79t98 -30t108 30q46 30 54 79t-26 80q-35 31 -99 31zM644 1184q192 0 301 -86q108 -86 81 -238q-14 -88 -72 -157t-135 -95
q80 -42 119 -116t23 -166q-27 -160 -175 -258t-356 -98t-316 98t-79 258q18 94 85 171t156 115q-66 29 -104 97t-25 151q29 152 167 238t330 86z" />
    <glyph glyph-name="nine.sc" horiz-adv-x="1058" 
d="M551 934q-82 0 -135 -47q-54 -47 -58 -117t34 -102q38 -33 108 -33t134 30q62 30 95 78q8 91 -44 141t-134 50zM369 227q127 0 217 71t125 218q-131 -131 -287 -131t-260 80q-102 80 -96 248q8 213 157 345q150 132 364 132q213 0 325 -121t102 -371q-6 -193 -68 -337
t-164 -225q-196 -158 -444 -156q-201 -1 -330 75l103 217q129 -45 256 -45z" />
    <glyph glyph-name="parenleft.sup" horiz-adv-x="598" 
d="M680 1878l164 -135q-209 -156 -264 -469q-45 -270 96 -434l-176 -99q-215 199 -148 582q60 344 328 555z" />
    <glyph glyph-name="parenright.sup" horiz-adv-x="598" 
d="M444 1757l174 109q213 -224 150 -586t-330 -553l-168 129q217 186 269 470t-95 431z" />
    <glyph glyph-name="hyphen.sup" horiz-adv-x="1525" 
d="M1247 1200h-583l45 256h583z" />
    <glyph glyph-name="exclam.sc" horiz-adv-x="661" 
d="M282 313q144 0 144 -146q0 -79 -58 -131t-125 -52q-143 0 -143 149q0 78 58 129q56 51 124 51zM430 434h-231l71 731h344z" />
    <glyph glyph-name="exclamdown.sc" horiz-adv-x="659" 
d="M285 719h229l-70 -731h-346zM470 1169q144 0 144 -148q0 -79 -58 -130t-126 -51q-144 0 -143 146q0 79 58 131q57 52 125 52z" />
    <glyph glyph-name="parenleft.sc" horiz-adv-x="673" 
d="M655 1395l97 -144q-135 -105 -252 -293t-146 -428q-32 -213 18 -386t136 -269l-143 -143q-119 111 -174 204t-74 160q-18 68 -35 164t4 255q22 159 74 289t105 214q54 84 136 167t132 121t122 89z" />
    <glyph glyph-name="parenright.sc" horiz-adv-x="753" 
d="M436 752q0 160 -46 290t-122 209l146 144q63 -59 102 -105t88 -124q100 -161 98 -421q0 -608 -581 -1013l-94 143q172 135 290 378q119 243 119 499z" />
    <glyph glyph-name="question.sc" horiz-adv-x="974" 
d="M418 309q146 -1 145 -149q0 -80 -57 -131q-56 -51 -126 -51t-111 35q-40 36 -40 115q-1 79 59 130t130 51zM604 1184q164 0 261 -69t98 -189q0 -153 -121 -250q-50 -41 -104 -76q-131 -86 -148 -154l-12 -51h-265l13 58q14 67 62 121t96 84q126 79 126 165q0 80 -126 80
t-222 -63l-78 227q176 117 420 117z" />
    <glyph glyph-name="questiondown.sc" horiz-adv-x="952" 
d="M534 258q128 0 220 66l82 -230q-178 -115 -424 -114q-166 0 -262 70t-93 196q2 78 38 140t86 101q49 39 101 72q127 81 144 150l12 51h264l-12 -60q-14 -66 -60 -118t-93 -80q-47 -29 -86 -72t-41 -86q-4 -86 124 -86zM598 842q-150 0 -144 152q2 80 59 128q57 49 125 49
t110 -35q40 -36 38 -116t-60 -129t-128 -49z" />
    <glyph glyph-name="cent.osf" horiz-adv-x="1296" 
d="M188 365q0 199 111 333t293 174l29 228h219l-54 -215q160 -14 238 -78l-139 -225q-59 43 -153 43q-94 -1 -152 -61q-60 -60 -60 -154q-1 -174 146 -172q106 0 178 59l80 -197q-49 -45 -134 -80t-165 -45l-23 -208h-217l51 227q-116 39 -182 134t-66 237z" />
    <glyph glyph-name="dollar.osf" horiz-adv-x="1062" 
d="M623 932q-70 0 -108 -28t-38 -72t34 -61q48 -24 123 -48q188 -60 253 -126t65 -173q0 -180 -116 -295t-306 -145l-51 -213h-260l76 211q-168 20 -285 100l133 254q143 -78 293 -78q184 0 185 107q0 32 -32 48q-31 17 -53 25l-65 24q-43 15 -76 27q-123 47 -183 112
t-60 167q0 172 110 281q111 109 289 135l39 229h268l-72 -233q172 -29 252 -109l-168 -227q-102 88 -247 88z" />
    <glyph glyph-name="ampersand.sc" horiz-adv-x="1288" 
d="M340 270q0 -74 104 -74t191 70l-158 166q-137 -96 -137 -162zM672 883q0 31 -22 52t-67 21q-44 0 -75 -28t-31 -76q0 -47 70 -127q125 92 125 158zM51 220q0 116 68 191t213 169q-119 127 -119 247q0 156 122 259t304 104q133 0 217 -64t84 -174q0 -112 -62 -192
t-192 -178l121 -125l172 231l197 -90l-197 -272l-21 -27l156 -162l-199 -162l-131 136q-176 -147 -401 -148q-156 0 -244 70q-88 71 -88 187z" />
    <glyph glyph-name="cent.sc" horiz-adv-x="1296" 
d="M188 365q0 199 111 333t293 174l29 228h219l-54 -215q160 -14 238 -78l-139 -225q-59 43 -153 43q-94 -1 -152 -61q-60 -60 -60 -154q-1 -174 146 -172q106 0 178 59l80 -197q-49 -45 -134 -80t-165 -45l-23 -208h-217l51 227q-116 39 -182 134t-66 237z" />
    <glyph glyph-name="percent.sc" horiz-adv-x="1441" 
d="M1069 459q-57 0 -92 -53q-35 -52 -35 -154t72 -102q127 0 127 215q0 94 -72 94zM729 240q-1 174 105 278t246 105q140 0 212 -69t72 -194q0 -172 -108 -274t-273 -102q-119 0 -187 68t-67 188zM436 1026q-57 0 -93 -52t-36 -156t74 -103q129 0 129 217q0 94 -74 94z
M289 0h-152l1024 1169h150zM94 805q0 173 104 279t246 106q140 0 212 -70t73 -194q0 -172 -106 -274t-273 -101q-116 -1 -186 67t-70 187z" />
    <glyph glyph-name="perthousand.sc" horiz-adv-x="2123" 
d="M1069 459q-57 0 -92 -53q-35 -52 -35 -154t72 -102q127 0 127 215q0 94 -72 94zM1753 459q-127 0 -127 -215q0 -94 72 -94q127 0 127 215q0 94 -72 94zM729 240q-1 174 105 278t246 105q140 0 212 -69t72 -194q0 -172 -108 -274t-273 -102q-117 0 -185 68t-69 188z
M1411 240q-1 174 105 278t246 105q140 0 212 -69t72 -194q0 -172 -108 -274t-271 -102q-119 0 -187 68t-69 188zM436 1026q-57 0 -92 -52t-35 -156t72 -103q129 0 129 217q0 94 -74 94zM289 0h-152l1024 1169h150zM94 805q0 173 104 279t246 106q140 0 212 -70t73 -194
q0 -172 -106 -274t-273 -101q-116 -1 -186 67t-70 187z" />
    <glyph glyph-name="u1F620.ss01" 
d="M1024 496q223 0 392 -119t210 -297h-127q-57 104 -186 172t-289 68t-289 -68t-186 -172h-127q41 178 210 297t392 119zM1372 934q0 -252 -119 -252t-118 252v125l475 151l30 -116l-268 -86v-74zM911 934q1 -252 -117 -252t-118 252v74l-268 86l30 116l473 -151v-125z" />
    <glyph glyph-name="u1F627.ss01" 
d="M1025 528q-165 0 -288 -78t-168 -231q185 53 455 53t455 -53q-43 153 -166 231t-288 78zM1024 678q276 0 440 -182t166 -471q-68 49 -244 79t-362 29q-365 0 -606 -108q4 289 167 471t439 182zM1376 989q0 -256 -120 -256t-119 256v264l510 -254l-29 -114l-242 119v-15z
M911 989q1 -256 -119 -256t-120 256v15l-240 -119l-31 114l510 254v-264z" />
    <glyph glyph-name="u1F616.ss01" 
d="M1389 434q-51 0 -93 -36t-64 -78q-24 -42 -78 -77q-54 -36 -129 -36t-128 36t-78 78q-25 41 -65 77t-92 36q-147 0 -207 -172l-111 33q33 119 108 208t195 86t187 -77q28 -30 52 -60q62 -74 138 -73q55 0 97 34q42 33 67 73t77 73t128 31q129 -2 205 -90t108 -205
l-113 -33q-59 172 -204 172zM1565 909l-480 174l54 150l479 -174zM918 1233l53 -150l-479 -174l-54 150z" />
    <glyph glyph-name="u1F615.ss01" 
d="M592 102l-62 170q330 348 926 336l62 -170q-596 12 -926 -336zM1255 1059v-96q0 -164 -130 -164t-130 164v96h260zM653 1198q109 0 109 -229t-109 -230t-109 229t109 230z" />
    <glyph glyph-name="u1F622.ss01" 
d="M1024 444q217 0 383 -105t207 -265h-156q-36 84 -156 138t-277 54t-279 -54t-158 -138h-154q41 160 207 265t383 105zM1319 575q41 0 69 29t28 66t-42 96q-41 59 -55 92q-14 -33 -54 -91t-40 -96q1 -38 27 -67t67 -29zM1457 531q-56 -56 -138 -56t-138 56q-57 56 -57 119
t24 102q24 38 54 80q31 42 39 55q-143 53 -156 340h123q18 -211 100 -211t95 211h125q-12 -260 -137 -330q14 -23 55 -78q67 -91 67 -161t-56 -127zM742 1016q81 0 96 211h125q-9 -170 -65 -260t-154 -90t-158 90t-68 260h125q18 -211 99 -211z" />
    <glyph glyph-name="u1F625.ss01" 
d="M1024 598q223 0 392 -119t210 -297h-127q-57 104 -186 172t-289 68t-289 -68t-186 -172h-127q41 178 210 297t392 119zM1632 679q0 -36 26 -64q26 -27 66 -27t66 26q25 26 25 63q0 36 -38 93q-39 57 -53 90q-14 -35 -53 -90t-39 -91zM1911 660q0 -62 -54 -115
q-55 -53 -133 -53t-133 53t-55 115t39 120t84 126t55 138h19q10 -70 55 -138t84 -126t39 -120zM1565 997l-68 -116l-410 219l72 119zM952 1100l-409 -219l-68 116l406 222z" />
    <glyph glyph-name="u1F61E.ss01" 
d="M1024 598q223 0 392 -119t210 -297h-127q-57 104 -186 172t-289 68t-289 -68t-186 -172h-127q41 178 210 297t392 119zM1295 729q-114 0 -113 244v123l-60 34v158l391 -207v-170l-104 60q0 -242 -114 -242zM866 973q0 -244 -114 -244t-113 242l-104 -60v170l391 207v-158
l-60 -34v-123z" />
    <glyph glyph-name="u1F611.ss01" 
d="M1561 340h-1074v147h1074v-147zM1565 907h-430v150h430v-150zM915 907h-430v150h430v-150z" />
    <glyph glyph-name="u1F60B.ss01" 
d="M1415 203q37 20 39 60t-39 140q-70 -61 -172 -100q59 -81 99 -103t73 3zM1024 264q-206 0 -360 114t-191 284h139q35 -113 150 -188t262 -75t262 74t152 189h137q-23 -98 -84 -179q135 -283 -23 -370q-152 -104 -331 161q-61 -10 -113 -10zM1229 872h-123q6 190 65 292
t151 104q92 0 149 -104q58 -104 65 -292h-125q-14 268 -90 269q-41 0 -61 -64t-31 -205zM637 872h-123q6 188 66 292t150 104t148 -104t64 -292h-123q-11 140 -31 204t-61 65q-41 0 -61 -64t-29 -205z" />
    <glyph glyph-name="u1F613.ss01" 
d="M1440 264h-1073v150h1073v-150zM1489 623q-1 -35 25 -62t66 -27t66 28q26 26 26 62t-39 93q-38 57 -52 90q-14 -33 -53 -91t-39 -93zM1767 611q0 -67 -54 -119t-132 -54q-78 0 -133 54t-55 119q0 66 83 181t95 197h18q12 -83 95 -197t83 -181zM1255 1008
q1 -256 -119 -256t-120 256v325l510 -254l-29 -114l-242 118v-75zM791 1008q0 -256 -120 -256t-120 256v75l-240 -118l-30 114l510 254v-325z" />
    <glyph glyph-name="u1F624.ss01" 
d="M1628 -283q176 -18 193 -120q12 -68 -20 -111t-85 -53t-92 18q-2 -121 -115 -139q-115 -23 -159 94q-18 -37 -76 -48t-102 19q-44 31 -56 97q-18 102 139 178l9 -47q-82 -53 -72 -117q6 -37 33 -54t61 -9q31 2 45 36l39 -2q16 -47 51 -65t74 -12t65 36t27 78l35 19
q20 -25 57 -23q33 6 55 36t5 82q-15 40 -84 55q-14 3 -19 5zM410 -328q-31 -8 -46 -13t-37 -25t-27 -52q-5 -34 14 -58q18 -24 52 -30t58 23l35 -17q2 -100 92 -116q88 -14 125 77l39 4q12 -35 46 -41q33 -6 61 11q28 18 33 51q5 34 -8 58t-25 34t-40 27l9 47
q156 -72 139 -176q-12 -66 -56 -97t-99 -23q-54 8 -81 50q-20 -55 -63 -79q-43 -25 -93 -15t-82 46t-34 97q-33 -31 -88 -21t-87 55q-32 44 -20 112q16 98 191 118zM1029 485q-91 0 -163 -12l-139 -952l-63 14l147 928q-45 -10 -92 -29l-211 -872l-66 10l211 829
q-82 -51 -123 -120h-118q30 87 102 161t180 119l54 211l51 -10l-45 -180q25 8 77 20l25 150l51 -9l-20 -131q164 15 282 -2l-20 133l51 9l25 -152q53 -12 78 -22l-46 184l52 10l55 -217q207 -90 270 -274h-118q-39 66 -111 112l209 -821l-64 -10l-211 866q-35 14 -92 33
l146 -926l-64 -14l-139 950q-70 14 -161 14zM1079 1163l426 123l25 -115l-426 -122zM516 1171l25 115l428 -123l-25 -114z" />
    <glyph glyph-name="u1F62E.ss01" 
d="M1184 88q-113 0 -193 79t-80 191t80 193q80 80 193 80q114 0 192 -80t78 -193q0 -114 -78 -192t-192 -78zM1192 1225q123 0 123 -261t-123 -262q-123 0 -123 262t123 261zM715 1225q123 0 123 -261t-123 -262q-123 0 -123 262t123 261z" />
    <glyph glyph-name="u1F61B.ss01" 
d="M1198 453h-348q14 -187 55 -265t119 -78t118 78q40 77 56 265zM1559 453h-226q-14 -242 -95 -360t-214 -118q-285 0 -309 478h-226v135h1070v-135zM1264 1225q122 0 122 -261t-122 -262q-123 0 -123 262t123 261zM663 964q0 262 122 261q122 0 122 -261t-121 -262
q-123 0 -123 262z" />
    <glyph glyph-name="u1F61D.ss01" 
d="M1198 453h-348q14 -187 55 -265t119 -78t118 78q40 77 56 265zM1559 453h-226q-14 -242 -95 -360t-214 -118q-285 0 -309 478h-226v135h1070v-135zM1493 1098l-217 -84v-10l217 -107l-51 -143l-330 219v69l330 199zM938 1042v-69l-332 -219l-51 143l217 107v10l-217 84
l51 143z" />
    <glyph glyph-name="u1F602.ss01" 
d="M1991 428q10 -27 21 -85q19 -102 86 -102q32 -1 56 23t24 57q0 32 -22 53q-22 20 -80 32t-85 22zM59 428q-29 -10 -87 -21q-100 -19 -102 -86q-1 -32 24 -57q26 -26 58 -24t52 23t32 77t23 88zM985 461q-111 4 -203 22v-131q94 -29 203 -30v139zM1270 483
q-92 -18 -203 -22v-139q109 2 203 30v131zM164 545l10 -13q-43 -57 -62 -176q-20 -120 -60 -160t-104 -39t-112 48q-47 47 -49 113t39 105t161 59t177 63zM2259 318q0 -62 -47 -110t-114 -50q-66 -2 -106 39t-58 159t-60 176l12 13q57 -43 174 -63t158 -60q41 -42 41 -104z
M1350 383q164 72 217 213q-113 -61 -217 -92v-121zM700 504q-104 31 -215 92q53 -141 215 -213v121zM256 627q55 -51 111 0q20 19 31 77t24 87q-29 -9 -87 -21t-80 -35t-23 -53t24 -55zM1815 682q0 65 -103 87q-57 11 -84 22q10 -27 22 -85t31 -79q56 -53 109 0q25 25 25 55
zM1896 681q0 -61 -43 -107t-98 -53t-96 20q-63 -205 -229 -325t-405 -120t-405 120t-231 325q-41 -27 -95 -20t-98 51t-46 109t38 105t161 60q120 20 177 61l13 -12q-43 -57 -66 -195q229 -127 553 -127t551 127q0 76 -46 163q-9 17 -20 32l13 12q57 -43 174 -62
q118 -19 158 -61t40 -103zM1256 1075q-67 0 -78 -227h-103q6 164 52 252t127 88t129 -88t55 -252h-103q-12 227 -79 227zM795 1075q-65 0 -82 -227h-103q6 164 56 252t129 88q80 0 127 -87t53 -253h-103q-12 227 -77 227z" />
    <glyph glyph-name="u1F628.ss01" 
d="M1026 594q-138 0 -246 -75q-106 -75 -131 -214h752q-25 139 -131 214t-244 75zM1571 170h-1092q23 262 167 415t378 153t378 -153t169 -415zM1372 1106q29 0 48 -20q20 -20 20 -48q0 -27 -20 -47t-48 -20q-29 0 -48 20t-19 47q0 28 19 48t48 20zM676 1106q29 0 48 -20
t19 -48q0 -29 -19 -48t-48 -19t-48 20t-20 47q0 28 20 48t48 20zM1372 1212q-72 0 -123 -51t-51 -123t51 -123t123 -51t123 51t51 123t-51 123t-123 51zM676 1212q-72 0 -123 -51t-51 -123t51 -123t123 -51t123 51t51 123t-51 123t-123 51zM1372 1311q113 0 194 -80t81 -193
q0 -112 -80 -192t-194 -80q-113 0 -193 80t-80 192t80 193q80 80 192 80zM676 1311q114 0 194 -80t80 -193q0 -112 -80 -192t-194 -80t-193 80q-80 80 -80 192t80 193q80 80 193 80z" />
    <glyph glyph-name="u1F633.ss01" 
d="M662 449h718q0 -150 -104 -256q-104 -107 -253 -107t-255 106t-106 257zM1493 569h418q-59 -100 -209 -118q-150 18 -209 118zM137 569h418q-59 -100 -209 -118q-150 18 -209 118zM1458 696q0 28 6 58h475q13 -61 0 -115h-475q-6 29 -6 57zM590 696q0 -29 -6 -57h-475
q-8 37 -8 57t8 58h475q6 -29 6 -58zM1702 936q135 0 209 -115h-416q72 115 207 115zM346 936q135 0 207 -115h-416q74 115 209 115zM1124 1251l78 123l377 -172l-27 -127zM469 1202l375 172l80 -123l-428 -176z" />
    <glyph glyph-name="u1F626.ss01" 
d="M1024 565q-138 0 -246 -75q-106 -75 -131 -214h752q-25 139 -131 214t-244 75zM1024 709q234 0 376 -153q144 -153 169 -415h-1092q25 262 169 415t378 153zM1262 1368q122 0 122 -261t-122 -261t-123 261q0 261 123 261zM784 1368q123 0 123 -261t-123 -261t-123 261
t123 261z" />
    <glyph glyph-name="u1F600.ss01" 
d="M762 430v-141q111 -31 219 -33v150q-108 4 -219 24zM1286 291v141q-104 -23 -217 -26v-150q113 2 217 35zM1374 453v-131q174 78 234 229q-123 -65 -234 -98zM674 322v131q-117 35 -232 98q58 -149 232 -229zM1024 14q-330 0 -526 207t-199 535q268 -225 730 -225
t718 229q-2 -330 -197 -538q-196 -208 -526 -208zM1262 1225q122 0 122 -261t-122 -262q-123 0 -123 262t123 261zM784 1225q123 0 123 -261t-123 -262q-123 0 -123 262t123 261z" />
    <glyph glyph-name="u1F601.ss01" 
d="M762 430v-141q111 -31 219 -33v150q-108 4 -219 24zM1286 291v141q-104 -23 -217 -26v-150q113 2 217 35zM1374 453v-131q174 78 234 229q-123 -65 -234 -98zM674 322v131q-117 35 -232 98q58 -149 232 -229zM1024 14q-330 0 -526 207t-199 535q268 -225 730 -225
t718 229q-2 -330 -197 -538q-196 -208 -526 -208zM1229 872h-125q6 188 65 292t151 104t150 -104q57 -104 64 -292h-125q-14 268 -88 269q-78 -1 -92 -269zM637 872h-125q6 188 66 292t151 104t149 -104t64 -292h-125q-14 268 -92 269q-74 -1 -88 -269z" />
    <glyph glyph-name="u1F610.ss01" 
d="M1561 340h-1074v147h1074v-147zM1264 1225q122 0 122 -261t-122 -262q-123 0 -123 262t123 261zM786 1225q123 0 123 -261t-123 -262q-123 0 -123 262t123 261z" />
    <glyph glyph-name="u1F614.ss01" 
d="M1561 340h-1074v147h1074v-147zM1321 1059q-41 1 -61 -63t-31 -203h-123q6 188 65 290q59 103 151 103t149 -104q58 -104 65 -289h-125q-14 266 -90 266zM727 1059q-72 0 -90 -266h-123q6 188 66 290q60 103 150 103q92 0 150 -104t64 -289h-125q-14 266 -92 266z" />
    <glyph glyph-name="u1F623.ss01" 
d="M1024 598q223 0 392 -119t210 -297h-127q-57 104 -186 172t-289 68t-289 -68t-186 -172h-127q41 178 210 297t392 119zM1493 1098l-215 -84v-10l215 -107l-51 -143l-330 219v69l330 199zM938 1042v-69l-332 -219l-51 143l217 107v10l-217 84l51 143z" />
    <glyph glyph-name="u1F621.ss01" 
d="M1022 303q92 0 150 -54t75 -147h-92q-29 92 -132 92t-132 -92h-92q16 92 74 146q57 54 149 55zM1024 594q240 0 398 -110t206 -279h-135q-49 104 -168 169q-119 64 -302 64t-301 -64t-169 -169h-135q49 169 207 279q159 110 399 110zM1372 975q0 -252 -119 -252t-118 252
v125l475 151l30 -116l-268 -86v-74zM911 975q1 -252 -117 -252t-118 252v74l-268 86l30 116l473 -151v-125z" />
    <glyph glyph-name="u1F60C.ss01" 
d="M1024 119q-238 0 -419 136t-224 343h127q62 -139 202 -227t314 -88t314 88t202 227h127q-43 -207 -224 -343t-419 -136zM1318 766q-91 0 -149 102q-57 102 -63 291h123q11 -139 31 -203t61 -63q76 0 90 266h125q-6 -189 -66 -291t-152 -102zM726 766q-92 0 -148 102
q-57 102 -64 291h123q18 -266 90 -266q78 0 92 266h125q-6 -189 -66 -291t-152 -102z" />
    <glyph glyph-name="u1F607.ss01" 
d="M1024 119q-238 0 -419 136t-224 343h127q62 -139 202 -227t314 -88t314 88t202 227h127q-43 -207 -224 -343t-419 -136zM1262 1225q122 0 122 -261t-122 -262q-123 0 -123 262t123 261zM784 1225q123 0 123 -261t-123 -262q-123 0 -123 262t123 261zM1022 2103
q-326 0 -550 -101t-224 -239q0 -121 215 -223t559 -102t561 101t217 222q0 137 -226 239t-552 103zM1022 2230q252 0 464 -66t331 -174t118 -231q0 -186 -255 -338q-255 -151 -658 -151t-656 152t-253 339q0 185 265 327t644 142z" />
    <glyph glyph-name="u1F608.ss01" 
d="M1024 119q-238 0 -419 136t-224 343h127q62 -139 202 -227t314 -88t314 88t202 227h127q-43 -207 -224 -343t-419 -136zM1372 934q0 -252 -118 -252t-117 252v207l473 151l30 -116l-268 -86v-156zM913 934q-1 -252 -119 -252t-118 252v156l-268 86l30 116l475 -151v-207z
M1780 2003v-561q-182 166 -486 209zM268 2003l486 -352q-303 -43 -486 -209v561z" />
    <glyph glyph-name="u1F603.ss01" 
d="M1024 172q194 0 342 96t199 273q-238 -133 -541 -138q-301 4 -539 138q51 -177 197 -273t342 -96zM1024 43q-307 0 -488 190t-184 496q246 -207 675 -209t669 213q-2 -305 -184 -497t-488 -193zM1262 1307q122 0 122 -261t-122 -262q-123 0 -123 262t123 261zM784 1307
q123 0 123 -261t-123 -262q-123 0 -123 262t123 261z" />
    <glyph glyph-name="u1F605.ss01" 
d="M922 172q195 0 342 96t198 273q-238 -133 -540 -138q-301 4 -539 138q51 -177 197 -273t342 -96zM922 43q-307 0 -489 190q-181 190 -183 496q246 -207 674 -209t669 213q-2 -305 -183 -497t-488 -193zM1577 958q-1 -28 21 -50t54 -22t52 22t20 51t-30 73t-43 72
q-12 -27 -43 -72q-31 -46 -31 -74zM1651 809q-63 0 -106 43q-42 43 -42 97t66 145t76 157h14q10 -67 76 -157q65 -90 65 -144t-43 -98q-43 -43 -106 -43zM1126 872h-125q5 188 65 292t152 104t150 -104q57 -104 64 -292h-123q-18 268 -90 269q-79 -1 -93 -269zM535 872h-125
q6 188 65 292t151 104t150 -104q57 -104 64 -292h-123q-11 140 -31 204t-61 65q-76 -1 -90 -269z" />
    <glyph glyph-name="u1F604.ss01" 
d="M1024 172q194 0 342 96t199 273q-238 -133 -541 -138q-301 4 -539 138q51 -177 197 -273t342 -96zM1024 43q-307 0 -488 190t-184 496q246 -207 675 -209t669 213q-2 -305 -184 -497t-488 -193zM1229 872h-125q6 188 65 292t151 104t150 -104q57 -104 64 -292h-123
q-18 268 -90 269q-78 -1 -92 -269zM637 872h-125q6 188 66 292t151 104t149 -104t64 -292h-123q-11 140 -31 204t-61 65q-76 -1 -90 -269z" />
    <glyph glyph-name="u1F606.ss01" 
d="M1025 451q-298 0 -540 135q51 -178 197 -272t342 -95q194 1 342 95t199 272q-242 -135 -540 -135zM1024 88q-307 0 -488 192t-184 496q248 -211 676 -211t668 213q-2 -306 -184 -498t-488 -192zM1493 1145l-217 -84v-12l217 -105l-51 -143l-332 219v70l332 196zM936 1090
v-70l-330 -219l-51 143l215 105v12l-215 84l51 141z" />
    <glyph glyph-name="u1F60A.ss01" 
d="M1024 154q-238 0 -419 136t-224 343h127q64 -139 204 -227t313 -88t313 88t202 227h127q-43 -207 -224 -343t-419 -136zM1229 872h-123q6 190 65 292t151 104q92 0 149 -104q58 -104 65 -292h-125q-14 268 -90 269q-41 0 -61 -64t-31 -205zM637 872h-123q6 190 66 292
t150 104q92 0 150 -104t64 -292h-125q-14 268 -92 269q-72 -1 -90 -269z" />
    <glyph glyph-name="u1F60E.ss01" 
d="M1032 119q-238 0 -419 136t-224 343h125q64 -139 204 -227t314 -88t314 88q139 88 202 227h127q-43 -207 -224 -343t-419 -136zM1468 727h-137q-82 0 -118 31t-62 100l-78 215h-82l-80 -215q-25 -70 -61 -100t-117 -31h-137q-98 0 -146 44t-77 138l-51 164h-179l70 144
h1622l70 -144h-162l-51 -164q-29 -94 -77 -138t-147 -44z" />
    <glyph glyph-name="u1F60F.ss01" 
d="M934 145v160q184 0 328 113q143 113 186 287h162q-46 -240 -236 -400t-440 -160zM1427 936h-430v147h430v-147zM868 936h-430v147h430v-147z" />
    <glyph glyph-name="u1F612.ss01" 
d="M1587 412h-1073v147h1073v-147zM1645 1157v-125q0 -262 -122 -262t-122 262h-301v125h545zM948 1157v-125q0 -262 -122 -262t-121 262h-302v125h545z" />
    <glyph glyph-name="uni2639.ss01" 
d="M639 172h-145q0 186 155 317q156 131 375 131t374 -130q155 -132 154 -318h-145q0 119 -113 203q-114 84 -272 84t-270 -84t-113 -203zM1262 1278q122 0 122 -260t-122 -260t-123 260q0 260 123 260zM784 1278q123 0 123 -260t-123 -260t-123 260t123 260z" />
    <glyph glyph-name="u1F609.ss01" 
d="M1024 119q-238 0 -419 136t-224 343h127q62 -139 202 -227t314 -88t314 88t202 227h127q-43 -207 -224 -343t-419 -136zM1483 1112l-187 -100l187 -125l-53 -129l-285 203v104l285 178zM785 1276q122 0 122 -258t-122 -258t-122 258t122 258z" />
    <glyph glyph-name="u1F61F.ss01" 
d="M1022 303q92 0 150 -54t75 -147h-92q-29 92 -132 92t-132 -92h-92q16 92 74 146q57 54 149 55zM1024 594q240 0 398 -110t206 -279h-135q-49 104 -168 169q-119 64 -302 64t-301 -64t-169 -169h-135q49 169 207 279q159 110 399 110zM1295 784q-114 0 -113 244v123
l-60 33v159l391 -208v-168l-104 57q0 -240 -114 -240zM864 1028q0 -244 -112 -244t-115 240l-105 -57v168l394 208v-159l-62 -33v-123z" />
    <glyph glyph-name="faceWithStuckOutTongueAndWinkin" 
d="M1198 451h-348q14 -185 55 -263t119 -78t118 78q40 77 56 263zM1559 451h-226q-14 -240 -95 -358t-214 -118q-285 0 -309 476h-226v135h1070v-135zM1483 1112l-187 -102l187 -121l-53 -131l-285 203v104l285 178zM785 1276q122 0 122 -258t-122 -258t-122 258t122 258z
" />
    <glyph glyph-name="whiteSmilingFace.ss01" 
d="M1024 119q-238 0 -419 136t-224 343h127q62 -139 202 -227t314 -88t314 88t202 227h127q-43 -207 -224 -343t-419 -136zM1264 1225q122 0 122 -261t-122 -262q-123 0 -123 262t123 261zM786 1225q123 0 123 -261t-123 -262q-123 0 -123 262t123 261z" />
    </font>
</defs>
</svg>
